<?xml version="1.0" encoding="utf-8" standalone="no"?>
<!DOCTYPE svg PUBLIC "-//W3C//DTD SVG 1.1//EN"
  "http://www.w3.org/Graphics/SVG/1.1/DTD/svg11.dtd">
<svg xmlns:xlink="http://www.w3.org/1999/xlink" width="460.8pt" height="345.6pt" viewBox="0 0 460.8 345.6" xmlns="http://www.w3.org/2000/svg" version="1.1">
 <metadata>
  <rdf:RDF xmlns:dc="http://purl.org/dc/elements/1.1/" xmlns:cc="http://creativecommons.org/ns#" xmlns:rdf="http://www.w3.org/1999/02/22-rdf-syntax-ns#">
   <cc:Work>
    <dc:type rdf:resource="http://purl.org/dc/dcmitype/StillImage"/>
    <dc:date>2025-11-25T17:05:00.811912</dc:date>
    <dc:format>image/svg+xml</dc:format>
    <dc:creator>
     <cc:Agent>
      <dc:title>Matplotlib v3.6.2, https://matplotlib.org/</dc:title>
     </cc:Agent>
    </dc:creator>
   </cc:Work>
  </rdf:RDF>
 </metadata>
 <defs>
  <style type="text/css">*{stroke-linejoin: round; stroke-linecap: butt}</style>
 </defs>
 <g id="figure_1">
  <g id="patch_1">
   <path d="M 0 345.6 
L 460.8 345.6 
L 460.8 0 
L 0 0 
L 0 345.6 
z
" style="fill: none"/>
  </g>
  <g id="axes_1">
   <g id="patch_2">
    <path d="M 57.6 307.584 
L 414.72 307.584 
L 414.72 41.472 
L 57.6 41.472 
L 57.6 307.584 
z
" style="fill: none"/>
   </g>
   <g id="PolyCollection_1">
    <defs>
     <path id="mecf8ea420a" d="M 73.832727 -72.110996 
L 73.832727 -61.256547 
L 76.151688 -64.69194 
L 78.470649 -63.589169 
L 80.78961 -62.513023 
L 83.108571 -68.591678 
L 85.427532 -69.973735 
L 87.746494 -65.304722 
L 90.065455 -61.418108 
L 92.384416 -60.915654 
L 94.703377 -63.048785 
L 97.022338 -71.416924 
L 99.341299 -73.68083 
L 101.66026 -69.209395 
L 103.979221 -64.284229 
L 106.298182 -64.869088 
L 108.617143 -66.534829 
L 110.936104 -70.333331 
L 113.255065 -76.854231 
L 115.574026 -76.722278 
L 117.892987 -73.528127 
L 120.211948 -71.246573 
L 122.530909 -75.039373 
L 124.84987 -84.874615 
L 127.168831 -83.992218 
L 129.487792 -73.643202 
L 131.806753 -72.838131 
L 134.125714 -71.634816 
L 136.444675 -73.451283 
L 138.763636 -84.064073 
L 141.082597 -105.853495 
L 143.401558 -136.852981 
L 145.720519 -164.829685 
L 148.039481 -177.834389 
L 150.358442 -167.633502 
L 152.677403 -146.949947 
L 154.996364 -134.430723 
L 157.315325 -132.365072 
L 159.634286 -136.736127 
L 161.953247 -147.924315 
L 164.272208 -159.375312 
L 166.591169 -166.158686 
L 168.91013 -168.931312 
L 171.229091 -171.734709 
L 173.548052 -171.799587 
L 175.867013 -167.826645 
L 178.185974 -162.142978 
L 180.504935 -156.208351 
L 182.823896 -151.055043 
L 185.142857 -147.154986 
L 187.461818 -143.458842 
L 189.780779 -137.954471 
L 192.09974 -129.865417 
L 194.418701 -119.723611 
L 196.737662 -109.969283 
L 199.056623 -101.685394 
L 201.375584 -96.407384 
L 203.694545 -95.012499 
L 206.013506 -95.816243 
L 208.332468 -99.710078 
L 210.651429 -105.526886 
L 212.97039 -109.466254 
L 215.289351 -110.704946 
L 217.608312 -110.346306 
L 219.927273 -110.338874 
L 222.246234 -113.955366 
L 224.565195 -121.245135 
L 226.884156 -129.378418 
L 229.203117 -135.736358 
L 231.522078 -138.158532 
L 233.841039 -136.732212 
L 236.16 -132.075563 
L 238.478961 -124.774944 
L 240.797922 -117.811629 
L 243.116883 -111.680843 
L 245.435844 -106.840396 
L 247.754805 -105.107281 
L 250.073766 -106.204534 
L 252.392727 -109.98601 
L 254.711688 -115.538031 
L 257.030649 -120.46755 
L 259.34961 -121.892077 
L 261.668571 -122.517613 
L 263.987532 -123.711699 
L 266.306494 -123.804929 
L 268.625455 -121.856564 
L 270.944416 -120.245419 
L 273.263377 -120.881757 
L 275.582338 -122.368171 
L 277.901299 -124.579362 
L 280.22026 -125.517629 
L 282.539221 -124.504556 
L 284.858182 -122.4928 
L 287.177143 -120.385051 
L 289.496104 -119.183332 
L 291.815065 -119.582499 
L 294.134026 -118.396763 
L 296.452987 -113.724995 
L 298.771948 -108.080946 
L 301.090909 -101.818669 
L 303.40987 -95.302131 
L 305.728831 -89.928461 
L 308.047792 -86.375912 
L 310.366753 -84.960171 
L 312.685714 -85.622189 
L 315.004675 -86.419135 
L 317.323636 -87.428386 
L 319.642597 -89.0976 
L 321.961558 -92.528028 
L 324.280519 -95.880281 
L 326.599481 -97.74729 
L 328.918442 -96.137339 
L 331.237403 -92.268348 
L 333.556364 -87.371619 
L 335.875325 -83.120391 
L 338.194286 -81.154281 
L 340.513247 -83.148048 
L 342.832208 -88.531822 
L 345.151169 -94.60404 
L 347.47013 -98.385252 
L 349.789091 -98.328698 
L 352.108052 -95.484164 
L 354.427013 -93.92826 
L 356.745974 -93.602418 
L 359.064935 -95.019448 
L 361.383896 -96.787071 
L 363.702857 -98.765582 
L 366.021818 -100.022061 
L 368.340779 -100.556889 
L 370.65974 -100.549525 
L 372.978701 -100.210148 
L 375.297662 -98.267775 
L 377.616623 -95.533539 
L 379.935584 -92.802757 
L 382.254545 -91.933191 
L 384.573506 -92.676892 
L 386.892468 -95.987465 
L 389.211429 -100.410571 
L 391.53039 -105.41467 
L 393.849351 -109.64639 
L 396.168312 -112.940541 
L 398.487273 -114.752991 
L 398.487273 -140.293023 
L 398.487273 -140.293023 
L 396.168312 -139.090909 
L 393.849351 -136.962219 
L 391.53039 -133.970888 
L 389.211429 -130.869439 
L 386.892468 -128.75207 
L 384.573506 -127.229311 
L 382.254545 -126.767013 
L 379.935584 -126.871745 
L 377.616623 -128.405791 
L 375.297662 -129.506876 
L 372.978701 -129.331087 
L 370.65974 -127.49784 
L 368.340779 -126.317435 
L 366.021818 -126.18372 
L 363.702857 -126.610908 
L 361.383896 -126.361006 
L 359.064935 -126.191709 
L 356.745974 -126.200681 
L 354.427013 -127.298185 
L 352.108052 -129.140315 
L 349.789091 -131.873001 
L 347.47013 -131.643036 
L 345.151169 -127.92567 
L 342.832208 -122.52655 
L 340.513247 -118.340487 
L 338.194286 -117.502745 
L 335.875325 -120.46013 
L 333.556364 -125.336128 
L 331.237403 -130.388579 
L 328.918442 -133.755754 
L 326.599481 -134.269834 
L 324.280519 -131.179909 
L 321.961558 -126.812171 
L 319.642597 -122.090127 
L 317.323636 -119.058763 
L 315.004675 -117.496345 
L 312.685714 -117.273111 
L 310.366753 -117.98885 
L 308.047792 -120.608496 
L 305.728831 -125.280108 
L 303.40987 -132.204124 
L 301.090909 -140.400031 
L 298.771948 -147.827891 
L 296.452987 -153.971569 
L 294.134026 -157.958106 
L 291.815065 -157.2909 
L 289.496104 -154.9631 
L 287.177143 -155.450178 
L 284.858182 -158.472738 
L 282.539221 -162.193315 
L 280.22026 -164.963321 
L 277.901299 -165.177547 
L 275.582338 -163.195541 
L 273.263377 -161.038138 
L 270.944416 -159.379516 
L 268.625455 -159.962869 
L 266.306494 -160.806398 
L 263.987532 -159.211578 
L 261.668571 -156.789467 
L 259.34961 -155.179101 
L 257.030649 -152.786081 
L 254.711688 -147.160539 
L 252.392727 -141.31398 
L 250.073766 -137.315596 
L 247.754805 -136.066442 
L 245.435844 -137.990554 
L 243.116883 -143.688399 
L 240.797922 -150.360722 
L 238.478961 -157.657894 
L 236.16 -164.534078 
L 233.841039 -167.705327 
L 231.522078 -166.791342 
L 229.203117 -161.960708 
L 226.884156 -154.422898 
L 224.565195 -146.382567 
L 222.246234 -141.010349 
L 219.927273 -141.290608 
L 217.608312 -146.048615 
L 215.289351 -149.853474 
L 212.97039 -149.74326 
L 210.651429 -145.36338 
L 208.332468 -139.135513 
L 206.013506 -134.804476 
L 203.694545 -133.702016 
L 201.375584 -135.177548 
L 199.056623 -141.162773 
L 196.737662 -149.92107 
L 194.418701 -159.637258 
L 192.09974 -170.575766 
L 189.780779 -180.810805 
L 187.461818 -187.903598 
L 185.142857 -191.720557 
L 182.823896 -194.915054 
L 180.504935 -200.460671 
L 178.185974 -208.563957 
L 175.867013 -217.866586 
L 173.548052 -224.239496 
L 171.229091 -224.503764 
L 168.91013 -220.598194 
L 166.591169 -216.33461 
L 164.272208 -208.23059 
L 161.953247 -196.254705 
L 159.634286 -185.374442 
L 157.315325 -181.68948 
L 154.996364 -185.482702 
L 152.677403 -199.707302 
L 150.358442 -219.478046 
L 148.039481 -226.07785 
L 145.720519 -206.718369 
L 143.401558 -174.682148 
L 141.082597 -145.246951 
L 138.763636 -127.58844 
L 136.444675 -119.138385 
L 134.125714 -116.111119 
L 131.806753 -113.171675 
L 129.487792 -108.692665 
L 127.168831 -116.148529 
L 124.84987 -118.839516 
L 122.530909 -105.774835 
L 120.211948 -96.325736 
L 117.892987 -92.447239 
L 115.574026 -93.350377 
L 113.255065 -92.455647 
L 110.936104 -84.30177 
L 108.617143 -79.771243 
L 106.298182 -75.970078 
L 103.979221 -74.924928 
L 101.66026 -78.773755 
L 99.341299 -83.174111 
L 97.022338 -83.113023 
L 94.703377 -74.425849 
L 92.384416 -72.801792 
L 90.065455 -72.21962 
L 87.746494 -73.719997 
L 85.427532 -77.981229 
L 83.108571 -77.773264 
L 80.78961 -76.860443 
L 78.470649 -78.119847 
L 76.151688 -77.819021 
L 73.832727 -72.110996 
z
" style="stroke: #bfd200; stroke-opacity: 0.1"/>
    </defs>
    <g clip-path="url(#p3bef7a47f7)">
     <use xlink:href="#mecf8ea420a" x="0" y="345.6" style="fill: #bfd200; fill-opacity: 0.1; stroke: #bfd200; stroke-opacity: 0.1"/>
    </g>
   </g>
   <g id="PolyCollection_2">
    <defs>
     <path id="m69dad61af2" d="M 73.832727 -70.300264 
L 73.832727 -61.189294 
L 76.151688 -58.52307 
L 78.470649 -60.131423 
L 80.78961 -63.27539 
L 83.108571 -61.965907 
L 85.427532 -58.729593 
L 87.746494 -55.593587 
L 90.065455 -53.766402 
L 92.384416 -63.637845 
L 94.703377 -65.339454 
L 97.022338 -55.51528 
L 99.341299 -50.64988 
L 101.66026 -54.227998 
L 103.979221 -61.90027 
L 106.298182 -63.091067 
L 108.617143 -63.680178 
L 110.936104 -63.77637 
L 113.255065 -61.832308 
L 115.574026 -64.625039 
L 117.892987 -71.008506 
L 120.211948 -84.222352 
L 122.530909 -107.127858 
L 124.84987 -141.43702 
L 127.168831 -166.556087 
L 129.487792 -178.245303 
L 131.806753 -173.50961 
L 134.125714 -171.005156 
L 136.444675 -173.235299 
L 138.763636 -169.483422 
L 141.082597 -142.590598 
L 143.401558 -98.678086 
L 145.720519 -69.386359 
L 148.039481 -69.789381 
L 150.358442 -84.623463 
L 152.677403 -93.321123 
L 154.996364 -90.057738 
L 157.315325 -82.452623 
L 159.634286 -76.140729 
L 161.953247 -70.93464 
L 164.272208 -68.3949 
L 166.591169 -70.149767 
L 168.91013 -74.965059 
L 171.229091 -79.438825 
L 173.548052 -84.114908 
L 175.867013 -88.388133 
L 178.185974 -87.823737 
L 180.504935 -83.399268 
L 182.823896 -76.577402 
L 185.142857 -71.671803 
L 187.461818 -72.509004 
L 189.780779 -79.392454 
L 192.09974 -89.02483 
L 194.418701 -98.090285 
L 196.737662 -104.421096 
L 199.056623 -109.200843 
L 201.375584 -112.302221 
L 203.694545 -114.058007 
L 206.013506 -113.769166 
L 208.332468 -110.036452 
L 210.651429 -104.359446 
L 212.97039 -98.896384 
L 215.289351 -94.830594 
L 217.608312 -93.557279 
L 219.927273 -94.942365 
L 222.246234 -96.780899 
L 224.565195 -99.750854 
L 226.884156 -103.971553 
L 229.203117 -108.57793 
L 231.522078 -111.493944 
L 233.841039 -111.694093 
L 236.16 -110.008731 
L 238.478961 -108.578295 
L 240.797922 -105.220066 
L 243.116883 -102.252757 
L 245.435844 -100.744296 
L 247.754805 -99.17245 
L 250.073766 -98.037198 
L 252.392727 -97.306589 
L 254.711688 -96.203817 
L 257.030649 -94.572098 
L 259.34961 -94.571379 
L 261.668571 -93.120336 
L 263.987532 -90.494504 
L 266.306494 -87.333123 
L 268.625455 -86.84315 
L 270.944416 -88.289236 
L 273.263377 -90.540554 
L 275.582338 -92.148215 
L 277.901299 -90.917146 
L 280.22026 -87.271032 
L 282.539221 -83.797568 
L 284.858182 -82.474392 
L 287.177143 -83.235152 
L 289.496104 -85.706492 
L 291.815065 -88.047745 
L 294.134026 -90.639185 
L 296.452987 -92.877127 
L 298.771948 -94.268889 
L 301.090909 -94.449789 
L 303.40987 -94.710091 
L 305.728831 -96.438424 
L 308.047792 -99.538926 
L 310.366753 -100.758268 
L 312.685714 -99.47138 
L 315.004675 -97.445759 
L 317.323636 -96.48744 
L 319.642597 -97.487122 
L 321.961558 -99.579864 
L 324.280519 -102.327444 
L 326.599481 -104.888372 
L 328.918442 -106.526344 
L 331.237403 -107.359285 
L 333.556364 -107.596581 
L 335.875325 -107.216404 
L 338.194286 -106.309926 
L 340.513247 -105.026999 
L 342.832208 -103.625588 
L 345.151169 -101.734126 
L 347.47013 -98.697519 
L 349.789091 -94.997799 
L 352.108052 -92.978013 
L 354.427013 -92.527247 
L 356.745974 -92.686452 
L 359.064935 -93.110166 
L 361.383896 -95.54421 
L 363.702857 -99.797958 
L 366.021818 -103.030621 
L 368.340779 -103.211517 
L 370.65974 -99.939601 
L 372.978701 -96.108115 
L 375.297662 -94.305135 
L 377.616623 -94.431996 
L 379.935584 -96.473835 
L 382.254545 -98.229746 
L 384.573506 -98.116572 
L 386.892468 -95.392023 
L 389.211429 -90.502226 
L 391.53039 -86.111637 
L 393.849351 -83.916492 
L 396.168312 -83.003491 
L 398.487273 -81.916527 
L 398.487273 -114.736532 
L 398.487273 -114.736532 
L 396.168312 -114.675746 
L 393.849351 -114.371029 
L 391.53039 -115.910675 
L 389.211429 -120.909155 
L 386.892468 -127.495459 
L 384.573506 -132.258444 
L 382.254545 -133.842226 
L 379.935584 -132.958594 
L 377.616623 -131.363707 
L 375.297662 -130.679236 
L 372.978701 -131.006804 
L 370.65974 -132.711702 
L 368.340779 -134.347345 
L 366.021818 -133.79237 
L 363.702857 -130.895124 
L 361.383896 -127.292928 
L 359.064935 -125.665777 
L 356.745974 -126.187007 
L 354.427013 -126.949686 
L 352.108052 -128.342165 
L 349.789091 -130.977067 
L 347.47013 -135.099087 
L 345.151169 -138.230731 
L 342.832208 -140.027856 
L 340.513247 -140.872305 
L 338.194286 -140.770378 
L 335.875325 -139.92246 
L 333.556364 -138.961381 
L 331.237403 -138.866903 
L 328.918442 -139.622116 
L 326.599481 -139.593428 
L 324.280519 -137.573878 
L 321.961558 -134.31006 
L 319.642597 -131.674002 
L 317.323636 -130.783164 
L 315.004675 -131.12723 
L 312.685714 -131.605246 
L 310.366753 -131.015517 
L 308.047792 -128.187835 
L 305.728831 -123.638411 
L 303.40987 -120.924832 
L 301.090909 -120.838321 
L 298.771948 -122.450287 
L 296.452987 -123.749407 
L 294.134026 -124.187939 
L 291.815065 -123.401123 
L 289.496104 -122.003749 
L 287.177143 -119.580897 
L 284.858182 -118.026722 
L 282.539221 -118.117148 
L 280.22026 -120.139183 
L 277.901299 -122.612257 
L 275.582338 -123.864838 
L 273.263377 -123.798921 
L 270.944416 -124.32384 
L 268.625455 -125.338145 
L 266.306494 -127.344496 
L 263.987532 -130.952609 
L 261.668571 -133.834024 
L 259.34961 -135.396616 
L 257.030649 -135.183385 
L 254.711688 -136.444225 
L 252.392727 -137.632552 
L 250.073766 -138.168344 
L 247.754805 -138.472348 
L 245.435844 -139.049775 
L 243.116883 -140.415472 
L 240.797922 -144.442245 
L 238.478961 -149.423652 
L 236.16 -153.001805 
L 233.841039 -156.44796 
L 231.522078 -156.483846 
L 229.203117 -152.773896 
L 226.884156 -147.557896 
L 224.565195 -143.164902 
L 222.246234 -140.465609 
L 219.927273 -139.442229 
L 217.608312 -139.477271 
L 215.289351 -142.061945 
L 212.97039 -145.775638 
L 210.651429 -149.198619 
L 208.332468 -152.294197 
L 206.013506 -154.147884 
L 203.694545 -153.80119 
L 201.375584 -152.173257 
L 199.056623 -148.488913 
L 196.737662 -143.093547 
L 194.418701 -136.691965 
L 192.09974 -127.887691 
L 189.780779 -118.630772 
L 187.461818 -112.990499 
L 185.142857 -113.838114 
L 182.823896 -119.622564 
L 180.504935 -126.380418 
L 178.185974 -131.011743 
L 175.867013 -132.072862 
L 173.548052 -126.477462 
L 171.229091 -119.361772 
L 168.91013 -112.754923 
L 166.591169 -106.470251 
L 164.272208 -103.123766 
L 161.953247 -104.271618 
L 159.634286 -108.587552 
L 157.315325 -115.004286 
L 154.996364 -124.627637 
L 152.677403 -130.190255 
L 150.358442 -121.45488 
L 148.039481 -106.415016 
L 145.720519 -105.680968 
L 143.401558 -133.339687 
L 141.082597 -176.644028 
L 138.763636 -203.191263 
L 136.444675 -208.025026 
L 134.125714 -210.195972 
L 131.806753 -216.752007 
L 129.487792 -224.842007 
L 127.168831 -213.418259 
L 124.84987 -182.584036 
L 122.530909 -132.606693 
L 120.211948 -98.73946 
L 117.892987 -81.462882 
L 115.574026 -76.023375 
L 113.255065 -74.567359 
L 110.936104 -76.293525 
L 108.617143 -74.841183 
L 106.298182 -73.083272 
L 103.979221 -70.945769 
L 101.66026 -63.848988 
L 99.341299 -59.015458 
L 97.022338 -67.174454 
L 94.703377 -75.487872 
L 92.384416 -73.026997 
L 90.065455 -64.275422 
L 87.746494 -64.809869 
L 85.427532 -67.36922 
L 83.108571 -72.666219 
L 80.78961 -75.201574 
L 78.470649 -70.79185 
L 76.151688 -68.940086 
L 73.832727 -70.300264 
z
" style="stroke: #348aa7; stroke-opacity: 0.1"/>
    </defs>
    <g clip-path="url(#p3bef7a47f7)">
     <use xlink:href="#m69dad61af2" x="0" y="345.6" style="fill: #348aa7; fill-opacity: 0.1; stroke: #348aa7; stroke-opacity: 0.1"/>
    </g>
   </g>
   <g id="matplotlib.axis_1">
    <g id="xtick_1">
     <g id="line2d_1">
      <defs>
       <path id="mbea4dcdaa2" d="M 0 0 
L 0 3.5 
" style="stroke: #000000; stroke-width: 0.8"/>
      </defs>
      <g>
       <use xlink:href="#mbea4dcdaa2" x="103.346777" y="307.584" style="stroke: #000000; stroke-width: 0.8"/>
      </g>
     </g>
     <g id="text_1">
      <!-- 0.0 -->
      <g transform="translate(95.395214 322.182437) scale(0.1 -0.1)">
       <defs>
        <path id="DejaVuSans-30" d="M 2034 4250 
Q 1547 4250 1301 3770 
Q 1056 3291 1056 2328 
Q 1056 1369 1301 889 
Q 1547 409 2034 409 
Q 2525 409 2770 889 
Q 3016 1369 3016 2328 
Q 3016 3291 2770 3770 
Q 2525 4250 2034 4250 
z
M 2034 4750 
Q 2819 4750 3233 4129 
Q 3647 3509 3647 2328 
Q 3647 1150 3233 529 
Q 2819 -91 2034 -91 
Q 1250 -91 836 529 
Q 422 1150 422 2328 
Q 422 3509 836 4129 
Q 1250 4750 2034 4750 
z
" transform="scale(0.015625)"/>
        <path id="DejaVuSans-2e" d="M 684 794 
L 1344 794 
L 1344 0 
L 684 0 
L 684 794 
z
" transform="scale(0.015625)"/>
       </defs>
       <use xlink:href="#DejaVuSans-30"/>
       <use xlink:href="#DejaVuSans-2e" x="63.623047"/>
       <use xlink:href="#DejaVuSans-30" x="95.410156"/>
      </g>
     </g>
    </g>
    <g id="xtick_2">
     <g id="line2d_2">
      <g>
       <use xlink:href="#mbea4dcdaa2" x="162.374876" y="307.584" style="stroke: #000000; stroke-width: 0.8"/>
      </g>
     </g>
     <g id="text_2">
      <!-- 0.2 -->
      <g transform="translate(154.423314 322.182437) scale(0.1 -0.1)">
       <defs>
        <path id="DejaVuSans-32" d="M 1228 531 
L 3431 531 
L 3431 0 
L 469 0 
L 469 531 
Q 828 903 1448 1529 
Q 2069 2156 2228 2338 
Q 2531 2678 2651 2914 
Q 2772 3150 2772 3378 
Q 2772 3750 2511 3984 
Q 2250 4219 1831 4219 
Q 1534 4219 1204 4116 
Q 875 4013 500 3803 
L 500 4441 
Q 881 4594 1212 4672 
Q 1544 4750 1819 4750 
Q 2544 4750 2975 4387 
Q 3406 4025 3406 3419 
Q 3406 3131 3298 2873 
Q 3191 2616 2906 2266 
Q 2828 2175 2409 1742 
Q 1991 1309 1228 531 
z
" transform="scale(0.015625)"/>
       </defs>
       <use xlink:href="#DejaVuSans-30"/>
       <use xlink:href="#DejaVuSans-2e" x="63.623047"/>
       <use xlink:href="#DejaVuSans-32" x="95.410156"/>
      </g>
     </g>
    </g>
    <g id="xtick_3">
     <g id="line2d_3">
      <g>
       <use xlink:href="#mbea4dcdaa2" x="221.402975" y="307.584" style="stroke: #000000; stroke-width: 0.8"/>
      </g>
     </g>
     <g id="text_3">
      <!-- 0.4 -->
      <g transform="translate(213.451413 322.182437) scale(0.1 -0.1)">
       <defs>
        <path id="DejaVuSans-34" d="M 2419 4116 
L 825 1625 
L 2419 1625 
L 2419 4116 
z
M 2253 4666 
L 3047 4666 
L 3047 1625 
L 3713 1625 
L 3713 1100 
L 3047 1100 
L 3047 0 
L 2419 0 
L 2419 1100 
L 313 1100 
L 313 1709 
L 2253 4666 
z
" transform="scale(0.015625)"/>
       </defs>
       <use xlink:href="#DejaVuSans-30"/>
       <use xlink:href="#DejaVuSans-2e" x="63.623047"/>
       <use xlink:href="#DejaVuSans-34" x="95.410156"/>
      </g>
     </g>
    </g>
    <g id="xtick_4">
     <g id="line2d_4">
      <g>
       <use xlink:href="#mbea4dcdaa2" x="280.431074" y="307.584" style="stroke: #000000; stroke-width: 0.8"/>
      </g>
     </g>
     <g id="text_4">
      <!-- 0.6 -->
      <g transform="translate(272.479512 322.182437) scale(0.1 -0.1)">
       <defs>
        <path id="DejaVuSans-36" d="M 2113 2584 
Q 1688 2584 1439 2293 
Q 1191 2003 1191 1497 
Q 1191 994 1439 701 
Q 1688 409 2113 409 
Q 2538 409 2786 701 
Q 3034 994 3034 1497 
Q 3034 2003 2786 2293 
Q 2538 2584 2113 2584 
z
M 3366 4563 
L 3366 3988 
Q 3128 4100 2886 4159 
Q 2644 4219 2406 4219 
Q 1781 4219 1451 3797 
Q 1122 3375 1075 2522 
Q 1259 2794 1537 2939 
Q 1816 3084 2150 3084 
Q 2853 3084 3261 2657 
Q 3669 2231 3669 1497 
Q 3669 778 3244 343 
Q 2819 -91 2113 -91 
Q 1303 -91 875 529 
Q 447 1150 447 2328 
Q 447 3434 972 4092 
Q 1497 4750 2381 4750 
Q 2619 4750 2861 4703 
Q 3103 4656 3366 4563 
z
" transform="scale(0.015625)"/>
       </defs>
       <use xlink:href="#DejaVuSans-30"/>
       <use xlink:href="#DejaVuSans-2e" x="63.623047"/>
       <use xlink:href="#DejaVuSans-36" x="95.410156"/>
      </g>
     </g>
    </g>
    <g id="xtick_5">
     <g id="line2d_5">
      <g>
       <use xlink:href="#mbea4dcdaa2" x="339.459174" y="307.584" style="stroke: #000000; stroke-width: 0.8"/>
      </g>
     </g>
     <g id="text_5">
      <!-- 0.8 -->
      <g transform="translate(331.507611 322.182437) scale(0.1 -0.1)">
       <defs>
        <path id="DejaVuSans-38" d="M 2034 2216 
Q 1584 2216 1326 1975 
Q 1069 1734 1069 1313 
Q 1069 891 1326 650 
Q 1584 409 2034 409 
Q 2484 409 2743 651 
Q 3003 894 3003 1313 
Q 3003 1734 2745 1975 
Q 2488 2216 2034 2216 
z
M 1403 2484 
Q 997 2584 770 2862 
Q 544 3141 544 3541 
Q 544 4100 942 4425 
Q 1341 4750 2034 4750 
Q 2731 4750 3128 4425 
Q 3525 4100 3525 3541 
Q 3525 3141 3298 2862 
Q 3072 2584 2669 2484 
Q 3125 2378 3379 2068 
Q 3634 1759 3634 1313 
Q 3634 634 3220 271 
Q 2806 -91 2034 -91 
Q 1263 -91 848 271 
Q 434 634 434 1313 
Q 434 1759 690 2068 
Q 947 2378 1403 2484 
z
M 1172 3481 
Q 1172 3119 1398 2916 
Q 1625 2713 2034 2713 
Q 2441 2713 2670 2916 
Q 2900 3119 2900 3481 
Q 2900 3844 2670 4047 
Q 2441 4250 2034 4250 
Q 1625 4250 1398 4047 
Q 1172 3844 1172 3481 
z
" transform="scale(0.015625)"/>
       </defs>
       <use xlink:href="#DejaVuSans-30"/>
       <use xlink:href="#DejaVuSans-2e" x="63.623047"/>
       <use xlink:href="#DejaVuSans-38" x="95.410156"/>
      </g>
     </g>
    </g>
    <g id="xtick_6">
     <g id="line2d_6">
      <g>
       <use xlink:href="#mbea4dcdaa2" x="398.487273" y="307.584" style="stroke: #000000; stroke-width: 0.8"/>
      </g>
     </g>
     <g id="text_6">
      <!-- 1.0 -->
      <g transform="translate(390.53571 322.182437) scale(0.1 -0.1)">
       <defs>
        <path id="DejaVuSans-31" d="M 794 531 
L 1825 531 
L 1825 4091 
L 703 3866 
L 703 4441 
L 1819 4666 
L 2450 4666 
L 2450 531 
L 3481 531 
L 3481 0 
L 794 0 
L 794 531 
z
" transform="scale(0.015625)"/>
       </defs>
       <use xlink:href="#DejaVuSans-31"/>
       <use xlink:href="#DejaVuSans-2e" x="63.623047"/>
       <use xlink:href="#DejaVuSans-30" x="95.410156"/>
      </g>
     </g>
    </g>
    <g id="text_7">
     <!-- Time (s) -->
     <g transform="translate(215.831094 335.860562) scale(0.1 -0.1)">
      <defs>
       <path id="DejaVuSans-54" d="M -19 4666 
L 3928 4666 
L 3928 4134 
L 2272 4134 
L 2272 0 
L 1638 0 
L 1638 4134 
L -19 4134 
L -19 4666 
z
" transform="scale(0.015625)"/>
       <path id="DejaVuSans-69" d="M 603 3500 
L 1178 3500 
L 1178 0 
L 603 0 
L 603 3500 
z
M 603 4863 
L 1178 4863 
L 1178 4134 
L 603 4134 
L 603 4863 
z
" transform="scale(0.015625)"/>
       <path id="DejaVuSans-6d" d="M 3328 2828 
Q 3544 3216 3844 3400 
Q 4144 3584 4550 3584 
Q 5097 3584 5394 3201 
Q 5691 2819 5691 2113 
L 5691 0 
L 5113 0 
L 5113 2094 
Q 5113 2597 4934 2840 
Q 4756 3084 4391 3084 
Q 3944 3084 3684 2787 
Q 3425 2491 3425 1978 
L 3425 0 
L 2847 0 
L 2847 2094 
Q 2847 2600 2669 2842 
Q 2491 3084 2119 3084 
Q 1678 3084 1418 2786 
Q 1159 2488 1159 1978 
L 1159 0 
L 581 0 
L 581 3500 
L 1159 3500 
L 1159 2956 
Q 1356 3278 1631 3431 
Q 1906 3584 2284 3584 
Q 2666 3584 2933 3390 
Q 3200 3197 3328 2828 
z
" transform="scale(0.015625)"/>
       <path id="DejaVuSans-65" d="M 3597 1894 
L 3597 1613 
L 953 1613 
Q 991 1019 1311 708 
Q 1631 397 2203 397 
Q 2534 397 2845 478 
Q 3156 559 3463 722 
L 3463 178 
Q 3153 47 2828 -22 
Q 2503 -91 2169 -91 
Q 1331 -91 842 396 
Q 353 884 353 1716 
Q 353 2575 817 3079 
Q 1281 3584 2069 3584 
Q 2775 3584 3186 3129 
Q 3597 2675 3597 1894 
z
M 3022 2063 
Q 3016 2534 2758 2815 
Q 2500 3097 2075 3097 
Q 1594 3097 1305 2825 
Q 1016 2553 972 2059 
L 3022 2063 
z
" transform="scale(0.015625)"/>
       <path id="DejaVuSans-20" transform="scale(0.015625)"/>
       <path id="DejaVuSans-28" d="M 1984 4856 
Q 1566 4138 1362 3434 
Q 1159 2731 1159 2009 
Q 1159 1288 1364 580 
Q 1569 -128 1984 -844 
L 1484 -844 
Q 1016 -109 783 600 
Q 550 1309 550 2009 
Q 550 2706 781 3412 
Q 1013 4119 1484 4856 
L 1984 4856 
z
" transform="scale(0.015625)"/>
       <path id="DejaVuSans-73" d="M 2834 3397 
L 2834 2853 
Q 2591 2978 2328 3040 
Q 2066 3103 1784 3103 
Q 1356 3103 1142 2972 
Q 928 2841 928 2578 
Q 928 2378 1081 2264 
Q 1234 2150 1697 2047 
L 1894 2003 
Q 2506 1872 2764 1633 
Q 3022 1394 3022 966 
Q 3022 478 2636 193 
Q 2250 -91 1575 -91 
Q 1294 -91 989 -36 
Q 684 19 347 128 
L 347 722 
Q 666 556 975 473 
Q 1284 391 1588 391 
Q 1994 391 2212 530 
Q 2431 669 2431 922 
Q 2431 1156 2273 1281 
Q 2116 1406 1581 1522 
L 1381 1569 
Q 847 1681 609 1914 
Q 372 2147 372 2553 
Q 372 3047 722 3315 
Q 1072 3584 1716 3584 
Q 2034 3584 2315 3537 
Q 2597 3491 2834 3397 
z
" transform="scale(0.015625)"/>
       <path id="DejaVuSans-29" d="M 513 4856 
L 1013 4856 
Q 1481 4119 1714 3412 
Q 1947 2706 1947 2009 
Q 1947 1309 1714 600 
Q 1481 -109 1013 -844 
L 513 -844 
Q 928 -128 1133 580 
Q 1338 1288 1338 2009 
Q 1338 2731 1133 3434 
Q 928 4138 513 4856 
z
" transform="scale(0.015625)"/>
      </defs>
      <use xlink:href="#DejaVuSans-54"/>
      <use xlink:href="#DejaVuSans-69" x="57.958984"/>
      <use xlink:href="#DejaVuSans-6d" x="85.742188"/>
      <use xlink:href="#DejaVuSans-65" x="183.154297"/>
      <use xlink:href="#DejaVuSans-20" x="244.677734"/>
      <use xlink:href="#DejaVuSans-28" x="276.464844"/>
      <use xlink:href="#DejaVuSans-73" x="315.478516"/>
      <use xlink:href="#DejaVuSans-29" x="367.578125"/>
     </g>
    </g>
   </g>
   <g id="matplotlib.axis_2">
    <g id="ytick_1">
     <g id="line2d_7">
      <defs>
       <path id="m47d3537908" d="M 0 0 
L -3.5 0 
" style="stroke: #000000; stroke-width: 0.8"/>
      </defs>
      <g>
       <use xlink:href="#m47d3537908" x="57.6" y="279.072" style="stroke: #000000; stroke-width: 0.8"/>
      </g>
     </g>
     <g id="text_8">
      <!-- 0.00 -->
      <g transform="translate(28.334375 282.871219) scale(0.1 -0.1)">
       <use xlink:href="#DejaVuSans-30"/>
       <use xlink:href="#DejaVuSans-2e" x="63.623047"/>
       <use xlink:href="#DejaVuSans-30" x="95.410156"/>
       <use xlink:href="#DejaVuSans-30" x="159.033203"/>
      </g>
     </g>
    </g>
    <g id="ytick_2">
     <g id="line2d_8">
      <g>
       <use xlink:href="#m47d3537908" x="57.6" y="241.056" style="stroke: #000000; stroke-width: 0.8"/>
      </g>
     </g>
     <g id="text_9">
      <!-- 0.02 -->
      <g transform="translate(28.334375 244.855219) scale(0.1 -0.1)">
       <use xlink:href="#DejaVuSans-30"/>
       <use xlink:href="#DejaVuSans-2e" x="63.623047"/>
       <use xlink:href="#DejaVuSans-30" x="95.410156"/>
       <use xlink:href="#DejaVuSans-32" x="159.033203"/>
      </g>
     </g>
    </g>
    <g id="ytick_3">
     <g id="line2d_9">
      <g>
       <use xlink:href="#m47d3537908" x="57.6" y="203.04" style="stroke: #000000; stroke-width: 0.8"/>
      </g>
     </g>
     <g id="text_10">
      <!-- 0.04 -->
      <g transform="translate(28.334375 206.839219) scale(0.1 -0.1)">
       <use xlink:href="#DejaVuSans-30"/>
       <use xlink:href="#DejaVuSans-2e" x="63.623047"/>
       <use xlink:href="#DejaVuSans-30" x="95.410156"/>
       <use xlink:href="#DejaVuSans-34" x="159.033203"/>
      </g>
     </g>
    </g>
    <g id="ytick_4">
     <g id="line2d_10">
      <g>
       <use xlink:href="#m47d3537908" x="57.6" y="165.024" style="stroke: #000000; stroke-width: 0.8"/>
      </g>
     </g>
     <g id="text_11">
      <!-- 0.06 -->
      <g transform="translate(28.334375 168.823219) scale(0.1 -0.1)">
       <use xlink:href="#DejaVuSans-30"/>
       <use xlink:href="#DejaVuSans-2e" x="63.623047"/>
       <use xlink:href="#DejaVuSans-30" x="95.410156"/>
       <use xlink:href="#DejaVuSans-36" x="159.033203"/>
      </g>
     </g>
    </g>
    <g id="ytick_5">
     <g id="line2d_11">
      <g>
       <use xlink:href="#m47d3537908" x="57.6" y="127.008" style="stroke: #000000; stroke-width: 0.8"/>
      </g>
     </g>
     <g id="text_12">
      <!-- 0.08 -->
      <g transform="translate(28.334375 130.807219) scale(0.1 -0.1)">
       <use xlink:href="#DejaVuSans-30"/>
       <use xlink:href="#DejaVuSans-2e" x="63.623047"/>
       <use xlink:href="#DejaVuSans-30" x="95.410156"/>
       <use xlink:href="#DejaVuSans-38" x="159.033203"/>
      </g>
     </g>
    </g>
    <g id="ytick_6">
     <g id="line2d_12">
      <g>
       <use xlink:href="#m47d3537908" x="57.6" y="88.992" style="stroke: #000000; stroke-width: 0.8"/>
      </g>
     </g>
     <g id="text_13">
      <!-- 0.10 -->
      <g transform="translate(28.334375 92.791219) scale(0.1 -0.1)">
       <use xlink:href="#DejaVuSans-30"/>
       <use xlink:href="#DejaVuSans-2e" x="63.623047"/>
       <use xlink:href="#DejaVuSans-31" x="95.410156"/>
       <use xlink:href="#DejaVuSans-30" x="159.033203"/>
      </g>
     </g>
    </g>
    <g id="ytick_7">
     <g id="line2d_13">
      <g>
       <use xlink:href="#m47d3537908" x="57.6" y="50.976" style="stroke: #000000; stroke-width: 0.8"/>
      </g>
     </g>
     <g id="text_14">
      <!-- 0.12 -->
      <g transform="translate(28.334375 54.775219) scale(0.1 -0.1)">
       <use xlink:href="#DejaVuSans-30"/>
       <use xlink:href="#DejaVuSans-2e" x="63.623047"/>
       <use xlink:href="#DejaVuSans-31" x="95.410156"/>
       <use xlink:href="#DejaVuSans-32" x="159.033203"/>
      </g>
     </g>
    </g>
    <g id="text_15">
     <!-- Partial Spearman Correlation -->
     <g transform="translate(22.254687 246.54675) rotate(-90) scale(0.1 -0.1)">
      <defs>
       <path id="DejaVuSans-50" d="M 1259 4147 
L 1259 2394 
L 2053 2394 
Q 2494 2394 2734 2622 
Q 2975 2850 2975 3272 
Q 2975 3691 2734 3919 
Q 2494 4147 2053 4147 
L 1259 4147 
z
M 628 4666 
L 2053 4666 
Q 2838 4666 3239 4311 
Q 3641 3956 3641 3272 
Q 3641 2581 3239 2228 
Q 2838 1875 2053 1875 
L 1259 1875 
L 1259 0 
L 628 0 
L 628 4666 
z
" transform="scale(0.015625)"/>
       <path id="DejaVuSans-61" d="M 2194 1759 
Q 1497 1759 1228 1600 
Q 959 1441 959 1056 
Q 959 750 1161 570 
Q 1363 391 1709 391 
Q 2188 391 2477 730 
Q 2766 1069 2766 1631 
L 2766 1759 
L 2194 1759 
z
M 3341 1997 
L 3341 0 
L 2766 0 
L 2766 531 
Q 2569 213 2275 61 
Q 1981 -91 1556 -91 
Q 1019 -91 701 211 
Q 384 513 384 1019 
Q 384 1609 779 1909 
Q 1175 2209 1959 2209 
L 2766 2209 
L 2766 2266 
Q 2766 2663 2505 2880 
Q 2244 3097 1772 3097 
Q 1472 3097 1187 3025 
Q 903 2953 641 2809 
L 641 3341 
Q 956 3463 1253 3523 
Q 1550 3584 1831 3584 
Q 2591 3584 2966 3190 
Q 3341 2797 3341 1997 
z
" transform="scale(0.015625)"/>
       <path id="DejaVuSans-72" d="M 2631 2963 
Q 2534 3019 2420 3045 
Q 2306 3072 2169 3072 
Q 1681 3072 1420 2755 
Q 1159 2438 1159 1844 
L 1159 0 
L 581 0 
L 581 3500 
L 1159 3500 
L 1159 2956 
Q 1341 3275 1631 3429 
Q 1922 3584 2338 3584 
Q 2397 3584 2469 3576 
Q 2541 3569 2628 3553 
L 2631 2963 
z
" transform="scale(0.015625)"/>
       <path id="DejaVuSans-74" d="M 1172 4494 
L 1172 3500 
L 2356 3500 
L 2356 3053 
L 1172 3053 
L 1172 1153 
Q 1172 725 1289 603 
Q 1406 481 1766 481 
L 2356 481 
L 2356 0 
L 1766 0 
Q 1100 0 847 248 
Q 594 497 594 1153 
L 594 3053 
L 172 3053 
L 172 3500 
L 594 3500 
L 594 4494 
L 1172 4494 
z
" transform="scale(0.015625)"/>
       <path id="DejaVuSans-6c" d="M 603 4863 
L 1178 4863 
L 1178 0 
L 603 0 
L 603 4863 
z
" transform="scale(0.015625)"/>
       <path id="DejaVuSans-53" d="M 3425 4513 
L 3425 3897 
Q 3066 4069 2747 4153 
Q 2428 4238 2131 4238 
Q 1616 4238 1336 4038 
Q 1056 3838 1056 3469 
Q 1056 3159 1242 3001 
Q 1428 2844 1947 2747 
L 2328 2669 
Q 3034 2534 3370 2195 
Q 3706 1856 3706 1288 
Q 3706 609 3251 259 
Q 2797 -91 1919 -91 
Q 1588 -91 1214 -16 
Q 841 59 441 206 
L 441 856 
Q 825 641 1194 531 
Q 1563 422 1919 422 
Q 2459 422 2753 634 
Q 3047 847 3047 1241 
Q 3047 1584 2836 1778 
Q 2625 1972 2144 2069 
L 1759 2144 
Q 1053 2284 737 2584 
Q 422 2884 422 3419 
Q 422 4038 858 4394 
Q 1294 4750 2059 4750 
Q 2388 4750 2728 4690 
Q 3069 4631 3425 4513 
z
" transform="scale(0.015625)"/>
       <path id="DejaVuSans-70" d="M 1159 525 
L 1159 -1331 
L 581 -1331 
L 581 3500 
L 1159 3500 
L 1159 2969 
Q 1341 3281 1617 3432 
Q 1894 3584 2278 3584 
Q 2916 3584 3314 3078 
Q 3713 2572 3713 1747 
Q 3713 922 3314 415 
Q 2916 -91 2278 -91 
Q 1894 -91 1617 61 
Q 1341 213 1159 525 
z
M 3116 1747 
Q 3116 2381 2855 2742 
Q 2594 3103 2138 3103 
Q 1681 3103 1420 2742 
Q 1159 2381 1159 1747 
Q 1159 1113 1420 752 
Q 1681 391 2138 391 
Q 2594 391 2855 752 
Q 3116 1113 3116 1747 
z
" transform="scale(0.015625)"/>
       <path id="DejaVuSans-6e" d="M 3513 2113 
L 3513 0 
L 2938 0 
L 2938 2094 
Q 2938 2591 2744 2837 
Q 2550 3084 2163 3084 
Q 1697 3084 1428 2787 
Q 1159 2491 1159 1978 
L 1159 0 
L 581 0 
L 581 3500 
L 1159 3500 
L 1159 2956 
Q 1366 3272 1645 3428 
Q 1925 3584 2291 3584 
Q 2894 3584 3203 3211 
Q 3513 2838 3513 2113 
z
" transform="scale(0.015625)"/>
       <path id="DejaVuSans-43" d="M 4122 4306 
L 4122 3641 
Q 3803 3938 3442 4084 
Q 3081 4231 2675 4231 
Q 1875 4231 1450 3742 
Q 1025 3253 1025 2328 
Q 1025 1406 1450 917 
Q 1875 428 2675 428 
Q 3081 428 3442 575 
Q 3803 722 4122 1019 
L 4122 359 
Q 3791 134 3420 21 
Q 3050 -91 2638 -91 
Q 1578 -91 968 557 
Q 359 1206 359 2328 
Q 359 3453 968 4101 
Q 1578 4750 2638 4750 
Q 3056 4750 3426 4639 
Q 3797 4528 4122 4306 
z
" transform="scale(0.015625)"/>
       <path id="DejaVuSans-6f" d="M 1959 3097 
Q 1497 3097 1228 2736 
Q 959 2375 959 1747 
Q 959 1119 1226 758 
Q 1494 397 1959 397 
Q 2419 397 2687 759 
Q 2956 1122 2956 1747 
Q 2956 2369 2687 2733 
Q 2419 3097 1959 3097 
z
M 1959 3584 
Q 2709 3584 3137 3096 
Q 3566 2609 3566 1747 
Q 3566 888 3137 398 
Q 2709 -91 1959 -91 
Q 1206 -91 779 398 
Q 353 888 353 1747 
Q 353 2609 779 3096 
Q 1206 3584 1959 3584 
z
" transform="scale(0.015625)"/>
      </defs>
      <use xlink:href="#DejaVuSans-50"/>
      <use xlink:href="#DejaVuSans-61" x="55.802734"/>
      <use xlink:href="#DejaVuSans-72" x="117.082031"/>
      <use xlink:href="#DejaVuSans-74" x="158.195312"/>
      <use xlink:href="#DejaVuSans-69" x="197.404297"/>
      <use xlink:href="#DejaVuSans-61" x="225.1875"/>
      <use xlink:href="#DejaVuSans-6c" x="286.466797"/>
      <use xlink:href="#DejaVuSans-20" x="314.25"/>
      <use xlink:href="#DejaVuSans-53" x="346.037109"/>
      <use xlink:href="#DejaVuSans-70" x="409.513672"/>
      <use xlink:href="#DejaVuSans-65" x="472.990234"/>
      <use xlink:href="#DejaVuSans-61" x="534.513672"/>
      <use xlink:href="#DejaVuSans-72" x="595.792969"/>
      <use xlink:href="#DejaVuSans-6d" x="635.15625"/>
      <use xlink:href="#DejaVuSans-61" x="732.568359"/>
      <use xlink:href="#DejaVuSans-6e" x="793.847656"/>
      <use xlink:href="#DejaVuSans-20" x="857.226562"/>
      <use xlink:href="#DejaVuSans-43" x="889.013672"/>
      <use xlink:href="#DejaVuSans-6f" x="958.837891"/>
      <use xlink:href="#DejaVuSans-72" x="1020.019531"/>
      <use xlink:href="#DejaVuSans-72" x="1059.382812"/>
      <use xlink:href="#DejaVuSans-65" x="1098.246094"/>
      <use xlink:href="#DejaVuSans-6c" x="1159.769531"/>
      <use xlink:href="#DejaVuSans-61" x="1187.552734"/>
      <use xlink:href="#DejaVuSans-74" x="1248.832031"/>
      <use xlink:href="#DejaVuSans-69" x="1288.041016"/>
      <use xlink:href="#DejaVuSans-6f" x="1315.824219"/>
      <use xlink:href="#DejaVuSans-6e" x="1377.005859"/>
     </g>
    </g>
   </g>
   <g id="line2d_14">
    <path d="M 103.346777 307.584 
L 103.346777 41.472 
" clip-path="url(#p3bef7a47f7)" style="fill: none; stroke-dasharray: 5.55,2.4; stroke-dashoffset: 0; stroke: #d3d3d3; stroke-width: 1.5"/>
   </g>
   <g id="line2d_15">
    <path d="M 57.6 279.072 
L 414.72 279.072 
" clip-path="url(#p3bef7a47f7)" style="fill: none; stroke-dasharray: 5.55,2.4; stroke-dashoffset: 0; stroke: #d3d3d3; stroke-width: 1.5"/>
   </g>
   <g id="line2d_16">
    <path d="M 73.832727 278.916228 
L 76.151688 274.34452 
L 78.470649 274.745492 
L 80.78961 275.913267 
L 83.108571 272.417529 
L 85.427532 271.622518 
L 87.746494 276.08764 
L 90.065455 278.781136 
L 92.384416 278.741277 
L 94.703377 276.862683 
L 97.022338 268.335026 
L 99.341299 267.17253 
L 103.979221 275.995421 
L 106.298182 275.180417 
L 108.617143 272.446964 
L 110.936104 268.282449 
L 113.255065 260.945061 
L 115.574026 260.563672 
L 117.892987 262.612317 
L 120.211948 261.813846 
L 122.530909 255.192896 
L 124.84987 243.742934 
L 127.168831 245.529627 
L 129.487792 254.432067 
L 131.806753 252.595097 
L 134.125714 251.727032 
L 136.444675 249.305166 
L 138.763636 239.773744 
L 141.082597 220.049777 
L 145.720519 159.825973 
L 148.039481 143.643881 
L 150.358442 152.044226 
L 152.677403 172.271375 
L 154.996364 185.643287 
L 157.315325 188.572724 
L 159.634286 184.544716 
L 161.953247 173.51049 
L 164.272208 161.797049 
L 166.591169 154.353352 
L 171.229091 147.480763 
L 173.548052 147.580458 
L 175.867013 152.753384 
L 178.185974 160.246533 
L 180.504935 167.265489 
L 182.823896 172.614952 
L 185.142857 176.162229 
L 187.461818 179.91878 
L 189.780779 186.217362 
L 192.09974 195.379409 
L 194.418701 205.919566 
L 196.737662 215.654824 
L 199.056623 224.175916 
L 201.375584 229.807534 
L 203.694545 231.242743 
L 206.013506 230.289641 
L 208.332468 226.177204 
L 210.651429 220.154867 
L 212.97039 215.995243 
L 215.289351 215.32079 
L 217.608312 217.402539 
L 219.927273 219.785259 
L 222.246234 218.117143 
L 224.565195 211.786149 
L 226.884156 203.699342 
L 229.203117 196.751467 
L 231.522078 193.125063 
L 233.841039 193.38123 
L 236.16 197.295179 
L 240.797922 211.513825 
L 243.116883 217.915379 
L 245.435844 223.184525 
L 247.754805 225.013139 
L 250.073766 223.839935 
L 252.392727 219.950005 
L 254.711688 214.250715 
L 257.030649 208.973184 
L 259.34961 207.064411 
L 261.668571 205.94646 
L 263.987532 204.138361 
L 266.306494 203.294336 
L 268.625455 204.690284 
L 270.944416 205.787533 
L 273.263377 204.640052 
L 275.582338 202.818144 
L 277.901299 200.721545 
L 280.22026 200.359525 
L 282.539221 202.251064 
L 284.858182 205.117231 
L 287.177143 207.682385 
L 289.496104 208.526784 
L 291.815065 207.1633 
L 294.134026 207.422566 
L 296.452987 211.751718 
L 298.771948 217.645582 
L 301.090909 224.49065 
L 303.40987 231.846873 
L 305.728831 237.995716 
L 308.047792 242.107796 
L 310.366753 244.12549 
L 312.685714 244.15235 
L 315.004675 243.64226 
L 317.323636 242.356425 
L 319.642597 240.006137 
L 324.280519 232.069905 
L 326.599481 229.591438 
L 328.918442 230.653453 
L 331.237403 234.271537 
L 333.556364 239.246127 
L 335.875325 243.809739 
L 338.194286 246.271487 
L 340.513247 244.855733 
L 342.832208 240.070814 
L 345.151169 234.335145 
L 347.47013 230.585856 
L 349.789091 230.49915 
L 352.108052 233.28776 
L 354.427013 234.986778 
L 356.745974 235.69845 
L 359.064935 234.994422 
L 361.383896 234.025962 
L 363.702857 232.911755 
L 370.65974 231.576317 
L 372.978701 230.829382 
L 375.297662 231.712675 
L 377.616623 233.630335 
L 379.935584 235.762749 
L 382.254545 236.249898 
L 384.573506 235.646899 
L 386.892468 233.230232 
L 389.211429 229.959995 
L 391.53039 225.907221 
L 393.849351 222.295695 
L 396.168312 219.584275 
L 398.487273 218.076993 
L 398.487273 218.076993 
" clip-path="url(#p3bef7a47f7)" style="fill: none; stroke: #bfd200; stroke-width: 2; stroke-linecap: square"/>
   </g>
   <g id="line2d_17">
    <path d="M 73.832727 279.855221 
L 76.151688 281.868422 
L 78.470649 280.138363 
L 80.78961 276.361518 
L 83.108571 278.283937 
L 85.427532 282.550594 
L 87.746494 285.398272 
L 90.065455 286.579088 
L 92.384416 277.267579 
L 94.703377 275.186337 
L 97.022338 284.255133 
L 99.341299 290.767331 
L 101.66026 286.561507 
L 103.979221 279.17698 
L 106.298182 277.51283 
L 108.617143 276.33932 
L 110.936104 275.565052 
L 113.255065 277.400167 
L 115.574026 275.275793 
L 117.892987 269.364306 
L 120.211948 254.119094 
L 122.530909 225.732724 
L 124.84987 183.589472 
L 127.168831 155.612827 
L 129.487792 144.056345 
L 131.806753 150.469191 
L 134.125714 154.999436 
L 136.444675 154.969838 
L 138.763636 159.262657 
L 141.082597 185.982687 
L 143.401558 229.591113 
L 145.720519 258.066336 
L 148.039481 257.497802 
L 150.358442 242.560828 
L 152.677403 233.844311 
L 154.996364 238.257312 
L 157.315325 246.871546 
L 159.634286 253.235859 
L 161.953247 257.996871 
L 164.272208 259.840667 
L 166.591169 257.289991 
L 171.229091 246.199701 
L 173.548052 240.303815 
L 175.867013 235.369503 
L 178.185974 236.18226 
L 180.504935 240.710157 
L 182.823896 247.500017 
L 185.142857 252.845042 
L 187.461818 252.850248 
L 189.780779 246.588387 
L 192.09974 237.14374 
L 194.418701 228.208875 
L 196.737662 221.842679 
L 199.056623 216.755122 
L 201.375584 213.362261 
L 203.694545 211.670402 
L 206.013506 211.641475 
L 208.332468 214.434675 
L 212.97039 223.263989 
L 215.289351 227.153731 
L 217.608312 229.082725 
L 219.927273 228.407703 
L 222.246234 226.976746 
L 224.565195 224.142122 
L 226.884156 219.835276 
L 229.203117 214.924087 
L 231.522078 211.611105 
L 233.841039 211.528973 
L 238.478961 216.599026 
L 240.797922 220.768845 
L 243.116883 224.265886 
L 245.435844 225.702964 
L 247.754805 226.777601 
L 252.392727 228.130429 
L 254.711688 229.275979 
L 257.030649 230.722259 
L 259.34961 230.616002 
L 261.668571 232.12282 
L 263.987532 234.876443 
L 266.306494 238.26119 
L 268.625455 239.509353 
L 270.944416 239.293462 
L 275.582338 237.593473 
L 277.901299 238.835298 
L 280.22026 241.894893 
L 282.539221 244.642642 
L 284.858182 245.349443 
L 287.177143 244.191976 
L 289.496104 241.744879 
L 291.815065 239.875566 
L 294.134026 238.186438 
L 296.452987 237.286733 
L 298.771948 237.240412 
L 301.090909 237.955945 
L 303.40987 237.782538 
L 305.728831 235.561583 
L 308.047792 231.736619 
L 310.366753 229.713108 
L 312.685714 230.061687 
L 315.004675 231.313505 
L 317.323636 231.964698 
L 319.642597 231.019438 
L 321.961558 228.655038 
L 324.280519 225.649339 
L 326.599481 223.3591 
L 328.918442 222.52577 
L 331.237403 222.486906 
L 333.556364 222.321019 
L 335.875325 222.030568 
L 338.194286 222.059848 
L 340.513247 222.650348 
L 342.832208 223.773278 
L 345.151169 225.617572 
L 347.47013 228.701697 
L 349.789091 232.612567 
L 352.108052 234.939911 
L 354.427013 235.861534 
L 356.745974 236.16327 
L 359.064935 236.212028 
L 361.383896 234.181431 
L 363.702857 230.253459 
L 366.021818 227.188505 
L 368.340779 226.820569 
L 370.65974 229.274348 
L 372.978701 232.042541 
L 375.297662 233.107815 
L 377.616623 232.702148 
L 379.935584 230.883786 
L 382.254545 229.564014 
L 384.573506 230.412492 
L 386.892468 234.156259 
L 389.211429 239.894309 
L 391.53039 244.588844 
L 393.849351 246.45624 
L 396.168312 246.760381 
L 398.487273 247.273471 
L 398.487273 247.273471 
" clip-path="url(#p3bef7a47f7)" style="fill: none; stroke: #348aa7; stroke-width: 2; stroke-linecap: square"/>
   </g>
   <g id="line2d_18">
    <path d="M 148.039481 307.584 
L 148.039481 41.472 
" clip-path="url(#p3bef7a47f7)" style="fill: none; stroke-dasharray: 5.55,2.4; stroke-dashoffset: 0; stroke: #bfd200; stroke-width: 1.5"/>
   </g>
   <g id="line2d_19">
    <path d="M 129.487792 307.584 
L 129.487792 41.472 
" clip-path="url(#p3bef7a47f7)" style="fill: none; stroke-dasharray: 5.55,2.4; stroke-dashoffset: 0; stroke: #348aa7; stroke-width: 1.5"/>
   </g>
   <g id="patch_3">
    <path d="M 57.6 307.584 
L 57.6 41.472 
" style="fill: none; stroke: #000000; stroke-width: 0.8; stroke-linejoin: miter; stroke-linecap: square"/>
   </g>
   <g id="patch_4">
    <path d="M 57.6 307.584 
L 414.72 307.584 
" style="fill: none; stroke: #000000; stroke-width: 0.8; stroke-linejoin: miter; stroke-linecap: square"/>
   </g>
   <g id="text_16">
    <!-- . -->
    <g style="fill: #bfd200" transform="translate(99.341299 296.85092) scale(0.2 -0.2)">
     <use xlink:href="#DejaVuSans-2e"/>
    </g>
   </g>
   <g id="text_17">
    <!-- . -->
    <g style="fill: #bfd200" transform="translate(113.255065 296.85092) scale(0.2 -0.2)">
     <use xlink:href="#DejaVuSans-2e"/>
    </g>
   </g>
   <g id="text_18">
    <!-- . -->
    <g style="fill: #bfd200" transform="translate(115.574026 296.85092) scale(0.2 -0.2)">
     <use xlink:href="#DejaVuSans-2e"/>
    </g>
   </g>
   <g id="text_19">
    <!-- . -->
    <g style="fill: #bfd200" transform="translate(141.082597 296.85092) scale(0.2 -0.2)">
     <use xlink:href="#DejaVuSans-2e"/>
    </g>
   </g>
   <g id="text_20">
    <!-- . -->
    <g style="fill: #bfd200" transform="translate(143.401558 296.85092) scale(0.2 -0.2)">
     <use xlink:href="#DejaVuSans-2e"/>
    </g>
   </g>
   <g id="text_21">
    <!-- . -->
    <g style="fill: #bfd200" transform="translate(145.720519 296.85092) scale(0.2 -0.2)">
     <use xlink:href="#DejaVuSans-2e"/>
    </g>
   </g>
   <g id="text_22">
    <!-- . -->
    <g style="fill: #bfd200" transform="translate(148.039481 296.85092) scale(0.2 -0.2)">
     <use xlink:href="#DejaVuSans-2e"/>
    </g>
   </g>
   <g id="text_23">
    <!-- . -->
    <g style="fill: #bfd200" transform="translate(150.358442 296.85092) scale(0.2 -0.2)">
     <use xlink:href="#DejaVuSans-2e"/>
    </g>
   </g>
   <g id="text_24">
    <!-- . -->
    <g style="fill: #bfd200" transform="translate(152.677403 296.85092) scale(0.2 -0.2)">
     <use xlink:href="#DejaVuSans-2e"/>
    </g>
   </g>
   <g id="text_25">
    <!-- . -->
    <g style="fill: #bfd200" transform="translate(154.996364 296.85092) scale(0.2 -0.2)">
     <use xlink:href="#DejaVuSans-2e"/>
    </g>
   </g>
   <g id="text_26">
    <!-- . -->
    <g style="fill: #bfd200" transform="translate(157.315325 296.85092) scale(0.2 -0.2)">
     <use xlink:href="#DejaVuSans-2e"/>
    </g>
   </g>
   <g id="text_27">
    <!-- . -->
    <g style="fill: #bfd200" transform="translate(159.634286 296.85092) scale(0.2 -0.2)">
     <use xlink:href="#DejaVuSans-2e"/>
    </g>
   </g>
   <g id="text_28">
    <!-- . -->
    <g style="fill: #bfd200" transform="translate(161.953247 296.85092) scale(0.2 -0.2)">
     <use xlink:href="#DejaVuSans-2e"/>
    </g>
   </g>
   <g id="text_29">
    <!-- . -->
    <g style="fill: #bfd200" transform="translate(164.272208 296.85092) scale(0.2 -0.2)">
     <use xlink:href="#DejaVuSans-2e"/>
    </g>
   </g>
   <g id="text_30">
    <!-- . -->
    <g style="fill: #bfd200" transform="translate(166.591169 296.85092) scale(0.2 -0.2)">
     <use xlink:href="#DejaVuSans-2e"/>
    </g>
   </g>
   <g id="text_31">
    <!-- . -->
    <g style="fill: #bfd200" transform="translate(168.91013 296.85092) scale(0.2 -0.2)">
     <use xlink:href="#DejaVuSans-2e"/>
    </g>
   </g>
   <g id="text_32">
    <!-- . -->
    <g style="fill: #bfd200" transform="translate(171.229091 296.85092) scale(0.2 -0.2)">
     <use xlink:href="#DejaVuSans-2e"/>
    </g>
   </g>
   <g id="text_33">
    <!-- . -->
    <g style="fill: #bfd200" transform="translate(173.548052 296.85092) scale(0.2 -0.2)">
     <use xlink:href="#DejaVuSans-2e"/>
    </g>
   </g>
   <g id="text_34">
    <!-- . -->
    <g style="fill: #bfd200" transform="translate(175.867013 296.85092) scale(0.2 -0.2)">
     <use xlink:href="#DejaVuSans-2e"/>
    </g>
   </g>
   <g id="text_35">
    <!-- . -->
    <g style="fill: #bfd200" transform="translate(178.185974 296.85092) scale(0.2 -0.2)">
     <use xlink:href="#DejaVuSans-2e"/>
    </g>
   </g>
   <g id="text_36">
    <!-- . -->
    <g style="fill: #bfd200" transform="translate(180.504935 296.85092) scale(0.2 -0.2)">
     <use xlink:href="#DejaVuSans-2e"/>
    </g>
   </g>
   <g id="text_37">
    <!-- . -->
    <g style="fill: #bfd200" transform="translate(182.823896 296.85092) scale(0.2 -0.2)">
     <use xlink:href="#DejaVuSans-2e"/>
    </g>
   </g>
   <g id="text_38">
    <!-- . -->
    <g style="fill: #bfd200" transform="translate(185.142857 296.85092) scale(0.2 -0.2)">
     <use xlink:href="#DejaVuSans-2e"/>
    </g>
   </g>
   <g id="text_39">
    <!-- . -->
    <g style="fill: #bfd200" transform="translate(187.461818 296.85092) scale(0.2 -0.2)">
     <use xlink:href="#DejaVuSans-2e"/>
    </g>
   </g>
   <g id="text_40">
    <!-- . -->
    <g style="fill: #bfd200" transform="translate(189.780779 296.85092) scale(0.2 -0.2)">
     <use xlink:href="#DejaVuSans-2e"/>
    </g>
   </g>
   <g id="text_41">
    <!-- . -->
    <g style="fill: #bfd200" transform="translate(192.09974 296.85092) scale(0.2 -0.2)">
     <use xlink:href="#DejaVuSans-2e"/>
    </g>
   </g>
   <g id="text_42">
    <!-- . -->
    <g style="fill: #bfd200" transform="translate(194.418701 296.85092) scale(0.2 -0.2)">
     <use xlink:href="#DejaVuSans-2e"/>
    </g>
   </g>
   <g id="text_43">
    <!-- . -->
    <g style="fill: #bfd200" transform="translate(196.737662 296.85092) scale(0.2 -0.2)">
     <use xlink:href="#DejaVuSans-2e"/>
    </g>
   </g>
   <g id="text_44">
    <!-- . -->
    <g style="fill: #bfd200" transform="translate(199.056623 296.85092) scale(0.2 -0.2)">
     <use xlink:href="#DejaVuSans-2e"/>
    </g>
   </g>
   <g id="text_45">
    <!-- . -->
    <g style="fill: #bfd200" transform="translate(201.375584 296.85092) scale(0.2 -0.2)">
     <use xlink:href="#DejaVuSans-2e"/>
    </g>
   </g>
   <g id="text_46">
    <!-- . -->
    <g style="fill: #bfd200" transform="translate(203.694545 296.85092) scale(0.2 -0.2)">
     <use xlink:href="#DejaVuSans-2e"/>
    </g>
   </g>
   <g id="text_47">
    <!-- . -->
    <g style="fill: #bfd200" transform="translate(206.013506 296.85092) scale(0.2 -0.2)">
     <use xlink:href="#DejaVuSans-2e"/>
    </g>
   </g>
   <g id="text_48">
    <!-- . -->
    <g style="fill: #bfd200" transform="translate(208.332468 296.85092) scale(0.2 -0.2)">
     <use xlink:href="#DejaVuSans-2e"/>
    </g>
   </g>
   <g id="text_49">
    <!-- . -->
    <g style="fill: #bfd200" transform="translate(210.651429 296.85092) scale(0.2 -0.2)">
     <use xlink:href="#DejaVuSans-2e"/>
    </g>
   </g>
   <g id="text_50">
    <!-- . -->
    <g style="fill: #bfd200" transform="translate(212.97039 296.85092) scale(0.2 -0.2)">
     <use xlink:href="#DejaVuSans-2e"/>
    </g>
   </g>
   <g id="text_51">
    <!-- . -->
    <g style="fill: #bfd200" transform="translate(215.289351 296.85092) scale(0.2 -0.2)">
     <use xlink:href="#DejaVuSans-2e"/>
    </g>
   </g>
   <g id="text_52">
    <!-- . -->
    <g style="fill: #bfd200" transform="translate(217.608312 296.85092) scale(0.2 -0.2)">
     <use xlink:href="#DejaVuSans-2e"/>
    </g>
   </g>
   <g id="text_53">
    <!-- . -->
    <g style="fill: #bfd200" transform="translate(219.927273 296.85092) scale(0.2 -0.2)">
     <use xlink:href="#DejaVuSans-2e"/>
    </g>
   </g>
   <g id="text_54">
    <!-- . -->
    <g style="fill: #bfd200" transform="translate(222.246234 296.85092) scale(0.2 -0.2)">
     <use xlink:href="#DejaVuSans-2e"/>
    </g>
   </g>
   <g id="text_55">
    <!-- . -->
    <g style="fill: #bfd200" transform="translate(224.565195 296.85092) scale(0.2 -0.2)">
     <use xlink:href="#DejaVuSans-2e"/>
    </g>
   </g>
   <g id="text_56">
    <!-- . -->
    <g style="fill: #bfd200" transform="translate(226.884156 296.85092) scale(0.2 -0.2)">
     <use xlink:href="#DejaVuSans-2e"/>
    </g>
   </g>
   <g id="text_57">
    <!-- . -->
    <g style="fill: #bfd200" transform="translate(229.203117 296.85092) scale(0.2 -0.2)">
     <use xlink:href="#DejaVuSans-2e"/>
    </g>
   </g>
   <g id="text_58">
    <!-- . -->
    <g style="fill: #bfd200" transform="translate(231.522078 296.85092) scale(0.2 -0.2)">
     <use xlink:href="#DejaVuSans-2e"/>
    </g>
   </g>
   <g id="text_59">
    <!-- . -->
    <g style="fill: #bfd200" transform="translate(233.841039 296.85092) scale(0.2 -0.2)">
     <use xlink:href="#DejaVuSans-2e"/>
    </g>
   </g>
   <g id="text_60">
    <!-- . -->
    <g style="fill: #bfd200" transform="translate(236.16 296.85092) scale(0.2 -0.2)">
     <use xlink:href="#DejaVuSans-2e"/>
    </g>
   </g>
   <g id="text_61">
    <!-- . -->
    <g style="fill: #bfd200" transform="translate(238.478961 296.85092) scale(0.2 -0.2)">
     <use xlink:href="#DejaVuSans-2e"/>
    </g>
   </g>
   <g id="text_62">
    <!-- . -->
    <g style="fill: #bfd200" transform="translate(240.797922 296.85092) scale(0.2 -0.2)">
     <use xlink:href="#DejaVuSans-2e"/>
    </g>
   </g>
   <g id="text_63">
    <!-- . -->
    <g style="fill: #bfd200" transform="translate(243.116883 296.85092) scale(0.2 -0.2)">
     <use xlink:href="#DejaVuSans-2e"/>
    </g>
   </g>
   <g id="text_64">
    <!-- . -->
    <g style="fill: #bfd200" transform="translate(245.435844 296.85092) scale(0.2 -0.2)">
     <use xlink:href="#DejaVuSans-2e"/>
    </g>
   </g>
   <g id="text_65">
    <!-- . -->
    <g style="fill: #bfd200" transform="translate(247.754805 296.85092) scale(0.2 -0.2)">
     <use xlink:href="#DejaVuSans-2e"/>
    </g>
   </g>
   <g id="text_66">
    <!-- . -->
    <g style="fill: #bfd200" transform="translate(250.073766 296.85092) scale(0.2 -0.2)">
     <use xlink:href="#DejaVuSans-2e"/>
    </g>
   </g>
   <g id="text_67">
    <!-- . -->
    <g style="fill: #bfd200" transform="translate(252.392727 296.85092) scale(0.2 -0.2)">
     <use xlink:href="#DejaVuSans-2e"/>
    </g>
   </g>
   <g id="text_68">
    <!-- . -->
    <g style="fill: #bfd200" transform="translate(254.711688 296.85092) scale(0.2 -0.2)">
     <use xlink:href="#DejaVuSans-2e"/>
    </g>
   </g>
   <g id="text_69">
    <!-- . -->
    <g style="fill: #bfd200" transform="translate(257.030649 296.85092) scale(0.2 -0.2)">
     <use xlink:href="#DejaVuSans-2e"/>
    </g>
   </g>
   <g id="text_70">
    <!-- . -->
    <g style="fill: #bfd200" transform="translate(259.34961 296.85092) scale(0.2 -0.2)">
     <use xlink:href="#DejaVuSans-2e"/>
    </g>
   </g>
   <g id="text_71">
    <!-- . -->
    <g style="fill: #bfd200" transform="translate(261.668571 296.85092) scale(0.2 -0.2)">
     <use xlink:href="#DejaVuSans-2e"/>
    </g>
   </g>
   <g id="text_72">
    <!-- . -->
    <g style="fill: #bfd200" transform="translate(263.987532 296.85092) scale(0.2 -0.2)">
     <use xlink:href="#DejaVuSans-2e"/>
    </g>
   </g>
   <g id="text_73">
    <!-- . -->
    <g style="fill: #bfd200" transform="translate(266.306494 296.85092) scale(0.2 -0.2)">
     <use xlink:href="#DejaVuSans-2e"/>
    </g>
   </g>
   <g id="text_74">
    <!-- . -->
    <g style="fill: #bfd200" transform="translate(268.625455 296.85092) scale(0.2 -0.2)">
     <use xlink:href="#DejaVuSans-2e"/>
    </g>
   </g>
   <g id="text_75">
    <!-- . -->
    <g style="fill: #bfd200" transform="translate(270.944416 296.85092) scale(0.2 -0.2)">
     <use xlink:href="#DejaVuSans-2e"/>
    </g>
   </g>
   <g id="text_76">
    <!-- . -->
    <g style="fill: #bfd200" transform="translate(273.263377 296.85092) scale(0.2 -0.2)">
     <use xlink:href="#DejaVuSans-2e"/>
    </g>
   </g>
   <g id="text_77">
    <!-- . -->
    <g style="fill: #bfd200" transform="translate(275.582338 296.85092) scale(0.2 -0.2)">
     <use xlink:href="#DejaVuSans-2e"/>
    </g>
   </g>
   <g id="text_78">
    <!-- . -->
    <g style="fill: #bfd200" transform="translate(277.901299 296.85092) scale(0.2 -0.2)">
     <use xlink:href="#DejaVuSans-2e"/>
    </g>
   </g>
   <g id="text_79">
    <!-- . -->
    <g style="fill: #bfd200" transform="translate(280.22026 296.85092) scale(0.2 -0.2)">
     <use xlink:href="#DejaVuSans-2e"/>
    </g>
   </g>
   <g id="text_80">
    <!-- . -->
    <g style="fill: #bfd200" transform="translate(282.539221 296.85092) scale(0.2 -0.2)">
     <use xlink:href="#DejaVuSans-2e"/>
    </g>
   </g>
   <g id="text_81">
    <!-- . -->
    <g style="fill: #bfd200" transform="translate(284.858182 296.85092) scale(0.2 -0.2)">
     <use xlink:href="#DejaVuSans-2e"/>
    </g>
   </g>
   <g id="text_82">
    <!-- . -->
    <g style="fill: #bfd200" transform="translate(287.177143 296.85092) scale(0.2 -0.2)">
     <use xlink:href="#DejaVuSans-2e"/>
    </g>
   </g>
   <g id="text_83">
    <!-- . -->
    <g style="fill: #bfd200" transform="translate(289.496104 296.85092) scale(0.2 -0.2)">
     <use xlink:href="#DejaVuSans-2e"/>
    </g>
   </g>
   <g id="text_84">
    <!-- . -->
    <g style="fill: #bfd200" transform="translate(291.815065 296.85092) scale(0.2 -0.2)">
     <use xlink:href="#DejaVuSans-2e"/>
    </g>
   </g>
   <g id="text_85">
    <!-- . -->
    <g style="fill: #bfd200" transform="translate(294.134026 296.85092) scale(0.2 -0.2)">
     <use xlink:href="#DejaVuSans-2e"/>
    </g>
   </g>
   <g id="text_86">
    <!-- . -->
    <g style="fill: #bfd200" transform="translate(296.452987 296.85092) scale(0.2 -0.2)">
     <use xlink:href="#DejaVuSans-2e"/>
    </g>
   </g>
   <g id="text_87">
    <!-- . -->
    <g style="fill: #bfd200" transform="translate(298.771948 296.85092) scale(0.2 -0.2)">
     <use xlink:href="#DejaVuSans-2e"/>
    </g>
   </g>
   <g id="text_88">
    <!-- . -->
    <g style="fill: #bfd200" transform="translate(301.090909 296.85092) scale(0.2 -0.2)">
     <use xlink:href="#DejaVuSans-2e"/>
    </g>
   </g>
   <g id="text_89">
    <!-- . -->
    <g style="fill: #bfd200" transform="translate(303.40987 296.85092) scale(0.2 -0.2)">
     <use xlink:href="#DejaVuSans-2e"/>
    </g>
   </g>
   <g id="text_90">
    <!-- . -->
    <g style="fill: #bfd200" transform="translate(305.728831 296.85092) scale(0.2 -0.2)">
     <use xlink:href="#DejaVuSans-2e"/>
    </g>
   </g>
   <g id="text_91">
    <!-- . -->
    <g style="fill: #bfd200" transform="translate(312.685714 296.85092) scale(0.2 -0.2)">
     <use xlink:href="#DejaVuSans-2e"/>
    </g>
   </g>
   <g id="text_92">
    <!-- . -->
    <g style="fill: #bfd200" transform="translate(315.004675 296.85092) scale(0.2 -0.2)">
     <use xlink:href="#DejaVuSans-2e"/>
    </g>
   </g>
   <g id="text_93">
    <!-- . -->
    <g style="fill: #bfd200" transform="translate(317.323636 296.85092) scale(0.2 -0.2)">
     <use xlink:href="#DejaVuSans-2e"/>
    </g>
   </g>
   <g id="text_94">
    <!-- . -->
    <g style="fill: #bfd200" transform="translate(319.642597 296.85092) scale(0.2 -0.2)">
     <use xlink:href="#DejaVuSans-2e"/>
    </g>
   </g>
   <g id="text_95">
    <!-- . -->
    <g style="fill: #bfd200" transform="translate(321.961558 296.85092) scale(0.2 -0.2)">
     <use xlink:href="#DejaVuSans-2e"/>
    </g>
   </g>
   <g id="text_96">
    <!-- . -->
    <g style="fill: #bfd200" transform="translate(324.280519 296.85092) scale(0.2 -0.2)">
     <use xlink:href="#DejaVuSans-2e"/>
    </g>
   </g>
   <g id="text_97">
    <!-- . -->
    <g style="fill: #bfd200" transform="translate(326.599481 296.85092) scale(0.2 -0.2)">
     <use xlink:href="#DejaVuSans-2e"/>
    </g>
   </g>
   <g id="text_98">
    <!-- . -->
    <g style="fill: #bfd200" transform="translate(328.918442 296.85092) scale(0.2 -0.2)">
     <use xlink:href="#DejaVuSans-2e"/>
    </g>
   </g>
   <g id="text_99">
    <!-- . -->
    <g style="fill: #bfd200" transform="translate(331.237403 296.85092) scale(0.2 -0.2)">
     <use xlink:href="#DejaVuSans-2e"/>
    </g>
   </g>
   <g id="text_100">
    <!-- . -->
    <g style="fill: #bfd200" transform="translate(342.832208 296.85092) scale(0.2 -0.2)">
     <use xlink:href="#DejaVuSans-2e"/>
    </g>
   </g>
   <g id="text_101">
    <!-- . -->
    <g style="fill: #bfd200" transform="translate(345.151169 296.85092) scale(0.2 -0.2)">
     <use xlink:href="#DejaVuSans-2e"/>
    </g>
   </g>
   <g id="text_102">
    <!-- . -->
    <g style="fill: #bfd200" transform="translate(347.47013 296.85092) scale(0.2 -0.2)">
     <use xlink:href="#DejaVuSans-2e"/>
    </g>
   </g>
   <g id="text_103">
    <!-- . -->
    <g style="fill: #bfd200" transform="translate(349.789091 296.85092) scale(0.2 -0.2)">
     <use xlink:href="#DejaVuSans-2e"/>
    </g>
   </g>
   <g id="text_104">
    <!-- . -->
    <g style="fill: #bfd200" transform="translate(352.108052 296.85092) scale(0.2 -0.2)">
     <use xlink:href="#DejaVuSans-2e"/>
    </g>
   </g>
   <g id="text_105">
    <!-- . -->
    <g style="fill: #bfd200" transform="translate(354.427013 296.85092) scale(0.2 -0.2)">
     <use xlink:href="#DejaVuSans-2e"/>
    </g>
   </g>
   <g id="text_106">
    <!-- . -->
    <g style="fill: #bfd200" transform="translate(356.745974 296.85092) scale(0.2 -0.2)">
     <use xlink:href="#DejaVuSans-2e"/>
    </g>
   </g>
   <g id="text_107">
    <!-- . -->
    <g style="fill: #bfd200" transform="translate(359.064935 296.85092) scale(0.2 -0.2)">
     <use xlink:href="#DejaVuSans-2e"/>
    </g>
   </g>
   <g id="text_108">
    <!-- . -->
    <g style="fill: #bfd200" transform="translate(361.383896 296.85092) scale(0.2 -0.2)">
     <use xlink:href="#DejaVuSans-2e"/>
    </g>
   </g>
   <g id="text_109">
    <!-- . -->
    <g style="fill: #bfd200" transform="translate(363.702857 296.85092) scale(0.2 -0.2)">
     <use xlink:href="#DejaVuSans-2e"/>
    </g>
   </g>
   <g id="text_110">
    <!-- . -->
    <g style="fill: #bfd200" transform="translate(366.021818 296.85092) scale(0.2 -0.2)">
     <use xlink:href="#DejaVuSans-2e"/>
    </g>
   </g>
   <g id="text_111">
    <!-- . -->
    <g style="fill: #bfd200" transform="translate(368.340779 296.85092) scale(0.2 -0.2)">
     <use xlink:href="#DejaVuSans-2e"/>
    </g>
   </g>
   <g id="text_112">
    <!-- . -->
    <g style="fill: #bfd200" transform="translate(370.65974 296.85092) scale(0.2 -0.2)">
     <use xlink:href="#DejaVuSans-2e"/>
    </g>
   </g>
   <g id="text_113">
    <!-- . -->
    <g style="fill: #bfd200" transform="translate(372.978701 296.85092) scale(0.2 -0.2)">
     <use xlink:href="#DejaVuSans-2e"/>
    </g>
   </g>
   <g id="text_114">
    <!-- . -->
    <g style="fill: #bfd200" transform="translate(375.297662 296.85092) scale(0.2 -0.2)">
     <use xlink:href="#DejaVuSans-2e"/>
    </g>
   </g>
   <g id="text_115">
    <!-- . -->
    <g style="fill: #bfd200" transform="translate(377.616623 296.85092) scale(0.2 -0.2)">
     <use xlink:href="#DejaVuSans-2e"/>
    </g>
   </g>
   <g id="text_116">
    <!-- . -->
    <g style="fill: #bfd200" transform="translate(379.935584 296.85092) scale(0.2 -0.2)">
     <use xlink:href="#DejaVuSans-2e"/>
    </g>
   </g>
   <g id="text_117">
    <!-- . -->
    <g style="fill: #bfd200" transform="translate(382.254545 296.85092) scale(0.2 -0.2)">
     <use xlink:href="#DejaVuSans-2e"/>
    </g>
   </g>
   <g id="text_118">
    <!-- . -->
    <g style="fill: #bfd200" transform="translate(384.573506 296.85092) scale(0.2 -0.2)">
     <use xlink:href="#DejaVuSans-2e"/>
    </g>
   </g>
   <g id="text_119">
    <!-- . -->
    <g style="fill: #bfd200" transform="translate(386.892468 296.85092) scale(0.2 -0.2)">
     <use xlink:href="#DejaVuSans-2e"/>
    </g>
   </g>
   <g id="text_120">
    <!-- . -->
    <g style="fill: #bfd200" transform="translate(389.211429 296.85092) scale(0.2 -0.2)">
     <use xlink:href="#DejaVuSans-2e"/>
    </g>
   </g>
   <g id="text_121">
    <!-- . -->
    <g style="fill: #bfd200" transform="translate(391.53039 296.85092) scale(0.2 -0.2)">
     <use xlink:href="#DejaVuSans-2e"/>
    </g>
   </g>
   <g id="text_122">
    <!-- . -->
    <g style="fill: #bfd200" transform="translate(393.849351 296.85092) scale(0.2 -0.2)">
     <use xlink:href="#DejaVuSans-2e"/>
    </g>
   </g>
   <g id="text_123">
    <!-- . -->
    <g style="fill: #bfd200" transform="translate(396.168312 296.85092) scale(0.2 -0.2)">
     <use xlink:href="#DejaVuSans-2e"/>
    </g>
   </g>
   <g id="text_124">
    <!-- . -->
    <g style="fill: #bfd200" transform="translate(398.487273 296.85092) scale(0.2 -0.2)">
     <use xlink:href="#DejaVuSans-2e"/>
    </g>
   </g>
   <g id="text_125">
    <!-- . -->
    <g style="fill: #348aa7" transform="translate(99.341299 300.65252) scale(0.2 -0.2)">
     <use xlink:href="#DejaVuSans-2e"/>
    </g>
   </g>
   <g id="text_126">
    <!-- . -->
    <g style="fill: #348aa7" transform="translate(120.211948 300.65252) scale(0.2 -0.2)">
     <use xlink:href="#DejaVuSans-2e"/>
    </g>
   </g>
   <g id="text_127">
    <!-- . -->
    <g style="fill: #348aa7" transform="translate(122.530909 300.65252) scale(0.2 -0.2)">
     <use xlink:href="#DejaVuSans-2e"/>
    </g>
   </g>
   <g id="text_128">
    <!-- . -->
    <g style="fill: #348aa7" transform="translate(124.84987 300.65252) scale(0.2 -0.2)">
     <use xlink:href="#DejaVuSans-2e"/>
    </g>
   </g>
   <g id="text_129">
    <!-- . -->
    <g style="fill: #348aa7" transform="translate(127.168831 300.65252) scale(0.2 -0.2)">
     <use xlink:href="#DejaVuSans-2e"/>
    </g>
   </g>
   <g id="text_130">
    <!-- . -->
    <g style="fill: #348aa7" transform="translate(129.487792 300.65252) scale(0.2 -0.2)">
     <use xlink:href="#DejaVuSans-2e"/>
    </g>
   </g>
   <g id="text_131">
    <!-- . -->
    <g style="fill: #348aa7" transform="translate(131.806753 300.65252) scale(0.2 -0.2)">
     <use xlink:href="#DejaVuSans-2e"/>
    </g>
   </g>
   <g id="text_132">
    <!-- . -->
    <g style="fill: #348aa7" transform="translate(134.125714 300.65252) scale(0.2 -0.2)">
     <use xlink:href="#DejaVuSans-2e"/>
    </g>
   </g>
   <g id="text_133">
    <!-- . -->
    <g style="fill: #348aa7" transform="translate(136.444675 300.65252) scale(0.2 -0.2)">
     <use xlink:href="#DejaVuSans-2e"/>
    </g>
   </g>
   <g id="text_134">
    <!-- . -->
    <g style="fill: #348aa7" transform="translate(138.763636 300.65252) scale(0.2 -0.2)">
     <use xlink:href="#DejaVuSans-2e"/>
    </g>
   </g>
   <g id="text_135">
    <!-- . -->
    <g style="fill: #348aa7" transform="translate(141.082597 300.65252) scale(0.2 -0.2)">
     <use xlink:href="#DejaVuSans-2e"/>
    </g>
   </g>
   <g id="text_136">
    <!-- . -->
    <g style="fill: #348aa7" transform="translate(143.401558 300.65252) scale(0.2 -0.2)">
     <use xlink:href="#DejaVuSans-2e"/>
    </g>
   </g>
   <g id="text_137">
    <!-- . -->
    <g style="fill: #348aa7" transform="translate(152.677403 300.65252) scale(0.2 -0.2)">
     <use xlink:href="#DejaVuSans-2e"/>
    </g>
   </g>
   <g id="text_138">
    <!-- . -->
    <g style="fill: #348aa7" transform="translate(154.996364 300.65252) scale(0.2 -0.2)">
     <use xlink:href="#DejaVuSans-2e"/>
    </g>
   </g>
   <g id="text_139">
    <!-- . -->
    <g style="fill: #348aa7" transform="translate(194.418701 300.65252) scale(0.2 -0.2)">
     <use xlink:href="#DejaVuSans-2e"/>
    </g>
   </g>
   <g id="text_140">
    <!-- . -->
    <g style="fill: #348aa7" transform="translate(196.737662 300.65252) scale(0.2 -0.2)">
     <use xlink:href="#DejaVuSans-2e"/>
    </g>
   </g>
   <g id="text_141">
    <!-- . -->
    <g style="fill: #348aa7" transform="translate(199.056623 300.65252) scale(0.2 -0.2)">
     <use xlink:href="#DejaVuSans-2e"/>
    </g>
   </g>
   <g id="text_142">
    <!-- . -->
    <g style="fill: #348aa7" transform="translate(201.375584 300.65252) scale(0.2 -0.2)">
     <use xlink:href="#DejaVuSans-2e"/>
    </g>
   </g>
   <g id="text_143">
    <!-- . -->
    <g style="fill: #348aa7" transform="translate(203.694545 300.65252) scale(0.2 -0.2)">
     <use xlink:href="#DejaVuSans-2e"/>
    </g>
   </g>
   <g id="text_144">
    <!-- . -->
    <g style="fill: #348aa7" transform="translate(206.013506 300.65252) scale(0.2 -0.2)">
     <use xlink:href="#DejaVuSans-2e"/>
    </g>
   </g>
   <g id="text_145">
    <!-- . -->
    <g style="fill: #348aa7" transform="translate(208.332468 300.65252) scale(0.2 -0.2)">
     <use xlink:href="#DejaVuSans-2e"/>
    </g>
   </g>
   <g id="text_146">
    <!-- . -->
    <g style="fill: #348aa7" transform="translate(210.651429 300.65252) scale(0.2 -0.2)">
     <use xlink:href="#DejaVuSans-2e"/>
    </g>
   </g>
   <g id="text_147">
    <!-- . -->
    <g style="fill: #348aa7" transform="translate(212.97039 300.65252) scale(0.2 -0.2)">
     <use xlink:href="#DejaVuSans-2e"/>
    </g>
   </g>
   <g id="text_148">
    <!-- . -->
    <g style="fill: #348aa7" transform="translate(219.927273 300.65252) scale(0.2 -0.2)">
     <use xlink:href="#DejaVuSans-2e"/>
    </g>
   </g>
   <g id="text_149">
    <!-- . -->
    <g style="fill: #348aa7" transform="translate(222.246234 300.65252) scale(0.2 -0.2)">
     <use xlink:href="#DejaVuSans-2e"/>
    </g>
   </g>
   <g id="text_150">
    <!-- . -->
    <g style="fill: #348aa7" transform="translate(224.565195 300.65252) scale(0.2 -0.2)">
     <use xlink:href="#DejaVuSans-2e"/>
    </g>
   </g>
   <g id="text_151">
    <!-- . -->
    <g style="fill: #348aa7" transform="translate(226.884156 300.65252) scale(0.2 -0.2)">
     <use xlink:href="#DejaVuSans-2e"/>
    </g>
   </g>
   <g id="text_152">
    <!-- . -->
    <g style="fill: #348aa7" transform="translate(229.203117 300.65252) scale(0.2 -0.2)">
     <use xlink:href="#DejaVuSans-2e"/>
    </g>
   </g>
   <g id="text_153">
    <!-- . -->
    <g style="fill: #348aa7" transform="translate(231.522078 300.65252) scale(0.2 -0.2)">
     <use xlink:href="#DejaVuSans-2e"/>
    </g>
   </g>
   <g id="text_154">
    <!-- . -->
    <g style="fill: #348aa7" transform="translate(233.841039 300.65252) scale(0.2 -0.2)">
     <use xlink:href="#DejaVuSans-2e"/>
    </g>
   </g>
   <g id="text_155">
    <!-- . -->
    <g style="fill: #348aa7" transform="translate(236.16 300.65252) scale(0.2 -0.2)">
     <use xlink:href="#DejaVuSans-2e"/>
    </g>
   </g>
   <g id="text_156">
    <!-- . -->
    <g style="fill: #348aa7" transform="translate(238.478961 300.65252) scale(0.2 -0.2)">
     <use xlink:href="#DejaVuSans-2e"/>
    </g>
   </g>
   <g id="text_157">
    <!-- . -->
    <g style="fill: #348aa7" transform="translate(240.797922 300.65252) scale(0.2 -0.2)">
     <use xlink:href="#DejaVuSans-2e"/>
    </g>
   </g>
   <g id="text_158">
    <!-- . -->
    <g style="fill: #348aa7" transform="translate(243.116883 300.65252) scale(0.2 -0.2)">
     <use xlink:href="#DejaVuSans-2e"/>
    </g>
   </g>
   <g id="text_159">
    <!-- . -->
    <g style="fill: #348aa7" transform="translate(245.435844 300.65252) scale(0.2 -0.2)">
     <use xlink:href="#DejaVuSans-2e"/>
    </g>
   </g>
   <g id="text_160">
    <!-- . -->
    <g style="fill: #348aa7" transform="translate(247.754805 300.65252) scale(0.2 -0.2)">
     <use xlink:href="#DejaVuSans-2e"/>
    </g>
   </g>
   <g id="text_161">
    <!-- . -->
    <g style="fill: #348aa7" transform="translate(250.073766 300.65252) scale(0.2 -0.2)">
     <use xlink:href="#DejaVuSans-2e"/>
    </g>
   </g>
   <g id="text_162">
    <!-- . -->
    <g style="fill: #348aa7" transform="translate(252.392727 300.65252) scale(0.2 -0.2)">
     <use xlink:href="#DejaVuSans-2e"/>
    </g>
   </g>
   <g id="text_163">
    <!-- . -->
    <g style="fill: #348aa7" transform="translate(254.711688 300.65252) scale(0.2 -0.2)">
     <use xlink:href="#DejaVuSans-2e"/>
    </g>
   </g>
   <g id="text_164">
    <!-- . -->
    <g style="fill: #348aa7" transform="translate(257.030649 300.65252) scale(0.2 -0.2)">
     <use xlink:href="#DejaVuSans-2e"/>
    </g>
   </g>
   <g id="text_165">
    <!-- . -->
    <g style="fill: #348aa7" transform="translate(259.34961 300.65252) scale(0.2 -0.2)">
     <use xlink:href="#DejaVuSans-2e"/>
    </g>
   </g>
   <g id="text_166">
    <!-- . -->
    <g style="fill: #348aa7" transform="translate(261.668571 300.65252) scale(0.2 -0.2)">
     <use xlink:href="#DejaVuSans-2e"/>
    </g>
   </g>
   <g id="text_167">
    <!-- . -->
    <g style="fill: #348aa7" transform="translate(273.263377 300.65252) scale(0.2 -0.2)">
     <use xlink:href="#DejaVuSans-2e"/>
    </g>
   </g>
   <g id="text_168">
    <!-- . -->
    <g style="fill: #348aa7" transform="translate(275.582338 300.65252) scale(0.2 -0.2)">
     <use xlink:href="#DejaVuSans-2e"/>
    </g>
   </g>
   <g id="text_169">
    <!-- . -->
    <g style="fill: #348aa7" transform="translate(277.901299 300.65252) scale(0.2 -0.2)">
     <use xlink:href="#DejaVuSans-2e"/>
    </g>
   </g>
   <g id="text_170">
    <!-- . -->
    <g style="fill: #348aa7" transform="translate(294.134026 300.65252) scale(0.2 -0.2)">
     <use xlink:href="#DejaVuSans-2e"/>
    </g>
   </g>
   <g id="text_171">
    <!-- . -->
    <g style="fill: #348aa7" transform="translate(296.452987 300.65252) scale(0.2 -0.2)">
     <use xlink:href="#DejaVuSans-2e"/>
    </g>
   </g>
   <g id="text_172">
    <!-- . -->
    <g style="fill: #348aa7" transform="translate(298.771948 300.65252) scale(0.2 -0.2)">
     <use xlink:href="#DejaVuSans-2e"/>
    </g>
   </g>
   <g id="text_173">
    <!-- . -->
    <g style="fill: #348aa7" transform="translate(301.090909 300.65252) scale(0.2 -0.2)">
     <use xlink:href="#DejaVuSans-2e"/>
    </g>
   </g>
   <g id="text_174">
    <!-- . -->
    <g style="fill: #348aa7" transform="translate(303.40987 300.65252) scale(0.2 -0.2)">
     <use xlink:href="#DejaVuSans-2e"/>
    </g>
   </g>
   <g id="text_175">
    <!-- . -->
    <g style="fill: #348aa7" transform="translate(305.728831 300.65252) scale(0.2 -0.2)">
     <use xlink:href="#DejaVuSans-2e"/>
    </g>
   </g>
   <g id="text_176">
    <!-- . -->
    <g style="fill: #348aa7" transform="translate(308.047792 300.65252) scale(0.2 -0.2)">
     <use xlink:href="#DejaVuSans-2e"/>
    </g>
   </g>
   <g id="text_177">
    <!-- . -->
    <g style="fill: #348aa7" transform="translate(310.366753 300.65252) scale(0.2 -0.2)">
     <use xlink:href="#DejaVuSans-2e"/>
    </g>
   </g>
   <g id="text_178">
    <!-- . -->
    <g style="fill: #348aa7" transform="translate(312.685714 300.65252) scale(0.2 -0.2)">
     <use xlink:href="#DejaVuSans-2e"/>
    </g>
   </g>
   <g id="text_179">
    <!-- . -->
    <g style="fill: #348aa7" transform="translate(315.004675 300.65252) scale(0.2 -0.2)">
     <use xlink:href="#DejaVuSans-2e"/>
    </g>
   </g>
   <g id="text_180">
    <!-- . -->
    <g style="fill: #348aa7" transform="translate(317.323636 300.65252) scale(0.2 -0.2)">
     <use xlink:href="#DejaVuSans-2e"/>
    </g>
   </g>
   <g id="text_181">
    <!-- . -->
    <g style="fill: #348aa7" transform="translate(319.642597 300.65252) scale(0.2 -0.2)">
     <use xlink:href="#DejaVuSans-2e"/>
    </g>
   </g>
   <g id="text_182">
    <!-- . -->
    <g style="fill: #348aa7" transform="translate(321.961558 300.65252) scale(0.2 -0.2)">
     <use xlink:href="#DejaVuSans-2e"/>
    </g>
   </g>
   <g id="text_183">
    <!-- . -->
    <g style="fill: #348aa7" transform="translate(324.280519 300.65252) scale(0.2 -0.2)">
     <use xlink:href="#DejaVuSans-2e"/>
    </g>
   </g>
   <g id="text_184">
    <!-- . -->
    <g style="fill: #348aa7" transform="translate(326.599481 300.65252) scale(0.2 -0.2)">
     <use xlink:href="#DejaVuSans-2e"/>
    </g>
   </g>
   <g id="text_185">
    <!-- . -->
    <g style="fill: #348aa7" transform="translate(328.918442 300.65252) scale(0.2 -0.2)">
     <use xlink:href="#DejaVuSans-2e"/>
    </g>
   </g>
   <g id="text_186">
    <!-- . -->
    <g style="fill: #348aa7" transform="translate(331.237403 300.65252) scale(0.2 -0.2)">
     <use xlink:href="#DejaVuSans-2e"/>
    </g>
   </g>
   <g id="text_187">
    <!-- . -->
    <g style="fill: #348aa7" transform="translate(333.556364 300.65252) scale(0.2 -0.2)">
     <use xlink:href="#DejaVuSans-2e"/>
    </g>
   </g>
   <g id="text_188">
    <!-- . -->
    <g style="fill: #348aa7" transform="translate(335.875325 300.65252) scale(0.2 -0.2)">
     <use xlink:href="#DejaVuSans-2e"/>
    </g>
   </g>
   <g id="text_189">
    <!-- . -->
    <g style="fill: #348aa7" transform="translate(338.194286 300.65252) scale(0.2 -0.2)">
     <use xlink:href="#DejaVuSans-2e"/>
    </g>
   </g>
   <g id="text_190">
    <!-- . -->
    <g style="fill: #348aa7" transform="translate(340.513247 300.65252) scale(0.2 -0.2)">
     <use xlink:href="#DejaVuSans-2e"/>
    </g>
   </g>
   <g id="text_191">
    <!-- . -->
    <g style="fill: #348aa7" transform="translate(342.832208 300.65252) scale(0.2 -0.2)">
     <use xlink:href="#DejaVuSans-2e"/>
    </g>
   </g>
   <g id="text_192">
    <!-- . -->
    <g style="fill: #348aa7" transform="translate(345.151169 300.65252) scale(0.2 -0.2)">
     <use xlink:href="#DejaVuSans-2e"/>
    </g>
   </g>
   <g id="text_193">
    <!-- . -->
    <g style="fill: #348aa7" transform="translate(347.47013 300.65252) scale(0.2 -0.2)">
     <use xlink:href="#DejaVuSans-2e"/>
    </g>
   </g>
   <g id="text_194">
    <!-- . -->
    <g style="fill: #348aa7" transform="translate(349.789091 300.65252) scale(0.2 -0.2)">
     <use xlink:href="#DejaVuSans-2e"/>
    </g>
   </g>
   <g id="text_195">
    <!-- . -->
    <g style="fill: #348aa7" transform="translate(352.108052 300.65252) scale(0.2 -0.2)">
     <use xlink:href="#DejaVuSans-2e"/>
    </g>
   </g>
   <g id="text_196">
    <!-- . -->
    <g style="fill: #348aa7" transform="translate(354.427013 300.65252) scale(0.2 -0.2)">
     <use xlink:href="#DejaVuSans-2e"/>
    </g>
   </g>
   <g id="text_197">
    <!-- . -->
    <g style="fill: #348aa7" transform="translate(356.745974 300.65252) scale(0.2 -0.2)">
     <use xlink:href="#DejaVuSans-2e"/>
    </g>
   </g>
   <g id="text_198">
    <!-- . -->
    <g style="fill: #348aa7" transform="translate(359.064935 300.65252) scale(0.2 -0.2)">
     <use xlink:href="#DejaVuSans-2e"/>
    </g>
   </g>
   <g id="text_199">
    <!-- . -->
    <g style="fill: #348aa7" transform="translate(361.383896 300.65252) scale(0.2 -0.2)">
     <use xlink:href="#DejaVuSans-2e"/>
    </g>
   </g>
   <g id="text_200">
    <!-- . -->
    <g style="fill: #348aa7" transform="translate(363.702857 300.65252) scale(0.2 -0.2)">
     <use xlink:href="#DejaVuSans-2e"/>
    </g>
   </g>
   <g id="text_201">
    <!-- . -->
    <g style="fill: #348aa7" transform="translate(366.021818 300.65252) scale(0.2 -0.2)">
     <use xlink:href="#DejaVuSans-2e"/>
    </g>
   </g>
   <g id="text_202">
    <!-- . -->
    <g style="fill: #348aa7" transform="translate(368.340779 300.65252) scale(0.2 -0.2)">
     <use xlink:href="#DejaVuSans-2e"/>
    </g>
   </g>
   <g id="text_203">
    <!-- . -->
    <g style="fill: #348aa7" transform="translate(370.65974 300.65252) scale(0.2 -0.2)">
     <use xlink:href="#DejaVuSans-2e"/>
    </g>
   </g>
   <g id="text_204">
    <!-- . -->
    <g style="fill: #348aa7" transform="translate(372.978701 300.65252) scale(0.2 -0.2)">
     <use xlink:href="#DejaVuSans-2e"/>
    </g>
   </g>
   <g id="text_205">
    <!-- . -->
    <g style="fill: #348aa7" transform="translate(375.297662 300.65252) scale(0.2 -0.2)">
     <use xlink:href="#DejaVuSans-2e"/>
    </g>
   </g>
   <g id="text_206">
    <!-- . -->
    <g style="fill: #348aa7" transform="translate(377.616623 300.65252) scale(0.2 -0.2)">
     <use xlink:href="#DejaVuSans-2e"/>
    </g>
   </g>
   <g id="text_207">
    <!-- . -->
    <g style="fill: #348aa7" transform="translate(379.935584 300.65252) scale(0.2 -0.2)">
     <use xlink:href="#DejaVuSans-2e"/>
    </g>
   </g>
   <g id="text_208">
    <!-- . -->
    <g style="fill: #348aa7" transform="translate(382.254545 300.65252) scale(0.2 -0.2)">
     <use xlink:href="#DejaVuSans-2e"/>
    </g>
   </g>
   <g id="text_209">
    <!-- . -->
    <g style="fill: #348aa7" transform="translate(384.573506 300.65252) scale(0.2 -0.2)">
     <use xlink:href="#DejaVuSans-2e"/>
    </g>
   </g>
   <g id="text_210">
    <!-- . -->
    <g style="fill: #348aa7" transform="translate(386.892468 300.65252) scale(0.2 -0.2)">
     <use xlink:href="#DejaVuSans-2e"/>
    </g>
   </g>
   <g id="text_211">
    <!-- . -->
    <g style="fill: #348aa7" transform="translate(389.211429 300.65252) scale(0.2 -0.2)">
     <use xlink:href="#DejaVuSans-2e"/>
    </g>
   </g>
   <g id="text_212">
    <!-- . -->
    <g style="fill: #348aa7" transform="translate(391.53039 300.65252) scale(0.2 -0.2)">
     <use xlink:href="#DejaVuSans-2e"/>
    </g>
   </g>
   <g id="legend_1">
    <g id="patch_5">
     <path d="M 258.945 78.82825 
L 407.72 78.82825 
Q 409.72 78.82825 409.72 76.82825 
L 409.72 48.472 
Q 409.72 46.472 407.72 46.472 
L 258.945 46.472 
Q 256.945 46.472 256.945 48.472 
L 256.945 76.82825 
Q 256.945 78.82825 258.945 78.82825 
z
" style="fill: #ffffff; opacity: 0.8; stroke: #cccccc; stroke-linejoin: miter"/>
    </g>
    <g id="line2d_20">
     <path d="M 260.945 54.570437 
L 270.945 54.570437 
L 280.945 54.570437 
" style="fill: none; stroke: #bfd200; stroke-width: 2; stroke-linecap: square"/>
    </g>
    <g id="text_213">
     <!-- PPA (partialed out OPA) -->
     <g transform="translate(288.945 58.070437) scale(0.1 -0.1)">
      <defs>
       <path id="DejaVuSans-41" d="M 2188 4044 
L 1331 1722 
L 3047 1722 
L 2188 4044 
z
M 1831 4666 
L 2547 4666 
L 4325 0 
L 3669 0 
L 3244 1197 
L 1141 1197 
L 716 0 
L 50 0 
L 1831 4666 
z
" transform="scale(0.015625)"/>
       <path id="DejaVuSans-64" d="M 2906 2969 
L 2906 4863 
L 3481 4863 
L 3481 0 
L 2906 0 
L 2906 525 
Q 2725 213 2448 61 
Q 2172 -91 1784 -91 
Q 1150 -91 751 415 
Q 353 922 353 1747 
Q 353 2572 751 3078 
Q 1150 3584 1784 3584 
Q 2172 3584 2448 3432 
Q 2725 3281 2906 2969 
z
M 947 1747 
Q 947 1113 1208 752 
Q 1469 391 1925 391 
Q 2381 391 2643 752 
Q 2906 1113 2906 1747 
Q 2906 2381 2643 2742 
Q 2381 3103 1925 3103 
Q 1469 3103 1208 2742 
Q 947 2381 947 1747 
z
" transform="scale(0.015625)"/>
       <path id="DejaVuSans-75" d="M 544 1381 
L 544 3500 
L 1119 3500 
L 1119 1403 
Q 1119 906 1312 657 
Q 1506 409 1894 409 
Q 2359 409 2629 706 
Q 2900 1003 2900 1516 
L 2900 3500 
L 3475 3500 
L 3475 0 
L 2900 0 
L 2900 538 
Q 2691 219 2414 64 
Q 2138 -91 1772 -91 
Q 1169 -91 856 284 
Q 544 659 544 1381 
z
M 1991 3584 
L 1991 3584 
z
" transform="scale(0.015625)"/>
       <path id="DejaVuSans-4f" d="M 2522 4238 
Q 1834 4238 1429 3725 
Q 1025 3213 1025 2328 
Q 1025 1447 1429 934 
Q 1834 422 2522 422 
Q 3209 422 3611 934 
Q 4013 1447 4013 2328 
Q 4013 3213 3611 3725 
Q 3209 4238 2522 4238 
z
M 2522 4750 
Q 3503 4750 4090 4092 
Q 4678 3434 4678 2328 
Q 4678 1225 4090 567 
Q 3503 -91 2522 -91 
Q 1538 -91 948 565 
Q 359 1222 359 2328 
Q 359 3434 948 4092 
Q 1538 4750 2522 4750 
z
" transform="scale(0.015625)"/>
      </defs>
      <use xlink:href="#DejaVuSans-50"/>
      <use xlink:href="#DejaVuSans-50" x="60.302734"/>
      <use xlink:href="#DejaVuSans-41" x="114.230469"/>
      <use xlink:href="#DejaVuSans-20" x="182.638672"/>
      <use xlink:href="#DejaVuSans-28" x="214.425781"/>
      <use xlink:href="#DejaVuSans-70" x="253.439453"/>
      <use xlink:href="#DejaVuSans-61" x="316.916016"/>
      <use xlink:href="#DejaVuSans-72" x="378.195312"/>
      <use xlink:href="#DejaVuSans-74" x="419.308594"/>
      <use xlink:href="#DejaVuSans-69" x="458.517578"/>
      <use xlink:href="#DejaVuSans-61" x="486.300781"/>
      <use xlink:href="#DejaVuSans-6c" x="547.580078"/>
      <use xlink:href="#DejaVuSans-65" x="575.363281"/>
      <use xlink:href="#DejaVuSans-64" x="636.886719"/>
      <use xlink:href="#DejaVuSans-20" x="700.363281"/>
      <use xlink:href="#DejaVuSans-6f" x="732.150391"/>
      <use xlink:href="#DejaVuSans-75" x="793.332031"/>
      <use xlink:href="#DejaVuSans-74" x="856.710938"/>
      <use xlink:href="#DejaVuSans-20" x="895.919922"/>
      <use xlink:href="#DejaVuSans-4f" x="927.707031"/>
      <use xlink:href="#DejaVuSans-50" x="1006.417969"/>
      <use xlink:href="#DejaVuSans-41" x="1060.345703"/>
      <use xlink:href="#DejaVuSans-29" x="1128.753906"/>
     </g>
    </g>
    <g id="line2d_21">
     <path d="M 260.945 69.248562 
L 270.945 69.248562 
L 280.945 69.248562 
" style="fill: none; stroke: #348aa7; stroke-width: 2; stroke-linecap: square"/>
    </g>
    <g id="text_214">
     <!-- OPA (partialed out PPA) -->
     <g transform="translate(288.945 72.748562) scale(0.1 -0.1)">
      <use xlink:href="#DejaVuSans-4f"/>
      <use xlink:href="#DejaVuSans-50" x="78.710938"/>
      <use xlink:href="#DejaVuSans-41" x="132.638672"/>
      <use xlink:href="#DejaVuSans-20" x="201.046875"/>
      <use xlink:href="#DejaVuSans-28" x="232.833984"/>
      <use xlink:href="#DejaVuSans-70" x="271.847656"/>
      <use xlink:href="#DejaVuSans-61" x="335.324219"/>
      <use xlink:href="#DejaVuSans-72" x="396.603516"/>
      <use xlink:href="#DejaVuSans-74" x="437.716797"/>
      <use xlink:href="#DejaVuSans-69" x="476.925781"/>
      <use xlink:href="#DejaVuSans-61" x="504.708984"/>
      <use xlink:href="#DejaVuSans-6c" x="565.988281"/>
      <use xlink:href="#DejaVuSans-65" x="593.771484"/>
      <use xlink:href="#DejaVuSans-64" x="655.294922"/>
      <use xlink:href="#DejaVuSans-20" x="718.771484"/>
      <use xlink:href="#DejaVuSans-6f" x="750.558594"/>
      <use xlink:href="#DejaVuSans-75" x="811.740234"/>
      <use xlink:href="#DejaVuSans-74" x="875.119141"/>
      <use xlink:href="#DejaVuSans-20" x="914.328125"/>
      <use xlink:href="#DejaVuSans-50" x="946.115234"/>
      <use xlink:href="#DejaVuSans-50" x="1006.417969"/>
      <use xlink:href="#DejaVuSans-41" x="1060.345703"/>
      <use xlink:href="#DejaVuSans-29" x="1128.753906"/>
     </g>
    </g>
   </g>
  </g>
 </g>
 <defs>
  <clipPath id="p3bef7a47f7">
   <rect x="57.6" y="41.472" width="357.12" height="266.112"/>
  </clipPath>
 </defs>
</svg>
