<?xml version="1.0" encoding="utf-8" standalone="no"?>
<!DOCTYPE svg PUBLIC "-//W3C//DTD SVG 1.1//EN"
  "http://www.w3.org/Graphics/SVG/1.1/DTD/svg11.dtd">
<svg xmlns:xlink="http://www.w3.org/1999/xlink" width="460.8pt" height="345.6pt" viewBox="0 0 460.8 345.6" xmlns="http://www.w3.org/2000/svg" version="1.1">
 <metadata>
  <rdf:RDF xmlns:dc="http://purl.org/dc/elements/1.1/" xmlns:cc="http://creativecommons.org/ns#" xmlns:rdf="http://www.w3.org/1999/02/22-rdf-syntax-ns#">
   <cc:Work>
    <dc:type rdf:resource="http://purl.org/dc/dcmitype/StillImage"/>
    <dc:date>2025-11-25T17:07:49.433475</dc:date>
    <dc:format>image/svg+xml</dc:format>
    <dc:creator>
     <cc:Agent>
      <dc:title>Matplotlib v3.6.2, https://matplotlib.org/</dc:title>
     </cc:Agent>
    </dc:creator>
   </cc:Work>
  </rdf:RDF>
 </metadata>
 <defs>
  <style type="text/css">*{stroke-linejoin: round; stroke-linecap: butt}</style>
 </defs>
 <g id="figure_1">
  <g id="patch_1">
   <path d="M 0 345.6 
L 460.8 345.6 
L 460.8 0 
L 0 0 
L 0 345.6 
z
" style="fill: none"/>
  </g>
  <g id="axes_1">
   <g id="patch_2">
    <path d="M 57.6 307.584 
L 414.72 307.584 
L 414.72 41.472 
L 57.6 41.472 
L 57.6 307.584 
z
" style="fill: none"/>
   </g>
   <g id="PolyCollection_1">
    <defs>
     <path id="m038086e03b" d="M 73.832727 -73.368036 
L 73.832727 -63.377901 
L 76.151688 -66.226898 
L 78.470649 -69.091314 
L 80.78961 -67.958285 
L 83.108571 -70.384253 
L 85.427532 -67.485952 
L 87.746494 -69.495535 
L 90.065455 -69.204165 
L 92.384416 -69.15844 
L 94.703377 -66.559523 
L 97.022338 -66.259754 
L 99.341299 -70.225272 
L 101.66026 -78.822266 
L 103.979221 -79.562911 
L 106.298182 -75.338238 
L 108.617143 -69.450547 
L 110.936104 -67.053016 
L 113.255065 -66.082343 
L 115.574026 -62.148403 
L 117.892987 -54.266236 
L 120.211948 -50.112 
L 122.530909 -59.605154 
L 124.84987 -81.381104 
L 127.168831 -99.03457 
L 129.487792 -108.638614 
L 131.806753 -109.460983 
L 134.125714 -105.928254 
L 136.444675 -101.996706 
L 138.763636 -103.592892 
L 141.082597 -106.677023 
L 143.401558 -106.936428 
L 145.720519 -107.819383 
L 148.039481 -113.423453 
L 150.358442 -126.532643 
L 152.677403 -137.133501 
L 154.996364 -143.782618 
L 157.315325 -148.067196 
L 159.634286 -150.638666 
L 161.953247 -153.591129 
L 164.272208 -156.246831 
L 166.591169 -156.83048 
L 168.91013 -155.0026 
L 171.229091 -151.050377 
L 173.548052 -145.373227 
L 175.867013 -137.990855 
L 178.185974 -129.269624 
L 180.504935 -121.445286 
L 182.823896 -116.725203 
L 185.142857 -114.262082 
L 187.461818 -112.970812 
L 189.780779 -111.195092 
L 192.09974 -108.106871 
L 194.418701 -103.897946 
L 196.737662 -100.581377 
L 199.056623 -96.146308 
L 201.375584 -91.724271 
L 203.694545 -90.324766 
L 206.013506 -90.198246 
L 208.332468 -88.655699 
L 210.651429 -86.792417 
L 212.97039 -85.880383 
L 215.289351 -85.741848 
L 217.608312 -84.571146 
L 219.927273 -81.98392 
L 222.246234 -80.676736 
L 224.565195 -81.703955 
L 226.884156 -83.370436 
L 229.203117 -84.631029 
L 231.522078 -86.180937 
L 233.841039 -88.010985 
L 236.16 -88.989286 
L 238.478961 -87.962404 
L 240.797922 -85.625251 
L 243.116883 -81.88554 
L 245.435844 -77.644843 
L 247.754805 -73.790635 
L 250.073766 -71.199025 
L 252.392727 -70.389375 
L 254.711688 -70.360085 
L 257.030649 -70.658289 
L 259.34961 -70.735037 
L 261.668571 -69.950455 
L 263.987532 -69.502142 
L 266.306494 -68.67929 
L 268.625455 -68.224951 
L 270.944416 -69.091818 
L 273.263377 -71.541545 
L 275.582338 -74.708022 
L 277.901299 -78.179526 
L 280.22026 -79.50204 
L 282.539221 -78.518202 
L 284.858182 -76.872584 
L 287.177143 -76.447909 
L 289.496104 -77.212992 
L 291.815065 -77.763499 
L 294.134026 -76.442652 
L 296.452987 -74.506025 
L 298.771948 -73.780504 
L 301.090909 -73.36698 
L 303.40987 -71.908695 
L 305.728831 -70.477155 
L 308.047792 -69.703747 
L 310.366753 -69.279321 
L 312.685714 -68.32621 
L 315.004675 -68.778819 
L 317.323636 -70.511141 
L 319.642597 -72.536025 
L 321.961558 -73.821084 
L 324.280519 -74.041607 
L 326.599481 -72.63223 
L 328.918442 -70.127761 
L 331.237403 -68.92149 
L 333.556364 -70.189968 
L 335.875325 -73.124861 
L 338.194286 -75.000959 
L 340.513247 -76.729175 
L 342.832208 -78.637127 
L 345.151169 -79.182811 
L 347.47013 -77.389716 
L 349.789091 -74.873785 
L 352.108052 -73.005203 
L 354.427013 -70.630176 
L 356.745974 -67.90837 
L 359.064935 -66.488014 
L 361.383896 -66.49001 
L 363.702857 -67.63489 
L 366.021818 -70.428267 
L 368.340779 -74.811415 
L 370.65974 -79.446727 
L 372.978701 -82.28864 
L 375.297662 -82.502168 
L 377.616623 -80.830946 
L 379.935584 -77.624512 
L 382.254545 -73.824541 
L 384.573506 -71.32114 
L 386.892468 -71.566727 
L 389.211429 -73.185704 
L 391.53039 -73.861418 
L 393.849351 -73.657633 
L 396.168312 -73.526896 
L 398.487273 -72.474754 
L 398.487273 -90.88897 
L 398.487273 -90.88897 
L 396.168312 -91.555699 
L 393.849351 -91.703979 
L 391.53039 -91.897095 
L 389.211429 -91.697829 
L 386.892468 -90.584246 
L 384.573506 -90.701891 
L 382.254545 -93.402566 
L 379.935584 -97.280919 
L 377.616623 -100.400672 
L 375.297662 -101.858945 
L 372.978701 -101.281505 
L 370.65974 -98.102109 
L 368.340779 -93.064708 
L 366.021818 -88.153902 
L 363.702857 -84.604758 
L 361.383896 -82.494153 
L 359.064935 -82.001504 
L 356.745974 -83.487151 
L 354.427013 -86.901795 
L 352.108052 -90.127525 
L 349.789091 -92.596999 
L 347.47013 -95.342247 
L 345.151169 -97.222779 
L 342.832208 -96.853977 
L 340.513247 -95.614129 
L 338.194286 -95.335223 
L 335.875325 -95.540882 
L 333.556364 -94.2762 
L 331.237403 -93.50378 
L 328.918442 -94.026768 
L 326.599481 -94.931058 
L 324.280519 -94.133752 
L 321.961558 -92.108197 
L 319.642597 -90.105705 
L 317.323636 -88.737935 
L 315.004675 -88.681749 
L 312.685714 -89.94699 
L 310.366753 -92.595162 
L 308.047792 -94.785786 
L 305.728831 -96.914672 
L 303.40987 -99.151543 
L 301.090909 -101.069497 
L 298.771948 -101.541312 
L 296.452987 -101.618512 
L 294.134026 -102.337066 
L 291.815065 -102.588654 
L 289.496104 -101.467991 
L 287.177143 -100.967918 
L 284.858182 -102.32243 
L 282.539221 -105.12508 
L 280.22026 -106.814479 
L 277.901299 -105.475582 
L 275.582338 -101.89071 
L 273.263377 -98.915974 
L 270.944416 -96.382345 
L 268.625455 -94.852187 
L 266.306494 -94.359524 
L 263.987532 -94.722808 
L 261.668571 -94.998226 
L 259.34961 -95.302322 
L 257.030649 -95.048168 
L 254.711688 -94.936603 
L 252.392727 -95.5082 
L 250.073766 -97.233223 
L 247.754805 -100.752758 
L 245.435844 -105.162638 
L 243.116883 -109.548659 
L 240.797922 -113.546045 
L 238.478961 -115.728731 
L 236.16 -116.256231 
L 233.841039 -114.686031 
L 231.522078 -112.425229 
L 229.203117 -110.202192 
L 226.884156 -108.628506 
L 224.565195 -107.046234 
L 222.246234 -105.631878 
L 219.927273 -106.112793 
L 217.608312 -107.860594 
L 215.289351 -108.581455 
L 212.97039 -108.854189 
L 210.651429 -109.715622 
L 208.332468 -111.127179 
L 206.013506 -112.766286 
L 203.694545 -114.0411 
L 201.375584 -116.74654 
L 199.056623 -122.672364 
L 196.737662 -128.641604 
L 194.418701 -132.809356 
L 192.09974 -137.062563 
L 189.780779 -140.1699 
L 187.461818 -142.085746 
L 185.142857 -144.392056 
L 182.823896 -146.719138 
L 180.504935 -149.822888 
L 178.185974 -155.349874 
L 175.867013 -163.222701 
L 173.548052 -170.989538 
L 171.229091 -176.669591 
L 168.91013 -178.996462 
L 166.591169 -178.312176 
L 164.272208 -176.662951 
L 161.953247 -175.048657 
L 159.634286 -174.323986 
L 157.315325 -173.842926 
L 154.996364 -170.504225 
L 152.677403 -162.536942 
L 150.358442 -150.540512 
L 148.039481 -137.141809 
L 145.720519 -131.073486 
L 143.401558 -129.527309 
L 141.082597 -128.730383 
L 138.763636 -125.51627 
L 136.444675 -123.588526 
L 134.125714 -125.380011 
L 131.806753 -125.810672 
L 129.487792 -123.194725 
L 127.168831 -114.803396 
L 124.84987 -99.901195 
L 122.530909 -74.198401 
L 120.211948 -61.928871 
L 117.892987 -63.174131 
L 115.574026 -71.620091 
L 113.255065 -75.056138 
L 110.936104 -75.026953 
L 108.617143 -77.359917 
L 106.298182 -83.04443 
L 103.979221 -88.998333 
L 101.66026 -88.697962 
L 99.341299 -77.889236 
L 97.022338 -73.958457 
L 94.703377 -76.648005 
L 92.384416 -80.866243 
L 90.065455 -83.356156 
L 87.746494 -79.249956 
L 85.427532 -74.510739 
L 83.108571 -79.080347 
L 80.78961 -78.18706 
L 78.470649 -77.557564 
L 76.151688 -76.030382 
L 73.832727 -73.368036 
z
" style="stroke: #ff2c55; stroke-opacity: 0.1"/>
    </defs>
    <g clip-path="url(#p41eec1d814)">
     <use xlink:href="#m038086e03b" x="0" y="345.6" style="fill: #ff2c55; fill-opacity: 0.1; stroke: #ff2c55; stroke-opacity: 0.1"/>
    </g>
   </g>
   <g id="PolyCollection_2">
    <defs>
     <path id="ma6641365f4" d="M 73.832727 -80.592266 
L 73.832727 -70.337515 
L 76.151688 -73.426063 
L 78.470649 -73.585227 
L 80.78961 -75.539533 
L 83.108571 -80.137311 
L 85.427532 -78.208611 
L 87.746494 -70.479306 
L 90.065455 -65.182923 
L 92.384416 -72.673985 
L 94.703377 -76.148515 
L 97.022338 -79.4715 
L 99.341299 -75.736968 
L 101.66026 -73.857843 
L 103.979221 -74.716157 
L 106.298182 -76.181349 
L 108.617143 -79.643178 
L 110.936104 -85.299439 
L 113.255065 -91.759392 
L 115.574026 -92.994381 
L 117.892987 -92.897178 
L 120.211948 -102.638785 
L 122.530909 -131.044141 
L 124.84987 -174.206267 
L 127.168831 -190.21326 
L 129.487792 -184.665627 
L 131.806753 -179.728437 
L 134.125714 -177.655179 
L 136.444675 -183.03882 
L 138.763636 -193.74553 
L 141.082597 -197.540268 
L 143.401558 -199.776272 
L 145.720519 -210.836301 
L 148.039481 -225.826504 
L 150.358442 -223.836668 
L 152.677403 -205.907622 
L 154.996364 -187.252379 
L 157.315325 -177.45488 
L 159.634286 -177.0528 
L 161.953247 -186.254175 
L 164.272208 -198.828794 
L 166.591169 -209.810441 
L 168.91013 -218.633843 
L 171.229091 -227.776426 
L 173.548052 -233.595389 
L 175.867013 -233.267289 
L 178.185974 -226.020314 
L 180.504935 -215.691019 
L 182.823896 -204.587896 
L 185.142857 -196.198657 
L 187.461818 -192.081454 
L 189.780779 -190.426031 
L 192.09974 -188.08313 
L 194.418701 -182.907871 
L 196.737662 -176.116947 
L 199.056623 -170.133083 
L 201.375584 -166.44136 
L 203.694545 -166.194807 
L 206.013506 -167.546784 
L 208.332468 -170.75482 
L 210.651429 -174.943084 
L 212.97039 -176.605483 
L 215.289351 -174.603749 
L 217.608312 -171.086163 
L 219.927273 -169.307963 
L 222.246234 -173.31712 
L 224.565195 -184.190143 
L 226.884156 -198.331975 
L 229.203117 -210.423175 
L 231.522078 -215.548122 
L 233.841039 -213.088011 
L 236.16 -205.039469 
L 238.478961 -194.180007 
L 240.797922 -182.830111 
L 243.116883 -172.927811 
L 245.435844 -165.642461 
L 247.754805 -161.896767 
L 250.073766 -161.925396 
L 252.392727 -165.581113 
L 254.711688 -171.641074 
L 257.030649 -177.065648 
L 259.34961 -179.523376 
L 261.668571 -179.407558 
L 263.987532 -178.707312 
L 266.306494 -175.831357 
L 268.625455 -172.160393 
L 270.944416 -170.046857 
L 273.263377 -170.98283 
L 275.582338 -172.877961 
L 277.901299 -174.2979 
L 280.22026 -173.21307 
L 282.539221 -170.420271 
L 284.858182 -168.060851 
L 287.177143 -166.651103 
L 289.496104 -167.012589 
L 291.815065 -168.843019 
L 294.134026 -168.501535 
L 296.452987 -163.511858 
L 298.771948 -156.835234 
L 301.090909 -148.672606 
L 303.40987 -140.612856 
L 305.728831 -135.615354 
L 308.047792 -134.462264 
L 310.366753 -134.614522 
L 312.685714 -135.038976 
L 315.004675 -134.575358 
L 317.323636 -134.910765 
L 319.642597 -137.575756 
L 321.961558 -143.754602 
L 324.280519 -150.554999 
L 326.599481 -155.159846 
L 328.918442 -154.564447 
L 331.237403 -150.739097 
L 333.556364 -145.721297 
L 335.875325 -141.478254 
L 338.194286 -139.560485 
L 340.513247 -141.447437 
L 342.832208 -146.504853 
L 345.151169 -151.474863 
L 347.47013 -152.914372 
L 349.789091 -149.504787 
L 352.108052 -144.146859 
L 354.427013 -141.325597 
L 356.745974 -140.357349 
L 359.064935 -141.681163 
L 361.383896 -145.319913 
L 363.702857 -150.920089 
L 366.021818 -155.145176 
L 368.340779 -156.895511 
L 370.65974 -156.227239 
L 372.978701 -154.808701 
L 375.297662 -152.120161 
L 377.616623 -149.281727 
L 379.935584 -147.375959 
L 382.254545 -146.991537 
L 384.573506 -146.371136 
L 386.892468 -146.583989 
L 389.211429 -146.85839 
L 391.53039 -149.055618 
L 393.849351 -152.747706 
L 396.168312 -156.464177 
L 398.487273 -158.274197 
L 398.487273 -189.294631 
L 398.487273 -189.294631 
L 396.168312 -188.272137 
L 393.849351 -185.941409 
L 391.53039 -183.850557 
L 389.211429 -183.577515 
L 386.892468 -184.87882 
L 384.573506 -185.112335 
L 382.254545 -184.423231 
L 379.935584 -183.184272 
L 377.616623 -183.594291 
L 375.297662 -184.772338 
L 372.978701 -185.88596 
L 370.65974 -186.888912 
L 368.340779 -188.460619 
L 366.021818 -188.679295 
L 363.702857 -187.050933 
L 361.383896 -183.768578 
L 359.064935 -181.788079 
L 356.745974 -181.422994 
L 354.427013 -182.652268 
L 352.108052 -185.354028 
L 349.789091 -190.27907 
L 347.47013 -192.736519 
L 345.151169 -190.048514 
L 342.832208 -184.1978 
L 340.513247 -179.506013 
L 338.194286 -178.875622 
L 335.875325 -182.863031 
L 333.556364 -189.069549 
L 331.237403 -195.625748 
L 328.918442 -200.280804 
L 326.599481 -200.879846 
L 324.280519 -196.017282 
L 321.961558 -188.986901 
L 319.642597 -181.902657 
L 317.323636 -177.674838 
L 315.004675 -176.042476 
L 312.685714 -176.275023 
L 310.366753 -177.185773 
L 308.047792 -178.955582 
L 305.728831 -181.760607 
L 303.40987 -188.100685 
L 301.090909 -197.384808 
L 298.771948 -206.622234 
L 296.452987 -213.852457 
L 294.134026 -217.790293 
L 291.815065 -215.587352 
L 289.496104 -211.414096 
L 287.177143 -210.092946 
L 284.858182 -212.92118 
L 282.539221 -218.238002 
L 280.22026 -223.954289 
L 277.901299 -226.619827 
L 275.582338 -225.020441 
L 273.263377 -221.48537 
L 270.944416 -218.602887 
L 268.625455 -218.98054 
L 266.306494 -220.742454 
L 263.987532 -221.224366 
L 261.668571 -220.486265 
L 259.34961 -219.968841 
L 257.030649 -217.558837 
L 254.711688 -212.457329 
L 252.392727 -206.62171 
L 250.073766 -202.070807 
L 247.754805 -200.585982 
L 245.435844 -203.07779 
L 243.116883 -210.724348 
L 240.797922 -221.510403 
L 238.478961 -233.535359 
L 236.16 -243.424759 
L 233.841039 -248.74757 
L 231.522078 -247.021401 
L 229.203117 -238.612475 
L 226.884156 -226.554223 
L 224.565195 -214.670173 
L 222.246234 -206.10684 
L 219.927273 -204.06162 
L 217.608312 -207.067408 
L 215.289351 -211.516194 
L 212.97039 -213.849646 
L 210.651429 -212.311666 
L 208.332468 -208.739017 
L 206.013506 -206.279857 
L 203.694545 -205.214749 
L 201.375584 -205.702393 
L 199.056623 -210.095942 
L 196.737662 -216.503853 
L 194.418701 -223.153401 
L 192.09974 -229.438017 
L 189.780779 -234.51606 
L 187.461818 -238.376965 
L 185.142857 -243.297412 
L 182.823896 -251.605377 
L 180.504935 -263.623071 
L 178.185974 -276.705241 
L 175.867013 -288.091489 
L 173.548052 -292.032 
L 171.229091 -288.681435 
L 168.91013 -281.086128 
L 166.591169 -272.821645 
L 164.272208 -261.966911 
L 161.953247 -249.398125 
L 159.634286 -239.753299 
L 157.315325 -239.737566 
L 154.996364 -250.046187 
L 152.677403 -269.388934 
L 150.358442 -285.941113 
L 148.039481 -282.161385 
L 145.720519 -258.852904 
L 143.401558 -242.449339 
L 141.082597 -239.916292 
L 138.763636 -238.104239 
L 136.444675 -231.969523 
L 134.125714 -230.392143 
L 131.806753 -232.543697 
L 129.487792 -233.429026 
L 127.168831 -232.523339 
L 124.84987 -210.747141 
L 122.530909 -161.331091 
L 120.211948 -129.579261 
L 117.892987 -113.746038 
L 115.574026 -109.399179 
L 113.255065 -106.399728 
L 110.936104 -98.003967 
L 108.617143 -92.401057 
L 106.298182 -87.433724 
L 103.979221 -84.328074 
L 101.66026 -84.236982 
L 99.341299 -86.49525 
L 97.022338 -90.131294 
L 94.703377 -87.027917 
L 92.384416 -82.720253 
L 90.065455 -75.574311 
L 87.746494 -78.624169 
L 85.427532 -86.120426 
L 83.108571 -88.934763 
L 80.78961 -88.094159 
L 78.470649 -86.97451 
L 76.151688 -85.395619 
L 73.832727 -80.592266 
z
" style="stroke: #bfd200; stroke-opacity: 0.1"/>
    </defs>
    <g clip-path="url(#p41eec1d814)">
     <use xlink:href="#ma6641365f4" x="0" y="345.6" style="fill: #bfd200; fill-opacity: 0.1; stroke: #bfd200; stroke-opacity: 0.1"/>
    </g>
   </g>
   <g id="matplotlib.axis_1">
    <g id="xtick_1">
     <g id="line2d_1">
      <defs>
       <path id="m56a1c6593f" d="M 0 0 
L 0 3.5 
" style="stroke: #000000; stroke-width: 0.8"/>
      </defs>
      <g>
       <use xlink:href="#m56a1c6593f" x="103.346777" y="307.584" style="stroke: #000000; stroke-width: 0.8"/>
      </g>
     </g>
     <g id="text_1">
      <!-- 0.0 -->
      <g transform="translate(95.395214 322.182437) scale(0.1 -0.1)">
       <defs>
        <path id="DejaVuSans-30" d="M 2034 4250 
Q 1547 4250 1301 3770 
Q 1056 3291 1056 2328 
Q 1056 1369 1301 889 
Q 1547 409 2034 409 
Q 2525 409 2770 889 
Q 3016 1369 3016 2328 
Q 3016 3291 2770 3770 
Q 2525 4250 2034 4250 
z
M 2034 4750 
Q 2819 4750 3233 4129 
Q 3647 3509 3647 2328 
Q 3647 1150 3233 529 
Q 2819 -91 2034 -91 
Q 1250 -91 836 529 
Q 422 1150 422 2328 
Q 422 3509 836 4129 
Q 1250 4750 2034 4750 
z
" transform="scale(0.015625)"/>
        <path id="DejaVuSans-2e" d="M 684 794 
L 1344 794 
L 1344 0 
L 684 0 
L 684 794 
z
" transform="scale(0.015625)"/>
       </defs>
       <use xlink:href="#DejaVuSans-30"/>
       <use xlink:href="#DejaVuSans-2e" x="63.623047"/>
       <use xlink:href="#DejaVuSans-30" x="95.410156"/>
      </g>
     </g>
    </g>
    <g id="xtick_2">
     <g id="line2d_2">
      <g>
       <use xlink:href="#m56a1c6593f" x="162.374876" y="307.584" style="stroke: #000000; stroke-width: 0.8"/>
      </g>
     </g>
     <g id="text_2">
      <!-- 0.2 -->
      <g transform="translate(154.423314 322.182437) scale(0.1 -0.1)">
       <defs>
        <path id="DejaVuSans-32" d="M 1228 531 
L 3431 531 
L 3431 0 
L 469 0 
L 469 531 
Q 828 903 1448 1529 
Q 2069 2156 2228 2338 
Q 2531 2678 2651 2914 
Q 2772 3150 2772 3378 
Q 2772 3750 2511 3984 
Q 2250 4219 1831 4219 
Q 1534 4219 1204 4116 
Q 875 4013 500 3803 
L 500 4441 
Q 881 4594 1212 4672 
Q 1544 4750 1819 4750 
Q 2544 4750 2975 4387 
Q 3406 4025 3406 3419 
Q 3406 3131 3298 2873 
Q 3191 2616 2906 2266 
Q 2828 2175 2409 1742 
Q 1991 1309 1228 531 
z
" transform="scale(0.015625)"/>
       </defs>
       <use xlink:href="#DejaVuSans-30"/>
       <use xlink:href="#DejaVuSans-2e" x="63.623047"/>
       <use xlink:href="#DejaVuSans-32" x="95.410156"/>
      </g>
     </g>
    </g>
    <g id="xtick_3">
     <g id="line2d_3">
      <g>
       <use xlink:href="#m56a1c6593f" x="221.402975" y="307.584" style="stroke: #000000; stroke-width: 0.8"/>
      </g>
     </g>
     <g id="text_3">
      <!-- 0.4 -->
      <g transform="translate(213.451413 322.182437) scale(0.1 -0.1)">
       <defs>
        <path id="DejaVuSans-34" d="M 2419 4116 
L 825 1625 
L 2419 1625 
L 2419 4116 
z
M 2253 4666 
L 3047 4666 
L 3047 1625 
L 3713 1625 
L 3713 1100 
L 3047 1100 
L 3047 0 
L 2419 0 
L 2419 1100 
L 313 1100 
L 313 1709 
L 2253 4666 
z
" transform="scale(0.015625)"/>
       </defs>
       <use xlink:href="#DejaVuSans-30"/>
       <use xlink:href="#DejaVuSans-2e" x="63.623047"/>
       <use xlink:href="#DejaVuSans-34" x="95.410156"/>
      </g>
     </g>
    </g>
    <g id="xtick_4">
     <g id="line2d_4">
      <g>
       <use xlink:href="#m56a1c6593f" x="280.431074" y="307.584" style="stroke: #000000; stroke-width: 0.8"/>
      </g>
     </g>
     <g id="text_4">
      <!-- 0.6 -->
      <g transform="translate(272.479512 322.182437) scale(0.1 -0.1)">
       <defs>
        <path id="DejaVuSans-36" d="M 2113 2584 
Q 1688 2584 1439 2293 
Q 1191 2003 1191 1497 
Q 1191 994 1439 701 
Q 1688 409 2113 409 
Q 2538 409 2786 701 
Q 3034 994 3034 1497 
Q 3034 2003 2786 2293 
Q 2538 2584 2113 2584 
z
M 3366 4563 
L 3366 3988 
Q 3128 4100 2886 4159 
Q 2644 4219 2406 4219 
Q 1781 4219 1451 3797 
Q 1122 3375 1075 2522 
Q 1259 2794 1537 2939 
Q 1816 3084 2150 3084 
Q 2853 3084 3261 2657 
Q 3669 2231 3669 1497 
Q 3669 778 3244 343 
Q 2819 -91 2113 -91 
Q 1303 -91 875 529 
Q 447 1150 447 2328 
Q 447 3434 972 4092 
Q 1497 4750 2381 4750 
Q 2619 4750 2861 4703 
Q 3103 4656 3366 4563 
z
" transform="scale(0.015625)"/>
       </defs>
       <use xlink:href="#DejaVuSans-30"/>
       <use xlink:href="#DejaVuSans-2e" x="63.623047"/>
       <use xlink:href="#DejaVuSans-36" x="95.410156"/>
      </g>
     </g>
    </g>
    <g id="xtick_5">
     <g id="line2d_5">
      <g>
       <use xlink:href="#m56a1c6593f" x="339.459174" y="307.584" style="stroke: #000000; stroke-width: 0.8"/>
      </g>
     </g>
     <g id="text_5">
      <!-- 0.8 -->
      <g transform="translate(331.507611 322.182437) scale(0.1 -0.1)">
       <defs>
        <path id="DejaVuSans-38" d="M 2034 2216 
Q 1584 2216 1326 1975 
Q 1069 1734 1069 1313 
Q 1069 891 1326 650 
Q 1584 409 2034 409 
Q 2484 409 2743 651 
Q 3003 894 3003 1313 
Q 3003 1734 2745 1975 
Q 2488 2216 2034 2216 
z
M 1403 2484 
Q 997 2584 770 2862 
Q 544 3141 544 3541 
Q 544 4100 942 4425 
Q 1341 4750 2034 4750 
Q 2731 4750 3128 4425 
Q 3525 4100 3525 3541 
Q 3525 3141 3298 2862 
Q 3072 2584 2669 2484 
Q 3125 2378 3379 2068 
Q 3634 1759 3634 1313 
Q 3634 634 3220 271 
Q 2806 -91 2034 -91 
Q 1263 -91 848 271 
Q 434 634 434 1313 
Q 434 1759 690 2068 
Q 947 2378 1403 2484 
z
M 1172 3481 
Q 1172 3119 1398 2916 
Q 1625 2713 2034 2713 
Q 2441 2713 2670 2916 
Q 2900 3119 2900 3481 
Q 2900 3844 2670 4047 
Q 2441 4250 2034 4250 
Q 1625 4250 1398 4047 
Q 1172 3844 1172 3481 
z
" transform="scale(0.015625)"/>
       </defs>
       <use xlink:href="#DejaVuSans-30"/>
       <use xlink:href="#DejaVuSans-2e" x="63.623047"/>
       <use xlink:href="#DejaVuSans-38" x="95.410156"/>
      </g>
     </g>
    </g>
    <g id="xtick_6">
     <g id="line2d_6">
      <g>
       <use xlink:href="#m56a1c6593f" x="398.487273" y="307.584" style="stroke: #000000; stroke-width: 0.8"/>
      </g>
     </g>
     <g id="text_6">
      <!-- 1.0 -->
      <g transform="translate(390.53571 322.182437) scale(0.1 -0.1)">
       <defs>
        <path id="DejaVuSans-31" d="M 794 531 
L 1825 531 
L 1825 4091 
L 703 3866 
L 703 4441 
L 1819 4666 
L 2450 4666 
L 2450 531 
L 3481 531 
L 3481 0 
L 794 0 
L 794 531 
z
" transform="scale(0.015625)"/>
       </defs>
       <use xlink:href="#DejaVuSans-31"/>
       <use xlink:href="#DejaVuSans-2e" x="63.623047"/>
       <use xlink:href="#DejaVuSans-30" x="95.410156"/>
      </g>
     </g>
    </g>
    <g id="text_7">
     <!-- Time (s) -->
     <g transform="translate(205.666641 339.659781) scale(0.15 -0.15)">
      <defs>
       <path id="DejaVuSans-54" d="M -19 4666 
L 3928 4666 
L 3928 4134 
L 2272 4134 
L 2272 0 
L 1638 0 
L 1638 4134 
L -19 4134 
L -19 4666 
z
" transform="scale(0.015625)"/>
       <path id="DejaVuSans-69" d="M 603 3500 
L 1178 3500 
L 1178 0 
L 603 0 
L 603 3500 
z
M 603 4863 
L 1178 4863 
L 1178 4134 
L 603 4134 
L 603 4863 
z
" transform="scale(0.015625)"/>
       <path id="DejaVuSans-6d" d="M 3328 2828 
Q 3544 3216 3844 3400 
Q 4144 3584 4550 3584 
Q 5097 3584 5394 3201 
Q 5691 2819 5691 2113 
L 5691 0 
L 5113 0 
L 5113 2094 
Q 5113 2597 4934 2840 
Q 4756 3084 4391 3084 
Q 3944 3084 3684 2787 
Q 3425 2491 3425 1978 
L 3425 0 
L 2847 0 
L 2847 2094 
Q 2847 2600 2669 2842 
Q 2491 3084 2119 3084 
Q 1678 3084 1418 2786 
Q 1159 2488 1159 1978 
L 1159 0 
L 581 0 
L 581 3500 
L 1159 3500 
L 1159 2956 
Q 1356 3278 1631 3431 
Q 1906 3584 2284 3584 
Q 2666 3584 2933 3390 
Q 3200 3197 3328 2828 
z
" transform="scale(0.015625)"/>
       <path id="DejaVuSans-65" d="M 3597 1894 
L 3597 1613 
L 953 1613 
Q 991 1019 1311 708 
Q 1631 397 2203 397 
Q 2534 397 2845 478 
Q 3156 559 3463 722 
L 3463 178 
Q 3153 47 2828 -22 
Q 2503 -91 2169 -91 
Q 1331 -91 842 396 
Q 353 884 353 1716 
Q 353 2575 817 3079 
Q 1281 3584 2069 3584 
Q 2775 3584 3186 3129 
Q 3597 2675 3597 1894 
z
M 3022 2063 
Q 3016 2534 2758 2815 
Q 2500 3097 2075 3097 
Q 1594 3097 1305 2825 
Q 1016 2553 972 2059 
L 3022 2063 
z
" transform="scale(0.015625)"/>
       <path id="DejaVuSans-20" transform="scale(0.015625)"/>
       <path id="DejaVuSans-28" d="M 1984 4856 
Q 1566 4138 1362 3434 
Q 1159 2731 1159 2009 
Q 1159 1288 1364 580 
Q 1569 -128 1984 -844 
L 1484 -844 
Q 1016 -109 783 600 
Q 550 1309 550 2009 
Q 550 2706 781 3412 
Q 1013 4119 1484 4856 
L 1984 4856 
z
" transform="scale(0.015625)"/>
       <path id="DejaVuSans-73" d="M 2834 3397 
L 2834 2853 
Q 2591 2978 2328 3040 
Q 2066 3103 1784 3103 
Q 1356 3103 1142 2972 
Q 928 2841 928 2578 
Q 928 2378 1081 2264 
Q 1234 2150 1697 2047 
L 1894 2003 
Q 2506 1872 2764 1633 
Q 3022 1394 3022 966 
Q 3022 478 2636 193 
Q 2250 -91 1575 -91 
Q 1294 -91 989 -36 
Q 684 19 347 128 
L 347 722 
Q 666 556 975 473 
Q 1284 391 1588 391 
Q 1994 391 2212 530 
Q 2431 669 2431 922 
Q 2431 1156 2273 1281 
Q 2116 1406 1581 1522 
L 1381 1569 
Q 847 1681 609 1914 
Q 372 2147 372 2553 
Q 372 3047 722 3315 
Q 1072 3584 1716 3584 
Q 2034 3584 2315 3537 
Q 2597 3491 2834 3397 
z
" transform="scale(0.015625)"/>
       <path id="DejaVuSans-29" d="M 513 4856 
L 1013 4856 
Q 1481 4119 1714 3412 
Q 1947 2706 1947 2009 
Q 1947 1309 1714 600 
Q 1481 -109 1013 -844 
L 513 -844 
Q 928 -128 1133 580 
Q 1338 1288 1338 2009 
Q 1338 2731 1133 3434 
Q 928 4138 513 4856 
z
" transform="scale(0.015625)"/>
      </defs>
      <use xlink:href="#DejaVuSans-54"/>
      <use xlink:href="#DejaVuSans-69" x="57.958984"/>
      <use xlink:href="#DejaVuSans-6d" x="85.742188"/>
      <use xlink:href="#DejaVuSans-65" x="183.154297"/>
      <use xlink:href="#DejaVuSans-20" x="244.677734"/>
      <use xlink:href="#DejaVuSans-28" x="276.464844"/>
      <use xlink:href="#DejaVuSans-73" x="315.478516"/>
      <use xlink:href="#DejaVuSans-29" x="367.578125"/>
     </g>
    </g>
   </g>
   <g id="matplotlib.axis_2">
    <g id="ytick_1">
     <g id="line2d_7">
      <defs>
       <path id="m3f131807e5" d="M 0 0 
L -3.5 0 
" style="stroke: #000000; stroke-width: 0.8"/>
      </defs>
      <g>
       <use xlink:href="#m3f131807e5" x="57.6" y="304.694163" style="stroke: #000000; stroke-width: 0.8"/>
      </g>
     </g>
     <g id="text_8">
      <!-- −0.02 -->
      <g transform="translate(19.954687 308.493382) scale(0.1 -0.1)">
       <defs>
        <path id="DejaVuSans-2212" d="M 678 2272 
L 4684 2272 
L 4684 1741 
L 678 1741 
L 678 2272 
z
" transform="scale(0.015625)"/>
       </defs>
       <use xlink:href="#DejaVuSans-2212"/>
       <use xlink:href="#DejaVuSans-30" x="83.789062"/>
       <use xlink:href="#DejaVuSans-2e" x="147.412109"/>
       <use xlink:href="#DejaVuSans-30" x="179.199219"/>
       <use xlink:href="#DejaVuSans-32" x="242.822266"/>
      </g>
     </g>
    </g>
    <g id="ytick_2">
     <g id="line2d_8">
      <g>
       <use xlink:href="#m3f131807e5" x="57.6" y="269.710538" style="stroke: #000000; stroke-width: 0.8"/>
      </g>
     </g>
     <g id="text_9">
      <!-- 0.00 -->
      <g transform="translate(28.334375 273.509756) scale(0.1 -0.1)">
       <use xlink:href="#DejaVuSans-30"/>
       <use xlink:href="#DejaVuSans-2e" x="63.623047"/>
       <use xlink:href="#DejaVuSans-30" x="95.410156"/>
       <use xlink:href="#DejaVuSans-30" x="159.033203"/>
      </g>
     </g>
    </g>
    <g id="ytick_3">
     <g id="line2d_9">
      <g>
       <use xlink:href="#m3f131807e5" x="57.6" y="234.726912" style="stroke: #000000; stroke-width: 0.8"/>
      </g>
     </g>
     <g id="text_10">
      <!-- 0.02 -->
      <g transform="translate(28.334375 238.526131) scale(0.1 -0.1)">
       <use xlink:href="#DejaVuSans-30"/>
       <use xlink:href="#DejaVuSans-2e" x="63.623047"/>
       <use xlink:href="#DejaVuSans-30" x="95.410156"/>
       <use xlink:href="#DejaVuSans-32" x="159.033203"/>
      </g>
     </g>
    </g>
    <g id="ytick_4">
     <g id="line2d_10">
      <g>
       <use xlink:href="#m3f131807e5" x="57.6" y="199.743287" style="stroke: #000000; stroke-width: 0.8"/>
      </g>
     </g>
     <g id="text_11">
      <!-- 0.04 -->
      <g transform="translate(28.334375 203.542506) scale(0.1 -0.1)">
       <use xlink:href="#DejaVuSans-30"/>
       <use xlink:href="#DejaVuSans-2e" x="63.623047"/>
       <use xlink:href="#DejaVuSans-30" x="95.410156"/>
       <use xlink:href="#DejaVuSans-34" x="159.033203"/>
      </g>
     </g>
    </g>
    <g id="ytick_5">
     <g id="line2d_11">
      <g>
       <use xlink:href="#m3f131807e5" x="57.6" y="164.759661" style="stroke: #000000; stroke-width: 0.8"/>
      </g>
     </g>
     <g id="text_12">
      <!-- 0.06 -->
      <g transform="translate(28.334375 168.55888) scale(0.1 -0.1)">
       <use xlink:href="#DejaVuSans-30"/>
       <use xlink:href="#DejaVuSans-2e" x="63.623047"/>
       <use xlink:href="#DejaVuSans-30" x="95.410156"/>
       <use xlink:href="#DejaVuSans-36" x="159.033203"/>
      </g>
     </g>
    </g>
    <g id="ytick_6">
     <g id="line2d_12">
      <g>
       <use xlink:href="#m3f131807e5" x="57.6" y="129.776036" style="stroke: #000000; stroke-width: 0.8"/>
      </g>
     </g>
     <g id="text_13">
      <!-- 0.08 -->
      <g transform="translate(28.334375 133.575255) scale(0.1 -0.1)">
       <use xlink:href="#DejaVuSans-30"/>
       <use xlink:href="#DejaVuSans-2e" x="63.623047"/>
       <use xlink:href="#DejaVuSans-30" x="95.410156"/>
       <use xlink:href="#DejaVuSans-38" x="159.033203"/>
      </g>
     </g>
    </g>
    <g id="ytick_7">
     <g id="line2d_13">
      <g>
       <use xlink:href="#m3f131807e5" x="57.6" y="94.792411" style="stroke: #000000; stroke-width: 0.8"/>
      </g>
     </g>
     <g id="text_14">
      <!-- 0.10 -->
      <g transform="translate(28.334375 98.591629) scale(0.1 -0.1)">
       <use xlink:href="#DejaVuSans-30"/>
       <use xlink:href="#DejaVuSans-2e" x="63.623047"/>
       <use xlink:href="#DejaVuSans-31" x="95.410156"/>
       <use xlink:href="#DejaVuSans-30" x="159.033203"/>
      </g>
     </g>
    </g>
    <g id="ytick_8">
     <g id="line2d_14">
      <g>
       <use xlink:href="#m3f131807e5" x="57.6" y="59.808785" style="stroke: #000000; stroke-width: 0.8"/>
      </g>
     </g>
     <g id="text_15">
      <!-- 0.12 -->
      <g transform="translate(28.334375 63.608004) scale(0.1 -0.1)">
       <use xlink:href="#DejaVuSans-30"/>
       <use xlink:href="#DejaVuSans-2e" x="63.623047"/>
       <use xlink:href="#DejaVuSans-31" x="95.410156"/>
       <use xlink:href="#DejaVuSans-32" x="159.033203"/>
      </g>
     </g>
    </g>
    <g id="text_16">
     <!-- Spearman Correlation -->
     <g transform="translate(12.835156 256.604953) rotate(-90) scale(0.15 -0.15)">
      <defs>
       <path id="DejaVuSans-53" d="M 3425 4513 
L 3425 3897 
Q 3066 4069 2747 4153 
Q 2428 4238 2131 4238 
Q 1616 4238 1336 4038 
Q 1056 3838 1056 3469 
Q 1056 3159 1242 3001 
Q 1428 2844 1947 2747 
L 2328 2669 
Q 3034 2534 3370 2195 
Q 3706 1856 3706 1288 
Q 3706 609 3251 259 
Q 2797 -91 1919 -91 
Q 1588 -91 1214 -16 
Q 841 59 441 206 
L 441 856 
Q 825 641 1194 531 
Q 1563 422 1919 422 
Q 2459 422 2753 634 
Q 3047 847 3047 1241 
Q 3047 1584 2836 1778 
Q 2625 1972 2144 2069 
L 1759 2144 
Q 1053 2284 737 2584 
Q 422 2884 422 3419 
Q 422 4038 858 4394 
Q 1294 4750 2059 4750 
Q 2388 4750 2728 4690 
Q 3069 4631 3425 4513 
z
" transform="scale(0.015625)"/>
       <path id="DejaVuSans-70" d="M 1159 525 
L 1159 -1331 
L 581 -1331 
L 581 3500 
L 1159 3500 
L 1159 2969 
Q 1341 3281 1617 3432 
Q 1894 3584 2278 3584 
Q 2916 3584 3314 3078 
Q 3713 2572 3713 1747 
Q 3713 922 3314 415 
Q 2916 -91 2278 -91 
Q 1894 -91 1617 61 
Q 1341 213 1159 525 
z
M 3116 1747 
Q 3116 2381 2855 2742 
Q 2594 3103 2138 3103 
Q 1681 3103 1420 2742 
Q 1159 2381 1159 1747 
Q 1159 1113 1420 752 
Q 1681 391 2138 391 
Q 2594 391 2855 752 
Q 3116 1113 3116 1747 
z
" transform="scale(0.015625)"/>
       <path id="DejaVuSans-61" d="M 2194 1759 
Q 1497 1759 1228 1600 
Q 959 1441 959 1056 
Q 959 750 1161 570 
Q 1363 391 1709 391 
Q 2188 391 2477 730 
Q 2766 1069 2766 1631 
L 2766 1759 
L 2194 1759 
z
M 3341 1997 
L 3341 0 
L 2766 0 
L 2766 531 
Q 2569 213 2275 61 
Q 1981 -91 1556 -91 
Q 1019 -91 701 211 
Q 384 513 384 1019 
Q 384 1609 779 1909 
Q 1175 2209 1959 2209 
L 2766 2209 
L 2766 2266 
Q 2766 2663 2505 2880 
Q 2244 3097 1772 3097 
Q 1472 3097 1187 3025 
Q 903 2953 641 2809 
L 641 3341 
Q 956 3463 1253 3523 
Q 1550 3584 1831 3584 
Q 2591 3584 2966 3190 
Q 3341 2797 3341 1997 
z
" transform="scale(0.015625)"/>
       <path id="DejaVuSans-72" d="M 2631 2963 
Q 2534 3019 2420 3045 
Q 2306 3072 2169 3072 
Q 1681 3072 1420 2755 
Q 1159 2438 1159 1844 
L 1159 0 
L 581 0 
L 581 3500 
L 1159 3500 
L 1159 2956 
Q 1341 3275 1631 3429 
Q 1922 3584 2338 3584 
Q 2397 3584 2469 3576 
Q 2541 3569 2628 3553 
L 2631 2963 
z
" transform="scale(0.015625)"/>
       <path id="DejaVuSans-6e" d="M 3513 2113 
L 3513 0 
L 2938 0 
L 2938 2094 
Q 2938 2591 2744 2837 
Q 2550 3084 2163 3084 
Q 1697 3084 1428 2787 
Q 1159 2491 1159 1978 
L 1159 0 
L 581 0 
L 581 3500 
L 1159 3500 
L 1159 2956 
Q 1366 3272 1645 3428 
Q 1925 3584 2291 3584 
Q 2894 3584 3203 3211 
Q 3513 2838 3513 2113 
z
" transform="scale(0.015625)"/>
       <path id="DejaVuSans-43" d="M 4122 4306 
L 4122 3641 
Q 3803 3938 3442 4084 
Q 3081 4231 2675 4231 
Q 1875 4231 1450 3742 
Q 1025 3253 1025 2328 
Q 1025 1406 1450 917 
Q 1875 428 2675 428 
Q 3081 428 3442 575 
Q 3803 722 4122 1019 
L 4122 359 
Q 3791 134 3420 21 
Q 3050 -91 2638 -91 
Q 1578 -91 968 557 
Q 359 1206 359 2328 
Q 359 3453 968 4101 
Q 1578 4750 2638 4750 
Q 3056 4750 3426 4639 
Q 3797 4528 4122 4306 
z
" transform="scale(0.015625)"/>
       <path id="DejaVuSans-6f" d="M 1959 3097 
Q 1497 3097 1228 2736 
Q 959 2375 959 1747 
Q 959 1119 1226 758 
Q 1494 397 1959 397 
Q 2419 397 2687 759 
Q 2956 1122 2956 1747 
Q 2956 2369 2687 2733 
Q 2419 3097 1959 3097 
z
M 1959 3584 
Q 2709 3584 3137 3096 
Q 3566 2609 3566 1747 
Q 3566 888 3137 398 
Q 2709 -91 1959 -91 
Q 1206 -91 779 398 
Q 353 888 353 1747 
Q 353 2609 779 3096 
Q 1206 3584 1959 3584 
z
" transform="scale(0.015625)"/>
       <path id="DejaVuSans-6c" d="M 603 4863 
L 1178 4863 
L 1178 0 
L 603 0 
L 603 4863 
z
" transform="scale(0.015625)"/>
       <path id="DejaVuSans-74" d="M 1172 4494 
L 1172 3500 
L 2356 3500 
L 2356 3053 
L 1172 3053 
L 1172 1153 
Q 1172 725 1289 603 
Q 1406 481 1766 481 
L 2356 481 
L 2356 0 
L 1766 0 
Q 1100 0 847 248 
Q 594 497 594 1153 
L 594 3053 
L 172 3053 
L 172 3500 
L 594 3500 
L 594 4494 
L 1172 4494 
z
" transform="scale(0.015625)"/>
      </defs>
      <use xlink:href="#DejaVuSans-53"/>
      <use xlink:href="#DejaVuSans-70" x="63.476562"/>
      <use xlink:href="#DejaVuSans-65" x="126.953125"/>
      <use xlink:href="#DejaVuSans-61" x="188.476562"/>
      <use xlink:href="#DejaVuSans-72" x="249.755859"/>
      <use xlink:href="#DejaVuSans-6d" x="289.119141"/>
      <use xlink:href="#DejaVuSans-61" x="386.53125"/>
      <use xlink:href="#DejaVuSans-6e" x="447.810547"/>
      <use xlink:href="#DejaVuSans-20" x="511.189453"/>
      <use xlink:href="#DejaVuSans-43" x="542.976562"/>
      <use xlink:href="#DejaVuSans-6f" x="612.800781"/>
      <use xlink:href="#DejaVuSans-72" x="673.982422"/>
      <use xlink:href="#DejaVuSans-72" x="713.345703"/>
      <use xlink:href="#DejaVuSans-65" x="752.208984"/>
      <use xlink:href="#DejaVuSans-6c" x="813.732422"/>
      <use xlink:href="#DejaVuSans-61" x="841.515625"/>
      <use xlink:href="#DejaVuSans-74" x="902.794922"/>
      <use xlink:href="#DejaVuSans-69" x="942.003906"/>
      <use xlink:href="#DejaVuSans-6f" x="969.787109"/>
      <use xlink:href="#DejaVuSans-6e" x="1030.96875"/>
     </g>
    </g>
   </g>
   <g id="line2d_15">
    <path d="M 103.346777 307.584 
L 103.346777 41.472 
" clip-path="url(#p41eec1d814)" style="fill: none; stroke-dasharray: 5.55,2.4; stroke-dashoffset: 0; stroke: #d3d3d3; stroke-width: 1.5"/>
   </g>
   <g id="line2d_16">
    <path d="M 57.6 269.710538 
L 414.72 269.710538 
" clip-path="url(#p41eec1d814)" style="fill: none; stroke-dasharray: 5.55,2.4; stroke-dashoffset: 0; stroke: #d3d3d3; stroke-width: 1.5"/>
   </g>
   <g id="line2d_17">
    <path d="M 73.832727 277.227032 
L 76.151688 274.47136 
L 78.470649 272.275561 
L 80.78961 272.527327 
L 83.108571 270.8677 
L 85.427532 274.601654 
L 87.746494 271.227254 
L 90.065455 269.319839 
L 92.384416 270.587659 
L 94.703377 273.996236 
L 97.022338 275.490894 
L 99.341299 271.542746 
L 101.66026 261.839886 
L 103.979221 261.319378 
L 106.298182 266.408666 
L 108.617143 272.194768 
L 110.936104 274.560015 
L 113.255065 275.030759 
L 115.574026 278.715753 
L 117.892987 286.879817 
L 120.211948 289.579564 
L 122.530909 278.698223 
L 124.84987 254.95885 
L 127.168831 238.681017 
L 129.487792 229.68333 
L 131.806753 227.964172 
L 134.125714 229.945868 
L 136.444675 232.807384 
L 138.763636 231.045419 
L 141.082597 227.896297 
L 143.401558 227.368132 
L 145.720519 226.153566 
L 148.039481 220.317369 
L 150.358442 207.063422 
L 152.677403 195.764779 
L 154.996364 188.456579 
L 157.315325 184.644939 
L 159.634286 183.118674 
L 161.953247 181.280107 
L 164.272208 179.145109 
L 166.591169 178.028672 
L 168.91013 178.600469 
L 171.229091 181.740016 
L 173.548052 187.418618 
L 175.867013 194.993222 
L 178.185974 203.290251 
L 180.504935 209.965913 
L 182.823896 213.877829 
L 185.142857 216.272931 
L 189.780779 219.917504 
L 192.09974 223.015283 
L 194.418701 227.246349 
L 196.737662 230.98851 
L 201.375584 241.364594 
L 203.694545 243.417067 
L 206.013506 244.117734 
L 210.651429 247.34598 
L 212.97039 248.232714 
L 215.289351 248.438349 
L 217.608312 249.38413 
L 219.927273 251.551643 
L 222.246234 252.445693 
L 224.565195 251.224905 
L 226.884156 249.600529 
L 229.203117 248.183389 
L 231.522078 246.296917 
L 233.841039 244.251492 
L 236.16 242.977242 
L 238.478961 243.754432 
L 240.797922 246.014352 
L 243.116883 249.8829 
L 247.754805 258.328303 
L 250.073766 261.383876 
L 252.392727 262.651213 
L 254.711688 262.951656 
L 259.34961 262.581321 
L 261.668571 263.125659 
L 263.987532 263.487525 
L 266.306494 264.080593 
L 268.625455 264.061431 
L 270.944416 262.862919 
L 273.263377 260.37124 
L 275.582338 257.300634 
L 277.901299 253.772446 
L 280.22026 252.44174 
L 282.539221 253.778359 
L 284.858182 256.002493 
L 287.177143 256.892087 
L 289.496104 256.259509 
L 291.815065 255.423923 
L 294.134026 256.210141 
L 296.452987 257.537731 
L 301.090909 258.381761 
L 303.40987 260.069881 
L 305.728831 261.904087 
L 308.047792 263.355234 
L 310.366753 264.662759 
L 312.685714 266.4634 
L 315.004675 266.869716 
L 317.323636 265.975462 
L 321.961558 262.63536 
L 324.280519 261.51232 
L 326.599481 261.818356 
L 328.918442 263.522736 
L 331.237403 264.387365 
L 333.556364 263.366916 
L 335.875325 261.267129 
L 338.194286 260.431909 
L 340.513247 259.428348 
L 342.832208 257.854448 
L 345.151169 257.397205 
L 347.47013 259.234019 
L 349.789091 261.864608 
L 352.108052 264.033636 
L 354.427013 266.834015 
L 356.745974 269.902239 
L 359.064935 271.355241 
L 361.383896 271.107918 
L 363.702857 269.480176 
L 366.021818 266.308915 
L 370.65974 256.825582 
L 372.978701 253.814928 
L 375.297662 253.419444 
L 377.616623 254.984191 
L 379.935584 258.147285 
L 382.254545 261.986446 
L 384.573506 264.588484 
L 386.892468 264.524513 
L 389.211429 263.158233 
L 391.53039 262.720744 
L 396.168312 263.058703 
L 398.487273 263.918138 
L 398.487273 263.918138 
" clip-path="url(#p41eec1d814)" style="fill: none; stroke: #ff2c55; stroke-linecap: square"/>
   </g>
   <g id="line2d_18">
    <path d="M 73.832727 270.135109 
L 76.151688 266.189159 
L 78.470649 265.320132 
L 80.78961 263.783154 
L 83.108571 261.063963 
L 85.427532 263.435482 
L 87.746494 271.048262 
L 90.065455 275.221383 
L 92.384416 267.902881 
L 94.703377 264.011784 
L 97.022338 260.798603 
L 99.341299 264.483891 
L 101.66026 266.552588 
L 103.979221 266.077884 
L 106.298182 263.792464 
L 108.617143 259.577882 
L 110.936104 253.948297 
L 113.255065 246.52044 
L 117.892987 242.278392 
L 120.211948 229.490977 
L 122.530909 199.412384 
L 124.84987 153.123296 
L 127.168831 134.2317 
L 129.487792 136.552674 
L 131.806753 139.463933 
L 134.125714 141.576339 
L 136.444675 138.095828 
L 138.763636 129.675116 
L 141.082597 126.87172 
L 143.401558 124.487195 
L 145.720519 110.755397 
L 148.039481 91.606056 
L 150.358442 90.71111 
L 152.677403 107.951722 
L 154.996364 126.950717 
L 157.315325 137.003777 
L 159.634286 137.19695 
L 161.953247 127.77385 
L 164.272208 115.202147 
L 166.591169 104.283957 
L 171.229091 87.371069 
L 173.548052 82.786305 
L 175.867013 84.920611 
L 178.185974 94.237223 
L 182.823896 117.503363 
L 185.142857 125.851966 
L 187.461818 130.37079 
L 189.780779 133.128954 
L 192.09974 136.839426 
L 194.418701 142.569364 
L 196.737662 149.2896 
L 199.056623 155.485488 
L 201.375584 159.528123 
L 203.694545 159.895222 
L 206.013506 158.686679 
L 208.332468 155.853081 
L 210.651429 151.972625 
L 212.97039 150.372436 
L 215.289351 152.540028 
L 217.608312 156.523215 
L 219.927273 158.915209 
L 222.246234 155.88802 
L 224.565195 146.169842 
L 226.884156 133.156901 
L 229.203117 121.082175 
L 231.522078 114.315239 
L 233.841039 114.68221 
L 236.16 121.367886 
L 238.478961 131.742317 
L 240.797922 143.429743 
L 243.116883 153.77392 
L 245.435844 161.239874 
L 247.754805 164.358626 
L 250.073766 163.601899 
L 252.392727 159.498588 
L 254.711688 153.550799 
L 257.030649 148.287758 
L 259.34961 145.853891 
L 261.668571 145.653089 
L 263.987532 145.634161 
L 266.306494 147.313094 
L 268.625455 150.029534 
L 270.944416 151.275128 
L 273.263377 149.3659 
L 275.582338 146.650799 
L 277.901299 145.141136 
L 280.22026 147.01632 
L 282.539221 151.270864 
L 284.858182 155.108984 
L 287.177143 157.227975 
L 289.496104 156.386658 
L 291.815065 153.384815 
L 294.134026 152.454086 
L 296.452987 156.917842 
L 298.771948 163.871266 
L 303.40987 181.243229 
L 305.728831 186.91202 
L 308.047792 188.891077 
L 310.366753 189.699853 
L 315.004675 190.291083 
L 317.323636 189.307198 
L 319.642597 185.860794 
L 324.280519 172.31386 
L 326.599481 167.580154 
L 328.918442 168.177375 
L 331.237403 172.417577 
L 333.556364 178.204577 
L 335.875325 183.429358 
L 338.194286 186.381947 
L 340.513247 185.123275 
L 342.832208 180.248673 
L 345.151169 174.838312 
L 347.47013 172.774555 
L 349.789091 175.708072 
L 352.108052 180.849557 
L 354.427013 183.611067 
L 356.745974 184.709828 
L 359.064935 183.865379 
L 361.383896 181.055755 
L 363.702857 176.614489 
L 366.021818 173.687765 
L 368.340779 172.921935 
L 372.978701 175.252669 
L 377.616623 179.161991 
L 379.935584 180.319884 
L 382.254545 179.892616 
L 386.892468 179.868595 
L 389.211429 180.382048 
L 391.53039 179.146913 
L 396.168312 173.231843 
L 398.487273 171.815586 
L 398.487273 171.815586 
" clip-path="url(#p41eec1d814)" style="fill: none; stroke: #bfd200; stroke-linecap: square"/>
   </g>
   <g id="line2d_19">
    <path d="M 166.591169 307.584 
L 166.591169 41.472 
" clip-path="url(#p41eec1d814)" style="fill: none; stroke-dasharray: 5.55,2.4; stroke-dashoffset: 0; stroke: #ff2c55; stroke-width: 1.5"/>
   </g>
   <g id="line2d_20">
    <path d="M 173.548052 307.584 
L 173.548052 41.472 
" clip-path="url(#p41eec1d814)" style="fill: none; stroke-dasharray: 5.55,2.4; stroke-dashoffset: 0; stroke: #bfd200; stroke-width: 1.5"/>
   </g>
   <g id="patch_3">
    <path d="M 57.6 307.584 
L 57.6 41.472 
" style="fill: none; stroke: #000000; stroke-width: 0.8; stroke-linejoin: miter; stroke-linecap: square"/>
   </g>
   <g id="patch_4">
    <path d="M 57.6 307.584 
L 414.72 307.584 
" style="fill: none; stroke: #000000; stroke-width: 0.8; stroke-linejoin: miter; stroke-linecap: square"/>
   </g>
   <g id="text_17">
    <!-- . -->
    <g style="fill: #ff2c55" transform="translate(117.892987 295.488) scale(0.15 -0.15)">
     <use xlink:href="#DejaVuSans-2e"/>
    </g>
   </g>
   <g id="text_18">
    <!-- . -->
    <g style="fill: #ff2c55" transform="translate(120.211948 295.488) scale(0.15 -0.15)">
     <use xlink:href="#DejaVuSans-2e"/>
    </g>
   </g>
   <g id="text_19">
    <!-- . -->
    <g style="fill: #ff2c55" transform="translate(127.168831 295.488) scale(0.15 -0.15)">
     <use xlink:href="#DejaVuSans-2e"/>
    </g>
   </g>
   <g id="text_20">
    <!-- . -->
    <g style="fill: #ff2c55" transform="translate(129.487792 295.488) scale(0.15 -0.15)">
     <use xlink:href="#DejaVuSans-2e"/>
    </g>
   </g>
   <g id="text_21">
    <!-- . -->
    <g style="fill: #ff2c55" transform="translate(131.806753 295.488) scale(0.15 -0.15)">
     <use xlink:href="#DejaVuSans-2e"/>
    </g>
   </g>
   <g id="text_22">
    <!-- . -->
    <g style="fill: #ff2c55" transform="translate(134.125714 295.488) scale(0.15 -0.15)">
     <use xlink:href="#DejaVuSans-2e"/>
    </g>
   </g>
   <g id="text_23">
    <!-- . -->
    <g style="fill: #ff2c55" transform="translate(136.444675 295.488) scale(0.15 -0.15)">
     <use xlink:href="#DejaVuSans-2e"/>
    </g>
   </g>
   <g id="text_24">
    <!-- . -->
    <g style="fill: #ff2c55" transform="translate(138.763636 295.488) scale(0.15 -0.15)">
     <use xlink:href="#DejaVuSans-2e"/>
    </g>
   </g>
   <g id="text_25">
    <!-- . -->
    <g style="fill: #ff2c55" transform="translate(141.082597 295.488) scale(0.15 -0.15)">
     <use xlink:href="#DejaVuSans-2e"/>
    </g>
   </g>
   <g id="text_26">
    <!-- . -->
    <g style="fill: #ff2c55" transform="translate(143.401558 295.488) scale(0.15 -0.15)">
     <use xlink:href="#DejaVuSans-2e"/>
    </g>
   </g>
   <g id="text_27">
    <!-- . -->
    <g style="fill: #ff2c55" transform="translate(145.720519 295.488) scale(0.15 -0.15)">
     <use xlink:href="#DejaVuSans-2e"/>
    </g>
   </g>
   <g id="text_28">
    <!-- . -->
    <g style="fill: #ff2c55" transform="translate(148.039481 295.488) scale(0.15 -0.15)">
     <use xlink:href="#DejaVuSans-2e"/>
    </g>
   </g>
   <g id="text_29">
    <!-- . -->
    <g style="fill: #ff2c55" transform="translate(150.358442 295.488) scale(0.15 -0.15)">
     <use xlink:href="#DejaVuSans-2e"/>
    </g>
   </g>
   <g id="text_30">
    <!-- . -->
    <g style="fill: #ff2c55" transform="translate(152.677403 295.488) scale(0.15 -0.15)">
     <use xlink:href="#DejaVuSans-2e"/>
    </g>
   </g>
   <g id="text_31">
    <!-- . -->
    <g style="fill: #ff2c55" transform="translate(154.996364 295.488) scale(0.15 -0.15)">
     <use xlink:href="#DejaVuSans-2e"/>
    </g>
   </g>
   <g id="text_32">
    <!-- . -->
    <g style="fill: #ff2c55" transform="translate(157.315325 295.488) scale(0.15 -0.15)">
     <use xlink:href="#DejaVuSans-2e"/>
    </g>
   </g>
   <g id="text_33">
    <!-- . -->
    <g style="fill: #ff2c55" transform="translate(159.634286 295.488) scale(0.15 -0.15)">
     <use xlink:href="#DejaVuSans-2e"/>
    </g>
   </g>
   <g id="text_34">
    <!-- . -->
    <g style="fill: #ff2c55" transform="translate(161.953247 295.488) scale(0.15 -0.15)">
     <use xlink:href="#DejaVuSans-2e"/>
    </g>
   </g>
   <g id="text_35">
    <!-- . -->
    <g style="fill: #ff2c55" transform="translate(164.272208 295.488) scale(0.15 -0.15)">
     <use xlink:href="#DejaVuSans-2e"/>
    </g>
   </g>
   <g id="text_36">
    <!-- . -->
    <g style="fill: #ff2c55" transform="translate(166.591169 295.488) scale(0.15 -0.15)">
     <use xlink:href="#DejaVuSans-2e"/>
    </g>
   </g>
   <g id="text_37">
    <!-- . -->
    <g style="fill: #ff2c55" transform="translate(168.91013 295.488) scale(0.15 -0.15)">
     <use xlink:href="#DejaVuSans-2e"/>
    </g>
   </g>
   <g id="text_38">
    <!-- . -->
    <g style="fill: #ff2c55" transform="translate(171.229091 295.488) scale(0.15 -0.15)">
     <use xlink:href="#DejaVuSans-2e"/>
    </g>
   </g>
   <g id="text_39">
    <!-- . -->
    <g style="fill: #ff2c55" transform="translate(173.548052 295.488) scale(0.15 -0.15)">
     <use xlink:href="#DejaVuSans-2e"/>
    </g>
   </g>
   <g id="text_40">
    <!-- . -->
    <g style="fill: #ff2c55" transform="translate(175.867013 295.488) scale(0.15 -0.15)">
     <use xlink:href="#DejaVuSans-2e"/>
    </g>
   </g>
   <g id="text_41">
    <!-- . -->
    <g style="fill: #ff2c55" transform="translate(178.185974 295.488) scale(0.15 -0.15)">
     <use xlink:href="#DejaVuSans-2e"/>
    </g>
   </g>
   <g id="text_42">
    <!-- . -->
    <g style="fill: #ff2c55" transform="translate(180.504935 295.488) scale(0.15 -0.15)">
     <use xlink:href="#DejaVuSans-2e"/>
    </g>
   </g>
   <g id="text_43">
    <!-- . -->
    <g style="fill: #ff2c55" transform="translate(182.823896 295.488) scale(0.15 -0.15)">
     <use xlink:href="#DejaVuSans-2e"/>
    </g>
   </g>
   <g id="text_44">
    <!-- . -->
    <g style="fill: #ff2c55" transform="translate(185.142857 295.488) scale(0.15 -0.15)">
     <use xlink:href="#DejaVuSans-2e"/>
    </g>
   </g>
   <g id="text_45">
    <!-- . -->
    <g style="fill: #ff2c55" transform="translate(187.461818 295.488) scale(0.15 -0.15)">
     <use xlink:href="#DejaVuSans-2e"/>
    </g>
   </g>
   <g id="text_46">
    <!-- . -->
    <g style="fill: #ff2c55" transform="translate(189.780779 295.488) scale(0.15 -0.15)">
     <use xlink:href="#DejaVuSans-2e"/>
    </g>
   </g>
   <g id="text_47">
    <!-- . -->
    <g style="fill: #ff2c55" transform="translate(192.09974 295.488) scale(0.15 -0.15)">
     <use xlink:href="#DejaVuSans-2e"/>
    </g>
   </g>
   <g id="text_48">
    <!-- . -->
    <g style="fill: #ff2c55" transform="translate(194.418701 295.488) scale(0.15 -0.15)">
     <use xlink:href="#DejaVuSans-2e"/>
    </g>
   </g>
   <g id="text_49">
    <!-- . -->
    <g style="fill: #ff2c55" transform="translate(196.737662 295.488) scale(0.15 -0.15)">
     <use xlink:href="#DejaVuSans-2e"/>
    </g>
   </g>
   <g id="text_50">
    <!-- . -->
    <g style="fill: #bfd200" transform="translate(110.936104 300.735544) scale(0.15 -0.15)">
     <use xlink:href="#DejaVuSans-2e"/>
    </g>
   </g>
   <g id="text_51">
    <!-- . -->
    <g style="fill: #bfd200" transform="translate(113.255065 300.735544) scale(0.15 -0.15)">
     <use xlink:href="#DejaVuSans-2e"/>
    </g>
   </g>
   <g id="text_52">
    <!-- . -->
    <g style="fill: #bfd200" transform="translate(115.574026 300.735544) scale(0.15 -0.15)">
     <use xlink:href="#DejaVuSans-2e"/>
    </g>
   </g>
   <g id="text_53">
    <!-- . -->
    <g style="fill: #bfd200" transform="translate(117.892987 300.735544) scale(0.15 -0.15)">
     <use xlink:href="#DejaVuSans-2e"/>
    </g>
   </g>
   <g id="text_54">
    <!-- . -->
    <g style="fill: #bfd200" transform="translate(120.211948 300.735544) scale(0.15 -0.15)">
     <use xlink:href="#DejaVuSans-2e"/>
    </g>
   </g>
   <g id="text_55">
    <!-- . -->
    <g style="fill: #bfd200" transform="translate(122.530909 300.735544) scale(0.15 -0.15)">
     <use xlink:href="#DejaVuSans-2e"/>
    </g>
   </g>
   <g id="text_56">
    <!-- . -->
    <g style="fill: #bfd200" transform="translate(124.84987 300.735544) scale(0.15 -0.15)">
     <use xlink:href="#DejaVuSans-2e"/>
    </g>
   </g>
   <g id="text_57">
    <!-- . -->
    <g style="fill: #bfd200" transform="translate(127.168831 300.735544) scale(0.15 -0.15)">
     <use xlink:href="#DejaVuSans-2e"/>
    </g>
   </g>
   <g id="text_58">
    <!-- . -->
    <g style="fill: #bfd200" transform="translate(129.487792 300.735544) scale(0.15 -0.15)">
     <use xlink:href="#DejaVuSans-2e"/>
    </g>
   </g>
   <g id="text_59">
    <!-- . -->
    <g style="fill: #bfd200" transform="translate(131.806753 300.735544) scale(0.15 -0.15)">
     <use xlink:href="#DejaVuSans-2e"/>
    </g>
   </g>
   <g id="text_60">
    <!-- . -->
    <g style="fill: #bfd200" transform="translate(134.125714 300.735544) scale(0.15 -0.15)">
     <use xlink:href="#DejaVuSans-2e"/>
    </g>
   </g>
   <g id="text_61">
    <!-- . -->
    <g style="fill: #bfd200" transform="translate(136.444675 300.735544) scale(0.15 -0.15)">
     <use xlink:href="#DejaVuSans-2e"/>
    </g>
   </g>
   <g id="text_62">
    <!-- . -->
    <g style="fill: #bfd200" transform="translate(138.763636 300.735544) scale(0.15 -0.15)">
     <use xlink:href="#DejaVuSans-2e"/>
    </g>
   </g>
   <g id="text_63">
    <!-- . -->
    <g style="fill: #bfd200" transform="translate(141.082597 300.735544) scale(0.15 -0.15)">
     <use xlink:href="#DejaVuSans-2e"/>
    </g>
   </g>
   <g id="text_64">
    <!-- . -->
    <g style="fill: #bfd200" transform="translate(143.401558 300.735544) scale(0.15 -0.15)">
     <use xlink:href="#DejaVuSans-2e"/>
    </g>
   </g>
   <g id="text_65">
    <!-- . -->
    <g style="fill: #bfd200" transform="translate(145.720519 300.735544) scale(0.15 -0.15)">
     <use xlink:href="#DejaVuSans-2e"/>
    </g>
   </g>
   <g id="text_66">
    <!-- . -->
    <g style="fill: #bfd200" transform="translate(148.039481 300.735544) scale(0.15 -0.15)">
     <use xlink:href="#DejaVuSans-2e"/>
    </g>
   </g>
   <g id="text_67">
    <!-- . -->
    <g style="fill: #bfd200" transform="translate(150.358442 300.735544) scale(0.15 -0.15)">
     <use xlink:href="#DejaVuSans-2e"/>
    </g>
   </g>
   <g id="text_68">
    <!-- . -->
    <g style="fill: #bfd200" transform="translate(152.677403 300.735544) scale(0.15 -0.15)">
     <use xlink:href="#DejaVuSans-2e"/>
    </g>
   </g>
   <g id="text_69">
    <!-- . -->
    <g style="fill: #bfd200" transform="translate(154.996364 300.735544) scale(0.15 -0.15)">
     <use xlink:href="#DejaVuSans-2e"/>
    </g>
   </g>
   <g id="text_70">
    <!-- . -->
    <g style="fill: #bfd200" transform="translate(157.315325 300.735544) scale(0.15 -0.15)">
     <use xlink:href="#DejaVuSans-2e"/>
    </g>
   </g>
   <g id="text_71">
    <!-- . -->
    <g style="fill: #bfd200" transform="translate(159.634286 300.735544) scale(0.15 -0.15)">
     <use xlink:href="#DejaVuSans-2e"/>
    </g>
   </g>
   <g id="text_72">
    <!-- . -->
    <g style="fill: #bfd200" transform="translate(161.953247 300.735544) scale(0.15 -0.15)">
     <use xlink:href="#DejaVuSans-2e"/>
    </g>
   </g>
   <g id="text_73">
    <!-- . -->
    <g style="fill: #bfd200" transform="translate(164.272208 300.735544) scale(0.15 -0.15)">
     <use xlink:href="#DejaVuSans-2e"/>
    </g>
   </g>
   <g id="text_74">
    <!-- . -->
    <g style="fill: #bfd200" transform="translate(166.591169 300.735544) scale(0.15 -0.15)">
     <use xlink:href="#DejaVuSans-2e"/>
    </g>
   </g>
   <g id="text_75">
    <!-- . -->
    <g style="fill: #bfd200" transform="translate(168.91013 300.735544) scale(0.15 -0.15)">
     <use xlink:href="#DejaVuSans-2e"/>
    </g>
   </g>
   <g id="text_76">
    <!-- . -->
    <g style="fill: #bfd200" transform="translate(171.229091 300.735544) scale(0.15 -0.15)">
     <use xlink:href="#DejaVuSans-2e"/>
    </g>
   </g>
   <g id="text_77">
    <!-- . -->
    <g style="fill: #bfd200" transform="translate(173.548052 300.735544) scale(0.15 -0.15)">
     <use xlink:href="#DejaVuSans-2e"/>
    </g>
   </g>
   <g id="text_78">
    <!-- . -->
    <g style="fill: #bfd200" transform="translate(175.867013 300.735544) scale(0.15 -0.15)">
     <use xlink:href="#DejaVuSans-2e"/>
    </g>
   </g>
   <g id="text_79">
    <!-- . -->
    <g style="fill: #bfd200" transform="translate(178.185974 300.735544) scale(0.15 -0.15)">
     <use xlink:href="#DejaVuSans-2e"/>
    </g>
   </g>
   <g id="text_80">
    <!-- . -->
    <g style="fill: #bfd200" transform="translate(180.504935 300.735544) scale(0.15 -0.15)">
     <use xlink:href="#DejaVuSans-2e"/>
    </g>
   </g>
   <g id="text_81">
    <!-- . -->
    <g style="fill: #bfd200" transform="translate(182.823896 300.735544) scale(0.15 -0.15)">
     <use xlink:href="#DejaVuSans-2e"/>
    </g>
   </g>
   <g id="text_82">
    <!-- . -->
    <g style="fill: #bfd200" transform="translate(185.142857 300.735544) scale(0.15 -0.15)">
     <use xlink:href="#DejaVuSans-2e"/>
    </g>
   </g>
   <g id="text_83">
    <!-- . -->
    <g style="fill: #bfd200" transform="translate(187.461818 300.735544) scale(0.15 -0.15)">
     <use xlink:href="#DejaVuSans-2e"/>
    </g>
   </g>
   <g id="text_84">
    <!-- . -->
    <g style="fill: #bfd200" transform="translate(189.780779 300.735544) scale(0.15 -0.15)">
     <use xlink:href="#DejaVuSans-2e"/>
    </g>
   </g>
   <g id="text_85">
    <!-- . -->
    <g style="fill: #bfd200" transform="translate(192.09974 300.735544) scale(0.15 -0.15)">
     <use xlink:href="#DejaVuSans-2e"/>
    </g>
   </g>
   <g id="text_86">
    <!-- . -->
    <g style="fill: #bfd200" transform="translate(194.418701 300.735544) scale(0.15 -0.15)">
     <use xlink:href="#DejaVuSans-2e"/>
    </g>
   </g>
   <g id="text_87">
    <!-- . -->
    <g style="fill: #bfd200" transform="translate(196.737662 300.735544) scale(0.15 -0.15)">
     <use xlink:href="#DejaVuSans-2e"/>
    </g>
   </g>
   <g id="text_88">
    <!-- . -->
    <g style="fill: #bfd200" transform="translate(199.056623 300.735544) scale(0.15 -0.15)">
     <use xlink:href="#DejaVuSans-2e"/>
    </g>
   </g>
   <g id="text_89">
    <!-- . -->
    <g style="fill: #bfd200" transform="translate(201.375584 300.735544) scale(0.15 -0.15)">
     <use xlink:href="#DejaVuSans-2e"/>
    </g>
   </g>
   <g id="text_90">
    <!-- . -->
    <g style="fill: #bfd200" transform="translate(203.694545 300.735544) scale(0.15 -0.15)">
     <use xlink:href="#DejaVuSans-2e"/>
    </g>
   </g>
   <g id="text_91">
    <!-- . -->
    <g style="fill: #bfd200" transform="translate(206.013506 300.735544) scale(0.15 -0.15)">
     <use xlink:href="#DejaVuSans-2e"/>
    </g>
   </g>
   <g id="text_92">
    <!-- . -->
    <g style="fill: #bfd200" transform="translate(208.332468 300.735544) scale(0.15 -0.15)">
     <use xlink:href="#DejaVuSans-2e"/>
    </g>
   </g>
   <g id="text_93">
    <!-- . -->
    <g style="fill: #bfd200" transform="translate(210.651429 300.735544) scale(0.15 -0.15)">
     <use xlink:href="#DejaVuSans-2e"/>
    </g>
   </g>
   <g id="text_94">
    <!-- . -->
    <g style="fill: #bfd200" transform="translate(212.97039 300.735544) scale(0.15 -0.15)">
     <use xlink:href="#DejaVuSans-2e"/>
    </g>
   </g>
   <g id="text_95">
    <!-- . -->
    <g style="fill: #bfd200" transform="translate(215.289351 300.735544) scale(0.15 -0.15)">
     <use xlink:href="#DejaVuSans-2e"/>
    </g>
   </g>
   <g id="text_96">
    <!-- . -->
    <g style="fill: #bfd200" transform="translate(217.608312 300.735544) scale(0.15 -0.15)">
     <use xlink:href="#DejaVuSans-2e"/>
    </g>
   </g>
   <g id="text_97">
    <!-- . -->
    <g style="fill: #bfd200" transform="translate(219.927273 300.735544) scale(0.15 -0.15)">
     <use xlink:href="#DejaVuSans-2e"/>
    </g>
   </g>
   <g id="text_98">
    <!-- . -->
    <g style="fill: #bfd200" transform="translate(222.246234 300.735544) scale(0.15 -0.15)">
     <use xlink:href="#DejaVuSans-2e"/>
    </g>
   </g>
   <g id="text_99">
    <!-- . -->
    <g style="fill: #bfd200" transform="translate(224.565195 300.735544) scale(0.15 -0.15)">
     <use xlink:href="#DejaVuSans-2e"/>
    </g>
   </g>
   <g id="text_100">
    <!-- . -->
    <g style="fill: #bfd200" transform="translate(226.884156 300.735544) scale(0.15 -0.15)">
     <use xlink:href="#DejaVuSans-2e"/>
    </g>
   </g>
   <g id="text_101">
    <!-- . -->
    <g style="fill: #bfd200" transform="translate(229.203117 300.735544) scale(0.15 -0.15)">
     <use xlink:href="#DejaVuSans-2e"/>
    </g>
   </g>
   <g id="text_102">
    <!-- . -->
    <g style="fill: #bfd200" transform="translate(231.522078 300.735544) scale(0.15 -0.15)">
     <use xlink:href="#DejaVuSans-2e"/>
    </g>
   </g>
   <g id="text_103">
    <!-- . -->
    <g style="fill: #bfd200" transform="translate(233.841039 300.735544) scale(0.15 -0.15)">
     <use xlink:href="#DejaVuSans-2e"/>
    </g>
   </g>
   <g id="text_104">
    <!-- . -->
    <g style="fill: #bfd200" transform="translate(236.16 300.735544) scale(0.15 -0.15)">
     <use xlink:href="#DejaVuSans-2e"/>
    </g>
   </g>
   <g id="text_105">
    <!-- . -->
    <g style="fill: #bfd200" transform="translate(238.478961 300.735544) scale(0.15 -0.15)">
     <use xlink:href="#DejaVuSans-2e"/>
    </g>
   </g>
   <g id="text_106">
    <!-- . -->
    <g style="fill: #bfd200" transform="translate(240.797922 300.735544) scale(0.15 -0.15)">
     <use xlink:href="#DejaVuSans-2e"/>
    </g>
   </g>
   <g id="text_107">
    <!-- . -->
    <g style="fill: #bfd200" transform="translate(243.116883 300.735544) scale(0.15 -0.15)">
     <use xlink:href="#DejaVuSans-2e"/>
    </g>
   </g>
   <g id="text_108">
    <!-- . -->
    <g style="fill: #bfd200" transform="translate(245.435844 300.735544) scale(0.15 -0.15)">
     <use xlink:href="#DejaVuSans-2e"/>
    </g>
   </g>
   <g id="text_109">
    <!-- . -->
    <g style="fill: #bfd200" transform="translate(247.754805 300.735544) scale(0.15 -0.15)">
     <use xlink:href="#DejaVuSans-2e"/>
    </g>
   </g>
   <g id="text_110">
    <!-- . -->
    <g style="fill: #bfd200" transform="translate(250.073766 300.735544) scale(0.15 -0.15)">
     <use xlink:href="#DejaVuSans-2e"/>
    </g>
   </g>
   <g id="text_111">
    <!-- . -->
    <g style="fill: #bfd200" transform="translate(252.392727 300.735544) scale(0.15 -0.15)">
     <use xlink:href="#DejaVuSans-2e"/>
    </g>
   </g>
   <g id="text_112">
    <!-- . -->
    <g style="fill: #bfd200" transform="translate(254.711688 300.735544) scale(0.15 -0.15)">
     <use xlink:href="#DejaVuSans-2e"/>
    </g>
   </g>
   <g id="text_113">
    <!-- . -->
    <g style="fill: #bfd200" transform="translate(257.030649 300.735544) scale(0.15 -0.15)">
     <use xlink:href="#DejaVuSans-2e"/>
    </g>
   </g>
   <g id="text_114">
    <!-- . -->
    <g style="fill: #bfd200" transform="translate(259.34961 300.735544) scale(0.15 -0.15)">
     <use xlink:href="#DejaVuSans-2e"/>
    </g>
   </g>
   <g id="text_115">
    <!-- . -->
    <g style="fill: #bfd200" transform="translate(261.668571 300.735544) scale(0.15 -0.15)">
     <use xlink:href="#DejaVuSans-2e"/>
    </g>
   </g>
   <g id="text_116">
    <!-- . -->
    <g style="fill: #bfd200" transform="translate(263.987532 300.735544) scale(0.15 -0.15)">
     <use xlink:href="#DejaVuSans-2e"/>
    </g>
   </g>
   <g id="text_117">
    <!-- . -->
    <g style="fill: #bfd200" transform="translate(266.306494 300.735544) scale(0.15 -0.15)">
     <use xlink:href="#DejaVuSans-2e"/>
    </g>
   </g>
   <g id="text_118">
    <!-- . -->
    <g style="fill: #bfd200" transform="translate(268.625455 300.735544) scale(0.15 -0.15)">
     <use xlink:href="#DejaVuSans-2e"/>
    </g>
   </g>
   <g id="text_119">
    <!-- . -->
    <g style="fill: #bfd200" transform="translate(270.944416 300.735544) scale(0.15 -0.15)">
     <use xlink:href="#DejaVuSans-2e"/>
    </g>
   </g>
   <g id="text_120">
    <!-- . -->
    <g style="fill: #bfd200" transform="translate(273.263377 300.735544) scale(0.15 -0.15)">
     <use xlink:href="#DejaVuSans-2e"/>
    </g>
   </g>
   <g id="text_121">
    <!-- . -->
    <g style="fill: #bfd200" transform="translate(275.582338 300.735544) scale(0.15 -0.15)">
     <use xlink:href="#DejaVuSans-2e"/>
    </g>
   </g>
   <g id="text_122">
    <!-- . -->
    <g style="fill: #bfd200" transform="translate(277.901299 300.735544) scale(0.15 -0.15)">
     <use xlink:href="#DejaVuSans-2e"/>
    </g>
   </g>
   <g id="text_123">
    <!-- . -->
    <g style="fill: #bfd200" transform="translate(280.22026 300.735544) scale(0.15 -0.15)">
     <use xlink:href="#DejaVuSans-2e"/>
    </g>
   </g>
   <g id="text_124">
    <!-- . -->
    <g style="fill: #bfd200" transform="translate(282.539221 300.735544) scale(0.15 -0.15)">
     <use xlink:href="#DejaVuSans-2e"/>
    </g>
   </g>
   <g id="text_125">
    <!-- . -->
    <g style="fill: #bfd200" transform="translate(284.858182 300.735544) scale(0.15 -0.15)">
     <use xlink:href="#DejaVuSans-2e"/>
    </g>
   </g>
   <g id="text_126">
    <!-- . -->
    <g style="fill: #bfd200" transform="translate(287.177143 300.735544) scale(0.15 -0.15)">
     <use xlink:href="#DejaVuSans-2e"/>
    </g>
   </g>
   <g id="text_127">
    <!-- . -->
    <g style="fill: #bfd200" transform="translate(289.496104 300.735544) scale(0.15 -0.15)">
     <use xlink:href="#DejaVuSans-2e"/>
    </g>
   </g>
   <g id="text_128">
    <!-- . -->
    <g style="fill: #bfd200" transform="translate(291.815065 300.735544) scale(0.15 -0.15)">
     <use xlink:href="#DejaVuSans-2e"/>
    </g>
   </g>
   <g id="text_129">
    <!-- . -->
    <g style="fill: #bfd200" transform="translate(294.134026 300.735544) scale(0.15 -0.15)">
     <use xlink:href="#DejaVuSans-2e"/>
    </g>
   </g>
   <g id="text_130">
    <!-- . -->
    <g style="fill: #bfd200" transform="translate(296.452987 300.735544) scale(0.15 -0.15)">
     <use xlink:href="#DejaVuSans-2e"/>
    </g>
   </g>
   <g id="text_131">
    <!-- . -->
    <g style="fill: #bfd200" transform="translate(298.771948 300.735544) scale(0.15 -0.15)">
     <use xlink:href="#DejaVuSans-2e"/>
    </g>
   </g>
   <g id="text_132">
    <!-- . -->
    <g style="fill: #bfd200" transform="translate(301.090909 300.735544) scale(0.15 -0.15)">
     <use xlink:href="#DejaVuSans-2e"/>
    </g>
   </g>
   <g id="text_133">
    <!-- . -->
    <g style="fill: #bfd200" transform="translate(303.40987 300.735544) scale(0.15 -0.15)">
     <use xlink:href="#DejaVuSans-2e"/>
    </g>
   </g>
   <g id="text_134">
    <!-- . -->
    <g style="fill: #bfd200" transform="translate(305.728831 300.735544) scale(0.15 -0.15)">
     <use xlink:href="#DejaVuSans-2e"/>
    </g>
   </g>
   <g id="text_135">
    <!-- . -->
    <g style="fill: #bfd200" transform="translate(308.047792 300.735544) scale(0.15 -0.15)">
     <use xlink:href="#DejaVuSans-2e"/>
    </g>
   </g>
   <g id="text_136">
    <!-- . -->
    <g style="fill: #bfd200" transform="translate(310.366753 300.735544) scale(0.15 -0.15)">
     <use xlink:href="#DejaVuSans-2e"/>
    </g>
   </g>
   <g id="text_137">
    <!-- . -->
    <g style="fill: #bfd200" transform="translate(312.685714 300.735544) scale(0.15 -0.15)">
     <use xlink:href="#DejaVuSans-2e"/>
    </g>
   </g>
   <g id="text_138">
    <!-- . -->
    <g style="fill: #bfd200" transform="translate(315.004675 300.735544) scale(0.15 -0.15)">
     <use xlink:href="#DejaVuSans-2e"/>
    </g>
   </g>
   <g id="text_139">
    <!-- . -->
    <g style="fill: #bfd200" transform="translate(317.323636 300.735544) scale(0.15 -0.15)">
     <use xlink:href="#DejaVuSans-2e"/>
    </g>
   </g>
   <g id="text_140">
    <!-- . -->
    <g style="fill: #bfd200" transform="translate(319.642597 300.735544) scale(0.15 -0.15)">
     <use xlink:href="#DejaVuSans-2e"/>
    </g>
   </g>
   <g id="text_141">
    <!-- . -->
    <g style="fill: #bfd200" transform="translate(321.961558 300.735544) scale(0.15 -0.15)">
     <use xlink:href="#DejaVuSans-2e"/>
    </g>
   </g>
   <g id="text_142">
    <!-- . -->
    <g style="fill: #bfd200" transform="translate(324.280519 300.735544) scale(0.15 -0.15)">
     <use xlink:href="#DejaVuSans-2e"/>
    </g>
   </g>
   <g id="text_143">
    <!-- . -->
    <g style="fill: #bfd200" transform="translate(326.599481 300.735544) scale(0.15 -0.15)">
     <use xlink:href="#DejaVuSans-2e"/>
    </g>
   </g>
   <g id="text_144">
    <!-- . -->
    <g style="fill: #bfd200" transform="translate(328.918442 300.735544) scale(0.15 -0.15)">
     <use xlink:href="#DejaVuSans-2e"/>
    </g>
   </g>
   <g id="text_145">
    <!-- . -->
    <g style="fill: #bfd200" transform="translate(331.237403 300.735544) scale(0.15 -0.15)">
     <use xlink:href="#DejaVuSans-2e"/>
    </g>
   </g>
   <g id="text_146">
    <!-- . -->
    <g style="fill: #bfd200" transform="translate(333.556364 300.735544) scale(0.15 -0.15)">
     <use xlink:href="#DejaVuSans-2e"/>
    </g>
   </g>
   <g id="text_147">
    <!-- . -->
    <g style="fill: #bfd200" transform="translate(335.875325 300.735544) scale(0.15 -0.15)">
     <use xlink:href="#DejaVuSans-2e"/>
    </g>
   </g>
   <g id="text_148">
    <!-- . -->
    <g style="fill: #bfd200" transform="translate(338.194286 300.735544) scale(0.15 -0.15)">
     <use xlink:href="#DejaVuSans-2e"/>
    </g>
   </g>
   <g id="text_149">
    <!-- . -->
    <g style="fill: #bfd200" transform="translate(340.513247 300.735544) scale(0.15 -0.15)">
     <use xlink:href="#DejaVuSans-2e"/>
    </g>
   </g>
   <g id="text_150">
    <!-- . -->
    <g style="fill: #bfd200" transform="translate(342.832208 300.735544) scale(0.15 -0.15)">
     <use xlink:href="#DejaVuSans-2e"/>
    </g>
   </g>
   <g id="text_151">
    <!-- . -->
    <g style="fill: #bfd200" transform="translate(345.151169 300.735544) scale(0.15 -0.15)">
     <use xlink:href="#DejaVuSans-2e"/>
    </g>
   </g>
   <g id="text_152">
    <!-- . -->
    <g style="fill: #bfd200" transform="translate(347.47013 300.735544) scale(0.15 -0.15)">
     <use xlink:href="#DejaVuSans-2e"/>
    </g>
   </g>
   <g id="text_153">
    <!-- . -->
    <g style="fill: #bfd200" transform="translate(349.789091 300.735544) scale(0.15 -0.15)">
     <use xlink:href="#DejaVuSans-2e"/>
    </g>
   </g>
   <g id="text_154">
    <!-- . -->
    <g style="fill: #bfd200" transform="translate(352.108052 300.735544) scale(0.15 -0.15)">
     <use xlink:href="#DejaVuSans-2e"/>
    </g>
   </g>
   <g id="text_155">
    <!-- . -->
    <g style="fill: #bfd200" transform="translate(354.427013 300.735544) scale(0.15 -0.15)">
     <use xlink:href="#DejaVuSans-2e"/>
    </g>
   </g>
   <g id="text_156">
    <!-- . -->
    <g style="fill: #bfd200" transform="translate(356.745974 300.735544) scale(0.15 -0.15)">
     <use xlink:href="#DejaVuSans-2e"/>
    </g>
   </g>
   <g id="text_157">
    <!-- . -->
    <g style="fill: #bfd200" transform="translate(359.064935 300.735544) scale(0.15 -0.15)">
     <use xlink:href="#DejaVuSans-2e"/>
    </g>
   </g>
   <g id="text_158">
    <!-- . -->
    <g style="fill: #bfd200" transform="translate(361.383896 300.735544) scale(0.15 -0.15)">
     <use xlink:href="#DejaVuSans-2e"/>
    </g>
   </g>
   <g id="text_159">
    <!-- . -->
    <g style="fill: #bfd200" transform="translate(363.702857 300.735544) scale(0.15 -0.15)">
     <use xlink:href="#DejaVuSans-2e"/>
    </g>
   </g>
   <g id="text_160">
    <!-- . -->
    <g style="fill: #bfd200" transform="translate(366.021818 300.735544) scale(0.15 -0.15)">
     <use xlink:href="#DejaVuSans-2e"/>
    </g>
   </g>
   <g id="text_161">
    <!-- . -->
    <g style="fill: #bfd200" transform="translate(368.340779 300.735544) scale(0.15 -0.15)">
     <use xlink:href="#DejaVuSans-2e"/>
    </g>
   </g>
   <g id="text_162">
    <!-- . -->
    <g style="fill: #bfd200" transform="translate(370.65974 300.735544) scale(0.15 -0.15)">
     <use xlink:href="#DejaVuSans-2e"/>
    </g>
   </g>
   <g id="text_163">
    <!-- . -->
    <g style="fill: #bfd200" transform="translate(372.978701 300.735544) scale(0.15 -0.15)">
     <use xlink:href="#DejaVuSans-2e"/>
    </g>
   </g>
   <g id="text_164">
    <!-- . -->
    <g style="fill: #bfd200" transform="translate(375.297662 300.735544) scale(0.15 -0.15)">
     <use xlink:href="#DejaVuSans-2e"/>
    </g>
   </g>
   <g id="text_165">
    <!-- . -->
    <g style="fill: #bfd200" transform="translate(377.616623 300.735544) scale(0.15 -0.15)">
     <use xlink:href="#DejaVuSans-2e"/>
    </g>
   </g>
   <g id="text_166">
    <!-- . -->
    <g style="fill: #bfd200" transform="translate(379.935584 300.735544) scale(0.15 -0.15)">
     <use xlink:href="#DejaVuSans-2e"/>
    </g>
   </g>
   <g id="text_167">
    <!-- . -->
    <g style="fill: #bfd200" transform="translate(382.254545 300.735544) scale(0.15 -0.15)">
     <use xlink:href="#DejaVuSans-2e"/>
    </g>
   </g>
   <g id="text_168">
    <!-- . -->
    <g style="fill: #bfd200" transform="translate(384.573506 300.735544) scale(0.15 -0.15)">
     <use xlink:href="#DejaVuSans-2e"/>
    </g>
   </g>
   <g id="text_169">
    <!-- . -->
    <g style="fill: #bfd200" transform="translate(386.892468 300.735544) scale(0.15 -0.15)">
     <use xlink:href="#DejaVuSans-2e"/>
    </g>
   </g>
   <g id="text_170">
    <!-- . -->
    <g style="fill: #bfd200" transform="translate(389.211429 300.735544) scale(0.15 -0.15)">
     <use xlink:href="#DejaVuSans-2e"/>
    </g>
   </g>
   <g id="text_171">
    <!-- . -->
    <g style="fill: #bfd200" transform="translate(391.53039 300.735544) scale(0.15 -0.15)">
     <use xlink:href="#DejaVuSans-2e"/>
    </g>
   </g>
   <g id="text_172">
    <!-- . -->
    <g style="fill: #bfd200" transform="translate(393.849351 300.735544) scale(0.15 -0.15)">
     <use xlink:href="#DejaVuSans-2e"/>
    </g>
   </g>
   <g id="text_173">
    <!-- . -->
    <g style="fill: #bfd200" transform="translate(396.168312 300.735544) scale(0.15 -0.15)">
     <use xlink:href="#DejaVuSans-2e"/>
    </g>
   </g>
   <g id="text_174">
    <!-- . -->
    <g style="fill: #bfd200" transform="translate(398.487273 300.735544) scale(0.15 -0.15)">
     <use xlink:href="#DejaVuSans-2e"/>
    </g>
   </g>
   <g id="text_175">
    <!-- . -->
    <g transform="translate(85.427532 305.983088) scale(0.15 -0.15)">
     <use xlink:href="#DejaVuSans-2e"/>
    </g>
   </g>
   <g id="text_176">
    <!-- . -->
    <g transform="translate(110.936104 305.983088) scale(0.15 -0.15)">
     <use xlink:href="#DejaVuSans-2e"/>
    </g>
   </g>
   <g id="text_177">
    <!-- . -->
    <g transform="translate(113.255065 305.983088) scale(0.15 -0.15)">
     <use xlink:href="#DejaVuSans-2e"/>
    </g>
   </g>
   <g id="text_178">
    <!-- . -->
    <g transform="translate(115.574026 305.983088) scale(0.15 -0.15)">
     <use xlink:href="#DejaVuSans-2e"/>
    </g>
   </g>
   <g id="text_179">
    <!-- . -->
    <g transform="translate(117.892987 305.983088) scale(0.15 -0.15)">
     <use xlink:href="#DejaVuSans-2e"/>
    </g>
   </g>
   <g id="text_180">
    <!-- . -->
    <g transform="translate(120.211948 305.983088) scale(0.15 -0.15)">
     <use xlink:href="#DejaVuSans-2e"/>
    </g>
   </g>
   <g id="text_181">
    <!-- . -->
    <g transform="translate(122.530909 305.983088) scale(0.15 -0.15)">
     <use xlink:href="#DejaVuSans-2e"/>
    </g>
   </g>
   <g id="text_182">
    <!-- . -->
    <g transform="translate(124.84987 305.983088) scale(0.15 -0.15)">
     <use xlink:href="#DejaVuSans-2e"/>
    </g>
   </g>
   <g id="text_183">
    <!-- . -->
    <g transform="translate(127.168831 305.983088) scale(0.15 -0.15)">
     <use xlink:href="#DejaVuSans-2e"/>
    </g>
   </g>
   <g id="text_184">
    <!-- . -->
    <g transform="translate(129.487792 305.983088) scale(0.15 -0.15)">
     <use xlink:href="#DejaVuSans-2e"/>
    </g>
   </g>
   <g id="text_185">
    <!-- . -->
    <g transform="translate(131.806753 305.983088) scale(0.15 -0.15)">
     <use xlink:href="#DejaVuSans-2e"/>
    </g>
   </g>
   <g id="text_186">
    <!-- . -->
    <g transform="translate(134.125714 305.983088) scale(0.15 -0.15)">
     <use xlink:href="#DejaVuSans-2e"/>
    </g>
   </g>
   <g id="text_187">
    <!-- . -->
    <g transform="translate(136.444675 305.983088) scale(0.15 -0.15)">
     <use xlink:href="#DejaVuSans-2e"/>
    </g>
   </g>
   <g id="text_188">
    <!-- . -->
    <g transform="translate(138.763636 305.983088) scale(0.15 -0.15)">
     <use xlink:href="#DejaVuSans-2e"/>
    </g>
   </g>
   <g id="text_189">
    <!-- . -->
    <g transform="translate(141.082597 305.983088) scale(0.15 -0.15)">
     <use xlink:href="#DejaVuSans-2e"/>
    </g>
   </g>
   <g id="text_190">
    <!-- . -->
    <g transform="translate(143.401558 305.983088) scale(0.15 -0.15)">
     <use xlink:href="#DejaVuSans-2e"/>
    </g>
   </g>
   <g id="text_191">
    <!-- . -->
    <g transform="translate(145.720519 305.983088) scale(0.15 -0.15)">
     <use xlink:href="#DejaVuSans-2e"/>
    </g>
   </g>
   <g id="text_192">
    <!-- . -->
    <g transform="translate(148.039481 305.983088) scale(0.15 -0.15)">
     <use xlink:href="#DejaVuSans-2e"/>
    </g>
   </g>
   <g id="text_193">
    <!-- . -->
    <g transform="translate(150.358442 305.983088) scale(0.15 -0.15)">
     <use xlink:href="#DejaVuSans-2e"/>
    </g>
   </g>
   <g id="text_194">
    <!-- . -->
    <g transform="translate(152.677403 305.983088) scale(0.15 -0.15)">
     <use xlink:href="#DejaVuSans-2e"/>
    </g>
   </g>
   <g id="text_195">
    <!-- . -->
    <g transform="translate(166.591169 305.983088) scale(0.15 -0.15)">
     <use xlink:href="#DejaVuSans-2e"/>
    </g>
   </g>
   <g id="text_196">
    <!-- . -->
    <g transform="translate(168.91013 305.983088) scale(0.15 -0.15)">
     <use xlink:href="#DejaVuSans-2e"/>
    </g>
   </g>
   <g id="text_197">
    <!-- . -->
    <g transform="translate(171.229091 305.983088) scale(0.15 -0.15)">
     <use xlink:href="#DejaVuSans-2e"/>
    </g>
   </g>
   <g id="text_198">
    <!-- . -->
    <g transform="translate(173.548052 305.983088) scale(0.15 -0.15)">
     <use xlink:href="#DejaVuSans-2e"/>
    </g>
   </g>
   <g id="text_199">
    <!-- . -->
    <g transform="translate(175.867013 305.983088) scale(0.15 -0.15)">
     <use xlink:href="#DejaVuSans-2e"/>
    </g>
   </g>
   <g id="text_200">
    <!-- . -->
    <g transform="translate(178.185974 305.983088) scale(0.15 -0.15)">
     <use xlink:href="#DejaVuSans-2e"/>
    </g>
   </g>
   <g id="text_201">
    <!-- . -->
    <g transform="translate(180.504935 305.983088) scale(0.15 -0.15)">
     <use xlink:href="#DejaVuSans-2e"/>
    </g>
   </g>
   <g id="text_202">
    <!-- . -->
    <g transform="translate(182.823896 305.983088) scale(0.15 -0.15)">
     <use xlink:href="#DejaVuSans-2e"/>
    </g>
   </g>
   <g id="text_203">
    <!-- . -->
    <g transform="translate(185.142857 305.983088) scale(0.15 -0.15)">
     <use xlink:href="#DejaVuSans-2e"/>
    </g>
   </g>
   <g id="text_204">
    <!-- . -->
    <g transform="translate(187.461818 305.983088) scale(0.15 -0.15)">
     <use xlink:href="#DejaVuSans-2e"/>
    </g>
   </g>
   <g id="text_205">
    <!-- . -->
    <g transform="translate(189.780779 305.983088) scale(0.15 -0.15)">
     <use xlink:href="#DejaVuSans-2e"/>
    </g>
   </g>
   <g id="text_206">
    <!-- . -->
    <g transform="translate(192.09974 305.983088) scale(0.15 -0.15)">
     <use xlink:href="#DejaVuSans-2e"/>
    </g>
   </g>
   <g id="text_207">
    <!-- . -->
    <g transform="translate(194.418701 305.983088) scale(0.15 -0.15)">
     <use xlink:href="#DejaVuSans-2e"/>
    </g>
   </g>
   <g id="text_208">
    <!-- . -->
    <g transform="translate(196.737662 305.983088) scale(0.15 -0.15)">
     <use xlink:href="#DejaVuSans-2e"/>
    </g>
   </g>
   <g id="text_209">
    <!-- . -->
    <g transform="translate(199.056623 305.983088) scale(0.15 -0.15)">
     <use xlink:href="#DejaVuSans-2e"/>
    </g>
   </g>
   <g id="text_210">
    <!-- . -->
    <g transform="translate(201.375584 305.983088) scale(0.15 -0.15)">
     <use xlink:href="#DejaVuSans-2e"/>
    </g>
   </g>
   <g id="text_211">
    <!-- . -->
    <g transform="translate(203.694545 305.983088) scale(0.15 -0.15)">
     <use xlink:href="#DejaVuSans-2e"/>
    </g>
   </g>
   <g id="text_212">
    <!-- . -->
    <g transform="translate(206.013506 305.983088) scale(0.15 -0.15)">
     <use xlink:href="#DejaVuSans-2e"/>
    </g>
   </g>
   <g id="text_213">
    <!-- . -->
    <g transform="translate(208.332468 305.983088) scale(0.15 -0.15)">
     <use xlink:href="#DejaVuSans-2e"/>
    </g>
   </g>
   <g id="text_214">
    <!-- . -->
    <g transform="translate(210.651429 305.983088) scale(0.15 -0.15)">
     <use xlink:href="#DejaVuSans-2e"/>
    </g>
   </g>
   <g id="text_215">
    <!-- . -->
    <g transform="translate(212.97039 305.983088) scale(0.15 -0.15)">
     <use xlink:href="#DejaVuSans-2e"/>
    </g>
   </g>
   <g id="text_216">
    <!-- . -->
    <g transform="translate(215.289351 305.983088) scale(0.15 -0.15)">
     <use xlink:href="#DejaVuSans-2e"/>
    </g>
   </g>
   <g id="text_217">
    <!-- . -->
    <g transform="translate(217.608312 305.983088) scale(0.15 -0.15)">
     <use xlink:href="#DejaVuSans-2e"/>
    </g>
   </g>
   <g id="text_218">
    <!-- . -->
    <g transform="translate(219.927273 305.983088) scale(0.15 -0.15)">
     <use xlink:href="#DejaVuSans-2e"/>
    </g>
   </g>
   <g id="text_219">
    <!-- . -->
    <g transform="translate(222.246234 305.983088) scale(0.15 -0.15)">
     <use xlink:href="#DejaVuSans-2e"/>
    </g>
   </g>
   <g id="text_220">
    <!-- . -->
    <g transform="translate(224.565195 305.983088) scale(0.15 -0.15)">
     <use xlink:href="#DejaVuSans-2e"/>
    </g>
   </g>
   <g id="text_221">
    <!-- . -->
    <g transform="translate(226.884156 305.983088) scale(0.15 -0.15)">
     <use xlink:href="#DejaVuSans-2e"/>
    </g>
   </g>
   <g id="text_222">
    <!-- . -->
    <g transform="translate(229.203117 305.983088) scale(0.15 -0.15)">
     <use xlink:href="#DejaVuSans-2e"/>
    </g>
   </g>
   <g id="text_223">
    <!-- . -->
    <g transform="translate(231.522078 305.983088) scale(0.15 -0.15)">
     <use xlink:href="#DejaVuSans-2e"/>
    </g>
   </g>
   <g id="text_224">
    <!-- . -->
    <g transform="translate(233.841039 305.983088) scale(0.15 -0.15)">
     <use xlink:href="#DejaVuSans-2e"/>
    </g>
   </g>
   <g id="text_225">
    <!-- . -->
    <g transform="translate(236.16 305.983088) scale(0.15 -0.15)">
     <use xlink:href="#DejaVuSans-2e"/>
    </g>
   </g>
   <g id="text_226">
    <!-- . -->
    <g transform="translate(238.478961 305.983088) scale(0.15 -0.15)">
     <use xlink:href="#DejaVuSans-2e"/>
    </g>
   </g>
   <g id="text_227">
    <!-- . -->
    <g transform="translate(240.797922 305.983088) scale(0.15 -0.15)">
     <use xlink:href="#DejaVuSans-2e"/>
    </g>
   </g>
   <g id="text_228">
    <!-- . -->
    <g transform="translate(243.116883 305.983088) scale(0.15 -0.15)">
     <use xlink:href="#DejaVuSans-2e"/>
    </g>
   </g>
   <g id="text_229">
    <!-- . -->
    <g transform="translate(245.435844 305.983088) scale(0.15 -0.15)">
     <use xlink:href="#DejaVuSans-2e"/>
    </g>
   </g>
   <g id="text_230">
    <!-- . -->
    <g transform="translate(247.754805 305.983088) scale(0.15 -0.15)">
     <use xlink:href="#DejaVuSans-2e"/>
    </g>
   </g>
   <g id="text_231">
    <!-- . -->
    <g transform="translate(250.073766 305.983088) scale(0.15 -0.15)">
     <use xlink:href="#DejaVuSans-2e"/>
    </g>
   </g>
   <g id="text_232">
    <!-- . -->
    <g transform="translate(252.392727 305.983088) scale(0.15 -0.15)">
     <use xlink:href="#DejaVuSans-2e"/>
    </g>
   </g>
   <g id="text_233">
    <!-- . -->
    <g transform="translate(254.711688 305.983088) scale(0.15 -0.15)">
     <use xlink:href="#DejaVuSans-2e"/>
    </g>
   </g>
   <g id="text_234">
    <!-- . -->
    <g transform="translate(257.030649 305.983088) scale(0.15 -0.15)">
     <use xlink:href="#DejaVuSans-2e"/>
    </g>
   </g>
   <g id="text_235">
    <!-- . -->
    <g transform="translate(259.34961 305.983088) scale(0.15 -0.15)">
     <use xlink:href="#DejaVuSans-2e"/>
    </g>
   </g>
   <g id="text_236">
    <!-- . -->
    <g transform="translate(261.668571 305.983088) scale(0.15 -0.15)">
     <use xlink:href="#DejaVuSans-2e"/>
    </g>
   </g>
   <g id="text_237">
    <!-- . -->
    <g transform="translate(263.987532 305.983088) scale(0.15 -0.15)">
     <use xlink:href="#DejaVuSans-2e"/>
    </g>
   </g>
   <g id="text_238">
    <!-- . -->
    <g transform="translate(266.306494 305.983088) scale(0.15 -0.15)">
     <use xlink:href="#DejaVuSans-2e"/>
    </g>
   </g>
   <g id="text_239">
    <!-- . -->
    <g transform="translate(268.625455 305.983088) scale(0.15 -0.15)">
     <use xlink:href="#DejaVuSans-2e"/>
    </g>
   </g>
   <g id="text_240">
    <!-- . -->
    <g transform="translate(270.944416 305.983088) scale(0.15 -0.15)">
     <use xlink:href="#DejaVuSans-2e"/>
    </g>
   </g>
   <g id="text_241">
    <!-- . -->
    <g transform="translate(273.263377 305.983088) scale(0.15 -0.15)">
     <use xlink:href="#DejaVuSans-2e"/>
    </g>
   </g>
   <g id="text_242">
    <!-- . -->
    <g transform="translate(275.582338 305.983088) scale(0.15 -0.15)">
     <use xlink:href="#DejaVuSans-2e"/>
    </g>
   </g>
   <g id="text_243">
    <!-- . -->
    <g transform="translate(277.901299 305.983088) scale(0.15 -0.15)">
     <use xlink:href="#DejaVuSans-2e"/>
    </g>
   </g>
   <g id="text_244">
    <!-- . -->
    <g transform="translate(280.22026 305.983088) scale(0.15 -0.15)">
     <use xlink:href="#DejaVuSans-2e"/>
    </g>
   </g>
   <g id="text_245">
    <!-- . -->
    <g transform="translate(282.539221 305.983088) scale(0.15 -0.15)">
     <use xlink:href="#DejaVuSans-2e"/>
    </g>
   </g>
   <g id="text_246">
    <!-- . -->
    <g transform="translate(284.858182 305.983088) scale(0.15 -0.15)">
     <use xlink:href="#DejaVuSans-2e"/>
    </g>
   </g>
   <g id="text_247">
    <!-- . -->
    <g transform="translate(287.177143 305.983088) scale(0.15 -0.15)">
     <use xlink:href="#DejaVuSans-2e"/>
    </g>
   </g>
   <g id="text_248">
    <!-- . -->
    <g transform="translate(289.496104 305.983088) scale(0.15 -0.15)">
     <use xlink:href="#DejaVuSans-2e"/>
    </g>
   </g>
   <g id="text_249">
    <!-- . -->
    <g transform="translate(291.815065 305.983088) scale(0.15 -0.15)">
     <use xlink:href="#DejaVuSans-2e"/>
    </g>
   </g>
   <g id="text_250">
    <!-- . -->
    <g transform="translate(294.134026 305.983088) scale(0.15 -0.15)">
     <use xlink:href="#DejaVuSans-2e"/>
    </g>
   </g>
   <g id="text_251">
    <!-- . -->
    <g transform="translate(296.452987 305.983088) scale(0.15 -0.15)">
     <use xlink:href="#DejaVuSans-2e"/>
    </g>
   </g>
   <g id="text_252">
    <!-- . -->
    <g transform="translate(298.771948 305.983088) scale(0.15 -0.15)">
     <use xlink:href="#DejaVuSans-2e"/>
    </g>
   </g>
   <g id="text_253">
    <!-- . -->
    <g transform="translate(301.090909 305.983088) scale(0.15 -0.15)">
     <use xlink:href="#DejaVuSans-2e"/>
    </g>
   </g>
   <g id="text_254">
    <!-- . -->
    <g transform="translate(303.40987 305.983088) scale(0.15 -0.15)">
     <use xlink:href="#DejaVuSans-2e"/>
    </g>
   </g>
   <g id="text_255">
    <!-- . -->
    <g transform="translate(305.728831 305.983088) scale(0.15 -0.15)">
     <use xlink:href="#DejaVuSans-2e"/>
    </g>
   </g>
   <g id="text_256">
    <!-- . -->
    <g transform="translate(308.047792 305.983088) scale(0.15 -0.15)">
     <use xlink:href="#DejaVuSans-2e"/>
    </g>
   </g>
   <g id="text_257">
    <!-- . -->
    <g transform="translate(310.366753 305.983088) scale(0.15 -0.15)">
     <use xlink:href="#DejaVuSans-2e"/>
    </g>
   </g>
   <g id="text_258">
    <!-- . -->
    <g transform="translate(312.685714 305.983088) scale(0.15 -0.15)">
     <use xlink:href="#DejaVuSans-2e"/>
    </g>
   </g>
   <g id="text_259">
    <!-- . -->
    <g transform="translate(315.004675 305.983088) scale(0.15 -0.15)">
     <use xlink:href="#DejaVuSans-2e"/>
    </g>
   </g>
   <g id="text_260">
    <!-- . -->
    <g transform="translate(317.323636 305.983088) scale(0.15 -0.15)">
     <use xlink:href="#DejaVuSans-2e"/>
    </g>
   </g>
   <g id="text_261">
    <!-- . -->
    <g transform="translate(319.642597 305.983088) scale(0.15 -0.15)">
     <use xlink:href="#DejaVuSans-2e"/>
    </g>
   </g>
   <g id="text_262">
    <!-- . -->
    <g transform="translate(321.961558 305.983088) scale(0.15 -0.15)">
     <use xlink:href="#DejaVuSans-2e"/>
    </g>
   </g>
   <g id="text_263">
    <!-- . -->
    <g transform="translate(324.280519 305.983088) scale(0.15 -0.15)">
     <use xlink:href="#DejaVuSans-2e"/>
    </g>
   </g>
   <g id="text_264">
    <!-- . -->
    <g transform="translate(326.599481 305.983088) scale(0.15 -0.15)">
     <use xlink:href="#DejaVuSans-2e"/>
    </g>
   </g>
   <g id="text_265">
    <!-- . -->
    <g transform="translate(328.918442 305.983088) scale(0.15 -0.15)">
     <use xlink:href="#DejaVuSans-2e"/>
    </g>
   </g>
   <g id="text_266">
    <!-- . -->
    <g transform="translate(331.237403 305.983088) scale(0.15 -0.15)">
     <use xlink:href="#DejaVuSans-2e"/>
    </g>
   </g>
   <g id="text_267">
    <!-- . -->
    <g transform="translate(333.556364 305.983088) scale(0.15 -0.15)">
     <use xlink:href="#DejaVuSans-2e"/>
    </g>
   </g>
   <g id="text_268">
    <!-- . -->
    <g transform="translate(335.875325 305.983088) scale(0.15 -0.15)">
     <use xlink:href="#DejaVuSans-2e"/>
    </g>
   </g>
   <g id="text_269">
    <!-- . -->
    <g transform="translate(338.194286 305.983088) scale(0.15 -0.15)">
     <use xlink:href="#DejaVuSans-2e"/>
    </g>
   </g>
   <g id="text_270">
    <!-- . -->
    <g transform="translate(340.513247 305.983088) scale(0.15 -0.15)">
     <use xlink:href="#DejaVuSans-2e"/>
    </g>
   </g>
   <g id="text_271">
    <!-- . -->
    <g transform="translate(342.832208 305.983088) scale(0.15 -0.15)">
     <use xlink:href="#DejaVuSans-2e"/>
    </g>
   </g>
   <g id="text_272">
    <!-- . -->
    <g transform="translate(345.151169 305.983088) scale(0.15 -0.15)">
     <use xlink:href="#DejaVuSans-2e"/>
    </g>
   </g>
   <g id="text_273">
    <!-- . -->
    <g transform="translate(347.47013 305.983088) scale(0.15 -0.15)">
     <use xlink:href="#DejaVuSans-2e"/>
    </g>
   </g>
   <g id="text_274">
    <!-- . -->
    <g transform="translate(349.789091 305.983088) scale(0.15 -0.15)">
     <use xlink:href="#DejaVuSans-2e"/>
    </g>
   </g>
   <g id="text_275">
    <!-- . -->
    <g transform="translate(352.108052 305.983088) scale(0.15 -0.15)">
     <use xlink:href="#DejaVuSans-2e"/>
    </g>
   </g>
   <g id="text_276">
    <!-- . -->
    <g transform="translate(354.427013 305.983088) scale(0.15 -0.15)">
     <use xlink:href="#DejaVuSans-2e"/>
    </g>
   </g>
   <g id="text_277">
    <!-- . -->
    <g transform="translate(356.745974 305.983088) scale(0.15 -0.15)">
     <use xlink:href="#DejaVuSans-2e"/>
    </g>
   </g>
   <g id="text_278">
    <!-- . -->
    <g transform="translate(359.064935 305.983088) scale(0.15 -0.15)">
     <use xlink:href="#DejaVuSans-2e"/>
    </g>
   </g>
   <g id="text_279">
    <!-- . -->
    <g transform="translate(361.383896 305.983088) scale(0.15 -0.15)">
     <use xlink:href="#DejaVuSans-2e"/>
    </g>
   </g>
   <g id="text_280">
    <!-- . -->
    <g transform="translate(363.702857 305.983088) scale(0.15 -0.15)">
     <use xlink:href="#DejaVuSans-2e"/>
    </g>
   </g>
   <g id="text_281">
    <!-- . -->
    <g transform="translate(366.021818 305.983088) scale(0.15 -0.15)">
     <use xlink:href="#DejaVuSans-2e"/>
    </g>
   </g>
   <g id="text_282">
    <!-- . -->
    <g transform="translate(368.340779 305.983088) scale(0.15 -0.15)">
     <use xlink:href="#DejaVuSans-2e"/>
    </g>
   </g>
   <g id="text_283">
    <!-- . -->
    <g transform="translate(370.65974 305.983088) scale(0.15 -0.15)">
     <use xlink:href="#DejaVuSans-2e"/>
    </g>
   </g>
   <g id="text_284">
    <!-- . -->
    <g transform="translate(372.978701 305.983088) scale(0.15 -0.15)">
     <use xlink:href="#DejaVuSans-2e"/>
    </g>
   </g>
   <g id="text_285">
    <!-- . -->
    <g transform="translate(375.297662 305.983088) scale(0.15 -0.15)">
     <use xlink:href="#DejaVuSans-2e"/>
    </g>
   </g>
   <g id="text_286">
    <!-- . -->
    <g transform="translate(377.616623 305.983088) scale(0.15 -0.15)">
     <use xlink:href="#DejaVuSans-2e"/>
    </g>
   </g>
   <g id="text_287">
    <!-- . -->
    <g transform="translate(379.935584 305.983088) scale(0.15 -0.15)">
     <use xlink:href="#DejaVuSans-2e"/>
    </g>
   </g>
   <g id="text_288">
    <!-- . -->
    <g transform="translate(382.254545 305.983088) scale(0.15 -0.15)">
     <use xlink:href="#DejaVuSans-2e"/>
    </g>
   </g>
   <g id="text_289">
    <!-- . -->
    <g transform="translate(384.573506 305.983088) scale(0.15 -0.15)">
     <use xlink:href="#DejaVuSans-2e"/>
    </g>
   </g>
   <g id="text_290">
    <!-- . -->
    <g transform="translate(386.892468 305.983088) scale(0.15 -0.15)">
     <use xlink:href="#DejaVuSans-2e"/>
    </g>
   </g>
   <g id="text_291">
    <!-- . -->
    <g transform="translate(389.211429 305.983088) scale(0.15 -0.15)">
     <use xlink:href="#DejaVuSans-2e"/>
    </g>
   </g>
   <g id="text_292">
    <!-- . -->
    <g transform="translate(391.53039 305.983088) scale(0.15 -0.15)">
     <use xlink:href="#DejaVuSans-2e"/>
    </g>
   </g>
   <g id="text_293">
    <!-- . -->
    <g transform="translate(393.849351 305.983088) scale(0.15 -0.15)">
     <use xlink:href="#DejaVuSans-2e"/>
    </g>
   </g>
   <g id="text_294">
    <!-- . -->
    <g transform="translate(396.168312 305.983088) scale(0.15 -0.15)">
     <use xlink:href="#DejaVuSans-2e"/>
    </g>
   </g>
   <g id="text_295">
    <!-- . -->
    <g transform="translate(398.487273 305.983088) scale(0.15 -0.15)">
     <use xlink:href="#DejaVuSans-2e"/>
    </g>
   </g>
   <g id="legend_1">
    <g id="patch_5">
     <path d="M 285.104375 78.82825 
L 407.72 78.82825 
Q 409.72 78.82825 409.72 76.82825 
L 409.72 48.472 
Q 409.72 46.472 407.72 46.472 
L 285.104375 46.472 
Q 283.104375 46.472 283.104375 48.472 
L 283.104375 76.82825 
Q 283.104375 78.82825 285.104375 78.82825 
z
" style="fill: #ffffff; opacity: 0.8; stroke: #cccccc; stroke-linejoin: miter"/>
    </g>
    <g id="line2d_21">
     <path d="M 287.104375 54.570437 
L 297.104375 54.570437 
L 307.104375 54.570437 
" style="fill: none; stroke: #ff2c55; stroke-linecap: square"/>
    </g>
    <g id="text_296">
     <!-- Affordances (EEG) -->
     <g transform="translate(315.104375 58.070437) scale(0.1 -0.1)">
      <defs>
       <path id="DejaVuSans-41" d="M 2188 4044 
L 1331 1722 
L 3047 1722 
L 2188 4044 
z
M 1831 4666 
L 2547 4666 
L 4325 0 
L 3669 0 
L 3244 1197 
L 1141 1197 
L 716 0 
L 50 0 
L 1831 4666 
z
" transform="scale(0.015625)"/>
       <path id="DejaVuSans-66" d="M 2375 4863 
L 2375 4384 
L 1825 4384 
Q 1516 4384 1395 4259 
Q 1275 4134 1275 3809 
L 1275 3500 
L 2222 3500 
L 2222 3053 
L 1275 3053 
L 1275 0 
L 697 0 
L 697 3053 
L 147 3053 
L 147 3500 
L 697 3500 
L 697 3744 
Q 697 4328 969 4595 
Q 1241 4863 1831 4863 
L 2375 4863 
z
" transform="scale(0.015625)"/>
       <path id="DejaVuSans-64" d="M 2906 2969 
L 2906 4863 
L 3481 4863 
L 3481 0 
L 2906 0 
L 2906 525 
Q 2725 213 2448 61 
Q 2172 -91 1784 -91 
Q 1150 -91 751 415 
Q 353 922 353 1747 
Q 353 2572 751 3078 
Q 1150 3584 1784 3584 
Q 2172 3584 2448 3432 
Q 2725 3281 2906 2969 
z
M 947 1747 
Q 947 1113 1208 752 
Q 1469 391 1925 391 
Q 2381 391 2643 752 
Q 2906 1113 2906 1747 
Q 2906 2381 2643 2742 
Q 2381 3103 1925 3103 
Q 1469 3103 1208 2742 
Q 947 2381 947 1747 
z
" transform="scale(0.015625)"/>
       <path id="DejaVuSans-63" d="M 3122 3366 
L 3122 2828 
Q 2878 2963 2633 3030 
Q 2388 3097 2138 3097 
Q 1578 3097 1268 2742 
Q 959 2388 959 1747 
Q 959 1106 1268 751 
Q 1578 397 2138 397 
Q 2388 397 2633 464 
Q 2878 531 3122 666 
L 3122 134 
Q 2881 22 2623 -34 
Q 2366 -91 2075 -91 
Q 1284 -91 818 406 
Q 353 903 353 1747 
Q 353 2603 823 3093 
Q 1294 3584 2113 3584 
Q 2378 3584 2631 3529 
Q 2884 3475 3122 3366 
z
" transform="scale(0.015625)"/>
       <path id="DejaVuSans-45" d="M 628 4666 
L 3578 4666 
L 3578 4134 
L 1259 4134 
L 1259 2753 
L 3481 2753 
L 3481 2222 
L 1259 2222 
L 1259 531 
L 3634 531 
L 3634 0 
L 628 0 
L 628 4666 
z
" transform="scale(0.015625)"/>
       <path id="DejaVuSans-47" d="M 3809 666 
L 3809 1919 
L 2778 1919 
L 2778 2438 
L 4434 2438 
L 4434 434 
Q 4069 175 3628 42 
Q 3188 -91 2688 -91 
Q 1594 -91 976 548 
Q 359 1188 359 2328 
Q 359 3472 976 4111 
Q 1594 4750 2688 4750 
Q 3144 4750 3555 4637 
Q 3966 4525 4313 4306 
L 4313 3634 
Q 3963 3931 3569 4081 
Q 3175 4231 2741 4231 
Q 1884 4231 1454 3753 
Q 1025 3275 1025 2328 
Q 1025 1384 1454 906 
Q 1884 428 2741 428 
Q 3075 428 3337 486 
Q 3600 544 3809 666 
z
" transform="scale(0.015625)"/>
      </defs>
      <use xlink:href="#DejaVuSans-41"/>
      <use xlink:href="#DejaVuSans-66" x="64.783203"/>
      <use xlink:href="#DejaVuSans-66" x="99.988281"/>
      <use xlink:href="#DejaVuSans-6f" x="135.193359"/>
      <use xlink:href="#DejaVuSans-72" x="196.375"/>
      <use xlink:href="#DejaVuSans-64" x="235.738281"/>
      <use xlink:href="#DejaVuSans-61" x="299.214844"/>
      <use xlink:href="#DejaVuSans-6e" x="360.494141"/>
      <use xlink:href="#DejaVuSans-63" x="423.873047"/>
      <use xlink:href="#DejaVuSans-65" x="478.853516"/>
      <use xlink:href="#DejaVuSans-73" x="540.376953"/>
      <use xlink:href="#DejaVuSans-20" x="592.476562"/>
      <use xlink:href="#DejaVuSans-28" x="624.263672"/>
      <use xlink:href="#DejaVuSans-45" x="663.277344"/>
      <use xlink:href="#DejaVuSans-45" x="726.460938"/>
      <use xlink:href="#DejaVuSans-47" x="789.644531"/>
      <use xlink:href="#DejaVuSans-29" x="867.134766"/>
     </g>
    </g>
    <g id="line2d_22">
     <path d="M 287.104375 69.248562 
L 297.104375 69.248562 
L 307.104375 69.248562 
" style="fill: none; stroke: #bfd200; stroke-linecap: square"/>
    </g>
    <g id="text_297">
     <!-- PPA -->
     <g transform="translate(315.104375 72.748562) scale(0.1 -0.1)">
      <defs>
       <path id="DejaVuSans-50" d="M 1259 4147 
L 1259 2394 
L 2053 2394 
Q 2494 2394 2734 2622 
Q 2975 2850 2975 3272 
Q 2975 3691 2734 3919 
Q 2494 4147 2053 4147 
L 1259 4147 
z
M 628 4666 
L 2053 4666 
Q 2838 4666 3239 4311 
Q 3641 3956 3641 3272 
Q 3641 2581 3239 2228 
Q 2838 1875 2053 1875 
L 1259 1875 
L 1259 0 
L 628 0 
L 628 4666 
z
" transform="scale(0.015625)"/>
      </defs>
      <use xlink:href="#DejaVuSans-50"/>
      <use xlink:href="#DejaVuSans-50" x="60.302734"/>
      <use xlink:href="#DejaVuSans-41" x="114.230469"/>
     </g>
    </g>
   </g>
  </g>
 </g>
 <defs>
  <clipPath id="p41eec1d814">
   <rect x="57.6" y="41.472" width="357.12" height="266.112"/>
  </clipPath>
 </defs>
</svg>
