<?xml version="1.0" encoding="utf-8" standalone="no"?>
<!DOCTYPE svg PUBLIC "-//W3C//DTD SVG 1.1//EN"
  "http://www.w3.org/Graphics/SVG/1.1/DTD/svg11.dtd">
<svg xmlns:xlink="http://www.w3.org/1999/xlink" width="460.8pt" height="345.6pt" viewBox="0 0 460.8 345.6" xmlns="http://www.w3.org/2000/svg" version="1.1">
 <metadata>
  <rdf:RDF xmlns:dc="http://purl.org/dc/elements/1.1/" xmlns:cc="http://creativecommons.org/ns#" xmlns:rdf="http://www.w3.org/1999/02/22-rdf-syntax-ns#">
   <cc:Work>
    <dc:type rdf:resource="http://purl.org/dc/dcmitype/StillImage"/>
    <dc:date>2025-11-25T17:07:36.965867</dc:date>
    <dc:format>image/svg+xml</dc:format>
    <dc:creator>
     <cc:Agent>
      <dc:title>Matplotlib v3.6.2, https://matplotlib.org/</dc:title>
     </cc:Agent>
    </dc:creator>
   </cc:Work>
  </rdf:RDF>
 </metadata>
 <defs>
  <style type="text/css">*{stroke-linejoin: round; stroke-linecap: butt}</style>
 </defs>
 <g id="figure_1">
  <g id="patch_1">
   <path d="M 0 345.6 
L 460.8 345.6 
L 460.8 0 
L 0 0 
L 0 345.6 
z
" style="fill: none"/>
  </g>
  <g id="axes_1">
   <g id="patch_2">
    <path d="M 57.6 307.584 
L 414.72 307.584 
L 414.72 41.472 
L 57.6 41.472 
L 57.6 307.584 
z
" style="fill: none"/>
   </g>
   <g id="PolyCollection_1">
    <defs>
     <path id="m47104d246e" d="M 73.832727 -74.19831 
L 73.832727 -63.851512 
L 76.151688 -66.802223 
L 78.470649 -69.768903 
L 80.78961 -68.595423 
L 83.108571 -71.108001 
L 85.427532 -68.106227 
L 87.746494 -70.187555 
L 90.065455 -69.885783 
L 92.384416 -69.838425 
L 94.703377 -67.146723 
L 97.022338 -66.836252 
L 99.341299 -70.943344 
L 101.66026 -79.847263 
L 103.979221 -80.61435 
L 106.298182 -76.238851 
L 108.617143 -70.140961 
L 110.936104 -67.657835 
L 113.255065 -66.652507 
L 115.574026 -62.57812 
L 117.892987 -54.414548 
L 120.211948 -50.112 
L 122.530909 -59.944073 
L 124.84987 -82.497455 
L 127.168831 -100.781175 
L 129.487792 -110.728098 
L 131.806753 -111.579826 
L 134.125714 -107.920974 
L 136.444675 -103.849064 
L 138.763636 -105.502236 
L 141.082597 -108.696475 
L 143.401558 -108.96514 
L 145.720519 -109.879618 
L 148.039481 -115.683762 
L 150.358442 -129.260969 
L 152.677403 -140.240292 
L 154.996364 -147.126792 
L 157.315325 -151.564336 
L 159.634286 -154.227611 
L 161.953247 -157.285481 
L 164.272208 -160.035995 
L 166.591169 -160.640481 
L 168.91013 -158.747344 
L 171.229091 -154.654021 
L 173.548052 -148.774188 
L 175.867013 -141.128255 
L 178.185974 -132.095664 
L 180.504935 -123.991986 
L 182.823896 -119.103389 
L 185.142857 -116.552331 
L 187.461818 -115.214961 
L 189.780779 -113.375845 
L 192.09974 -110.177371 
L 194.418701 -105.81818 
L 196.737662 -102.383205 
L 199.056623 -97.789798 
L 201.375584 -93.209888 
L 203.694545 -91.760419 
L 206.013506 -91.629382 
L 208.332468 -90.031763 
L 210.651429 -88.10196 
L 212.97039 -87.157365 
L 215.289351 -87.013884 
L 217.608312 -85.801387 
L 219.927273 -83.121793 
L 222.246234 -81.76794 
L 224.565195 -82.831833 
L 226.884156 -84.557809 
L 229.203117 -85.863408 
L 231.522078 -87.46865 
L 233.841039 -89.364032 
L 236.16 -90.37726 
L 238.478961 -89.313717 
L 240.797922 -86.893124 
L 243.116883 -83.019901 
L 245.435844 -78.627804 
L 247.754805 -74.635996 
L 250.073766 -71.951862 
L 252.392727 -71.113306 
L 254.711688 -71.08297 
L 257.030649 -71.391821 
L 259.34961 -71.471308 
L 261.668571 -70.658716 
L 263.987532 -70.194397 
L 266.306494 -69.342168 
L 268.625455 -68.871609 
L 270.944416 -69.769424 
L 273.263377 -72.30661 
L 275.582338 -75.586135 
L 277.901299 -79.181576 
L 280.22026 -80.551307 
L 282.539221 -79.532343 
L 284.858182 -77.827974 
L 287.177143 -77.388139 
L 289.496104 -78.180536 
L 291.815065 -78.750697 
L 294.134026 -77.382694 
L 296.452987 -75.376927 
L 298.771948 -74.625503 
L 301.090909 -74.197216 
L 303.40987 -72.686868 
L 305.728831 -71.20422 
L 308.047792 -70.4032 
L 310.366753 -69.963621 
L 312.685714 -68.976484 
L 315.004675 -69.445251 
L 317.323636 -71.239419 
L 319.642597 -73.336595 
L 321.961558 -74.667532 
L 324.280519 -74.895928 
L 326.599481 -73.436234 
L 328.918442 -70.842352 
L 331.237403 -69.593015 
L 333.556364 -70.90678 
L 335.875325 -73.946452 
L 338.194286 -75.88953 
L 340.513247 -77.679446 
L 342.832208 -79.655515 
L 345.151169 -80.22068 
L 347.47013 -78.363569 
L 349.789091 -75.757816 
L 352.108052 -73.822523 
L 354.427013 -71.362704 
L 356.745974 -68.543726 
L 359.064935 -67.072661 
L 361.383896 -67.074729 
L 363.702857 -68.260482 
L 366.021818 -71.153587 
L 368.340779 -75.693219 
L 370.65974 -80.494018 
L 372.978701 -83.437392 
L 375.297662 -83.658543 
L 377.616623 -81.927656 
L 379.935584 -78.606747 
L 382.254545 -74.671112 
L 384.573506 -72.078336 
L 386.892468 -72.332691 
L 389.211429 -74.009468 
L 391.53039 -74.709306 
L 393.849351 -74.498245 
L 396.168312 -74.362841 
L 398.487273 -73.273136 
L 398.487273 -92.344766 
L 398.487273 -92.344766 
L 396.168312 -93.035297 
L 393.849351 -93.188872 
L 391.53039 -93.388882 
L 389.211429 -93.182503 
L 386.892468 -92.029163 
L 384.573506 -92.151008 
L 382.254545 -94.948101 
L 379.935584 -98.964916 
L 377.616623 -102.196049 
L 375.297662 -103.706385 
L 372.978701 -103.108329 
L 370.65974 -99.815424 
L 368.340779 -94.598181 
L 366.021818 -89.512052 
L 363.702857 -85.836198 
L 361.383896 -83.650242 
L 359.064935 -83.140004 
L 356.745974 -84.678692 
L 354.427013 -88.215243 
L 352.108052 -91.556136 
L 349.789091 -94.113773 
L 347.47013 -96.957031 
L 345.151169 -98.904701 
L 342.832208 -98.522731 
L 340.513247 -97.238619 
L 338.194286 -96.949756 
L 335.875325 -97.162758 
L 333.556364 -95.852925 
L 331.237403 -95.052929 
L 328.918442 -95.594587 
L 326.599481 -96.531162 
L 324.280519 -95.705391 
L 321.961558 -93.607521 
L 319.642597 -91.533537 
L 317.323636 -90.116935 
L 315.004675 -90.058744 
L 312.685714 -91.369155 
L 310.366753 -94.111871 
L 308.047792 -96.380704 
L 305.728831 -98.585593 
L 303.40987 -100.902325 
L 301.090909 -102.888752 
L 298.771948 -103.377411 
L 296.452987 -103.457368 
L 294.134026 -104.201575 
L 291.815065 -104.462145 
L 289.496104 -103.301473 
L 287.177143 -102.783546 
L 284.858182 -104.186417 
L 282.539221 -107.089125 
L 280.22026 -108.838838 
L 277.901299 -107.45214 
L 275.582338 -103.739284 
L 273.263377 -100.658346 
L 270.944416 -98.034262 
L 268.625455 -96.449475 
L 266.306494 -95.939223 
L 263.987532 -96.315477 
L 261.668571 -96.600729 
L 259.34961 -96.915681 
L 257.030649 -96.652453 
L 254.711688 -96.536905 
L 252.392727 -97.128908 
L 250.073766 -98.915518 
L 247.754805 -102.560705 
L 245.435844 -107.128024 
L 243.116883 -111.670632 
L 240.797922 -115.810731 
L 238.478961 -118.071342 
L 236.16 -118.617674 
L 233.841039 -116.991416 
L 231.522078 -114.6499 
L 229.203117 -112.347498 
L 226.884156 -110.717629 
L 224.565195 -109.078867 
L 222.246234 -107.614017 
L 219.927273 -108.112101 
L 217.608312 -109.922301 
L 215.289351 -110.668897 
L 212.97039 -110.951368 
L 210.651429 -111.843556 
L 208.332468 -113.305508 
L 206.013506 -115.003133 
L 203.694545 -116.323459 
L 201.375584 -119.125488 
L 199.056623 -125.262872 
L 196.737662 -131.445223 
L 194.418701 -135.761769 
L 192.09974 -140.166821 
L 189.780779 -143.385095 
L 187.461818 -145.36934 
L 185.142857 -147.757988 
L 182.823896 -150.16815 
L 180.504935 -153.382708 
L 178.185974 -159.107016 
L 175.867013 -167.260913 
L 173.548052 -175.305037 
L 171.229091 -181.187876 
L 168.91013 -183.59782 
L 166.591169 -182.889105 
L 164.272208 -181.181 
L 161.953247 -179.509073 
L 159.634286 -178.75853 
L 157.315325 -178.260296 
L 154.996364 -174.802399 
L 152.677403 -166.550672 
L 150.358442 -154.125953 
L 148.039481 -140.248897 
L 145.720519 -133.963926 
L 143.401558 -132.362548 
L 141.082597 -131.537171 
L 138.763636 -128.20831 
L 136.444675 -126.211742 
L 134.125714 -128.067186 
L 131.806753 -128.513222 
L 129.487792 -125.803883 
L 127.168831 -117.112971 
L 124.84987 -101.67874 
L 122.530909 -75.05832 
L 120.211948 -62.35075 
L 117.892987 -63.640467 
L 115.574026 -72.38796 
L 113.255065 -75.946679 
L 110.936104 -75.916452 
L 108.617143 -78.332707 
L 106.298182 -84.220165 
L 103.979221 -90.38663 
L 101.66026 -90.075536 
L 99.341299 -78.880923 
L 97.022338 -74.809809 
L 94.703377 -77.595378 
L 92.384416 -81.964213 
L 90.065455 -84.543019 
L 87.746494 -80.290222 
L 85.427532 -75.381809 
L 83.108571 -80.114558 
L 80.78961 -79.189379 
L 78.470649 -78.53741 
L 76.151688 -76.955705 
L 73.832727 -74.19831 
z
" style="stroke: #ff2c55; stroke-opacity: 0.1"/>
    </defs>
    <g clip-path="url(#p65a52d4d04)">
     <use xlink:href="#m47104d246e" x="0" y="345.6" style="fill: #ff2c55; fill-opacity: 0.1; stroke: #ff2c55; stroke-opacity: 0.1"/>
    </g>
   </g>
   <g id="PolyCollection_2">
    <defs>
     <path id="m6ed060529c" d="M 73.832727 -80.461323 
L 73.832727 -71.451765 
L 76.151688 -72.248443 
L 78.470649 -73.887401 
L 80.78961 -77.476887 
L 83.108571 -77.922513 
L 85.427532 -74.109771 
L 87.746494 -66.735869 
L 90.065455 -62.416696 
L 92.384416 -75.458852 
L 94.703377 -78.378709 
L 97.022338 -73.515279 
L 99.341299 -66.671041 
L 101.66026 -68.087828 
L 103.979221 -74.969082 
L 106.298182 -76.555933 
L 108.617143 -79.915772 
L 110.936104 -84.044394 
L 113.255065 -87.326073 
L 115.574026 -90.302486 
L 117.892987 -94.496917 
L 120.211948 -111.876111 
L 122.530909 -149.201354 
L 124.84987 -202.032849 
L 127.168831 -229.323966 
L 129.487792 -233.985306 
L 131.806753 -228.194124 
L 134.125714 -226.588395 
L 136.444675 -233.506392 
L 138.763636 -238.361919 
L 141.082597 -219.94361 
L 143.401558 -188.888411 
L 145.720519 -175.495943 
L 148.039481 -186.207936 
L 150.358442 -195.368986 
L 152.677403 -189.772975 
L 154.996364 -174.409458 
L 157.315325 -161.655802 
L 159.634286 -156.388508 
L 161.953247 -158.584485 
L 164.272208 -165.480756 
L 166.591169 -174.789692 
L 168.91013 -185.050481 
L 171.229091 -195.444573 
L 173.548052 -203.341111 
L 175.867013 -206.096651 
L 178.185974 -200.302979 
L 180.504935 -189.937051 
L 182.823896 -177.650449 
L 185.142857 -168.850304 
L 187.461818 -166.88218 
L 189.780779 -170.519772 
L 192.09974 -175.499604 
L 194.418701 -178.451215 
L 196.737662 -178.460664 
L 199.056623 -177.758335 
L 201.375584 -177.329442 
L 203.694545 -178.455851 
L 206.013506 -179.287227 
L 208.332468 -178.893736 
L 210.651429 -177.597329 
L 212.97039 -174.735035 
L 215.289351 -170.00974 
L 217.608312 -165.679607 
L 219.927273 -164.130644 
L 222.246234 -167.176602 
L 224.565195 -176.177109 
L 226.884156 -188.683323 
L 229.203117 -200.355234 
L 231.522078 -206.398029 
L 233.841039 -205.355555 
L 236.16 -199.079224 
L 238.478961 -190.919072 
L 240.797922 -180.953696 
L 243.116883 -172.164337 
L 245.435844 -165.947031 
L 247.754805 -162.029326 
L 250.073766 -161.048164 
L 252.392727 -162.896707 
L 254.711688 -166.272632 
L 257.030649 -168.98795 
L 259.34961 -170.962885 
L 261.668571 -170.093442 
L 263.987532 -167.94748 
L 266.306494 -163.872824 
L 268.625455 -161.100624 
L 270.944416 -160.699188 
L 273.263377 -162.768201 
L 275.582338 -164.940295 
L 277.901299 -164.852698 
L 280.22026 -161.515531 
L 282.539221 -157.228771 
L 284.858182 -154.731548 
L 287.177143 -154.28999 
L 289.496104 -156.378589 
L 291.815065 -159.505008 
L 294.134026 -161.232745 
L 296.452987 -159.419465 
L 298.771948 -155.758994 
L 301.090909 -150.128571 
L 303.40987 -144.567422 
L 305.728831 -142.288382 
L 308.047792 -143.825322 
L 310.366753 -144.880759 
L 312.685714 -144.086118 
L 315.004675 -142.115549 
L 317.323636 -141.602251 
L 319.642597 -144.238112 
L 321.961558 -150.132021 
L 324.280519 -156.97023 
L 326.599481 -162.270079 
L 328.918442 -163.441653 
L 331.237403 -161.867187 
L 333.556364 -159.008463 
L 335.875325 -156.098337 
L 338.194286 -154.15087 
L 340.513247 -154.198076 
L 342.832208 -156.134516 
L 345.151169 -157.680495 
L 347.47013 -156.213923 
L 349.789091 -151.20878 
L 352.108052 -146.141152 
L 354.427013 -143.809606 
L 356.745974 -143.052494 
L 359.064935 -143.938379 
L 361.383896 -147.90983 
L 363.702857 -154.571431 
L 366.021818 -159.609154 
L 368.340779 -161.059197 
L 370.65974 -158.694074 
L 372.978701 -155.554386 
L 375.297662 -152.921515 
L 377.616623 -151.46664 
L 379.935584 -151.943393 
L 382.254545 -153.036191 
L 384.573506 -152.232073 
L 386.892468 -149.831273 
L 389.211429 -145.930238 
L 391.53039 -143.896063 
L 393.849351 -144.611437 
L 396.168312 -146.227373 
L 398.487273 -146.519122 
L 398.487273 -184.069969 
L 398.487273 -184.069969 
L 396.168312 -183.218848 
L 393.849351 -181.242544 
L 391.53039 -180.798796 
L 389.211429 -183.913124 
L 386.892468 -189.008661 
L 384.573506 -192.05052 
L 382.254545 -192.449827 
L 379.935584 -191.061148 
L 377.616623 -190.444429 
L 375.297662 -191.095223 
L 372.978701 -192.560451 
L 370.65974 -195.0288 
L 368.340779 -197.663359 
L 366.021818 -197.493333 
L 363.702857 -194.132324 
L 361.383896 -189.11777 
L 359.064935 -186.343492 
L 356.745974 -186.152267 
L 354.427013 -187.305789 
L 352.108052 -189.999586 
L 349.789091 -195.173719 
L 347.47013 -199.766861 
L 345.151169 -200.050364 
L 342.832208 -197.077037 
L 340.513247 -194.138118 
L 338.194286 -193.374316 
L 335.875325 -195.436074 
L 333.556364 -199.110859 
L 331.237403 -203.738056 
L 328.918442 -207.723179 
L 326.599481 -208.439158 
L 324.280519 -204.087801 
L 321.961558 -197.368095 
L 319.642597 -191.041003 
L 317.323636 -187.763478 
L 315.004675 -186.917617 
L 312.685714 -187.235866 
L 310.366753 -187.247281 
L 308.047792 -186.436491 
L 305.728831 -185.106997 
L 303.40987 -187.241896 
L 301.090909 -193.068291 
L 298.771948 -200.1045 
L 296.452987 -205.626729 
L 294.134026 -208.417895 
L 291.815065 -206.427528 
L 289.496104 -202.824063 
L 287.177143 -200.248795 
L 284.858182 -200.941201 
L 282.539221 -204.542171 
L 280.22026 -209.876427 
L 277.901299 -213.465822 
L 275.582338 -213.177014 
L 273.263377 -210.541203 
L 270.944416 -208.835651 
L 268.625455 -209.808725 
L 266.306494 -212.50179 
L 263.987532 -215.601338 
L 261.668571 -217.407232 
L 259.34961 -218.416442 
L 257.030649 -216.928396 
L 254.711688 -214.65546 
L 252.392727 -211.722927 
L 250.073766 -209.053489 
L 247.754805 -208.188837 
L 245.435844 -210.090608 
L 243.116883 -215.969815 
L 240.797922 -226.030572 
L 238.478961 -237.631884 
L 236.16 -246.866982 
L 233.841039 -253.182103 
L 231.522078 -252.570616 
L 229.203117 -244.877473 
L 226.884156 -233.350183 
L 224.565195 -222.251845 
L 222.246234 -214.22918 
L 219.927273 -211.25507 
L 217.608312 -212.026651 
L 215.289351 -215.857592 
L 212.97039 -219.667873 
L 210.651429 -221.082637 
L 208.332468 -220.917429 
L 206.013506 -220.72646 
L 203.694545 -219.860052 
L 201.375584 -218.993655 
L 199.056623 -219.014273 
L 196.737662 -219.205322 
L 194.418701 -219.021872 
L 192.09974 -216.774459 
L 189.780779 -213.129297 
L 187.461818 -211.458376 
L 185.142857 -215.547649 
L 182.823896 -225.602931 
L 180.504935 -238.546078 
L 178.185974 -250.306959 
L 175.867013 -258.037587 
L 173.548052 -256.401892 
L 171.229091 -249.525959 
L 168.91013 -240.626922 
L 166.591169 -231.377153 
L 164.272208 -222.320196 
L 161.953247 -215.051579 
L 159.634286 -211.632851 
L 157.315325 -215.967784 
L 154.996364 -229.149363 
L 152.677403 -245.415937 
L 150.358442 -250.161694 
L 148.039481 -236.786307 
L 145.720519 -221.217218 
L 143.401558 -230.631888 
L 141.082597 -259.546928 
L 138.763636 -276.209515 
L 136.444675 -275.829373 
L 134.125714 -277.550079 
L 131.806753 -284.809399 
L 129.487792 -292.032 
L 127.168831 -283.480135 
L 124.84987 -245.819291 
L 122.530909 -176.030468 
L 120.211948 -131.877428 
L 117.892987 -110.009941 
L 115.574026 -102.772389 
L 113.255065 -99.822804 
L 110.936104 -95.803979 
L 108.617143 -91.26003 
L 106.298182 -87.262377 
L 103.979221 -83.36925 
L 101.66026 -78.882864 
L 99.341299 -76.959524 
L 97.022338 -84.520327 
L 94.703377 -88.524848 
L 92.384416 -83.204316 
L 90.065455 -72.91086 
L 87.746494 -75.900137 
L 85.427532 -82.867444 
L 83.108571 -88.432262 
L 80.78961 -88.027072 
L 78.470649 -84.073806 
L 76.151688 -82.031864 
L 73.832727 -80.461323 
z
" style="stroke: #348aa7; stroke-opacity: 0.1"/>
    </defs>
    <g clip-path="url(#p65a52d4d04)">
     <use xlink:href="#m6ed060529c" x="0" y="345.6" style="fill: #348aa7; fill-opacity: 0.1; stroke: #348aa7; stroke-opacity: 0.1"/>
    </g>
   </g>
   <g id="matplotlib.axis_1">
    <g id="xtick_1">
     <g id="line2d_1">
      <defs>
       <path id="m6674c36623" d="M 0 0 
L 0 3.5 
" style="stroke: #000000; stroke-width: 0.8"/>
      </defs>
      <g>
       <use xlink:href="#m6674c36623" x="103.346777" y="307.584" style="stroke: #000000; stroke-width: 0.8"/>
      </g>
     </g>
     <g id="text_1">
      <!-- 0.0 -->
      <g transform="translate(95.395214 322.182437) scale(0.1 -0.1)">
       <defs>
        <path id="DejaVuSans-30" d="M 2034 4250 
Q 1547 4250 1301 3770 
Q 1056 3291 1056 2328 
Q 1056 1369 1301 889 
Q 1547 409 2034 409 
Q 2525 409 2770 889 
Q 3016 1369 3016 2328 
Q 3016 3291 2770 3770 
Q 2525 4250 2034 4250 
z
M 2034 4750 
Q 2819 4750 3233 4129 
Q 3647 3509 3647 2328 
Q 3647 1150 3233 529 
Q 2819 -91 2034 -91 
Q 1250 -91 836 529 
Q 422 1150 422 2328 
Q 422 3509 836 4129 
Q 1250 4750 2034 4750 
z
" transform="scale(0.015625)"/>
        <path id="DejaVuSans-2e" d="M 684 794 
L 1344 794 
L 1344 0 
L 684 0 
L 684 794 
z
" transform="scale(0.015625)"/>
       </defs>
       <use xlink:href="#DejaVuSans-30"/>
       <use xlink:href="#DejaVuSans-2e" x="63.623047"/>
       <use xlink:href="#DejaVuSans-30" x="95.410156"/>
      </g>
     </g>
    </g>
    <g id="xtick_2">
     <g id="line2d_2">
      <g>
       <use xlink:href="#m6674c36623" x="162.374876" y="307.584" style="stroke: #000000; stroke-width: 0.8"/>
      </g>
     </g>
     <g id="text_2">
      <!-- 0.2 -->
      <g transform="translate(154.423314 322.182437) scale(0.1 -0.1)">
       <defs>
        <path id="DejaVuSans-32" d="M 1228 531 
L 3431 531 
L 3431 0 
L 469 0 
L 469 531 
Q 828 903 1448 1529 
Q 2069 2156 2228 2338 
Q 2531 2678 2651 2914 
Q 2772 3150 2772 3378 
Q 2772 3750 2511 3984 
Q 2250 4219 1831 4219 
Q 1534 4219 1204 4116 
Q 875 4013 500 3803 
L 500 4441 
Q 881 4594 1212 4672 
Q 1544 4750 1819 4750 
Q 2544 4750 2975 4387 
Q 3406 4025 3406 3419 
Q 3406 3131 3298 2873 
Q 3191 2616 2906 2266 
Q 2828 2175 2409 1742 
Q 1991 1309 1228 531 
z
" transform="scale(0.015625)"/>
       </defs>
       <use xlink:href="#DejaVuSans-30"/>
       <use xlink:href="#DejaVuSans-2e" x="63.623047"/>
       <use xlink:href="#DejaVuSans-32" x="95.410156"/>
      </g>
     </g>
    </g>
    <g id="xtick_3">
     <g id="line2d_3">
      <g>
       <use xlink:href="#m6674c36623" x="221.402975" y="307.584" style="stroke: #000000; stroke-width: 0.8"/>
      </g>
     </g>
     <g id="text_3">
      <!-- 0.4 -->
      <g transform="translate(213.451413 322.182437) scale(0.1 -0.1)">
       <defs>
        <path id="DejaVuSans-34" d="M 2419 4116 
L 825 1625 
L 2419 1625 
L 2419 4116 
z
M 2253 4666 
L 3047 4666 
L 3047 1625 
L 3713 1625 
L 3713 1100 
L 3047 1100 
L 3047 0 
L 2419 0 
L 2419 1100 
L 313 1100 
L 313 1709 
L 2253 4666 
z
" transform="scale(0.015625)"/>
       </defs>
       <use xlink:href="#DejaVuSans-30"/>
       <use xlink:href="#DejaVuSans-2e" x="63.623047"/>
       <use xlink:href="#DejaVuSans-34" x="95.410156"/>
      </g>
     </g>
    </g>
    <g id="xtick_4">
     <g id="line2d_4">
      <g>
       <use xlink:href="#m6674c36623" x="280.431074" y="307.584" style="stroke: #000000; stroke-width: 0.8"/>
      </g>
     </g>
     <g id="text_4">
      <!-- 0.6 -->
      <g transform="translate(272.479512 322.182437) scale(0.1 -0.1)">
       <defs>
        <path id="DejaVuSans-36" d="M 2113 2584 
Q 1688 2584 1439 2293 
Q 1191 2003 1191 1497 
Q 1191 994 1439 701 
Q 1688 409 2113 409 
Q 2538 409 2786 701 
Q 3034 994 3034 1497 
Q 3034 2003 2786 2293 
Q 2538 2584 2113 2584 
z
M 3366 4563 
L 3366 3988 
Q 3128 4100 2886 4159 
Q 2644 4219 2406 4219 
Q 1781 4219 1451 3797 
Q 1122 3375 1075 2522 
Q 1259 2794 1537 2939 
Q 1816 3084 2150 3084 
Q 2853 3084 3261 2657 
Q 3669 2231 3669 1497 
Q 3669 778 3244 343 
Q 2819 -91 2113 -91 
Q 1303 -91 875 529 
Q 447 1150 447 2328 
Q 447 3434 972 4092 
Q 1497 4750 2381 4750 
Q 2619 4750 2861 4703 
Q 3103 4656 3366 4563 
z
" transform="scale(0.015625)"/>
       </defs>
       <use xlink:href="#DejaVuSans-30"/>
       <use xlink:href="#DejaVuSans-2e" x="63.623047"/>
       <use xlink:href="#DejaVuSans-36" x="95.410156"/>
      </g>
     </g>
    </g>
    <g id="xtick_5">
     <g id="line2d_5">
      <g>
       <use xlink:href="#m6674c36623" x="339.459174" y="307.584" style="stroke: #000000; stroke-width: 0.8"/>
      </g>
     </g>
     <g id="text_5">
      <!-- 0.8 -->
      <g transform="translate(331.507611 322.182437) scale(0.1 -0.1)">
       <defs>
        <path id="DejaVuSans-38" d="M 2034 2216 
Q 1584 2216 1326 1975 
Q 1069 1734 1069 1313 
Q 1069 891 1326 650 
Q 1584 409 2034 409 
Q 2484 409 2743 651 
Q 3003 894 3003 1313 
Q 3003 1734 2745 1975 
Q 2488 2216 2034 2216 
z
M 1403 2484 
Q 997 2584 770 2862 
Q 544 3141 544 3541 
Q 544 4100 942 4425 
Q 1341 4750 2034 4750 
Q 2731 4750 3128 4425 
Q 3525 4100 3525 3541 
Q 3525 3141 3298 2862 
Q 3072 2584 2669 2484 
Q 3125 2378 3379 2068 
Q 3634 1759 3634 1313 
Q 3634 634 3220 271 
Q 2806 -91 2034 -91 
Q 1263 -91 848 271 
Q 434 634 434 1313 
Q 434 1759 690 2068 
Q 947 2378 1403 2484 
z
M 1172 3481 
Q 1172 3119 1398 2916 
Q 1625 2713 2034 2713 
Q 2441 2713 2670 2916 
Q 2900 3119 2900 3481 
Q 2900 3844 2670 4047 
Q 2441 4250 2034 4250 
Q 1625 4250 1398 4047 
Q 1172 3844 1172 3481 
z
" transform="scale(0.015625)"/>
       </defs>
       <use xlink:href="#DejaVuSans-30"/>
       <use xlink:href="#DejaVuSans-2e" x="63.623047"/>
       <use xlink:href="#DejaVuSans-38" x="95.410156"/>
      </g>
     </g>
    </g>
    <g id="xtick_6">
     <g id="line2d_6">
      <g>
       <use xlink:href="#m6674c36623" x="398.487273" y="307.584" style="stroke: #000000; stroke-width: 0.8"/>
      </g>
     </g>
     <g id="text_6">
      <!-- 1.0 -->
      <g transform="translate(390.53571 322.182437) scale(0.1 -0.1)">
       <defs>
        <path id="DejaVuSans-31" d="M 794 531 
L 1825 531 
L 1825 4091 
L 703 3866 
L 703 4441 
L 1819 4666 
L 2450 4666 
L 2450 531 
L 3481 531 
L 3481 0 
L 794 0 
L 794 531 
z
" transform="scale(0.015625)"/>
       </defs>
       <use xlink:href="#DejaVuSans-31"/>
       <use xlink:href="#DejaVuSans-2e" x="63.623047"/>
       <use xlink:href="#DejaVuSans-30" x="95.410156"/>
      </g>
     </g>
    </g>
    <g id="text_7">
     <!-- Time (s) -->
     <g transform="translate(205.666641 339.659781) scale(0.15 -0.15)">
      <defs>
       <path id="DejaVuSans-54" d="M -19 4666 
L 3928 4666 
L 3928 4134 
L 2272 4134 
L 2272 0 
L 1638 0 
L 1638 4134 
L -19 4134 
L -19 4666 
z
" transform="scale(0.015625)"/>
       <path id="DejaVuSans-69" d="M 603 3500 
L 1178 3500 
L 1178 0 
L 603 0 
L 603 3500 
z
M 603 4863 
L 1178 4863 
L 1178 4134 
L 603 4134 
L 603 4863 
z
" transform="scale(0.015625)"/>
       <path id="DejaVuSans-6d" d="M 3328 2828 
Q 3544 3216 3844 3400 
Q 4144 3584 4550 3584 
Q 5097 3584 5394 3201 
Q 5691 2819 5691 2113 
L 5691 0 
L 5113 0 
L 5113 2094 
Q 5113 2597 4934 2840 
Q 4756 3084 4391 3084 
Q 3944 3084 3684 2787 
Q 3425 2491 3425 1978 
L 3425 0 
L 2847 0 
L 2847 2094 
Q 2847 2600 2669 2842 
Q 2491 3084 2119 3084 
Q 1678 3084 1418 2786 
Q 1159 2488 1159 1978 
L 1159 0 
L 581 0 
L 581 3500 
L 1159 3500 
L 1159 2956 
Q 1356 3278 1631 3431 
Q 1906 3584 2284 3584 
Q 2666 3584 2933 3390 
Q 3200 3197 3328 2828 
z
" transform="scale(0.015625)"/>
       <path id="DejaVuSans-65" d="M 3597 1894 
L 3597 1613 
L 953 1613 
Q 991 1019 1311 708 
Q 1631 397 2203 397 
Q 2534 397 2845 478 
Q 3156 559 3463 722 
L 3463 178 
Q 3153 47 2828 -22 
Q 2503 -91 2169 -91 
Q 1331 -91 842 396 
Q 353 884 353 1716 
Q 353 2575 817 3079 
Q 1281 3584 2069 3584 
Q 2775 3584 3186 3129 
Q 3597 2675 3597 1894 
z
M 3022 2063 
Q 3016 2534 2758 2815 
Q 2500 3097 2075 3097 
Q 1594 3097 1305 2825 
Q 1016 2553 972 2059 
L 3022 2063 
z
" transform="scale(0.015625)"/>
       <path id="DejaVuSans-20" transform="scale(0.015625)"/>
       <path id="DejaVuSans-28" d="M 1984 4856 
Q 1566 4138 1362 3434 
Q 1159 2731 1159 2009 
Q 1159 1288 1364 580 
Q 1569 -128 1984 -844 
L 1484 -844 
Q 1016 -109 783 600 
Q 550 1309 550 2009 
Q 550 2706 781 3412 
Q 1013 4119 1484 4856 
L 1984 4856 
z
" transform="scale(0.015625)"/>
       <path id="DejaVuSans-73" d="M 2834 3397 
L 2834 2853 
Q 2591 2978 2328 3040 
Q 2066 3103 1784 3103 
Q 1356 3103 1142 2972 
Q 928 2841 928 2578 
Q 928 2378 1081 2264 
Q 1234 2150 1697 2047 
L 1894 2003 
Q 2506 1872 2764 1633 
Q 3022 1394 3022 966 
Q 3022 478 2636 193 
Q 2250 -91 1575 -91 
Q 1294 -91 989 -36 
Q 684 19 347 128 
L 347 722 
Q 666 556 975 473 
Q 1284 391 1588 391 
Q 1994 391 2212 530 
Q 2431 669 2431 922 
Q 2431 1156 2273 1281 
Q 2116 1406 1581 1522 
L 1381 1569 
Q 847 1681 609 1914 
Q 372 2147 372 2553 
Q 372 3047 722 3315 
Q 1072 3584 1716 3584 
Q 2034 3584 2315 3537 
Q 2597 3491 2834 3397 
z
" transform="scale(0.015625)"/>
       <path id="DejaVuSans-29" d="M 513 4856 
L 1013 4856 
Q 1481 4119 1714 3412 
Q 1947 2706 1947 2009 
Q 1947 1309 1714 600 
Q 1481 -109 1013 -844 
L 513 -844 
Q 928 -128 1133 580 
Q 1338 1288 1338 2009 
Q 1338 2731 1133 3434 
Q 928 4138 513 4856 
z
" transform="scale(0.015625)"/>
      </defs>
      <use xlink:href="#DejaVuSans-54"/>
      <use xlink:href="#DejaVuSans-69" x="57.958984"/>
      <use xlink:href="#DejaVuSans-6d" x="85.742188"/>
      <use xlink:href="#DejaVuSans-65" x="183.154297"/>
      <use xlink:href="#DejaVuSans-20" x="244.677734"/>
      <use xlink:href="#DejaVuSans-28" x="276.464844"/>
      <use xlink:href="#DejaVuSans-73" x="315.478516"/>
      <use xlink:href="#DejaVuSans-29" x="367.578125"/>
     </g>
    </g>
   </g>
   <g id="matplotlib.axis_2">
    <g id="ytick_1">
     <g id="line2d_7">
      <defs>
       <path id="m5551535377" d="M 0 0 
L -3.5 0 
" style="stroke: #000000; stroke-width: 0.8"/>
      </defs>
      <g>
       <use xlink:href="#m5551535377" x="57.6" y="305.022836" style="stroke: #000000; stroke-width: 0.8"/>
      </g>
     </g>
     <g id="text_8">
      <!-- −0.02 -->
      <g transform="translate(19.954687 308.822055) scale(0.1 -0.1)">
       <defs>
        <path id="DejaVuSans-2212" d="M 678 2272 
L 4684 2272 
L 4684 1741 
L 678 1741 
L 678 2272 
z
" transform="scale(0.015625)"/>
       </defs>
       <use xlink:href="#DejaVuSans-2212"/>
       <use xlink:href="#DejaVuSans-30" x="83.789062"/>
       <use xlink:href="#DejaVuSans-2e" x="147.412109"/>
       <use xlink:href="#DejaVuSans-30" x="179.199219"/>
       <use xlink:href="#DejaVuSans-32" x="242.822266"/>
      </g>
     </g>
    </g>
    <g id="ytick_2">
     <g id="line2d_8">
      <g>
       <use xlink:href="#m5551535377" x="57.6" y="268.790246" style="stroke: #000000; stroke-width: 0.8"/>
      </g>
     </g>
     <g id="text_9">
      <!-- 0.00 -->
      <g transform="translate(28.334375 272.589464) scale(0.1 -0.1)">
       <use xlink:href="#DejaVuSans-30"/>
       <use xlink:href="#DejaVuSans-2e" x="63.623047"/>
       <use xlink:href="#DejaVuSans-30" x="95.410156"/>
       <use xlink:href="#DejaVuSans-30" x="159.033203"/>
      </g>
     </g>
    </g>
    <g id="ytick_3">
     <g id="line2d_9">
      <g>
       <use xlink:href="#m5551535377" x="57.6" y="232.557655" style="stroke: #000000; stroke-width: 0.8"/>
      </g>
     </g>
     <g id="text_10">
      <!-- 0.02 -->
      <g transform="translate(28.334375 236.356874) scale(0.1 -0.1)">
       <use xlink:href="#DejaVuSans-30"/>
       <use xlink:href="#DejaVuSans-2e" x="63.623047"/>
       <use xlink:href="#DejaVuSans-30" x="95.410156"/>
       <use xlink:href="#DejaVuSans-32" x="159.033203"/>
      </g>
     </g>
    </g>
    <g id="ytick_4">
     <g id="line2d_10">
      <g>
       <use xlink:href="#m5551535377" x="57.6" y="196.325065" style="stroke: #000000; stroke-width: 0.8"/>
      </g>
     </g>
     <g id="text_11">
      <!-- 0.04 -->
      <g transform="translate(28.334375 200.124283) scale(0.1 -0.1)">
       <use xlink:href="#DejaVuSans-30"/>
       <use xlink:href="#DejaVuSans-2e" x="63.623047"/>
       <use xlink:href="#DejaVuSans-30" x="95.410156"/>
       <use xlink:href="#DejaVuSans-34" x="159.033203"/>
      </g>
     </g>
    </g>
    <g id="ytick_5">
     <g id="line2d_11">
      <g>
       <use xlink:href="#m5551535377" x="57.6" y="160.092474" style="stroke: #000000; stroke-width: 0.8"/>
      </g>
     </g>
     <g id="text_12">
      <!-- 0.06 -->
      <g transform="translate(28.334375 163.891693) scale(0.1 -0.1)">
       <use xlink:href="#DejaVuSans-30"/>
       <use xlink:href="#DejaVuSans-2e" x="63.623047"/>
       <use xlink:href="#DejaVuSans-30" x="95.410156"/>
       <use xlink:href="#DejaVuSans-36" x="159.033203"/>
      </g>
     </g>
    </g>
    <g id="ytick_6">
     <g id="line2d_12">
      <g>
       <use xlink:href="#m5551535377" x="57.6" y="123.859884" style="stroke: #000000; stroke-width: 0.8"/>
      </g>
     </g>
     <g id="text_13">
      <!-- 0.08 -->
      <g transform="translate(28.334375 127.659102) scale(0.1 -0.1)">
       <use xlink:href="#DejaVuSans-30"/>
       <use xlink:href="#DejaVuSans-2e" x="63.623047"/>
       <use xlink:href="#DejaVuSans-30" x="95.410156"/>
       <use xlink:href="#DejaVuSans-38" x="159.033203"/>
      </g>
     </g>
    </g>
    <g id="ytick_7">
     <g id="line2d_13">
      <g>
       <use xlink:href="#m5551535377" x="57.6" y="87.627293" style="stroke: #000000; stroke-width: 0.8"/>
      </g>
     </g>
     <g id="text_14">
      <!-- 0.10 -->
      <g transform="translate(28.334375 91.426512) scale(0.1 -0.1)">
       <use xlink:href="#DejaVuSans-30"/>
       <use xlink:href="#DejaVuSans-2e" x="63.623047"/>
       <use xlink:href="#DejaVuSans-31" x="95.410156"/>
       <use xlink:href="#DejaVuSans-30" x="159.033203"/>
      </g>
     </g>
    </g>
    <g id="ytick_8">
     <g id="line2d_14">
      <g>
       <use xlink:href="#m5551535377" x="57.6" y="51.394703" style="stroke: #000000; stroke-width: 0.8"/>
      </g>
     </g>
     <g id="text_15">
      <!-- 0.12 -->
      <g transform="translate(28.334375 55.193921) scale(0.1 -0.1)">
       <use xlink:href="#DejaVuSans-30"/>
       <use xlink:href="#DejaVuSans-2e" x="63.623047"/>
       <use xlink:href="#DejaVuSans-31" x="95.410156"/>
       <use xlink:href="#DejaVuSans-32" x="159.033203"/>
      </g>
     </g>
    </g>
    <g id="text_16">
     <!-- Spearman Correlation -->
     <g transform="translate(12.835156 256.604953) rotate(-90) scale(0.15 -0.15)">
      <defs>
       <path id="DejaVuSans-53" d="M 3425 4513 
L 3425 3897 
Q 3066 4069 2747 4153 
Q 2428 4238 2131 4238 
Q 1616 4238 1336 4038 
Q 1056 3838 1056 3469 
Q 1056 3159 1242 3001 
Q 1428 2844 1947 2747 
L 2328 2669 
Q 3034 2534 3370 2195 
Q 3706 1856 3706 1288 
Q 3706 609 3251 259 
Q 2797 -91 1919 -91 
Q 1588 -91 1214 -16 
Q 841 59 441 206 
L 441 856 
Q 825 641 1194 531 
Q 1563 422 1919 422 
Q 2459 422 2753 634 
Q 3047 847 3047 1241 
Q 3047 1584 2836 1778 
Q 2625 1972 2144 2069 
L 1759 2144 
Q 1053 2284 737 2584 
Q 422 2884 422 3419 
Q 422 4038 858 4394 
Q 1294 4750 2059 4750 
Q 2388 4750 2728 4690 
Q 3069 4631 3425 4513 
z
" transform="scale(0.015625)"/>
       <path id="DejaVuSans-70" d="M 1159 525 
L 1159 -1331 
L 581 -1331 
L 581 3500 
L 1159 3500 
L 1159 2969 
Q 1341 3281 1617 3432 
Q 1894 3584 2278 3584 
Q 2916 3584 3314 3078 
Q 3713 2572 3713 1747 
Q 3713 922 3314 415 
Q 2916 -91 2278 -91 
Q 1894 -91 1617 61 
Q 1341 213 1159 525 
z
M 3116 1747 
Q 3116 2381 2855 2742 
Q 2594 3103 2138 3103 
Q 1681 3103 1420 2742 
Q 1159 2381 1159 1747 
Q 1159 1113 1420 752 
Q 1681 391 2138 391 
Q 2594 391 2855 752 
Q 3116 1113 3116 1747 
z
" transform="scale(0.015625)"/>
       <path id="DejaVuSans-61" d="M 2194 1759 
Q 1497 1759 1228 1600 
Q 959 1441 959 1056 
Q 959 750 1161 570 
Q 1363 391 1709 391 
Q 2188 391 2477 730 
Q 2766 1069 2766 1631 
L 2766 1759 
L 2194 1759 
z
M 3341 1997 
L 3341 0 
L 2766 0 
L 2766 531 
Q 2569 213 2275 61 
Q 1981 -91 1556 -91 
Q 1019 -91 701 211 
Q 384 513 384 1019 
Q 384 1609 779 1909 
Q 1175 2209 1959 2209 
L 2766 2209 
L 2766 2266 
Q 2766 2663 2505 2880 
Q 2244 3097 1772 3097 
Q 1472 3097 1187 3025 
Q 903 2953 641 2809 
L 641 3341 
Q 956 3463 1253 3523 
Q 1550 3584 1831 3584 
Q 2591 3584 2966 3190 
Q 3341 2797 3341 1997 
z
" transform="scale(0.015625)"/>
       <path id="DejaVuSans-72" d="M 2631 2963 
Q 2534 3019 2420 3045 
Q 2306 3072 2169 3072 
Q 1681 3072 1420 2755 
Q 1159 2438 1159 1844 
L 1159 0 
L 581 0 
L 581 3500 
L 1159 3500 
L 1159 2956 
Q 1341 3275 1631 3429 
Q 1922 3584 2338 3584 
Q 2397 3584 2469 3576 
Q 2541 3569 2628 3553 
L 2631 2963 
z
" transform="scale(0.015625)"/>
       <path id="DejaVuSans-6e" d="M 3513 2113 
L 3513 0 
L 2938 0 
L 2938 2094 
Q 2938 2591 2744 2837 
Q 2550 3084 2163 3084 
Q 1697 3084 1428 2787 
Q 1159 2491 1159 1978 
L 1159 0 
L 581 0 
L 581 3500 
L 1159 3500 
L 1159 2956 
Q 1366 3272 1645 3428 
Q 1925 3584 2291 3584 
Q 2894 3584 3203 3211 
Q 3513 2838 3513 2113 
z
" transform="scale(0.015625)"/>
       <path id="DejaVuSans-43" d="M 4122 4306 
L 4122 3641 
Q 3803 3938 3442 4084 
Q 3081 4231 2675 4231 
Q 1875 4231 1450 3742 
Q 1025 3253 1025 2328 
Q 1025 1406 1450 917 
Q 1875 428 2675 428 
Q 3081 428 3442 575 
Q 3803 722 4122 1019 
L 4122 359 
Q 3791 134 3420 21 
Q 3050 -91 2638 -91 
Q 1578 -91 968 557 
Q 359 1206 359 2328 
Q 359 3453 968 4101 
Q 1578 4750 2638 4750 
Q 3056 4750 3426 4639 
Q 3797 4528 4122 4306 
z
" transform="scale(0.015625)"/>
       <path id="DejaVuSans-6f" d="M 1959 3097 
Q 1497 3097 1228 2736 
Q 959 2375 959 1747 
Q 959 1119 1226 758 
Q 1494 397 1959 397 
Q 2419 397 2687 759 
Q 2956 1122 2956 1747 
Q 2956 2369 2687 2733 
Q 2419 3097 1959 3097 
z
M 1959 3584 
Q 2709 3584 3137 3096 
Q 3566 2609 3566 1747 
Q 3566 888 3137 398 
Q 2709 -91 1959 -91 
Q 1206 -91 779 398 
Q 353 888 353 1747 
Q 353 2609 779 3096 
Q 1206 3584 1959 3584 
z
" transform="scale(0.015625)"/>
       <path id="DejaVuSans-6c" d="M 603 4863 
L 1178 4863 
L 1178 0 
L 603 0 
L 603 4863 
z
" transform="scale(0.015625)"/>
       <path id="DejaVuSans-74" d="M 1172 4494 
L 1172 3500 
L 2356 3500 
L 2356 3053 
L 1172 3053 
L 1172 1153 
Q 1172 725 1289 603 
Q 1406 481 1766 481 
L 2356 481 
L 2356 0 
L 1766 0 
Q 1100 0 847 248 
Q 594 497 594 1153 
L 594 3053 
L 172 3053 
L 172 3500 
L 594 3500 
L 594 4494 
L 1172 4494 
z
" transform="scale(0.015625)"/>
      </defs>
      <use xlink:href="#DejaVuSans-53"/>
      <use xlink:href="#DejaVuSans-70" x="63.476562"/>
      <use xlink:href="#DejaVuSans-65" x="126.953125"/>
      <use xlink:href="#DejaVuSans-61" x="188.476562"/>
      <use xlink:href="#DejaVuSans-72" x="249.755859"/>
      <use xlink:href="#DejaVuSans-6d" x="289.119141"/>
      <use xlink:href="#DejaVuSans-61" x="386.53125"/>
      <use xlink:href="#DejaVuSans-6e" x="447.810547"/>
      <use xlink:href="#DejaVuSans-20" x="511.189453"/>
      <use xlink:href="#DejaVuSans-43" x="542.976562"/>
      <use xlink:href="#DejaVuSans-6f" x="612.800781"/>
      <use xlink:href="#DejaVuSans-72" x="673.982422"/>
      <use xlink:href="#DejaVuSans-72" x="713.345703"/>
      <use xlink:href="#DejaVuSans-65" x="752.208984"/>
      <use xlink:href="#DejaVuSans-6c" x="813.732422"/>
      <use xlink:href="#DejaVuSans-61" x="841.515625"/>
      <use xlink:href="#DejaVuSans-74" x="902.794922"/>
      <use xlink:href="#DejaVuSans-69" x="942.003906"/>
      <use xlink:href="#DejaVuSans-6f" x="969.787109"/>
      <use xlink:href="#DejaVuSans-6e" x="1030.96875"/>
     </g>
    </g>
   </g>
   <g id="line2d_15">
    <path d="M 103.346777 307.584 
L 103.346777 41.472 
" clip-path="url(#p65a52d4d04)" style="fill: none; stroke-dasharray: 5.55,2.4; stroke-dashoffset: 0; stroke: #d3d3d3; stroke-width: 1.5"/>
   </g>
   <g id="line2d_16">
    <path d="M 57.6 268.790246 
L 414.72 268.790246 
" clip-path="url(#p65a52d4d04)" style="fill: none; stroke-dasharray: 5.55,2.4; stroke-dashoffset: 0; stroke: #d3d3d3; stroke-width: 1.5"/>
   </g>
   <g id="line2d_17">
    <path d="M 73.832727 276.575089 
L 76.151688 273.721036 
L 78.470649 271.446844 
L 80.78961 271.707599 
L 83.108571 269.98872 
L 85.427532 273.855982 
L 87.746494 270.361111 
L 90.065455 268.385599 
L 92.384416 269.698681 
L 94.703377 273.228949 
L 97.022338 274.776969 
L 99.341299 270.687866 
L 101.66026 260.6386 
L 103.979221 260.09951 
L 106.298182 265.370492 
L 108.617143 271.363166 
L 110.936104 273.812857 
L 113.255065 274.300407 
L 115.574026 278.11696 
L 117.892987 286.572492 
L 120.211948 289.368625 
L 122.530909 278.098804 
L 124.84987 253.511902 
L 127.168831 236.652927 
L 129.487792 227.33401 
L 131.806753 225.553476 
L 134.125714 227.60592 
L 136.444675 230.569597 
L 138.763636 228.744727 
L 141.082597 225.483177 
L 143.401558 224.936156 
L 145.720519 223.678228 
L 148.039481 217.633671 
L 150.358442 203.906539 
L 152.677403 192.204518 
L 154.996364 184.635405 
L 157.315325 180.687684 
L 159.634286 179.106929 
L 161.953247 177.202723 
L 164.272208 174.991502 
L 166.591169 173.835207 
L 168.91013 174.427418 
L 171.229091 177.679051 
L 173.548052 183.560387 
L 175.867013 191.405416 
L 178.185974 199.99866 
L 180.504935 206.912653 
L 182.823896 210.96423 
L 185.142857 213.444841 
L 189.780779 217.21953 
L 192.09974 220.427904 
L 194.418701 224.810026 
L 196.737662 228.685786 
L 201.375584 239.432312 
L 203.694545 241.558061 
L 206.013506 242.283742 
L 210.651429 245.627242 
L 212.97039 246.545633 
L 215.289351 246.758609 
L 217.608312 247.738156 
L 219.927273 249.983053 
L 222.246234 250.909022 
L 224.565195 249.64465 
L 226.884156 247.962281 
L 229.203117 246.494547 
L 231.522078 244.540725 
L 233.841039 242.422276 
L 236.16 241.102533 
L 238.478961 241.90747 
L 240.797922 244.248073 
L 243.116883 248.254734 
L 247.754805 257.00165 
L 250.073766 260.16631 
L 252.392727 261.478893 
L 254.711688 261.790062 
L 259.34961 261.406505 
L 261.668571 261.970278 
L 263.987532 262.345063 
L 266.306494 262.959304 
L 268.625455 262.939458 
L 270.944416 261.698157 
L 273.263377 259.117522 
L 275.582338 255.937291 
L 277.901299 252.283142 
L 280.22026 250.904928 
L 282.539221 252.289266 
L 284.858182 254.592804 
L 287.177143 255.514158 
L 289.496104 254.858996 
L 291.815065 253.993579 
L 294.134026 254.807866 
L 296.452987 256.182853 
L 301.090909 257.057016 
L 303.40987 258.805404 
L 305.728831 260.705093 
L 308.047792 262.208048 
L 310.366753 263.562254 
L 312.685714 265.427181 
L 315.004675 265.848003 
L 317.323636 264.921823 
L 321.961558 261.462474 
L 324.280519 260.29934 
L 326.599481 260.616302 
L 328.918442 262.381531 
L 331.237403 263.277028 
L 333.556364 262.220148 
L 335.875325 260.045395 
L 338.194286 259.180357 
L 340.513247 258.140967 
L 342.832208 256.510877 
L 345.151169 256.037309 
L 347.47013 257.9397 
L 349.789091 260.664205 
L 352.108052 262.910671 
L 354.427013 265.811027 
L 356.745974 268.988791 
L 359.064935 270.493667 
L 361.383896 270.237515 
L 363.702857 268.55166 
L 366.021818 265.267181 
L 370.65974 255.445279 
L 372.978701 252.32714 
L 375.297662 251.917536 
L 377.616623 253.538148 
L 379.935584 256.814168 
L 382.254545 260.790393 
L 384.573506 263.485328 
L 386.892468 263.419073 
L 389.211429 262.004015 
L 391.53039 261.550906 
L 396.168312 261.900931 
L 398.487273 262.791049 
L 398.487273 262.791049 
" clip-path="url(#p65a52d4d04)" style="fill: none; stroke: #ff2c55; stroke-linecap: square"/>
   </g>
   <g id="line2d_18">
    <path d="M 73.832727 269.643456 
L 76.151688 268.459846 
L 78.470649 266.619396 
L 80.78961 262.848021 
L 83.108571 262.422612 
L 85.427532 267.111393 
L 87.746494 274.281997 
L 90.065455 277.936222 
L 92.384416 266.268416 
L 94.703377 262.148221 
L 97.022338 266.582197 
L 99.341299 273.784717 
L 101.66026 272.114654 
L 103.979221 266.430834 
L 106.298182 263.690845 
L 108.617143 260.012099 
L 110.936104 255.675814 
L 113.255065 252.025561 
L 115.574026 249.062562 
L 117.892987 243.346571 
L 120.211948 223.723231 
L 122.530909 182.984089 
L 124.84987 121.67393 
L 127.168831 89.19795 
L 129.487792 82.591347 
L 131.806753 89.098238 
L 134.125714 93.530763 
L 138.763636 88.314283 
L 141.082597 105.854731 
L 143.401558 135.839851 
L 145.720519 147.243419 
L 148.039481 134.102878 
L 150.358442 122.83466 
L 152.677403 128.005544 
L 154.996364 143.82059 
L 157.315325 156.788207 
L 159.634286 161.58932 
L 161.953247 158.781968 
L 164.272208 151.699524 
L 166.591169 142.516577 
L 171.229091 123.114734 
L 173.548052 115.728499 
L 175.867013 113.532881 
L 178.185974 120.295031 
L 180.504935 131.358435 
L 182.823896 143.97331 
L 185.142857 153.401024 
L 187.461818 156.429722 
L 189.780779 153.775465 
L 192.09974 149.462968 
L 194.418701 146.863456 
L 196.737662 146.767007 
L 199.056623 147.213696 
L 201.375584 147.438452 
L 203.694545 146.442048 
L 206.013506 145.593157 
L 208.332468 145.694417 
L 210.651429 146.260017 
L 212.97039 148.398546 
L 217.608312 156.746871 
L 219.927273 157.907143 
L 222.246234 154.897109 
L 224.565195 146.385523 
L 229.203117 122.983647 
L 231.522078 116.115678 
L 233.841039 116.331171 
L 236.16 122.626897 
L 238.478961 131.324522 
L 240.797922 142.107866 
L 243.116883 151.532924 
L 245.435844 157.581181 
L 247.754805 160.490919 
L 250.073766 160.549173 
L 252.392727 158.290183 
L 254.711688 155.135954 
L 257.030649 152.641827 
L 259.34961 150.910336 
L 261.668571 151.849663 
L 263.987532 153.825591 
L 266.306494 157.412693 
L 268.625455 160.145326 
L 270.944416 160.832581 
L 273.263377 158.945298 
L 275.582338 156.541345 
L 277.901299 156.44074 
L 280.22026 159.904021 
L 282.539221 164.714529 
L 284.858182 167.763626 
L 287.177143 168.330608 
L 289.496104 165.998674 
L 291.815065 162.633732 
L 294.134026 160.77468 
L 296.452987 163.076903 
L 298.771948 167.668253 
L 301.090909 174.001569 
L 303.40987 179.695341 
L 305.728831 181.90231 
L 308.047792 180.469094 
L 310.366753 179.53598 
L 312.685714 179.939008 
L 315.004675 181.083417 
L 317.323636 180.917135 
L 319.642597 177.960442 
L 321.961558 171.849942 
L 324.280519 165.070984 
L 326.599481 160.245381 
L 328.918442 160.017584 
L 331.237403 162.797378 
L 333.556364 166.540339 
L 335.875325 169.832795 
L 338.194286 171.837407 
L 340.513247 171.431903 
L 342.832208 168.994223 
L 345.151169 166.734571 
L 347.47013 167.609608 
L 349.789091 172.408751 
L 352.108052 177.529631 
L 354.427013 180.042303 
L 356.745974 180.997619 
L 359.064935 180.459064 
L 361.383896 177.0862 
L 363.702857 171.248122 
L 366.021818 167.048757 
L 368.340779 166.238722 
L 370.65974 168.738563 
L 372.978701 171.542581 
L 375.297662 173.591631 
L 377.616623 174.644466 
L 379.935584 174.097729 
L 382.254545 172.856991 
L 384.573506 173.458704 
L 386.892468 176.180033 
L 389.211429 180.678319 
L 391.53039 183.252571 
L 393.849351 182.67301 
L 396.168312 180.876889 
L 398.487273 180.305455 
L 398.487273 180.305455 
" clip-path="url(#p65a52d4d04)" style="fill: none; stroke: #348aa7; stroke-linecap: square"/>
   </g>
   <g id="line2d_19">
    <path d="M 166.591169 307.584 
L 166.591169 41.472 
" clip-path="url(#p65a52d4d04)" style="fill: none; stroke-dasharray: 5.55,2.4; stroke-dashoffset: 0; stroke: #ff2c55; stroke-width: 1.5"/>
   </g>
   <g id="line2d_20">
    <path d="M 129.487792 307.584 
L 129.487792 41.472 
" clip-path="url(#p65a52d4d04)" style="fill: none; stroke-dasharray: 5.55,2.4; stroke-dashoffset: 0; stroke: #348aa7; stroke-width: 1.5"/>
   </g>
   <g id="patch_3">
    <path d="M 57.6 307.584 
L 57.6 41.472 
" style="fill: none; stroke: #000000; stroke-width: 0.8; stroke-linejoin: miter; stroke-linecap: square"/>
   </g>
   <g id="patch_4">
    <path d="M 57.6 307.584 
L 414.72 307.584 
" style="fill: none; stroke: #000000; stroke-width: 0.8; stroke-linejoin: miter; stroke-linecap: square"/>
   </g>
   <g id="text_17">
    <!-- . -->
    <g style="fill: #ff2c55" transform="translate(117.892987 295.488) scale(0.15 -0.15)">
     <use xlink:href="#DejaVuSans-2e"/>
    </g>
   </g>
   <g id="text_18">
    <!-- . -->
    <g style="fill: #ff2c55" transform="translate(120.211948 295.488) scale(0.15 -0.15)">
     <use xlink:href="#DejaVuSans-2e"/>
    </g>
   </g>
   <g id="text_19">
    <!-- . -->
    <g style="fill: #ff2c55" transform="translate(127.168831 295.488) scale(0.15 -0.15)">
     <use xlink:href="#DejaVuSans-2e"/>
    </g>
   </g>
   <g id="text_20">
    <!-- . -->
    <g style="fill: #ff2c55" transform="translate(129.487792 295.488) scale(0.15 -0.15)">
     <use xlink:href="#DejaVuSans-2e"/>
    </g>
   </g>
   <g id="text_21">
    <!-- . -->
    <g style="fill: #ff2c55" transform="translate(131.806753 295.488) scale(0.15 -0.15)">
     <use xlink:href="#DejaVuSans-2e"/>
    </g>
   </g>
   <g id="text_22">
    <!-- . -->
    <g style="fill: #ff2c55" transform="translate(134.125714 295.488) scale(0.15 -0.15)">
     <use xlink:href="#DejaVuSans-2e"/>
    </g>
   </g>
   <g id="text_23">
    <!-- . -->
    <g style="fill: #ff2c55" transform="translate(136.444675 295.488) scale(0.15 -0.15)">
     <use xlink:href="#DejaVuSans-2e"/>
    </g>
   </g>
   <g id="text_24">
    <!-- . -->
    <g style="fill: #ff2c55" transform="translate(138.763636 295.488) scale(0.15 -0.15)">
     <use xlink:href="#DejaVuSans-2e"/>
    </g>
   </g>
   <g id="text_25">
    <!-- . -->
    <g style="fill: #ff2c55" transform="translate(141.082597 295.488) scale(0.15 -0.15)">
     <use xlink:href="#DejaVuSans-2e"/>
    </g>
   </g>
   <g id="text_26">
    <!-- . -->
    <g style="fill: #ff2c55" transform="translate(143.401558 295.488) scale(0.15 -0.15)">
     <use xlink:href="#DejaVuSans-2e"/>
    </g>
   </g>
   <g id="text_27">
    <!-- . -->
    <g style="fill: #ff2c55" transform="translate(145.720519 295.488) scale(0.15 -0.15)">
     <use xlink:href="#DejaVuSans-2e"/>
    </g>
   </g>
   <g id="text_28">
    <!-- . -->
    <g style="fill: #ff2c55" transform="translate(148.039481 295.488) scale(0.15 -0.15)">
     <use xlink:href="#DejaVuSans-2e"/>
    </g>
   </g>
   <g id="text_29">
    <!-- . -->
    <g style="fill: #ff2c55" transform="translate(150.358442 295.488) scale(0.15 -0.15)">
     <use xlink:href="#DejaVuSans-2e"/>
    </g>
   </g>
   <g id="text_30">
    <!-- . -->
    <g style="fill: #ff2c55" transform="translate(152.677403 295.488) scale(0.15 -0.15)">
     <use xlink:href="#DejaVuSans-2e"/>
    </g>
   </g>
   <g id="text_31">
    <!-- . -->
    <g style="fill: #ff2c55" transform="translate(154.996364 295.488) scale(0.15 -0.15)">
     <use xlink:href="#DejaVuSans-2e"/>
    </g>
   </g>
   <g id="text_32">
    <!-- . -->
    <g style="fill: #ff2c55" transform="translate(157.315325 295.488) scale(0.15 -0.15)">
     <use xlink:href="#DejaVuSans-2e"/>
    </g>
   </g>
   <g id="text_33">
    <!-- . -->
    <g style="fill: #ff2c55" transform="translate(159.634286 295.488) scale(0.15 -0.15)">
     <use xlink:href="#DejaVuSans-2e"/>
    </g>
   </g>
   <g id="text_34">
    <!-- . -->
    <g style="fill: #ff2c55" transform="translate(161.953247 295.488) scale(0.15 -0.15)">
     <use xlink:href="#DejaVuSans-2e"/>
    </g>
   </g>
   <g id="text_35">
    <!-- . -->
    <g style="fill: #ff2c55" transform="translate(164.272208 295.488) scale(0.15 -0.15)">
     <use xlink:href="#DejaVuSans-2e"/>
    </g>
   </g>
   <g id="text_36">
    <!-- . -->
    <g style="fill: #ff2c55" transform="translate(166.591169 295.488) scale(0.15 -0.15)">
     <use xlink:href="#DejaVuSans-2e"/>
    </g>
   </g>
   <g id="text_37">
    <!-- . -->
    <g style="fill: #ff2c55" transform="translate(168.91013 295.488) scale(0.15 -0.15)">
     <use xlink:href="#DejaVuSans-2e"/>
    </g>
   </g>
   <g id="text_38">
    <!-- . -->
    <g style="fill: #ff2c55" transform="translate(171.229091 295.488) scale(0.15 -0.15)">
     <use xlink:href="#DejaVuSans-2e"/>
    </g>
   </g>
   <g id="text_39">
    <!-- . -->
    <g style="fill: #ff2c55" transform="translate(173.548052 295.488) scale(0.15 -0.15)">
     <use xlink:href="#DejaVuSans-2e"/>
    </g>
   </g>
   <g id="text_40">
    <!-- . -->
    <g style="fill: #ff2c55" transform="translate(175.867013 295.488) scale(0.15 -0.15)">
     <use xlink:href="#DejaVuSans-2e"/>
    </g>
   </g>
   <g id="text_41">
    <!-- . -->
    <g style="fill: #ff2c55" transform="translate(178.185974 295.488) scale(0.15 -0.15)">
     <use xlink:href="#DejaVuSans-2e"/>
    </g>
   </g>
   <g id="text_42">
    <!-- . -->
    <g style="fill: #ff2c55" transform="translate(180.504935 295.488) scale(0.15 -0.15)">
     <use xlink:href="#DejaVuSans-2e"/>
    </g>
   </g>
   <g id="text_43">
    <!-- . -->
    <g style="fill: #ff2c55" transform="translate(182.823896 295.488) scale(0.15 -0.15)">
     <use xlink:href="#DejaVuSans-2e"/>
    </g>
   </g>
   <g id="text_44">
    <!-- . -->
    <g style="fill: #ff2c55" transform="translate(185.142857 295.488) scale(0.15 -0.15)">
     <use xlink:href="#DejaVuSans-2e"/>
    </g>
   </g>
   <g id="text_45">
    <!-- . -->
    <g style="fill: #ff2c55" transform="translate(187.461818 295.488) scale(0.15 -0.15)">
     <use xlink:href="#DejaVuSans-2e"/>
    </g>
   </g>
   <g id="text_46">
    <!-- . -->
    <g style="fill: #ff2c55" transform="translate(189.780779 295.488) scale(0.15 -0.15)">
     <use xlink:href="#DejaVuSans-2e"/>
    </g>
   </g>
   <g id="text_47">
    <!-- . -->
    <g style="fill: #ff2c55" transform="translate(192.09974 295.488) scale(0.15 -0.15)">
     <use xlink:href="#DejaVuSans-2e"/>
    </g>
   </g>
   <g id="text_48">
    <!-- . -->
    <g style="fill: #ff2c55" transform="translate(194.418701 295.488) scale(0.15 -0.15)">
     <use xlink:href="#DejaVuSans-2e"/>
    </g>
   </g>
   <g id="text_49">
    <!-- . -->
    <g style="fill: #ff2c55" transform="translate(196.737662 295.488) scale(0.15 -0.15)">
     <use xlink:href="#DejaVuSans-2e"/>
    </g>
   </g>
   <g id="text_50">
    <!-- . -->
    <g style="fill: #348aa7" transform="translate(110.936104 300.922889) scale(0.15 -0.15)">
     <use xlink:href="#DejaVuSans-2e"/>
    </g>
   </g>
   <g id="text_51">
    <!-- . -->
    <g style="fill: #348aa7" transform="translate(113.255065 300.922889) scale(0.15 -0.15)">
     <use xlink:href="#DejaVuSans-2e"/>
    </g>
   </g>
   <g id="text_52">
    <!-- . -->
    <g style="fill: #348aa7" transform="translate(115.574026 300.922889) scale(0.15 -0.15)">
     <use xlink:href="#DejaVuSans-2e"/>
    </g>
   </g>
   <g id="text_53">
    <!-- . -->
    <g style="fill: #348aa7" transform="translate(117.892987 300.922889) scale(0.15 -0.15)">
     <use xlink:href="#DejaVuSans-2e"/>
    </g>
   </g>
   <g id="text_54">
    <!-- . -->
    <g style="fill: #348aa7" transform="translate(120.211948 300.922889) scale(0.15 -0.15)">
     <use xlink:href="#DejaVuSans-2e"/>
    </g>
   </g>
   <g id="text_55">
    <!-- . -->
    <g style="fill: #348aa7" transform="translate(122.530909 300.922889) scale(0.15 -0.15)">
     <use xlink:href="#DejaVuSans-2e"/>
    </g>
   </g>
   <g id="text_56">
    <!-- . -->
    <g style="fill: #348aa7" transform="translate(124.84987 300.922889) scale(0.15 -0.15)">
     <use xlink:href="#DejaVuSans-2e"/>
    </g>
   </g>
   <g id="text_57">
    <!-- . -->
    <g style="fill: #348aa7" transform="translate(127.168831 300.922889) scale(0.15 -0.15)">
     <use xlink:href="#DejaVuSans-2e"/>
    </g>
   </g>
   <g id="text_58">
    <!-- . -->
    <g style="fill: #348aa7" transform="translate(129.487792 300.922889) scale(0.15 -0.15)">
     <use xlink:href="#DejaVuSans-2e"/>
    </g>
   </g>
   <g id="text_59">
    <!-- . -->
    <g style="fill: #348aa7" transform="translate(131.806753 300.922889) scale(0.15 -0.15)">
     <use xlink:href="#DejaVuSans-2e"/>
    </g>
   </g>
   <g id="text_60">
    <!-- . -->
    <g style="fill: #348aa7" transform="translate(134.125714 300.922889) scale(0.15 -0.15)">
     <use xlink:href="#DejaVuSans-2e"/>
    </g>
   </g>
   <g id="text_61">
    <!-- . -->
    <g style="fill: #348aa7" transform="translate(136.444675 300.922889) scale(0.15 -0.15)">
     <use xlink:href="#DejaVuSans-2e"/>
    </g>
   </g>
   <g id="text_62">
    <!-- . -->
    <g style="fill: #348aa7" transform="translate(138.763636 300.922889) scale(0.15 -0.15)">
     <use xlink:href="#DejaVuSans-2e"/>
    </g>
   </g>
   <g id="text_63">
    <!-- . -->
    <g style="fill: #348aa7" transform="translate(141.082597 300.922889) scale(0.15 -0.15)">
     <use xlink:href="#DejaVuSans-2e"/>
    </g>
   </g>
   <g id="text_64">
    <!-- . -->
    <g style="fill: #348aa7" transform="translate(143.401558 300.922889) scale(0.15 -0.15)">
     <use xlink:href="#DejaVuSans-2e"/>
    </g>
   </g>
   <g id="text_65">
    <!-- . -->
    <g style="fill: #348aa7" transform="translate(145.720519 300.922889) scale(0.15 -0.15)">
     <use xlink:href="#DejaVuSans-2e"/>
    </g>
   </g>
   <g id="text_66">
    <!-- . -->
    <g style="fill: #348aa7" transform="translate(148.039481 300.922889) scale(0.15 -0.15)">
     <use xlink:href="#DejaVuSans-2e"/>
    </g>
   </g>
   <g id="text_67">
    <!-- . -->
    <g style="fill: #348aa7" transform="translate(150.358442 300.922889) scale(0.15 -0.15)">
     <use xlink:href="#DejaVuSans-2e"/>
    </g>
   </g>
   <g id="text_68">
    <!-- . -->
    <g style="fill: #348aa7" transform="translate(152.677403 300.922889) scale(0.15 -0.15)">
     <use xlink:href="#DejaVuSans-2e"/>
    </g>
   </g>
   <g id="text_69">
    <!-- . -->
    <g style="fill: #348aa7" transform="translate(154.996364 300.922889) scale(0.15 -0.15)">
     <use xlink:href="#DejaVuSans-2e"/>
    </g>
   </g>
   <g id="text_70">
    <!-- . -->
    <g style="fill: #348aa7" transform="translate(157.315325 300.922889) scale(0.15 -0.15)">
     <use xlink:href="#DejaVuSans-2e"/>
    </g>
   </g>
   <g id="text_71">
    <!-- . -->
    <g style="fill: #348aa7" transform="translate(159.634286 300.922889) scale(0.15 -0.15)">
     <use xlink:href="#DejaVuSans-2e"/>
    </g>
   </g>
   <g id="text_72">
    <!-- . -->
    <g style="fill: #348aa7" transform="translate(161.953247 300.922889) scale(0.15 -0.15)">
     <use xlink:href="#DejaVuSans-2e"/>
    </g>
   </g>
   <g id="text_73">
    <!-- . -->
    <g style="fill: #348aa7" transform="translate(164.272208 300.922889) scale(0.15 -0.15)">
     <use xlink:href="#DejaVuSans-2e"/>
    </g>
   </g>
   <g id="text_74">
    <!-- . -->
    <g style="fill: #348aa7" transform="translate(166.591169 300.922889) scale(0.15 -0.15)">
     <use xlink:href="#DejaVuSans-2e"/>
    </g>
   </g>
   <g id="text_75">
    <!-- . -->
    <g style="fill: #348aa7" transform="translate(168.91013 300.922889) scale(0.15 -0.15)">
     <use xlink:href="#DejaVuSans-2e"/>
    </g>
   </g>
   <g id="text_76">
    <!-- . -->
    <g style="fill: #348aa7" transform="translate(171.229091 300.922889) scale(0.15 -0.15)">
     <use xlink:href="#DejaVuSans-2e"/>
    </g>
   </g>
   <g id="text_77">
    <!-- . -->
    <g style="fill: #348aa7" transform="translate(173.548052 300.922889) scale(0.15 -0.15)">
     <use xlink:href="#DejaVuSans-2e"/>
    </g>
   </g>
   <g id="text_78">
    <!-- . -->
    <g style="fill: #348aa7" transform="translate(175.867013 300.922889) scale(0.15 -0.15)">
     <use xlink:href="#DejaVuSans-2e"/>
    </g>
   </g>
   <g id="text_79">
    <!-- . -->
    <g style="fill: #348aa7" transform="translate(178.185974 300.922889) scale(0.15 -0.15)">
     <use xlink:href="#DejaVuSans-2e"/>
    </g>
   </g>
   <g id="text_80">
    <!-- . -->
    <g style="fill: #348aa7" transform="translate(180.504935 300.922889) scale(0.15 -0.15)">
     <use xlink:href="#DejaVuSans-2e"/>
    </g>
   </g>
   <g id="text_81">
    <!-- . -->
    <g style="fill: #348aa7" transform="translate(182.823896 300.922889) scale(0.15 -0.15)">
     <use xlink:href="#DejaVuSans-2e"/>
    </g>
   </g>
   <g id="text_82">
    <!-- . -->
    <g style="fill: #348aa7" transform="translate(185.142857 300.922889) scale(0.15 -0.15)">
     <use xlink:href="#DejaVuSans-2e"/>
    </g>
   </g>
   <g id="text_83">
    <!-- . -->
    <g style="fill: #348aa7" transform="translate(187.461818 300.922889) scale(0.15 -0.15)">
     <use xlink:href="#DejaVuSans-2e"/>
    </g>
   </g>
   <g id="text_84">
    <!-- . -->
    <g style="fill: #348aa7" transform="translate(189.780779 300.922889) scale(0.15 -0.15)">
     <use xlink:href="#DejaVuSans-2e"/>
    </g>
   </g>
   <g id="text_85">
    <!-- . -->
    <g style="fill: #348aa7" transform="translate(192.09974 300.922889) scale(0.15 -0.15)">
     <use xlink:href="#DejaVuSans-2e"/>
    </g>
   </g>
   <g id="text_86">
    <!-- . -->
    <g style="fill: #348aa7" transform="translate(194.418701 300.922889) scale(0.15 -0.15)">
     <use xlink:href="#DejaVuSans-2e"/>
    </g>
   </g>
   <g id="text_87">
    <!-- . -->
    <g style="fill: #348aa7" transform="translate(196.737662 300.922889) scale(0.15 -0.15)">
     <use xlink:href="#DejaVuSans-2e"/>
    </g>
   </g>
   <g id="text_88">
    <!-- . -->
    <g style="fill: #348aa7" transform="translate(199.056623 300.922889) scale(0.15 -0.15)">
     <use xlink:href="#DejaVuSans-2e"/>
    </g>
   </g>
   <g id="text_89">
    <!-- . -->
    <g style="fill: #348aa7" transform="translate(201.375584 300.922889) scale(0.15 -0.15)">
     <use xlink:href="#DejaVuSans-2e"/>
    </g>
   </g>
   <g id="text_90">
    <!-- . -->
    <g style="fill: #348aa7" transform="translate(203.694545 300.922889) scale(0.15 -0.15)">
     <use xlink:href="#DejaVuSans-2e"/>
    </g>
   </g>
   <g id="text_91">
    <!-- . -->
    <g style="fill: #348aa7" transform="translate(206.013506 300.922889) scale(0.15 -0.15)">
     <use xlink:href="#DejaVuSans-2e"/>
    </g>
   </g>
   <g id="text_92">
    <!-- . -->
    <g style="fill: #348aa7" transform="translate(208.332468 300.922889) scale(0.15 -0.15)">
     <use xlink:href="#DejaVuSans-2e"/>
    </g>
   </g>
   <g id="text_93">
    <!-- . -->
    <g style="fill: #348aa7" transform="translate(210.651429 300.922889) scale(0.15 -0.15)">
     <use xlink:href="#DejaVuSans-2e"/>
    </g>
   </g>
   <g id="text_94">
    <!-- . -->
    <g style="fill: #348aa7" transform="translate(212.97039 300.922889) scale(0.15 -0.15)">
     <use xlink:href="#DejaVuSans-2e"/>
    </g>
   </g>
   <g id="text_95">
    <!-- . -->
    <g style="fill: #348aa7" transform="translate(215.289351 300.922889) scale(0.15 -0.15)">
     <use xlink:href="#DejaVuSans-2e"/>
    </g>
   </g>
   <g id="text_96">
    <!-- . -->
    <g style="fill: #348aa7" transform="translate(217.608312 300.922889) scale(0.15 -0.15)">
     <use xlink:href="#DejaVuSans-2e"/>
    </g>
   </g>
   <g id="text_97">
    <!-- . -->
    <g style="fill: #348aa7" transform="translate(219.927273 300.922889) scale(0.15 -0.15)">
     <use xlink:href="#DejaVuSans-2e"/>
    </g>
   </g>
   <g id="text_98">
    <!-- . -->
    <g style="fill: #348aa7" transform="translate(222.246234 300.922889) scale(0.15 -0.15)">
     <use xlink:href="#DejaVuSans-2e"/>
    </g>
   </g>
   <g id="text_99">
    <!-- . -->
    <g style="fill: #348aa7" transform="translate(224.565195 300.922889) scale(0.15 -0.15)">
     <use xlink:href="#DejaVuSans-2e"/>
    </g>
   </g>
   <g id="text_100">
    <!-- . -->
    <g style="fill: #348aa7" transform="translate(226.884156 300.922889) scale(0.15 -0.15)">
     <use xlink:href="#DejaVuSans-2e"/>
    </g>
   </g>
   <g id="text_101">
    <!-- . -->
    <g style="fill: #348aa7" transform="translate(229.203117 300.922889) scale(0.15 -0.15)">
     <use xlink:href="#DejaVuSans-2e"/>
    </g>
   </g>
   <g id="text_102">
    <!-- . -->
    <g style="fill: #348aa7" transform="translate(231.522078 300.922889) scale(0.15 -0.15)">
     <use xlink:href="#DejaVuSans-2e"/>
    </g>
   </g>
   <g id="text_103">
    <!-- . -->
    <g style="fill: #348aa7" transform="translate(233.841039 300.922889) scale(0.15 -0.15)">
     <use xlink:href="#DejaVuSans-2e"/>
    </g>
   </g>
   <g id="text_104">
    <!-- . -->
    <g style="fill: #348aa7" transform="translate(236.16 300.922889) scale(0.15 -0.15)">
     <use xlink:href="#DejaVuSans-2e"/>
    </g>
   </g>
   <g id="text_105">
    <!-- . -->
    <g style="fill: #348aa7" transform="translate(238.478961 300.922889) scale(0.15 -0.15)">
     <use xlink:href="#DejaVuSans-2e"/>
    </g>
   </g>
   <g id="text_106">
    <!-- . -->
    <g style="fill: #348aa7" transform="translate(240.797922 300.922889) scale(0.15 -0.15)">
     <use xlink:href="#DejaVuSans-2e"/>
    </g>
   </g>
   <g id="text_107">
    <!-- . -->
    <g style="fill: #348aa7" transform="translate(243.116883 300.922889) scale(0.15 -0.15)">
     <use xlink:href="#DejaVuSans-2e"/>
    </g>
   </g>
   <g id="text_108">
    <!-- . -->
    <g style="fill: #348aa7" transform="translate(245.435844 300.922889) scale(0.15 -0.15)">
     <use xlink:href="#DejaVuSans-2e"/>
    </g>
   </g>
   <g id="text_109">
    <!-- . -->
    <g style="fill: #348aa7" transform="translate(247.754805 300.922889) scale(0.15 -0.15)">
     <use xlink:href="#DejaVuSans-2e"/>
    </g>
   </g>
   <g id="text_110">
    <!-- . -->
    <g style="fill: #348aa7" transform="translate(250.073766 300.922889) scale(0.15 -0.15)">
     <use xlink:href="#DejaVuSans-2e"/>
    </g>
   </g>
   <g id="text_111">
    <!-- . -->
    <g style="fill: #348aa7" transform="translate(252.392727 300.922889) scale(0.15 -0.15)">
     <use xlink:href="#DejaVuSans-2e"/>
    </g>
   </g>
   <g id="text_112">
    <!-- . -->
    <g style="fill: #348aa7" transform="translate(254.711688 300.922889) scale(0.15 -0.15)">
     <use xlink:href="#DejaVuSans-2e"/>
    </g>
   </g>
   <g id="text_113">
    <!-- . -->
    <g style="fill: #348aa7" transform="translate(257.030649 300.922889) scale(0.15 -0.15)">
     <use xlink:href="#DejaVuSans-2e"/>
    </g>
   </g>
   <g id="text_114">
    <!-- . -->
    <g style="fill: #348aa7" transform="translate(259.34961 300.922889) scale(0.15 -0.15)">
     <use xlink:href="#DejaVuSans-2e"/>
    </g>
   </g>
   <g id="text_115">
    <!-- . -->
    <g style="fill: #348aa7" transform="translate(261.668571 300.922889) scale(0.15 -0.15)">
     <use xlink:href="#DejaVuSans-2e"/>
    </g>
   </g>
   <g id="text_116">
    <!-- . -->
    <g style="fill: #348aa7" transform="translate(263.987532 300.922889) scale(0.15 -0.15)">
     <use xlink:href="#DejaVuSans-2e"/>
    </g>
   </g>
   <g id="text_117">
    <!-- . -->
    <g style="fill: #348aa7" transform="translate(266.306494 300.922889) scale(0.15 -0.15)">
     <use xlink:href="#DejaVuSans-2e"/>
    </g>
   </g>
   <g id="text_118">
    <!-- . -->
    <g style="fill: #348aa7" transform="translate(268.625455 300.922889) scale(0.15 -0.15)">
     <use xlink:href="#DejaVuSans-2e"/>
    </g>
   </g>
   <g id="text_119">
    <!-- . -->
    <g style="fill: #348aa7" transform="translate(270.944416 300.922889) scale(0.15 -0.15)">
     <use xlink:href="#DejaVuSans-2e"/>
    </g>
   </g>
   <g id="text_120">
    <!-- . -->
    <g style="fill: #348aa7" transform="translate(273.263377 300.922889) scale(0.15 -0.15)">
     <use xlink:href="#DejaVuSans-2e"/>
    </g>
   </g>
   <g id="text_121">
    <!-- . -->
    <g style="fill: #348aa7" transform="translate(275.582338 300.922889) scale(0.15 -0.15)">
     <use xlink:href="#DejaVuSans-2e"/>
    </g>
   </g>
   <g id="text_122">
    <!-- . -->
    <g style="fill: #348aa7" transform="translate(277.901299 300.922889) scale(0.15 -0.15)">
     <use xlink:href="#DejaVuSans-2e"/>
    </g>
   </g>
   <g id="text_123">
    <!-- . -->
    <g style="fill: #348aa7" transform="translate(280.22026 300.922889) scale(0.15 -0.15)">
     <use xlink:href="#DejaVuSans-2e"/>
    </g>
   </g>
   <g id="text_124">
    <!-- . -->
    <g style="fill: #348aa7" transform="translate(282.539221 300.922889) scale(0.15 -0.15)">
     <use xlink:href="#DejaVuSans-2e"/>
    </g>
   </g>
   <g id="text_125">
    <!-- . -->
    <g style="fill: #348aa7" transform="translate(284.858182 300.922889) scale(0.15 -0.15)">
     <use xlink:href="#DejaVuSans-2e"/>
    </g>
   </g>
   <g id="text_126">
    <!-- . -->
    <g style="fill: #348aa7" transform="translate(287.177143 300.922889) scale(0.15 -0.15)">
     <use xlink:href="#DejaVuSans-2e"/>
    </g>
   </g>
   <g id="text_127">
    <!-- . -->
    <g style="fill: #348aa7" transform="translate(289.496104 300.922889) scale(0.15 -0.15)">
     <use xlink:href="#DejaVuSans-2e"/>
    </g>
   </g>
   <g id="text_128">
    <!-- . -->
    <g style="fill: #348aa7" transform="translate(291.815065 300.922889) scale(0.15 -0.15)">
     <use xlink:href="#DejaVuSans-2e"/>
    </g>
   </g>
   <g id="text_129">
    <!-- . -->
    <g style="fill: #348aa7" transform="translate(294.134026 300.922889) scale(0.15 -0.15)">
     <use xlink:href="#DejaVuSans-2e"/>
    </g>
   </g>
   <g id="text_130">
    <!-- . -->
    <g style="fill: #348aa7" transform="translate(296.452987 300.922889) scale(0.15 -0.15)">
     <use xlink:href="#DejaVuSans-2e"/>
    </g>
   </g>
   <g id="text_131">
    <!-- . -->
    <g style="fill: #348aa7" transform="translate(298.771948 300.922889) scale(0.15 -0.15)">
     <use xlink:href="#DejaVuSans-2e"/>
    </g>
   </g>
   <g id="text_132">
    <!-- . -->
    <g style="fill: #348aa7" transform="translate(301.090909 300.922889) scale(0.15 -0.15)">
     <use xlink:href="#DejaVuSans-2e"/>
    </g>
   </g>
   <g id="text_133">
    <!-- . -->
    <g style="fill: #348aa7" transform="translate(303.40987 300.922889) scale(0.15 -0.15)">
     <use xlink:href="#DejaVuSans-2e"/>
    </g>
   </g>
   <g id="text_134">
    <!-- . -->
    <g style="fill: #348aa7" transform="translate(305.728831 300.922889) scale(0.15 -0.15)">
     <use xlink:href="#DejaVuSans-2e"/>
    </g>
   </g>
   <g id="text_135">
    <!-- . -->
    <g style="fill: #348aa7" transform="translate(308.047792 300.922889) scale(0.15 -0.15)">
     <use xlink:href="#DejaVuSans-2e"/>
    </g>
   </g>
   <g id="text_136">
    <!-- . -->
    <g style="fill: #348aa7" transform="translate(310.366753 300.922889) scale(0.15 -0.15)">
     <use xlink:href="#DejaVuSans-2e"/>
    </g>
   </g>
   <g id="text_137">
    <!-- . -->
    <g style="fill: #348aa7" transform="translate(312.685714 300.922889) scale(0.15 -0.15)">
     <use xlink:href="#DejaVuSans-2e"/>
    </g>
   </g>
   <g id="text_138">
    <!-- . -->
    <g style="fill: #348aa7" transform="translate(315.004675 300.922889) scale(0.15 -0.15)">
     <use xlink:href="#DejaVuSans-2e"/>
    </g>
   </g>
   <g id="text_139">
    <!-- . -->
    <g style="fill: #348aa7" transform="translate(317.323636 300.922889) scale(0.15 -0.15)">
     <use xlink:href="#DejaVuSans-2e"/>
    </g>
   </g>
   <g id="text_140">
    <!-- . -->
    <g style="fill: #348aa7" transform="translate(319.642597 300.922889) scale(0.15 -0.15)">
     <use xlink:href="#DejaVuSans-2e"/>
    </g>
   </g>
   <g id="text_141">
    <!-- . -->
    <g style="fill: #348aa7" transform="translate(321.961558 300.922889) scale(0.15 -0.15)">
     <use xlink:href="#DejaVuSans-2e"/>
    </g>
   </g>
   <g id="text_142">
    <!-- . -->
    <g style="fill: #348aa7" transform="translate(324.280519 300.922889) scale(0.15 -0.15)">
     <use xlink:href="#DejaVuSans-2e"/>
    </g>
   </g>
   <g id="text_143">
    <!-- . -->
    <g style="fill: #348aa7" transform="translate(326.599481 300.922889) scale(0.15 -0.15)">
     <use xlink:href="#DejaVuSans-2e"/>
    </g>
   </g>
   <g id="text_144">
    <!-- . -->
    <g style="fill: #348aa7" transform="translate(328.918442 300.922889) scale(0.15 -0.15)">
     <use xlink:href="#DejaVuSans-2e"/>
    </g>
   </g>
   <g id="text_145">
    <!-- . -->
    <g style="fill: #348aa7" transform="translate(331.237403 300.922889) scale(0.15 -0.15)">
     <use xlink:href="#DejaVuSans-2e"/>
    </g>
   </g>
   <g id="text_146">
    <!-- . -->
    <g style="fill: #348aa7" transform="translate(333.556364 300.922889) scale(0.15 -0.15)">
     <use xlink:href="#DejaVuSans-2e"/>
    </g>
   </g>
   <g id="text_147">
    <!-- . -->
    <g style="fill: #348aa7" transform="translate(335.875325 300.922889) scale(0.15 -0.15)">
     <use xlink:href="#DejaVuSans-2e"/>
    </g>
   </g>
   <g id="text_148">
    <!-- . -->
    <g style="fill: #348aa7" transform="translate(338.194286 300.922889) scale(0.15 -0.15)">
     <use xlink:href="#DejaVuSans-2e"/>
    </g>
   </g>
   <g id="text_149">
    <!-- . -->
    <g style="fill: #348aa7" transform="translate(340.513247 300.922889) scale(0.15 -0.15)">
     <use xlink:href="#DejaVuSans-2e"/>
    </g>
   </g>
   <g id="text_150">
    <!-- . -->
    <g style="fill: #348aa7" transform="translate(342.832208 300.922889) scale(0.15 -0.15)">
     <use xlink:href="#DejaVuSans-2e"/>
    </g>
   </g>
   <g id="text_151">
    <!-- . -->
    <g style="fill: #348aa7" transform="translate(345.151169 300.922889) scale(0.15 -0.15)">
     <use xlink:href="#DejaVuSans-2e"/>
    </g>
   </g>
   <g id="text_152">
    <!-- . -->
    <g style="fill: #348aa7" transform="translate(347.47013 300.922889) scale(0.15 -0.15)">
     <use xlink:href="#DejaVuSans-2e"/>
    </g>
   </g>
   <g id="text_153">
    <!-- . -->
    <g style="fill: #348aa7" transform="translate(349.789091 300.922889) scale(0.15 -0.15)">
     <use xlink:href="#DejaVuSans-2e"/>
    </g>
   </g>
   <g id="text_154">
    <!-- . -->
    <g style="fill: #348aa7" transform="translate(352.108052 300.922889) scale(0.15 -0.15)">
     <use xlink:href="#DejaVuSans-2e"/>
    </g>
   </g>
   <g id="text_155">
    <!-- . -->
    <g style="fill: #348aa7" transform="translate(354.427013 300.922889) scale(0.15 -0.15)">
     <use xlink:href="#DejaVuSans-2e"/>
    </g>
   </g>
   <g id="text_156">
    <!-- . -->
    <g style="fill: #348aa7" transform="translate(356.745974 300.922889) scale(0.15 -0.15)">
     <use xlink:href="#DejaVuSans-2e"/>
    </g>
   </g>
   <g id="text_157">
    <!-- . -->
    <g style="fill: #348aa7" transform="translate(359.064935 300.922889) scale(0.15 -0.15)">
     <use xlink:href="#DejaVuSans-2e"/>
    </g>
   </g>
   <g id="text_158">
    <!-- . -->
    <g style="fill: #348aa7" transform="translate(361.383896 300.922889) scale(0.15 -0.15)">
     <use xlink:href="#DejaVuSans-2e"/>
    </g>
   </g>
   <g id="text_159">
    <!-- . -->
    <g style="fill: #348aa7" transform="translate(363.702857 300.922889) scale(0.15 -0.15)">
     <use xlink:href="#DejaVuSans-2e"/>
    </g>
   </g>
   <g id="text_160">
    <!-- . -->
    <g style="fill: #348aa7" transform="translate(366.021818 300.922889) scale(0.15 -0.15)">
     <use xlink:href="#DejaVuSans-2e"/>
    </g>
   </g>
   <g id="text_161">
    <!-- . -->
    <g style="fill: #348aa7" transform="translate(368.340779 300.922889) scale(0.15 -0.15)">
     <use xlink:href="#DejaVuSans-2e"/>
    </g>
   </g>
   <g id="text_162">
    <!-- . -->
    <g style="fill: #348aa7" transform="translate(370.65974 300.922889) scale(0.15 -0.15)">
     <use xlink:href="#DejaVuSans-2e"/>
    </g>
   </g>
   <g id="text_163">
    <!-- . -->
    <g style="fill: #348aa7" transform="translate(372.978701 300.922889) scale(0.15 -0.15)">
     <use xlink:href="#DejaVuSans-2e"/>
    </g>
   </g>
   <g id="text_164">
    <!-- . -->
    <g style="fill: #348aa7" transform="translate(375.297662 300.922889) scale(0.15 -0.15)">
     <use xlink:href="#DejaVuSans-2e"/>
    </g>
   </g>
   <g id="text_165">
    <!-- . -->
    <g style="fill: #348aa7" transform="translate(377.616623 300.922889) scale(0.15 -0.15)">
     <use xlink:href="#DejaVuSans-2e"/>
    </g>
   </g>
   <g id="text_166">
    <!-- . -->
    <g style="fill: #348aa7" transform="translate(379.935584 300.922889) scale(0.15 -0.15)">
     <use xlink:href="#DejaVuSans-2e"/>
    </g>
   </g>
   <g id="text_167">
    <!-- . -->
    <g style="fill: #348aa7" transform="translate(382.254545 300.922889) scale(0.15 -0.15)">
     <use xlink:href="#DejaVuSans-2e"/>
    </g>
   </g>
   <g id="text_168">
    <!-- . -->
    <g style="fill: #348aa7" transform="translate(384.573506 300.922889) scale(0.15 -0.15)">
     <use xlink:href="#DejaVuSans-2e"/>
    </g>
   </g>
   <g id="text_169">
    <!-- . -->
    <g style="fill: #348aa7" transform="translate(386.892468 300.922889) scale(0.15 -0.15)">
     <use xlink:href="#DejaVuSans-2e"/>
    </g>
   </g>
   <g id="text_170">
    <!-- . -->
    <g style="fill: #348aa7" transform="translate(389.211429 300.922889) scale(0.15 -0.15)">
     <use xlink:href="#DejaVuSans-2e"/>
    </g>
   </g>
   <g id="text_171">
    <!-- . -->
    <g style="fill: #348aa7" transform="translate(391.53039 300.922889) scale(0.15 -0.15)">
     <use xlink:href="#DejaVuSans-2e"/>
    </g>
   </g>
   <g id="text_172">
    <!-- . -->
    <g style="fill: #348aa7" transform="translate(393.849351 300.922889) scale(0.15 -0.15)">
     <use xlink:href="#DejaVuSans-2e"/>
    </g>
   </g>
   <g id="text_173">
    <!-- . -->
    <g style="fill: #348aa7" transform="translate(396.168312 300.922889) scale(0.15 -0.15)">
     <use xlink:href="#DejaVuSans-2e"/>
    </g>
   </g>
   <g id="text_174">
    <!-- . -->
    <g style="fill: #348aa7" transform="translate(398.487273 300.922889) scale(0.15 -0.15)">
     <use xlink:href="#DejaVuSans-2e"/>
    </g>
   </g>
   <g id="text_175">
    <!-- . -->
    <g transform="translate(108.617143 306.357777) scale(0.15 -0.15)">
     <use xlink:href="#DejaVuSans-2e"/>
    </g>
   </g>
   <g id="text_176">
    <!-- . -->
    <g transform="translate(110.936104 306.357777) scale(0.15 -0.15)">
     <use xlink:href="#DejaVuSans-2e"/>
    </g>
   </g>
   <g id="text_177">
    <!-- . -->
    <g transform="translate(113.255065 306.357777) scale(0.15 -0.15)">
     <use xlink:href="#DejaVuSans-2e"/>
    </g>
   </g>
   <g id="text_178">
    <!-- . -->
    <g transform="translate(115.574026 306.357777) scale(0.15 -0.15)">
     <use xlink:href="#DejaVuSans-2e"/>
    </g>
   </g>
   <g id="text_179">
    <!-- . -->
    <g transform="translate(117.892987 306.357777) scale(0.15 -0.15)">
     <use xlink:href="#DejaVuSans-2e"/>
    </g>
   </g>
   <g id="text_180">
    <!-- . -->
    <g transform="translate(120.211948 306.357777) scale(0.15 -0.15)">
     <use xlink:href="#DejaVuSans-2e"/>
    </g>
   </g>
   <g id="text_181">
    <!-- . -->
    <g transform="translate(122.530909 306.357777) scale(0.15 -0.15)">
     <use xlink:href="#DejaVuSans-2e"/>
    </g>
   </g>
   <g id="text_182">
    <!-- . -->
    <g transform="translate(124.84987 306.357777) scale(0.15 -0.15)">
     <use xlink:href="#DejaVuSans-2e"/>
    </g>
   </g>
   <g id="text_183">
    <!-- . -->
    <g transform="translate(127.168831 306.357777) scale(0.15 -0.15)">
     <use xlink:href="#DejaVuSans-2e"/>
    </g>
   </g>
   <g id="text_184">
    <!-- . -->
    <g transform="translate(129.487792 306.357777) scale(0.15 -0.15)">
     <use xlink:href="#DejaVuSans-2e"/>
    </g>
   </g>
   <g id="text_185">
    <!-- . -->
    <g transform="translate(131.806753 306.357777) scale(0.15 -0.15)">
     <use xlink:href="#DejaVuSans-2e"/>
    </g>
   </g>
   <g id="text_186">
    <!-- . -->
    <g transform="translate(134.125714 306.357777) scale(0.15 -0.15)">
     <use xlink:href="#DejaVuSans-2e"/>
    </g>
   </g>
   <g id="text_187">
    <!-- . -->
    <g transform="translate(136.444675 306.357777) scale(0.15 -0.15)">
     <use xlink:href="#DejaVuSans-2e"/>
    </g>
   </g>
   <g id="text_188">
    <!-- . -->
    <g transform="translate(138.763636 306.357777) scale(0.15 -0.15)">
     <use xlink:href="#DejaVuSans-2e"/>
    </g>
   </g>
   <g id="text_189">
    <!-- . -->
    <g transform="translate(141.082597 306.357777) scale(0.15 -0.15)">
     <use xlink:href="#DejaVuSans-2e"/>
    </g>
   </g>
   <g id="text_190">
    <!-- . -->
    <g transform="translate(143.401558 306.357777) scale(0.15 -0.15)">
     <use xlink:href="#DejaVuSans-2e"/>
    </g>
   </g>
   <g id="text_191">
    <!-- . -->
    <g transform="translate(145.720519 306.357777) scale(0.15 -0.15)">
     <use xlink:href="#DejaVuSans-2e"/>
    </g>
   </g>
   <g id="text_192">
    <!-- . -->
    <g transform="translate(148.039481 306.357777) scale(0.15 -0.15)">
     <use xlink:href="#DejaVuSans-2e"/>
    </g>
   </g>
   <g id="text_193">
    <!-- . -->
    <g transform="translate(150.358442 306.357777) scale(0.15 -0.15)">
     <use xlink:href="#DejaVuSans-2e"/>
    </g>
   </g>
   <g id="text_194">
    <!-- . -->
    <g transform="translate(173.548052 306.357777) scale(0.15 -0.15)">
     <use xlink:href="#DejaVuSans-2e"/>
    </g>
   </g>
   <g id="text_195">
    <!-- . -->
    <g transform="translate(175.867013 306.357777) scale(0.15 -0.15)">
     <use xlink:href="#DejaVuSans-2e"/>
    </g>
   </g>
   <g id="text_196">
    <!-- . -->
    <g transform="translate(178.185974 306.357777) scale(0.15 -0.15)">
     <use xlink:href="#DejaVuSans-2e"/>
    </g>
   </g>
   <g id="text_197">
    <!-- . -->
    <g transform="translate(180.504935 306.357777) scale(0.15 -0.15)">
     <use xlink:href="#DejaVuSans-2e"/>
    </g>
   </g>
   <g id="text_198">
    <!-- . -->
    <g transform="translate(182.823896 306.357777) scale(0.15 -0.15)">
     <use xlink:href="#DejaVuSans-2e"/>
    </g>
   </g>
   <g id="text_199">
    <!-- . -->
    <g transform="translate(185.142857 306.357777) scale(0.15 -0.15)">
     <use xlink:href="#DejaVuSans-2e"/>
    </g>
   </g>
   <g id="text_200">
    <!-- . -->
    <g transform="translate(187.461818 306.357777) scale(0.15 -0.15)">
     <use xlink:href="#DejaVuSans-2e"/>
    </g>
   </g>
   <g id="text_201">
    <!-- . -->
    <g transform="translate(189.780779 306.357777) scale(0.15 -0.15)">
     <use xlink:href="#DejaVuSans-2e"/>
    </g>
   </g>
   <g id="text_202">
    <!-- . -->
    <g transform="translate(192.09974 306.357777) scale(0.15 -0.15)">
     <use xlink:href="#DejaVuSans-2e"/>
    </g>
   </g>
   <g id="text_203">
    <!-- . -->
    <g transform="translate(194.418701 306.357777) scale(0.15 -0.15)">
     <use xlink:href="#DejaVuSans-2e"/>
    </g>
   </g>
   <g id="text_204">
    <!-- . -->
    <g transform="translate(196.737662 306.357777) scale(0.15 -0.15)">
     <use xlink:href="#DejaVuSans-2e"/>
    </g>
   </g>
   <g id="text_205">
    <!-- . -->
    <g transform="translate(199.056623 306.357777) scale(0.15 -0.15)">
     <use xlink:href="#DejaVuSans-2e"/>
    </g>
   </g>
   <g id="text_206">
    <!-- . -->
    <g transform="translate(201.375584 306.357777) scale(0.15 -0.15)">
     <use xlink:href="#DejaVuSans-2e"/>
    </g>
   </g>
   <g id="text_207">
    <!-- . -->
    <g transform="translate(203.694545 306.357777) scale(0.15 -0.15)">
     <use xlink:href="#DejaVuSans-2e"/>
    </g>
   </g>
   <g id="text_208">
    <!-- . -->
    <g transform="translate(206.013506 306.357777) scale(0.15 -0.15)">
     <use xlink:href="#DejaVuSans-2e"/>
    </g>
   </g>
   <g id="text_209">
    <!-- . -->
    <g transform="translate(208.332468 306.357777) scale(0.15 -0.15)">
     <use xlink:href="#DejaVuSans-2e"/>
    </g>
   </g>
   <g id="text_210">
    <!-- . -->
    <g transform="translate(210.651429 306.357777) scale(0.15 -0.15)">
     <use xlink:href="#DejaVuSans-2e"/>
    </g>
   </g>
   <g id="text_211">
    <!-- . -->
    <g transform="translate(212.97039 306.357777) scale(0.15 -0.15)">
     <use xlink:href="#DejaVuSans-2e"/>
    </g>
   </g>
   <g id="text_212">
    <!-- . -->
    <g transform="translate(215.289351 306.357777) scale(0.15 -0.15)">
     <use xlink:href="#DejaVuSans-2e"/>
    </g>
   </g>
   <g id="text_213">
    <!-- . -->
    <g transform="translate(217.608312 306.357777) scale(0.15 -0.15)">
     <use xlink:href="#DejaVuSans-2e"/>
    </g>
   </g>
   <g id="text_214">
    <!-- . -->
    <g transform="translate(219.927273 306.357777) scale(0.15 -0.15)">
     <use xlink:href="#DejaVuSans-2e"/>
    </g>
   </g>
   <g id="text_215">
    <!-- . -->
    <g transform="translate(222.246234 306.357777) scale(0.15 -0.15)">
     <use xlink:href="#DejaVuSans-2e"/>
    </g>
   </g>
   <g id="text_216">
    <!-- . -->
    <g transform="translate(224.565195 306.357777) scale(0.15 -0.15)">
     <use xlink:href="#DejaVuSans-2e"/>
    </g>
   </g>
   <g id="text_217">
    <!-- . -->
    <g transform="translate(226.884156 306.357777) scale(0.15 -0.15)">
     <use xlink:href="#DejaVuSans-2e"/>
    </g>
   </g>
   <g id="text_218">
    <!-- . -->
    <g transform="translate(229.203117 306.357777) scale(0.15 -0.15)">
     <use xlink:href="#DejaVuSans-2e"/>
    </g>
   </g>
   <g id="text_219">
    <!-- . -->
    <g transform="translate(231.522078 306.357777) scale(0.15 -0.15)">
     <use xlink:href="#DejaVuSans-2e"/>
    </g>
   </g>
   <g id="text_220">
    <!-- . -->
    <g transform="translate(233.841039 306.357777) scale(0.15 -0.15)">
     <use xlink:href="#DejaVuSans-2e"/>
    </g>
   </g>
   <g id="text_221">
    <!-- . -->
    <g transform="translate(236.16 306.357777) scale(0.15 -0.15)">
     <use xlink:href="#DejaVuSans-2e"/>
    </g>
   </g>
   <g id="text_222">
    <!-- . -->
    <g transform="translate(238.478961 306.357777) scale(0.15 -0.15)">
     <use xlink:href="#DejaVuSans-2e"/>
    </g>
   </g>
   <g id="text_223">
    <!-- . -->
    <g transform="translate(240.797922 306.357777) scale(0.15 -0.15)">
     <use xlink:href="#DejaVuSans-2e"/>
    </g>
   </g>
   <g id="text_224">
    <!-- . -->
    <g transform="translate(243.116883 306.357777) scale(0.15 -0.15)">
     <use xlink:href="#DejaVuSans-2e"/>
    </g>
   </g>
   <g id="text_225">
    <!-- . -->
    <g transform="translate(245.435844 306.357777) scale(0.15 -0.15)">
     <use xlink:href="#DejaVuSans-2e"/>
    </g>
   </g>
   <g id="text_226">
    <!-- . -->
    <g transform="translate(247.754805 306.357777) scale(0.15 -0.15)">
     <use xlink:href="#DejaVuSans-2e"/>
    </g>
   </g>
   <g id="text_227">
    <!-- . -->
    <g transform="translate(250.073766 306.357777) scale(0.15 -0.15)">
     <use xlink:href="#DejaVuSans-2e"/>
    </g>
   </g>
   <g id="text_228">
    <!-- . -->
    <g transform="translate(252.392727 306.357777) scale(0.15 -0.15)">
     <use xlink:href="#DejaVuSans-2e"/>
    </g>
   </g>
   <g id="text_229">
    <!-- . -->
    <g transform="translate(254.711688 306.357777) scale(0.15 -0.15)">
     <use xlink:href="#DejaVuSans-2e"/>
    </g>
   </g>
   <g id="text_230">
    <!-- . -->
    <g transform="translate(257.030649 306.357777) scale(0.15 -0.15)">
     <use xlink:href="#DejaVuSans-2e"/>
    </g>
   </g>
   <g id="text_231">
    <!-- . -->
    <g transform="translate(259.34961 306.357777) scale(0.15 -0.15)">
     <use xlink:href="#DejaVuSans-2e"/>
    </g>
   </g>
   <g id="text_232">
    <!-- . -->
    <g transform="translate(261.668571 306.357777) scale(0.15 -0.15)">
     <use xlink:href="#DejaVuSans-2e"/>
    </g>
   </g>
   <g id="text_233">
    <!-- . -->
    <g transform="translate(263.987532 306.357777) scale(0.15 -0.15)">
     <use xlink:href="#DejaVuSans-2e"/>
    </g>
   </g>
   <g id="text_234">
    <!-- . -->
    <g transform="translate(266.306494 306.357777) scale(0.15 -0.15)">
     <use xlink:href="#DejaVuSans-2e"/>
    </g>
   </g>
   <g id="text_235">
    <!-- . -->
    <g transform="translate(268.625455 306.357777) scale(0.15 -0.15)">
     <use xlink:href="#DejaVuSans-2e"/>
    </g>
   </g>
   <g id="text_236">
    <!-- . -->
    <g transform="translate(270.944416 306.357777) scale(0.15 -0.15)">
     <use xlink:href="#DejaVuSans-2e"/>
    </g>
   </g>
   <g id="text_237">
    <!-- . -->
    <g transform="translate(273.263377 306.357777) scale(0.15 -0.15)">
     <use xlink:href="#DejaVuSans-2e"/>
    </g>
   </g>
   <g id="text_238">
    <!-- . -->
    <g transform="translate(275.582338 306.357777) scale(0.15 -0.15)">
     <use xlink:href="#DejaVuSans-2e"/>
    </g>
   </g>
   <g id="text_239">
    <!-- . -->
    <g transform="translate(277.901299 306.357777) scale(0.15 -0.15)">
     <use xlink:href="#DejaVuSans-2e"/>
    </g>
   </g>
   <g id="text_240">
    <!-- . -->
    <g transform="translate(280.22026 306.357777) scale(0.15 -0.15)">
     <use xlink:href="#DejaVuSans-2e"/>
    </g>
   </g>
   <g id="text_241">
    <!-- . -->
    <g transform="translate(282.539221 306.357777) scale(0.15 -0.15)">
     <use xlink:href="#DejaVuSans-2e"/>
    </g>
   </g>
   <g id="text_242">
    <!-- . -->
    <g transform="translate(284.858182 306.357777) scale(0.15 -0.15)">
     <use xlink:href="#DejaVuSans-2e"/>
    </g>
   </g>
   <g id="text_243">
    <!-- . -->
    <g transform="translate(287.177143 306.357777) scale(0.15 -0.15)">
     <use xlink:href="#DejaVuSans-2e"/>
    </g>
   </g>
   <g id="text_244">
    <!-- . -->
    <g transform="translate(289.496104 306.357777) scale(0.15 -0.15)">
     <use xlink:href="#DejaVuSans-2e"/>
    </g>
   </g>
   <g id="text_245">
    <!-- . -->
    <g transform="translate(291.815065 306.357777) scale(0.15 -0.15)">
     <use xlink:href="#DejaVuSans-2e"/>
    </g>
   </g>
   <g id="text_246">
    <!-- . -->
    <g transform="translate(294.134026 306.357777) scale(0.15 -0.15)">
     <use xlink:href="#DejaVuSans-2e"/>
    </g>
   </g>
   <g id="text_247">
    <!-- . -->
    <g transform="translate(296.452987 306.357777) scale(0.15 -0.15)">
     <use xlink:href="#DejaVuSans-2e"/>
    </g>
   </g>
   <g id="text_248">
    <!-- . -->
    <g transform="translate(298.771948 306.357777) scale(0.15 -0.15)">
     <use xlink:href="#DejaVuSans-2e"/>
    </g>
   </g>
   <g id="text_249">
    <!-- . -->
    <g transform="translate(301.090909 306.357777) scale(0.15 -0.15)">
     <use xlink:href="#DejaVuSans-2e"/>
    </g>
   </g>
   <g id="text_250">
    <!-- . -->
    <g transform="translate(303.40987 306.357777) scale(0.15 -0.15)">
     <use xlink:href="#DejaVuSans-2e"/>
    </g>
   </g>
   <g id="text_251">
    <!-- . -->
    <g transform="translate(305.728831 306.357777) scale(0.15 -0.15)">
     <use xlink:href="#DejaVuSans-2e"/>
    </g>
   </g>
   <g id="text_252">
    <!-- . -->
    <g transform="translate(308.047792 306.357777) scale(0.15 -0.15)">
     <use xlink:href="#DejaVuSans-2e"/>
    </g>
   </g>
   <g id="text_253">
    <!-- . -->
    <g transform="translate(310.366753 306.357777) scale(0.15 -0.15)">
     <use xlink:href="#DejaVuSans-2e"/>
    </g>
   </g>
   <g id="text_254">
    <!-- . -->
    <g transform="translate(312.685714 306.357777) scale(0.15 -0.15)">
     <use xlink:href="#DejaVuSans-2e"/>
    </g>
   </g>
   <g id="text_255">
    <!-- . -->
    <g transform="translate(315.004675 306.357777) scale(0.15 -0.15)">
     <use xlink:href="#DejaVuSans-2e"/>
    </g>
   </g>
   <g id="text_256">
    <!-- . -->
    <g transform="translate(317.323636 306.357777) scale(0.15 -0.15)">
     <use xlink:href="#DejaVuSans-2e"/>
    </g>
   </g>
   <g id="text_257">
    <!-- . -->
    <g transform="translate(319.642597 306.357777) scale(0.15 -0.15)">
     <use xlink:href="#DejaVuSans-2e"/>
    </g>
   </g>
   <g id="text_258">
    <!-- . -->
    <g transform="translate(321.961558 306.357777) scale(0.15 -0.15)">
     <use xlink:href="#DejaVuSans-2e"/>
    </g>
   </g>
   <g id="text_259">
    <!-- . -->
    <g transform="translate(324.280519 306.357777) scale(0.15 -0.15)">
     <use xlink:href="#DejaVuSans-2e"/>
    </g>
   </g>
   <g id="text_260">
    <!-- . -->
    <g transform="translate(326.599481 306.357777) scale(0.15 -0.15)">
     <use xlink:href="#DejaVuSans-2e"/>
    </g>
   </g>
   <g id="text_261">
    <!-- . -->
    <g transform="translate(328.918442 306.357777) scale(0.15 -0.15)">
     <use xlink:href="#DejaVuSans-2e"/>
    </g>
   </g>
   <g id="text_262">
    <!-- . -->
    <g transform="translate(331.237403 306.357777) scale(0.15 -0.15)">
     <use xlink:href="#DejaVuSans-2e"/>
    </g>
   </g>
   <g id="text_263">
    <!-- . -->
    <g transform="translate(333.556364 306.357777) scale(0.15 -0.15)">
     <use xlink:href="#DejaVuSans-2e"/>
    </g>
   </g>
   <g id="text_264">
    <!-- . -->
    <g transform="translate(335.875325 306.357777) scale(0.15 -0.15)">
     <use xlink:href="#DejaVuSans-2e"/>
    </g>
   </g>
   <g id="text_265">
    <!-- . -->
    <g transform="translate(338.194286 306.357777) scale(0.15 -0.15)">
     <use xlink:href="#DejaVuSans-2e"/>
    </g>
   </g>
   <g id="text_266">
    <!-- . -->
    <g transform="translate(340.513247 306.357777) scale(0.15 -0.15)">
     <use xlink:href="#DejaVuSans-2e"/>
    </g>
   </g>
   <g id="text_267">
    <!-- . -->
    <g transform="translate(342.832208 306.357777) scale(0.15 -0.15)">
     <use xlink:href="#DejaVuSans-2e"/>
    </g>
   </g>
   <g id="text_268">
    <!-- . -->
    <g transform="translate(345.151169 306.357777) scale(0.15 -0.15)">
     <use xlink:href="#DejaVuSans-2e"/>
    </g>
   </g>
   <g id="text_269">
    <!-- . -->
    <g transform="translate(347.47013 306.357777) scale(0.15 -0.15)">
     <use xlink:href="#DejaVuSans-2e"/>
    </g>
   </g>
   <g id="text_270">
    <!-- . -->
    <g transform="translate(349.789091 306.357777) scale(0.15 -0.15)">
     <use xlink:href="#DejaVuSans-2e"/>
    </g>
   </g>
   <g id="text_271">
    <!-- . -->
    <g transform="translate(352.108052 306.357777) scale(0.15 -0.15)">
     <use xlink:href="#DejaVuSans-2e"/>
    </g>
   </g>
   <g id="text_272">
    <!-- . -->
    <g transform="translate(354.427013 306.357777) scale(0.15 -0.15)">
     <use xlink:href="#DejaVuSans-2e"/>
    </g>
   </g>
   <g id="text_273">
    <!-- . -->
    <g transform="translate(356.745974 306.357777) scale(0.15 -0.15)">
     <use xlink:href="#DejaVuSans-2e"/>
    </g>
   </g>
   <g id="text_274">
    <!-- . -->
    <g transform="translate(359.064935 306.357777) scale(0.15 -0.15)">
     <use xlink:href="#DejaVuSans-2e"/>
    </g>
   </g>
   <g id="text_275">
    <!-- . -->
    <g transform="translate(361.383896 306.357777) scale(0.15 -0.15)">
     <use xlink:href="#DejaVuSans-2e"/>
    </g>
   </g>
   <g id="text_276">
    <!-- . -->
    <g transform="translate(363.702857 306.357777) scale(0.15 -0.15)">
     <use xlink:href="#DejaVuSans-2e"/>
    </g>
   </g>
   <g id="text_277">
    <!-- . -->
    <g transform="translate(366.021818 306.357777) scale(0.15 -0.15)">
     <use xlink:href="#DejaVuSans-2e"/>
    </g>
   </g>
   <g id="text_278">
    <!-- . -->
    <g transform="translate(368.340779 306.357777) scale(0.15 -0.15)">
     <use xlink:href="#DejaVuSans-2e"/>
    </g>
   </g>
   <g id="text_279">
    <!-- . -->
    <g transform="translate(370.65974 306.357777) scale(0.15 -0.15)">
     <use xlink:href="#DejaVuSans-2e"/>
    </g>
   </g>
   <g id="text_280">
    <!-- . -->
    <g transform="translate(372.978701 306.357777) scale(0.15 -0.15)">
     <use xlink:href="#DejaVuSans-2e"/>
    </g>
   </g>
   <g id="text_281">
    <!-- . -->
    <g transform="translate(375.297662 306.357777) scale(0.15 -0.15)">
     <use xlink:href="#DejaVuSans-2e"/>
    </g>
   </g>
   <g id="text_282">
    <!-- . -->
    <g transform="translate(377.616623 306.357777) scale(0.15 -0.15)">
     <use xlink:href="#DejaVuSans-2e"/>
    </g>
   </g>
   <g id="text_283">
    <!-- . -->
    <g transform="translate(379.935584 306.357777) scale(0.15 -0.15)">
     <use xlink:href="#DejaVuSans-2e"/>
    </g>
   </g>
   <g id="text_284">
    <!-- . -->
    <g transform="translate(382.254545 306.357777) scale(0.15 -0.15)">
     <use xlink:href="#DejaVuSans-2e"/>
    </g>
   </g>
   <g id="text_285">
    <!-- . -->
    <g transform="translate(384.573506 306.357777) scale(0.15 -0.15)">
     <use xlink:href="#DejaVuSans-2e"/>
    </g>
   </g>
   <g id="text_286">
    <!-- . -->
    <g transform="translate(386.892468 306.357777) scale(0.15 -0.15)">
     <use xlink:href="#DejaVuSans-2e"/>
    </g>
   </g>
   <g id="text_287">
    <!-- . -->
    <g transform="translate(389.211429 306.357777) scale(0.15 -0.15)">
     <use xlink:href="#DejaVuSans-2e"/>
    </g>
   </g>
   <g id="text_288">
    <!-- . -->
    <g transform="translate(391.53039 306.357777) scale(0.15 -0.15)">
     <use xlink:href="#DejaVuSans-2e"/>
    </g>
   </g>
   <g id="text_289">
    <!-- . -->
    <g transform="translate(393.849351 306.357777) scale(0.15 -0.15)">
     <use xlink:href="#DejaVuSans-2e"/>
    </g>
   </g>
   <g id="text_290">
    <!-- . -->
    <g transform="translate(396.168312 306.357777) scale(0.15 -0.15)">
     <use xlink:href="#DejaVuSans-2e"/>
    </g>
   </g>
   <g id="text_291">
    <!-- . -->
    <g transform="translate(398.487273 306.357777) scale(0.15 -0.15)">
     <use xlink:href="#DejaVuSans-2e"/>
    </g>
   </g>
   <g id="legend_1">
    <g id="patch_5">
     <path d="M 285.104375 78.82825 
L 407.72 78.82825 
Q 409.72 78.82825 409.72 76.82825 
L 409.72 48.472 
Q 409.72 46.472 407.72 46.472 
L 285.104375 46.472 
Q 283.104375 46.472 283.104375 48.472 
L 283.104375 76.82825 
Q 283.104375 78.82825 285.104375 78.82825 
z
" style="fill: #ffffff; opacity: 0.8; stroke: #cccccc; stroke-linejoin: miter"/>
    </g>
    <g id="line2d_21">
     <path d="M 287.104375 54.570437 
L 297.104375 54.570437 
L 307.104375 54.570437 
" style="fill: none; stroke: #ff2c55; stroke-linecap: square"/>
    </g>
    <g id="text_292">
     <!-- Affordances (EEG) -->
     <g transform="translate(315.104375 58.070437) scale(0.1 -0.1)">
      <defs>
       <path id="DejaVuSans-41" d="M 2188 4044 
L 1331 1722 
L 3047 1722 
L 2188 4044 
z
M 1831 4666 
L 2547 4666 
L 4325 0 
L 3669 0 
L 3244 1197 
L 1141 1197 
L 716 0 
L 50 0 
L 1831 4666 
z
" transform="scale(0.015625)"/>
       <path id="DejaVuSans-66" d="M 2375 4863 
L 2375 4384 
L 1825 4384 
Q 1516 4384 1395 4259 
Q 1275 4134 1275 3809 
L 1275 3500 
L 2222 3500 
L 2222 3053 
L 1275 3053 
L 1275 0 
L 697 0 
L 697 3053 
L 147 3053 
L 147 3500 
L 697 3500 
L 697 3744 
Q 697 4328 969 4595 
Q 1241 4863 1831 4863 
L 2375 4863 
z
" transform="scale(0.015625)"/>
       <path id="DejaVuSans-64" d="M 2906 2969 
L 2906 4863 
L 3481 4863 
L 3481 0 
L 2906 0 
L 2906 525 
Q 2725 213 2448 61 
Q 2172 -91 1784 -91 
Q 1150 -91 751 415 
Q 353 922 353 1747 
Q 353 2572 751 3078 
Q 1150 3584 1784 3584 
Q 2172 3584 2448 3432 
Q 2725 3281 2906 2969 
z
M 947 1747 
Q 947 1113 1208 752 
Q 1469 391 1925 391 
Q 2381 391 2643 752 
Q 2906 1113 2906 1747 
Q 2906 2381 2643 2742 
Q 2381 3103 1925 3103 
Q 1469 3103 1208 2742 
Q 947 2381 947 1747 
z
" transform="scale(0.015625)"/>
       <path id="DejaVuSans-63" d="M 3122 3366 
L 3122 2828 
Q 2878 2963 2633 3030 
Q 2388 3097 2138 3097 
Q 1578 3097 1268 2742 
Q 959 2388 959 1747 
Q 959 1106 1268 751 
Q 1578 397 2138 397 
Q 2388 397 2633 464 
Q 2878 531 3122 666 
L 3122 134 
Q 2881 22 2623 -34 
Q 2366 -91 2075 -91 
Q 1284 -91 818 406 
Q 353 903 353 1747 
Q 353 2603 823 3093 
Q 1294 3584 2113 3584 
Q 2378 3584 2631 3529 
Q 2884 3475 3122 3366 
z
" transform="scale(0.015625)"/>
       <path id="DejaVuSans-45" d="M 628 4666 
L 3578 4666 
L 3578 4134 
L 1259 4134 
L 1259 2753 
L 3481 2753 
L 3481 2222 
L 1259 2222 
L 1259 531 
L 3634 531 
L 3634 0 
L 628 0 
L 628 4666 
z
" transform="scale(0.015625)"/>
       <path id="DejaVuSans-47" d="M 3809 666 
L 3809 1919 
L 2778 1919 
L 2778 2438 
L 4434 2438 
L 4434 434 
Q 4069 175 3628 42 
Q 3188 -91 2688 -91 
Q 1594 -91 976 548 
Q 359 1188 359 2328 
Q 359 3472 976 4111 
Q 1594 4750 2688 4750 
Q 3144 4750 3555 4637 
Q 3966 4525 4313 4306 
L 4313 3634 
Q 3963 3931 3569 4081 
Q 3175 4231 2741 4231 
Q 1884 4231 1454 3753 
Q 1025 3275 1025 2328 
Q 1025 1384 1454 906 
Q 1884 428 2741 428 
Q 3075 428 3337 486 
Q 3600 544 3809 666 
z
" transform="scale(0.015625)"/>
      </defs>
      <use xlink:href="#DejaVuSans-41"/>
      <use xlink:href="#DejaVuSans-66" x="64.783203"/>
      <use xlink:href="#DejaVuSans-66" x="99.988281"/>
      <use xlink:href="#DejaVuSans-6f" x="135.193359"/>
      <use xlink:href="#DejaVuSans-72" x="196.375"/>
      <use xlink:href="#DejaVuSans-64" x="235.738281"/>
      <use xlink:href="#DejaVuSans-61" x="299.214844"/>
      <use xlink:href="#DejaVuSans-6e" x="360.494141"/>
      <use xlink:href="#DejaVuSans-63" x="423.873047"/>
      <use xlink:href="#DejaVuSans-65" x="478.853516"/>
      <use xlink:href="#DejaVuSans-73" x="540.376953"/>
      <use xlink:href="#DejaVuSans-20" x="592.476562"/>
      <use xlink:href="#DejaVuSans-28" x="624.263672"/>
      <use xlink:href="#DejaVuSans-45" x="663.277344"/>
      <use xlink:href="#DejaVuSans-45" x="726.460938"/>
      <use xlink:href="#DejaVuSans-47" x="789.644531"/>
      <use xlink:href="#DejaVuSans-29" x="867.134766"/>
     </g>
    </g>
    <g id="line2d_22">
     <path d="M 287.104375 69.248562 
L 297.104375 69.248562 
L 307.104375 69.248562 
" style="fill: none; stroke: #348aa7; stroke-linecap: square"/>
    </g>
    <g id="text_293">
     <!-- OPA -->
     <g transform="translate(315.104375 72.748562) scale(0.1 -0.1)">
      <defs>
       <path id="DejaVuSans-4f" d="M 2522 4238 
Q 1834 4238 1429 3725 
Q 1025 3213 1025 2328 
Q 1025 1447 1429 934 
Q 1834 422 2522 422 
Q 3209 422 3611 934 
Q 4013 1447 4013 2328 
Q 4013 3213 3611 3725 
Q 3209 4238 2522 4238 
z
M 2522 4750 
Q 3503 4750 4090 4092 
Q 4678 3434 4678 2328 
Q 4678 1225 4090 567 
Q 3503 -91 2522 -91 
Q 1538 -91 948 565 
Q 359 1222 359 2328 
Q 359 3434 948 4092 
Q 1538 4750 2522 4750 
z
" transform="scale(0.015625)"/>
       <path id="DejaVuSans-50" d="M 1259 4147 
L 1259 2394 
L 2053 2394 
Q 2494 2394 2734 2622 
Q 2975 2850 2975 3272 
Q 2975 3691 2734 3919 
Q 2494 4147 2053 4147 
L 1259 4147 
z
M 628 4666 
L 2053 4666 
Q 2838 4666 3239 4311 
Q 3641 3956 3641 3272 
Q 3641 2581 3239 2228 
Q 2838 1875 2053 1875 
L 1259 1875 
L 1259 0 
L 628 0 
L 628 4666 
z
" transform="scale(0.015625)"/>
      </defs>
      <use xlink:href="#DejaVuSans-4f"/>
      <use xlink:href="#DejaVuSans-50" x="78.710938"/>
      <use xlink:href="#DejaVuSans-41" x="132.638672"/>
     </g>
    </g>
   </g>
  </g>
 </g>
 <defs>
  <clipPath id="p65a52d4d04">
   <rect x="57.6" y="41.472" width="357.12" height="266.112"/>
  </clipPath>
 </defs>
</svg>
