<?xml version="1.0" encoding="utf-8" standalone="no"?>
<!DOCTYPE svg PUBLIC "-//W3C//DTD SVG 1.1//EN"
  "http://www.w3.org/Graphics/SVG/1.1/DTD/svg11.dtd">
<svg xmlns:xlink="http://www.w3.org/1999/xlink" width="460.8pt" height="345.6pt" viewBox="0 0 460.8 345.6" xmlns="http://www.w3.org/2000/svg" version="1.1">
 <metadata>
  <rdf:RDF xmlns:dc="http://purl.org/dc/elements/1.1/" xmlns:cc="http://creativecommons.org/ns#" xmlns:rdf="http://www.w3.org/1999/02/22-rdf-syntax-ns#">
   <cc:Work>
    <dc:type rdf:resource="http://purl.org/dc/dcmitype/StillImage"/>
    <dc:date>2025-12-03T13:36:23.341679</dc:date>
    <dc:format>image/svg+xml</dc:format>
    <dc:creator>
     <cc:Agent>
      <dc:title>Matplotlib v3.6.2, https://matplotlib.org/</dc:title>
     </cc:Agent>
    </dc:creator>
   </cc:Work>
  </rdf:RDF>
 </metadata>
 <defs>
  <style type="text/css">*{stroke-linejoin: round; stroke-linecap: butt}</style>
 </defs>
 <g id="figure_1">
  <g id="patch_1">
   <path d="M 0 345.6 
L 460.8 345.6 
L 460.8 0 
L 0 0 
L 0 345.6 
z
" style="fill: none"/>
  </g>
  <g id="axes_1">
   <g id="patch_2">
    <path d="M 57.6 307.584 
L 414.72 307.584 
L 414.72 41.472 
L 57.6 41.472 
L 57.6 307.584 
z
" style="fill: none"/>
   </g>
   <g id="PolyCollection_1">
    <defs>
     <path id="m288a906be9" d="M 73.832727 -94.156407 
L 73.832727 -74.287005 
L 76.151688 -78.800733 
L 78.470649 -83.537555 
L 80.78961 -80.462729 
L 83.108571 -94.844523 
L 85.427532 -97.514565 
L 87.746494 -105.88573 
L 90.065455 -95.167898 
L 92.384416 -82.79904 
L 94.703377 -82.030514 
L 97.022338 -93.105774 
L 99.341299 -103.405244 
L 101.66026 -109.247127 
L 103.979221 -103.71075 
L 106.298182 -92.680233 
L 108.617143 -79.560612 
L 110.936104 -74.294162 
L 113.255065 -69.17411 
L 115.574026 -63.077892 
L 117.892987 -54.955575 
L 120.211948 -54.760475 
L 122.530909 -65.671739 
L 124.84987 -71.935122 
L 127.168831 -80.310039 
L 129.487792 -88.584057 
L 131.806753 -85.771006 
L 134.125714 -80.386579 
L 136.444675 -83.56888 
L 138.763636 -90.91585 
L 141.082597 -92.922916 
L 143.401558 -90.824371 
L 145.720519 -95.131039 
L 148.039481 -110.901357 
L 150.358442 -141.453464 
L 152.677403 -162.810982 
L 154.996364 -172.65593 
L 157.315325 -180.104782 
L 159.634286 -187.648771 
L 161.953247 -197.850993 
L 164.272208 -206.604755 
L 166.591169 -206.324048 
L 168.91013 -200.268435 
L 171.229091 -192.000873 
L 173.548052 -183.668895 
L 175.867013 -171.810816 
L 178.185974 -156.297121 
L 180.504935 -141.001677 
L 182.823896 -129.811154 
L 185.142857 -119.757484 
L 187.461818 -110.86229 
L 189.780779 -103.800907 
L 192.09974 -98.536187 
L 194.418701 -95.283125 
L 196.737662 -96.467737 
L 199.056623 -96.692739 
L 201.375584 -95.025216 
L 203.694545 -96.30402 
L 206.013506 -98.146253 
L 208.332468 -96.618268 
L 210.651429 -93.368855 
L 212.97039 -91.336887 
L 215.289351 -91.490498 
L 217.608312 -92.200829 
L 219.927273 -89.539738 
L 222.246234 -87.286197 
L 224.565195 -88.961092 
L 226.884156 -91.852006 
L 229.203117 -92.901247 
L 231.522078 -94.548856 
L 233.841039 -98.149074 
L 236.16 -100.621834 
L 238.478961 -99.867629 
L 240.797922 -96.683292 
L 243.116883 -91.971987 
L 245.435844 -86.393019 
L 247.754805 -80.884485 
L 250.073766 -75.026019 
L 252.392727 -72.00698 
L 254.711688 -71.134578 
L 257.030649 -70.701251 
L 259.34961 -68.445002 
L 261.668571 -63.059947 
L 263.987532 -56.217867 
L 266.306494 -49.188689 
L 268.625455 -44.531241 
L 270.944416 -44.507008 
L 273.263377 -49.983975 
L 275.582338 -59.898356 
L 277.901299 -70.093681 
L 280.22026 -74.424453 
L 282.539221 -73.759279 
L 284.858182 -72.385641 
L 287.177143 -72.987714 
L 289.496104 -75.684723 
L 291.815065 -78.948429 
L 294.134026 -79.375181 
L 296.452987 -77.224906 
L 298.771948 -75.179646 
L 301.090909 -73.663081 
L 303.40987 -69.233581 
L 305.728831 -63.384416 
L 308.047792 -59.179034 
L 310.366753 -58.432256 
L 312.685714 -59.313504 
L 315.004675 -62.584369 
L 317.323636 -67.139189 
L 319.642597 -71.019609 
L 321.961558 -72.403014 
L 324.280519 -71.212947 
L 326.599481 -68.849568 
L 328.918442 -65.77518 
L 331.237403 -64.682213 
L 333.556364 -67.058046 
L 335.875325 -72.532995 
L 338.194286 -76.395444 
L 340.513247 -78.06263 
L 342.832208 -79.262999 
L 345.151169 -80.016011 
L 347.47013 -79.186846 
L 349.789091 -79.100305 
L 352.108052 -80.718054 
L 354.427013 -81.639281 
L 356.745974 -81.260251 
L 359.064935 -79.819669 
L 361.383896 -77.647389 
L 363.702857 -76.294863 
L 366.021818 -79.109889 
L 368.340779 -86.723643 
L 370.65974 -96.128913 
L 372.978701 -102.92205 
L 375.297662 -105.867157 
L 377.616623 -104.242616 
L 379.935584 -97.956298 
L 382.254545 -89.87293 
L 384.573506 -84.337589 
L 386.892468 -83.232414 
L 389.211429 -86.138508 
L 391.53039 -89.756956 
L 393.849351 -93.212786 
L 396.168312 -96.057239 
L 398.487273 -96.824983 
L 398.487273 -151.412524 
L 398.487273 -151.412524 
L 396.168312 -151.685083 
L 393.849351 -150.113044 
L 391.53039 -147.378771 
L 389.211429 -144.505526 
L 386.892468 -141.563236 
L 384.573506 -142.431955 
L 382.254545 -147.755097 
L 379.935584 -154.974396 
L 377.616623 -160.399395 
L 375.297662 -161.954056 
L 372.978701 -158.695543 
L 370.65974 -151.211881 
L 368.340779 -140.667708 
L 366.021818 -131.479302 
L 363.702857 -126.595962 
L 361.383896 -125.165002 
L 359.064935 -126.23352 
L 356.745974 -128.969111 
L 354.427013 -131.807133 
L 352.108052 -132.474192 
L 349.789091 -130.700279 
L 347.47013 -128.718299 
L 345.151169 -127.129142 
L 342.832208 -125.02228 
L 340.513247 -124.769243 
L 338.194286 -126.433409 
L 335.875325 -127.693572 
L 333.556364 -126.446436 
L 331.237403 -126.104323 
L 328.918442 -127.330925 
L 326.599481 -128.966755 
L 324.280519 -128.392543 
L 321.961558 -126.600644 
L 319.642597 -123.170969 
L 317.323636 -118.386605 
L 315.004675 -114.747659 
L 312.685714 -113.982436 
L 310.366753 -117.377127 
L 308.047792 -122.154725 
L 305.728831 -128.907404 
L 303.40987 -136.752268 
L 301.090909 -143.173407 
L 298.771948 -145.778709 
L 296.452987 -147.303067 
L 294.134026 -148.067235 
L 291.815065 -147.102284 
L 289.496104 -143.867545 
L 287.177143 -141.652379 
L 284.858182 -141.475992 
L 282.539221 -143.766859 
L 280.22026 -144.801666 
L 277.901299 -139.386856 
L 275.582338 -127.583913 
L 273.263377 -116.502897 
L 270.944416 -108.510442 
L 268.625455 -104.839328 
L 266.306494 -106.473607 
L 263.987532 -113.699931 
L 261.668571 -121.682488 
L 259.34961 -127.667732 
L 257.030649 -131.046514 
L 254.711688 -134.082402 
L 252.392727 -138.924559 
L 250.073766 -145.691622 
L 247.754805 -153.479637 
L 245.435844 -160.019662 
L 243.116883 -165.331653 
L 240.797922 -169.519478 
L 238.478961 -170.320928 
L 236.16 -168.624407 
L 233.841039 -164.309429 
L 231.522078 -159.34117 
L 229.203117 -155.647945 
L 226.884156 -154.85738 
L 224.565195 -153.654865 
L 222.246234 -152.688875 
L 219.927273 -154.086797 
L 217.608312 -154.601403 
L 215.289351 -151.533836 
L 212.97039 -149.958137 
L 210.651429 -150.26886 
L 208.332468 -151.586904 
L 206.013506 -154.868725 
L 203.694545 -159.41122 
L 201.375584 -163.899319 
L 199.056623 -169.233949 
L 196.737662 -171.551235 
L 194.418701 -171.948491 
L 192.09974 -175.500835 
L 189.780779 -179.951895 
L 187.461818 -185.553067 
L 185.142857 -193.198423 
L 182.823896 -199.044829 
L 180.504935 -203.494275 
L 178.185974 -211.544957 
L 175.867013 -223.696159 
L 173.548052 -237.388034 
L 171.229091 -248.785727 
L 168.91013 -256.395218 
L 166.591169 -259.56642 
L 164.272208 -260.167564 
L 161.953247 -257.341364 
L 159.634286 -254.738305 
L 157.315325 -252.878067 
L 154.996364 -247.812316 
L 152.677403 -234.778737 
L 150.358442 -210.286724 
L 148.039481 -178.918443 
L 145.720519 -161.922231 
L 143.401558 -154.027965 
L 141.082597 -152.896227 
L 138.763636 -153.165642 
L 136.444675 -149.576091 
L 134.125714 -142.571225 
L 131.806753 -135.667534 
L 129.487792 -128.616319 
L 127.168831 -121.974387 
L 124.84987 -116.934846 
L 122.530909 -96.670278 
L 120.211948 -78.910138 
L 117.892987 -74.41784 
L 115.574026 -82.843487 
L 113.255065 -90.360241 
L 110.936104 -92.148999 
L 108.617143 -98.56358 
L 106.298182 -116.559448 
L 103.979221 -128.589701 
L 101.66026 -130.726197 
L 99.341299 -117.94918 
L 97.022338 -115.580051 
L 94.703377 -110.826104 
L 92.384416 -114.895047 
L 90.065455 -124.651729 
L 87.746494 -124.022533 
L 85.427532 -112.584169 
L 83.108571 -116.625665 
L 80.78961 -109.972255 
L 78.470649 -105.353797 
L 76.151688 -99.874005 
L 73.832727 -94.156407 
z
" style="stroke: #ff2c55; stroke-opacity: 0.1"/>
    </defs>
    <g clip-path="url(#p56aa369c88)">
     <use xlink:href="#m288a906be9" x="0" y="345.6" style="fill: #ff2c55; fill-opacity: 0.1; stroke: #ff2c55; stroke-opacity: 0.1"/>
    </g>
   </g>
   <g id="PolyCollection_2">
    <defs>
     <path id="md44239c27f" d="M 73.832727 -109.302277 
L 73.832727 -94.224577 
L 76.151688 -89.821248 
L 78.470649 -84.52846 
L 80.78961 -81.951694 
L 83.108571 -70.325406 
L 85.427532 -63.271229 
L 87.746494 -55.94908 
L 90.065455 -68.060653 
L 92.384416 -79.133947 
L 94.703377 -77.018479 
L 97.022338 -60.890029 
L 99.341299 -61.739958 
L 101.66026 -67.813508 
L 103.979221 -73.102879 
L 106.298182 -79.227698 
L 108.617143 -95.093422 
L 110.936104 -101.12671 
L 113.255065 -105.260767 
L 115.574026 -108.26109 
L 117.892987 -99.195135 
L 120.211948 -88.743696 
L 122.530909 -91.069866 
L 124.84987 -119.940753 
L 127.168831 -141.098489 
L 129.487792 -144.953737 
L 131.806753 -142.545852 
L 134.125714 -133.766805 
L 136.444675 -117.898745 
L 138.763636 -116.60814 
L 141.082597 -124.449992 
L 143.401558 -123.694549 
L 145.720519 -113.677591 
L 148.039481 -98.836174 
L 150.358442 -77.242001 
L 152.677403 -64.063633 
L 154.996364 -59.055813 
L 157.315325 -55.201809 
L 159.634286 -50.898574 
L 161.953247 -46.115872 
L 164.272208 -42.639852 
L 166.591169 -46.524741 
L 168.91013 -53.800125 
L 171.229091 -61.300155 
L 173.548052 -66.135531 
L 175.867013 -70.473261 
L 178.185974 -74.386395 
L 180.504935 -77.688919 
L 182.823896 -80.34644 
L 185.142857 -87.007627 
L 187.461818 -96.28401 
L 189.780779 -102.772878 
L 192.09974 -104.07106 
L 194.418701 -100.691269 
L 196.737662 -91.751361 
L 199.056623 -81.689672 
L 201.375584 -76.041926 
L 203.694545 -75.195846 
L 206.013506 -78.078282 
L 208.332468 -80.73748 
L 210.651429 -82.390158 
L 212.97039 -82.513862 
L 215.289351 -78.975428 
L 217.608312 -71.144269 
L 219.927273 -66.92188 
L 222.246234 -67.332458 
L 224.565195 -68.527579 
L 226.884156 -69.873365 
L 229.203117 -72.957966 
L 231.522078 -73.866737 
L 233.841039 -71.958547 
L 236.16 -68.681761 
L 238.478961 -64.447785 
L 240.797922 -60.627929 
L 243.116883 -58.071029 
L 245.435844 -56.506321 
L 247.754805 -56.414097 
L 250.073766 -60.608366 
L 252.392727 -66.656163 
L 254.711688 -71.853658 
L 257.030649 -75.375201 
L 259.34961 -79.938527 
L 261.668571 -87.875706 
L 263.987532 -99.906355 
L 266.306494 -111.323233 
L 268.625455 -116.712537 
L 270.944416 -115.944827 
L 273.263377 -110.902054 
L 275.582338 -101.413211 
L 277.901299 -91.91905 
L 280.22026 -87.625353 
L 282.539221 -86.55802 
L 284.858182 -84.179645 
L 287.177143 -80.197705 
L 289.496104 -76.377875 
L 291.815065 -72.266736 
L 294.134026 -69.550871 
L 296.452987 -69.957352 
L 298.771948 -73.769776 
L 301.090909 -78.310817 
L 303.40987 -85.398904 
L 305.728831 -93.466552 
L 308.047792 -99.318282 
L 310.366753 -101.192152 
L 312.685714 -99.701422 
L 315.004675 -95.054183 
L 317.323636 -89.205267 
L 319.642597 -84.653581 
L 321.961558 -83.489488 
L 324.280519 -85.409568 
L 326.599481 -86.949429 
L 328.918442 -88.582502 
L 331.237403 -90.652338 
L 333.556364 -92.574576 
L 335.875325 -93.340808 
L 338.194286 -94.81997 
L 340.513247 -97.973759 
L 342.832208 -100.365051 
L 345.151169 -97.991587 
L 347.47013 -91.110325 
L 349.789091 -81.062236 
L 352.108052 -71.463894 
L 354.427013 -64.077085 
L 356.745974 -59.778309 
L 359.064935 -60.036561 
L 361.383896 -63.056528 
L 363.702857 -66.675579 
L 366.021818 -67.949662 
L 368.340779 -64.980039 
L 370.65974 -59.296671 
L 372.978701 -53.666242 
L 375.297662 -48.301122 
L 377.616623 -46.314346 
L 379.935584 -48.31095 
L 382.254545 -52.474166 
L 384.573506 -55.93578 
L 386.892468 -57.61947 
L 389.211429 -55.596965 
L 391.53039 -51.526478 
L 393.849351 -46.369948 
L 396.168312 -42.980918 
L 398.487273 -41.553902 
L 398.487273 -89.053637 
L 398.487273 -89.053637 
L 396.168312 -92.315398 
L 393.849351 -96.899069 
L 391.53039 -102.932406 
L 389.211429 -107.692542 
L 386.892468 -109.256687 
L 384.573506 -107.380909 
L 382.254545 -104.497927 
L 379.935584 -100.474454 
L 377.616623 -97.189985 
L 375.297662 -96.904378 
L 372.978701 -100.040815 
L 370.65974 -104.620086 
L 368.340779 -110.401468 
L 366.021818 -114.52056 
L 363.702857 -114.380941 
L 361.383896 -110.862336 
L 359.064935 -107.426819 
L 356.745974 -107.30097 
L 354.427013 -111.451969 
L 352.108052 -117.062077 
L 349.789091 -122.821995 
L 347.47013 -127.711895 
L 345.151169 -130.327667 
L 342.832208 -130.649857 
L 340.513247 -128.379947 
L 338.194286 -127.018774 
L 335.875325 -129.05686 
L 333.556364 -131.558052 
L 331.237403 -133.416717 
L 328.918442 -135.529653 
L 326.599481 -137.003575 
L 324.280519 -136.955417 
L 321.961558 -134.825936 
L 319.642597 -134.27235 
L 317.323636 -136.5016 
L 315.004675 -140.251474 
L 312.685714 -144.126823 
L 310.366753 -146.522971 
L 308.047792 -145.059052 
L 305.728831 -139.184855 
L 303.40987 -132.700155 
L 301.090909 -129.347289 
L 298.771948 -129.073469 
L 296.452987 -128.829201 
L 294.134026 -130.405251 
L 291.815065 -133.538097 
L 289.496104 -136.427113 
L 287.177143 -137.867925 
L 284.858182 -139.132409 
L 282.539221 -140.645374 
L 280.22026 -142.79801 
L 277.901299 -148.809451 
L 275.582338 -160.149066 
L 273.263377 -171.870155 
L 270.944416 -178.087697 
L 268.625455 -178.054915 
L 266.306494 -172.956849 
L 263.987532 -163.381377 
L 261.668571 -152.366897 
L 259.34961 -143.782888 
L 257.030649 -138.177483 
L 254.711688 -134.984725 
L 252.392727 -132.029049 
L 250.073766 -127.499628 
L 247.754805 -122.704258 
L 245.435844 -121.089502 
L 243.116883 -120.766702 
L 240.797922 -120.806033 
L 238.478961 -120.547959 
L 236.16 -121.380005 
L 233.841039 -123.657646 
L 231.522078 -126.824187 
L 229.203117 -128.166778 
L 226.884156 -127.935856 
L 224.565195 -128.771801 
L 222.246234 -128.846389 
L 219.927273 -127.138781 
L 217.608312 -127.313671 
L 215.289351 -129.99684 
L 212.97039 -130.263149 
L 210.651429 -130.499011 
L 208.332468 -131.945436 
L 206.013506 -133.768051 
L 203.694545 -135.277728 
L 201.375584 -138.289337 
L 199.056623 -144.258044 
L 196.737662 -154.148486 
L 194.418701 -163.35657 
L 192.09974 -167.644749 
L 189.780779 -166.662637 
L 187.461818 -160.352326 
L 185.142857 -150.257921 
L 182.823896 -141.368375 
L 180.504935 -135.76568 
L 178.185974 -130.398353 
L 175.867013 -125.764789 
L 173.548052 -121.742194 
L 171.229091 -119.264139 
L 168.91013 -114.357524 
L 166.591169 -108.711809 
L 164.272208 -105.959509 
L 161.953247 -111.967696 
L 159.634286 -120.099501 
L 157.315325 -124.602005 
L 154.996364 -124.479554 
L 152.677403 -124.67124 
L 150.358442 -136.947049 
L 148.039481 -158.789907 
L 145.720519 -172.218875 
L 143.401558 -177.035218 
L 141.082597 -172.360793 
L 138.763636 -168.938889 
L 136.444675 -177.760385 
L 134.125714 -191.583339 
L 131.806753 -194.326415 
L 129.487792 -191.39209 
L 127.168831 -179.534761 
L 124.84987 -149.794977 
L 122.530909 -115.99936 
L 120.211948 -117.056199 
L 117.892987 -125.907955 
L 115.574026 -126.070857 
L 113.255065 -122.983932 
L 110.936104 -117.739589 
L 108.617143 -114.959 
L 106.298182 -105.074058 
L 103.979221 -95.709934 
L 101.66026 -85.879201 
L 99.341299 -79.292713 
L 97.022338 -83.474562 
L 94.703377 -100.400062 
L 92.384416 -105.572124 
L 90.065455 -85.511056 
L 87.746494 -72.264803 
L 85.427532 -82.745184 
L 83.108571 -90.200251 
L 80.78961 -106.111886 
L 78.470649 -107.246372 
L 76.151688 -109.070426 
L 73.832727 -109.302277 
z
" style="stroke: #0974f1; stroke-opacity: 0.1"/>
    </defs>
    <g clip-path="url(#p56aa369c88)">
     <use xlink:href="#md44239c27f" x="0" y="345.6" style="fill: #0974f1; fill-opacity: 0.1; stroke: #0974f1; stroke-opacity: 0.1"/>
    </g>
   </g>
   <g id="matplotlib.axis_1">
    <g id="xtick_1">
     <g id="line2d_1">
      <defs>
       <path id="m9f6605736a" d="M 0 0 
L 0 3.5 
" style="stroke: #000000; stroke-width: 0.8"/>
      </defs>
      <g>
       <use xlink:href="#m9f6605736a" x="103.346777" y="307.584" style="stroke: #000000; stroke-width: 0.8"/>
      </g>
     </g>
     <g id="text_1">
      <!-- 0.0 -->
      <g transform="translate(95.395214 322.182437) scale(0.1 -0.1)">
       <defs>
        <path id="DejaVuSans-30" d="M 2034 4250 
Q 1547 4250 1301 3770 
Q 1056 3291 1056 2328 
Q 1056 1369 1301 889 
Q 1547 409 2034 409 
Q 2525 409 2770 889 
Q 3016 1369 3016 2328 
Q 3016 3291 2770 3770 
Q 2525 4250 2034 4250 
z
M 2034 4750 
Q 2819 4750 3233 4129 
Q 3647 3509 3647 2328 
Q 3647 1150 3233 529 
Q 2819 -91 2034 -91 
Q 1250 -91 836 529 
Q 422 1150 422 2328 
Q 422 3509 836 4129 
Q 1250 4750 2034 4750 
z
" transform="scale(0.015625)"/>
        <path id="DejaVuSans-2e" d="M 684 794 
L 1344 794 
L 1344 0 
L 684 0 
L 684 794 
z
" transform="scale(0.015625)"/>
       </defs>
       <use xlink:href="#DejaVuSans-30"/>
       <use xlink:href="#DejaVuSans-2e" x="63.623047"/>
       <use xlink:href="#DejaVuSans-30" x="95.410156"/>
      </g>
     </g>
    </g>
    <g id="xtick_2">
     <g id="line2d_2">
      <g>
       <use xlink:href="#m9f6605736a" x="162.374876" y="307.584" style="stroke: #000000; stroke-width: 0.8"/>
      </g>
     </g>
     <g id="text_2">
      <!-- 0.2 -->
      <g transform="translate(154.423314 322.182437) scale(0.1 -0.1)">
       <defs>
        <path id="DejaVuSans-32" d="M 1228 531 
L 3431 531 
L 3431 0 
L 469 0 
L 469 531 
Q 828 903 1448 1529 
Q 2069 2156 2228 2338 
Q 2531 2678 2651 2914 
Q 2772 3150 2772 3378 
Q 2772 3750 2511 3984 
Q 2250 4219 1831 4219 
Q 1534 4219 1204 4116 
Q 875 4013 500 3803 
L 500 4441 
Q 881 4594 1212 4672 
Q 1544 4750 1819 4750 
Q 2544 4750 2975 4387 
Q 3406 4025 3406 3419 
Q 3406 3131 3298 2873 
Q 3191 2616 2906 2266 
Q 2828 2175 2409 1742 
Q 1991 1309 1228 531 
z
" transform="scale(0.015625)"/>
       </defs>
       <use xlink:href="#DejaVuSans-30"/>
       <use xlink:href="#DejaVuSans-2e" x="63.623047"/>
       <use xlink:href="#DejaVuSans-32" x="95.410156"/>
      </g>
     </g>
    </g>
    <g id="xtick_3">
     <g id="line2d_3">
      <g>
       <use xlink:href="#m9f6605736a" x="221.402975" y="307.584" style="stroke: #000000; stroke-width: 0.8"/>
      </g>
     </g>
     <g id="text_3">
      <!-- 0.4 -->
      <g transform="translate(213.451413 322.182437) scale(0.1 -0.1)">
       <defs>
        <path id="DejaVuSans-34" d="M 2419 4116 
L 825 1625 
L 2419 1625 
L 2419 4116 
z
M 2253 4666 
L 3047 4666 
L 3047 1625 
L 3713 1625 
L 3713 1100 
L 3047 1100 
L 3047 0 
L 2419 0 
L 2419 1100 
L 313 1100 
L 313 1709 
L 2253 4666 
z
" transform="scale(0.015625)"/>
       </defs>
       <use xlink:href="#DejaVuSans-30"/>
       <use xlink:href="#DejaVuSans-2e" x="63.623047"/>
       <use xlink:href="#DejaVuSans-34" x="95.410156"/>
      </g>
     </g>
    </g>
    <g id="xtick_4">
     <g id="line2d_4">
      <g>
       <use xlink:href="#m9f6605736a" x="280.431074" y="307.584" style="stroke: #000000; stroke-width: 0.8"/>
      </g>
     </g>
     <g id="text_4">
      <!-- 0.6 -->
      <g transform="translate(272.479512 322.182437) scale(0.1 -0.1)">
       <defs>
        <path id="DejaVuSans-36" d="M 2113 2584 
Q 1688 2584 1439 2293 
Q 1191 2003 1191 1497 
Q 1191 994 1439 701 
Q 1688 409 2113 409 
Q 2538 409 2786 701 
Q 3034 994 3034 1497 
Q 3034 2003 2786 2293 
Q 2538 2584 2113 2584 
z
M 3366 4563 
L 3366 3988 
Q 3128 4100 2886 4159 
Q 2644 4219 2406 4219 
Q 1781 4219 1451 3797 
Q 1122 3375 1075 2522 
Q 1259 2794 1537 2939 
Q 1816 3084 2150 3084 
Q 2853 3084 3261 2657 
Q 3669 2231 3669 1497 
Q 3669 778 3244 343 
Q 2819 -91 2113 -91 
Q 1303 -91 875 529 
Q 447 1150 447 2328 
Q 447 3434 972 4092 
Q 1497 4750 2381 4750 
Q 2619 4750 2861 4703 
Q 3103 4656 3366 4563 
z
" transform="scale(0.015625)"/>
       </defs>
       <use xlink:href="#DejaVuSans-30"/>
       <use xlink:href="#DejaVuSans-2e" x="63.623047"/>
       <use xlink:href="#DejaVuSans-36" x="95.410156"/>
      </g>
     </g>
    </g>
    <g id="xtick_5">
     <g id="line2d_5">
      <g>
       <use xlink:href="#m9f6605736a" x="339.459174" y="307.584" style="stroke: #000000; stroke-width: 0.8"/>
      </g>
     </g>
     <g id="text_5">
      <!-- 0.8 -->
      <g transform="translate(331.507611 322.182437) scale(0.1 -0.1)">
       <defs>
        <path id="DejaVuSans-38" d="M 2034 2216 
Q 1584 2216 1326 1975 
Q 1069 1734 1069 1313 
Q 1069 891 1326 650 
Q 1584 409 2034 409 
Q 2484 409 2743 651 
Q 3003 894 3003 1313 
Q 3003 1734 2745 1975 
Q 2488 2216 2034 2216 
z
M 1403 2484 
Q 997 2584 770 2862 
Q 544 3141 544 3541 
Q 544 4100 942 4425 
Q 1341 4750 2034 4750 
Q 2731 4750 3128 4425 
Q 3525 4100 3525 3541 
Q 3525 3141 3298 2862 
Q 3072 2584 2669 2484 
Q 3125 2378 3379 2068 
Q 3634 1759 3634 1313 
Q 3634 634 3220 271 
Q 2806 -91 2034 -91 
Q 1263 -91 848 271 
Q 434 634 434 1313 
Q 434 1759 690 2068 
Q 947 2378 1403 2484 
z
M 1172 3481 
Q 1172 3119 1398 2916 
Q 1625 2713 2034 2713 
Q 2441 2713 2670 2916 
Q 2900 3119 2900 3481 
Q 2900 3844 2670 4047 
Q 2441 4250 2034 4250 
Q 1625 4250 1398 4047 
Q 1172 3844 1172 3481 
z
" transform="scale(0.015625)"/>
       </defs>
       <use xlink:href="#DejaVuSans-30"/>
       <use xlink:href="#DejaVuSans-2e" x="63.623047"/>
       <use xlink:href="#DejaVuSans-38" x="95.410156"/>
      </g>
     </g>
    </g>
    <g id="xtick_6">
     <g id="line2d_6">
      <g>
       <use xlink:href="#m9f6605736a" x="398.487273" y="307.584" style="stroke: #000000; stroke-width: 0.8"/>
      </g>
     </g>
     <g id="text_6">
      <!-- 1.0 -->
      <g transform="translate(390.53571 322.182437) scale(0.1 -0.1)">
       <defs>
        <path id="DejaVuSans-31" d="M 794 531 
L 1825 531 
L 1825 4091 
L 703 3866 
L 703 4441 
L 1819 4666 
L 2450 4666 
L 2450 531 
L 3481 531 
L 3481 0 
L 794 0 
L 794 531 
z
" transform="scale(0.015625)"/>
       </defs>
       <use xlink:href="#DejaVuSans-31"/>
       <use xlink:href="#DejaVuSans-2e" x="63.623047"/>
       <use xlink:href="#DejaVuSans-30" x="95.410156"/>
      </g>
     </g>
    </g>
    <g id="text_7">
     <!-- Time (s) -->
     <g transform="translate(215.831094 335.860562) scale(0.1 -0.1)">
      <defs>
       <path id="DejaVuSans-54" d="M -19 4666 
L 3928 4666 
L 3928 4134 
L 2272 4134 
L 2272 0 
L 1638 0 
L 1638 4134 
L -19 4134 
L -19 4666 
z
" transform="scale(0.015625)"/>
       <path id="DejaVuSans-69" d="M 603 3500 
L 1178 3500 
L 1178 0 
L 603 0 
L 603 3500 
z
M 603 4863 
L 1178 4863 
L 1178 4134 
L 603 4134 
L 603 4863 
z
" transform="scale(0.015625)"/>
       <path id="DejaVuSans-6d" d="M 3328 2828 
Q 3544 3216 3844 3400 
Q 4144 3584 4550 3584 
Q 5097 3584 5394 3201 
Q 5691 2819 5691 2113 
L 5691 0 
L 5113 0 
L 5113 2094 
Q 5113 2597 4934 2840 
Q 4756 3084 4391 3084 
Q 3944 3084 3684 2787 
Q 3425 2491 3425 1978 
L 3425 0 
L 2847 0 
L 2847 2094 
Q 2847 2600 2669 2842 
Q 2491 3084 2119 3084 
Q 1678 3084 1418 2786 
Q 1159 2488 1159 1978 
L 1159 0 
L 581 0 
L 581 3500 
L 1159 3500 
L 1159 2956 
Q 1356 3278 1631 3431 
Q 1906 3584 2284 3584 
Q 2666 3584 2933 3390 
Q 3200 3197 3328 2828 
z
" transform="scale(0.015625)"/>
       <path id="DejaVuSans-65" d="M 3597 1894 
L 3597 1613 
L 953 1613 
Q 991 1019 1311 708 
Q 1631 397 2203 397 
Q 2534 397 2845 478 
Q 3156 559 3463 722 
L 3463 178 
Q 3153 47 2828 -22 
Q 2503 -91 2169 -91 
Q 1331 -91 842 396 
Q 353 884 353 1716 
Q 353 2575 817 3079 
Q 1281 3584 2069 3584 
Q 2775 3584 3186 3129 
Q 3597 2675 3597 1894 
z
M 3022 2063 
Q 3016 2534 2758 2815 
Q 2500 3097 2075 3097 
Q 1594 3097 1305 2825 
Q 1016 2553 972 2059 
L 3022 2063 
z
" transform="scale(0.015625)"/>
       <path id="DejaVuSans-20" transform="scale(0.015625)"/>
       <path id="DejaVuSans-28" d="M 1984 4856 
Q 1566 4138 1362 3434 
Q 1159 2731 1159 2009 
Q 1159 1288 1364 580 
Q 1569 -128 1984 -844 
L 1484 -844 
Q 1016 -109 783 600 
Q 550 1309 550 2009 
Q 550 2706 781 3412 
Q 1013 4119 1484 4856 
L 1984 4856 
z
" transform="scale(0.015625)"/>
       <path id="DejaVuSans-73" d="M 2834 3397 
L 2834 2853 
Q 2591 2978 2328 3040 
Q 2066 3103 1784 3103 
Q 1356 3103 1142 2972 
Q 928 2841 928 2578 
Q 928 2378 1081 2264 
Q 1234 2150 1697 2047 
L 1894 2003 
Q 2506 1872 2764 1633 
Q 3022 1394 3022 966 
Q 3022 478 2636 193 
Q 2250 -91 1575 -91 
Q 1294 -91 989 -36 
Q 684 19 347 128 
L 347 722 
Q 666 556 975 473 
Q 1284 391 1588 391 
Q 1994 391 2212 530 
Q 2431 669 2431 922 
Q 2431 1156 2273 1281 
Q 2116 1406 1581 1522 
L 1381 1569 
Q 847 1681 609 1914 
Q 372 2147 372 2553 
Q 372 3047 722 3315 
Q 1072 3584 1716 3584 
Q 2034 3584 2315 3537 
Q 2597 3491 2834 3397 
z
" transform="scale(0.015625)"/>
       <path id="DejaVuSans-29" d="M 513 4856 
L 1013 4856 
Q 1481 4119 1714 3412 
Q 1947 2706 1947 2009 
Q 1947 1309 1714 600 
Q 1481 -109 1013 -844 
L 513 -844 
Q 928 -128 1133 580 
Q 1338 1288 1338 2009 
Q 1338 2731 1133 3434 
Q 928 4138 513 4856 
z
" transform="scale(0.015625)"/>
      </defs>
      <use xlink:href="#DejaVuSans-54"/>
      <use xlink:href="#DejaVuSans-69" x="57.958984"/>
      <use xlink:href="#DejaVuSans-6d" x="85.742188"/>
      <use xlink:href="#DejaVuSans-65" x="183.154297"/>
      <use xlink:href="#DejaVuSans-20" x="244.677734"/>
      <use xlink:href="#DejaVuSans-28" x="276.464844"/>
      <use xlink:href="#DejaVuSans-73" x="315.478516"/>
      <use xlink:href="#DejaVuSans-29" x="367.578125"/>
     </g>
    </g>
   </g>
   <g id="matplotlib.axis_2">
    <g id="ytick_1">
     <g id="line2d_7">
      <defs>
       <path id="m37841ba251" d="M 0 0 
L -3.5 0 
" style="stroke: #000000; stroke-width: 0.8"/>
      </defs>
      <g>
       <use xlink:href="#m37841ba251" x="57.6" y="307.584" style="stroke: #000000; stroke-width: 0.8"/>
      </g>
     </g>
     <g id="text_8">
      <!-- −0.02 -->
      <g transform="translate(19.954687 311.383219) scale(0.1 -0.1)">
       <defs>
        <path id="DejaVuSans-2212" d="M 678 2272 
L 4684 2272 
L 4684 1741 
L 678 1741 
L 678 2272 
z
" transform="scale(0.015625)"/>
       </defs>
       <use xlink:href="#DejaVuSans-2212"/>
       <use xlink:href="#DejaVuSans-30" x="83.789062"/>
       <use xlink:href="#DejaVuSans-2e" x="147.412109"/>
       <use xlink:href="#DejaVuSans-30" x="179.199219"/>
       <use xlink:href="#DejaVuSans-32" x="242.822266"/>
      </g>
     </g>
    </g>
    <g id="ytick_2">
     <g id="line2d_8">
      <g>
       <use xlink:href="#m37841ba251" x="57.6" y="248.448" style="stroke: #000000; stroke-width: 0.8"/>
      </g>
     </g>
     <g id="text_9">
      <!-- 0.00 -->
      <g transform="translate(28.334375 252.247219) scale(0.1 -0.1)">
       <use xlink:href="#DejaVuSans-30"/>
       <use xlink:href="#DejaVuSans-2e" x="63.623047"/>
       <use xlink:href="#DejaVuSans-30" x="95.410156"/>
       <use xlink:href="#DejaVuSans-30" x="159.033203"/>
      </g>
     </g>
    </g>
    <g id="ytick_3">
     <g id="line2d_9">
      <g>
       <use xlink:href="#m37841ba251" x="57.6" y="189.312" style="stroke: #000000; stroke-width: 0.8"/>
      </g>
     </g>
     <g id="text_10">
      <!-- 0.02 -->
      <g transform="translate(28.334375 193.111219) scale(0.1 -0.1)">
       <use xlink:href="#DejaVuSans-30"/>
       <use xlink:href="#DejaVuSans-2e" x="63.623047"/>
       <use xlink:href="#DejaVuSans-30" x="95.410156"/>
       <use xlink:href="#DejaVuSans-32" x="159.033203"/>
      </g>
     </g>
    </g>
    <g id="ytick_4">
     <g id="line2d_10">
      <g>
       <use xlink:href="#m37841ba251" x="57.6" y="130.176" style="stroke: #000000; stroke-width: 0.8"/>
      </g>
     </g>
     <g id="text_11">
      <!-- 0.04 -->
      <g transform="translate(28.334375 133.975219) scale(0.1 -0.1)">
       <use xlink:href="#DejaVuSans-30"/>
       <use xlink:href="#DejaVuSans-2e" x="63.623047"/>
       <use xlink:href="#DejaVuSans-30" x="95.410156"/>
       <use xlink:href="#DejaVuSans-34" x="159.033203"/>
      </g>
     </g>
    </g>
    <g id="ytick_5">
     <g id="line2d_11">
      <g>
       <use xlink:href="#m37841ba251" x="57.6" y="71.04" style="stroke: #000000; stroke-width: 0.8"/>
      </g>
     </g>
     <g id="text_12">
      <!-- 0.06 -->
      <g transform="translate(28.334375 74.839219) scale(0.1 -0.1)">
       <use xlink:href="#DejaVuSans-30"/>
       <use xlink:href="#DejaVuSans-2e" x="63.623047"/>
       <use xlink:href="#DejaVuSans-30" x="95.410156"/>
       <use xlink:href="#DejaVuSans-36" x="159.033203"/>
      </g>
     </g>
    </g>
    <g id="text_13">
     <!-- Partial Spearman Correlation -->
     <g transform="translate(13.875 246.54675) rotate(-90) scale(0.1 -0.1)">
      <defs>
       <path id="DejaVuSans-50" d="M 1259 4147 
L 1259 2394 
L 2053 2394 
Q 2494 2394 2734 2622 
Q 2975 2850 2975 3272 
Q 2975 3691 2734 3919 
Q 2494 4147 2053 4147 
L 1259 4147 
z
M 628 4666 
L 2053 4666 
Q 2838 4666 3239 4311 
Q 3641 3956 3641 3272 
Q 3641 2581 3239 2228 
Q 2838 1875 2053 1875 
L 1259 1875 
L 1259 0 
L 628 0 
L 628 4666 
z
" transform="scale(0.015625)"/>
       <path id="DejaVuSans-61" d="M 2194 1759 
Q 1497 1759 1228 1600 
Q 959 1441 959 1056 
Q 959 750 1161 570 
Q 1363 391 1709 391 
Q 2188 391 2477 730 
Q 2766 1069 2766 1631 
L 2766 1759 
L 2194 1759 
z
M 3341 1997 
L 3341 0 
L 2766 0 
L 2766 531 
Q 2569 213 2275 61 
Q 1981 -91 1556 -91 
Q 1019 -91 701 211 
Q 384 513 384 1019 
Q 384 1609 779 1909 
Q 1175 2209 1959 2209 
L 2766 2209 
L 2766 2266 
Q 2766 2663 2505 2880 
Q 2244 3097 1772 3097 
Q 1472 3097 1187 3025 
Q 903 2953 641 2809 
L 641 3341 
Q 956 3463 1253 3523 
Q 1550 3584 1831 3584 
Q 2591 3584 2966 3190 
Q 3341 2797 3341 1997 
z
" transform="scale(0.015625)"/>
       <path id="DejaVuSans-72" d="M 2631 2963 
Q 2534 3019 2420 3045 
Q 2306 3072 2169 3072 
Q 1681 3072 1420 2755 
Q 1159 2438 1159 1844 
L 1159 0 
L 581 0 
L 581 3500 
L 1159 3500 
L 1159 2956 
Q 1341 3275 1631 3429 
Q 1922 3584 2338 3584 
Q 2397 3584 2469 3576 
Q 2541 3569 2628 3553 
L 2631 2963 
z
" transform="scale(0.015625)"/>
       <path id="DejaVuSans-74" d="M 1172 4494 
L 1172 3500 
L 2356 3500 
L 2356 3053 
L 1172 3053 
L 1172 1153 
Q 1172 725 1289 603 
Q 1406 481 1766 481 
L 2356 481 
L 2356 0 
L 1766 0 
Q 1100 0 847 248 
Q 594 497 594 1153 
L 594 3053 
L 172 3053 
L 172 3500 
L 594 3500 
L 594 4494 
L 1172 4494 
z
" transform="scale(0.015625)"/>
       <path id="DejaVuSans-6c" d="M 603 4863 
L 1178 4863 
L 1178 0 
L 603 0 
L 603 4863 
z
" transform="scale(0.015625)"/>
       <path id="DejaVuSans-53" d="M 3425 4513 
L 3425 3897 
Q 3066 4069 2747 4153 
Q 2428 4238 2131 4238 
Q 1616 4238 1336 4038 
Q 1056 3838 1056 3469 
Q 1056 3159 1242 3001 
Q 1428 2844 1947 2747 
L 2328 2669 
Q 3034 2534 3370 2195 
Q 3706 1856 3706 1288 
Q 3706 609 3251 259 
Q 2797 -91 1919 -91 
Q 1588 -91 1214 -16 
Q 841 59 441 206 
L 441 856 
Q 825 641 1194 531 
Q 1563 422 1919 422 
Q 2459 422 2753 634 
Q 3047 847 3047 1241 
Q 3047 1584 2836 1778 
Q 2625 1972 2144 2069 
L 1759 2144 
Q 1053 2284 737 2584 
Q 422 2884 422 3419 
Q 422 4038 858 4394 
Q 1294 4750 2059 4750 
Q 2388 4750 2728 4690 
Q 3069 4631 3425 4513 
z
" transform="scale(0.015625)"/>
       <path id="DejaVuSans-70" d="M 1159 525 
L 1159 -1331 
L 581 -1331 
L 581 3500 
L 1159 3500 
L 1159 2969 
Q 1341 3281 1617 3432 
Q 1894 3584 2278 3584 
Q 2916 3584 3314 3078 
Q 3713 2572 3713 1747 
Q 3713 922 3314 415 
Q 2916 -91 2278 -91 
Q 1894 -91 1617 61 
Q 1341 213 1159 525 
z
M 3116 1747 
Q 3116 2381 2855 2742 
Q 2594 3103 2138 3103 
Q 1681 3103 1420 2742 
Q 1159 2381 1159 1747 
Q 1159 1113 1420 752 
Q 1681 391 2138 391 
Q 2594 391 2855 752 
Q 3116 1113 3116 1747 
z
" transform="scale(0.015625)"/>
       <path id="DejaVuSans-6e" d="M 3513 2113 
L 3513 0 
L 2938 0 
L 2938 2094 
Q 2938 2591 2744 2837 
Q 2550 3084 2163 3084 
Q 1697 3084 1428 2787 
Q 1159 2491 1159 1978 
L 1159 0 
L 581 0 
L 581 3500 
L 1159 3500 
L 1159 2956 
Q 1366 3272 1645 3428 
Q 1925 3584 2291 3584 
Q 2894 3584 3203 3211 
Q 3513 2838 3513 2113 
z
" transform="scale(0.015625)"/>
       <path id="DejaVuSans-43" d="M 4122 4306 
L 4122 3641 
Q 3803 3938 3442 4084 
Q 3081 4231 2675 4231 
Q 1875 4231 1450 3742 
Q 1025 3253 1025 2328 
Q 1025 1406 1450 917 
Q 1875 428 2675 428 
Q 3081 428 3442 575 
Q 3803 722 4122 1019 
L 4122 359 
Q 3791 134 3420 21 
Q 3050 -91 2638 -91 
Q 1578 -91 968 557 
Q 359 1206 359 2328 
Q 359 3453 968 4101 
Q 1578 4750 2638 4750 
Q 3056 4750 3426 4639 
Q 3797 4528 4122 4306 
z
" transform="scale(0.015625)"/>
       <path id="DejaVuSans-6f" d="M 1959 3097 
Q 1497 3097 1228 2736 
Q 959 2375 959 1747 
Q 959 1119 1226 758 
Q 1494 397 1959 397 
Q 2419 397 2687 759 
Q 2956 1122 2956 1747 
Q 2956 2369 2687 2733 
Q 2419 3097 1959 3097 
z
M 1959 3584 
Q 2709 3584 3137 3096 
Q 3566 2609 3566 1747 
Q 3566 888 3137 398 
Q 2709 -91 1959 -91 
Q 1206 -91 779 398 
Q 353 888 353 1747 
Q 353 2609 779 3096 
Q 1206 3584 1959 3584 
z
" transform="scale(0.015625)"/>
      </defs>
      <use xlink:href="#DejaVuSans-50"/>
      <use xlink:href="#DejaVuSans-61" x="55.802734"/>
      <use xlink:href="#DejaVuSans-72" x="117.082031"/>
      <use xlink:href="#DejaVuSans-74" x="158.195312"/>
      <use xlink:href="#DejaVuSans-69" x="197.404297"/>
      <use xlink:href="#DejaVuSans-61" x="225.1875"/>
      <use xlink:href="#DejaVuSans-6c" x="286.466797"/>
      <use xlink:href="#DejaVuSans-20" x="314.25"/>
      <use xlink:href="#DejaVuSans-53" x="346.037109"/>
      <use xlink:href="#DejaVuSans-70" x="409.513672"/>
      <use xlink:href="#DejaVuSans-65" x="472.990234"/>
      <use xlink:href="#DejaVuSans-61" x="534.513672"/>
      <use xlink:href="#DejaVuSans-72" x="595.792969"/>
      <use xlink:href="#DejaVuSans-6d" x="635.15625"/>
      <use xlink:href="#DejaVuSans-61" x="732.568359"/>
      <use xlink:href="#DejaVuSans-6e" x="793.847656"/>
      <use xlink:href="#DejaVuSans-20" x="857.226562"/>
      <use xlink:href="#DejaVuSans-43" x="889.013672"/>
      <use xlink:href="#DejaVuSans-6f" x="958.837891"/>
      <use xlink:href="#DejaVuSans-72" x="1020.019531"/>
      <use xlink:href="#DejaVuSans-72" x="1059.382812"/>
      <use xlink:href="#DejaVuSans-65" x="1098.246094"/>
      <use xlink:href="#DejaVuSans-6c" x="1159.769531"/>
      <use xlink:href="#DejaVuSans-61" x="1187.552734"/>
      <use xlink:href="#DejaVuSans-74" x="1248.832031"/>
      <use xlink:href="#DejaVuSans-69" x="1288.041016"/>
      <use xlink:href="#DejaVuSans-6f" x="1315.824219"/>
      <use xlink:href="#DejaVuSans-6e" x="1377.005859"/>
     </g>
    </g>
   </g>
   <g id="line2d_12">
    <path d="M 103.346777 307.584 
L 103.346777 41.472 
" clip-path="url(#p56aa369c88)" style="fill: none; stroke-dasharray: 5.55,2.4; stroke-dashoffset: 0; stroke: #d3d3d3; stroke-width: 1.5"/>
   </g>
   <g id="line2d_13">
    <path d="M 57.6 248.448 
L 414.72 248.448 
" clip-path="url(#p56aa369c88)" style="fill: none; stroke-dasharray: 5.55,2.4; stroke-dashoffset: 0; stroke: #d3d3d3; stroke-width: 1.5"/>
   </g>
   <g id="line2d_14">
    <path d="M 73.832727 261.378294 
L 78.470649 251.154324 
L 80.78961 250.382508 
L 83.108571 239.864906 
L 85.427532 240.550633 
L 87.746494 230.645869 
L 90.065455 235.690187 
L 92.384416 246.752957 
L 94.703377 249.171691 
L 97.022338 241.257088 
L 99.341299 234.922788 
L 101.66026 225.613338 
L 103.979221 229.449774 
L 106.298182 240.98016 
L 108.617143 256.537904 
L 110.936104 262.37842 
L 113.255065 265.832825 
L 115.574026 272.63931 
L 117.892987 280.913292 
L 120.211948 278.764694 
L 122.530909 264.428991 
L 124.84987 251.165016 
L 127.168831 244.457787 
L 129.487792 236.999812 
L 131.806753 234.88073 
L 134.125714 234.121098 
L 136.444675 229.027514 
L 138.763636 223.559254 
L 141.082597 222.690429 
L 143.401558 223.173832 
L 145.720519 217.073365 
L 148.039481 200.6901 
L 150.358442 169.729906 
L 152.677403 146.805141 
L 154.996364 135.365877 
L 157.315325 129.108576 
L 159.634286 124.406462 
L 161.953247 118.003822 
L 164.272208 112.21384 
L 166.591169 112.654766 
L 168.91013 117.268174 
L 171.229091 125.2067 
L 173.548052 135.071535 
L 175.867013 147.846513 
L 178.185974 161.678961 
L 180.504935 173.352024 
L 185.142857 189.122047 
L 187.461818 197.392322 
L 189.780779 203.723599 
L 192.09974 208.581489 
L 194.418701 211.984192 
L 196.737662 211.590514 
L 199.056623 212.636656 
L 201.375584 216.137733 
L 203.694545 217.74238 
L 206.013506 219.092511 
L 210.651429 223.781142 
L 212.97039 224.952488 
L 215.289351 224.087833 
L 217.608312 222.198884 
L 219.927273 223.786732 
L 222.246234 225.612464 
L 224.565195 224.292021 
L 226.884156 222.245307 
L 229.203117 221.325404 
L 231.522078 218.654987 
L 233.841039 214.370748 
L 236.16 210.976879 
L 238.478961 210.505721 
L 240.797922 212.498615 
L 243.116883 216.94818 
L 245.435844 222.393659 
L 247.754805 228.417939 
L 250.073766 235.241179 
L 252.392727 240.134231 
L 254.711688 242.99151 
L 257.030649 244.726118 
L 259.34961 247.543633 
L 261.668571 253.228782 
L 266.306494 267.768852 
L 268.625455 270.914716 
L 270.944416 269.091275 
L 273.263377 262.356564 
L 277.901299 240.859731 
L 280.22026 235.986941 
L 282.539221 236.836931 
L 284.858182 238.669184 
L 287.177143 238.279953 
L 289.496104 235.823866 
L 291.815065 232.574643 
L 294.134026 231.878792 
L 296.452987 233.336013 
L 298.771948 235.120822 
L 301.090909 237.181756 
L 303.40987 242.607075 
L 305.728831 249.45409 
L 308.047792 254.93312 
L 310.366753 257.695308 
L 312.685714 258.95203 
L 315.004675 256.933986 
L 317.323636 252.837103 
L 319.642597 248.504711 
L 321.961558 246.098171 
L 324.280519 245.797255 
L 326.599481 246.691838 
L 328.918442 249.046947 
L 331.237403 250.206732 
L 333.556364 248.847759 
L 335.875325 245.486716 
L 338.194286 244.185573 
L 340.513247 244.184064 
L 342.832208 243.457361 
L 345.151169 242.027423 
L 347.47013 241.647427 
L 349.789091 240.699708 
L 352.108052 239.003877 
L 354.427013 238.876793 
L 356.745974 240.485319 
L 359.064935 242.573406 
L 361.383896 244.193805 
L 363.702857 244.154587 
L 366.021818 240.305405 
L 368.340779 231.904325 
L 370.65974 221.929603 
L 372.978701 214.791204 
L 375.297662 211.689393 
L 377.616623 213.278994 
L 379.935584 219.134653 
L 382.254545 226.785987 
L 384.573506 232.215228 
L 386.892468 233.202175 
L 389.211429 230.277983 
L 393.849351 223.937085 
L 396.168312 221.728839 
L 398.487273 221.481246 
L 398.487273 221.481246 
" clip-path="url(#p56aa369c88)" style="fill: none; stroke: #ff2c55; stroke-width: 2; stroke-linecap: square"/>
   </g>
   <g id="line2d_15">
    <path d="M 73.832727 243.836573 
L 76.151688 246.154163 
L 78.470649 249.712584 
L 80.78961 251.56821 
L 83.108571 265.337172 
L 85.427532 272.591793 
L 87.746494 281.493058 
L 90.065455 268.814145 
L 92.384416 253.246964 
L 94.703377 256.89073 
L 97.022338 273.417705 
L 99.341299 275.083665 
L 101.66026 268.753645 
L 106.298182 253.449122 
L 108.617143 240.573789 
L 110.936104 236.166851 
L 113.255065 231.477651 
L 115.574026 228.434026 
L 117.892987 233.048455 
L 120.211948 242.700052 
L 122.530909 242.065387 
L 124.84987 210.732135 
L 127.168831 185.283375 
L 129.487792 177.427087 
L 131.806753 177.163867 
L 134.125714 182.924928 
L 136.444675 197.770435 
L 138.763636 202.826486 
L 141.082597 197.194608 
L 143.401558 195.235117 
L 145.720519 202.651767 
L 148.039481 216.786959 
L 150.358442 238.505475 
L 152.677403 251.232563 
L 154.996364 253.832317 
L 157.315325 255.698093 
L 159.634286 260.100962 
L 161.953247 266.558216 
L 164.272208 271.30032 
L 166.591169 267.981725 
L 171.229091 255.317853 
L 173.548052 251.661138 
L 178.185974 243.207626 
L 182.823896 234.742592 
L 185.142857 226.967226 
L 187.461818 217.281832 
L 189.780779 210.882242 
L 192.09974 209.742095 
L 194.418701 213.57608 
L 196.737662 222.650076 
L 199.056623 232.626142 
L 201.375584 238.434368 
L 203.694545 240.363213 
L 206.013506 239.676834 
L 208.332468 239.258542 
L 210.651429 239.155416 
L 212.97039 239.211495 
L 215.289351 241.113866 
L 217.608312 246.37103 
L 219.927273 248.569669 
L 222.246234 247.510577 
L 224.565195 246.95031 
L 226.884156 246.69539 
L 229.203117 245.037628 
L 231.522078 245.254538 
L 233.841039 247.791903 
L 236.16 250.569117 
L 238.478961 253.102128 
L 240.797922 254.883019 
L 243.116883 256.181134 
L 245.435844 256.802089 
L 247.754805 256.040823 
L 250.073766 251.546003 
L 252.392727 246.257394 
L 254.711688 242.180808 
L 257.030649 238.823658 
L 259.34961 233.739293 
L 261.668571 225.478699 
L 263.987532 213.956134 
L 266.306494 203.459959 
L 268.625455 198.216274 
L 270.944416 198.583738 
L 273.263377 204.213895 
L 277.901299 225.235749 
L 280.22026 230.388319 
L 282.539221 231.998303 
L 284.858182 233.943973 
L 289.496104 239.197506 
L 291.815065 242.697583 
L 294.134026 245.621939 
L 296.452987 246.206724 
L 298.771948 244.178378 
L 301.090909 241.770947 
L 303.40987 236.55047 
L 305.728831 229.274297 
L 308.047792 223.411333 
L 310.366753 221.742439 
L 312.685714 223.685877 
L 315.004675 227.947171 
L 317.323636 232.746567 
L 319.642597 236.137035 
L 321.961558 236.442288 
L 324.280519 234.417508 
L 326.599481 233.623498 
L 331.237403 233.565472 
L 333.556364 233.533686 
L 335.875325 234.401166 
L 338.194286 234.680628 
L 342.832208 230.092546 
L 345.151169 231.440373 
L 347.47013 236.18889 
L 352.108052 251.337014 
L 354.427013 257.835473 
L 356.745974 262.06036 
L 359.064935 261.86831 
L 361.383896 258.640568 
L 363.702857 255.07174 
L 366.021818 254.364889 
L 368.340779 257.909246 
L 370.65974 263.641622 
L 372.978701 268.746471 
L 375.297662 272.99725 
L 377.616623 273.847834 
L 379.935584 271.207298 
L 382.254545 267.113954 
L 384.573506 263.941656 
L 386.892468 262.161921 
L 389.211429 263.955246 
L 391.53039 268.370558 
L 393.849351 273.965492 
L 396.168312 277.951842 
L 398.487273 280.296231 
L 398.487273 280.296231 
" clip-path="url(#p56aa369c88)" style="fill: none; stroke: #0974f1; stroke-width: 2; stroke-linecap: square"/>
   </g>
   <g id="line2d_16">
    <path d="M 164.272208 307.584 
L 164.272208 41.472 
" clip-path="url(#p56aa369c88)" style="fill: none; stroke-dasharray: 5.55,2.4; stroke-dashoffset: 0; stroke: #ff2c55; stroke-width: 1.5"/>
   </g>
   <g id="line2d_17">
    <path d="M 131.806753 307.584 
L 131.806753 41.472 
" clip-path="url(#p56aa369c88)" style="fill: none; stroke-dasharray: 5.55,2.4; stroke-dashoffset: 0; stroke: #0974f1; stroke-width: 1.5"/>
   </g>
   <g id="patch_3">
    <path d="M 57.6 307.584 
L 57.6 41.472 
" style="fill: none; stroke: #000000; stroke-width: 0.8; stroke-linejoin: miter; stroke-linecap: square"/>
   </g>
   <g id="patch_4">
    <path d="M 57.6 307.584 
L 414.72 307.584 
" style="fill: none; stroke: #000000; stroke-width: 0.8; stroke-linejoin: miter; stroke-linecap: square"/>
   </g>
   <g id="text_14">
    <!-- . -->
    <g style="fill: #ff2c55" transform="translate(159.634286 307.002898) scale(0.2 -0.2)">
     <use xlink:href="#DejaVuSans-2e"/>
    </g>
   </g>
   <g id="text_15">
    <!-- . -->
    <g style="fill: #ff2c55" transform="translate(161.953247 307.002898) scale(0.2 -0.2)">
     <use xlink:href="#DejaVuSans-2e"/>
    </g>
   </g>
   <g id="text_16">
    <!-- . -->
    <g style="fill: #ff2c55" transform="translate(164.272208 307.002898) scale(0.2 -0.2)">
     <use xlink:href="#DejaVuSans-2e"/>
    </g>
   </g>
   <g id="text_17">
    <!-- . -->
    <g style="fill: #ff2c55" transform="translate(166.591169 307.002898) scale(0.2 -0.2)">
     <use xlink:href="#DejaVuSans-2e"/>
    </g>
   </g>
   <g id="text_18">
    <!-- . -->
    <g style="fill: #ff2c55" transform="translate(168.91013 307.002898) scale(0.2 -0.2)">
     <use xlink:href="#DejaVuSans-2e"/>
    </g>
   </g>
   <g id="text_19">
    <!-- . -->
    <g style="fill: #ff2c55" transform="translate(171.229091 307.002898) scale(0.2 -0.2)">
     <use xlink:href="#DejaVuSans-2e"/>
    </g>
   </g>
   <g id="text_20">
    <!-- . -->
    <g style="fill: #ff2c55" transform="translate(173.548052 307.002898) scale(0.2 -0.2)">
     <use xlink:href="#DejaVuSans-2e"/>
    </g>
   </g>
   <g id="text_21">
    <!-- . -->
    <g style="fill: #ff2c55" transform="translate(175.867013 307.002898) scale(0.2 -0.2)">
     <use xlink:href="#DejaVuSans-2e"/>
    </g>
   </g>
   <g id="legend_1">
    <g id="patch_5">
     <path d="M 200.634062 78.82825 
L 407.72 78.82825 
Q 409.72 78.82825 409.72 76.82825 
L 409.72 48.472 
Q 409.72 46.472 407.72 46.472 
L 200.634062 46.472 
Q 198.634062 46.472 198.634062 48.472 
L 198.634062 76.82825 
Q 198.634062 78.82825 200.634062 78.82825 
z
" style="fill: #ffffff; opacity: 0.8; stroke: #cccccc; stroke-linejoin: miter"/>
    </g>
    <g id="line2d_18">
     <path d="M 202.634062 54.570437 
L 212.634062 54.570437 
L 222.634062 54.570437 
" style="fill: none; stroke: #ff2c55; stroke-width: 2; stroke-linecap: square"/>
    </g>
    <g id="text_22">
     <!-- Affordance (partialed out objects) -->
     <g transform="translate(230.634062 58.070437) scale(0.1 -0.1)">
      <defs>
       <path id="DejaVuSans-41" d="M 2188 4044 
L 1331 1722 
L 3047 1722 
L 2188 4044 
z
M 1831 4666 
L 2547 4666 
L 4325 0 
L 3669 0 
L 3244 1197 
L 1141 1197 
L 716 0 
L 50 0 
L 1831 4666 
z
" transform="scale(0.015625)"/>
       <path id="DejaVuSans-66" d="M 2375 4863 
L 2375 4384 
L 1825 4384 
Q 1516 4384 1395 4259 
Q 1275 4134 1275 3809 
L 1275 3500 
L 2222 3500 
L 2222 3053 
L 1275 3053 
L 1275 0 
L 697 0 
L 697 3053 
L 147 3053 
L 147 3500 
L 697 3500 
L 697 3744 
Q 697 4328 969 4595 
Q 1241 4863 1831 4863 
L 2375 4863 
z
" transform="scale(0.015625)"/>
       <path id="DejaVuSans-64" d="M 2906 2969 
L 2906 4863 
L 3481 4863 
L 3481 0 
L 2906 0 
L 2906 525 
Q 2725 213 2448 61 
Q 2172 -91 1784 -91 
Q 1150 -91 751 415 
Q 353 922 353 1747 
Q 353 2572 751 3078 
Q 1150 3584 1784 3584 
Q 2172 3584 2448 3432 
Q 2725 3281 2906 2969 
z
M 947 1747 
Q 947 1113 1208 752 
Q 1469 391 1925 391 
Q 2381 391 2643 752 
Q 2906 1113 2906 1747 
Q 2906 2381 2643 2742 
Q 2381 3103 1925 3103 
Q 1469 3103 1208 2742 
Q 947 2381 947 1747 
z
" transform="scale(0.015625)"/>
       <path id="DejaVuSans-63" d="M 3122 3366 
L 3122 2828 
Q 2878 2963 2633 3030 
Q 2388 3097 2138 3097 
Q 1578 3097 1268 2742 
Q 959 2388 959 1747 
Q 959 1106 1268 751 
Q 1578 397 2138 397 
Q 2388 397 2633 464 
Q 2878 531 3122 666 
L 3122 134 
Q 2881 22 2623 -34 
Q 2366 -91 2075 -91 
Q 1284 -91 818 406 
Q 353 903 353 1747 
Q 353 2603 823 3093 
Q 1294 3584 2113 3584 
Q 2378 3584 2631 3529 
Q 2884 3475 3122 3366 
z
" transform="scale(0.015625)"/>
       <path id="DejaVuSans-75" d="M 544 1381 
L 544 3500 
L 1119 3500 
L 1119 1403 
Q 1119 906 1312 657 
Q 1506 409 1894 409 
Q 2359 409 2629 706 
Q 2900 1003 2900 1516 
L 2900 3500 
L 3475 3500 
L 3475 0 
L 2900 0 
L 2900 538 
Q 2691 219 2414 64 
Q 2138 -91 1772 -91 
Q 1169 -91 856 284 
Q 544 659 544 1381 
z
M 1991 3584 
L 1991 3584 
z
" transform="scale(0.015625)"/>
       <path id="DejaVuSans-62" d="M 3116 1747 
Q 3116 2381 2855 2742 
Q 2594 3103 2138 3103 
Q 1681 3103 1420 2742 
Q 1159 2381 1159 1747 
Q 1159 1113 1420 752 
Q 1681 391 2138 391 
Q 2594 391 2855 752 
Q 3116 1113 3116 1747 
z
M 1159 2969 
Q 1341 3281 1617 3432 
Q 1894 3584 2278 3584 
Q 2916 3584 3314 3078 
Q 3713 2572 3713 1747 
Q 3713 922 3314 415 
Q 2916 -91 2278 -91 
Q 1894 -91 1617 61 
Q 1341 213 1159 525 
L 1159 0 
L 581 0 
L 581 4863 
L 1159 4863 
L 1159 2969 
z
" transform="scale(0.015625)"/>
       <path id="DejaVuSans-6a" d="M 603 3500 
L 1178 3500 
L 1178 -63 
Q 1178 -731 923 -1031 
Q 669 -1331 103 -1331 
L -116 -1331 
L -116 -844 
L 38 -844 
Q 366 -844 484 -692 
Q 603 -541 603 -63 
L 603 3500 
z
M 603 4863 
L 1178 4863 
L 1178 4134 
L 603 4134 
L 603 4863 
z
" transform="scale(0.015625)"/>
      </defs>
      <use xlink:href="#DejaVuSans-41"/>
      <use xlink:href="#DejaVuSans-66" x="64.783203"/>
      <use xlink:href="#DejaVuSans-66" x="99.988281"/>
      <use xlink:href="#DejaVuSans-6f" x="135.193359"/>
      <use xlink:href="#DejaVuSans-72" x="196.375"/>
      <use xlink:href="#DejaVuSans-64" x="235.738281"/>
      <use xlink:href="#DejaVuSans-61" x="299.214844"/>
      <use xlink:href="#DejaVuSans-6e" x="360.494141"/>
      <use xlink:href="#DejaVuSans-63" x="423.873047"/>
      <use xlink:href="#DejaVuSans-65" x="478.853516"/>
      <use xlink:href="#DejaVuSans-20" x="540.376953"/>
      <use xlink:href="#DejaVuSans-28" x="572.164062"/>
      <use xlink:href="#DejaVuSans-70" x="611.177734"/>
      <use xlink:href="#DejaVuSans-61" x="674.654297"/>
      <use xlink:href="#DejaVuSans-72" x="735.933594"/>
      <use xlink:href="#DejaVuSans-74" x="777.046875"/>
      <use xlink:href="#DejaVuSans-69" x="816.255859"/>
      <use xlink:href="#DejaVuSans-61" x="844.039062"/>
      <use xlink:href="#DejaVuSans-6c" x="905.318359"/>
      <use xlink:href="#DejaVuSans-65" x="933.101562"/>
      <use xlink:href="#DejaVuSans-64" x="994.625"/>
      <use xlink:href="#DejaVuSans-20" x="1058.101562"/>
      <use xlink:href="#DejaVuSans-6f" x="1089.888672"/>
      <use xlink:href="#DejaVuSans-75" x="1151.070312"/>
      <use xlink:href="#DejaVuSans-74" x="1214.449219"/>
      <use xlink:href="#DejaVuSans-20" x="1253.658203"/>
      <use xlink:href="#DejaVuSans-6f" x="1285.445312"/>
      <use xlink:href="#DejaVuSans-62" x="1346.626953"/>
      <use xlink:href="#DejaVuSans-6a" x="1410.103516"/>
      <use xlink:href="#DejaVuSans-65" x="1437.886719"/>
      <use xlink:href="#DejaVuSans-63" x="1499.410156"/>
      <use xlink:href="#DejaVuSans-74" x="1554.390625"/>
      <use xlink:href="#DejaVuSans-73" x="1593.599609"/>
      <use xlink:href="#DejaVuSans-29" x="1645.699219"/>
     </g>
    </g>
    <g id="line2d_19">
     <path d="M 202.634062 69.248562 
L 212.634062 69.248562 
L 222.634062 69.248562 
" style="fill: none; stroke: #0974f1; stroke-width: 2; stroke-linecap: square"/>
    </g>
    <g id="text_23">
     <!-- Objects (partialed out affordances) -->
     <g transform="translate(230.634062 72.748562) scale(0.1 -0.1)">
      <defs>
       <path id="DejaVuSans-4f" d="M 2522 4238 
Q 1834 4238 1429 3725 
Q 1025 3213 1025 2328 
Q 1025 1447 1429 934 
Q 1834 422 2522 422 
Q 3209 422 3611 934 
Q 4013 1447 4013 2328 
Q 4013 3213 3611 3725 
Q 3209 4238 2522 4238 
z
M 2522 4750 
Q 3503 4750 4090 4092 
Q 4678 3434 4678 2328 
Q 4678 1225 4090 567 
Q 3503 -91 2522 -91 
Q 1538 -91 948 565 
Q 359 1222 359 2328 
Q 359 3434 948 4092 
Q 1538 4750 2522 4750 
z
" transform="scale(0.015625)"/>
      </defs>
      <use xlink:href="#DejaVuSans-4f"/>
      <use xlink:href="#DejaVuSans-62" x="78.710938"/>
      <use xlink:href="#DejaVuSans-6a" x="142.1875"/>
      <use xlink:href="#DejaVuSans-65" x="169.970703"/>
      <use xlink:href="#DejaVuSans-63" x="231.494141"/>
      <use xlink:href="#DejaVuSans-74" x="286.474609"/>
      <use xlink:href="#DejaVuSans-73" x="325.683594"/>
      <use xlink:href="#DejaVuSans-20" x="377.783203"/>
      <use xlink:href="#DejaVuSans-28" x="409.570312"/>
      <use xlink:href="#DejaVuSans-70" x="448.583984"/>
      <use xlink:href="#DejaVuSans-61" x="512.060547"/>
      <use xlink:href="#DejaVuSans-72" x="573.339844"/>
      <use xlink:href="#DejaVuSans-74" x="614.453125"/>
      <use xlink:href="#DejaVuSans-69" x="653.662109"/>
      <use xlink:href="#DejaVuSans-61" x="681.445312"/>
      <use xlink:href="#DejaVuSans-6c" x="742.724609"/>
      <use xlink:href="#DejaVuSans-65" x="770.507812"/>
      <use xlink:href="#DejaVuSans-64" x="832.03125"/>
      <use xlink:href="#DejaVuSans-20" x="895.507812"/>
      <use xlink:href="#DejaVuSans-6f" x="927.294922"/>
      <use xlink:href="#DejaVuSans-75" x="988.476562"/>
      <use xlink:href="#DejaVuSans-74" x="1051.855469"/>
      <use xlink:href="#DejaVuSans-20" x="1091.064453"/>
      <use xlink:href="#DejaVuSans-61" x="1122.851562"/>
      <use xlink:href="#DejaVuSans-66" x="1184.130859"/>
      <use xlink:href="#DejaVuSans-66" x="1219.335938"/>
      <use xlink:href="#DejaVuSans-6f" x="1254.541016"/>
      <use xlink:href="#DejaVuSans-72" x="1315.722656"/>
      <use xlink:href="#DejaVuSans-64" x="1355.085938"/>
      <use xlink:href="#DejaVuSans-61" x="1418.5625"/>
      <use xlink:href="#DejaVuSans-6e" x="1479.841797"/>
      <use xlink:href="#DejaVuSans-63" x="1543.220703"/>
      <use xlink:href="#DejaVuSans-65" x="1598.201172"/>
      <use xlink:href="#DejaVuSans-73" x="1659.724609"/>
      <use xlink:href="#DejaVuSans-29" x="1711.824219"/>
     </g>
    </g>
   </g>
  </g>
 </g>
 <defs>
  <clipPath id="p56aa369c88">
   <rect x="57.6" y="41.472" width="357.12" height="266.112"/>
  </clipPath>
 </defs>
</svg>
