<?xml version="1.0" encoding="utf-8" standalone="no"?>
<!DOCTYPE svg PUBLIC "-//W3C//DTD SVG 1.1//EN"
  "http://www.w3.org/Graphics/SVG/1.1/DTD/svg11.dtd">
<svg xmlns:xlink="http://www.w3.org/1999/xlink" width="460.8pt" height="345.6pt" viewBox="0 0 460.8 345.6" xmlns="http://www.w3.org/2000/svg" version="1.1">
 <metadata>
  <rdf:RDF xmlns:dc="http://purl.org/dc/elements/1.1/" xmlns:cc="http://creativecommons.org/ns#" xmlns:rdf="http://www.w3.org/1999/02/22-rdf-syntax-ns#">
   <cc:Work>
    <dc:type rdf:resource="http://purl.org/dc/dcmitype/StillImage"/>
    <dc:date>2025-12-03T13:36:58.403392</dc:date>
    <dc:format>image/svg+xml</dc:format>
    <dc:creator>
     <cc:Agent>
      <dc:title>Matplotlib v3.6.2, https://matplotlib.org/</dc:title>
     </cc:Agent>
    </dc:creator>
   </cc:Work>
  </rdf:RDF>
 </metadata>
 <defs>
  <style type="text/css">*{stroke-linejoin: round; stroke-linecap: butt}</style>
 </defs>
 <g id="figure_1">
  <g id="patch_1">
   <path d="M 0 345.6 
L 460.8 345.6 
L 460.8 0 
L 0 0 
L 0 345.6 
z
" style="fill: none"/>
  </g>
  <g id="axes_1">
   <g id="patch_2">
    <path d="M 57.6 307.584 
L 414.72 307.584 
L 414.72 41.472 
L 57.6 41.472 
L 57.6 307.584 
z
" style="fill: none"/>
   </g>
   <g id="PolyCollection_1">
    <defs>
     <path id="m12724b3b9b" d="M 73.832727 -63.151826 
L 73.832727 -56.589634 
L 76.151688 -55.428259 
L 78.470649 -54.728025 
L 80.78961 -59.566354 
L 83.108571 -54.958682 
L 85.427532 -52.33077 
L 87.746494 -60.181768 
L 90.065455 -69.211887 
L 92.384416 -62.949303 
L 94.703377 -59.43843 
L 97.022338 -54.324639 
L 99.341299 -55.954358 
L 101.66026 -57.349317 
L 103.979221 -57.105342 
L 106.298182 -53.459085 
L 108.617143 -54.96784 
L 110.936104 -54.73316 
L 113.255065 -56.036996 
L 115.574026 -58.113826 
L 117.892987 -58.387089 
L 120.211948 -64.365476 
L 122.530909 -64.147831 
L 124.84987 -68.476333 
L 127.168831 -74.917045 
L 129.487792 -74.232636 
L 131.806753 -78.385859 
L 134.125714 -91.603922 
L 136.444675 -101.101854 
L 138.763636 -101.696207 
L 141.082597 -104.234535 
L 143.401558 -103.625887 
L 145.720519 -102.211519 
L 148.039481 -98.632417 
L 150.358442 -98.835301 
L 152.677403 -108.50946 
L 154.996364 -119.476036 
L 157.315325 -125.829515 
L 159.634286 -135.556151 
L 161.953247 -147.711825 
L 164.272208 -152.388507 
L 166.591169 -150.806498 
L 168.91013 -152.358629 
L 171.229091 -154.187172 
L 173.548052 -152.983838 
L 175.867013 -145.032885 
L 178.185974 -135.922368 
L 180.504935 -138.315493 
L 182.823896 -147.09242 
L 185.142857 -155.132461 
L 187.461818 -157.671819 
L 189.780779 -158.024816 
L 192.09974 -156.361123 
L 194.418701 -150.724928 
L 196.737662 -142.729633 
L 199.056623 -134.443921 
L 201.375584 -126.165429 
L 203.694545 -118.908041 
L 206.013506 -111.309047 
L 208.332468 -106.383699 
L 210.651429 -105.875076 
L 212.97039 -106.144989 
L 215.289351 -107.563651 
L 217.608312 -112.045715 
L 219.927273 -117.154769 
L 222.246234 -121.094218 
L 224.565195 -124.443213 
L 226.884156 -126.833299 
L 229.203117 -131.651064 
L 231.522078 -136.489447 
L 233.841039 -138.302568 
L 236.16 -139.906441 
L 238.478961 -140.103518 
L 240.797922 -138.489444 
L 243.116883 -137.434084 
L 245.435844 -138.128406 
L 247.754805 -135.573217 
L 250.073766 -129.853477 
L 252.392727 -124.652393 
L 254.711688 -120.599434 
L 257.030649 -116.795293 
L 259.34961 -114.185068 
L 261.668571 -113.082967 
L 263.987532 -111.502291 
L 266.306494 -111.394642 
L 268.625455 -114.446742 
L 270.944416 -117.841143 
L 273.263377 -119.216596 
L 275.582338 -118.327838 
L 277.901299 -116.879674 
L 280.22026 -116.269284 
L 282.539221 -114.971485 
L 284.858182 -111.928725 
L 287.177143 -108.696347 
L 289.496104 -107.45167 
L 291.815065 -108.847005 
L 294.134026 -110.389664 
L 296.452987 -111.17331 
L 298.771948 -111.159427 
L 301.090909 -110.758479 
L 303.40987 -109.70402 
L 305.728831 -107.178092 
L 308.047792 -104.28734 
L 310.366753 -103.268772 
L 312.685714 -104.774252 
L 315.004675 -104.283725 
L 317.323636 -98.511954 
L 319.642597 -92.558657 
L 321.961558 -89.583387 
L 324.280519 -88.800435 
L 326.599481 -89.911082 
L 328.918442 -91.95967 
L 331.237403 -93.590911 
L 333.556364 -92.911606 
L 335.875325 -89.747879 
L 338.194286 -85.322167 
L 340.513247 -82.149867 
L 342.832208 -81.28205 
L 345.151169 -82.08298 
L 347.47013 -83.184456 
L 349.789091 -83.509387 
L 352.108052 -81.883645 
L 354.427013 -80.117014 
L 356.745974 -79.491496 
L 359.064935 -78.023795 
L 361.383896 -76.027095 
L 363.702857 -75.302897 
L 366.021818 -75.597679 
L 368.340779 -76.565606 
L 370.65974 -77.408221 
L 372.978701 -78.736636 
L 375.297662 -80.187781 
L 377.616623 -81.077716 
L 379.935584 -81.604571 
L 382.254545 -81.404916 
L 384.573506 -81.205057 
L 386.892468 -81.177918 
L 389.211429 -81.242241 
L 391.53039 -80.421355 
L 393.849351 -79.684063 
L 396.168312 -78.481227 
L 398.487273 -78.413689 
L 398.487273 -92.689222 
L 398.487273 -92.689222 
L 396.168312 -90.145401 
L 393.849351 -91.269012 
L 391.53039 -93.063109 
L 389.211429 -95.309417 
L 386.892468 -97.003392 
L 384.573506 -99.535244 
L 382.254545 -101.740536 
L 379.935584 -102.921934 
L 377.616623 -101.967255 
L 375.297662 -98.92749 
L 372.978701 -94.444871 
L 370.65974 -90.282045 
L 368.340779 -87.647048 
L 366.021818 -86.167124 
L 363.702857 -85.826962 
L 361.383896 -87.096554 
L 359.064935 -90.71171 
L 356.745974 -93.860022 
L 354.427013 -97.588031 
L 352.108052 -102.199006 
L 349.789091 -104.288047 
L 347.47013 -102.180753 
L 345.151169 -99.265548 
L 342.832208 -98.177259 
L 340.513247 -100.675142 
L 338.194286 -107.934988 
L 335.875325 -118.675108 
L 333.556364 -127.828746 
L 331.237403 -130.087935 
L 328.918442 -124.494279 
L 326.599481 -116.92603 
L 324.280519 -114.256905 
L 321.961558 -116.744173 
L 319.642597 -121.87268 
L 317.323636 -130.916639 
L 315.004675 -143.536671 
L 312.685714 -153.384007 
L 310.366753 -162.115538 
L 308.047792 -171.80848 
L 305.728831 -182.07949 
L 303.40987 -188.307363 
L 301.090909 -187.715475 
L 298.771948 -181.452169 
L 296.452987 -173.642491 
L 294.134026 -166.9207 
L 291.815065 -163.851485 
L 289.496104 -166.116606 
L 287.177143 -172.717201 
L 284.858182 -179.474852 
L 282.539221 -185.069066 
L 280.22026 -189.710975 
L 277.901299 -195.667001 
L 275.582338 -204.534225 
L 273.263377 -212.665229 
L 270.944416 -213.743953 
L 268.625455 -207.233029 
L 266.306494 -197.991966 
L 263.987532 -192.91885 
L 261.668571 -191.88612 
L 259.34961 -189.555199 
L 257.030649 -190.109455 
L 254.711688 -195.179205 
L 252.392727 -203.884566 
L 250.073766 -214.18352 
L 247.754805 -221.304319 
L 245.435844 -224.260857 
L 243.116883 -224.819771 
L 240.797922 -225.527889 
L 238.478961 -225.794268 
L 236.16 -222.873746 
L 233.841039 -219.958134 
L 231.522078 -218.477236 
L 229.203117 -209.133712 
L 226.884156 -194.571966 
L 224.565195 -185.717948 
L 222.246234 -182.750061 
L 219.927273 -183.642507 
L 217.608312 -182.291555 
L 215.289351 -182.905303 
L 212.97039 -189.487014 
L 210.651429 -192.772224 
L 208.332468 -187.781859 
L 206.013506 -181.162219 
L 203.694545 -179.455656 
L 201.375584 -185.754875 
L 199.056623 -201.484466 
L 196.737662 -222.771785 
L 194.418701 -241.111785 
L 192.09974 -255.80366 
L 189.780779 -268.400715 
L 187.461818 -275.993724 
L 185.142857 -291.228529 
L 182.823896 -291.041537 
L 180.504935 -274.481915 
L 178.185974 -249.127086 
L 175.867013 -234.929994 
L 173.548052 -224.268222 
L 171.229091 -219.921576 
L 168.91013 -218.567277 
L 166.591169 -216.475777 
L 164.272208 -213.998208 
L 161.953247 -208.441188 
L 159.634286 -206.65701 
L 157.315325 -205.584839 
L 154.996364 -195.4397 
L 152.677403 -172.214678 
L 150.358442 -158.189603 
L 148.039481 -158.011946 
L 145.720519 -153.804333 
L 143.401558 -148.344039 
L 141.082597 -145.514791 
L 138.763636 -145.189526 
L 136.444675 -146.683248 
L 134.125714 -132.911301 
L 131.806753 -122.962068 
L 129.487792 -119.808526 
L 127.168831 -112.815768 
L 124.84987 -108.401799 
L 122.530909 -81.844489 
L 120.211948 -73.812142 
L 117.892987 -64.075283 
L 115.574026 -64.384535 
L 113.255065 -63.554357 
L 110.936104 -60.620361 
L 108.617143 -60.184329 
L 106.298182 -59.018258 
L 103.979221 -66.582226 
L 101.66026 -73.528472 
L 99.341299 -59.104829 
L 97.022338 -61.613988 
L 94.703377 -63.471649 
L 92.384416 -69.99242 
L 90.065455 -84.181522 
L 87.746494 -65.048674 
L 85.427532 -58.01662 
L 83.108571 -61.712565 
L 80.78961 -63.911388 
L 78.470649 -59.015176 
L 76.151688 -61.797009 
L 73.832727 -63.151826 
z
" style="stroke: #ff2c55; stroke-opacity: 0.1"/>
    </defs>
    <g clip-path="url(#paf29917d76)">
     <use xlink:href="#m12724b3b9b" x="0" y="345.6" style="fill: #ff2c55; fill-opacity: 0.1; stroke: #ff2c55; stroke-opacity: 0.1"/>
    </g>
   </g>
   <g id="PolyCollection_2">
    <defs>
     <path id="m1f6fa1beb5" d="M 73.832727 -65.294317 
L 73.832727 -54.761638 
L 76.151688 -55.521387 
L 78.470649 -60.549331 
L 80.78961 -61.945643 
L 83.108571 -60.990712 
L 85.427532 -50.506196 
L 87.746494 -50.240924 
L 90.065455 -50.112 
L 92.384416 -52.096758 
L 94.703377 -62.96859 
L 97.022338 -61.093559 
L 99.341299 -58.183773 
L 101.66026 -54.690474 
L 103.979221 -57.304718 
L 106.298182 -59.155088 
L 108.617143 -65.262569 
L 110.936104 -66.913618 
L 113.255065 -65.669928 
L 115.574026 -60.760036 
L 117.892987 -60.058933 
L 120.211948 -59.187139 
L 122.530909 -62.271047 
L 124.84987 -69.468081 
L 127.168831 -92.570088 
L 129.487792 -109.877258 
L 131.806753 -111.422564 
L 134.125714 -114.09114 
L 136.444675 -118.69327 
L 138.763636 -123.818208 
L 141.082597 -130.773846 
L 143.401558 -139.09258 
L 145.720519 -146.122509 
L 148.039481 -152.883479 
L 150.358442 -151.053852 
L 152.677403 -147.443111 
L 154.996364 -145.290745 
L 157.315325 -142.162101 
L 159.634286 -138.34006 
L 161.953247 -133.140861 
L 164.272208 -125.804564 
L 166.591169 -118.195075 
L 168.91013 -112.242913 
L 171.229091 -108.11237 
L 173.548052 -104.950461 
L 175.867013 -103.419761 
L 178.185974 -102.409534 
L 180.504935 -100.071747 
L 182.823896 -97.136474 
L 185.142857 -94.739007 
L 187.461818 -91.902838 
L 189.780779 -88.248946 
L 192.09974 -83.915749 
L 194.418701 -80.317757 
L 196.737662 -77.951992 
L 199.056623 -76.54416 
L 201.375584 -75.279056 
L 203.694545 -74.117023 
L 206.013506 -73.304837 
L 208.332468 -72.450745 
L 210.651429 -71.208964 
L 212.97039 -70.818428 
L 215.289351 -71.826647 
L 217.608312 -73.850029 
L 219.927273 -75.609056 
L 222.246234 -76.011155 
L 224.565195 -75.169254 
L 226.884156 -73.849974 
L 229.203117 -72.783963 
L 231.522078 -72.555265 
L 233.841039 -73.411008 
L 236.16 -74.637514 
L 238.478961 -75.391419 
L 240.797922 -74.851848 
L 243.116883 -72.897894 
L 245.435844 -70.892134 
L 247.754805 -69.949053 
L 250.073766 -70.473247 
L 252.392727 -71.414002 
L 254.711688 -71.983043 
L 257.030649 -72.166755 
L 259.34961 -71.76043 
L 261.668571 -71.523781 
L 263.987532 -71.835017 
L 266.306494 -72.580802 
L 268.625455 -73.156646 
L 270.944416 -73.438999 
L 273.263377 -72.989155 
L 275.582338 -72.087384 
L 277.901299 -70.873444 
L 280.22026 -69.435855 
L 282.539221 -68.299507 
L 284.858182 -67.397327 
L 287.177143 -66.331971 
L 289.496104 -65.479794 
L 291.815065 -65.246483 
L 294.134026 -64.628207 
L 296.452987 -63.853268 
L 298.771948 -63.305158 
L 301.090909 -62.924905 
L 303.40987 -62.290508 
L 305.728831 -61.973078 
L 308.047792 -62.323986 
L 310.366753 -63.228042 
L 312.685714 -64.338121 
L 315.004675 -65.471114 
L 317.323636 -66.228845 
L 319.642597 -66.421058 
L 321.961558 -65.764048 
L 324.280519 -64.620281 
L 326.599481 -63.437302 
L 328.918442 -62.851733 
L 331.237403 -62.886975 
L 333.556364 -63.391172 
L 335.875325 -63.631564 
L 338.194286 -63.283876 
L 340.513247 -62.9274 
L 342.832208 -62.759274 
L 345.151169 -62.728875 
L 347.47013 -62.751228 
L 349.789091 -62.481676 
L 352.108052 -61.712185 
L 354.427013 -60.624274 
L 356.745974 -59.354718 
L 359.064935 -58.314554 
L 361.383896 -58.014243 
L 363.702857 -58.195553 
L 366.021818 -58.708068 
L 368.340779 -59.043934 
L 370.65974 -59.22426 
L 372.978701 -59.432884 
L 375.297662 -59.29883 
L 377.616623 -58.551279 
L 379.935584 -58.081248 
L 382.254545 -57.830684 
L 384.573506 -57.289928 
L 386.892468 -56.217031 
L 389.211429 -55.262667 
L 391.53039 -54.720023 
L 393.849351 -54.314603 
L 396.168312 -54.136824 
L 398.487273 -54.333073 
L 398.487273 -65.0676 
L 398.487273 -65.0676 
L 396.168312 -64.960831 
L 393.849351 -65.173837 
L 391.53039 -65.492295 
L 389.211429 -66.165456 
L 386.892468 -67.63283 
L 384.573506 -69.40169 
L 382.254545 -70.575195 
L 379.935584 -71.482311 
L 377.616623 -72.643376 
L 375.297662 -73.964455 
L 372.978701 -74.075471 
L 370.65974 -73.505375 
L 368.340779 -72.67285 
L 366.021818 -71.75104 
L 363.702857 -70.885394 
L 361.383896 -70.675824 
L 359.064935 -71.143984 
L 356.745974 -72.479121 
L 354.427013 -73.957641 
L 352.108052 -75.233737 
L 349.789091 -76.401664 
L 347.47013 -77.483142 
L 345.151169 -78.825825 
L 342.832208 -80.705312 
L 340.513247 -82.679965 
L 338.194286 -83.566235 
L 335.875325 -84.106789 
L 333.556364 -83.826346 
L 331.237403 -83.513812 
L 328.918442 -84.047286 
L 326.599481 -86.221713 
L 324.280519 -89.731223 
L 321.961558 -92.386732 
L 319.642597 -92.864803 
L 317.323636 -90.456527 
L 315.004675 -86.568885 
L 312.685714 -82.939918 
L 310.366753 -80.394247 
L 308.047792 -79.448585 
L 305.728831 -80.179863 
L 303.40987 -81.842435 
L 301.090909 -83.735608 
L 298.771948 -85.21047 
L 296.452987 -87.177716 
L 294.134026 -89.42003 
L 291.815065 -91.457075 
L 289.496104 -92.417385 
L 287.177143 -94.225779 
L 284.858182 -96.167912 
L 282.539221 -97.609498 
L 280.22026 -99.842237 
L 277.901299 -103.040052 
L 275.582338 -105.696032 
L 273.263377 -107.916554 
L 270.944416 -109.326493 
L 268.625455 -109.474945 
L 266.306494 -110.786175 
L 263.987532 -113.492148 
L 261.668571 -118.003211 
L 259.34961 -122.1572 
L 257.030649 -123.591396 
L 254.711688 -120.249428 
L 252.392727 -114.844051 
L 250.073766 -108.158789 
L 247.754805 -103.372938 
L 245.435844 -102.36879 
L 243.116883 -104.324158 
L 240.797922 -106.961647 
L 238.478961 -107.066755 
L 236.16 -105.194494 
L 233.841039 -104.410106 
L 231.522078 -106.707141 
L 229.203117 -111.887982 
L 226.884156 -117.590358 
L 224.565195 -122.075385 
L 222.246234 -122.288477 
L 219.927273 -118.048918 
L 217.608312 -111.256451 
L 215.289351 -105.751356 
L 212.97039 -104.619855 
L 210.651429 -106.461071 
L 208.332468 -108.620605 
L 206.013506 -109.515771 
L 203.694545 -111.512377 
L 201.375584 -114.354271 
L 199.056623 -116.197939 
L 196.737662 -116.845827 
L 194.418701 -117.424772 
L 192.09974 -119.709874 
L 189.780779 -122.491874 
L 187.461818 -125.712597 
L 185.142857 -131.546712 
L 182.823896 -138.044776 
L 180.504935 -145.060137 
L 178.185974 -152.349547 
L 175.867013 -157.74125 
L 173.548052 -161.424906 
L 171.229091 -165.304859 
L 168.91013 -169.103115 
L 166.591169 -171.576446 
L 164.272208 -172.098819 
L 161.953247 -176.068811 
L 159.634286 -184.446444 
L 157.315325 -194.869278 
L 154.996364 -203.748779 
L 152.677403 -207.610046 
L 150.358442 -213.95967 
L 148.039481 -216.524065 
L 145.720519 -204.53538 
L 143.401558 -189.165842 
L 141.082597 -174.986281 
L 138.763636 -164.707944 
L 136.444675 -158.825214 
L 134.125714 -161.932772 
L 131.806753 -178.399243 
L 129.487792 -176.229336 
L 127.168831 -145.232199 
L 124.84987 -99.194615 
L 122.530909 -76.851159 
L 120.211948 -70.872067 
L 117.892987 -67.296595 
L 115.574026 -67.508167 
L 113.255065 -82.76897 
L 110.936104 -98.082212 
L 108.617143 -91.277113 
L 106.298182 -85.802441 
L 103.979221 -85.263765 
L 101.66026 -63.053683 
L 99.341299 -64.520518 
L 97.022338 -75.507985 
L 94.703377 -77.175502 
L 92.384416 -59.126047 
L 90.065455 -60.483476 
L 87.746494 -60.152942 
L 85.427532 -59.100047 
L 83.108571 -71.762159 
L 80.78961 -80.45448 
L 78.470649 -63.366338 
L 76.151688 -63.899086 
L 73.832727 -65.294317 
z
" style="stroke: #ee9b00; stroke-opacity: 0.1"/>
    </defs>
    <g clip-path="url(#paf29917d76)">
     <use xlink:href="#m1f6fa1beb5" x="0" y="345.6" style="fill: #ee9b00; fill-opacity: 0.1; stroke: #ee9b00; stroke-opacity: 0.1"/>
    </g>
   </g>
   <g id="matplotlib.axis_1">
    <g id="xtick_1">
     <g id="line2d_1">
      <defs>
       <path id="mba54a6f703" d="M 0 0 
L 0 3.5 
" style="stroke: #000000; stroke-width: 0.8"/>
      </defs>
      <g>
       <use xlink:href="#mba54a6f703" x="103.346777" y="307.584" style="stroke: #000000; stroke-width: 0.8"/>
      </g>
     </g>
     <g id="text_1">
      <!-- 0.0 -->
      <g transform="translate(95.395214 322.182437) scale(0.1 -0.1)">
       <defs>
        <path id="DejaVuSans-30" d="M 2034 4250 
Q 1547 4250 1301 3770 
Q 1056 3291 1056 2328 
Q 1056 1369 1301 889 
Q 1547 409 2034 409 
Q 2525 409 2770 889 
Q 3016 1369 3016 2328 
Q 3016 3291 2770 3770 
Q 2525 4250 2034 4250 
z
M 2034 4750 
Q 2819 4750 3233 4129 
Q 3647 3509 3647 2328 
Q 3647 1150 3233 529 
Q 2819 -91 2034 -91 
Q 1250 -91 836 529 
Q 422 1150 422 2328 
Q 422 3509 836 4129 
Q 1250 4750 2034 4750 
z
" transform="scale(0.015625)"/>
        <path id="DejaVuSans-2e" d="M 684 794 
L 1344 794 
L 1344 0 
L 684 0 
L 684 794 
z
" transform="scale(0.015625)"/>
       </defs>
       <use xlink:href="#DejaVuSans-30"/>
       <use xlink:href="#DejaVuSans-2e" x="63.623047"/>
       <use xlink:href="#DejaVuSans-30" x="95.410156"/>
      </g>
     </g>
    </g>
    <g id="xtick_2">
     <g id="line2d_2">
      <g>
       <use xlink:href="#mba54a6f703" x="162.374876" y="307.584" style="stroke: #000000; stroke-width: 0.8"/>
      </g>
     </g>
     <g id="text_2">
      <!-- 0.2 -->
      <g transform="translate(154.423314 322.182437) scale(0.1 -0.1)">
       <defs>
        <path id="DejaVuSans-32" d="M 1228 531 
L 3431 531 
L 3431 0 
L 469 0 
L 469 531 
Q 828 903 1448 1529 
Q 2069 2156 2228 2338 
Q 2531 2678 2651 2914 
Q 2772 3150 2772 3378 
Q 2772 3750 2511 3984 
Q 2250 4219 1831 4219 
Q 1534 4219 1204 4116 
Q 875 4013 500 3803 
L 500 4441 
Q 881 4594 1212 4672 
Q 1544 4750 1819 4750 
Q 2544 4750 2975 4387 
Q 3406 4025 3406 3419 
Q 3406 3131 3298 2873 
Q 3191 2616 2906 2266 
Q 2828 2175 2409 1742 
Q 1991 1309 1228 531 
z
" transform="scale(0.015625)"/>
       </defs>
       <use xlink:href="#DejaVuSans-30"/>
       <use xlink:href="#DejaVuSans-2e" x="63.623047"/>
       <use xlink:href="#DejaVuSans-32" x="95.410156"/>
      </g>
     </g>
    </g>
    <g id="xtick_3">
     <g id="line2d_3">
      <g>
       <use xlink:href="#mba54a6f703" x="221.402975" y="307.584" style="stroke: #000000; stroke-width: 0.8"/>
      </g>
     </g>
     <g id="text_3">
      <!-- 0.4 -->
      <g transform="translate(213.451413 322.182437) scale(0.1 -0.1)">
       <defs>
        <path id="DejaVuSans-34" d="M 2419 4116 
L 825 1625 
L 2419 1625 
L 2419 4116 
z
M 2253 4666 
L 3047 4666 
L 3047 1625 
L 3713 1625 
L 3713 1100 
L 3047 1100 
L 3047 0 
L 2419 0 
L 2419 1100 
L 313 1100 
L 313 1709 
L 2253 4666 
z
" transform="scale(0.015625)"/>
       </defs>
       <use xlink:href="#DejaVuSans-30"/>
       <use xlink:href="#DejaVuSans-2e" x="63.623047"/>
       <use xlink:href="#DejaVuSans-34" x="95.410156"/>
      </g>
     </g>
    </g>
    <g id="xtick_4">
     <g id="line2d_4">
      <g>
       <use xlink:href="#mba54a6f703" x="280.431074" y="307.584" style="stroke: #000000; stroke-width: 0.8"/>
      </g>
     </g>
     <g id="text_4">
      <!-- 0.6 -->
      <g transform="translate(272.479512 322.182437) scale(0.1 -0.1)">
       <defs>
        <path id="DejaVuSans-36" d="M 2113 2584 
Q 1688 2584 1439 2293 
Q 1191 2003 1191 1497 
Q 1191 994 1439 701 
Q 1688 409 2113 409 
Q 2538 409 2786 701 
Q 3034 994 3034 1497 
Q 3034 2003 2786 2293 
Q 2538 2584 2113 2584 
z
M 3366 4563 
L 3366 3988 
Q 3128 4100 2886 4159 
Q 2644 4219 2406 4219 
Q 1781 4219 1451 3797 
Q 1122 3375 1075 2522 
Q 1259 2794 1537 2939 
Q 1816 3084 2150 3084 
Q 2853 3084 3261 2657 
Q 3669 2231 3669 1497 
Q 3669 778 3244 343 
Q 2819 -91 2113 -91 
Q 1303 -91 875 529 
Q 447 1150 447 2328 
Q 447 3434 972 4092 
Q 1497 4750 2381 4750 
Q 2619 4750 2861 4703 
Q 3103 4656 3366 4563 
z
" transform="scale(0.015625)"/>
       </defs>
       <use xlink:href="#DejaVuSans-30"/>
       <use xlink:href="#DejaVuSans-2e" x="63.623047"/>
       <use xlink:href="#DejaVuSans-36" x="95.410156"/>
      </g>
     </g>
    </g>
    <g id="xtick_5">
     <g id="line2d_5">
      <g>
       <use xlink:href="#mba54a6f703" x="339.459174" y="307.584" style="stroke: #000000; stroke-width: 0.8"/>
      </g>
     </g>
     <g id="text_5">
      <!-- 0.8 -->
      <g transform="translate(331.507611 322.182437) scale(0.1 -0.1)">
       <defs>
        <path id="DejaVuSans-38" d="M 2034 2216 
Q 1584 2216 1326 1975 
Q 1069 1734 1069 1313 
Q 1069 891 1326 650 
Q 1584 409 2034 409 
Q 2484 409 2743 651 
Q 3003 894 3003 1313 
Q 3003 1734 2745 1975 
Q 2488 2216 2034 2216 
z
M 1403 2484 
Q 997 2584 770 2862 
Q 544 3141 544 3541 
Q 544 4100 942 4425 
Q 1341 4750 2034 4750 
Q 2731 4750 3128 4425 
Q 3525 4100 3525 3541 
Q 3525 3141 3298 2862 
Q 3072 2584 2669 2484 
Q 3125 2378 3379 2068 
Q 3634 1759 3634 1313 
Q 3634 634 3220 271 
Q 2806 -91 2034 -91 
Q 1263 -91 848 271 
Q 434 634 434 1313 
Q 434 1759 690 2068 
Q 947 2378 1403 2484 
z
M 1172 3481 
Q 1172 3119 1398 2916 
Q 1625 2713 2034 2713 
Q 2441 2713 2670 2916 
Q 2900 3119 2900 3481 
Q 2900 3844 2670 4047 
Q 2441 4250 2034 4250 
Q 1625 4250 1398 4047 
Q 1172 3844 1172 3481 
z
" transform="scale(0.015625)"/>
       </defs>
       <use xlink:href="#DejaVuSans-30"/>
       <use xlink:href="#DejaVuSans-2e" x="63.623047"/>
       <use xlink:href="#DejaVuSans-38" x="95.410156"/>
      </g>
     </g>
    </g>
    <g id="xtick_6">
     <g id="line2d_6">
      <g>
       <use xlink:href="#mba54a6f703" x="398.487273" y="307.584" style="stroke: #000000; stroke-width: 0.8"/>
      </g>
     </g>
     <g id="text_6">
      <!-- 1.0 -->
      <g transform="translate(390.53571 322.182437) scale(0.1 -0.1)">
       <defs>
        <path id="DejaVuSans-31" d="M 794 531 
L 1825 531 
L 1825 4091 
L 703 3866 
L 703 4441 
L 1819 4666 
L 2450 4666 
L 2450 531 
L 3481 531 
L 3481 0 
L 794 0 
L 794 531 
z
" transform="scale(0.015625)"/>
       </defs>
       <use xlink:href="#DejaVuSans-31"/>
       <use xlink:href="#DejaVuSans-2e" x="63.623047"/>
       <use xlink:href="#DejaVuSans-30" x="95.410156"/>
      </g>
     </g>
    </g>
    <g id="text_7">
     <!-- Time (s) -->
     <g transform="translate(215.831094 335.860562) scale(0.1 -0.1)">
      <defs>
       <path id="DejaVuSans-54" d="M -19 4666 
L 3928 4666 
L 3928 4134 
L 2272 4134 
L 2272 0 
L 1638 0 
L 1638 4134 
L -19 4134 
L -19 4666 
z
" transform="scale(0.015625)"/>
       <path id="DejaVuSans-69" d="M 603 3500 
L 1178 3500 
L 1178 0 
L 603 0 
L 603 3500 
z
M 603 4863 
L 1178 4863 
L 1178 4134 
L 603 4134 
L 603 4863 
z
" transform="scale(0.015625)"/>
       <path id="DejaVuSans-6d" d="M 3328 2828 
Q 3544 3216 3844 3400 
Q 4144 3584 4550 3584 
Q 5097 3584 5394 3201 
Q 5691 2819 5691 2113 
L 5691 0 
L 5113 0 
L 5113 2094 
Q 5113 2597 4934 2840 
Q 4756 3084 4391 3084 
Q 3944 3084 3684 2787 
Q 3425 2491 3425 1978 
L 3425 0 
L 2847 0 
L 2847 2094 
Q 2847 2600 2669 2842 
Q 2491 3084 2119 3084 
Q 1678 3084 1418 2786 
Q 1159 2488 1159 1978 
L 1159 0 
L 581 0 
L 581 3500 
L 1159 3500 
L 1159 2956 
Q 1356 3278 1631 3431 
Q 1906 3584 2284 3584 
Q 2666 3584 2933 3390 
Q 3200 3197 3328 2828 
z
" transform="scale(0.015625)"/>
       <path id="DejaVuSans-65" d="M 3597 1894 
L 3597 1613 
L 953 1613 
Q 991 1019 1311 708 
Q 1631 397 2203 397 
Q 2534 397 2845 478 
Q 3156 559 3463 722 
L 3463 178 
Q 3153 47 2828 -22 
Q 2503 -91 2169 -91 
Q 1331 -91 842 396 
Q 353 884 353 1716 
Q 353 2575 817 3079 
Q 1281 3584 2069 3584 
Q 2775 3584 3186 3129 
Q 3597 2675 3597 1894 
z
M 3022 2063 
Q 3016 2534 2758 2815 
Q 2500 3097 2075 3097 
Q 1594 3097 1305 2825 
Q 1016 2553 972 2059 
L 3022 2063 
z
" transform="scale(0.015625)"/>
       <path id="DejaVuSans-20" transform="scale(0.015625)"/>
       <path id="DejaVuSans-28" d="M 1984 4856 
Q 1566 4138 1362 3434 
Q 1159 2731 1159 2009 
Q 1159 1288 1364 580 
Q 1569 -128 1984 -844 
L 1484 -844 
Q 1016 -109 783 600 
Q 550 1309 550 2009 
Q 550 2706 781 3412 
Q 1013 4119 1484 4856 
L 1984 4856 
z
" transform="scale(0.015625)"/>
       <path id="DejaVuSans-73" d="M 2834 3397 
L 2834 2853 
Q 2591 2978 2328 3040 
Q 2066 3103 1784 3103 
Q 1356 3103 1142 2972 
Q 928 2841 928 2578 
Q 928 2378 1081 2264 
Q 1234 2150 1697 2047 
L 1894 2003 
Q 2506 1872 2764 1633 
Q 3022 1394 3022 966 
Q 3022 478 2636 193 
Q 2250 -91 1575 -91 
Q 1294 -91 989 -36 
Q 684 19 347 128 
L 347 722 
Q 666 556 975 473 
Q 1284 391 1588 391 
Q 1994 391 2212 530 
Q 2431 669 2431 922 
Q 2431 1156 2273 1281 
Q 2116 1406 1581 1522 
L 1381 1569 
Q 847 1681 609 1914 
Q 372 2147 372 2553 
Q 372 3047 722 3315 
Q 1072 3584 1716 3584 
Q 2034 3584 2315 3537 
Q 2597 3491 2834 3397 
z
" transform="scale(0.015625)"/>
       <path id="DejaVuSans-29" d="M 513 4856 
L 1013 4856 
Q 1481 4119 1714 3412 
Q 1947 2706 1947 2009 
Q 1947 1309 1714 600 
Q 1481 -109 1013 -844 
L 513 -844 
Q 928 -128 1133 580 
Q 1338 1288 1338 2009 
Q 1338 2731 1133 3434 
Q 928 4138 513 4856 
z
" transform="scale(0.015625)"/>
      </defs>
      <use xlink:href="#DejaVuSans-54"/>
      <use xlink:href="#DejaVuSans-69" x="57.958984"/>
      <use xlink:href="#DejaVuSans-6d" x="85.742188"/>
      <use xlink:href="#DejaVuSans-65" x="183.154297"/>
      <use xlink:href="#DejaVuSans-20" x="244.677734"/>
      <use xlink:href="#DejaVuSans-28" x="276.464844"/>
      <use xlink:href="#DejaVuSans-73" x="315.478516"/>
      <use xlink:href="#DejaVuSans-29" x="367.578125"/>
     </g>
    </g>
   </g>
   <g id="matplotlib.axis_2">
    <g id="ytick_1">
     <g id="line2d_7">
      <defs>
       <path id="mc87973a0f6" d="M 0 0 
L -3.5 0 
" style="stroke: #000000; stroke-width: 0.8"/>
      </defs>
      <g>
       <use xlink:href="#mc87973a0f6" x="57.6" y="284.155478" style="stroke: #000000; stroke-width: 0.8"/>
      </g>
     </g>
     <g id="text_8">
      <!-- 0.000 -->
      <g transform="translate(21.971875 287.954697) scale(0.1 -0.1)">
       <use xlink:href="#DejaVuSans-30"/>
       <use xlink:href="#DejaVuSans-2e" x="63.623047"/>
       <use xlink:href="#DejaVuSans-30" x="95.410156"/>
       <use xlink:href="#DejaVuSans-30" x="159.033203"/>
       <use xlink:href="#DejaVuSans-30" x="222.65625"/>
      </g>
     </g>
    </g>
    <g id="ytick_2">
     <g id="line2d_8">
      <g>
       <use xlink:href="#mc87973a0f6" x="57.6" y="244.399017" style="stroke: #000000; stroke-width: 0.8"/>
      </g>
     </g>
     <g id="text_9">
      <!-- 0.001 -->
      <g transform="translate(21.971875 248.198235) scale(0.1 -0.1)">
       <use xlink:href="#DejaVuSans-30"/>
       <use xlink:href="#DejaVuSans-2e" x="63.623047"/>
       <use xlink:href="#DejaVuSans-30" x="95.410156"/>
       <use xlink:href="#DejaVuSans-30" x="159.033203"/>
       <use xlink:href="#DejaVuSans-31" x="222.65625"/>
      </g>
     </g>
    </g>
    <g id="ytick_3">
     <g id="line2d_9">
      <g>
       <use xlink:href="#mc87973a0f6" x="57.6" y="204.642555" style="stroke: #000000; stroke-width: 0.8"/>
      </g>
     </g>
     <g id="text_10">
      <!-- 0.002 -->
      <g transform="translate(21.971875 208.441773) scale(0.1 -0.1)">
       <use xlink:href="#DejaVuSans-30"/>
       <use xlink:href="#DejaVuSans-2e" x="63.623047"/>
       <use xlink:href="#DejaVuSans-30" x="95.410156"/>
       <use xlink:href="#DejaVuSans-30" x="159.033203"/>
       <use xlink:href="#DejaVuSans-32" x="222.65625"/>
      </g>
     </g>
    </g>
    <g id="ytick_4">
     <g id="line2d_10">
      <g>
       <use xlink:href="#mc87973a0f6" x="57.6" y="164.886093" style="stroke: #000000; stroke-width: 0.8"/>
      </g>
     </g>
     <g id="text_11">
      <!-- 0.003 -->
      <g transform="translate(21.971875 168.685312) scale(0.1 -0.1)">
       <defs>
        <path id="DejaVuSans-33" d="M 2597 2516 
Q 3050 2419 3304 2112 
Q 3559 1806 3559 1356 
Q 3559 666 3084 287 
Q 2609 -91 1734 -91 
Q 1441 -91 1130 -33 
Q 819 25 488 141 
L 488 750 
Q 750 597 1062 519 
Q 1375 441 1716 441 
Q 2309 441 2620 675 
Q 2931 909 2931 1356 
Q 2931 1769 2642 2001 
Q 2353 2234 1838 2234 
L 1294 2234 
L 1294 2753 
L 1863 2753 
Q 2328 2753 2575 2939 
Q 2822 3125 2822 3475 
Q 2822 3834 2567 4026 
Q 2313 4219 1838 4219 
Q 1578 4219 1281 4162 
Q 984 4106 628 3988 
L 628 4550 
Q 988 4650 1302 4700 
Q 1616 4750 1894 4750 
Q 2613 4750 3031 4423 
Q 3450 4097 3450 3541 
Q 3450 3153 3228 2886 
Q 3006 2619 2597 2516 
z
" transform="scale(0.015625)"/>
       </defs>
       <use xlink:href="#DejaVuSans-30"/>
       <use xlink:href="#DejaVuSans-2e" x="63.623047"/>
       <use xlink:href="#DejaVuSans-30" x="95.410156"/>
       <use xlink:href="#DejaVuSans-30" x="159.033203"/>
       <use xlink:href="#DejaVuSans-33" x="222.65625"/>
      </g>
     </g>
    </g>
    <g id="ytick_5">
     <g id="line2d_11">
      <g>
       <use xlink:href="#mc87973a0f6" x="57.6" y="125.129631" style="stroke: #000000; stroke-width: 0.8"/>
      </g>
     </g>
     <g id="text_12">
      <!-- 0.004 -->
      <g transform="translate(21.971875 128.92885) scale(0.1 -0.1)">
       <use xlink:href="#DejaVuSans-30"/>
       <use xlink:href="#DejaVuSans-2e" x="63.623047"/>
       <use xlink:href="#DejaVuSans-30" x="95.410156"/>
       <use xlink:href="#DejaVuSans-30" x="159.033203"/>
       <use xlink:href="#DejaVuSans-34" x="222.65625"/>
      </g>
     </g>
    </g>
    <g id="ytick_6">
     <g id="line2d_12">
      <g>
       <use xlink:href="#mc87973a0f6" x="57.6" y="85.373169" style="stroke: #000000; stroke-width: 0.8"/>
      </g>
     </g>
     <g id="text_13">
      <!-- 0.005 -->
      <g transform="translate(21.971875 89.172388) scale(0.1 -0.1)">
       <defs>
        <path id="DejaVuSans-35" d="M 691 4666 
L 3169 4666 
L 3169 4134 
L 1269 4134 
L 1269 2991 
Q 1406 3038 1543 3061 
Q 1681 3084 1819 3084 
Q 2600 3084 3056 2656 
Q 3513 2228 3513 1497 
Q 3513 744 3044 326 
Q 2575 -91 1722 -91 
Q 1428 -91 1123 -41 
Q 819 9 494 109 
L 494 744 
Q 775 591 1075 516 
Q 1375 441 1709 441 
Q 2250 441 2565 725 
Q 2881 1009 2881 1497 
Q 2881 1984 2565 2268 
Q 2250 2553 1709 2553 
Q 1456 2553 1204 2497 
Q 953 2441 691 2322 
L 691 4666 
z
" transform="scale(0.015625)"/>
       </defs>
       <use xlink:href="#DejaVuSans-30"/>
       <use xlink:href="#DejaVuSans-2e" x="63.623047"/>
       <use xlink:href="#DejaVuSans-30" x="95.410156"/>
       <use xlink:href="#DejaVuSans-30" x="159.033203"/>
       <use xlink:href="#DejaVuSans-35" x="222.65625"/>
      </g>
     </g>
    </g>
    <g id="ytick_7">
     <g id="line2d_13">
      <g>
       <use xlink:href="#mc87973a0f6" x="57.6" y="45.616708" style="stroke: #000000; stroke-width: 0.8"/>
      </g>
     </g>
     <g id="text_14">
      <!-- 0.006 -->
      <g transform="translate(21.971875 49.415926) scale(0.1 -0.1)">
       <use xlink:href="#DejaVuSans-30"/>
       <use xlink:href="#DejaVuSans-2e" x="63.623047"/>
       <use xlink:href="#DejaVuSans-30" x="95.410156"/>
       <use xlink:href="#DejaVuSans-30" x="159.033203"/>
       <use xlink:href="#DejaVuSans-36" x="222.65625"/>
      </g>
     </g>
    </g>
    <g id="text_15">
     <!-- Unique Variance -->
     <g transform="translate(15.892187 215.353781) rotate(-90) scale(0.1 -0.1)">
      <defs>
       <path id="DejaVuSans-55" d="M 556 4666 
L 1191 4666 
L 1191 1831 
Q 1191 1081 1462 751 
Q 1734 422 2344 422 
Q 2950 422 3222 751 
Q 3494 1081 3494 1831 
L 3494 4666 
L 4128 4666 
L 4128 1753 
Q 4128 841 3676 375 
Q 3225 -91 2344 -91 
Q 1459 -91 1007 375 
Q 556 841 556 1753 
L 556 4666 
z
" transform="scale(0.015625)"/>
       <path id="DejaVuSans-6e" d="M 3513 2113 
L 3513 0 
L 2938 0 
L 2938 2094 
Q 2938 2591 2744 2837 
Q 2550 3084 2163 3084 
Q 1697 3084 1428 2787 
Q 1159 2491 1159 1978 
L 1159 0 
L 581 0 
L 581 3500 
L 1159 3500 
L 1159 2956 
Q 1366 3272 1645 3428 
Q 1925 3584 2291 3584 
Q 2894 3584 3203 3211 
Q 3513 2838 3513 2113 
z
" transform="scale(0.015625)"/>
       <path id="DejaVuSans-71" d="M 947 1747 
Q 947 1113 1208 752 
Q 1469 391 1925 391 
Q 2381 391 2643 752 
Q 2906 1113 2906 1747 
Q 2906 2381 2643 2742 
Q 2381 3103 1925 3103 
Q 1469 3103 1208 2742 
Q 947 2381 947 1747 
z
M 2906 525 
Q 2725 213 2448 61 
Q 2172 -91 1784 -91 
Q 1150 -91 751 415 
Q 353 922 353 1747 
Q 353 2572 751 3078 
Q 1150 3584 1784 3584 
Q 2172 3584 2448 3432 
Q 2725 3281 2906 2969 
L 2906 3500 
L 3481 3500 
L 3481 -1331 
L 2906 -1331 
L 2906 525 
z
" transform="scale(0.015625)"/>
       <path id="DejaVuSans-75" d="M 544 1381 
L 544 3500 
L 1119 3500 
L 1119 1403 
Q 1119 906 1312 657 
Q 1506 409 1894 409 
Q 2359 409 2629 706 
Q 2900 1003 2900 1516 
L 2900 3500 
L 3475 3500 
L 3475 0 
L 2900 0 
L 2900 538 
Q 2691 219 2414 64 
Q 2138 -91 1772 -91 
Q 1169 -91 856 284 
Q 544 659 544 1381 
z
M 1991 3584 
L 1991 3584 
z
" transform="scale(0.015625)"/>
       <path id="DejaVuSans-56" d="M 1831 0 
L 50 4666 
L 709 4666 
L 2188 738 
L 3669 4666 
L 4325 4666 
L 2547 0 
L 1831 0 
z
" transform="scale(0.015625)"/>
       <path id="DejaVuSans-61" d="M 2194 1759 
Q 1497 1759 1228 1600 
Q 959 1441 959 1056 
Q 959 750 1161 570 
Q 1363 391 1709 391 
Q 2188 391 2477 730 
Q 2766 1069 2766 1631 
L 2766 1759 
L 2194 1759 
z
M 3341 1997 
L 3341 0 
L 2766 0 
L 2766 531 
Q 2569 213 2275 61 
Q 1981 -91 1556 -91 
Q 1019 -91 701 211 
Q 384 513 384 1019 
Q 384 1609 779 1909 
Q 1175 2209 1959 2209 
L 2766 2209 
L 2766 2266 
Q 2766 2663 2505 2880 
Q 2244 3097 1772 3097 
Q 1472 3097 1187 3025 
Q 903 2953 641 2809 
L 641 3341 
Q 956 3463 1253 3523 
Q 1550 3584 1831 3584 
Q 2591 3584 2966 3190 
Q 3341 2797 3341 1997 
z
" transform="scale(0.015625)"/>
       <path id="DejaVuSans-72" d="M 2631 2963 
Q 2534 3019 2420 3045 
Q 2306 3072 2169 3072 
Q 1681 3072 1420 2755 
Q 1159 2438 1159 1844 
L 1159 0 
L 581 0 
L 581 3500 
L 1159 3500 
L 1159 2956 
Q 1341 3275 1631 3429 
Q 1922 3584 2338 3584 
Q 2397 3584 2469 3576 
Q 2541 3569 2628 3553 
L 2631 2963 
z
" transform="scale(0.015625)"/>
       <path id="DejaVuSans-63" d="M 3122 3366 
L 3122 2828 
Q 2878 2963 2633 3030 
Q 2388 3097 2138 3097 
Q 1578 3097 1268 2742 
Q 959 2388 959 1747 
Q 959 1106 1268 751 
Q 1578 397 2138 397 
Q 2388 397 2633 464 
Q 2878 531 3122 666 
L 3122 134 
Q 2881 22 2623 -34 
Q 2366 -91 2075 -91 
Q 1284 -91 818 406 
Q 353 903 353 1747 
Q 353 2603 823 3093 
Q 1294 3584 2113 3584 
Q 2378 3584 2631 3529 
Q 2884 3475 3122 3366 
z
" transform="scale(0.015625)"/>
      </defs>
      <use xlink:href="#DejaVuSans-55"/>
      <use xlink:href="#DejaVuSans-6e" x="73.193359"/>
      <use xlink:href="#DejaVuSans-69" x="136.572266"/>
      <use xlink:href="#DejaVuSans-71" x="164.355469"/>
      <use xlink:href="#DejaVuSans-75" x="227.832031"/>
      <use xlink:href="#DejaVuSans-65" x="291.210938"/>
      <use xlink:href="#DejaVuSans-20" x="352.734375"/>
      <use xlink:href="#DejaVuSans-56" x="384.521484"/>
      <use xlink:href="#DejaVuSans-61" x="445.179688"/>
      <use xlink:href="#DejaVuSans-72" x="506.458984"/>
      <use xlink:href="#DejaVuSans-69" x="547.572266"/>
      <use xlink:href="#DejaVuSans-61" x="575.355469"/>
      <use xlink:href="#DejaVuSans-6e" x="636.634766"/>
      <use xlink:href="#DejaVuSans-63" x="700.013672"/>
      <use xlink:href="#DejaVuSans-65" x="754.994141"/>
     </g>
    </g>
   </g>
   <g id="line2d_14">
    <path d="M 103.346777 307.584 
L 103.346777 41.472 
" clip-path="url(#paf29917d76)" style="fill: none; stroke-dasharray: 5.55,2.4; stroke-dashoffset: 0; stroke: #d3d3d3; stroke-width: 1.5"/>
   </g>
   <g id="line2d_15">
    <path d="M 57.6 284.155478 
L 414.72 284.155478 
" clip-path="url(#paf29917d76)" style="fill: none; stroke-dasharray: 5.55,2.4; stroke-dashoffset: 0; stroke: #d3d3d3; stroke-width: 1.5"/>
   </g>
   <g id="line2d_16">
    <path d="M 73.832727 285.72927 
L 76.151688 286.987366 
L 78.470649 288.7284 
L 80.78961 283.861129 
L 83.108571 287.264377 
L 85.427532 290.426305 
L 87.746494 282.984779 
L 90.065455 268.903295 
L 92.384416 279.129139 
L 94.703377 284.14496 
L 97.022338 287.630687 
L 99.341299 288.070406 
L 101.66026 280.161106 
L 103.979221 283.756216 
L 106.298182 289.361328 
L 108.617143 288.023915 
L 110.936104 287.923239 
L 113.255065 285.804324 
L 115.574026 284.35082 
L 117.892987 284.368814 
L 120.211948 276.511191 
L 122.530909 272.60384 
L 124.84987 257.160934 
L 127.168831 251.733594 
L 129.487792 248.579419 
L 131.806753 244.926037 
L 136.444675 221.707449 
L 138.763636 222.157133 
L 141.082597 220.725337 
L 143.401558 219.615037 
L 145.720519 217.592074 
L 148.039481 217.277819 
L 150.358442 217.087548 
L 152.677403 205.237931 
L 154.996364 188.142132 
L 157.315325 179.892823 
L 159.634286 174.49342 
L 161.953247 167.523493 
L 164.272208 162.406642 
L 166.591169 161.958862 
L 168.91013 160.137047 
L 173.548052 156.97397 
L 175.867013 155.61856 
L 178.185974 153.075273 
L 180.504935 139.201296 
L 182.823896 126.533022 
L 185.142857 122.419505 
L 187.461818 128.767228 
L 189.780779 132.387234 
L 192.09974 139.517608 
L 194.418701 149.681643 
L 196.737662 162.849291 
L 199.056623 177.635807 
L 201.375584 189.639848 
L 203.694545 196.418151 
L 206.013506 199.364367 
L 208.332468 198.517221 
L 210.651429 196.27635 
L 212.97039 197.783998 
L 215.289351 200.365523 
L 217.608312 198.431365 
L 219.927273 195.201362 
L 222.246234 193.67786 
L 224.565195 190.519419 
L 226.884156 184.897368 
L 229.203117 175.207612 
L 231.522078 168.116658 
L 233.841039 166.469649 
L 236.16 164.209907 
L 238.478961 162.651107 
L 243.116883 164.473073 
L 245.435844 164.405369 
L 247.754805 167.161232 
L 250.073766 173.581501 
L 252.392727 181.33152 
L 254.711688 187.71068 
L 257.030649 192.147626 
L 259.34961 193.729866 
L 261.668571 193.115457 
L 263.987532 193.389429 
L 266.306494 190.906696 
L 268.625455 184.760115 
L 270.944416 179.807452 
L 273.263377 179.659088 
L 275.582338 184.168969 
L 277.901299 189.326663 
L 280.22026 192.60987 
L 282.539221 195.579725 
L 284.858182 199.898212 
L 287.177143 204.893226 
L 289.496104 208.815862 
L 291.815065 209.250755 
L 294.134026 206.944818 
L 298.771948 199.294202 
L 301.090909 196.363023 
L 303.40987 196.594308 
L 305.728831 200.971209 
L 308.047792 207.55209 
L 310.366753 212.907845 
L 312.685714 216.52087 
L 315.004675 221.689802 
L 317.323636 230.885703 
L 319.642597 238.384331 
L 321.961558 242.43622 
L 324.280519 244.07133 
L 326.599481 242.181444 
L 328.918442 237.373026 
L 331.237403 233.760577 
L 333.556364 235.229824 
L 335.875325 241.388506 
L 338.194286 248.971422 
L 340.513247 254.187496 
L 342.832208 255.870346 
L 345.151169 254.925736 
L 347.47013 252.917396 
L 349.789091 251.701283 
L 352.108052 253.558675 
L 354.427013 256.747478 
L 359.064935 261.232248 
L 361.383896 264.038175 
L 363.702857 265.035071 
L 366.021818 264.717598 
L 368.340779 263.493673 
L 370.65974 261.754867 
L 372.978701 259.009246 
L 375.297662 256.042364 
L 377.616623 254.077514 
L 379.935584 253.336748 
L 382.254545 254.027274 
L 386.892468 256.509345 
L 389.211429 257.324171 
L 391.53039 258.857768 
L 396.168312 261.286686 
L 398.487273 260.048544 
L 398.487273 260.048544 
" clip-path="url(#paf29917d76)" style="fill: none; stroke: #ff2c55; stroke-linecap: square"/>
   </g>
   <g id="line2d_17">
    <path d="M 73.832727 285.572022 
L 76.151688 285.889764 
L 78.470649 283.642166 
L 80.78961 274.399939 
L 83.108571 279.223564 
L 85.427532 290.796879 
L 87.746494 290.403067 
L 90.065455 290.302262 
L 92.384416 289.988597 
L 94.703377 275.527954 
L 97.022338 277.299228 
L 99.341299 284.247855 
L 101.66026 286.727921 
L 103.979221 274.315758 
L 106.298182 273.121235 
L 108.617143 267.330159 
L 110.936104 263.102085 
L 113.255065 271.380551 
L 115.574026 281.465899 
L 117.892987 281.922236 
L 120.211948 280.570397 
L 122.530909 276.038897 
L 124.84987 261.268652 
L 127.168831 226.698856 
L 129.487792 202.546703 
L 131.806753 200.689096 
L 134.125714 207.588044 
L 136.444675 206.840758 
L 138.763636 201.336924 
L 141.082597 192.719936 
L 145.720519 170.271056 
L 148.039481 160.896228 
L 150.358442 163.093239 
L 152.677403 168.073421 
L 154.996364 171.080238 
L 157.315325 177.08431 
L 161.953247 190.995164 
L 164.272208 196.648308 
L 171.229091 208.891385 
L 173.548052 212.412317 
L 175.867013 215.019495 
L 178.185974 218.22046 
L 185.142857 232.457141 
L 187.461818 236.792283 
L 192.09974 243.787188 
L 194.418701 246.728736 
L 196.737662 248.20109 
L 199.056623 249.22895 
L 201.375584 250.783336 
L 203.694545 252.7853 
L 206.013506 254.189696 
L 208.332468 255.064325 
L 210.651429 256.764983 
L 212.97039 257.880859 
L 215.289351 256.810998 
L 217.608312 253.04676 
L 219.927273 248.771013 
L 222.246234 246.450184 
L 224.565195 246.977681 
L 226.884156 249.879834 
L 229.203117 253.264028 
L 231.522078 255.968797 
L 233.841039 256.689443 
L 236.16 255.683996 
L 238.478961 254.370913 
L 240.797922 254.693253 
L 243.116883 256.988974 
L 245.435844 258.969538 
L 247.754805 258.939004 
L 250.073766 256.283982 
L 252.392727 252.470973 
L 254.711688 249.483764 
L 257.030649 247.720924 
L 259.34961 248.641185 
L 263.987532 252.936418 
L 266.306494 253.916511 
L 268.625455 254.284204 
L 270.944416 254.217254 
L 273.263377 255.147145 
L 275.582338 256.708292 
L 277.901299 258.643252 
L 280.22026 260.960954 
L 282.539221 262.645497 
L 284.858182 263.81738 
L 287.177143 265.321125 
L 289.496104 266.65141 
L 291.815065 267.248221 
L 294.134026 268.575881 
L 296.452987 270.084508 
L 298.771948 271.342186 
L 301.090909 272.269744 
L 303.40987 273.533529 
L 305.728831 274.523529 
L 308.047792 274.713715 
L 310.366753 273.788856 
L 312.685714 271.960981 
L 317.323636 267.257314 
L 319.642597 265.95707 
L 321.961558 266.52461 
L 324.280519 268.424248 
L 326.599481 270.770492 
L 328.918442 272.15049 
L 331.237403 272.399607 
L 333.556364 271.991241 
L 335.875325 271.730824 
L 338.194286 272.174944 
L 340.513247 272.796318 
L 345.151169 274.82265 
L 349.789091 276.15833 
L 352.108052 277.127039 
L 354.427013 278.309043 
L 356.745974 279.68308 
L 359.064935 280.870731 
L 361.383896 281.254966 
L 363.702857 281.059527 
L 368.340779 279.741608 
L 370.65974 279.235182 
L 372.978701 278.845822 
L 375.297662 278.968358 
L 377.616623 280.002672 
L 379.935584 280.818221 
L 382.254545 281.397061 
L 384.573506 282.254191 
L 386.892468 283.67507 
L 389.211429 284.885939 
L 391.53039 285.493841 
L 393.849351 285.85578 
L 396.168312 286.051173 
L 398.487273 285.899664 
L 398.487273 285.899664 
" clip-path="url(#paf29917d76)" style="fill: none; stroke: #ee9b00; stroke-linecap: square"/>
   </g>
   <g id="line2d_18">
    <path d="M 185.142857 307.584 
L 185.142857 41.472 
" clip-path="url(#paf29917d76)" style="fill: none; stroke-dasharray: 5.55,2.4; stroke-dashoffset: 0; stroke: #ff2c55; stroke-width: 1.5"/>
   </g>
   <g id="line2d_19">
    <path d="M 148.039481 307.584 
L 148.039481 41.472 
" clip-path="url(#paf29917d76)" style="fill: none; stroke-dasharray: 5.55,2.4; stroke-dashoffset: 0; stroke: #ee9b00; stroke-width: 1.5"/>
   </g>
   <g id="line2d_20">
    <path d="M 185.142857 53.568 
L 148.039481 53.568 
" clip-path="url(#paf29917d76)" style="fill: none; stroke: #000000; stroke-linecap: square"/>
   </g>
   <g id="line2d_21">
    <path d="M 185.142857 65.494939 
L 185.142857 53.568 
" clip-path="url(#paf29917d76)" style="fill: none; stroke: #000000; stroke-linecap: square"/>
   </g>
   <g id="line2d_22">
    <path d="M 148.039481 65.494939 
L 148.039481 53.568 
" clip-path="url(#paf29917d76)" style="fill: none; stroke: #000000; stroke-linecap: square"/>
   </g>
   <g id="patch_3">
    <path d="M 57.6 307.584 
L 57.6 41.472 
" style="fill: none; stroke: #000000; stroke-width: 0.8; stroke-linejoin: miter; stroke-linecap: square"/>
   </g>
   <g id="patch_4">
    <path d="M 57.6 307.584 
L 414.72 307.584 
" style="fill: none; stroke: #000000; stroke-width: 0.8; stroke-linejoin: miter; stroke-linecap: square"/>
   </g>
   <g id="text_16">
    <!-- . -->
    <g style="fill: #ff2c55" transform="translate(99.341299 297.475823) scale(0.2 -0.2)">
     <use xlink:href="#DejaVuSans-2e"/>
    </g>
   </g>
   <g id="text_17">
    <!-- . -->
    <g style="fill: #ff2c55" transform="translate(134.125714 297.475823) scale(0.2 -0.2)">
     <use xlink:href="#DejaVuSans-2e"/>
    </g>
   </g>
   <g id="text_18">
    <!-- . -->
    <g style="fill: #ff2c55" transform="translate(136.444675 297.475823) scale(0.2 -0.2)">
     <use xlink:href="#DejaVuSans-2e"/>
    </g>
   </g>
   <g id="text_19">
    <!-- . -->
    <g style="fill: #ff2c55" transform="translate(138.763636 297.475823) scale(0.2 -0.2)">
     <use xlink:href="#DejaVuSans-2e"/>
    </g>
   </g>
   <g id="text_20">
    <!-- . -->
    <g style="fill: #ff2c55" transform="translate(141.082597 297.475823) scale(0.2 -0.2)">
     <use xlink:href="#DejaVuSans-2e"/>
    </g>
   </g>
   <g id="text_21">
    <!-- . -->
    <g style="fill: #ff2c55" transform="translate(143.401558 297.475823) scale(0.2 -0.2)">
     <use xlink:href="#DejaVuSans-2e"/>
    </g>
   </g>
   <g id="text_22">
    <!-- . -->
    <g style="fill: #ff2c55" transform="translate(145.720519 297.475823) scale(0.2 -0.2)">
     <use xlink:href="#DejaVuSans-2e"/>
    </g>
   </g>
   <g id="text_23">
    <!-- . -->
    <g style="fill: #ff2c55" transform="translate(152.677403 297.475823) scale(0.2 -0.2)">
     <use xlink:href="#DejaVuSans-2e"/>
    </g>
   </g>
   <g id="text_24">
    <!-- . -->
    <g style="fill: #ff2c55" transform="translate(154.996364 297.475823) scale(0.2 -0.2)">
     <use xlink:href="#DejaVuSans-2e"/>
    </g>
   </g>
   <g id="text_25">
    <!-- . -->
    <g style="fill: #ff2c55" transform="translate(157.315325 297.475823) scale(0.2 -0.2)">
     <use xlink:href="#DejaVuSans-2e"/>
    </g>
   </g>
   <g id="text_26">
    <!-- . -->
    <g style="fill: #ff2c55" transform="translate(159.634286 297.475823) scale(0.2 -0.2)">
     <use xlink:href="#DejaVuSans-2e"/>
    </g>
   </g>
   <g id="text_27">
    <!-- . -->
    <g style="fill: #ff2c55" transform="translate(161.953247 297.475823) scale(0.2 -0.2)">
     <use xlink:href="#DejaVuSans-2e"/>
    </g>
   </g>
   <g id="text_28">
    <!-- . -->
    <g style="fill: #ff2c55" transform="translate(164.272208 297.475823) scale(0.2 -0.2)">
     <use xlink:href="#DejaVuSans-2e"/>
    </g>
   </g>
   <g id="text_29">
    <!-- . -->
    <g style="fill: #ff2c55" transform="translate(166.591169 297.475823) scale(0.2 -0.2)">
     <use xlink:href="#DejaVuSans-2e"/>
    </g>
   </g>
   <g id="text_30">
    <!-- . -->
    <g style="fill: #ff2c55" transform="translate(168.91013 297.475823) scale(0.2 -0.2)">
     <use xlink:href="#DejaVuSans-2e"/>
    </g>
   </g>
   <g id="text_31">
    <!-- . -->
    <g style="fill: #ff2c55" transform="translate(171.229091 297.475823) scale(0.2 -0.2)">
     <use xlink:href="#DejaVuSans-2e"/>
    </g>
   </g>
   <g id="text_32">
    <!-- . -->
    <g style="fill: #ff2c55" transform="translate(173.548052 297.475823) scale(0.2 -0.2)">
     <use xlink:href="#DejaVuSans-2e"/>
    </g>
   </g>
   <g id="text_33">
    <!-- . -->
    <g style="fill: #ff2c55" transform="translate(175.867013 297.475823) scale(0.2 -0.2)">
     <use xlink:href="#DejaVuSans-2e"/>
    </g>
   </g>
   <g id="text_34">
    <!-- . -->
    <g style="fill: #ff2c55" transform="translate(185.142857 297.475823) scale(0.2 -0.2)">
     <use xlink:href="#DejaVuSans-2e"/>
    </g>
   </g>
   <g id="text_35">
    <!-- . -->
    <g style="fill: #ff2c55" transform="translate(187.461818 297.475823) scale(0.2 -0.2)">
     <use xlink:href="#DejaVuSans-2e"/>
    </g>
   </g>
   <g id="text_36">
    <!-- . -->
    <g style="fill: #ff2c55" transform="translate(189.780779 297.475823) scale(0.2 -0.2)">
     <use xlink:href="#DejaVuSans-2e"/>
    </g>
   </g>
   <g id="text_37">
    <!-- . -->
    <g style="fill: #ff2c55" transform="translate(192.09974 297.475823) scale(0.2 -0.2)">
     <use xlink:href="#DejaVuSans-2e"/>
    </g>
   </g>
   <g id="text_38">
    <!-- . -->
    <g style="fill: #ff2c55" transform="translate(194.418701 297.475823) scale(0.2 -0.2)">
     <use xlink:href="#DejaVuSans-2e"/>
    </g>
   </g>
   <g id="text_39">
    <!-- . -->
    <g style="fill: #ff2c55" transform="translate(196.737662 297.475823) scale(0.2 -0.2)">
     <use xlink:href="#DejaVuSans-2e"/>
    </g>
   </g>
   <g id="text_40">
    <!-- . -->
    <g style="fill: #ff2c55" transform="translate(199.056623 297.475823) scale(0.2 -0.2)">
     <use xlink:href="#DejaVuSans-2e"/>
    </g>
   </g>
   <g id="text_41">
    <!-- . -->
    <g style="fill: #ff2c55" transform="translate(201.375584 297.475823) scale(0.2 -0.2)">
     <use xlink:href="#DejaVuSans-2e"/>
    </g>
   </g>
   <g id="text_42">
    <!-- . -->
    <g style="fill: #ff2c55" transform="translate(203.694545 297.475823) scale(0.2 -0.2)">
     <use xlink:href="#DejaVuSans-2e"/>
    </g>
   </g>
   <g id="text_43">
    <!-- . -->
    <g style="fill: #ff2c55" transform="translate(206.013506 297.475823) scale(0.2 -0.2)">
     <use xlink:href="#DejaVuSans-2e"/>
    </g>
   </g>
   <g id="text_44">
    <!-- . -->
    <g style="fill: #ff2c55" transform="translate(217.608312 297.475823) scale(0.2 -0.2)">
     <use xlink:href="#DejaVuSans-2e"/>
    </g>
   </g>
   <g id="text_45">
    <!-- . -->
    <g style="fill: #ff2c55" transform="translate(219.927273 297.475823) scale(0.2 -0.2)">
     <use xlink:href="#DejaVuSans-2e"/>
    </g>
   </g>
   <g id="text_46">
    <!-- . -->
    <g style="fill: #ff2c55" transform="translate(222.246234 297.475823) scale(0.2 -0.2)">
     <use xlink:href="#DejaVuSans-2e"/>
    </g>
   </g>
   <g id="text_47">
    <!-- . -->
    <g style="fill: #ff2c55" transform="translate(224.565195 297.475823) scale(0.2 -0.2)">
     <use xlink:href="#DejaVuSans-2e"/>
    </g>
   </g>
   <g id="text_48">
    <!-- . -->
    <g style="fill: #ff2c55" transform="translate(226.884156 297.475823) scale(0.2 -0.2)">
     <use xlink:href="#DejaVuSans-2e"/>
    </g>
   </g>
   <g id="text_49">
    <!-- . -->
    <g style="fill: #ff2c55" transform="translate(229.203117 297.475823) scale(0.2 -0.2)">
     <use xlink:href="#DejaVuSans-2e"/>
    </g>
   </g>
   <g id="text_50">
    <!-- . -->
    <g style="fill: #ff2c55" transform="translate(231.522078 297.475823) scale(0.2 -0.2)">
     <use xlink:href="#DejaVuSans-2e"/>
    </g>
   </g>
   <g id="text_51">
    <!-- . -->
    <g style="fill: #ff2c55" transform="translate(233.841039 297.475823) scale(0.2 -0.2)">
     <use xlink:href="#DejaVuSans-2e"/>
    </g>
   </g>
   <g id="text_52">
    <!-- . -->
    <g style="fill: #ff2c55" transform="translate(236.16 297.475823) scale(0.2 -0.2)">
     <use xlink:href="#DejaVuSans-2e"/>
    </g>
   </g>
   <g id="text_53">
    <!-- . -->
    <g style="fill: #ff2c55" transform="translate(238.478961 297.475823) scale(0.2 -0.2)">
     <use xlink:href="#DejaVuSans-2e"/>
    </g>
   </g>
   <g id="text_54">
    <!-- . -->
    <g style="fill: #ff2c55" transform="translate(240.797922 297.475823) scale(0.2 -0.2)">
     <use xlink:href="#DejaVuSans-2e"/>
    </g>
   </g>
   <g id="text_55">
    <!-- . -->
    <g style="fill: #ff2c55" transform="translate(243.116883 297.475823) scale(0.2 -0.2)">
     <use xlink:href="#DejaVuSans-2e"/>
    </g>
   </g>
   <g id="text_56">
    <!-- . -->
    <g style="fill: #ff2c55" transform="translate(245.435844 297.475823) scale(0.2 -0.2)">
     <use xlink:href="#DejaVuSans-2e"/>
    </g>
   </g>
   <g id="text_57">
    <!-- . -->
    <g style="fill: #ff2c55" transform="translate(247.754805 297.475823) scale(0.2 -0.2)">
     <use xlink:href="#DejaVuSans-2e"/>
    </g>
   </g>
   <g id="text_58">
    <!-- . -->
    <g style="fill: #ff2c55" transform="translate(250.073766 297.475823) scale(0.2 -0.2)">
     <use xlink:href="#DejaVuSans-2e"/>
    </g>
   </g>
   <g id="text_59">
    <!-- . -->
    <g style="fill: #ff2c55" transform="translate(252.392727 297.475823) scale(0.2 -0.2)">
     <use xlink:href="#DejaVuSans-2e"/>
    </g>
   </g>
   <g id="text_60">
    <!-- . -->
    <g style="fill: #ff2c55" transform="translate(254.711688 297.475823) scale(0.2 -0.2)">
     <use xlink:href="#DejaVuSans-2e"/>
    </g>
   </g>
   <g id="text_61">
    <!-- . -->
    <g style="fill: #ff2c55" transform="translate(257.030649 297.475823) scale(0.2 -0.2)">
     <use xlink:href="#DejaVuSans-2e"/>
    </g>
   </g>
   <g id="text_62">
    <!-- . -->
    <g style="fill: #ff2c55" transform="translate(259.34961 297.475823) scale(0.2 -0.2)">
     <use xlink:href="#DejaVuSans-2e"/>
    </g>
   </g>
   <g id="text_63">
    <!-- . -->
    <g style="fill: #ff2c55" transform="translate(277.901299 297.475823) scale(0.2 -0.2)">
     <use xlink:href="#DejaVuSans-2e"/>
    </g>
   </g>
   <g id="text_64">
    <!-- . -->
    <g style="fill: #ff2c55" transform="translate(280.22026 297.475823) scale(0.2 -0.2)">
     <use xlink:href="#DejaVuSans-2e"/>
    </g>
   </g>
   <g id="text_65">
    <!-- . -->
    <g style="fill: #ff2c55" transform="translate(282.539221 297.475823) scale(0.2 -0.2)">
     <use xlink:href="#DejaVuSans-2e"/>
    </g>
   </g>
   <g id="text_66">
    <!-- . -->
    <g style="fill: #ff2c55" transform="translate(284.858182 297.475823) scale(0.2 -0.2)">
     <use xlink:href="#DejaVuSans-2e"/>
    </g>
   </g>
   <g id="text_67">
    <!-- . -->
    <g style="fill: #ff2c55" transform="translate(287.177143 297.475823) scale(0.2 -0.2)">
     <use xlink:href="#DejaVuSans-2e"/>
    </g>
   </g>
   <g id="text_68">
    <!-- . -->
    <g style="fill: #ff2c55" transform="translate(289.496104 297.475823) scale(0.2 -0.2)">
     <use xlink:href="#DejaVuSans-2e"/>
    </g>
   </g>
   <g id="text_69">
    <!-- . -->
    <g style="fill: #ff2c55" transform="translate(291.815065 297.475823) scale(0.2 -0.2)">
     <use xlink:href="#DejaVuSans-2e"/>
    </g>
   </g>
   <g id="text_70">
    <!-- . -->
    <g style="fill: #ff2c55" transform="translate(294.134026 297.475823) scale(0.2 -0.2)">
     <use xlink:href="#DejaVuSans-2e"/>
    </g>
   </g>
   <g id="text_71">
    <!-- . -->
    <g style="fill: #ff2c55" transform="translate(296.452987 297.475823) scale(0.2 -0.2)">
     <use xlink:href="#DejaVuSans-2e"/>
    </g>
   </g>
   <g id="text_72">
    <!-- . -->
    <g style="fill: #ff2c55" transform="translate(298.771948 297.475823) scale(0.2 -0.2)">
     <use xlink:href="#DejaVuSans-2e"/>
    </g>
   </g>
   <g id="text_73">
    <!-- . -->
    <g style="fill: #ff2c55" transform="translate(310.366753 297.475823) scale(0.2 -0.2)">
     <use xlink:href="#DejaVuSans-2e"/>
    </g>
   </g>
   <g id="text_74">
    <!-- . -->
    <g style="fill: #ff2c55" transform="translate(312.685714 297.475823) scale(0.2 -0.2)">
     <use xlink:href="#DejaVuSans-2e"/>
    </g>
   </g>
   <g id="text_75">
    <!-- . -->
    <g style="fill: #ff2c55" transform="translate(315.004675 297.475823) scale(0.2 -0.2)">
     <use xlink:href="#DejaVuSans-2e"/>
    </g>
   </g>
   <g id="text_76">
    <!-- . -->
    <g style="fill: #ff2c55" transform="translate(317.323636 297.475823) scale(0.2 -0.2)">
     <use xlink:href="#DejaVuSans-2e"/>
    </g>
   </g>
   <g id="text_77">
    <!-- . -->
    <g style="fill: #ff2c55" transform="translate(319.642597 297.475823) scale(0.2 -0.2)">
     <use xlink:href="#DejaVuSans-2e"/>
    </g>
   </g>
   <g id="text_78">
    <!-- . -->
    <g style="fill: #ff2c55" transform="translate(321.961558 297.475823) scale(0.2 -0.2)">
     <use xlink:href="#DejaVuSans-2e"/>
    </g>
   </g>
   <g id="text_79">
    <!-- . -->
    <g style="fill: #ff2c55" transform="translate(324.280519 297.475823) scale(0.2 -0.2)">
     <use xlink:href="#DejaVuSans-2e"/>
    </g>
   </g>
   <g id="text_80">
    <!-- . -->
    <g style="fill: #ff2c55" transform="translate(326.599481 297.475823) scale(0.2 -0.2)">
     <use xlink:href="#DejaVuSans-2e"/>
    </g>
   </g>
   <g id="text_81">
    <!-- . -->
    <g style="fill: #ff2c55" transform="translate(328.918442 297.475823) scale(0.2 -0.2)">
     <use xlink:href="#DejaVuSans-2e"/>
    </g>
   </g>
   <g id="text_82">
    <!-- . -->
    <g style="fill: #ff2c55" transform="translate(331.237403 297.475823) scale(0.2 -0.2)">
     <use xlink:href="#DejaVuSans-2e"/>
    </g>
   </g>
   <g id="text_83">
    <!-- . -->
    <g style="fill: #ff2c55" transform="translate(333.556364 297.475823) scale(0.2 -0.2)">
     <use xlink:href="#DejaVuSans-2e"/>
    </g>
   </g>
   <g id="text_84">
    <!-- . -->
    <g style="fill: #ff2c55" transform="translate(335.875325 297.475823) scale(0.2 -0.2)">
     <use xlink:href="#DejaVuSans-2e"/>
    </g>
   </g>
   <g id="text_85">
    <!-- . -->
    <g style="fill: #ff2c55" transform="translate(338.194286 297.475823) scale(0.2 -0.2)">
     <use xlink:href="#DejaVuSans-2e"/>
    </g>
   </g>
   <g id="text_86">
    <!-- . -->
    <g style="fill: #ff2c55" transform="translate(340.513247 297.475823) scale(0.2 -0.2)">
     <use xlink:href="#DejaVuSans-2e"/>
    </g>
   </g>
   <g id="text_87">
    <!-- . -->
    <g style="fill: #ff2c55" transform="translate(342.832208 297.475823) scale(0.2 -0.2)">
     <use xlink:href="#DejaVuSans-2e"/>
    </g>
   </g>
   <g id="text_88">
    <!-- . -->
    <g style="fill: #ff2c55" transform="translate(345.151169 297.475823) scale(0.2 -0.2)">
     <use xlink:href="#DejaVuSans-2e"/>
    </g>
   </g>
   <g id="text_89">
    <!-- . -->
    <g style="fill: #ff2c55" transform="translate(347.47013 297.475823) scale(0.2 -0.2)">
     <use xlink:href="#DejaVuSans-2e"/>
    </g>
   </g>
   <g id="text_90">
    <!-- . -->
    <g style="fill: #ff2c55" transform="translate(349.789091 297.475823) scale(0.2 -0.2)">
     <use xlink:href="#DejaVuSans-2e"/>
    </g>
   </g>
   <g id="text_91">
    <!-- . -->
    <g style="fill: #ff2c55" transform="translate(352.108052 297.475823) scale(0.2 -0.2)">
     <use xlink:href="#DejaVuSans-2e"/>
    </g>
   </g>
   <g id="text_92">
    <!-- . -->
    <g style="fill: #ff2c55" transform="translate(354.427013 297.475823) scale(0.2 -0.2)">
     <use xlink:href="#DejaVuSans-2e"/>
    </g>
   </g>
   <g id="text_93">
    <!-- . -->
    <g style="fill: #ff2c55" transform="translate(356.745974 297.475823) scale(0.2 -0.2)">
     <use xlink:href="#DejaVuSans-2e"/>
    </g>
   </g>
   <g id="text_94">
    <!-- . -->
    <g style="fill: #ff2c55" transform="translate(359.064935 297.475823) scale(0.2 -0.2)">
     <use xlink:href="#DejaVuSans-2e"/>
    </g>
   </g>
   <g id="text_95">
    <!-- . -->
    <g style="fill: #ff2c55" transform="translate(361.383896 297.475823) scale(0.2 -0.2)">
     <use xlink:href="#DejaVuSans-2e"/>
    </g>
   </g>
   <g id="text_96">
    <!-- . -->
    <g style="fill: #ff2c55" transform="translate(363.702857 297.475823) scale(0.2 -0.2)">
     <use xlink:href="#DejaVuSans-2e"/>
    </g>
   </g>
   <g id="text_97">
    <!-- . -->
    <g style="fill: #ff2c55" transform="translate(366.021818 297.475823) scale(0.2 -0.2)">
     <use xlink:href="#DejaVuSans-2e"/>
    </g>
   </g>
   <g id="text_98">
    <!-- . -->
    <g style="fill: #ff2c55" transform="translate(368.340779 297.475823) scale(0.2 -0.2)">
     <use xlink:href="#DejaVuSans-2e"/>
    </g>
   </g>
   <g id="text_99">
    <!-- . -->
    <g style="fill: #ff2c55" transform="translate(370.65974 297.475823) scale(0.2 -0.2)">
     <use xlink:href="#DejaVuSans-2e"/>
    </g>
   </g>
   <g id="text_100">
    <!-- . -->
    <g style="fill: #ff2c55" transform="translate(372.978701 297.475823) scale(0.2 -0.2)">
     <use xlink:href="#DejaVuSans-2e"/>
    </g>
   </g>
   <g id="text_101">
    <!-- . -->
    <g style="fill: #ff2c55" transform="translate(375.297662 297.475823) scale(0.2 -0.2)">
     <use xlink:href="#DejaVuSans-2e"/>
    </g>
   </g>
   <g id="text_102">
    <!-- . -->
    <g style="fill: #ff2c55" transform="translate(377.616623 297.475823) scale(0.2 -0.2)">
     <use xlink:href="#DejaVuSans-2e"/>
    </g>
   </g>
   <g id="text_103">
    <!-- . -->
    <g style="fill: #ff2c55" transform="translate(379.935584 297.475823) scale(0.2 -0.2)">
     <use xlink:href="#DejaVuSans-2e"/>
    </g>
   </g>
   <g id="text_104">
    <!-- . -->
    <g style="fill: #ff2c55" transform="translate(382.254545 297.475823) scale(0.2 -0.2)">
     <use xlink:href="#DejaVuSans-2e"/>
    </g>
   </g>
   <g id="text_105">
    <!-- . -->
    <g style="fill: #ff2c55" transform="translate(384.573506 297.475823) scale(0.2 -0.2)">
     <use xlink:href="#DejaVuSans-2e"/>
    </g>
   </g>
   <g id="text_106">
    <!-- . -->
    <g style="fill: #ff2c55" transform="translate(386.892468 297.475823) scale(0.2 -0.2)">
     <use xlink:href="#DejaVuSans-2e"/>
    </g>
   </g>
   <g id="text_107">
    <!-- . -->
    <g style="fill: #ff2c55" transform="translate(389.211429 297.475823) scale(0.2 -0.2)">
     <use xlink:href="#DejaVuSans-2e"/>
    </g>
   </g>
   <g id="text_108">
    <!-- . -->
    <g style="fill: #ff2c55" transform="translate(391.53039 297.475823) scale(0.2 -0.2)">
     <use xlink:href="#DejaVuSans-2e"/>
    </g>
   </g>
   <g id="text_109">
    <!-- . -->
    <g style="fill: #ff2c55" transform="translate(393.849351 297.475823) scale(0.2 -0.2)">
     <use xlink:href="#DejaVuSans-2e"/>
    </g>
   </g>
   <g id="text_110">
    <!-- . -->
    <g style="fill: #ff2c55" transform="translate(396.168312 297.475823) scale(0.2 -0.2)">
     <use xlink:href="#DejaVuSans-2e"/>
    </g>
   </g>
   <g id="text_111">
    <!-- . -->
    <g style="fill: #ff2c55" transform="translate(398.487273 297.475823) scale(0.2 -0.2)">
     <use xlink:href="#DejaVuSans-2e"/>
    </g>
   </g>
   <g id="text_112">
    <!-- . -->
    <g style="fill: #ee9b00" transform="translate(136.444675 303.439292) scale(0.2 -0.2)">
     <use xlink:href="#DejaVuSans-2e"/>
    </g>
   </g>
   <g id="text_113">
    <!-- . -->
    <g style="fill: #ee9b00" transform="translate(138.763636 303.439292) scale(0.2 -0.2)">
     <use xlink:href="#DejaVuSans-2e"/>
    </g>
   </g>
   <g id="text_114">
    <!-- . -->
    <g style="fill: #ee9b00" transform="translate(141.082597 303.439292) scale(0.2 -0.2)">
     <use xlink:href="#DejaVuSans-2e"/>
    </g>
   </g>
   <g id="text_115">
    <!-- . -->
    <g style="fill: #ee9b00" transform="translate(143.401558 303.439292) scale(0.2 -0.2)">
     <use xlink:href="#DejaVuSans-2e"/>
    </g>
   </g>
   <g id="text_116">
    <!-- . -->
    <g style="fill: #ee9b00" transform="translate(145.720519 303.439292) scale(0.2 -0.2)">
     <use xlink:href="#DejaVuSans-2e"/>
    </g>
   </g>
   <g id="text_117">
    <!-- . -->
    <g style="fill: #ee9b00" transform="translate(148.039481 303.439292) scale(0.2 -0.2)">
     <use xlink:href="#DejaVuSans-2e"/>
    </g>
   </g>
   <g id="text_118">
    <!-- . -->
    <g style="fill: #ee9b00" transform="translate(150.358442 303.439292) scale(0.2 -0.2)">
     <use xlink:href="#DejaVuSans-2e"/>
    </g>
   </g>
   <g id="text_119">
    <!-- . -->
    <g style="fill: #ee9b00" transform="translate(152.677403 303.439292) scale(0.2 -0.2)">
     <use xlink:href="#DejaVuSans-2e"/>
    </g>
   </g>
   <g id="text_120">
    <!-- . -->
    <g style="fill: #ee9b00" transform="translate(154.996364 303.439292) scale(0.2 -0.2)">
     <use xlink:href="#DejaVuSans-2e"/>
    </g>
   </g>
   <g id="text_121">
    <!-- . -->
    <g style="fill: #ee9b00" transform="translate(157.315325 303.439292) scale(0.2 -0.2)">
     <use xlink:href="#DejaVuSans-2e"/>
    </g>
   </g>
   <g id="text_122">
    <!-- . -->
    <g style="fill: #ee9b00" transform="translate(159.634286 303.439292) scale(0.2 -0.2)">
     <use xlink:href="#DejaVuSans-2e"/>
    </g>
   </g>
   <g id="text_123">
    <!-- . -->
    <g style="fill: #ee9b00" transform="translate(161.953247 303.439292) scale(0.2 -0.2)">
     <use xlink:href="#DejaVuSans-2e"/>
    </g>
   </g>
   <g id="text_124">
    <!-- . -->
    <g style="fill: #ee9b00" transform="translate(164.272208 303.439292) scale(0.2 -0.2)">
     <use xlink:href="#DejaVuSans-2e"/>
    </g>
   </g>
   <g id="text_125">
    <!-- * -->
    <g transform="translate(161.591169 53.568) scale(0.2 -0.2)">
     <defs>
      <path id="DejaVuSans-2a" d="M 3009 3897 
L 1888 3291 
L 3009 2681 
L 2828 2375 
L 1778 3009 
L 1778 1831 
L 1422 1831 
L 1422 3009 
L 372 2375 
L 191 2681 
L 1313 3291 
L 191 3897 
L 372 4206 
L 1422 3572 
L 1422 4750 
L 1778 4750 
L 1778 3572 
L 2828 4206 
L 3009 3897 
z
" transform="scale(0.015625)"/>
     </defs>
     <use xlink:href="#DejaVuSans-2a"/>
    </g>
   </g>
   <g id="legend_1">
    <g id="patch_5">
     <path d="M 290.31375 78.82825 
L 407.72 78.82825 
Q 409.72 78.82825 409.72 76.82825 
L 409.72 48.472 
Q 409.72 46.472 407.72 46.472 
L 290.31375 46.472 
Q 288.31375 46.472 288.31375 48.472 
L 288.31375 76.82825 
Q 288.31375 78.82825 290.31375 78.82825 
z
" style="fill: #ffffff; opacity: 0.8; stroke: #cccccc; stroke-linejoin: miter"/>
    </g>
    <g id="line2d_23">
     <path d="M 292.31375 54.570437 
L 302.31375 54.570437 
L 312.31375 54.570437 
" style="fill: none; stroke: #ff2c55; stroke-linecap: square"/>
    </g>
    <g id="text_126">
     <!-- Affordance (EEG) -->
     <g transform="translate(320.31375 58.070437) scale(0.1 -0.1)">
      <defs>
       <path id="DejaVuSans-41" d="M 2188 4044 
L 1331 1722 
L 3047 1722 
L 2188 4044 
z
M 1831 4666 
L 2547 4666 
L 4325 0 
L 3669 0 
L 3244 1197 
L 1141 1197 
L 716 0 
L 50 0 
L 1831 4666 
z
" transform="scale(0.015625)"/>
       <path id="DejaVuSans-66" d="M 2375 4863 
L 2375 4384 
L 1825 4384 
Q 1516 4384 1395 4259 
Q 1275 4134 1275 3809 
L 1275 3500 
L 2222 3500 
L 2222 3053 
L 1275 3053 
L 1275 0 
L 697 0 
L 697 3053 
L 147 3053 
L 147 3500 
L 697 3500 
L 697 3744 
Q 697 4328 969 4595 
Q 1241 4863 1831 4863 
L 2375 4863 
z
" transform="scale(0.015625)"/>
       <path id="DejaVuSans-6f" d="M 1959 3097 
Q 1497 3097 1228 2736 
Q 959 2375 959 1747 
Q 959 1119 1226 758 
Q 1494 397 1959 397 
Q 2419 397 2687 759 
Q 2956 1122 2956 1747 
Q 2956 2369 2687 2733 
Q 2419 3097 1959 3097 
z
M 1959 3584 
Q 2709 3584 3137 3096 
Q 3566 2609 3566 1747 
Q 3566 888 3137 398 
Q 2709 -91 1959 -91 
Q 1206 -91 779 398 
Q 353 888 353 1747 
Q 353 2609 779 3096 
Q 1206 3584 1959 3584 
z
" transform="scale(0.015625)"/>
       <path id="DejaVuSans-64" d="M 2906 2969 
L 2906 4863 
L 3481 4863 
L 3481 0 
L 2906 0 
L 2906 525 
Q 2725 213 2448 61 
Q 2172 -91 1784 -91 
Q 1150 -91 751 415 
Q 353 922 353 1747 
Q 353 2572 751 3078 
Q 1150 3584 1784 3584 
Q 2172 3584 2448 3432 
Q 2725 3281 2906 2969 
z
M 947 1747 
Q 947 1113 1208 752 
Q 1469 391 1925 391 
Q 2381 391 2643 752 
Q 2906 1113 2906 1747 
Q 2906 2381 2643 2742 
Q 2381 3103 1925 3103 
Q 1469 3103 1208 2742 
Q 947 2381 947 1747 
z
" transform="scale(0.015625)"/>
       <path id="DejaVuSans-45" d="M 628 4666 
L 3578 4666 
L 3578 4134 
L 1259 4134 
L 1259 2753 
L 3481 2753 
L 3481 2222 
L 1259 2222 
L 1259 531 
L 3634 531 
L 3634 0 
L 628 0 
L 628 4666 
z
" transform="scale(0.015625)"/>
       <path id="DejaVuSans-47" d="M 3809 666 
L 3809 1919 
L 2778 1919 
L 2778 2438 
L 4434 2438 
L 4434 434 
Q 4069 175 3628 42 
Q 3188 -91 2688 -91 
Q 1594 -91 976 548 
Q 359 1188 359 2328 
Q 359 3472 976 4111 
Q 1594 4750 2688 4750 
Q 3144 4750 3555 4637 
Q 3966 4525 4313 4306 
L 4313 3634 
Q 3963 3931 3569 4081 
Q 3175 4231 2741 4231 
Q 1884 4231 1454 3753 
Q 1025 3275 1025 2328 
Q 1025 1384 1454 906 
Q 1884 428 2741 428 
Q 3075 428 3337 486 
Q 3600 544 3809 666 
z
" transform="scale(0.015625)"/>
      </defs>
      <use xlink:href="#DejaVuSans-41"/>
      <use xlink:href="#DejaVuSans-66" x="64.783203"/>
      <use xlink:href="#DejaVuSans-66" x="99.988281"/>
      <use xlink:href="#DejaVuSans-6f" x="135.193359"/>
      <use xlink:href="#DejaVuSans-72" x="196.375"/>
      <use xlink:href="#DejaVuSans-64" x="235.738281"/>
      <use xlink:href="#DejaVuSans-61" x="299.214844"/>
      <use xlink:href="#DejaVuSans-6e" x="360.494141"/>
      <use xlink:href="#DejaVuSans-63" x="423.873047"/>
      <use xlink:href="#DejaVuSans-65" x="478.853516"/>
      <use xlink:href="#DejaVuSans-20" x="540.376953"/>
      <use xlink:href="#DejaVuSans-28" x="572.164062"/>
      <use xlink:href="#DejaVuSans-45" x="611.177734"/>
      <use xlink:href="#DejaVuSans-45" x="674.361328"/>
      <use xlink:href="#DejaVuSans-47" x="737.544922"/>
      <use xlink:href="#DejaVuSans-29" x="815.035156"/>
     </g>
    </g>
    <g id="line2d_24">
     <path d="M 292.31375 69.248562 
L 302.31375 69.248562 
L 312.31375 69.248562 
" style="fill: none; stroke: #ee9b00; stroke-linecap: square"/>
    </g>
    <g id="text_127">
     <!-- GIST -->
     <g transform="translate(320.31375 72.748562) scale(0.1 -0.1)">
      <defs>
       <path id="DejaVuSans-49" d="M 628 4666 
L 1259 4666 
L 1259 0 
L 628 0 
L 628 4666 
z
" transform="scale(0.015625)"/>
       <path id="DejaVuSans-53" d="M 3425 4513 
L 3425 3897 
Q 3066 4069 2747 4153 
Q 2428 4238 2131 4238 
Q 1616 4238 1336 4038 
Q 1056 3838 1056 3469 
Q 1056 3159 1242 3001 
Q 1428 2844 1947 2747 
L 2328 2669 
Q 3034 2534 3370 2195 
Q 3706 1856 3706 1288 
Q 3706 609 3251 259 
Q 2797 -91 1919 -91 
Q 1588 -91 1214 -16 
Q 841 59 441 206 
L 441 856 
Q 825 641 1194 531 
Q 1563 422 1919 422 
Q 2459 422 2753 634 
Q 3047 847 3047 1241 
Q 3047 1584 2836 1778 
Q 2625 1972 2144 2069 
L 1759 2144 
Q 1053 2284 737 2584 
Q 422 2884 422 3419 
Q 422 4038 858 4394 
Q 1294 4750 2059 4750 
Q 2388 4750 2728 4690 
Q 3069 4631 3425 4513 
z
" transform="scale(0.015625)"/>
      </defs>
      <use xlink:href="#DejaVuSans-47"/>
      <use xlink:href="#DejaVuSans-49" x="77.490234"/>
      <use xlink:href="#DejaVuSans-53" x="106.982422"/>
      <use xlink:href="#DejaVuSans-54" x="170.458984"/>
     </g>
    </g>
   </g>
  </g>
 </g>
 <defs>
  <clipPath id="paf29917d76">
   <rect x="57.6" y="41.472" width="357.12" height="266.112"/>
  </clipPath>
 </defs>
</svg>
