<?xml version="1.0" encoding="utf-8" standalone="no"?>
<!DOCTYPE svg PUBLIC "-//W3C//DTD SVG 1.1//EN"
  "http://www.w3.org/Graphics/SVG/1.1/DTD/svg11.dtd">
<svg xmlns:xlink="http://www.w3.org/1999/xlink" width="460.8pt" height="345.6pt" viewBox="0 0 460.8 345.6" xmlns="http://www.w3.org/2000/svg" version="1.1">
 <metadata>
  <rdf:RDF xmlns:dc="http://purl.org/dc/elements/1.1/" xmlns:cc="http://creativecommons.org/ns#" xmlns:rdf="http://www.w3.org/1999/02/22-rdf-syntax-ns#">
   <cc:Work>
    <dc:type rdf:resource="http://purl.org/dc/dcmitype/StillImage"/>
    <dc:date>2025-12-03T13:36:32.422815</dc:date>
    <dc:format>image/svg+xml</dc:format>
    <dc:creator>
     <cc:Agent>
      <dc:title>Matplotlib v3.6.2, https://matplotlib.org/</dc:title>
     </cc:Agent>
    </dc:creator>
   </cc:Work>
  </rdf:RDF>
 </metadata>
 <defs>
  <style type="text/css">*{stroke-linejoin: round; stroke-linecap: butt}</style>
 </defs>
 <g id="figure_1">
  <g id="patch_1">
   <path d="M 0 345.6 
L 460.8 345.6 
L 460.8 0 
L 0 0 
L 0 345.6 
z
" style="fill: none"/>
  </g>
  <g id="axes_1">
   <g id="patch_2">
    <path d="M 57.6 307.584 
L 414.72 307.584 
L 414.72 41.472 
L 57.6 41.472 
L 57.6 307.584 
z
" style="fill: none"/>
   </g>
   <g id="PolyCollection_1">
    <defs>
     <path id="mb2822b6ce6" d="M 73.832727 -96.387265 
L 73.832727 -72.50511 
L 76.151688 -77.386375 
L 78.470649 -82.696512 
L 80.78961 -80.164204 
L 83.108571 -84.801617 
L 85.427532 -80.487466 
L 87.746494 -82.928825 
L 90.065455 -80.896745 
L 92.384416 -81.67514 
L 94.703377 -77.848866 
L 97.022338 -78.17878 
L 99.341299 -84.894216 
L 101.66026 -98.652188 
L 103.979221 -100.058303 
L 106.298182 -93.522344 
L 108.617143 -83.498715 
L 110.936104 -79.423346 
L 113.255065 -77.432488 
L 115.574026 -70.608282 
L 117.892987 -57.481719 
L 120.211948 -49.441029 
L 122.530909 -64.516184 
L 124.84987 -99.951296 
L 127.168831 -130.755748 
L 129.487792 -147.414897 
L 131.806753 -148.177106 
L 134.125714 -141.119406 
L 136.444675 -133.724335 
L 138.763636 -136.306438 
L 141.082597 -141.47432 
L 143.401558 -141.724632 
L 145.720519 -142.984983 
L 148.039481 -152.295522 
L 150.358442 -174.353821 
L 152.677403 -191.784835 
L 154.996364 -202.562963 
L 157.315325 -210.136719 
L 159.634286 -215.215343 
L 161.953247 -220.98609 
L 164.272208 -225.839852 
L 166.591169 -226.453398 
L 168.91013 -222.48408 
L 171.229091 -215.234256 
L 173.548052 -205.63867 
L 175.867013 -193.294173 
L 178.185974 -178.254865 
L 180.504935 -164.224393 
L 182.823896 -155.679743 
L 185.142857 -151.468479 
L 187.461818 -149.641086 
L 189.780779 -146.688481 
L 192.09974 -141.474874 
L 194.418701 -134.375647 
L 196.737662 -129.067341 
L 199.056623 -122.107442 
L 201.375584 -115.158935 
L 203.694545 -113.250421 
L 206.013506 -113.43856 
L 208.332468 -110.864856 
L 210.651429 -107.557037 
L 212.97039 -105.997628 
L 215.289351 -105.810432 
L 217.608312 -103.674003 
L 219.927273 -99.006704 
L 222.246234 -96.507783 
L 224.565195 -98.108651 
L 226.884156 -100.955136 
L 229.203117 -102.97642 
L 231.522078 -105.360714 
L 233.841039 -108.303405 
L 236.16 -109.749898 
L 238.478961 -107.839237 
L 240.797922 -103.834457 
L 243.116883 -97.603095 
L 245.435844 -90.485535 
L 247.754805 -84.164954 
L 250.073766 -80.108979 
L 252.392727 -79.060818 
L 254.711688 -79.201163 
L 257.030649 -79.770586 
L 259.34961 -79.838211 
L 261.668571 -78.343747 
L 263.987532 -77.525393 
L 266.306494 -75.973561 
L 268.625455 -74.874013 
L 270.944416 -76.107145 
L 273.263377 -80.218767 
L 275.582338 -85.638478 
L 277.901299 -91.466987 
L 280.22026 -93.696819 
L 282.539221 -92.280757 
L 284.858182 -89.904086 
L 287.177143 -89.511749 
L 289.496104 -90.897816 
L 291.815065 -91.628781 
L 294.134026 -89.021695 
L 296.452987 -85.321602 
L 298.771948 -83.868215 
L 301.090909 -83.189607 
L 303.40987 -80.885461 
L 305.728831 -78.747538 
L 308.047792 -77.914716 
L 310.366753 -77.815601 
L 312.685714 -76.797899 
L 315.004675 -78.164389 
L 317.323636 -81.679491 
L 319.642597 -85.332387 
L 321.961558 -87.253471 
L 324.280519 -86.994314 
L 326.599481 -83.839376 
L 328.918442 -79.045635 
L 331.237403 -76.767354 
L 333.556364 -79.085244 
L 335.875325 -84.631086 
L 338.194286 -88.53123 
L 340.513247 -91.959982 
L 342.832208 -95.419065 
L 345.151169 -96.403409 
L 347.47013 -93.402987 
L 349.789091 -89.230363 
L 352.108052 -86.282096 
L 354.427013 -82.565196 
L 356.745974 -78.206837 
L 359.064935 -75.828739 
L 361.383896 -75.66034 
L 363.702857 -77.257541 
L 366.021818 -81.714853 
L 368.340779 -88.939357 
L 370.65974 -96.634078 
L 372.978701 -101.319873 
L 375.297662 -101.553415 
L 377.616623 -98.653845 
L 379.935584 -93.203372 
L 382.254545 -86.807377 
L 384.573506 -82.644715 
L 386.892468 -83.187018 
L 389.211429 -86.100656 
L 391.53039 -87.409677 
L 393.849351 -87.061465 
L 396.168312 -86.846611 
L 398.487273 -84.933149 
L 398.487273 -128.953689 
L 398.487273 -128.953689 
L 396.168312 -129.945791 
L 393.849351 -130.202586 
L 391.53039 -130.525291 
L 389.211429 -130.355255 
L 386.892468 -128.649798 
L 384.573506 -128.975829 
L 382.254545 -133.610089 
L 379.935584 -140.193462 
L 377.616623 -145.436717 
L 375.297662 -147.827217 
L 372.978701 -146.723715 
L 370.65974 -141.231143 
L 368.340779 -132.575199 
L 366.021818 -124.089289 
L 363.702857 -117.825261 
L 361.383896 -113.919421 
L 359.064935 -112.914878 
L 356.745974 -115.449061 
L 354.427013 -121.4637 
L 352.108052 -127.214268 
L 349.789091 -131.599011 
L 347.47013 -136.319835 
L 345.151169 -139.529282 
L 342.832208 -138.967785 
L 340.513247 -137.105856 
L 338.194286 -137.141786 
L 335.875325 -138.218237 
L 333.556364 -136.665156 
L 331.237403 -135.533131 
L 328.918442 -136.177972 
L 326.599481 -137.146367 
L 324.280519 -135.026068 
L 321.961558 -130.970161 
L 319.642597 -127.334 
L 317.323636 -125.251984 
L 315.004675 -125.743808 
L 312.685714 -128.483964 
L 310.366753 -133.553837 
L 308.047792 -137.875179 
L 305.728831 -141.948368 
L 303.40987 -146.011496 
L 301.090909 -149.414513 
L 298.771948 -150.232471 
L 296.452987 -150.135999 
L 294.134026 -150.924199 
L 291.815065 -150.975143 
L 289.496104 -148.881177 
L 287.177143 -148.128635 
L 284.858182 -150.743819 
L 282.539221 -155.88646 
L 280.22026 -158.989215 
L 277.901299 -156.72022 
L 275.582338 -150.620697 
L 273.263377 -145.659358 
L 270.944416 -141.34716 
L 268.625455 -138.528383 
L 266.306494 -137.364052 
L 263.987532 -137.817254 
L 261.668571 -138.222289 
L 259.34961 -138.568115 
L 257.030649 -138.076388 
L 254.711688 -137.95314 
L 252.392727 -139.109218 
L 250.073766 -142.345646 
L 247.754805 -148.619894 
L 245.435844 -156.268852 
L 243.116883 -163.733818 
L 240.797922 -170.581173 
L 238.478961 -174.216688 
L 236.16 -174.933539 
L 233.841039 -172.072069 
L 231.522078 -168.099627 
L 229.203117 -164.106169 
L 226.884156 -161.336413 
L 224.565195 -158.691236 
L 222.246234 -156.164888 
L 219.927273 -156.688553 
L 217.608312 -159.349144 
L 215.289351 -160.410195 
L 212.97039 -160.918204 
L 210.651429 -162.356649 
L 208.332468 -164.584586 
L 206.013506 -167.389123 
L 203.694545 -169.946063 
L 201.375584 -174.976511 
L 199.056623 -185.519934 
L 196.737662 -196.147382 
L 194.418701 -203.490502 
L 192.09974 -210.695587 
L 189.780779 -215.954895 
L 187.461818 -219.242481 
L 185.142857 -223.496403 
L 182.823896 -227.382455 
L 180.504935 -232.06314 
L 178.185974 -240.601624 
L 175.867013 -253.612759 
L 173.548052 -266.876347 
L 171.229091 -276.478872 
L 168.91013 -279.843172 
L 166.591169 -277.806975 
L 164.272208 -274.646091 
L 161.953247 -272.28189 
L 159.634286 -271.836844 
L 157.315325 -271.7555 
L 154.996364 -266.442934 
L 152.677403 -252.513632 
L 150.358442 -231.7464 
L 148.039481 -208.995999 
L 145.720519 -198.575631 
L 143.401558 -195.729799 
L 141.082597 -194.194499 
L 138.763636 -188.715888 
L 136.444675 -185.34117 
L 134.125714 -187.620262 
L 131.806753 -187.262241 
L 129.487792 -182.212353 
L 127.168831 -168.452287 
L 124.84987 -144.224938 
L 122.530909 -99.402415 
L 120.211948 -77.69013 
L 117.892987 -78.776697 
L 115.574026 -93.251049 
L 113.255065 -98.885004 
L 110.936104 -98.485629 
L 108.617143 -102.406646 
L 106.298182 -111.944564 
L 103.979221 -122.614374 
L 101.66026 -122.260767 
L 99.341299 -103.215487 
L 97.022338 -96.583096 
L 94.703377 -101.966124 
L 92.384416 -109.663506 
L 90.065455 -114.72812 
L 87.746494 -106.247486 
L 85.427532 -97.280736 
L 83.108571 -105.59027 
L 80.78961 -104.616844 
L 78.470649 -102.935705 
L 76.151688 -100.822325 
L 73.832727 -96.387265 
z
" style="stroke: #ff2c55; stroke-opacity: 0.1"/>
    </defs>
    <g clip-path="url(#p7326e954c1)">
     <use xlink:href="#mb2822b6ce6" x="0" y="345.6" style="fill: #ff2c55; fill-opacity: 0.1; stroke: #ff2c55; stroke-opacity: 0.1"/>
    </g>
   </g>
   <g id="PolyCollection_2">
    <defs>
     <path id="m35d2a7ec95" d="M 73.832727 -100.307549 
L 73.832727 -78.228308 
L 76.151688 -80.088705 
L 78.470649 -88.430303 
L 80.78961 -99.653313 
L 83.108571 -98.163576 
L 85.427532 -83.513964 
L 87.746494 -72.33192 
L 90.065455 -75.285411 
L 92.384416 -86.293096 
L 94.703377 -95.153368 
L 97.022338 -96.219963 
L 99.341299 -98.062811 
L 101.66026 -94.87451 
L 103.979221 -93.942235 
L 106.298182 -95.697153 
L 108.617143 -97.947893 
L 110.936104 -97.735701 
L 113.255065 -100.127193 
L 115.574026 -100.094368 
L 117.892987 -96.039404 
L 120.211948 -97.783961 
L 122.530909 -119.712052 
L 124.84987 -158.435758 
L 127.168831 -189.064719 
L 129.487792 -204.356509 
L 131.806753 -215.215679 
L 134.125714 -226.921909 
L 136.444675 -236.823416 
L 138.763636 -245.177768 
L 141.082597 -250.979189 
L 143.401558 -252.350018 
L 145.720519 -248.719081 
L 148.039481 -243.447005 
L 150.358442 -232.625514 
L 152.677403 -222.501288 
L 154.996364 -217.725225 
L 157.315325 -214.703527 
L 159.634286 -210.677503 
L 161.953247 -206.484537 
L 164.272208 -204.130444 
L 166.591169 -204.399857 
L 168.91013 -206.706282 
L 171.229091 -208.401455 
L 173.548052 -208.20085 
L 175.867013 -207.794189 
L 178.185974 -207.662335 
L 180.504935 -207.141638 
L 182.823896 -205.421558 
L 185.142857 -202.970531 
L 187.461818 -199.597038 
L 189.780779 -195.376522 
L 192.09974 -189.359141 
L 194.418701 -184.27982 
L 196.737662 -179.995361 
L 199.056623 -176.270465 
L 201.375584 -172.545141 
L 203.694545 -169.817787 
L 206.013506 -166.948048 
L 208.332468 -164.483442 
L 210.651429 -162.682259 
L 212.97039 -162.508736 
L 215.289351 -162.963469 
L 217.608312 -162.597323 
L 219.927273 -161.681771 
L 222.246234 -160.714995 
L 224.565195 -159.498233 
L 226.884156 -157.27004 
L 229.203117 -155.279819 
L 231.522078 -153.687699 
L 233.841039 -152.779282 
L 236.16 -151.120173 
L 238.478961 -149.296913 
L 240.797922 -146.753606 
L 243.116883 -142.911847 
L 245.435844 -139.262995 
L 247.754805 -136.733348 
L 250.073766 -135.683555 
L 252.392727 -135.749766 
L 254.711688 -135.779707 
L 257.030649 -135.816702 
L 259.34961 -136.447212 
L 261.668571 -137.232528 
L 263.987532 -138.469553 
L 266.306494 -138.000836 
L 268.625455 -136.344607 
L 270.944416 -134.996222 
L 273.263377 -134.121465 
L 275.582338 -134.144134 
L 277.901299 -134.378394 
L 280.22026 -135.437887 
L 282.539221 -136.042048 
L 284.858182 -136.097736 
L 287.177143 -134.020621 
L 289.496104 -132.29254 
L 291.815065 -130.585451 
L 294.134026 -127.731698 
L 296.452987 -124.944728 
L 298.771948 -123.989311 
L 301.090909 -124.006125 
L 303.40987 -123.428473 
L 305.728831 -123.427449 
L 308.047792 -124.532003 
L 310.366753 -126.221425 
L 312.685714 -127.320803 
L 315.004675 -128.539808 
L 317.323636 -130.79153 
L 319.642597 -133.061498 
L 321.961558 -134.181438 
L 324.280519 -134.093948 
L 326.599481 -134.263051 
L 328.918442 -133.855181 
L 331.237403 -133.016331 
L 333.556364 -132.218521 
L 335.875325 -131.674102 
L 338.194286 -130.676399 
L 340.513247 -130.416699 
L 342.832208 -130.967537 
L 345.151169 -131.839933 
L 347.47013 -132.248557 
L 349.789091 -131.776933 
L 352.108052 -129.926098 
L 354.427013 -127.882692 
L 356.745974 -125.567862 
L 359.064935 -123.357444 
L 361.383896 -122.993711 
L 363.702857 -124.911392 
L 366.021818 -127.808252 
L 368.340779 -130.048998 
L 370.65974 -131.340064 
L 372.978701 -131.941976 
L 375.297662 -130.951334 
L 377.616623 -129.135744 
L 379.935584 -127.783007 
L 382.254545 -126.771097 
L 384.573506 -125.071675 
L 386.892468 -122.776763 
L 389.211429 -120.97534 
L 391.53039 -120.16956 
L 393.849351 -119.780135 
L 396.168312 -119.445841 
L 398.487273 -119.999144 
L 398.487273 -138.579917 
L 398.487273 -138.579917 
L 396.168312 -137.984013 
L 393.849351 -138.438504 
L 391.53039 -139.198244 
L 389.211429 -140.688656 
L 386.892468 -143.913282 
L 384.573506 -147.697458 
L 382.254545 -150.148324 
L 379.935584 -151.54181 
L 377.616623 -153.023593 
L 375.297662 -154.48776 
L 372.978701 -154.587127 
L 370.65974 -153.182728 
L 368.340779 -151.229017 
L 366.021818 -148.674426 
L 363.702857 -146.058324 
L 361.383896 -144.635857 
L 359.064935 -145.681096 
L 356.745974 -148.927014 
L 354.427013 -152.408978 
L 352.108052 -155.763054 
L 349.789091 -158.700566 
L 347.47013 -159.911017 
L 345.151169 -159.753778 
L 342.832208 -158.905683 
L 340.513247 -158.483315 
L 338.194286 -158.956042 
L 335.875325 -159.542408 
L 333.556364 -159.50805 
L 331.237403 -159.918855 
L 328.918442 -160.88825 
L 326.599481 -162.299946 
L 324.280519 -163.487048 
L 321.961558 -164.53983 
L 319.642597 -163.569261 
L 317.323636 -160.653165 
L 315.004675 -156.877317 
L 312.685714 -154.444048 
L 310.366753 -152.949896 
L 308.047792 -151.460727 
L 305.728831 -150.828964 
L 303.40987 -151.141729 
L 301.090909 -151.841767 
L 298.771948 -152.245892 
L 296.452987 -154.064409 
L 294.134026 -157.557774 
L 291.815065 -160.515086 
L 289.496104 -162.027956 
L 287.177143 -163.942554 
L 284.858182 -166.841614 
L 282.539221 -168.199697 
L 280.22026 -169.695432 
L 277.901299 -170.831579 
L 275.582338 -171.883153 
L 273.263377 -172.744964 
L 270.944416 -173.968085 
L 268.625455 -174.96318 
L 266.306494 -176.50892 
L 263.987532 -176.907755 
L 261.668571 -176.040689 
L 259.34961 -175.711635 
L 257.030649 -175.413783 
L 254.711688 -174.907592 
L 252.392727 -173.921549 
L 250.073766 -172.58944 
L 247.754805 -172.752074 
L 245.435844 -175.086117 
L 243.116883 -179.010034 
L 240.797922 -183.56846 
L 238.478961 -187.062604 
L 236.16 -189.089689 
L 233.841039 -190.931429 
L 231.522078 -192.847615 
L 229.203117 -195.811688 
L 226.884156 -198.848484 
L 224.565195 -201.991009 
L 222.246234 -203.208332 
L 219.927273 -201.969498 
L 217.608312 -199.783982 
L 215.289351 -198.002701 
L 212.97039 -197.077209 
L 210.651429 -196.898693 
L 208.332468 -197.847191 
L 206.013506 -199.031864 
L 203.694545 -201.769152 
L 201.375584 -205.806745 
L 199.056623 -211.493372 
L 196.737662 -216.902634 
L 194.418701 -221.804297 
L 192.09974 -226.563586 
L 189.780779 -231.59506 
L 187.461818 -234.905391 
L 185.142857 -238.05931 
L 182.823896 -240.610725 
L 180.504935 -242.886388 
L 178.185974 -243.886868 
L 175.867013 -243.463056 
L 173.548052 -243.031458 
L 171.229091 -243.317547 
L 168.91013 -242.283796 
L 166.591169 -240.713101 
L 164.272208 -241.227947 
L 161.953247 -244.892904 
L 159.634286 -250.577522 
L 157.315325 -254.916006 
L 154.996364 -256.906982 
L 152.677403 -260.02517 
L 150.358442 -269.122925 
L 148.039481 -281.475496 
L 145.720519 -285.003607 
L 143.401558 -283.202927 
L 141.082597 -278.384279 
L 138.763636 -274.91737 
L 136.444675 -272.997186 
L 134.125714 -270.365789 
L 131.806753 -264.442972 
L 129.487792 -253.015196 
L 127.168831 -231.720694 
L 124.84987 -189.897348 
L 122.530909 -146.203302 
L 120.211948 -122.661638 
L 117.892987 -119.2062 
L 115.574026 -122.122753 
L 113.255065 -130.882576 
L 110.936104 -135.728189 
L 108.617143 -134.642364 
L 106.298182 -128.889146 
L 103.979221 -126.569476 
L 101.66026 -116.294358 
L 99.341299 -122.713818 
L 97.022338 -127.0355 
L 94.703377 -127.12518 
L 92.384416 -102.983253 
L 90.065455 -86.416938 
L 87.746494 -83.621341 
L 85.427532 -97.472763 
L 83.108571 -127.712773 
L 80.78961 -132.630494 
L 78.470649 -115.050504 
L 76.151688 -103.226675 
L 73.832727 -100.307549 
z
" style="stroke: #ee9b00; stroke-opacity: 0.1"/>
    </defs>
    <g clip-path="url(#p7326e954c1)">
     <use xlink:href="#m35d2a7ec95" x="0" y="345.6" style="fill: #ee9b00; fill-opacity: 0.1; stroke: #ee9b00; stroke-opacity: 0.1"/>
    </g>
   </g>
   <g id="matplotlib.axis_1">
    <g id="xtick_1">
     <g id="line2d_1">
      <defs>
       <path id="m7e725ebc83" d="M 0 0 
L 0 3.5 
" style="stroke: #000000; stroke-width: 0.8"/>
      </defs>
      <g>
       <use xlink:href="#m7e725ebc83" x="103.346777" y="307.584" style="stroke: #000000; stroke-width: 0.8"/>
      </g>
     </g>
     <g id="text_1">
      <!-- 0.0 -->
      <g transform="translate(95.395214 322.182437) scale(0.1 -0.1)">
       <defs>
        <path id="DejaVuSans-30" d="M 2034 4250 
Q 1547 4250 1301 3770 
Q 1056 3291 1056 2328 
Q 1056 1369 1301 889 
Q 1547 409 2034 409 
Q 2525 409 2770 889 
Q 3016 1369 3016 2328 
Q 3016 3291 2770 3770 
Q 2525 4250 2034 4250 
z
M 2034 4750 
Q 2819 4750 3233 4129 
Q 3647 3509 3647 2328 
Q 3647 1150 3233 529 
Q 2819 -91 2034 -91 
Q 1250 -91 836 529 
Q 422 1150 422 2328 
Q 422 3509 836 4129 
Q 1250 4750 2034 4750 
z
" transform="scale(0.015625)"/>
        <path id="DejaVuSans-2e" d="M 684 794 
L 1344 794 
L 1344 0 
L 684 0 
L 684 794 
z
" transform="scale(0.015625)"/>
       </defs>
       <use xlink:href="#DejaVuSans-30"/>
       <use xlink:href="#DejaVuSans-2e" x="63.623047"/>
       <use xlink:href="#DejaVuSans-30" x="95.410156"/>
      </g>
     </g>
    </g>
    <g id="xtick_2">
     <g id="line2d_2">
      <g>
       <use xlink:href="#m7e725ebc83" x="162.374876" y="307.584" style="stroke: #000000; stroke-width: 0.8"/>
      </g>
     </g>
     <g id="text_2">
      <!-- 0.2 -->
      <g transform="translate(154.423314 322.182437) scale(0.1 -0.1)">
       <defs>
        <path id="DejaVuSans-32" d="M 1228 531 
L 3431 531 
L 3431 0 
L 469 0 
L 469 531 
Q 828 903 1448 1529 
Q 2069 2156 2228 2338 
Q 2531 2678 2651 2914 
Q 2772 3150 2772 3378 
Q 2772 3750 2511 3984 
Q 2250 4219 1831 4219 
Q 1534 4219 1204 4116 
Q 875 4013 500 3803 
L 500 4441 
Q 881 4594 1212 4672 
Q 1544 4750 1819 4750 
Q 2544 4750 2975 4387 
Q 3406 4025 3406 3419 
Q 3406 3131 3298 2873 
Q 3191 2616 2906 2266 
Q 2828 2175 2409 1742 
Q 1991 1309 1228 531 
z
" transform="scale(0.015625)"/>
       </defs>
       <use xlink:href="#DejaVuSans-30"/>
       <use xlink:href="#DejaVuSans-2e" x="63.623047"/>
       <use xlink:href="#DejaVuSans-32" x="95.410156"/>
      </g>
     </g>
    </g>
    <g id="xtick_3">
     <g id="line2d_3">
      <g>
       <use xlink:href="#m7e725ebc83" x="221.402975" y="307.584" style="stroke: #000000; stroke-width: 0.8"/>
      </g>
     </g>
     <g id="text_3">
      <!-- 0.4 -->
      <g transform="translate(213.451413 322.182437) scale(0.1 -0.1)">
       <defs>
        <path id="DejaVuSans-34" d="M 2419 4116 
L 825 1625 
L 2419 1625 
L 2419 4116 
z
M 2253 4666 
L 3047 4666 
L 3047 1625 
L 3713 1625 
L 3713 1100 
L 3047 1100 
L 3047 0 
L 2419 0 
L 2419 1100 
L 313 1100 
L 313 1709 
L 2253 4666 
z
" transform="scale(0.015625)"/>
       </defs>
       <use xlink:href="#DejaVuSans-30"/>
       <use xlink:href="#DejaVuSans-2e" x="63.623047"/>
       <use xlink:href="#DejaVuSans-34" x="95.410156"/>
      </g>
     </g>
    </g>
    <g id="xtick_4">
     <g id="line2d_4">
      <g>
       <use xlink:href="#m7e725ebc83" x="280.431074" y="307.584" style="stroke: #000000; stroke-width: 0.8"/>
      </g>
     </g>
     <g id="text_4">
      <!-- 0.6 -->
      <g transform="translate(272.479512 322.182437) scale(0.1 -0.1)">
       <defs>
        <path id="DejaVuSans-36" d="M 2113 2584 
Q 1688 2584 1439 2293 
Q 1191 2003 1191 1497 
Q 1191 994 1439 701 
Q 1688 409 2113 409 
Q 2538 409 2786 701 
Q 3034 994 3034 1497 
Q 3034 2003 2786 2293 
Q 2538 2584 2113 2584 
z
M 3366 4563 
L 3366 3988 
Q 3128 4100 2886 4159 
Q 2644 4219 2406 4219 
Q 1781 4219 1451 3797 
Q 1122 3375 1075 2522 
Q 1259 2794 1537 2939 
Q 1816 3084 2150 3084 
Q 2853 3084 3261 2657 
Q 3669 2231 3669 1497 
Q 3669 778 3244 343 
Q 2819 -91 2113 -91 
Q 1303 -91 875 529 
Q 447 1150 447 2328 
Q 447 3434 972 4092 
Q 1497 4750 2381 4750 
Q 2619 4750 2861 4703 
Q 3103 4656 3366 4563 
z
" transform="scale(0.015625)"/>
       </defs>
       <use xlink:href="#DejaVuSans-30"/>
       <use xlink:href="#DejaVuSans-2e" x="63.623047"/>
       <use xlink:href="#DejaVuSans-36" x="95.410156"/>
      </g>
     </g>
    </g>
    <g id="xtick_5">
     <g id="line2d_5">
      <g>
       <use xlink:href="#m7e725ebc83" x="339.459174" y="307.584" style="stroke: #000000; stroke-width: 0.8"/>
      </g>
     </g>
     <g id="text_5">
      <!-- 0.8 -->
      <g transform="translate(331.507611 322.182437) scale(0.1 -0.1)">
       <defs>
        <path id="DejaVuSans-38" d="M 2034 2216 
Q 1584 2216 1326 1975 
Q 1069 1734 1069 1313 
Q 1069 891 1326 650 
Q 1584 409 2034 409 
Q 2484 409 2743 651 
Q 3003 894 3003 1313 
Q 3003 1734 2745 1975 
Q 2488 2216 2034 2216 
z
M 1403 2484 
Q 997 2584 770 2862 
Q 544 3141 544 3541 
Q 544 4100 942 4425 
Q 1341 4750 2034 4750 
Q 2731 4750 3128 4425 
Q 3525 4100 3525 3541 
Q 3525 3141 3298 2862 
Q 3072 2584 2669 2484 
Q 3125 2378 3379 2068 
Q 3634 1759 3634 1313 
Q 3634 634 3220 271 
Q 2806 -91 2034 -91 
Q 1263 -91 848 271 
Q 434 634 434 1313 
Q 434 1759 690 2068 
Q 947 2378 1403 2484 
z
M 1172 3481 
Q 1172 3119 1398 2916 
Q 1625 2713 2034 2713 
Q 2441 2713 2670 2916 
Q 2900 3119 2900 3481 
Q 2900 3844 2670 4047 
Q 2441 4250 2034 4250 
Q 1625 4250 1398 4047 
Q 1172 3844 1172 3481 
z
" transform="scale(0.015625)"/>
       </defs>
       <use xlink:href="#DejaVuSans-30"/>
       <use xlink:href="#DejaVuSans-2e" x="63.623047"/>
       <use xlink:href="#DejaVuSans-38" x="95.410156"/>
      </g>
     </g>
    </g>
    <g id="xtick_6">
     <g id="line2d_6">
      <g>
       <use xlink:href="#m7e725ebc83" x="398.487273" y="307.584" style="stroke: #000000; stroke-width: 0.8"/>
      </g>
     </g>
     <g id="text_6">
      <!-- 1.0 -->
      <g transform="translate(390.53571 322.182437) scale(0.1 -0.1)">
       <defs>
        <path id="DejaVuSans-31" d="M 794 531 
L 1825 531 
L 1825 4091 
L 703 3866 
L 703 4441 
L 1819 4666 
L 2450 4666 
L 2450 531 
L 3481 531 
L 3481 0 
L 794 0 
L 794 531 
z
" transform="scale(0.015625)"/>
       </defs>
       <use xlink:href="#DejaVuSans-31"/>
       <use xlink:href="#DejaVuSans-2e" x="63.623047"/>
       <use xlink:href="#DejaVuSans-30" x="95.410156"/>
      </g>
     </g>
    </g>
    <g id="text_7">
     <!-- Time (s) -->
     <g transform="translate(215.831094 335.860562) scale(0.1 -0.1)">
      <defs>
       <path id="DejaVuSans-54" d="M -19 4666 
L 3928 4666 
L 3928 4134 
L 2272 4134 
L 2272 0 
L 1638 0 
L 1638 4134 
L -19 4134 
L -19 4666 
z
" transform="scale(0.015625)"/>
       <path id="DejaVuSans-69" d="M 603 3500 
L 1178 3500 
L 1178 0 
L 603 0 
L 603 3500 
z
M 603 4863 
L 1178 4863 
L 1178 4134 
L 603 4134 
L 603 4863 
z
" transform="scale(0.015625)"/>
       <path id="DejaVuSans-6d" d="M 3328 2828 
Q 3544 3216 3844 3400 
Q 4144 3584 4550 3584 
Q 5097 3584 5394 3201 
Q 5691 2819 5691 2113 
L 5691 0 
L 5113 0 
L 5113 2094 
Q 5113 2597 4934 2840 
Q 4756 3084 4391 3084 
Q 3944 3084 3684 2787 
Q 3425 2491 3425 1978 
L 3425 0 
L 2847 0 
L 2847 2094 
Q 2847 2600 2669 2842 
Q 2491 3084 2119 3084 
Q 1678 3084 1418 2786 
Q 1159 2488 1159 1978 
L 1159 0 
L 581 0 
L 581 3500 
L 1159 3500 
L 1159 2956 
Q 1356 3278 1631 3431 
Q 1906 3584 2284 3584 
Q 2666 3584 2933 3390 
Q 3200 3197 3328 2828 
z
" transform="scale(0.015625)"/>
       <path id="DejaVuSans-65" d="M 3597 1894 
L 3597 1613 
L 953 1613 
Q 991 1019 1311 708 
Q 1631 397 2203 397 
Q 2534 397 2845 478 
Q 3156 559 3463 722 
L 3463 178 
Q 3153 47 2828 -22 
Q 2503 -91 2169 -91 
Q 1331 -91 842 396 
Q 353 884 353 1716 
Q 353 2575 817 3079 
Q 1281 3584 2069 3584 
Q 2775 3584 3186 3129 
Q 3597 2675 3597 1894 
z
M 3022 2063 
Q 3016 2534 2758 2815 
Q 2500 3097 2075 3097 
Q 1594 3097 1305 2825 
Q 1016 2553 972 2059 
L 3022 2063 
z
" transform="scale(0.015625)"/>
       <path id="DejaVuSans-20" transform="scale(0.015625)"/>
       <path id="DejaVuSans-28" d="M 1984 4856 
Q 1566 4138 1362 3434 
Q 1159 2731 1159 2009 
Q 1159 1288 1364 580 
Q 1569 -128 1984 -844 
L 1484 -844 
Q 1016 -109 783 600 
Q 550 1309 550 2009 
Q 550 2706 781 3412 
Q 1013 4119 1484 4856 
L 1984 4856 
z
" transform="scale(0.015625)"/>
       <path id="DejaVuSans-73" d="M 2834 3397 
L 2834 2853 
Q 2591 2978 2328 3040 
Q 2066 3103 1784 3103 
Q 1356 3103 1142 2972 
Q 928 2841 928 2578 
Q 928 2378 1081 2264 
Q 1234 2150 1697 2047 
L 1894 2003 
Q 2506 1872 2764 1633 
Q 3022 1394 3022 966 
Q 3022 478 2636 193 
Q 2250 -91 1575 -91 
Q 1294 -91 989 -36 
Q 684 19 347 128 
L 347 722 
Q 666 556 975 473 
Q 1284 391 1588 391 
Q 1994 391 2212 530 
Q 2431 669 2431 922 
Q 2431 1156 2273 1281 
Q 2116 1406 1581 1522 
L 1381 1569 
Q 847 1681 609 1914 
Q 372 2147 372 2553 
Q 372 3047 722 3315 
Q 1072 3584 1716 3584 
Q 2034 3584 2315 3537 
Q 2597 3491 2834 3397 
z
" transform="scale(0.015625)"/>
       <path id="DejaVuSans-29" d="M 513 4856 
L 1013 4856 
Q 1481 4119 1714 3412 
Q 1947 2706 1947 2009 
Q 1947 1309 1714 600 
Q 1481 -109 1013 -844 
L 513 -844 
Q 928 -128 1133 580 
Q 1338 1288 1338 2009 
Q 1338 2731 1133 3434 
Q 928 4138 513 4856 
z
" transform="scale(0.015625)"/>
      </defs>
      <use xlink:href="#DejaVuSans-54"/>
      <use xlink:href="#DejaVuSans-69" x="57.958984"/>
      <use xlink:href="#DejaVuSans-6d" x="85.742188"/>
      <use xlink:href="#DejaVuSans-65" x="183.154297"/>
      <use xlink:href="#DejaVuSans-20" x="244.677734"/>
      <use xlink:href="#DejaVuSans-28" x="276.464844"/>
      <use xlink:href="#DejaVuSans-73" x="315.478516"/>
      <use xlink:href="#DejaVuSans-29" x="367.578125"/>
     </g>
    </g>
   </g>
   <g id="matplotlib.axis_2">
    <g id="ytick_1">
     <g id="line2d_7">
      <defs>
       <path id="m2e667cd384" d="M 0 0 
L -3.5 0 
" style="stroke: #000000; stroke-width: 0.8"/>
      </defs>
      <g>
       <use xlink:href="#m2e667cd384" x="57.6" y="307.584" style="stroke: #000000; stroke-width: 0.8"/>
      </g>
     </g>
     <g id="text_8">
      <!-- −0.02 -->
      <g transform="translate(19.954687 311.383219) scale(0.1 -0.1)">
       <defs>
        <path id="DejaVuSans-2212" d="M 678 2272 
L 4684 2272 
L 4684 1741 
L 678 1741 
L 678 2272 
z
" transform="scale(0.015625)"/>
       </defs>
       <use xlink:href="#DejaVuSans-2212"/>
       <use xlink:href="#DejaVuSans-30" x="83.789062"/>
       <use xlink:href="#DejaVuSans-2e" x="147.412109"/>
       <use xlink:href="#DejaVuSans-30" x="179.199219"/>
       <use xlink:href="#DejaVuSans-32" x="242.822266"/>
      </g>
     </g>
    </g>
    <g id="ytick_2">
     <g id="line2d_8">
      <g>
       <use xlink:href="#m2e667cd384" x="57.6" y="248.448" style="stroke: #000000; stroke-width: 0.8"/>
      </g>
     </g>
     <g id="text_9">
      <!-- 0.00 -->
      <g transform="translate(28.334375 252.247219) scale(0.1 -0.1)">
       <use xlink:href="#DejaVuSans-30"/>
       <use xlink:href="#DejaVuSans-2e" x="63.623047"/>
       <use xlink:href="#DejaVuSans-30" x="95.410156"/>
       <use xlink:href="#DejaVuSans-30" x="159.033203"/>
      </g>
     </g>
    </g>
    <g id="ytick_3">
     <g id="line2d_9">
      <g>
       <use xlink:href="#m2e667cd384" x="57.6" y="189.312" style="stroke: #000000; stroke-width: 0.8"/>
      </g>
     </g>
     <g id="text_10">
      <!-- 0.02 -->
      <g transform="translate(28.334375 193.111219) scale(0.1 -0.1)">
       <use xlink:href="#DejaVuSans-30"/>
       <use xlink:href="#DejaVuSans-2e" x="63.623047"/>
       <use xlink:href="#DejaVuSans-30" x="95.410156"/>
       <use xlink:href="#DejaVuSans-32" x="159.033203"/>
      </g>
     </g>
    </g>
    <g id="ytick_4">
     <g id="line2d_10">
      <g>
       <use xlink:href="#m2e667cd384" x="57.6" y="130.176" style="stroke: #000000; stroke-width: 0.8"/>
      </g>
     </g>
     <g id="text_11">
      <!-- 0.04 -->
      <g transform="translate(28.334375 133.975219) scale(0.1 -0.1)">
       <use xlink:href="#DejaVuSans-30"/>
       <use xlink:href="#DejaVuSans-2e" x="63.623047"/>
       <use xlink:href="#DejaVuSans-30" x="95.410156"/>
       <use xlink:href="#DejaVuSans-34" x="159.033203"/>
      </g>
     </g>
    </g>
    <g id="ytick_5">
     <g id="line2d_11">
      <g>
       <use xlink:href="#m2e667cd384" x="57.6" y="71.04" style="stroke: #000000; stroke-width: 0.8"/>
      </g>
     </g>
     <g id="text_12">
      <!-- 0.06 -->
      <g transform="translate(28.334375 74.839219) scale(0.1 -0.1)">
       <use xlink:href="#DejaVuSans-30"/>
       <use xlink:href="#DejaVuSans-2e" x="63.623047"/>
       <use xlink:href="#DejaVuSans-30" x="95.410156"/>
       <use xlink:href="#DejaVuSans-36" x="159.033203"/>
      </g>
     </g>
    </g>
    <g id="text_13">
     <!-- Spearman Correlation -->
     <g transform="translate(13.875 229.245969) rotate(-90) scale(0.1 -0.1)">
      <defs>
       <path id="DejaVuSans-53" d="M 3425 4513 
L 3425 3897 
Q 3066 4069 2747 4153 
Q 2428 4238 2131 4238 
Q 1616 4238 1336 4038 
Q 1056 3838 1056 3469 
Q 1056 3159 1242 3001 
Q 1428 2844 1947 2747 
L 2328 2669 
Q 3034 2534 3370 2195 
Q 3706 1856 3706 1288 
Q 3706 609 3251 259 
Q 2797 -91 1919 -91 
Q 1588 -91 1214 -16 
Q 841 59 441 206 
L 441 856 
Q 825 641 1194 531 
Q 1563 422 1919 422 
Q 2459 422 2753 634 
Q 3047 847 3047 1241 
Q 3047 1584 2836 1778 
Q 2625 1972 2144 2069 
L 1759 2144 
Q 1053 2284 737 2584 
Q 422 2884 422 3419 
Q 422 4038 858 4394 
Q 1294 4750 2059 4750 
Q 2388 4750 2728 4690 
Q 3069 4631 3425 4513 
z
" transform="scale(0.015625)"/>
       <path id="DejaVuSans-70" d="M 1159 525 
L 1159 -1331 
L 581 -1331 
L 581 3500 
L 1159 3500 
L 1159 2969 
Q 1341 3281 1617 3432 
Q 1894 3584 2278 3584 
Q 2916 3584 3314 3078 
Q 3713 2572 3713 1747 
Q 3713 922 3314 415 
Q 2916 -91 2278 -91 
Q 1894 -91 1617 61 
Q 1341 213 1159 525 
z
M 3116 1747 
Q 3116 2381 2855 2742 
Q 2594 3103 2138 3103 
Q 1681 3103 1420 2742 
Q 1159 2381 1159 1747 
Q 1159 1113 1420 752 
Q 1681 391 2138 391 
Q 2594 391 2855 752 
Q 3116 1113 3116 1747 
z
" transform="scale(0.015625)"/>
       <path id="DejaVuSans-61" d="M 2194 1759 
Q 1497 1759 1228 1600 
Q 959 1441 959 1056 
Q 959 750 1161 570 
Q 1363 391 1709 391 
Q 2188 391 2477 730 
Q 2766 1069 2766 1631 
L 2766 1759 
L 2194 1759 
z
M 3341 1997 
L 3341 0 
L 2766 0 
L 2766 531 
Q 2569 213 2275 61 
Q 1981 -91 1556 -91 
Q 1019 -91 701 211 
Q 384 513 384 1019 
Q 384 1609 779 1909 
Q 1175 2209 1959 2209 
L 2766 2209 
L 2766 2266 
Q 2766 2663 2505 2880 
Q 2244 3097 1772 3097 
Q 1472 3097 1187 3025 
Q 903 2953 641 2809 
L 641 3341 
Q 956 3463 1253 3523 
Q 1550 3584 1831 3584 
Q 2591 3584 2966 3190 
Q 3341 2797 3341 1997 
z
" transform="scale(0.015625)"/>
       <path id="DejaVuSans-72" d="M 2631 2963 
Q 2534 3019 2420 3045 
Q 2306 3072 2169 3072 
Q 1681 3072 1420 2755 
Q 1159 2438 1159 1844 
L 1159 0 
L 581 0 
L 581 3500 
L 1159 3500 
L 1159 2956 
Q 1341 3275 1631 3429 
Q 1922 3584 2338 3584 
Q 2397 3584 2469 3576 
Q 2541 3569 2628 3553 
L 2631 2963 
z
" transform="scale(0.015625)"/>
       <path id="DejaVuSans-6e" d="M 3513 2113 
L 3513 0 
L 2938 0 
L 2938 2094 
Q 2938 2591 2744 2837 
Q 2550 3084 2163 3084 
Q 1697 3084 1428 2787 
Q 1159 2491 1159 1978 
L 1159 0 
L 581 0 
L 581 3500 
L 1159 3500 
L 1159 2956 
Q 1366 3272 1645 3428 
Q 1925 3584 2291 3584 
Q 2894 3584 3203 3211 
Q 3513 2838 3513 2113 
z
" transform="scale(0.015625)"/>
       <path id="DejaVuSans-43" d="M 4122 4306 
L 4122 3641 
Q 3803 3938 3442 4084 
Q 3081 4231 2675 4231 
Q 1875 4231 1450 3742 
Q 1025 3253 1025 2328 
Q 1025 1406 1450 917 
Q 1875 428 2675 428 
Q 3081 428 3442 575 
Q 3803 722 4122 1019 
L 4122 359 
Q 3791 134 3420 21 
Q 3050 -91 2638 -91 
Q 1578 -91 968 557 
Q 359 1206 359 2328 
Q 359 3453 968 4101 
Q 1578 4750 2638 4750 
Q 3056 4750 3426 4639 
Q 3797 4528 4122 4306 
z
" transform="scale(0.015625)"/>
       <path id="DejaVuSans-6f" d="M 1959 3097 
Q 1497 3097 1228 2736 
Q 959 2375 959 1747 
Q 959 1119 1226 758 
Q 1494 397 1959 397 
Q 2419 397 2687 759 
Q 2956 1122 2956 1747 
Q 2956 2369 2687 2733 
Q 2419 3097 1959 3097 
z
M 1959 3584 
Q 2709 3584 3137 3096 
Q 3566 2609 3566 1747 
Q 3566 888 3137 398 
Q 2709 -91 1959 -91 
Q 1206 -91 779 398 
Q 353 888 353 1747 
Q 353 2609 779 3096 
Q 1206 3584 1959 3584 
z
" transform="scale(0.015625)"/>
       <path id="DejaVuSans-6c" d="M 603 4863 
L 1178 4863 
L 1178 0 
L 603 0 
L 603 4863 
z
" transform="scale(0.015625)"/>
       <path id="DejaVuSans-74" d="M 1172 4494 
L 1172 3500 
L 2356 3500 
L 2356 3053 
L 1172 3053 
L 1172 1153 
Q 1172 725 1289 603 
Q 1406 481 1766 481 
L 2356 481 
L 2356 0 
L 1766 0 
Q 1100 0 847 248 
Q 594 497 594 1153 
L 594 3053 
L 172 3053 
L 172 3500 
L 594 3500 
L 594 4494 
L 1172 4494 
z
" transform="scale(0.015625)"/>
      </defs>
      <use xlink:href="#DejaVuSans-53"/>
      <use xlink:href="#DejaVuSans-70" x="63.476562"/>
      <use xlink:href="#DejaVuSans-65" x="126.953125"/>
      <use xlink:href="#DejaVuSans-61" x="188.476562"/>
      <use xlink:href="#DejaVuSans-72" x="249.755859"/>
      <use xlink:href="#DejaVuSans-6d" x="289.119141"/>
      <use xlink:href="#DejaVuSans-61" x="386.53125"/>
      <use xlink:href="#DejaVuSans-6e" x="447.810547"/>
      <use xlink:href="#DejaVuSans-20" x="511.189453"/>
      <use xlink:href="#DejaVuSans-43" x="542.976562"/>
      <use xlink:href="#DejaVuSans-6f" x="612.800781"/>
      <use xlink:href="#DejaVuSans-72" x="673.982422"/>
      <use xlink:href="#DejaVuSans-72" x="713.345703"/>
      <use xlink:href="#DejaVuSans-65" x="752.208984"/>
      <use xlink:href="#DejaVuSans-6c" x="813.732422"/>
      <use xlink:href="#DejaVuSans-61" x="841.515625"/>
      <use xlink:href="#DejaVuSans-74" x="902.794922"/>
      <use xlink:href="#DejaVuSans-69" x="942.003906"/>
      <use xlink:href="#DejaVuSans-6f" x="969.787109"/>
      <use xlink:href="#DejaVuSans-6e" x="1030.96875"/>
     </g>
    </g>
   </g>
   <g id="line2d_12">
    <path d="M 103.346777 307.584 
L 103.346777 41.472 
" clip-path="url(#p7326e954c1)" style="fill: none; stroke-dasharray: 5.55,2.4; stroke-dashoffset: 0; stroke: #d3d3d3; stroke-width: 1.5"/>
   </g>
   <g id="line2d_13">
    <path d="M 57.6 248.448 
L 414.72 248.448 
" clip-path="url(#p7326e954c1)" style="fill: none; stroke-dasharray: 5.55,2.4; stroke-dashoffset: 0; stroke: #d3d3d3; stroke-width: 1.5"/>
   </g>
   <g id="line2d_14">
    <path d="M 73.832727 261.153813 
L 76.151688 256.49565 
L 78.470649 252.783892 
L 80.78961 253.209476 
L 83.108571 250.404057 
L 85.427532 256.715899 
L 87.746494 251.011844 
L 90.065455 247.787567 
L 92.384416 249.930677 
L 94.703377 255.692505 
L 97.022338 258.219062 
L 99.341299 251.545148 
L 101.66026 235.143522 
L 103.979221 234.263661 
L 106.298182 242.866546 
L 108.617143 252.64732 
L 110.936104 256.645513 
L 113.255065 257.441254 
L 115.574026 263.670334 
L 117.892987 277.470792 
L 120.211948 282.034421 
L 122.530909 263.640701 
L 124.84987 223.511883 
L 127.168831 195.995983 
L 129.487792 180.786375 
L 131.806753 177.880327 
L 134.125714 181.230166 
L 136.444675 186.067247 
L 138.763636 183.088837 
L 141.082597 177.76559 
L 143.401558 176.872785 
L 145.720519 174.819693 
L 148.039481 164.95424 
L 150.358442 142.549889 
L 152.677403 123.450766 
L 154.996364 111.097052 
L 157.315325 104.653891 
L 159.634286 102.073906 
L 161.953247 98.96601 
L 164.272208 95.357028 
L 166.591169 93.469814 
L 168.91013 94.436374 
L 171.229091 99.743436 
L 173.548052 109.342492 
L 175.867013 122.146534 
L 178.185974 136.171756 
L 180.504935 147.456234 
L 182.823896 154.068901 
L 185.142857 158.117559 
L 189.780779 164.278312 
L 192.09974 169.514769 
L 194.418701 176.666925 
L 196.737662 182.992638 
L 201.375584 200.532277 
L 203.694545 204.001758 
L 206.013506 205.186159 
L 210.651429 210.643157 
L 212.97039 212.142084 
L 215.289351 212.489687 
L 217.608312 214.088426 
L 219.927273 217.752372 
L 222.246234 219.263665 
L 224.565195 217.200057 
L 226.884156 214.454226 
L 229.203117 212.058705 
L 231.522078 208.86983 
L 233.841039 205.412263 
L 236.16 203.258281 
L 238.478961 204.572037 
L 240.797922 208.392185 
L 243.116883 214.931544 
L 247.754805 229.207576 
L 250.073766 234.372687 
L 252.392727 236.514982 
L 254.711688 237.022849 
L 259.34961 236.396837 
L 261.668571 237.316982 
L 263.987532 237.928677 
L 266.306494 238.931194 
L 268.625455 238.898802 
L 270.944416 236.872847 
L 273.263377 232.660938 
L 275.582338 227.470412 
L 277.901299 221.506397 
L 280.22026 219.256983 
L 282.539221 221.516392 
L 284.858182 225.276047 
L 287.177143 226.779808 
L 289.496104 225.710504 
L 291.815065 224.298038 
L 294.134026 225.627053 
L 296.452987 227.8712 
L 301.090909 229.29794 
L 303.40987 232.151522 
L 305.728831 235.252047 
L 308.047792 237.705052 
L 310.366753 239.915281 
L 312.685714 242.959068 
L 315.004675 243.645901 
L 317.323636 242.134263 
L 321.961558 236.488184 
L 324.280519 234.589809 
L 326.599481 235.107129 
L 328.918442 237.988197 
L 331.237403 239.449758 
L 333.556364 237.7248 
L 335.875325 234.175339 
L 338.194286 232.763492 
L 340.513247 231.067081 
L 342.832208 228.406575 
L 345.151169 227.633655 
L 347.47013 230.738589 
L 349.789091 235.185313 
L 352.108052 238.851818 
L 354.427013 243.585552 
L 356.745974 248.772051 
L 359.064935 251.228191 
L 361.383896 250.81012 
L 363.702857 248.058599 
L 366.021818 242.697929 
L 370.65974 226.667389 
L 372.978701 221.578206 
L 375.297662 220.909684 
L 377.616623 223.554719 
L 379.935584 228.901583 
L 382.254545 235.391267 
L 384.573506 239.789728 
L 386.892468 239.681592 
L 389.211429 237.372044 
L 391.53039 236.632516 
L 396.168312 237.203799 
L 398.487273 238.656581 
L 398.487273 238.656581 
" clip-path="url(#p7326e954c1)" style="fill: none; stroke: #ff2c55; stroke-width: 2; stroke-linecap: square"/>
   </g>
   <g id="line2d_15">
    <path d="M 73.832727 256.332072 
L 76.151688 253.94231 
L 78.470649 243.859597 
L 80.78961 229.458096 
L 83.108571 232.661826 
L 85.427532 255.106637 
L 87.746494 267.62337 
L 90.065455 264.748825 
L 92.384416 250.961826 
L 94.703377 234.460726 
L 97.022338 233.972269 
L 99.341299 235.211685 
L 101.66026 240.015566 
L 103.979221 235.344144 
L 106.298182 233.30685 
L 108.617143 229.304872 
L 110.936104 228.868055 
L 113.255065 230.095115 
L 115.574026 234.49144 
L 117.892987 237.977198 
L 120.211948 235.3772 
L 122.530909 212.642323 
L 124.84987 171.433447 
L 127.168831 135.207294 
L 129.487792 116.914147 
L 131.806753 105.770675 
L 134.125714 96.956151 
L 136.444675 90.689699 
L 138.763636 85.552431 
L 141.082597 80.918266 
L 143.401558 77.823528 
L 145.720519 78.738656 
L 148.039481 83.13875 
L 150.358442 94.72578 
L 152.677403 104.336771 
L 154.996364 108.283897 
L 157.315325 110.790234 
L 159.634286 114.972487 
L 161.953247 119.911279 
L 164.272208 122.920804 
L 166.591169 123.043521 
L 168.91013 121.104961 
L 171.229091 119.740499 
L 173.548052 119.983846 
L 175.867013 119.971377 
L 178.185974 119.825398 
L 180.504935 120.585987 
L 182.823896 122.583859 
L 185.142857 125.08508 
L 187.461818 128.348785 
L 189.780779 132.114209 
L 192.09974 137.638637 
L 194.418701 142.557942 
L 201.375584 156.424057 
L 203.694545 159.80653 
L 206.013506 162.610044 
L 208.332468 164.434683 
L 210.651429 165.809524 
L 212.97039 165.807027 
L 219.927273 163.774366 
L 222.246234 163.638337 
L 224.565195 164.855379 
L 226.884156 167.540738 
L 229.203117 170.054247 
L 231.522078 172.332343 
L 233.841039 173.744644 
L 236.16 175.495069 
L 238.478961 177.420241 
L 240.797922 180.438967 
L 243.116883 184.63906 
L 245.435844 188.425444 
L 247.754805 190.857289 
L 250.073766 191.463502 
L 252.392727 190.764342 
L 254.711688 190.25635 
L 257.030649 189.984757 
L 261.668571 188.963392 
L 263.987532 187.911346 
L 266.306494 188.345122 
L 268.625455 189.946106 
L 273.263377 192.166786 
L 277.901299 192.995014 
L 280.22026 193.03334 
L 282.539221 193.479128 
L 284.858182 194.130325 
L 287.177143 196.618412 
L 289.496104 198.439752 
L 291.815065 200.049731 
L 294.134026 202.955264 
L 296.452987 206.095431 
L 298.771948 207.482398 
L 301.090909 207.676054 
L 303.40987 208.314899 
L 305.728831 208.471794 
L 308.047792 207.603635 
L 310.366753 206.01434 
L 312.685714 204.717574 
L 315.004675 202.891437 
L 317.323636 199.877652 
L 319.642597 197.28462 
L 321.961558 196.239366 
L 326.599481 197.318501 
L 331.237403 199.132407 
L 333.556364 199.736715 
L 335.875325 199.991745 
L 338.194286 200.78378 
L 340.513247 201.149993 
L 342.832208 200.66339 
L 345.151169 199.803144 
L 347.47013 199.520213 
L 349.789091 200.361251 
L 352.108052 202.755424 
L 354.427013 205.454165 
L 359.064935 211.08073 
L 361.383896 211.785216 
L 363.702857 210.115142 
L 366.021818 207.358661 
L 368.340779 204.960993 
L 370.65974 203.338604 
L 372.978701 202.335448 
L 375.297662 202.880453 
L 377.616623 204.520332 
L 379.935584 205.937591 
L 382.254545 207.14029 
L 384.573506 209.215433 
L 386.892468 212.254978 
L 389.211429 214.768002 
L 391.53039 215.916098 
L 393.849351 216.490681 
L 396.168312 216.885073 
L 398.487273 216.310469 
L 398.487273 216.310469 
" clip-path="url(#p7326e954c1)" style="fill: none; stroke: #ee9b00; stroke-width: 2; stroke-linecap: square"/>
   </g>
   <g id="line2d_16">
    <path d="M 166.591169 307.584 
L 166.591169 41.472 
" clip-path="url(#p7326e954c1)" style="fill: none; stroke-dasharray: 5.55,2.4; stroke-dashoffset: 0; stroke: #ff2c55; stroke-width: 1.5"/>
   </g>
   <g id="line2d_17">
    <path d="M 143.401558 307.584 
L 143.401558 41.472 
" clip-path="url(#p7326e954c1)" style="fill: none; stroke-dasharray: 5.55,2.4; stroke-dashoffset: 0; stroke: #ee9b00; stroke-width: 1.5"/>
   </g>
   <g id="line2d_18">
    <path d="M 166.591169 56.256 
L 143.401558 56.256 
" clip-path="url(#p7326e954c1)" style="fill: none; stroke: #000000; stroke-width: 2; stroke-linecap: square"/>
   </g>
   <g id="line2d_19">
    <path d="M 166.591169 62.1696 
L 166.591169 56.256 
" clip-path="url(#p7326e954c1)" style="fill: none; stroke: #000000; stroke-width: 2; stroke-linecap: square"/>
   </g>
   <g id="line2d_20">
    <path d="M 143.401558 62.1696 
L 143.401558 56.256 
" clip-path="url(#p7326e954c1)" style="fill: none; stroke: #000000; stroke-width: 2; stroke-linecap: square"/>
   </g>
   <g id="patch_3">
    <path d="M 57.6 307.584 
L 57.6 41.472 
" style="fill: none; stroke: #000000; stroke-width: 0.8; stroke-linejoin: miter; stroke-linecap: square"/>
   </g>
   <g id="patch_4">
    <path d="M 57.6 307.584 
L 414.72 307.584 
" style="fill: none; stroke: #000000; stroke-width: 0.8; stroke-linejoin: miter; stroke-linecap: square"/>
   </g>
   <g id="text_14">
    <!-- . -->
    <g style="fill: #ff2c55" transform="translate(129.487792 297.637371) scale(0.2 -0.2)">
     <use xlink:href="#DejaVuSans-2e"/>
    </g>
   </g>
   <g id="text_15">
    <!-- . -->
    <g style="fill: #ff2c55" transform="translate(131.806753 297.637371) scale(0.2 -0.2)">
     <use xlink:href="#DejaVuSans-2e"/>
    </g>
   </g>
   <g id="text_16">
    <!-- . -->
    <g style="fill: #ff2c55" transform="translate(150.358442 297.637371) scale(0.2 -0.2)">
     <use xlink:href="#DejaVuSans-2e"/>
    </g>
   </g>
   <g id="text_17">
    <!-- . -->
    <g style="fill: #ff2c55" transform="translate(152.677403 297.637371) scale(0.2 -0.2)">
     <use xlink:href="#DejaVuSans-2e"/>
    </g>
   </g>
   <g id="text_18">
    <!-- . -->
    <g style="fill: #ff2c55" transform="translate(154.996364 297.637371) scale(0.2 -0.2)">
     <use xlink:href="#DejaVuSans-2e"/>
    </g>
   </g>
   <g id="text_19">
    <!-- . -->
    <g style="fill: #ff2c55" transform="translate(157.315325 297.637371) scale(0.2 -0.2)">
     <use xlink:href="#DejaVuSans-2e"/>
    </g>
   </g>
   <g id="text_20">
    <!-- . -->
    <g style="fill: #ff2c55" transform="translate(159.634286 297.637371) scale(0.2 -0.2)">
     <use xlink:href="#DejaVuSans-2e"/>
    </g>
   </g>
   <g id="text_21">
    <!-- . -->
    <g style="fill: #ff2c55" transform="translate(161.953247 297.637371) scale(0.2 -0.2)">
     <use xlink:href="#DejaVuSans-2e"/>
    </g>
   </g>
   <g id="text_22">
    <!-- . -->
    <g style="fill: #ff2c55" transform="translate(164.272208 297.637371) scale(0.2 -0.2)">
     <use xlink:href="#DejaVuSans-2e"/>
    </g>
   </g>
   <g id="text_23">
    <!-- . -->
    <g style="fill: #ff2c55" transform="translate(166.591169 297.637371) scale(0.2 -0.2)">
     <use xlink:href="#DejaVuSans-2e"/>
    </g>
   </g>
   <g id="text_24">
    <!-- . -->
    <g style="fill: #ff2c55" transform="translate(168.91013 297.637371) scale(0.2 -0.2)">
     <use xlink:href="#DejaVuSans-2e"/>
    </g>
   </g>
   <g id="text_25">
    <!-- . -->
    <g style="fill: #ff2c55" transform="translate(171.229091 297.637371) scale(0.2 -0.2)">
     <use xlink:href="#DejaVuSans-2e"/>
    </g>
   </g>
   <g id="text_26">
    <!-- . -->
    <g style="fill: #ff2c55" transform="translate(173.548052 297.637371) scale(0.2 -0.2)">
     <use xlink:href="#DejaVuSans-2e"/>
    </g>
   </g>
   <g id="text_27">
    <!-- . -->
    <g style="fill: #ff2c55" transform="translate(175.867013 297.637371) scale(0.2 -0.2)">
     <use xlink:href="#DejaVuSans-2e"/>
    </g>
   </g>
   <g id="text_28">
    <!-- . -->
    <g style="fill: #ff2c55" transform="translate(178.185974 297.637371) scale(0.2 -0.2)">
     <use xlink:href="#DejaVuSans-2e"/>
    </g>
   </g>
   <g id="text_29">
    <!-- . -->
    <g style="fill: #ee9b00" transform="translate(87.746494 303.550971) scale(0.2 -0.2)">
     <use xlink:href="#DejaVuSans-2e"/>
    </g>
   </g>
   <g id="text_30">
    <!-- . -->
    <g style="fill: #ee9b00" transform="translate(90.065455 303.550971) scale(0.2 -0.2)">
     <use xlink:href="#DejaVuSans-2e"/>
    </g>
   </g>
   <g id="text_31">
    <!-- . -->
    <g style="fill: #ee9b00" transform="translate(122.530909 303.550971) scale(0.2 -0.2)">
     <use xlink:href="#DejaVuSans-2e"/>
    </g>
   </g>
   <g id="text_32">
    <!-- . -->
    <g style="fill: #ee9b00" transform="translate(124.84987 303.550971) scale(0.2 -0.2)">
     <use xlink:href="#DejaVuSans-2e"/>
    </g>
   </g>
   <g id="text_33">
    <!-- . -->
    <g style="fill: #ee9b00" transform="translate(127.168831 303.550971) scale(0.2 -0.2)">
     <use xlink:href="#DejaVuSans-2e"/>
    </g>
   </g>
   <g id="text_34">
    <!-- . -->
    <g style="fill: #ee9b00" transform="translate(129.487792 303.550971) scale(0.2 -0.2)">
     <use xlink:href="#DejaVuSans-2e"/>
    </g>
   </g>
   <g id="text_35">
    <!-- . -->
    <g style="fill: #ee9b00" transform="translate(131.806753 303.550971) scale(0.2 -0.2)">
     <use xlink:href="#DejaVuSans-2e"/>
    </g>
   </g>
   <g id="text_36">
    <!-- . -->
    <g style="fill: #ee9b00" transform="translate(134.125714 303.550971) scale(0.2 -0.2)">
     <use xlink:href="#DejaVuSans-2e"/>
    </g>
   </g>
   <g id="text_37">
    <!-- . -->
    <g style="fill: #ee9b00" transform="translate(136.444675 303.550971) scale(0.2 -0.2)">
     <use xlink:href="#DejaVuSans-2e"/>
    </g>
   </g>
   <g id="text_38">
    <!-- . -->
    <g style="fill: #ee9b00" transform="translate(138.763636 303.550971) scale(0.2 -0.2)">
     <use xlink:href="#DejaVuSans-2e"/>
    </g>
   </g>
   <g id="text_39">
    <!-- . -->
    <g style="fill: #ee9b00" transform="translate(141.082597 303.550971) scale(0.2 -0.2)">
     <use xlink:href="#DejaVuSans-2e"/>
    </g>
   </g>
   <g id="text_40">
    <!-- . -->
    <g style="fill: #ee9b00" transform="translate(143.401558 303.550971) scale(0.2 -0.2)">
     <use xlink:href="#DejaVuSans-2e"/>
    </g>
   </g>
   <g id="text_41">
    <!-- . -->
    <g style="fill: #ee9b00" transform="translate(145.720519 303.550971) scale(0.2 -0.2)">
     <use xlink:href="#DejaVuSans-2e"/>
    </g>
   </g>
   <g id="text_42">
    <!-- . -->
    <g style="fill: #ee9b00" transform="translate(148.039481 303.550971) scale(0.2 -0.2)">
     <use xlink:href="#DejaVuSans-2e"/>
    </g>
   </g>
   <g id="text_43">
    <!-- . -->
    <g style="fill: #ee9b00" transform="translate(150.358442 303.550971) scale(0.2 -0.2)">
     <use xlink:href="#DejaVuSans-2e"/>
    </g>
   </g>
   <g id="text_44">
    <!-- . -->
    <g style="fill: #ee9b00" transform="translate(152.677403 303.550971) scale(0.2 -0.2)">
     <use xlink:href="#DejaVuSans-2e"/>
    </g>
   </g>
   <g id="text_45">
    <!-- . -->
    <g style="fill: #ee9b00" transform="translate(154.996364 303.550971) scale(0.2 -0.2)">
     <use xlink:href="#DejaVuSans-2e"/>
    </g>
   </g>
   <g id="text_46">
    <!-- . -->
    <g style="fill: #ee9b00" transform="translate(157.315325 303.550971) scale(0.2 -0.2)">
     <use xlink:href="#DejaVuSans-2e"/>
    </g>
   </g>
   <g id="text_47">
    <!-- . -->
    <g style="fill: #ee9b00" transform="translate(159.634286 303.550971) scale(0.2 -0.2)">
     <use xlink:href="#DejaVuSans-2e"/>
    </g>
   </g>
   <g id="text_48">
    <!-- . -->
    <g style="fill: #ee9b00" transform="translate(161.953247 303.550971) scale(0.2 -0.2)">
     <use xlink:href="#DejaVuSans-2e"/>
    </g>
   </g>
   <g id="text_49">
    <!-- . -->
    <g style="fill: #ee9b00" transform="translate(164.272208 303.550971) scale(0.2 -0.2)">
     <use xlink:href="#DejaVuSans-2e"/>
    </g>
   </g>
   <g id="text_50">
    <!-- . -->
    <g style="fill: #ee9b00" transform="translate(166.591169 303.550971) scale(0.2 -0.2)">
     <use xlink:href="#DejaVuSans-2e"/>
    </g>
   </g>
   <g id="text_51">
    <!-- . -->
    <g style="fill: #ee9b00" transform="translate(168.91013 303.550971) scale(0.2 -0.2)">
     <use xlink:href="#DejaVuSans-2e"/>
    </g>
   </g>
   <g id="text_52">
    <!-- . -->
    <g style="fill: #ee9b00" transform="translate(171.229091 303.550971) scale(0.2 -0.2)">
     <use xlink:href="#DejaVuSans-2e"/>
    </g>
   </g>
   <g id="text_53">
    <!-- . -->
    <g style="fill: #ee9b00" transform="translate(173.548052 303.550971) scale(0.2 -0.2)">
     <use xlink:href="#DejaVuSans-2e"/>
    </g>
   </g>
   <g id="text_54">
    <!-- . -->
    <g style="fill: #ee9b00" transform="translate(175.867013 303.550971) scale(0.2 -0.2)">
     <use xlink:href="#DejaVuSans-2e"/>
    </g>
   </g>
   <g id="text_55">
    <!-- . -->
    <g style="fill: #ee9b00" transform="translate(178.185974 303.550971) scale(0.2 -0.2)">
     <use xlink:href="#DejaVuSans-2e"/>
    </g>
   </g>
   <g id="text_56">
    <!-- . -->
    <g style="fill: #ee9b00" transform="translate(180.504935 303.550971) scale(0.2 -0.2)">
     <use xlink:href="#DejaVuSans-2e"/>
    </g>
   </g>
   <g id="text_57">
    <!-- . -->
    <g style="fill: #ee9b00" transform="translate(182.823896 303.550971) scale(0.2 -0.2)">
     <use xlink:href="#DejaVuSans-2e"/>
    </g>
   </g>
   <g id="text_58">
    <!-- . -->
    <g style="fill: #ee9b00" transform="translate(185.142857 303.550971) scale(0.2 -0.2)">
     <use xlink:href="#DejaVuSans-2e"/>
    </g>
   </g>
   <g id="text_59">
    <!-- . -->
    <g style="fill: #ee9b00" transform="translate(187.461818 303.550971) scale(0.2 -0.2)">
     <use xlink:href="#DejaVuSans-2e"/>
    </g>
   </g>
   <g id="text_60">
    <!-- . -->
    <g style="fill: #ee9b00" transform="translate(189.780779 303.550971) scale(0.2 -0.2)">
     <use xlink:href="#DejaVuSans-2e"/>
    </g>
   </g>
   <g id="text_61">
    <!-- . -->
    <g style="fill: #ee9b00" transform="translate(192.09974 303.550971) scale(0.2 -0.2)">
     <use xlink:href="#DejaVuSans-2e"/>
    </g>
   </g>
   <g id="text_62">
    <!-- . -->
    <g style="fill: #ee9b00" transform="translate(194.418701 303.550971) scale(0.2 -0.2)">
     <use xlink:href="#DejaVuSans-2e"/>
    </g>
   </g>
   <g id="text_63">
    <!-- . -->
    <g style="fill: #ee9b00" transform="translate(196.737662 303.550971) scale(0.2 -0.2)">
     <use xlink:href="#DejaVuSans-2e"/>
    </g>
   </g>
   <g id="text_64">
    <!-- . -->
    <g style="fill: #ee9b00" transform="translate(199.056623 303.550971) scale(0.2 -0.2)">
     <use xlink:href="#DejaVuSans-2e"/>
    </g>
   </g>
   <g id="text_65">
    <!-- . -->
    <g style="fill: #ee9b00" transform="translate(201.375584 303.550971) scale(0.2 -0.2)">
     <use xlink:href="#DejaVuSans-2e"/>
    </g>
   </g>
   <g id="text_66">
    <!-- . -->
    <g style="fill: #ee9b00" transform="translate(203.694545 303.550971) scale(0.2 -0.2)">
     <use xlink:href="#DejaVuSans-2e"/>
    </g>
   </g>
   <g id="text_67">
    <!-- . -->
    <g style="fill: #ee9b00" transform="translate(206.013506 303.550971) scale(0.2 -0.2)">
     <use xlink:href="#DejaVuSans-2e"/>
    </g>
   </g>
   <g id="text_68">
    <!-- . -->
    <g style="fill: #ee9b00" transform="translate(208.332468 303.550971) scale(0.2 -0.2)">
     <use xlink:href="#DejaVuSans-2e"/>
    </g>
   </g>
   <g id="text_69">
    <!-- . -->
    <g style="fill: #ee9b00" transform="translate(210.651429 303.550971) scale(0.2 -0.2)">
     <use xlink:href="#DejaVuSans-2e"/>
    </g>
   </g>
   <g id="text_70">
    <!-- . -->
    <g style="fill: #ee9b00" transform="translate(212.97039 303.550971) scale(0.2 -0.2)">
     <use xlink:href="#DejaVuSans-2e"/>
    </g>
   </g>
   <g id="text_71">
    <!-- . -->
    <g style="fill: #ee9b00" transform="translate(215.289351 303.550971) scale(0.2 -0.2)">
     <use xlink:href="#DejaVuSans-2e"/>
    </g>
   </g>
   <g id="text_72">
    <!-- . -->
    <g style="fill: #ee9b00" transform="translate(217.608312 303.550971) scale(0.2 -0.2)">
     <use xlink:href="#DejaVuSans-2e"/>
    </g>
   </g>
   <g id="text_73">
    <!-- . -->
    <g style="fill: #ee9b00" transform="translate(219.927273 303.550971) scale(0.2 -0.2)">
     <use xlink:href="#DejaVuSans-2e"/>
    </g>
   </g>
   <g id="text_74">
    <!-- . -->
    <g style="fill: #ee9b00" transform="translate(222.246234 303.550971) scale(0.2 -0.2)">
     <use xlink:href="#DejaVuSans-2e"/>
    </g>
   </g>
   <g id="text_75">
    <!-- . -->
    <g style="fill: #ee9b00" transform="translate(224.565195 303.550971) scale(0.2 -0.2)">
     <use xlink:href="#DejaVuSans-2e"/>
    </g>
   </g>
   <g id="text_76">
    <!-- . -->
    <g style="fill: #ee9b00" transform="translate(226.884156 303.550971) scale(0.2 -0.2)">
     <use xlink:href="#DejaVuSans-2e"/>
    </g>
   </g>
   <g id="text_77">
    <!-- . -->
    <g style="fill: #ee9b00" transform="translate(229.203117 303.550971) scale(0.2 -0.2)">
     <use xlink:href="#DejaVuSans-2e"/>
    </g>
   </g>
   <g id="text_78">
    <!-- . -->
    <g style="fill: #ee9b00" transform="translate(231.522078 303.550971) scale(0.2 -0.2)">
     <use xlink:href="#DejaVuSans-2e"/>
    </g>
   </g>
   <g id="text_79">
    <!-- . -->
    <g style="fill: #ee9b00" transform="translate(233.841039 303.550971) scale(0.2 -0.2)">
     <use xlink:href="#DejaVuSans-2e"/>
    </g>
   </g>
   <g id="text_80">
    <!-- . -->
    <g style="fill: #ee9b00" transform="translate(236.16 303.550971) scale(0.2 -0.2)">
     <use xlink:href="#DejaVuSans-2e"/>
    </g>
   </g>
   <g id="text_81">
    <!-- . -->
    <g style="fill: #ee9b00" transform="translate(238.478961 303.550971) scale(0.2 -0.2)">
     <use xlink:href="#DejaVuSans-2e"/>
    </g>
   </g>
   <g id="text_82">
    <!-- . -->
    <g style="fill: #ee9b00" transform="translate(240.797922 303.550971) scale(0.2 -0.2)">
     <use xlink:href="#DejaVuSans-2e"/>
    </g>
   </g>
   <g id="text_83">
    <!-- . -->
    <g style="fill: #ee9b00" transform="translate(243.116883 303.550971) scale(0.2 -0.2)">
     <use xlink:href="#DejaVuSans-2e"/>
    </g>
   </g>
   <g id="text_84">
    <!-- . -->
    <g style="fill: #ee9b00" transform="translate(245.435844 303.550971) scale(0.2 -0.2)">
     <use xlink:href="#DejaVuSans-2e"/>
    </g>
   </g>
   <g id="text_85">
    <!-- . -->
    <g style="fill: #ee9b00" transform="translate(247.754805 303.550971) scale(0.2 -0.2)">
     <use xlink:href="#DejaVuSans-2e"/>
    </g>
   </g>
   <g id="text_86">
    <!-- . -->
    <g style="fill: #ee9b00" transform="translate(250.073766 303.550971) scale(0.2 -0.2)">
     <use xlink:href="#DejaVuSans-2e"/>
    </g>
   </g>
   <g id="text_87">
    <!-- . -->
    <g style="fill: #ee9b00" transform="translate(252.392727 303.550971) scale(0.2 -0.2)">
     <use xlink:href="#DejaVuSans-2e"/>
    </g>
   </g>
   <g id="text_88">
    <!-- . -->
    <g style="fill: #ee9b00" transform="translate(254.711688 303.550971) scale(0.2 -0.2)">
     <use xlink:href="#DejaVuSans-2e"/>
    </g>
   </g>
   <g id="text_89">
    <!-- . -->
    <g style="fill: #ee9b00" transform="translate(257.030649 303.550971) scale(0.2 -0.2)">
     <use xlink:href="#DejaVuSans-2e"/>
    </g>
   </g>
   <g id="text_90">
    <!-- . -->
    <g style="fill: #ee9b00" transform="translate(259.34961 303.550971) scale(0.2 -0.2)">
     <use xlink:href="#DejaVuSans-2e"/>
    </g>
   </g>
   <g id="text_91">
    <!-- . -->
    <g style="fill: #ee9b00" transform="translate(261.668571 303.550971) scale(0.2 -0.2)">
     <use xlink:href="#DejaVuSans-2e"/>
    </g>
   </g>
   <g id="text_92">
    <!-- . -->
    <g style="fill: #ee9b00" transform="translate(263.987532 303.550971) scale(0.2 -0.2)">
     <use xlink:href="#DejaVuSans-2e"/>
    </g>
   </g>
   <g id="text_93">
    <!-- . -->
    <g style="fill: #ee9b00" transform="translate(266.306494 303.550971) scale(0.2 -0.2)">
     <use xlink:href="#DejaVuSans-2e"/>
    </g>
   </g>
   <g id="text_94">
    <!-- . -->
    <g style="fill: #ee9b00" transform="translate(268.625455 303.550971) scale(0.2 -0.2)">
     <use xlink:href="#DejaVuSans-2e"/>
    </g>
   </g>
   <g id="text_95">
    <!-- . -->
    <g style="fill: #ee9b00" transform="translate(270.944416 303.550971) scale(0.2 -0.2)">
     <use xlink:href="#DejaVuSans-2e"/>
    </g>
   </g>
   <g id="text_96">
    <!-- . -->
    <g style="fill: #ee9b00" transform="translate(273.263377 303.550971) scale(0.2 -0.2)">
     <use xlink:href="#DejaVuSans-2e"/>
    </g>
   </g>
   <g id="text_97">
    <!-- . -->
    <g style="fill: #ee9b00" transform="translate(275.582338 303.550971) scale(0.2 -0.2)">
     <use xlink:href="#DejaVuSans-2e"/>
    </g>
   </g>
   <g id="text_98">
    <!-- . -->
    <g style="fill: #ee9b00" transform="translate(277.901299 303.550971) scale(0.2 -0.2)">
     <use xlink:href="#DejaVuSans-2e"/>
    </g>
   </g>
   <g id="text_99">
    <!-- . -->
    <g style="fill: #ee9b00" transform="translate(280.22026 303.550971) scale(0.2 -0.2)">
     <use xlink:href="#DejaVuSans-2e"/>
    </g>
   </g>
   <g id="text_100">
    <!-- . -->
    <g style="fill: #ee9b00" transform="translate(282.539221 303.550971) scale(0.2 -0.2)">
     <use xlink:href="#DejaVuSans-2e"/>
    </g>
   </g>
   <g id="text_101">
    <!-- . -->
    <g style="fill: #ee9b00" transform="translate(284.858182 303.550971) scale(0.2 -0.2)">
     <use xlink:href="#DejaVuSans-2e"/>
    </g>
   </g>
   <g id="text_102">
    <!-- . -->
    <g style="fill: #ee9b00" transform="translate(287.177143 303.550971) scale(0.2 -0.2)">
     <use xlink:href="#DejaVuSans-2e"/>
    </g>
   </g>
   <g id="text_103">
    <!-- . -->
    <g style="fill: #ee9b00" transform="translate(289.496104 303.550971) scale(0.2 -0.2)">
     <use xlink:href="#DejaVuSans-2e"/>
    </g>
   </g>
   <g id="text_104">
    <!-- . -->
    <g style="fill: #ee9b00" transform="translate(291.815065 303.550971) scale(0.2 -0.2)">
     <use xlink:href="#DejaVuSans-2e"/>
    </g>
   </g>
   <g id="text_105">
    <!-- . -->
    <g style="fill: #ee9b00" transform="translate(294.134026 303.550971) scale(0.2 -0.2)">
     <use xlink:href="#DejaVuSans-2e"/>
    </g>
   </g>
   <g id="text_106">
    <!-- . -->
    <g style="fill: #ee9b00" transform="translate(296.452987 303.550971) scale(0.2 -0.2)">
     <use xlink:href="#DejaVuSans-2e"/>
    </g>
   </g>
   <g id="text_107">
    <!-- . -->
    <g style="fill: #ee9b00" transform="translate(298.771948 303.550971) scale(0.2 -0.2)">
     <use xlink:href="#DejaVuSans-2e"/>
    </g>
   </g>
   <g id="text_108">
    <!-- . -->
    <g style="fill: #ee9b00" transform="translate(301.090909 303.550971) scale(0.2 -0.2)">
     <use xlink:href="#DejaVuSans-2e"/>
    </g>
   </g>
   <g id="text_109">
    <!-- . -->
    <g style="fill: #ee9b00" transform="translate(303.40987 303.550971) scale(0.2 -0.2)">
     <use xlink:href="#DejaVuSans-2e"/>
    </g>
   </g>
   <g id="text_110">
    <!-- . -->
    <g style="fill: #ee9b00" transform="translate(305.728831 303.550971) scale(0.2 -0.2)">
     <use xlink:href="#DejaVuSans-2e"/>
    </g>
   </g>
   <g id="text_111">
    <!-- . -->
    <g style="fill: #ee9b00" transform="translate(308.047792 303.550971) scale(0.2 -0.2)">
     <use xlink:href="#DejaVuSans-2e"/>
    </g>
   </g>
   <g id="text_112">
    <!-- . -->
    <g style="fill: #ee9b00" transform="translate(310.366753 303.550971) scale(0.2 -0.2)">
     <use xlink:href="#DejaVuSans-2e"/>
    </g>
   </g>
   <g id="text_113">
    <!-- . -->
    <g style="fill: #ee9b00" transform="translate(312.685714 303.550971) scale(0.2 -0.2)">
     <use xlink:href="#DejaVuSans-2e"/>
    </g>
   </g>
   <g id="text_114">
    <!-- . -->
    <g style="fill: #ee9b00" transform="translate(315.004675 303.550971) scale(0.2 -0.2)">
     <use xlink:href="#DejaVuSans-2e"/>
    </g>
   </g>
   <g id="text_115">
    <!-- . -->
    <g style="fill: #ee9b00" transform="translate(317.323636 303.550971) scale(0.2 -0.2)">
     <use xlink:href="#DejaVuSans-2e"/>
    </g>
   </g>
   <g id="text_116">
    <!-- . -->
    <g style="fill: #ee9b00" transform="translate(319.642597 303.550971) scale(0.2 -0.2)">
     <use xlink:href="#DejaVuSans-2e"/>
    </g>
   </g>
   <g id="text_117">
    <!-- . -->
    <g style="fill: #ee9b00" transform="translate(321.961558 303.550971) scale(0.2 -0.2)">
     <use xlink:href="#DejaVuSans-2e"/>
    </g>
   </g>
   <g id="text_118">
    <!-- . -->
    <g style="fill: #ee9b00" transform="translate(324.280519 303.550971) scale(0.2 -0.2)">
     <use xlink:href="#DejaVuSans-2e"/>
    </g>
   </g>
   <g id="text_119">
    <!-- . -->
    <g style="fill: #ee9b00" transform="translate(326.599481 303.550971) scale(0.2 -0.2)">
     <use xlink:href="#DejaVuSans-2e"/>
    </g>
   </g>
   <g id="text_120">
    <!-- . -->
    <g style="fill: #ee9b00" transform="translate(328.918442 303.550971) scale(0.2 -0.2)">
     <use xlink:href="#DejaVuSans-2e"/>
    </g>
   </g>
   <g id="text_121">
    <!-- . -->
    <g style="fill: #ee9b00" transform="translate(331.237403 303.550971) scale(0.2 -0.2)">
     <use xlink:href="#DejaVuSans-2e"/>
    </g>
   </g>
   <g id="text_122">
    <!-- . -->
    <g style="fill: #ee9b00" transform="translate(333.556364 303.550971) scale(0.2 -0.2)">
     <use xlink:href="#DejaVuSans-2e"/>
    </g>
   </g>
   <g id="text_123">
    <!-- . -->
    <g style="fill: #ee9b00" transform="translate(335.875325 303.550971) scale(0.2 -0.2)">
     <use xlink:href="#DejaVuSans-2e"/>
    </g>
   </g>
   <g id="text_124">
    <!-- . -->
    <g style="fill: #ee9b00" transform="translate(338.194286 303.550971) scale(0.2 -0.2)">
     <use xlink:href="#DejaVuSans-2e"/>
    </g>
   </g>
   <g id="text_125">
    <!-- . -->
    <g style="fill: #ee9b00" transform="translate(340.513247 303.550971) scale(0.2 -0.2)">
     <use xlink:href="#DejaVuSans-2e"/>
    </g>
   </g>
   <g id="text_126">
    <!-- . -->
    <g style="fill: #ee9b00" transform="translate(342.832208 303.550971) scale(0.2 -0.2)">
     <use xlink:href="#DejaVuSans-2e"/>
    </g>
   </g>
   <g id="text_127">
    <!-- . -->
    <g style="fill: #ee9b00" transform="translate(345.151169 303.550971) scale(0.2 -0.2)">
     <use xlink:href="#DejaVuSans-2e"/>
    </g>
   </g>
   <g id="text_128">
    <!-- . -->
    <g style="fill: #ee9b00" transform="translate(347.47013 303.550971) scale(0.2 -0.2)">
     <use xlink:href="#DejaVuSans-2e"/>
    </g>
   </g>
   <g id="text_129">
    <!-- . -->
    <g style="fill: #ee9b00" transform="translate(349.789091 303.550971) scale(0.2 -0.2)">
     <use xlink:href="#DejaVuSans-2e"/>
    </g>
   </g>
   <g id="text_130">
    <!-- . -->
    <g style="fill: #ee9b00" transform="translate(352.108052 303.550971) scale(0.2 -0.2)">
     <use xlink:href="#DejaVuSans-2e"/>
    </g>
   </g>
   <g id="text_131">
    <!-- . -->
    <g style="fill: #ee9b00" transform="translate(354.427013 303.550971) scale(0.2 -0.2)">
     <use xlink:href="#DejaVuSans-2e"/>
    </g>
   </g>
   <g id="text_132">
    <!-- . -->
    <g style="fill: #ee9b00" transform="translate(356.745974 303.550971) scale(0.2 -0.2)">
     <use xlink:href="#DejaVuSans-2e"/>
    </g>
   </g>
   <g id="text_133">
    <!-- . -->
    <g style="fill: #ee9b00" transform="translate(359.064935 303.550971) scale(0.2 -0.2)">
     <use xlink:href="#DejaVuSans-2e"/>
    </g>
   </g>
   <g id="text_134">
    <!-- . -->
    <g style="fill: #ee9b00" transform="translate(361.383896 303.550971) scale(0.2 -0.2)">
     <use xlink:href="#DejaVuSans-2e"/>
    </g>
   </g>
   <g id="text_135">
    <!-- . -->
    <g style="fill: #ee9b00" transform="translate(363.702857 303.550971) scale(0.2 -0.2)">
     <use xlink:href="#DejaVuSans-2e"/>
    </g>
   </g>
   <g id="text_136">
    <!-- . -->
    <g style="fill: #ee9b00" transform="translate(366.021818 303.550971) scale(0.2 -0.2)">
     <use xlink:href="#DejaVuSans-2e"/>
    </g>
   </g>
   <g id="text_137">
    <!-- . -->
    <g style="fill: #ee9b00" transform="translate(368.340779 303.550971) scale(0.2 -0.2)">
     <use xlink:href="#DejaVuSans-2e"/>
    </g>
   </g>
   <g id="text_138">
    <!-- . -->
    <g style="fill: #ee9b00" transform="translate(370.65974 303.550971) scale(0.2 -0.2)">
     <use xlink:href="#DejaVuSans-2e"/>
    </g>
   </g>
   <g id="text_139">
    <!-- . -->
    <g style="fill: #ee9b00" transform="translate(372.978701 303.550971) scale(0.2 -0.2)">
     <use xlink:href="#DejaVuSans-2e"/>
    </g>
   </g>
   <g id="text_140">
    <!-- . -->
    <g style="fill: #ee9b00" transform="translate(375.297662 303.550971) scale(0.2 -0.2)">
     <use xlink:href="#DejaVuSans-2e"/>
    </g>
   </g>
   <g id="text_141">
    <!-- . -->
    <g style="fill: #ee9b00" transform="translate(377.616623 303.550971) scale(0.2 -0.2)">
     <use xlink:href="#DejaVuSans-2e"/>
    </g>
   </g>
   <g id="text_142">
    <!-- . -->
    <g style="fill: #ee9b00" transform="translate(379.935584 303.550971) scale(0.2 -0.2)">
     <use xlink:href="#DejaVuSans-2e"/>
    </g>
   </g>
   <g id="text_143">
    <!-- . -->
    <g style="fill: #ee9b00" transform="translate(382.254545 303.550971) scale(0.2 -0.2)">
     <use xlink:href="#DejaVuSans-2e"/>
    </g>
   </g>
   <g id="text_144">
    <!-- . -->
    <g style="fill: #ee9b00" transform="translate(384.573506 303.550971) scale(0.2 -0.2)">
     <use xlink:href="#DejaVuSans-2e"/>
    </g>
   </g>
   <g id="text_145">
    <!-- . -->
    <g style="fill: #ee9b00" transform="translate(386.892468 303.550971) scale(0.2 -0.2)">
     <use xlink:href="#DejaVuSans-2e"/>
    </g>
   </g>
   <g id="text_146">
    <!-- . -->
    <g style="fill: #ee9b00" transform="translate(389.211429 303.550971) scale(0.2 -0.2)">
     <use xlink:href="#DejaVuSans-2e"/>
    </g>
   </g>
   <g id="text_147">
    <!-- . -->
    <g style="fill: #ee9b00" transform="translate(391.53039 303.550971) scale(0.2 -0.2)">
     <use xlink:href="#DejaVuSans-2e"/>
    </g>
   </g>
   <g id="text_148">
    <!-- . -->
    <g style="fill: #ee9b00" transform="translate(393.849351 303.550971) scale(0.2 -0.2)">
     <use xlink:href="#DejaVuSans-2e"/>
    </g>
   </g>
   <g id="text_149">
    <!-- . -->
    <g style="fill: #ee9b00" transform="translate(396.168312 303.550971) scale(0.2 -0.2)">
     <use xlink:href="#DejaVuSans-2e"/>
    </g>
   </g>
   <g id="text_150">
    <!-- . -->
    <g style="fill: #ee9b00" transform="translate(398.487273 303.550971) scale(0.2 -0.2)">
     <use xlink:href="#DejaVuSans-2e"/>
    </g>
   </g>
   <g id="text_151">
    <!-- * -->
    <g transform="translate(149.996364 53.2992) scale(0.2 -0.2)">
     <defs>
      <path id="DejaVuSans-2a" d="M 3009 3897 
L 1888 3291 
L 3009 2681 
L 2828 2375 
L 1778 3009 
L 1778 1831 
L 1422 1831 
L 1422 3009 
L 372 2375 
L 191 2681 
L 1313 3291 
L 191 3897 
L 372 4206 
L 1422 3572 
L 1422 4750 
L 1778 4750 
L 1778 3572 
L 2828 4206 
L 3009 3897 
z
" transform="scale(0.015625)"/>
     </defs>
     <use xlink:href="#DejaVuSans-2a"/>
    </g>
   </g>
   <g id="legend_1">
    <g id="patch_5">
     <path d="M 285.104375 78.82825 
L 407.72 78.82825 
Q 409.72 78.82825 409.72 76.82825 
L 409.72 48.472 
Q 409.72 46.472 407.72 46.472 
L 285.104375 46.472 
Q 283.104375 46.472 283.104375 48.472 
L 283.104375 76.82825 
Q 283.104375 78.82825 285.104375 78.82825 
z
" style="fill: #ffffff; opacity: 0.8; stroke: #cccccc; stroke-linejoin: miter"/>
    </g>
    <g id="line2d_21">
     <path d="M 287.104375 54.570437 
L 297.104375 54.570437 
L 307.104375 54.570437 
" style="fill: none; stroke: #ff2c55; stroke-width: 2; stroke-linecap: square"/>
    </g>
    <g id="text_152">
     <!-- Affordances (EEG) -->
     <g transform="translate(315.104375 58.070437) scale(0.1 -0.1)">
      <defs>
       <path id="DejaVuSans-41" d="M 2188 4044 
L 1331 1722 
L 3047 1722 
L 2188 4044 
z
M 1831 4666 
L 2547 4666 
L 4325 0 
L 3669 0 
L 3244 1197 
L 1141 1197 
L 716 0 
L 50 0 
L 1831 4666 
z
" transform="scale(0.015625)"/>
       <path id="DejaVuSans-66" d="M 2375 4863 
L 2375 4384 
L 1825 4384 
Q 1516 4384 1395 4259 
Q 1275 4134 1275 3809 
L 1275 3500 
L 2222 3500 
L 2222 3053 
L 1275 3053 
L 1275 0 
L 697 0 
L 697 3053 
L 147 3053 
L 147 3500 
L 697 3500 
L 697 3744 
Q 697 4328 969 4595 
Q 1241 4863 1831 4863 
L 2375 4863 
z
" transform="scale(0.015625)"/>
       <path id="DejaVuSans-64" d="M 2906 2969 
L 2906 4863 
L 3481 4863 
L 3481 0 
L 2906 0 
L 2906 525 
Q 2725 213 2448 61 
Q 2172 -91 1784 -91 
Q 1150 -91 751 415 
Q 353 922 353 1747 
Q 353 2572 751 3078 
Q 1150 3584 1784 3584 
Q 2172 3584 2448 3432 
Q 2725 3281 2906 2969 
z
M 947 1747 
Q 947 1113 1208 752 
Q 1469 391 1925 391 
Q 2381 391 2643 752 
Q 2906 1113 2906 1747 
Q 2906 2381 2643 2742 
Q 2381 3103 1925 3103 
Q 1469 3103 1208 2742 
Q 947 2381 947 1747 
z
" transform="scale(0.015625)"/>
       <path id="DejaVuSans-63" d="M 3122 3366 
L 3122 2828 
Q 2878 2963 2633 3030 
Q 2388 3097 2138 3097 
Q 1578 3097 1268 2742 
Q 959 2388 959 1747 
Q 959 1106 1268 751 
Q 1578 397 2138 397 
Q 2388 397 2633 464 
Q 2878 531 3122 666 
L 3122 134 
Q 2881 22 2623 -34 
Q 2366 -91 2075 -91 
Q 1284 -91 818 406 
Q 353 903 353 1747 
Q 353 2603 823 3093 
Q 1294 3584 2113 3584 
Q 2378 3584 2631 3529 
Q 2884 3475 3122 3366 
z
" transform="scale(0.015625)"/>
       <path id="DejaVuSans-45" d="M 628 4666 
L 3578 4666 
L 3578 4134 
L 1259 4134 
L 1259 2753 
L 3481 2753 
L 3481 2222 
L 1259 2222 
L 1259 531 
L 3634 531 
L 3634 0 
L 628 0 
L 628 4666 
z
" transform="scale(0.015625)"/>
       <path id="DejaVuSans-47" d="M 3809 666 
L 3809 1919 
L 2778 1919 
L 2778 2438 
L 4434 2438 
L 4434 434 
Q 4069 175 3628 42 
Q 3188 -91 2688 -91 
Q 1594 -91 976 548 
Q 359 1188 359 2328 
Q 359 3472 976 4111 
Q 1594 4750 2688 4750 
Q 3144 4750 3555 4637 
Q 3966 4525 4313 4306 
L 4313 3634 
Q 3963 3931 3569 4081 
Q 3175 4231 2741 4231 
Q 1884 4231 1454 3753 
Q 1025 3275 1025 2328 
Q 1025 1384 1454 906 
Q 1884 428 2741 428 
Q 3075 428 3337 486 
Q 3600 544 3809 666 
z
" transform="scale(0.015625)"/>
      </defs>
      <use xlink:href="#DejaVuSans-41"/>
      <use xlink:href="#DejaVuSans-66" x="64.783203"/>
      <use xlink:href="#DejaVuSans-66" x="99.988281"/>
      <use xlink:href="#DejaVuSans-6f" x="135.193359"/>
      <use xlink:href="#DejaVuSans-72" x="196.375"/>
      <use xlink:href="#DejaVuSans-64" x="235.738281"/>
      <use xlink:href="#DejaVuSans-61" x="299.214844"/>
      <use xlink:href="#DejaVuSans-6e" x="360.494141"/>
      <use xlink:href="#DejaVuSans-63" x="423.873047"/>
      <use xlink:href="#DejaVuSans-65" x="478.853516"/>
      <use xlink:href="#DejaVuSans-73" x="540.376953"/>
      <use xlink:href="#DejaVuSans-20" x="592.476562"/>
      <use xlink:href="#DejaVuSans-28" x="624.263672"/>
      <use xlink:href="#DejaVuSans-45" x="663.277344"/>
      <use xlink:href="#DejaVuSans-45" x="726.460938"/>
      <use xlink:href="#DejaVuSans-47" x="789.644531"/>
      <use xlink:href="#DejaVuSans-29" x="867.134766"/>
     </g>
    </g>
    <g id="line2d_22">
     <path d="M 287.104375 69.248562 
L 297.104375 69.248562 
L 307.104375 69.248562 
" style="fill: none; stroke: #ee9b00; stroke-width: 2; stroke-linecap: square"/>
    </g>
    <g id="text_153">
     <!-- GIST -->
     <g transform="translate(315.104375 72.748562) scale(0.1 -0.1)">
      <defs>
       <path id="DejaVuSans-49" d="M 628 4666 
L 1259 4666 
L 1259 0 
L 628 0 
L 628 4666 
z
" transform="scale(0.015625)"/>
      </defs>
      <use xlink:href="#DejaVuSans-47"/>
      <use xlink:href="#DejaVuSans-49" x="77.490234"/>
      <use xlink:href="#DejaVuSans-53" x="106.982422"/>
      <use xlink:href="#DejaVuSans-54" x="170.458984"/>
     </g>
    </g>
   </g>
  </g>
 </g>
 <defs>
  <clipPath id="p7326e954c1">
   <rect x="57.6" y="41.472" width="357.12" height="266.112"/>
  </clipPath>
 </defs>
</svg>
