<?xml version="1.0" encoding="utf-8" standalone="no"?>
<!DOCTYPE svg PUBLIC "-//W3C//DTD SVG 1.1//EN"
  "http://www.w3.org/Graphics/SVG/1.1/DTD/svg11.dtd">
<svg xmlns:xlink="http://www.w3.org/1999/xlink" width="460.8pt" height="345.6pt" viewBox="0 0 460.8 345.6" xmlns="http://www.w3.org/2000/svg" version="1.1">
 <metadata>
  <rdf:RDF xmlns:dc="http://purl.org/dc/elements/1.1/" xmlns:cc="http://creativecommons.org/ns#" xmlns:rdf="http://www.w3.org/1999/02/22-rdf-syntax-ns#">
   <cc:Work>
    <dc:type rdf:resource="http://purl.org/dc/dcmitype/StillImage"/>
    <dc:date>2025-12-03T13:37:36.863726</dc:date>
    <dc:format>image/svg+xml</dc:format>
    <dc:creator>
     <cc:Agent>
      <dc:title>Matplotlib v3.6.2, https://matplotlib.org/</dc:title>
     </cc:Agent>
    </dc:creator>
   </cc:Work>
  </rdf:RDF>
 </metadata>
 <defs>
  <style type="text/css">*{stroke-linejoin: round; stroke-linecap: butt}</style>
 </defs>
 <g id="figure_1">
  <g id="patch_1">
   <path d="M 0 345.6 
L 460.8 345.6 
L 460.8 0 
L 0 0 
L 0 345.6 
z
" style="fill: none"/>
  </g>
  <g id="axes_1">
   <g id="patch_2">
    <path d="M 57.6 307.584 
L 414.72 307.584 
L 414.72 41.472 
L 57.6 41.472 
L 57.6 307.584 
z
" style="fill: none"/>
   </g>
   <g id="PolyCollection_1">
    <defs>
     <path id="m0112475704" d="M 73.832727 -56.558463 
L 73.832727 -52.462893 
L 76.151688 -51.773084 
L 78.470649 -51.897089 
L 80.78961 -57.549552 
L 83.108571 -54.697707 
L 85.427532 -50.112 
L 87.746494 -52.050924 
L 90.065455 -55.018058 
L 92.384416 -54.251797 
L 94.703377 -55.57677 
L 97.022338 -55.521205 
L 99.341299 -52.239914 
L 101.66026 -53.402724 
L 103.979221 -51.865845 
L 106.298182 -50.88531 
L 108.617143 -52.694511 
L 110.936104 -52.664837 
L 113.255065 -52.220294 
L 115.574026 -53.357825 
L 117.892987 -54.201379 
L 120.211948 -56.667306 
L 122.530909 -63.221273 
L 124.84987 -81.333243 
L 127.168831 -110.813 
L 129.487792 -106.013745 
L 131.806753 -94.76927 
L 134.125714 -97.101285 
L 136.444675 -104.355048 
L 138.763636 -109.602891 
L 141.082597 -115.731439 
L 143.401558 -120.332237 
L 145.720519 -116.34806 
L 148.039481 -121.26862 
L 150.358442 -123.442308 
L 152.677403 -116.252008 
L 154.996364 -112.103504 
L 157.315325 -112.087445 
L 159.634286 -116.999525 
L 161.953247 -126.849788 
L 164.272208 -138.376903 
L 166.591169 -148.179435 
L 168.91013 -159.047862 
L 171.229091 -165.19984 
L 173.548052 -162.762906 
L 175.867013 -153.919578 
L 178.185974 -144.209787 
L 180.504935 -140.687336 
L 182.823896 -141.577704 
L 185.142857 -142.533132 
L 187.461818 -140.091633 
L 189.780779 -135.251032 
L 192.09974 -130.919975 
L 194.418701 -126.974994 
L 196.737662 -124.873868 
L 199.056623 -124.176159 
L 201.375584 -125.410573 
L 203.694545 -128.150283 
L 206.013506 -129.751616 
L 208.332468 -130.153937 
L 210.651429 -131.826487 
L 212.97039 -135.11228 
L 215.289351 -139.392928 
L 217.608312 -144.3883 
L 219.927273 -145.748414 
L 222.246234 -144.417979 
L 224.565195 -145.021263 
L 226.884156 -147.129006 
L 229.203117 -153.188522 
L 231.522078 -160.717032 
L 233.841039 -164.206582 
L 236.16 -166.54702 
L 238.478961 -168.577133 
L 240.797922 -168.254238 
L 243.116883 -164.794334 
L 245.435844 -160.556858 
L 247.754805 -155.177046 
L 250.073766 -149.578576 
L 252.392727 -144.27488 
L 254.711688 -138.736374 
L 257.030649 -133.925097 
L 259.34961 -132.18545 
L 261.668571 -133.953932 
L 263.987532 -137.497596 
L 266.306494 -142.430541 
L 268.625455 -149.770618 
L 270.944416 -156.605675 
L 273.263377 -160.018118 
L 275.582338 -157.718268 
L 277.901299 -151.473458 
L 280.22026 -145.847065 
L 282.539221 -142.608302 
L 284.858182 -139.568519 
L 287.177143 -136.411059 
L 289.496104 -135.566976 
L 291.815065 -138.968799 
L 294.134026 -144.073282 
L 296.452987 -148.081523 
L 298.771948 -150.058978 
L 301.090909 -150.49789 
L 303.40987 -148.54758 
L 305.728831 -145.132259 
L 308.047792 -143.815715 
L 310.366753 -147.219322 
L 312.685714 -152.730285 
L 315.004675 -154.575587 
L 317.323636 -150.225275 
L 319.642597 -145.574983 
L 321.961558 -141.720973 
L 324.280519 -137.057179 
L 326.599481 -133.787235 
L 328.918442 -133.506465 
L 331.237403 -133.330378 
L 333.556364 -132.294505 
L 335.875325 -132.64538 
L 338.194286 -134.292584 
L 340.513247 -135.075322 
L 342.832208 -134.921562 
L 345.151169 -133.948655 
L 347.47013 -131.861995 
L 349.789091 -128.261315 
L 352.108052 -123.623732 
L 354.427013 -118.93973 
L 356.745974 -114.083538 
L 359.064935 -109.211055 
L 361.383896 -105.243366 
L 363.702857 -102.647922 
L 366.021818 -101.292018 
L 368.340779 -100.822125 
L 370.65974 -100.491507 
L 372.978701 -100.535199 
L 375.297662 -100.271827 
L 377.616623 -98.6214 
L 379.935584 -96.63825 
L 382.254545 -94.989843 
L 384.573506 -94.047921 
L 386.892468 -93.936697 
L 389.211429 -93.976168 
L 391.53039 -93.170412 
L 393.849351 -92.904474 
L 396.168312 -93.08321 
L 398.487273 -94.229478 
L 398.487273 -134.859303 
L 398.487273 -134.859303 
L 396.168312 -137.368215 
L 393.849351 -141.359087 
L 391.53039 -144.900245 
L 389.211429 -146.74919 
L 386.892468 -143.62515 
L 384.573506 -138.998323 
L 382.254545 -136.452802 
L 379.935584 -137.151969 
L 377.616623 -141.082016 
L 375.297662 -145.391613 
L 372.978701 -147.067323 
L 370.65974 -148.212225 
L 368.340779 -150.106039 
L 366.021818 -153.594329 
L 363.702857 -157.980525 
L 361.383896 -161.842363 
L 359.064935 -166.16654 
L 356.745974 -170.950376 
L 354.427013 -176.493966 
L 352.108052 -183.727371 
L 349.789091 -192.330556 
L 347.47013 -201.289197 
L 345.151169 -209.048897 
L 342.832208 -213.883191 
L 340.513247 -214.722485 
L 338.194286 -211.706896 
L 335.875325 -206.521585 
L 333.556364 -204.778934 
L 331.237403 -204.196329 
L 328.918442 -202.709003 
L 326.599481 -203.250792 
L 324.280519 -207.150224 
L 321.961558 -211.94869 
L 319.642597 -213.923836 
L 317.323636 -218.498457 
L 315.004675 -228.007884 
L 312.685714 -232.81268 
L 310.366753 -232.794362 
L 308.047792 -231.70409 
L 305.728831 -233.824043 
L 303.40987 -237.461144 
L 301.090909 -237.564969 
L 298.771948 -232.559918 
L 296.452987 -226.705812 
L 294.134026 -222.559212 
L 291.815065 -221.44707 
L 289.496104 -223.701183 
L 287.177143 -230.568682 
L 284.858182 -238.974048 
L 282.539221 -245.083085 
L 280.22026 -250.57599 
L 277.901299 -263.158158 
L 275.582338 -280.975475 
L 273.263377 -292.032 
L 270.944416 -287.156017 
L 268.625455 -271.649654 
L 266.306494 -255.045562 
L 263.987532 -241.947688 
L 261.668571 -233.156623 
L 259.34961 -230.366826 
L 257.030649 -234.488124 
L 254.711688 -245.647476 
L 252.392727 -260.248905 
L 250.073766 -272.663223 
L 247.754805 -278.899077 
L 245.435844 -276.190255 
L 243.116883 -269.92768 
L 240.797922 -268.948615 
L 238.478961 -272.633103 
L 236.16 -277.480418 
L 233.841039 -278.810722 
L 231.522078 -272.163048 
L 229.203117 -254.138301 
L 226.884156 -235.397631 
L 224.565195 -223.907406 
L 222.246234 -216.51526 
L 219.927273 -213.602734 
L 217.608312 -210.066014 
L 215.289351 -205.811611 
L 212.97039 -206.438592 
L 210.651429 -208.508585 
L 208.332468 -207.988231 
L 206.013506 -204.870095 
L 203.694545 -198.704409 
L 201.375584 -190.839376 
L 199.056623 -182.943966 
L 196.737662 -176.618519 
L 194.418701 -173.725283 
L 192.09974 -180.520823 
L 189.780779 -192.017012 
L 187.461818 -202.578446 
L 185.142857 -211.73238 
L 182.823896 -213.178147 
L 180.504935 -209.747159 
L 178.185974 -209.387092 
L 175.867013 -217.588102 
L 173.548052 -223.702414 
L 171.229091 -222.465402 
L 168.91013 -213.292859 
L 166.591169 -202.766061 
L 164.272208 -200.984288 
L 161.953247 -202.722802 
L 159.634286 -206.602144 
L 157.315325 -204.129628 
L 154.996364 -191.234969 
L 152.677403 -170.249871 
L 150.358442 -168.468227 
L 148.039481 -180.213081 
L 145.720519 -212.759781 
L 143.401558 -258.129802 
L 141.082597 -246.80646 
L 138.763636 -178.101209 
L 136.444675 -146.443044 
L 134.125714 -138.355135 
L 131.806753 -142.736493 
L 129.487792 -167.898063 
L 127.168831 -175.478513 
L 124.84987 -150.379729 
L 122.530909 -80.084314 
L 120.211948 -63.159319 
L 117.892987 -61.253101 
L 115.574026 -60.7844 
L 113.255065 -59.482255 
L 110.936104 -60.071571 
L 108.617143 -58.005787 
L 106.298182 -55.270838 
L 103.979221 -58.625507 
L 101.66026 -59.991899 
L 99.341299 -56.461592 
L 97.022338 -60.516442 
L 94.703377 -61.553212 
L 92.384416 -59.086621 
L 90.065455 -59.413816 
L 87.746494 -56.747578 
L 85.427532 -54.15933 
L 83.108571 -57.460389 
L 80.78961 -62.950967 
L 78.470649 -54.578366 
L 76.151688 -54.490172 
L 73.832727 -56.558463 
z
" style="stroke: #ff2c55; stroke-opacity: 0.1"/>
    </defs>
    <g clip-path="url(#pd764776b72)">
     <use xlink:href="#m0112475704" x="0" y="345.6" style="fill: #ff2c55; fill-opacity: 0.1; stroke: #ff2c55; stroke-opacity: 0.1"/>
    </g>
   </g>
   <g id="PolyCollection_2">
    <defs>
     <path id="m8a979d2c89" d="M 73.832727 -57.737562 
L 73.832727 -53.620013 
L 76.151688 -54.566124 
L 78.470649 -53.887875 
L 80.78961 -54.975581 
L 83.108571 -55.227655 
L 85.427532 -54.561152 
L 87.746494 -53.265601 
L 90.065455 -55.607747 
L 92.384416 -53.791801 
L 94.703377 -53.644914 
L 97.022338 -55.33783 
L 99.341299 -54.885944 
L 101.66026 -54.023413 
L 103.979221 -53.69826 
L 106.298182 -54.584472 
L 108.617143 -54.67998 
L 110.936104 -56.653348 
L 113.255065 -58.232044 
L 115.574026 -59.053271 
L 117.892987 -58.600786 
L 120.211948 -56.443289 
L 122.530909 -57.627559 
L 124.84987 -64.223949 
L 127.168831 -69.154338 
L 129.487792 -72.88356 
L 131.806753 -73.068529 
L 134.125714 -68.565501 
L 136.444675 -62.199556 
L 138.763636 -62.008792 
L 141.082597 -69.309686 
L 143.401558 -73.517579 
L 145.720519 -71.803595 
L 148.039481 -70.162292 
L 150.358442 -67.40176 
L 152.677403 -71.367795 
L 154.996364 -80.827767 
L 157.315325 -85.770925 
L 159.634286 -86.429541 
L 161.953247 -82.094443 
L 164.272208 -75.955065 
L 166.591169 -70.749089 
L 168.91013 -67.399243 
L 171.229091 -65.099017 
L 173.548052 -63.119821 
L 175.867013 -61.636983 
L 178.185974 -60.039924 
L 180.504935 -58.996804 
L 182.823896 -58.895899 
L 185.142857 -59.285037 
L 187.461818 -59.931635 
L 189.780779 -60.429966 
L 192.09974 -60.652534 
L 194.418701 -60.865872 
L 196.737662 -61.09593 
L 199.056623 -61.458094 
L 201.375584 -62.36184 
L 203.694545 -63.194066 
L 206.013506 -63.485653 
L 208.332468 -64.337416 
L 210.651429 -65.307525 
L 212.97039 -65.702185 
L 215.289351 -65.532845 
L 217.608312 -65.671259 
L 219.927273 -66.860672 
L 222.246234 -68.609536 
L 224.565195 -70.570452 
L 226.884156 -72.153202 
L 229.203117 -73.180322 
L 231.522078 -74.483984 
L 233.841039 -75.947724 
L 236.16 -77.131817 
L 238.478961 -77.997727 
L 240.797922 -78.433605 
L 243.116883 -78.42827 
L 245.435844 -78.526268 
L 247.754805 -77.921921 
L 250.073766 -76.456952 
L 252.392727 -74.925115 
L 254.711688 -74.057918 
L 257.030649 -74.093222 
L 259.34961 -74.829643 
L 261.668571 -76.168174 
L 263.987532 -77.791555 
L 266.306494 -79.266325 
L 268.625455 -80.386304 
L 270.944416 -80.576812 
L 273.263377 -78.791864 
L 275.582338 -75.761178 
L 277.901299 -73.280464 
L 280.22026 -72.865013 
L 282.539221 -74.241829 
L 284.858182 -75.990296 
L 287.177143 -76.683509 
L 289.496104 -76.444225 
L 291.815065 -76.292254 
L 294.134026 -76.54214 
L 296.452987 -76.952331 
L 298.771948 -76.411811 
L 301.090909 -74.910626 
L 303.40987 -72.878778 
L 305.728831 -71.494549 
L 308.047792 -71.567195 
L 310.366753 -73.02426 
L 312.685714 -74.33727 
L 315.004675 -74.615165 
L 317.323636 -73.77045 
L 319.642597 -72.922463 
L 321.961558 -71.559952 
L 324.280519 -69.385922 
L 326.599481 -68.23025 
L 328.918442 -68.834237 
L 331.237403 -69.529948 
L 333.556364 -69.652825 
L 335.875325 -69.773953 
L 338.194286 -70.397286 
L 340.513247 -70.905517 
L 342.832208 -70.491731 
L 345.151169 -69.991028 
L 347.47013 -69.951351 
L 349.789091 -70.005769 
L 352.108052 -69.450002 
L 354.427013 -68.270226 
L 356.745974 -66.47794 
L 359.064935 -64.574337 
L 361.383896 -63.298791 
L 363.702857 -62.953508 
L 366.021818 -63.515677 
L 368.340779 -64.436889 
L 370.65974 -65.18297 
L 372.978701 -65.469743 
L 375.297662 -65.324855 
L 377.616623 -64.700034 
L 379.935584 -63.915763 
L 382.254545 -63.138343 
L 384.573506 -62.486043 
L 386.892468 -62.036158 
L 389.211429 -61.590273 
L 391.53039 -61.038815 
L 393.849351 -60.84733 
L 396.168312 -60.761365 
L 398.487273 -60.918071 
L 398.487273 -77.029344 
L 398.487273 -77.029344 
L 396.168312 -76.672003 
L 393.849351 -76.07205 
L 391.53039 -74.9016 
L 389.211429 -74.173688 
L 386.892468 -73.488383 
L 384.573506 -73.422164 
L 382.254545 -74.506536 
L 379.935584 -76.249025 
L 377.616623 -77.898599 
L 375.297662 -78.954688 
L 372.978701 -79.194189 
L 370.65974 -78.948317 
L 368.340779 -78.028959 
L 366.021818 -76.574246 
L 363.702857 -75.540801 
L 361.383896 -75.674135 
L 359.064935 -77.209303 
L 356.745974 -79.990773 
L 354.427013 -83.403352 
L 352.108052 -85.570154 
L 349.789091 -85.749371 
L 347.47013 -84.910555 
L 345.151169 -85.027202 
L 342.832208 -86.179473 
L 340.513247 -87.084694 
L 338.194286 -86.393633 
L 335.875325 -85.979437 
L 333.556364 -86.621553 
L 331.237403 -87.54524 
L 328.918442 -88.008989 
L 326.599481 -88.426304 
L 324.280519 -90.156358 
L 321.961558 -93.09603 
L 319.642597 -94.84482 
L 317.323636 -95.584623 
L 315.004675 -96.743596 
L 312.685714 -96.749555 
L 310.366753 -95.187122 
L 308.047792 -93.103295 
L 305.728831 -93.377986 
L 303.40987 -96.207573 
L 301.090909 -99.750945 
L 298.771948 -102.519628 
L 296.452987 -103.994614 
L 294.134026 -103.879592 
L 291.815065 -103.37019 
L 289.496104 -102.293834 
L 287.177143 -101.045131 
L 284.858182 -98.677586 
L 282.539221 -95.455856 
L 280.22026 -93.66702 
L 277.901299 -95.367676 
L 275.582338 -99.541827 
L 273.263377 -103.847347 
L 270.944416 -106.43641 
L 268.625455 -106.626199 
L 266.306494 -105.7927 
L 263.987532 -104.817118 
L 261.668571 -103.027615 
L 259.34961 -101.435584 
L 257.030649 -100.940753 
L 254.711688 -101.514598 
L 252.392727 -104.148358 
L 250.073766 -107.615956 
L 247.754805 -110.716138 
L 245.435844 -111.913534 
L 243.116883 -110.936128 
L 240.797922 -109.527324 
L 238.478961 -107.765702 
L 236.16 -105.334374 
L 233.841039 -102.39818 
L 231.522078 -98.515847 
L 229.203117 -93.472983 
L 226.884156 -88.737205 
L 224.565195 -84.187866 
L 222.246234 -79.86402 
L 219.927273 -76.629835 
L 217.608312 -75.610677 
L 215.289351 -77.151237 
L 212.97039 -80.674499 
L 210.651429 -84.100095 
L 208.332468 -85.705343 
L 206.013506 -85.082469 
L 203.694545 -83.16904 
L 201.375584 -79.574254 
L 199.056623 -76.060657 
L 196.737662 -73.959905 
L 194.418701 -72.805177 
L 192.09974 -71.902093 
L 189.780779 -70.851715 
L 187.461818 -69.727711 
L 185.142857 -68.874252 
L 182.823896 -67.727425 
L 180.504935 -66.70882 
L 178.185974 -66.772969 
L 175.867013 -69.309462 
L 173.548052 -72.825352 
L 171.229091 -76.768368 
L 168.91013 -82.348979 
L 166.591169 -90.079577 
L 164.272208 -97.923441 
L 161.953247 -107.945341 
L 159.634286 -119.150013 
L 157.315325 -120.767518 
L 154.996364 -108.59031 
L 152.677403 -87.392906 
L 150.358442 -78.868768 
L 148.039481 -80.81773 
L 145.720519 -86.5914 
L 143.401558 -91.076595 
L 141.082597 -85.290711 
L 138.763636 -73.091533 
L 136.444675 -70.25645 
L 134.125714 -81.762972 
L 131.806753 -91.071732 
L 129.487792 -90.525116 
L 127.168831 -88.760993 
L 124.84987 -80.21583 
L 122.530909 -63.240505 
L 120.211948 -60.92773 
L 117.892987 -65.906353 
L 115.574026 -66.205333 
L 113.255065 -65.473944 
L 110.936104 -62.77132 
L 108.617143 -58.490463 
L 106.298182 -57.816282 
L 103.979221 -55.857484 
L 101.66026 -56.327906 
L 99.341299 -58.399042 
L 97.022338 -57.892684 
L 94.703377 -55.584426 
L 92.384416 -55.994465 
L 90.065455 -58.21436 
L 87.746494 -55.512858 
L 85.427532 -58.231572 
L 83.108571 -57.846542 
L 80.78961 -56.709545 
L 78.470649 -56.946668 
L 76.151688 -57.729282 
L 73.832727 -57.737562 
z
" style="stroke: #0974f1; stroke-opacity: 0.1"/>
    </defs>
    <g clip-path="url(#pd764776b72)">
     <use xlink:href="#m8a979d2c89" x="0" y="345.6" style="fill: #0974f1; fill-opacity: 0.1; stroke: #0974f1; stroke-opacity: 0.1"/>
    </g>
   </g>
   <g id="matplotlib.axis_1">
    <g id="xtick_1">
     <g id="line2d_1">
      <defs>
       <path id="m05f78de1e6" d="M 0 0 
L 0 3.5 
" style="stroke: #000000; stroke-width: 0.8"/>
      </defs>
      <g>
       <use xlink:href="#m05f78de1e6" x="103.346777" y="307.584" style="stroke: #000000; stroke-width: 0.8"/>
      </g>
     </g>
     <g id="text_1">
      <!-- 0.0 -->
      <g transform="translate(95.395214 322.182437) scale(0.1 -0.1)">
       <defs>
        <path id="DejaVuSans-30" d="M 2034 4250 
Q 1547 4250 1301 3770 
Q 1056 3291 1056 2328 
Q 1056 1369 1301 889 
Q 1547 409 2034 409 
Q 2525 409 2770 889 
Q 3016 1369 3016 2328 
Q 3016 3291 2770 3770 
Q 2525 4250 2034 4250 
z
M 2034 4750 
Q 2819 4750 3233 4129 
Q 3647 3509 3647 2328 
Q 3647 1150 3233 529 
Q 2819 -91 2034 -91 
Q 1250 -91 836 529 
Q 422 1150 422 2328 
Q 422 3509 836 4129 
Q 1250 4750 2034 4750 
z
" transform="scale(0.015625)"/>
        <path id="DejaVuSans-2e" d="M 684 794 
L 1344 794 
L 1344 0 
L 684 0 
L 684 794 
z
" transform="scale(0.015625)"/>
       </defs>
       <use xlink:href="#DejaVuSans-30"/>
       <use xlink:href="#DejaVuSans-2e" x="63.623047"/>
       <use xlink:href="#DejaVuSans-30" x="95.410156"/>
      </g>
     </g>
    </g>
    <g id="xtick_2">
     <g id="line2d_2">
      <g>
       <use xlink:href="#m05f78de1e6" x="162.374876" y="307.584" style="stroke: #000000; stroke-width: 0.8"/>
      </g>
     </g>
     <g id="text_2">
      <!-- 0.2 -->
      <g transform="translate(154.423314 322.182437) scale(0.1 -0.1)">
       <defs>
        <path id="DejaVuSans-32" d="M 1228 531 
L 3431 531 
L 3431 0 
L 469 0 
L 469 531 
Q 828 903 1448 1529 
Q 2069 2156 2228 2338 
Q 2531 2678 2651 2914 
Q 2772 3150 2772 3378 
Q 2772 3750 2511 3984 
Q 2250 4219 1831 4219 
Q 1534 4219 1204 4116 
Q 875 4013 500 3803 
L 500 4441 
Q 881 4594 1212 4672 
Q 1544 4750 1819 4750 
Q 2544 4750 2975 4387 
Q 3406 4025 3406 3419 
Q 3406 3131 3298 2873 
Q 3191 2616 2906 2266 
Q 2828 2175 2409 1742 
Q 1991 1309 1228 531 
z
" transform="scale(0.015625)"/>
       </defs>
       <use xlink:href="#DejaVuSans-30"/>
       <use xlink:href="#DejaVuSans-2e" x="63.623047"/>
       <use xlink:href="#DejaVuSans-32" x="95.410156"/>
      </g>
     </g>
    </g>
    <g id="xtick_3">
     <g id="line2d_3">
      <g>
       <use xlink:href="#m05f78de1e6" x="221.402975" y="307.584" style="stroke: #000000; stroke-width: 0.8"/>
      </g>
     </g>
     <g id="text_3">
      <!-- 0.4 -->
      <g transform="translate(213.451413 322.182437) scale(0.1 -0.1)">
       <defs>
        <path id="DejaVuSans-34" d="M 2419 4116 
L 825 1625 
L 2419 1625 
L 2419 4116 
z
M 2253 4666 
L 3047 4666 
L 3047 1625 
L 3713 1625 
L 3713 1100 
L 3047 1100 
L 3047 0 
L 2419 0 
L 2419 1100 
L 313 1100 
L 313 1709 
L 2253 4666 
z
" transform="scale(0.015625)"/>
       </defs>
       <use xlink:href="#DejaVuSans-30"/>
       <use xlink:href="#DejaVuSans-2e" x="63.623047"/>
       <use xlink:href="#DejaVuSans-34" x="95.410156"/>
      </g>
     </g>
    </g>
    <g id="xtick_4">
     <g id="line2d_4">
      <g>
       <use xlink:href="#m05f78de1e6" x="280.431074" y="307.584" style="stroke: #000000; stroke-width: 0.8"/>
      </g>
     </g>
     <g id="text_4">
      <!-- 0.6 -->
      <g transform="translate(272.479512 322.182437) scale(0.1 -0.1)">
       <defs>
        <path id="DejaVuSans-36" d="M 2113 2584 
Q 1688 2584 1439 2293 
Q 1191 2003 1191 1497 
Q 1191 994 1439 701 
Q 1688 409 2113 409 
Q 2538 409 2786 701 
Q 3034 994 3034 1497 
Q 3034 2003 2786 2293 
Q 2538 2584 2113 2584 
z
M 3366 4563 
L 3366 3988 
Q 3128 4100 2886 4159 
Q 2644 4219 2406 4219 
Q 1781 4219 1451 3797 
Q 1122 3375 1075 2522 
Q 1259 2794 1537 2939 
Q 1816 3084 2150 3084 
Q 2853 3084 3261 2657 
Q 3669 2231 3669 1497 
Q 3669 778 3244 343 
Q 2819 -91 2113 -91 
Q 1303 -91 875 529 
Q 447 1150 447 2328 
Q 447 3434 972 4092 
Q 1497 4750 2381 4750 
Q 2619 4750 2861 4703 
Q 3103 4656 3366 4563 
z
" transform="scale(0.015625)"/>
       </defs>
       <use xlink:href="#DejaVuSans-30"/>
       <use xlink:href="#DejaVuSans-2e" x="63.623047"/>
       <use xlink:href="#DejaVuSans-36" x="95.410156"/>
      </g>
     </g>
    </g>
    <g id="xtick_5">
     <g id="line2d_5">
      <g>
       <use xlink:href="#m05f78de1e6" x="339.459174" y="307.584" style="stroke: #000000; stroke-width: 0.8"/>
      </g>
     </g>
     <g id="text_5">
      <!-- 0.8 -->
      <g transform="translate(331.507611 322.182437) scale(0.1 -0.1)">
       <defs>
        <path id="DejaVuSans-38" d="M 2034 2216 
Q 1584 2216 1326 1975 
Q 1069 1734 1069 1313 
Q 1069 891 1326 650 
Q 1584 409 2034 409 
Q 2484 409 2743 651 
Q 3003 894 3003 1313 
Q 3003 1734 2745 1975 
Q 2488 2216 2034 2216 
z
M 1403 2484 
Q 997 2584 770 2862 
Q 544 3141 544 3541 
Q 544 4100 942 4425 
Q 1341 4750 2034 4750 
Q 2731 4750 3128 4425 
Q 3525 4100 3525 3541 
Q 3525 3141 3298 2862 
Q 3072 2584 2669 2484 
Q 3125 2378 3379 2068 
Q 3634 1759 3634 1313 
Q 3634 634 3220 271 
Q 2806 -91 2034 -91 
Q 1263 -91 848 271 
Q 434 634 434 1313 
Q 434 1759 690 2068 
Q 947 2378 1403 2484 
z
M 1172 3481 
Q 1172 3119 1398 2916 
Q 1625 2713 2034 2713 
Q 2441 2713 2670 2916 
Q 2900 3119 2900 3481 
Q 2900 3844 2670 4047 
Q 2441 4250 2034 4250 
Q 1625 4250 1398 4047 
Q 1172 3844 1172 3481 
z
" transform="scale(0.015625)"/>
       </defs>
       <use xlink:href="#DejaVuSans-30"/>
       <use xlink:href="#DejaVuSans-2e" x="63.623047"/>
       <use xlink:href="#DejaVuSans-38" x="95.410156"/>
      </g>
     </g>
    </g>
    <g id="xtick_6">
     <g id="line2d_6">
      <g>
       <use xlink:href="#m05f78de1e6" x="398.487273" y="307.584" style="stroke: #000000; stroke-width: 0.8"/>
      </g>
     </g>
     <g id="text_6">
      <!-- 1.0 -->
      <g transform="translate(390.53571 322.182437) scale(0.1 -0.1)">
       <defs>
        <path id="DejaVuSans-31" d="M 794 531 
L 1825 531 
L 1825 4091 
L 703 3866 
L 703 4441 
L 1819 4666 
L 2450 4666 
L 2450 531 
L 3481 531 
L 3481 0 
L 794 0 
L 794 531 
z
" transform="scale(0.015625)"/>
       </defs>
       <use xlink:href="#DejaVuSans-31"/>
       <use xlink:href="#DejaVuSans-2e" x="63.623047"/>
       <use xlink:href="#DejaVuSans-30" x="95.410156"/>
      </g>
     </g>
    </g>
    <g id="text_7">
     <!-- Time (s) -->
     <g transform="translate(215.831094 335.860562) scale(0.1 -0.1)">
      <defs>
       <path id="DejaVuSans-54" d="M -19 4666 
L 3928 4666 
L 3928 4134 
L 2272 4134 
L 2272 0 
L 1638 0 
L 1638 4134 
L -19 4134 
L -19 4666 
z
" transform="scale(0.015625)"/>
       <path id="DejaVuSans-69" d="M 603 3500 
L 1178 3500 
L 1178 0 
L 603 0 
L 603 3500 
z
M 603 4863 
L 1178 4863 
L 1178 4134 
L 603 4134 
L 603 4863 
z
" transform="scale(0.015625)"/>
       <path id="DejaVuSans-6d" d="M 3328 2828 
Q 3544 3216 3844 3400 
Q 4144 3584 4550 3584 
Q 5097 3584 5394 3201 
Q 5691 2819 5691 2113 
L 5691 0 
L 5113 0 
L 5113 2094 
Q 5113 2597 4934 2840 
Q 4756 3084 4391 3084 
Q 3944 3084 3684 2787 
Q 3425 2491 3425 1978 
L 3425 0 
L 2847 0 
L 2847 2094 
Q 2847 2600 2669 2842 
Q 2491 3084 2119 3084 
Q 1678 3084 1418 2786 
Q 1159 2488 1159 1978 
L 1159 0 
L 581 0 
L 581 3500 
L 1159 3500 
L 1159 2956 
Q 1356 3278 1631 3431 
Q 1906 3584 2284 3584 
Q 2666 3584 2933 3390 
Q 3200 3197 3328 2828 
z
" transform="scale(0.015625)"/>
       <path id="DejaVuSans-65" d="M 3597 1894 
L 3597 1613 
L 953 1613 
Q 991 1019 1311 708 
Q 1631 397 2203 397 
Q 2534 397 2845 478 
Q 3156 559 3463 722 
L 3463 178 
Q 3153 47 2828 -22 
Q 2503 -91 2169 -91 
Q 1331 -91 842 396 
Q 353 884 353 1716 
Q 353 2575 817 3079 
Q 1281 3584 2069 3584 
Q 2775 3584 3186 3129 
Q 3597 2675 3597 1894 
z
M 3022 2063 
Q 3016 2534 2758 2815 
Q 2500 3097 2075 3097 
Q 1594 3097 1305 2825 
Q 1016 2553 972 2059 
L 3022 2063 
z
" transform="scale(0.015625)"/>
       <path id="DejaVuSans-20" transform="scale(0.015625)"/>
       <path id="DejaVuSans-28" d="M 1984 4856 
Q 1566 4138 1362 3434 
Q 1159 2731 1159 2009 
Q 1159 1288 1364 580 
Q 1569 -128 1984 -844 
L 1484 -844 
Q 1016 -109 783 600 
Q 550 1309 550 2009 
Q 550 2706 781 3412 
Q 1013 4119 1484 4856 
L 1984 4856 
z
" transform="scale(0.015625)"/>
       <path id="DejaVuSans-73" d="M 2834 3397 
L 2834 2853 
Q 2591 2978 2328 3040 
Q 2066 3103 1784 3103 
Q 1356 3103 1142 2972 
Q 928 2841 928 2578 
Q 928 2378 1081 2264 
Q 1234 2150 1697 2047 
L 1894 2003 
Q 2506 1872 2764 1633 
Q 3022 1394 3022 966 
Q 3022 478 2636 193 
Q 2250 -91 1575 -91 
Q 1294 -91 989 -36 
Q 684 19 347 128 
L 347 722 
Q 666 556 975 473 
Q 1284 391 1588 391 
Q 1994 391 2212 530 
Q 2431 669 2431 922 
Q 2431 1156 2273 1281 
Q 2116 1406 1581 1522 
L 1381 1569 
Q 847 1681 609 1914 
Q 372 2147 372 2553 
Q 372 3047 722 3315 
Q 1072 3584 1716 3584 
Q 2034 3584 2315 3537 
Q 2597 3491 2834 3397 
z
" transform="scale(0.015625)"/>
       <path id="DejaVuSans-29" d="M 513 4856 
L 1013 4856 
Q 1481 4119 1714 3412 
Q 1947 2706 1947 2009 
Q 1947 1309 1714 600 
Q 1481 -109 1013 -844 
L 513 -844 
Q 928 -128 1133 580 
Q 1338 1288 1338 2009 
Q 1338 2731 1133 3434 
Q 928 4138 513 4856 
z
" transform="scale(0.015625)"/>
      </defs>
      <use xlink:href="#DejaVuSans-54"/>
      <use xlink:href="#DejaVuSans-69" x="57.958984"/>
      <use xlink:href="#DejaVuSans-6d" x="85.742188"/>
      <use xlink:href="#DejaVuSans-65" x="183.154297"/>
      <use xlink:href="#DejaVuSans-20" x="244.677734"/>
      <use xlink:href="#DejaVuSans-28" x="276.464844"/>
      <use xlink:href="#DejaVuSans-73" x="315.478516"/>
      <use xlink:href="#DejaVuSans-29" x="367.578125"/>
     </g>
    </g>
   </g>
   <g id="matplotlib.axis_2">
    <g id="ytick_1">
     <g id="line2d_7">
      <defs>
       <path id="m09a6b88655" d="M 0 0 
L -3.5 0 
" style="stroke: #000000; stroke-width: 0.8"/>
      </defs>
      <g>
       <use xlink:href="#m09a6b88655" x="57.6" y="289.810671" style="stroke: #000000; stroke-width: 0.8"/>
      </g>
     </g>
     <g id="text_8">
      <!-- 0.000 -->
      <g transform="translate(21.971875 293.609889) scale(0.1 -0.1)">
       <use xlink:href="#DejaVuSans-30"/>
       <use xlink:href="#DejaVuSans-2e" x="63.623047"/>
       <use xlink:href="#DejaVuSans-30" x="95.410156"/>
       <use xlink:href="#DejaVuSans-30" x="159.033203"/>
       <use xlink:href="#DejaVuSans-30" x="222.65625"/>
      </g>
     </g>
    </g>
    <g id="ytick_2">
     <g id="line2d_8">
      <g>
       <use xlink:href="#m09a6b88655" x="57.6" y="243.845846" style="stroke: #000000; stroke-width: 0.8"/>
      </g>
     </g>
     <g id="text_9">
      <!-- 0.002 -->
      <g transform="translate(21.971875 247.645065) scale(0.1 -0.1)">
       <use xlink:href="#DejaVuSans-30"/>
       <use xlink:href="#DejaVuSans-2e" x="63.623047"/>
       <use xlink:href="#DejaVuSans-30" x="95.410156"/>
       <use xlink:href="#DejaVuSans-30" x="159.033203"/>
       <use xlink:href="#DejaVuSans-32" x="222.65625"/>
      </g>
     </g>
    </g>
    <g id="ytick_3">
     <g id="line2d_9">
      <g>
       <use xlink:href="#m09a6b88655" x="57.6" y="197.881021" style="stroke: #000000; stroke-width: 0.8"/>
      </g>
     </g>
     <g id="text_10">
      <!-- 0.004 -->
      <g transform="translate(21.971875 201.68024) scale(0.1 -0.1)">
       <use xlink:href="#DejaVuSans-30"/>
       <use xlink:href="#DejaVuSans-2e" x="63.623047"/>
       <use xlink:href="#DejaVuSans-30" x="95.410156"/>
       <use xlink:href="#DejaVuSans-30" x="159.033203"/>
       <use xlink:href="#DejaVuSans-34" x="222.65625"/>
      </g>
     </g>
    </g>
    <g id="ytick_4">
     <g id="line2d_10">
      <g>
       <use xlink:href="#m09a6b88655" x="57.6" y="151.916197" style="stroke: #000000; stroke-width: 0.8"/>
      </g>
     </g>
     <g id="text_11">
      <!-- 0.006 -->
      <g transform="translate(21.971875 155.715416) scale(0.1 -0.1)">
       <use xlink:href="#DejaVuSans-30"/>
       <use xlink:href="#DejaVuSans-2e" x="63.623047"/>
       <use xlink:href="#DejaVuSans-30" x="95.410156"/>
       <use xlink:href="#DejaVuSans-30" x="159.033203"/>
       <use xlink:href="#DejaVuSans-36" x="222.65625"/>
      </g>
     </g>
    </g>
    <g id="ytick_5">
     <g id="line2d_11">
      <g>
       <use xlink:href="#m09a6b88655" x="57.6" y="105.951372" style="stroke: #000000; stroke-width: 0.8"/>
      </g>
     </g>
     <g id="text_12">
      <!-- 0.008 -->
      <g transform="translate(21.971875 109.750591) scale(0.1 -0.1)">
       <use xlink:href="#DejaVuSans-30"/>
       <use xlink:href="#DejaVuSans-2e" x="63.623047"/>
       <use xlink:href="#DejaVuSans-30" x="95.410156"/>
       <use xlink:href="#DejaVuSans-30" x="159.033203"/>
       <use xlink:href="#DejaVuSans-38" x="222.65625"/>
      </g>
     </g>
    </g>
    <g id="ytick_6">
     <g id="line2d_12">
      <g>
       <use xlink:href="#m09a6b88655" x="57.6" y="59.986548" style="stroke: #000000; stroke-width: 0.8"/>
      </g>
     </g>
     <g id="text_13">
      <!-- 0.010 -->
      <g transform="translate(21.971875 63.785766) scale(0.1 -0.1)">
       <use xlink:href="#DejaVuSans-30"/>
       <use xlink:href="#DejaVuSans-2e" x="63.623047"/>
       <use xlink:href="#DejaVuSans-30" x="95.410156"/>
       <use xlink:href="#DejaVuSans-31" x="159.033203"/>
       <use xlink:href="#DejaVuSans-30" x="222.65625"/>
      </g>
     </g>
    </g>
    <g id="text_14">
     <!-- Unique Variance -->
     <g transform="translate(15.892187 215.353781) rotate(-90) scale(0.1 -0.1)">
      <defs>
       <path id="DejaVuSans-55" d="M 556 4666 
L 1191 4666 
L 1191 1831 
Q 1191 1081 1462 751 
Q 1734 422 2344 422 
Q 2950 422 3222 751 
Q 3494 1081 3494 1831 
L 3494 4666 
L 4128 4666 
L 4128 1753 
Q 4128 841 3676 375 
Q 3225 -91 2344 -91 
Q 1459 -91 1007 375 
Q 556 841 556 1753 
L 556 4666 
z
" transform="scale(0.015625)"/>
       <path id="DejaVuSans-6e" d="M 3513 2113 
L 3513 0 
L 2938 0 
L 2938 2094 
Q 2938 2591 2744 2837 
Q 2550 3084 2163 3084 
Q 1697 3084 1428 2787 
Q 1159 2491 1159 1978 
L 1159 0 
L 581 0 
L 581 3500 
L 1159 3500 
L 1159 2956 
Q 1366 3272 1645 3428 
Q 1925 3584 2291 3584 
Q 2894 3584 3203 3211 
Q 3513 2838 3513 2113 
z
" transform="scale(0.015625)"/>
       <path id="DejaVuSans-71" d="M 947 1747 
Q 947 1113 1208 752 
Q 1469 391 1925 391 
Q 2381 391 2643 752 
Q 2906 1113 2906 1747 
Q 2906 2381 2643 2742 
Q 2381 3103 1925 3103 
Q 1469 3103 1208 2742 
Q 947 2381 947 1747 
z
M 2906 525 
Q 2725 213 2448 61 
Q 2172 -91 1784 -91 
Q 1150 -91 751 415 
Q 353 922 353 1747 
Q 353 2572 751 3078 
Q 1150 3584 1784 3584 
Q 2172 3584 2448 3432 
Q 2725 3281 2906 2969 
L 2906 3500 
L 3481 3500 
L 3481 -1331 
L 2906 -1331 
L 2906 525 
z
" transform="scale(0.015625)"/>
       <path id="DejaVuSans-75" d="M 544 1381 
L 544 3500 
L 1119 3500 
L 1119 1403 
Q 1119 906 1312 657 
Q 1506 409 1894 409 
Q 2359 409 2629 706 
Q 2900 1003 2900 1516 
L 2900 3500 
L 3475 3500 
L 3475 0 
L 2900 0 
L 2900 538 
Q 2691 219 2414 64 
Q 2138 -91 1772 -91 
Q 1169 -91 856 284 
Q 544 659 544 1381 
z
M 1991 3584 
L 1991 3584 
z
" transform="scale(0.015625)"/>
       <path id="DejaVuSans-56" d="M 1831 0 
L 50 4666 
L 709 4666 
L 2188 738 
L 3669 4666 
L 4325 4666 
L 2547 0 
L 1831 0 
z
" transform="scale(0.015625)"/>
       <path id="DejaVuSans-61" d="M 2194 1759 
Q 1497 1759 1228 1600 
Q 959 1441 959 1056 
Q 959 750 1161 570 
Q 1363 391 1709 391 
Q 2188 391 2477 730 
Q 2766 1069 2766 1631 
L 2766 1759 
L 2194 1759 
z
M 3341 1997 
L 3341 0 
L 2766 0 
L 2766 531 
Q 2569 213 2275 61 
Q 1981 -91 1556 -91 
Q 1019 -91 701 211 
Q 384 513 384 1019 
Q 384 1609 779 1909 
Q 1175 2209 1959 2209 
L 2766 2209 
L 2766 2266 
Q 2766 2663 2505 2880 
Q 2244 3097 1772 3097 
Q 1472 3097 1187 3025 
Q 903 2953 641 2809 
L 641 3341 
Q 956 3463 1253 3523 
Q 1550 3584 1831 3584 
Q 2591 3584 2966 3190 
Q 3341 2797 3341 1997 
z
" transform="scale(0.015625)"/>
       <path id="DejaVuSans-72" d="M 2631 2963 
Q 2534 3019 2420 3045 
Q 2306 3072 2169 3072 
Q 1681 3072 1420 2755 
Q 1159 2438 1159 1844 
L 1159 0 
L 581 0 
L 581 3500 
L 1159 3500 
L 1159 2956 
Q 1341 3275 1631 3429 
Q 1922 3584 2338 3584 
Q 2397 3584 2469 3576 
Q 2541 3569 2628 3553 
L 2631 2963 
z
" transform="scale(0.015625)"/>
       <path id="DejaVuSans-63" d="M 3122 3366 
L 3122 2828 
Q 2878 2963 2633 3030 
Q 2388 3097 2138 3097 
Q 1578 3097 1268 2742 
Q 959 2388 959 1747 
Q 959 1106 1268 751 
Q 1578 397 2138 397 
Q 2388 397 2633 464 
Q 2878 531 3122 666 
L 3122 134 
Q 2881 22 2623 -34 
Q 2366 -91 2075 -91 
Q 1284 -91 818 406 
Q 353 903 353 1747 
Q 353 2603 823 3093 
Q 1294 3584 2113 3584 
Q 2378 3584 2631 3529 
Q 2884 3475 3122 3366 
z
" transform="scale(0.015625)"/>
      </defs>
      <use xlink:href="#DejaVuSans-55"/>
      <use xlink:href="#DejaVuSans-6e" x="73.193359"/>
      <use xlink:href="#DejaVuSans-69" x="136.572266"/>
      <use xlink:href="#DejaVuSans-71" x="164.355469"/>
      <use xlink:href="#DejaVuSans-75" x="227.832031"/>
      <use xlink:href="#DejaVuSans-65" x="291.210938"/>
      <use xlink:href="#DejaVuSans-20" x="352.734375"/>
      <use xlink:href="#DejaVuSans-56" x="384.521484"/>
      <use xlink:href="#DejaVuSans-61" x="445.179688"/>
      <use xlink:href="#DejaVuSans-72" x="506.458984"/>
      <use xlink:href="#DejaVuSans-69" x="547.572266"/>
      <use xlink:href="#DejaVuSans-61" x="575.355469"/>
      <use xlink:href="#DejaVuSans-6e" x="636.634766"/>
      <use xlink:href="#DejaVuSans-63" x="700.013672"/>
      <use xlink:href="#DejaVuSans-65" x="754.994141"/>
     </g>
    </g>
   </g>
   <g id="line2d_13">
    <path d="M 103.346777 307.584 
L 103.346777 41.472 
" clip-path="url(#pd764776b72)" style="fill: none; stroke-dasharray: 5.55,2.4; stroke-dashoffset: 0; stroke: #d3d3d3; stroke-width: 1.5"/>
   </g>
   <g id="line2d_14">
    <path d="M 57.6 289.810671 
L 414.72 289.810671 
" clip-path="url(#pd764776b72)" style="fill: none; stroke-dasharray: 5.55,2.4; stroke-dashoffset: 0; stroke: #d3d3d3; stroke-width: 1.5"/>
   </g>
   <g id="line2d_15">
    <path d="M 73.832727 291.089322 
L 76.151688 292.468372 
L 78.470649 292.362272 
L 80.78961 285.34974 
L 85.427532 293.464335 
L 87.746494 291.200749 
L 90.065455 288.384063 
L 92.384416 288.930791 
L 94.703377 287.035009 
L 97.022338 287.581176 
L 99.341299 291.249247 
L 101.66026 288.902689 
L 103.979221 290.354324 
L 106.298182 292.521926 
L 108.617143 290.249851 
L 110.936104 289.231796 
L 113.255065 289.748726 
L 115.574026 288.528888 
L 117.892987 287.87276 
L 120.211948 285.686688 
L 122.530909 273.947206 
L 124.84987 229.743514 
L 127.168831 202.454244 
L 129.487792 208.644096 
L 131.806753 226.847118 
L 134.125714 227.87179 
L 136.444675 220.200954 
L 138.763636 201.74795 
L 141.082597 164.331051 
L 143.401558 156.36898 
L 145.720519 181.04608 
L 148.039481 194.85915 
L 150.358442 199.644733 
L 152.677403 202.34906 
L 154.996364 193.930764 
L 157.315325 187.491464 
L 159.634286 183.799166 
L 161.953247 180.813705 
L 164.272208 175.919405 
L 166.591169 170.127252 
L 168.91013 159.42964 
L 171.229091 151.767379 
L 173.548052 152.36734 
L 175.867013 159.84616 
L 178.185974 168.80156 
L 180.504935 170.382753 
L 182.823896 168.222075 
L 185.142857 168.467244 
L 187.461818 174.26496 
L 192.09974 189.879601 
L 194.418701 195.249861 
L 196.737662 194.853806 
L 199.056623 192.039937 
L 201.375584 187.475025 
L 203.694545 182.172654 
L 206.013506 178.289145 
L 208.332468 176.528916 
L 210.651429 175.432464 
L 212.97039 174.824564 
L 215.289351 172.997731 
L 217.608312 168.372843 
L 219.927273 165.924426 
L 222.246234 165.133381 
L 224.565195 161.135665 
L 226.884156 154.336681 
L 231.522078 129.15996 
L 233.841039 124.091348 
L 236.16 123.586281 
L 238.478961 124.994882 
L 240.797922 126.998573 
L 243.116883 128.238993 
L 245.435844 127.226444 
L 247.754805 128.561939 
L 250.073766 134.4791 
L 252.392727 143.338107 
L 254.711688 153.408075 
L 257.030649 161.39339 
L 259.34961 164.323862 
L 261.668571 162.044722 
L 263.987532 155.877358 
L 266.306494 146.861949 
L 268.625455 134.889864 
L 270.944416 123.719154 
L 273.263377 119.574941 
L 275.582338 126.253128 
L 277.901299 138.284192 
L 280.22026 147.388472 
L 284.858182 156.328717 
L 287.177143 162.11013 
L 289.496104 165.965921 
L 291.815065 165.392065 
L 294.134026 162.283753 
L 298.771948 154.290552 
L 301.090909 151.56857 
L 303.40987 152.595638 
L 305.728831 156.121849 
L 308.047792 157.840098 
L 310.366753 155.593158 
L 312.685714 152.828518 
L 315.004675 154.308264 
L 317.323636 161.238134 
L 319.642597 165.850591 
L 321.961558 168.765168 
L 324.280519 173.496299 
L 326.599481 177.080986 
L 328.918442 177.492266 
L 331.237403 176.836646 
L 333.556364 177.063281 
L 335.875325 176.016518 
L 338.194286 172.60026 
L 340.513247 170.701096 
L 342.832208 171.197624 
L 345.151169 174.101224 
L 347.47013 179.024404 
L 349.789091 185.304064 
L 352.108052 191.924449 
L 354.427013 197.883152 
L 356.745974 203.083043 
L 359.064935 207.911202 
L 361.383896 212.057135 
L 363.702857 215.285777 
L 366.021818 218.156827 
L 368.340779 220.135918 
L 370.65974 221.248134 
L 372.978701 221.798739 
L 375.297662 222.76828 
L 379.935584 228.704891 
L 382.254545 229.878678 
L 384.573506 229.076878 
L 386.892468 226.819077 
L 389.211429 225.237321 
L 391.53039 226.564671 
L 396.168312 230.374288 
L 398.487273 231.055609 
L 398.487273 231.055609 
" clip-path="url(#pd764776b72)" style="fill: none; stroke: #ff2c55; stroke-linecap: square"/>
   </g>
   <g id="line2d_16">
    <path d="M 73.832727 289.921212 
L 76.151688 289.452297 
L 78.470649 290.182728 
L 80.78961 289.757437 
L 83.108571 289.062902 
L 85.427532 289.203638 
L 87.746494 291.21077 
L 90.065455 288.688947 
L 92.384416 290.706867 
L 94.703377 290.98533 
L 97.022338 288.984743 
L 99.341299 288.957507 
L 101.66026 290.42434 
L 103.979221 290.822128 
L 106.298182 289.399623 
L 108.617143 289.014779 
L 110.936104 285.887666 
L 113.255065 283.747006 
L 115.574026 282.970698 
L 117.892987 283.34643 
L 120.211948 286.91449 
L 122.530909 285.165968 
L 124.84987 273.380111 
L 127.168831 266.642335 
L 129.487792 263.895662 
L 131.806753 263.529869 
L 134.125714 270.435763 
L 136.444675 279.371997 
L 138.763636 278.049837 
L 141.082597 268.299801 
L 143.401558 263.302913 
L 145.720519 266.402502 
L 148.039481 270.109989 
L 150.358442 272.464736 
L 152.677403 266.219649 
L 154.996364 250.890961 
L 157.315325 242.330778 
L 159.634286 242.810223 
L 164.272208 258.660747 
L 166.591169 265.185667 
L 168.91013 270.725889 
L 171.229091 274.666307 
L 173.548052 277.627413 
L 175.867013 280.126777 
L 178.185974 282.193554 
L 180.504935 282.747188 
L 182.823896 282.288338 
L 192.09974 279.322687 
L 194.418701 278.764475 
L 196.737662 278.072083 
L 199.056623 276.840625 
L 203.694545 272.418447 
L 206.013506 271.315939 
L 208.332468 270.57862 
L 210.651429 270.89619 
L 212.97039 272.411658 
L 215.289351 274.257959 
L 217.608312 274.959032 
L 219.927273 273.854747 
L 222.246234 271.363222 
L 226.884156 265.154797 
L 229.203117 262.273347 
L 231.522078 259.100085 
L 233.841039 256.427048 
L 236.16 254.366905 
L 238.478961 252.718286 
L 240.797922 251.619535 
L 243.116883 250.917801 
L 245.435844 250.380099 
L 247.754805 251.28097 
L 250.073766 253.563546 
L 252.392727 256.063263 
L 254.711688 257.813742 
L 257.030649 258.083013 
L 259.34961 257.467386 
L 261.668571 256.002106 
L 263.987532 254.295663 
L 266.306494 253.070487 
L 268.625455 252.093749 
L 270.944416 252.093389 
L 273.263377 254.280394 
L 275.582338 257.948498 
L 277.901299 261.27593 
L 280.22026 262.333984 
L 282.539221 260.751158 
L 284.858182 258.266059 
L 287.177143 256.73568 
L 291.815065 255.768778 
L 294.134026 255.389134 
L 296.452987 255.126528 
L 298.771948 256.13428 
L 301.090909 258.269215 
L 303.40987 261.056825 
L 305.728831 263.163732 
L 308.047792 263.264755 
L 310.366753 261.494309 
L 312.685714 260.056587 
L 315.004675 259.92062 
L 317.323636 260.922463 
L 319.642597 261.716358 
L 321.961558 263.272009 
L 324.280519 265.82886 
L 326.599481 267.271723 
L 331.237403 267.062406 
L 333.556364 267.462811 
L 335.875325 267.723305 
L 340.513247 266.604894 
L 342.832208 267.264398 
L 345.151169 268.090885 
L 347.47013 268.169047 
L 349.789091 267.72243 
L 352.108052 268.089922 
L 354.427013 269.763211 
L 356.745974 272.365643 
L 359.064935 274.70818 
L 361.383896 276.113537 
L 363.702857 276.352846 
L 366.021818 275.555039 
L 368.340779 274.367076 
L 370.65974 273.534357 
L 372.978701 273.268034 
L 375.297662 273.460228 
L 377.616623 274.300684 
L 382.254545 276.77756 
L 384.573506 277.645897 
L 386.892468 277.837729 
L 391.53039 277.629792 
L 393.849351 277.14031 
L 398.487273 276.626293 
L 398.487273 276.626293 
" clip-path="url(#pd764776b72)" style="fill: none; stroke: #0974f1; stroke-linecap: square"/>
   </g>
   <g id="patch_3">
    <path d="M 57.6 307.584 
L 57.6 41.472 
" style="fill: none; stroke: #000000; stroke-width: 0.8; stroke-linejoin: miter; stroke-linecap: square"/>
   </g>
   <g id="patch_4">
    <path d="M 57.6 307.584 
L 414.72 307.584 
" style="fill: none; stroke: #000000; stroke-width: 0.8; stroke-linejoin: miter; stroke-linecap: square"/>
   </g>
   <g id="text_15">
    <!-- . -->
    <g style="fill: #ff2c55" transform="translate(127.168831 296.637121) scale(0.15 -0.15)">
     <use xlink:href="#DejaVuSans-2e"/>
    </g>
   </g>
   <g id="text_16">
    <!-- . -->
    <g style="fill: #ff2c55" transform="translate(129.487792 296.637121) scale(0.15 -0.15)">
     <use xlink:href="#DejaVuSans-2e"/>
    </g>
   </g>
   <g id="text_17">
    <!-- . -->
    <g style="fill: #ff2c55" transform="translate(131.806753 296.637121) scale(0.15 -0.15)">
     <use xlink:href="#DejaVuSans-2e"/>
    </g>
   </g>
   <g id="text_18">
    <!-- . -->
    <g style="fill: #ff2c55" transform="translate(134.125714 296.637121) scale(0.15 -0.15)">
     <use xlink:href="#DejaVuSans-2e"/>
    </g>
   </g>
   <g id="text_19">
    <!-- . -->
    <g style="fill: #ff2c55" transform="translate(136.444675 296.637121) scale(0.15 -0.15)">
     <use xlink:href="#DejaVuSans-2e"/>
    </g>
   </g>
   <g id="text_20">
    <!-- . -->
    <g style="fill: #ff2c55" transform="translate(138.763636 296.637121) scale(0.15 -0.15)">
     <use xlink:href="#DejaVuSans-2e"/>
    </g>
   </g>
   <g id="text_21">
    <!-- . -->
    <g style="fill: #ff2c55" transform="translate(148.039481 296.637121) scale(0.15 -0.15)">
     <use xlink:href="#DejaVuSans-2e"/>
    </g>
   </g>
   <g id="text_22">
    <!-- . -->
    <g style="fill: #ff2c55" transform="translate(150.358442 296.637121) scale(0.15 -0.15)">
     <use xlink:href="#DejaVuSans-2e"/>
    </g>
   </g>
   <g id="text_23">
    <!-- . -->
    <g style="fill: #ff2c55" transform="translate(152.677403 296.637121) scale(0.15 -0.15)">
     <use xlink:href="#DejaVuSans-2e"/>
    </g>
   </g>
   <g id="text_24">
    <!-- . -->
    <g style="fill: #ff2c55" transform="translate(154.996364 296.637121) scale(0.15 -0.15)">
     <use xlink:href="#DejaVuSans-2e"/>
    </g>
   </g>
   <g id="text_25">
    <!-- . -->
    <g style="fill: #ff2c55" transform="translate(159.634286 296.637121) scale(0.15 -0.15)">
     <use xlink:href="#DejaVuSans-2e"/>
    </g>
   </g>
   <g id="text_26">
    <!-- . -->
    <g style="fill: #ff2c55" transform="translate(161.953247 296.637121) scale(0.15 -0.15)">
     <use xlink:href="#DejaVuSans-2e"/>
    </g>
   </g>
   <g id="text_27">
    <!-- . -->
    <g style="fill: #ff2c55" transform="translate(164.272208 296.637121) scale(0.15 -0.15)">
     <use xlink:href="#DejaVuSans-2e"/>
    </g>
   </g>
   <g id="text_28">
    <!-- . -->
    <g style="fill: #ff2c55" transform="translate(166.591169 296.637121) scale(0.15 -0.15)">
     <use xlink:href="#DejaVuSans-2e"/>
    </g>
   </g>
   <g id="text_29">
    <!-- . -->
    <g style="fill: #ff2c55" transform="translate(168.91013 296.637121) scale(0.15 -0.15)">
     <use xlink:href="#DejaVuSans-2e"/>
    </g>
   </g>
   <g id="text_30">
    <!-- . -->
    <g style="fill: #ff2c55" transform="translate(171.229091 296.637121) scale(0.15 -0.15)">
     <use xlink:href="#DejaVuSans-2e"/>
    </g>
   </g>
   <g id="text_31">
    <!-- . -->
    <g style="fill: #ff2c55" transform="translate(173.548052 296.637121) scale(0.15 -0.15)">
     <use xlink:href="#DejaVuSans-2e"/>
    </g>
   </g>
   <g id="text_32">
    <!-- . -->
    <g style="fill: #ff2c55" transform="translate(175.867013 296.637121) scale(0.15 -0.15)">
     <use xlink:href="#DejaVuSans-2e"/>
    </g>
   </g>
   <g id="text_33">
    <!-- . -->
    <g style="fill: #ff2c55" transform="translate(178.185974 296.637121) scale(0.15 -0.15)">
     <use xlink:href="#DejaVuSans-2e"/>
    </g>
   </g>
   <g id="text_34">
    <!-- . -->
    <g style="fill: #ff2c55" transform="translate(180.504935 296.637121) scale(0.15 -0.15)">
     <use xlink:href="#DejaVuSans-2e"/>
    </g>
   </g>
   <g id="text_35">
    <!-- . -->
    <g style="fill: #ff2c55" transform="translate(182.823896 296.637121) scale(0.15 -0.15)">
     <use xlink:href="#DejaVuSans-2e"/>
    </g>
   </g>
   <g id="text_36">
    <!-- . -->
    <g style="fill: #ff2c55" transform="translate(185.142857 296.637121) scale(0.15 -0.15)">
     <use xlink:href="#DejaVuSans-2e"/>
    </g>
   </g>
   <g id="text_37">
    <!-- . -->
    <g style="fill: #ff2c55" transform="translate(187.461818 296.637121) scale(0.15 -0.15)">
     <use xlink:href="#DejaVuSans-2e"/>
    </g>
   </g>
   <g id="text_38">
    <!-- . -->
    <g style="fill: #ff2c55" transform="translate(189.780779 296.637121) scale(0.15 -0.15)">
     <use xlink:href="#DejaVuSans-2e"/>
    </g>
   </g>
   <g id="text_39">
    <!-- . -->
    <g style="fill: #ff2c55" transform="translate(192.09974 296.637121) scale(0.15 -0.15)">
     <use xlink:href="#DejaVuSans-2e"/>
    </g>
   </g>
   <g id="text_40">
    <!-- . -->
    <g style="fill: #ff2c55" transform="translate(194.418701 296.637121) scale(0.15 -0.15)">
     <use xlink:href="#DejaVuSans-2e"/>
    </g>
   </g>
   <g id="text_41">
    <!-- . -->
    <g style="fill: #ff2c55" transform="translate(196.737662 296.637121) scale(0.15 -0.15)">
     <use xlink:href="#DejaVuSans-2e"/>
    </g>
   </g>
   <g id="text_42">
    <!-- . -->
    <g style="fill: #ff2c55" transform="translate(199.056623 296.637121) scale(0.15 -0.15)">
     <use xlink:href="#DejaVuSans-2e"/>
    </g>
   </g>
   <g id="text_43">
    <!-- . -->
    <g style="fill: #ff2c55" transform="translate(201.375584 296.637121) scale(0.15 -0.15)">
     <use xlink:href="#DejaVuSans-2e"/>
    </g>
   </g>
   <g id="text_44">
    <!-- . -->
    <g style="fill: #ff2c55" transform="translate(203.694545 296.637121) scale(0.15 -0.15)">
     <use xlink:href="#DejaVuSans-2e"/>
    </g>
   </g>
   <g id="text_45">
    <!-- . -->
    <g style="fill: #ff2c55" transform="translate(206.013506 296.637121) scale(0.15 -0.15)">
     <use xlink:href="#DejaVuSans-2e"/>
    </g>
   </g>
   <g id="text_46">
    <!-- . -->
    <g style="fill: #ff2c55" transform="translate(208.332468 296.637121) scale(0.15 -0.15)">
     <use xlink:href="#DejaVuSans-2e"/>
    </g>
   </g>
   <g id="text_47">
    <!-- . -->
    <g style="fill: #ff2c55" transform="translate(210.651429 296.637121) scale(0.15 -0.15)">
     <use xlink:href="#DejaVuSans-2e"/>
    </g>
   </g>
   <g id="text_48">
    <!-- . -->
    <g style="fill: #ff2c55" transform="translate(212.97039 296.637121) scale(0.15 -0.15)">
     <use xlink:href="#DejaVuSans-2e"/>
    </g>
   </g>
   <g id="text_49">
    <!-- . -->
    <g style="fill: #ff2c55" transform="translate(215.289351 296.637121) scale(0.15 -0.15)">
     <use xlink:href="#DejaVuSans-2e"/>
    </g>
   </g>
   <g id="text_50">
    <!-- . -->
    <g style="fill: #ff2c55" transform="translate(217.608312 296.637121) scale(0.15 -0.15)">
     <use xlink:href="#DejaVuSans-2e"/>
    </g>
   </g>
   <g id="text_51">
    <!-- . -->
    <g style="fill: #ff2c55" transform="translate(219.927273 296.637121) scale(0.15 -0.15)">
     <use xlink:href="#DejaVuSans-2e"/>
    </g>
   </g>
   <g id="text_52">
    <!-- . -->
    <g style="fill: #ff2c55" transform="translate(222.246234 296.637121) scale(0.15 -0.15)">
     <use xlink:href="#DejaVuSans-2e"/>
    </g>
   </g>
   <g id="text_53">
    <!-- . -->
    <g style="fill: #ff2c55" transform="translate(224.565195 296.637121) scale(0.15 -0.15)">
     <use xlink:href="#DejaVuSans-2e"/>
    </g>
   </g>
   <g id="text_54">
    <!-- . -->
    <g style="fill: #ff2c55" transform="translate(226.884156 296.637121) scale(0.15 -0.15)">
     <use xlink:href="#DejaVuSans-2e"/>
    </g>
   </g>
   <g id="text_55">
    <!-- . -->
    <g style="fill: #ff2c55" transform="translate(229.203117 296.637121) scale(0.15 -0.15)">
     <use xlink:href="#DejaVuSans-2e"/>
    </g>
   </g>
   <g id="text_56">
    <!-- . -->
    <g style="fill: #ff2c55" transform="translate(231.522078 296.637121) scale(0.15 -0.15)">
     <use xlink:href="#DejaVuSans-2e"/>
    </g>
   </g>
   <g id="text_57">
    <!-- . -->
    <g style="fill: #ff2c55" transform="translate(233.841039 296.637121) scale(0.15 -0.15)">
     <use xlink:href="#DejaVuSans-2e"/>
    </g>
   </g>
   <g id="text_58">
    <!-- . -->
    <g style="fill: #ff2c55" transform="translate(236.16 296.637121) scale(0.15 -0.15)">
     <use xlink:href="#DejaVuSans-2e"/>
    </g>
   </g>
   <g id="text_59">
    <!-- . -->
    <g style="fill: #ff2c55" transform="translate(238.478961 296.637121) scale(0.15 -0.15)">
     <use xlink:href="#DejaVuSans-2e"/>
    </g>
   </g>
   <g id="text_60">
    <!-- . -->
    <g style="fill: #ff2c55" transform="translate(240.797922 296.637121) scale(0.15 -0.15)">
     <use xlink:href="#DejaVuSans-2e"/>
    </g>
   </g>
   <g id="text_61">
    <!-- . -->
    <g style="fill: #ff2c55" transform="translate(243.116883 296.637121) scale(0.15 -0.15)">
     <use xlink:href="#DejaVuSans-2e"/>
    </g>
   </g>
   <g id="text_62">
    <!-- . -->
    <g style="fill: #ff2c55" transform="translate(245.435844 296.637121) scale(0.15 -0.15)">
     <use xlink:href="#DejaVuSans-2e"/>
    </g>
   </g>
   <g id="text_63">
    <!-- . -->
    <g style="fill: #ff2c55" transform="translate(247.754805 296.637121) scale(0.15 -0.15)">
     <use xlink:href="#DejaVuSans-2e"/>
    </g>
   </g>
   <g id="text_64">
    <!-- . -->
    <g style="fill: #ff2c55" transform="translate(250.073766 296.637121) scale(0.15 -0.15)">
     <use xlink:href="#DejaVuSans-2e"/>
    </g>
   </g>
   <g id="text_65">
    <!-- . -->
    <g style="fill: #ff2c55" transform="translate(252.392727 296.637121) scale(0.15 -0.15)">
     <use xlink:href="#DejaVuSans-2e"/>
    </g>
   </g>
   <g id="text_66">
    <!-- . -->
    <g style="fill: #ff2c55" transform="translate(254.711688 296.637121) scale(0.15 -0.15)">
     <use xlink:href="#DejaVuSans-2e"/>
    </g>
   </g>
   <g id="text_67">
    <!-- . -->
    <g style="fill: #ff2c55" transform="translate(257.030649 296.637121) scale(0.15 -0.15)">
     <use xlink:href="#DejaVuSans-2e"/>
    </g>
   </g>
   <g id="text_68">
    <!-- . -->
    <g style="fill: #ff2c55" transform="translate(259.34961 296.637121) scale(0.15 -0.15)">
     <use xlink:href="#DejaVuSans-2e"/>
    </g>
   </g>
   <g id="text_69">
    <!-- . -->
    <g style="fill: #ff2c55" transform="translate(261.668571 296.637121) scale(0.15 -0.15)">
     <use xlink:href="#DejaVuSans-2e"/>
    </g>
   </g>
   <g id="text_70">
    <!-- . -->
    <g style="fill: #ff2c55" transform="translate(263.987532 296.637121) scale(0.15 -0.15)">
     <use xlink:href="#DejaVuSans-2e"/>
    </g>
   </g>
   <g id="text_71">
    <!-- . -->
    <g style="fill: #ff2c55" transform="translate(266.306494 296.637121) scale(0.15 -0.15)">
     <use xlink:href="#DejaVuSans-2e"/>
    </g>
   </g>
   <g id="text_72">
    <!-- . -->
    <g style="fill: #ff2c55" transform="translate(268.625455 296.637121) scale(0.15 -0.15)">
     <use xlink:href="#DejaVuSans-2e"/>
    </g>
   </g>
   <g id="text_73">
    <!-- . -->
    <g style="fill: #ff2c55" transform="translate(270.944416 296.637121) scale(0.15 -0.15)">
     <use xlink:href="#DejaVuSans-2e"/>
    </g>
   </g>
   <g id="text_74">
    <!-- . -->
    <g style="fill: #ff2c55" transform="translate(273.263377 296.637121) scale(0.15 -0.15)">
     <use xlink:href="#DejaVuSans-2e"/>
    </g>
   </g>
   <g id="text_75">
    <!-- . -->
    <g style="fill: #ff2c55" transform="translate(275.582338 296.637121) scale(0.15 -0.15)">
     <use xlink:href="#DejaVuSans-2e"/>
    </g>
   </g>
   <g id="text_76">
    <!-- . -->
    <g style="fill: #ff2c55" transform="translate(277.901299 296.637121) scale(0.15 -0.15)">
     <use xlink:href="#DejaVuSans-2e"/>
    </g>
   </g>
   <g id="text_77">
    <!-- . -->
    <g style="fill: #ff2c55" transform="translate(280.22026 296.637121) scale(0.15 -0.15)">
     <use xlink:href="#DejaVuSans-2e"/>
    </g>
   </g>
   <g id="text_78">
    <!-- . -->
    <g style="fill: #ff2c55" transform="translate(282.539221 296.637121) scale(0.15 -0.15)">
     <use xlink:href="#DejaVuSans-2e"/>
    </g>
   </g>
   <g id="text_79">
    <!-- . -->
    <g style="fill: #ff2c55" transform="translate(284.858182 296.637121) scale(0.15 -0.15)">
     <use xlink:href="#DejaVuSans-2e"/>
    </g>
   </g>
   <g id="text_80">
    <!-- . -->
    <g style="fill: #ff2c55" transform="translate(287.177143 296.637121) scale(0.15 -0.15)">
     <use xlink:href="#DejaVuSans-2e"/>
    </g>
   </g>
   <g id="text_81">
    <!-- . -->
    <g style="fill: #ff2c55" transform="translate(289.496104 296.637121) scale(0.15 -0.15)">
     <use xlink:href="#DejaVuSans-2e"/>
    </g>
   </g>
   <g id="text_82">
    <!-- . -->
    <g style="fill: #ff2c55" transform="translate(291.815065 296.637121) scale(0.15 -0.15)">
     <use xlink:href="#DejaVuSans-2e"/>
    </g>
   </g>
   <g id="text_83">
    <!-- . -->
    <g style="fill: #ff2c55" transform="translate(294.134026 296.637121) scale(0.15 -0.15)">
     <use xlink:href="#DejaVuSans-2e"/>
    </g>
   </g>
   <g id="text_84">
    <!-- . -->
    <g style="fill: #ff2c55" transform="translate(296.452987 296.637121) scale(0.15 -0.15)">
     <use xlink:href="#DejaVuSans-2e"/>
    </g>
   </g>
   <g id="text_85">
    <!-- . -->
    <g style="fill: #ff2c55" transform="translate(298.771948 296.637121) scale(0.15 -0.15)">
     <use xlink:href="#DejaVuSans-2e"/>
    </g>
   </g>
   <g id="text_86">
    <!-- . -->
    <g style="fill: #ff2c55" transform="translate(301.090909 296.637121) scale(0.15 -0.15)">
     <use xlink:href="#DejaVuSans-2e"/>
    </g>
   </g>
   <g id="text_87">
    <!-- . -->
    <g style="fill: #ff2c55" transform="translate(303.40987 296.637121) scale(0.15 -0.15)">
     <use xlink:href="#DejaVuSans-2e"/>
    </g>
   </g>
   <g id="text_88">
    <!-- . -->
    <g style="fill: #ff2c55" transform="translate(305.728831 296.637121) scale(0.15 -0.15)">
     <use xlink:href="#DejaVuSans-2e"/>
    </g>
   </g>
   <g id="text_89">
    <!-- . -->
    <g style="fill: #ff2c55" transform="translate(308.047792 296.637121) scale(0.15 -0.15)">
     <use xlink:href="#DejaVuSans-2e"/>
    </g>
   </g>
   <g id="text_90">
    <!-- . -->
    <g style="fill: #ff2c55" transform="translate(310.366753 296.637121) scale(0.15 -0.15)">
     <use xlink:href="#DejaVuSans-2e"/>
    </g>
   </g>
   <g id="text_91">
    <!-- . -->
    <g style="fill: #ff2c55" transform="translate(312.685714 296.637121) scale(0.15 -0.15)">
     <use xlink:href="#DejaVuSans-2e"/>
    </g>
   </g>
   <g id="text_92">
    <!-- . -->
    <g style="fill: #ff2c55" transform="translate(315.004675 296.637121) scale(0.15 -0.15)">
     <use xlink:href="#DejaVuSans-2e"/>
    </g>
   </g>
   <g id="text_93">
    <!-- . -->
    <g style="fill: #ff2c55" transform="translate(317.323636 296.637121) scale(0.15 -0.15)">
     <use xlink:href="#DejaVuSans-2e"/>
    </g>
   </g>
   <g id="text_94">
    <!-- . -->
    <g style="fill: #ff2c55" transform="translate(319.642597 296.637121) scale(0.15 -0.15)">
     <use xlink:href="#DejaVuSans-2e"/>
    </g>
   </g>
   <g id="text_95">
    <!-- . -->
    <g style="fill: #ff2c55" transform="translate(321.961558 296.637121) scale(0.15 -0.15)">
     <use xlink:href="#DejaVuSans-2e"/>
    </g>
   </g>
   <g id="text_96">
    <!-- . -->
    <g style="fill: #ff2c55" transform="translate(324.280519 296.637121) scale(0.15 -0.15)">
     <use xlink:href="#DejaVuSans-2e"/>
    </g>
   </g>
   <g id="text_97">
    <!-- . -->
    <g style="fill: #ff2c55" transform="translate(326.599481 296.637121) scale(0.15 -0.15)">
     <use xlink:href="#DejaVuSans-2e"/>
    </g>
   </g>
   <g id="text_98">
    <!-- . -->
    <g style="fill: #ff2c55" transform="translate(328.918442 296.637121) scale(0.15 -0.15)">
     <use xlink:href="#DejaVuSans-2e"/>
    </g>
   </g>
   <g id="text_99">
    <!-- . -->
    <g style="fill: #ff2c55" transform="translate(331.237403 296.637121) scale(0.15 -0.15)">
     <use xlink:href="#DejaVuSans-2e"/>
    </g>
   </g>
   <g id="text_100">
    <!-- . -->
    <g style="fill: #ff2c55" transform="translate(333.556364 296.637121) scale(0.15 -0.15)">
     <use xlink:href="#DejaVuSans-2e"/>
    </g>
   </g>
   <g id="text_101">
    <!-- . -->
    <g style="fill: #ff2c55" transform="translate(335.875325 296.637121) scale(0.15 -0.15)">
     <use xlink:href="#DejaVuSans-2e"/>
    </g>
   </g>
   <g id="text_102">
    <!-- . -->
    <g style="fill: #ff2c55" transform="translate(338.194286 296.637121) scale(0.15 -0.15)">
     <use xlink:href="#DejaVuSans-2e"/>
    </g>
   </g>
   <g id="text_103">
    <!-- . -->
    <g style="fill: #ff2c55" transform="translate(340.513247 296.637121) scale(0.15 -0.15)">
     <use xlink:href="#DejaVuSans-2e"/>
    </g>
   </g>
   <g id="text_104">
    <!-- . -->
    <g style="fill: #ff2c55" transform="translate(342.832208 296.637121) scale(0.15 -0.15)">
     <use xlink:href="#DejaVuSans-2e"/>
    </g>
   </g>
   <g id="text_105">
    <!-- . -->
    <g style="fill: #ff2c55" transform="translate(345.151169 296.637121) scale(0.15 -0.15)">
     <use xlink:href="#DejaVuSans-2e"/>
    </g>
   </g>
   <g id="text_106">
    <!-- . -->
    <g style="fill: #ff2c55" transform="translate(347.47013 296.637121) scale(0.15 -0.15)">
     <use xlink:href="#DejaVuSans-2e"/>
    </g>
   </g>
   <g id="text_107">
    <!-- . -->
    <g style="fill: #ff2c55" transform="translate(349.789091 296.637121) scale(0.15 -0.15)">
     <use xlink:href="#DejaVuSans-2e"/>
    </g>
   </g>
   <g id="text_108">
    <!-- . -->
    <g style="fill: #ff2c55" transform="translate(352.108052 296.637121) scale(0.15 -0.15)">
     <use xlink:href="#DejaVuSans-2e"/>
    </g>
   </g>
   <g id="text_109">
    <!-- . -->
    <g style="fill: #ff2c55" transform="translate(354.427013 296.637121) scale(0.15 -0.15)">
     <use xlink:href="#DejaVuSans-2e"/>
    </g>
   </g>
   <g id="text_110">
    <!-- . -->
    <g style="fill: #ff2c55" transform="translate(356.745974 296.637121) scale(0.15 -0.15)">
     <use xlink:href="#DejaVuSans-2e"/>
    </g>
   </g>
   <g id="text_111">
    <!-- . -->
    <g style="fill: #ff2c55" transform="translate(359.064935 296.637121) scale(0.15 -0.15)">
     <use xlink:href="#DejaVuSans-2e"/>
    </g>
   </g>
   <g id="text_112">
    <!-- . -->
    <g style="fill: #ff2c55" transform="translate(361.383896 296.637121) scale(0.15 -0.15)">
     <use xlink:href="#DejaVuSans-2e"/>
    </g>
   </g>
   <g id="text_113">
    <!-- . -->
    <g style="fill: #ff2c55" transform="translate(363.702857 296.637121) scale(0.15 -0.15)">
     <use xlink:href="#DejaVuSans-2e"/>
    </g>
   </g>
   <g id="text_114">
    <!-- . -->
    <g style="fill: #ff2c55" transform="translate(366.021818 296.637121) scale(0.15 -0.15)">
     <use xlink:href="#DejaVuSans-2e"/>
    </g>
   </g>
   <g id="text_115">
    <!-- . -->
    <g style="fill: #ff2c55" transform="translate(368.340779 296.637121) scale(0.15 -0.15)">
     <use xlink:href="#DejaVuSans-2e"/>
    </g>
   </g>
   <g id="text_116">
    <!-- . -->
    <g style="fill: #ff2c55" transform="translate(370.65974 296.637121) scale(0.15 -0.15)">
     <use xlink:href="#DejaVuSans-2e"/>
    </g>
   </g>
   <g id="text_117">
    <!-- . -->
    <g style="fill: #ff2c55" transform="translate(372.978701 296.637121) scale(0.15 -0.15)">
     <use xlink:href="#DejaVuSans-2e"/>
    </g>
   </g>
   <g id="text_118">
    <!-- . -->
    <g style="fill: #ff2c55" transform="translate(375.297662 296.637121) scale(0.15 -0.15)">
     <use xlink:href="#DejaVuSans-2e"/>
    </g>
   </g>
   <g id="text_119">
    <!-- . -->
    <g style="fill: #ff2c55" transform="translate(377.616623 296.637121) scale(0.15 -0.15)">
     <use xlink:href="#DejaVuSans-2e"/>
    </g>
   </g>
   <g id="text_120">
    <!-- . -->
    <g style="fill: #ff2c55" transform="translate(379.935584 296.637121) scale(0.15 -0.15)">
     <use xlink:href="#DejaVuSans-2e"/>
    </g>
   </g>
   <g id="text_121">
    <!-- . -->
    <g style="fill: #ff2c55" transform="translate(382.254545 296.637121) scale(0.15 -0.15)">
     <use xlink:href="#DejaVuSans-2e"/>
    </g>
   </g>
   <g id="text_122">
    <!-- . -->
    <g style="fill: #ff2c55" transform="translate(384.573506 296.637121) scale(0.15 -0.15)">
     <use xlink:href="#DejaVuSans-2e"/>
    </g>
   </g>
   <g id="text_123">
    <!-- . -->
    <g style="fill: #ff2c55" transform="translate(386.892468 296.637121) scale(0.15 -0.15)">
     <use xlink:href="#DejaVuSans-2e"/>
    </g>
   </g>
   <g id="text_124">
    <!-- . -->
    <g style="fill: #ff2c55" transform="translate(389.211429 296.637121) scale(0.15 -0.15)">
     <use xlink:href="#DejaVuSans-2e"/>
    </g>
   </g>
   <g id="text_125">
    <!-- . -->
    <g style="fill: #ff2c55" transform="translate(391.53039 296.637121) scale(0.15 -0.15)">
     <use xlink:href="#DejaVuSans-2e"/>
    </g>
   </g>
   <g id="text_126">
    <!-- . -->
    <g style="fill: #ff2c55" transform="translate(393.849351 296.637121) scale(0.15 -0.15)">
     <use xlink:href="#DejaVuSans-2e"/>
    </g>
   </g>
   <g id="text_127">
    <!-- . -->
    <g style="fill: #ff2c55" transform="translate(396.168312 296.637121) scale(0.15 -0.15)">
     <use xlink:href="#DejaVuSans-2e"/>
    </g>
   </g>
   <g id="text_128">
    <!-- . -->
    <g style="fill: #ff2c55" transform="translate(398.487273 296.637121) scale(0.15 -0.15)">
     <use xlink:href="#DejaVuSans-2e"/>
    </g>
   </g>
   <g id="legend_1">
    <g id="patch_5">
     <path d="M 280.196563 78.82825 
L 407.72 78.82825 
Q 409.72 78.82825 409.72 76.82825 
L 409.72 48.472 
Q 409.72 46.472 407.72 46.472 
L 280.196563 46.472 
Q 278.196563 46.472 278.196563 48.472 
L 278.196563 76.82825 
Q 278.196563 78.82825 280.196563 78.82825 
z
" style="fill: #ffffff; opacity: 0.8; stroke: #cccccc; stroke-linejoin: miter"/>
    </g>
    <g id="line2d_17">
     <path d="M 282.196563 54.570437 
L 292.196563 54.570437 
L 302.196563 54.570437 
" style="fill: none; stroke: #ff2c55; stroke-linecap: square"/>
    </g>
    <g id="text_129">
     <!-- Affordance (online) -->
     <g transform="translate(310.196563 58.070437) scale(0.1 -0.1)">
      <defs>
       <path id="DejaVuSans-41" d="M 2188 4044 
L 1331 1722 
L 3047 1722 
L 2188 4044 
z
M 1831 4666 
L 2547 4666 
L 4325 0 
L 3669 0 
L 3244 1197 
L 1141 1197 
L 716 0 
L 50 0 
L 1831 4666 
z
" transform="scale(0.015625)"/>
       <path id="DejaVuSans-66" d="M 2375 4863 
L 2375 4384 
L 1825 4384 
Q 1516 4384 1395 4259 
Q 1275 4134 1275 3809 
L 1275 3500 
L 2222 3500 
L 2222 3053 
L 1275 3053 
L 1275 0 
L 697 0 
L 697 3053 
L 147 3053 
L 147 3500 
L 697 3500 
L 697 3744 
Q 697 4328 969 4595 
Q 1241 4863 1831 4863 
L 2375 4863 
z
" transform="scale(0.015625)"/>
       <path id="DejaVuSans-6f" d="M 1959 3097 
Q 1497 3097 1228 2736 
Q 959 2375 959 1747 
Q 959 1119 1226 758 
Q 1494 397 1959 397 
Q 2419 397 2687 759 
Q 2956 1122 2956 1747 
Q 2956 2369 2687 2733 
Q 2419 3097 1959 3097 
z
M 1959 3584 
Q 2709 3584 3137 3096 
Q 3566 2609 3566 1747 
Q 3566 888 3137 398 
Q 2709 -91 1959 -91 
Q 1206 -91 779 398 
Q 353 888 353 1747 
Q 353 2609 779 3096 
Q 1206 3584 1959 3584 
z
" transform="scale(0.015625)"/>
       <path id="DejaVuSans-64" d="M 2906 2969 
L 2906 4863 
L 3481 4863 
L 3481 0 
L 2906 0 
L 2906 525 
Q 2725 213 2448 61 
Q 2172 -91 1784 -91 
Q 1150 -91 751 415 
Q 353 922 353 1747 
Q 353 2572 751 3078 
Q 1150 3584 1784 3584 
Q 2172 3584 2448 3432 
Q 2725 3281 2906 2969 
z
M 947 1747 
Q 947 1113 1208 752 
Q 1469 391 1925 391 
Q 2381 391 2643 752 
Q 2906 1113 2906 1747 
Q 2906 2381 2643 2742 
Q 2381 3103 1925 3103 
Q 1469 3103 1208 2742 
Q 947 2381 947 1747 
z
" transform="scale(0.015625)"/>
       <path id="DejaVuSans-6c" d="M 603 4863 
L 1178 4863 
L 1178 0 
L 603 0 
L 603 4863 
z
" transform="scale(0.015625)"/>
      </defs>
      <use xlink:href="#DejaVuSans-41"/>
      <use xlink:href="#DejaVuSans-66" x="64.783203"/>
      <use xlink:href="#DejaVuSans-66" x="99.988281"/>
      <use xlink:href="#DejaVuSans-6f" x="135.193359"/>
      <use xlink:href="#DejaVuSans-72" x="196.375"/>
      <use xlink:href="#DejaVuSans-64" x="235.738281"/>
      <use xlink:href="#DejaVuSans-61" x="299.214844"/>
      <use xlink:href="#DejaVuSans-6e" x="360.494141"/>
      <use xlink:href="#DejaVuSans-63" x="423.873047"/>
      <use xlink:href="#DejaVuSans-65" x="478.853516"/>
      <use xlink:href="#DejaVuSans-20" x="540.376953"/>
      <use xlink:href="#DejaVuSans-28" x="572.164062"/>
      <use xlink:href="#DejaVuSans-6f" x="611.177734"/>
      <use xlink:href="#DejaVuSans-6e" x="672.359375"/>
      <use xlink:href="#DejaVuSans-6c" x="735.738281"/>
      <use xlink:href="#DejaVuSans-69" x="763.521484"/>
      <use xlink:href="#DejaVuSans-6e" x="791.304688"/>
      <use xlink:href="#DejaVuSans-65" x="854.683594"/>
      <use xlink:href="#DejaVuSans-29" x="916.207031"/>
     </g>
    </g>
    <g id="line2d_18">
     <path d="M 282.196563 69.248562 
L 292.196563 69.248562 
L 302.196563 69.248562 
" style="fill: none; stroke: #0974f1; stroke-linecap: square"/>
    </g>
    <g id="text_130">
     <!-- Objects (online) -->
     <g transform="translate(310.196563 72.748562) scale(0.1 -0.1)">
      <defs>
       <path id="DejaVuSans-4f" d="M 2522 4238 
Q 1834 4238 1429 3725 
Q 1025 3213 1025 2328 
Q 1025 1447 1429 934 
Q 1834 422 2522 422 
Q 3209 422 3611 934 
Q 4013 1447 4013 2328 
Q 4013 3213 3611 3725 
Q 3209 4238 2522 4238 
z
M 2522 4750 
Q 3503 4750 4090 4092 
Q 4678 3434 4678 2328 
Q 4678 1225 4090 567 
Q 3503 -91 2522 -91 
Q 1538 -91 948 565 
Q 359 1222 359 2328 
Q 359 3434 948 4092 
Q 1538 4750 2522 4750 
z
" transform="scale(0.015625)"/>
       <path id="DejaVuSans-62" d="M 3116 1747 
Q 3116 2381 2855 2742 
Q 2594 3103 2138 3103 
Q 1681 3103 1420 2742 
Q 1159 2381 1159 1747 
Q 1159 1113 1420 752 
Q 1681 391 2138 391 
Q 2594 391 2855 752 
Q 3116 1113 3116 1747 
z
M 1159 2969 
Q 1341 3281 1617 3432 
Q 1894 3584 2278 3584 
Q 2916 3584 3314 3078 
Q 3713 2572 3713 1747 
Q 3713 922 3314 415 
Q 2916 -91 2278 -91 
Q 1894 -91 1617 61 
Q 1341 213 1159 525 
L 1159 0 
L 581 0 
L 581 4863 
L 1159 4863 
L 1159 2969 
z
" transform="scale(0.015625)"/>
       <path id="DejaVuSans-6a" d="M 603 3500 
L 1178 3500 
L 1178 -63 
Q 1178 -731 923 -1031 
Q 669 -1331 103 -1331 
L -116 -1331 
L -116 -844 
L 38 -844 
Q 366 -844 484 -692 
Q 603 -541 603 -63 
L 603 3500 
z
M 603 4863 
L 1178 4863 
L 1178 4134 
L 603 4134 
L 603 4863 
z
" transform="scale(0.015625)"/>
       <path id="DejaVuSans-74" d="M 1172 4494 
L 1172 3500 
L 2356 3500 
L 2356 3053 
L 1172 3053 
L 1172 1153 
Q 1172 725 1289 603 
Q 1406 481 1766 481 
L 2356 481 
L 2356 0 
L 1766 0 
Q 1100 0 847 248 
Q 594 497 594 1153 
L 594 3053 
L 172 3053 
L 172 3500 
L 594 3500 
L 594 4494 
L 1172 4494 
z
" transform="scale(0.015625)"/>
      </defs>
      <use xlink:href="#DejaVuSans-4f"/>
      <use xlink:href="#DejaVuSans-62" x="78.710938"/>
      <use xlink:href="#DejaVuSans-6a" x="142.1875"/>
      <use xlink:href="#DejaVuSans-65" x="169.970703"/>
      <use xlink:href="#DejaVuSans-63" x="231.494141"/>
      <use xlink:href="#DejaVuSans-74" x="286.474609"/>
      <use xlink:href="#DejaVuSans-73" x="325.683594"/>
      <use xlink:href="#DejaVuSans-20" x="377.783203"/>
      <use xlink:href="#DejaVuSans-28" x="409.570312"/>
      <use xlink:href="#DejaVuSans-6f" x="448.583984"/>
      <use xlink:href="#DejaVuSans-6e" x="509.765625"/>
      <use xlink:href="#DejaVuSans-6c" x="573.144531"/>
      <use xlink:href="#DejaVuSans-69" x="600.927734"/>
      <use xlink:href="#DejaVuSans-6e" x="628.710938"/>
      <use xlink:href="#DejaVuSans-65" x="692.089844"/>
      <use xlink:href="#DejaVuSans-29" x="753.613281"/>
     </g>
    </g>
   </g>
  </g>
 </g>
 <defs>
  <clipPath id="pd764776b72">
   <rect x="57.6" y="41.472" width="357.12" height="266.112"/>
  </clipPath>
 </defs>
</svg>
