<?xml version="1.0" encoding="utf-8" standalone="no"?>
<!DOCTYPE svg PUBLIC "-//W3C//DTD SVG 1.1//EN"
  "http://www.w3.org/Graphics/SVG/1.1/DTD/svg11.dtd">
<svg xmlns:xlink="http://www.w3.org/1999/xlink" width="288pt" height="288pt" viewBox="0 0 288 288" xmlns="http://www.w3.org/2000/svg" version="1.1">
 <metadata>
  <rdf:RDF xmlns:dc="http://purl.org/dc/elements/1.1/" xmlns:cc="http://creativecommons.org/ns#" xmlns:rdf="http://www.w3.org/1999/02/22-rdf-syntax-ns#">
   <cc:Work>
    <dc:type rdf:resource="http://purl.org/dc/dcmitype/StillImage"/>
    <dc:date>2025-12-03T13:20:41.101743</dc:date>
    <dc:format>image/svg+xml</dc:format>
    <dc:creator>
     <cc:Agent>
      <dc:title>Matplotlib v3.6.2, https://matplotlib.org/</dc:title>
     </cc:Agent>
    </dc:creator>
   </cc:Work>
  </rdf:RDF>
 </metadata>
 <defs>
  <style type="text/css">*{stroke-linejoin: round; stroke-linecap: butt}</style>
 </defs>
 <g id="figure_1">
  <g id="patch_1">
   <path d="M 0 288 
L 288 288 
L 288 0 
L 0 0 
L 0 288 
z
" style="fill: none"/>
  </g>
  <g id="axes_1">
   <g id="patch_2">
    <path d="M 56.9 243.16 
L 277.2 243.16 
L 277.2 11.886807 
L 56.9 11.886807 
L 56.9 243.16 
z
" style="fill: none"/>
   </g>
   <g id="matplotlib.axis_1">
    <g id="xtick_1">
     <g id="line2d_1">
      <defs>
       <path id="mf24a5bca5c" d="M 0 0 
L 0 3.5 
" style="stroke: #000000; stroke-width: 0.8"/>
      </defs>
      <g>
       <use xlink:href="#mf24a5bca5c" x="85.120248" y="243.16" style="stroke: #000000; stroke-width: 0.8"/>
      </g>
     </g>
     <g id="text_1">
      <!-- 0.0 -->
      <g transform="translate(77.168685 257.758438) scale(0.1 -0.1)">
       <defs>
        <path id="DejaVuSans-30" d="M 2034 4250 
Q 1547 4250 1301 3770 
Q 1056 3291 1056 2328 
Q 1056 1369 1301 889 
Q 1547 409 2034 409 
Q 2525 409 2770 889 
Q 3016 1369 3016 2328 
Q 3016 3291 2770 3770 
Q 2525 4250 2034 4250 
z
M 2034 4750 
Q 2819 4750 3233 4129 
Q 3647 3509 3647 2328 
Q 3647 1150 3233 529 
Q 2819 -91 2034 -91 
Q 1250 -91 836 529 
Q 422 1150 422 2328 
Q 422 3509 836 4129 
Q 1250 4750 2034 4750 
z
" transform="scale(0.015625)"/>
        <path id="DejaVuSans-2e" d="M 684 794 
L 1344 794 
L 1344 0 
L 684 0 
L 684 794 
z
" transform="scale(0.015625)"/>
       </defs>
       <use xlink:href="#DejaVuSans-30"/>
       <use xlink:href="#DejaVuSans-2e" x="63.623047"/>
       <use xlink:href="#DejaVuSans-30" x="95.410156"/>
      </g>
     </g>
    </g>
    <g id="xtick_2">
     <g id="line2d_2">
      <g>
       <use xlink:href="#mf24a5bca5c" x="121.533471" y="243.16" style="stroke: #000000; stroke-width: 0.8"/>
      </g>
     </g>
     <g id="text_2">
      <!-- 0.2 -->
      <g transform="translate(113.581909 257.758438) scale(0.1 -0.1)">
       <defs>
        <path id="DejaVuSans-32" d="M 1228 531 
L 3431 531 
L 3431 0 
L 469 0 
L 469 531 
Q 828 903 1448 1529 
Q 2069 2156 2228 2338 
Q 2531 2678 2651 2914 
Q 2772 3150 2772 3378 
Q 2772 3750 2511 3984 
Q 2250 4219 1831 4219 
Q 1534 4219 1204 4116 
Q 875 4013 500 3803 
L 500 4441 
Q 881 4594 1212 4672 
Q 1544 4750 1819 4750 
Q 2544 4750 2975 4387 
Q 3406 4025 3406 3419 
Q 3406 3131 3298 2873 
Q 3191 2616 2906 2266 
Q 2828 2175 2409 1742 
Q 1991 1309 1228 531 
z
" transform="scale(0.015625)"/>
       </defs>
       <use xlink:href="#DejaVuSans-30"/>
       <use xlink:href="#DejaVuSans-2e" x="63.623047"/>
       <use xlink:href="#DejaVuSans-32" x="95.410156"/>
      </g>
     </g>
    </g>
    <g id="xtick_3">
     <g id="line2d_3">
      <g>
       <use xlink:href="#mf24a5bca5c" x="157.946694" y="243.16" style="stroke: #000000; stroke-width: 0.8"/>
      </g>
     </g>
     <g id="text_3">
      <!-- 0.4 -->
      <g transform="translate(149.995132 257.758438) scale(0.1 -0.1)">
       <defs>
        <path id="DejaVuSans-34" d="M 2419 4116 
L 825 1625 
L 2419 1625 
L 2419 4116 
z
M 2253 4666 
L 3047 4666 
L 3047 1625 
L 3713 1625 
L 3713 1100 
L 3047 1100 
L 3047 0 
L 2419 0 
L 2419 1100 
L 313 1100 
L 313 1709 
L 2253 4666 
z
" transform="scale(0.015625)"/>
       </defs>
       <use xlink:href="#DejaVuSans-30"/>
       <use xlink:href="#DejaVuSans-2e" x="63.623047"/>
       <use xlink:href="#DejaVuSans-34" x="95.410156"/>
      </g>
     </g>
    </g>
    <g id="xtick_4">
     <g id="line2d_4">
      <g>
       <use xlink:href="#mf24a5bca5c" x="194.359917" y="243.16" style="stroke: #000000; stroke-width: 0.8"/>
      </g>
     </g>
     <g id="text_4">
      <!-- 0.6 -->
      <g transform="translate(186.408355 257.758438) scale(0.1 -0.1)">
       <defs>
        <path id="DejaVuSans-36" d="M 2113 2584 
Q 1688 2584 1439 2293 
Q 1191 2003 1191 1497 
Q 1191 994 1439 701 
Q 1688 409 2113 409 
Q 2538 409 2786 701 
Q 3034 994 3034 1497 
Q 3034 2003 2786 2293 
Q 2538 2584 2113 2584 
z
M 3366 4563 
L 3366 3988 
Q 3128 4100 2886 4159 
Q 2644 4219 2406 4219 
Q 1781 4219 1451 3797 
Q 1122 3375 1075 2522 
Q 1259 2794 1537 2939 
Q 1816 3084 2150 3084 
Q 2853 3084 3261 2657 
Q 3669 2231 3669 1497 
Q 3669 778 3244 343 
Q 2819 -91 2113 -91 
Q 1303 -91 875 529 
Q 447 1150 447 2328 
Q 447 3434 972 4092 
Q 1497 4750 2381 4750 
Q 2619 4750 2861 4703 
Q 3103 4656 3366 4563 
z
" transform="scale(0.015625)"/>
       </defs>
       <use xlink:href="#DejaVuSans-30"/>
       <use xlink:href="#DejaVuSans-2e" x="63.623047"/>
       <use xlink:href="#DejaVuSans-36" x="95.410156"/>
      </g>
     </g>
    </g>
    <g id="xtick_5">
     <g id="line2d_5">
      <g>
       <use xlink:href="#mf24a5bca5c" x="230.77314" y="243.16" style="stroke: #000000; stroke-width: 0.8"/>
      </g>
     </g>
     <g id="text_5">
      <!-- 0.8 -->
      <g transform="translate(222.821578 257.758438) scale(0.1 -0.1)">
       <defs>
        <path id="DejaVuSans-38" d="M 2034 2216 
Q 1584 2216 1326 1975 
Q 1069 1734 1069 1313 
Q 1069 891 1326 650 
Q 1584 409 2034 409 
Q 2484 409 2743 651 
Q 3003 894 3003 1313 
Q 3003 1734 2745 1975 
Q 2488 2216 2034 2216 
z
M 1403 2484 
Q 997 2584 770 2862 
Q 544 3141 544 3541 
Q 544 4100 942 4425 
Q 1341 4750 2034 4750 
Q 2731 4750 3128 4425 
Q 3525 4100 3525 3541 
Q 3525 3141 3298 2862 
Q 3072 2584 2669 2484 
Q 3125 2378 3379 2068 
Q 3634 1759 3634 1313 
Q 3634 634 3220 271 
Q 2806 -91 2034 -91 
Q 1263 -91 848 271 
Q 434 634 434 1313 
Q 434 1759 690 2068 
Q 947 2378 1403 2484 
z
M 1172 3481 
Q 1172 3119 1398 2916 
Q 1625 2713 2034 2713 
Q 2441 2713 2670 2916 
Q 2900 3119 2900 3481 
Q 2900 3844 2670 4047 
Q 2441 4250 2034 4250 
Q 1625 4250 1398 4047 
Q 1172 3844 1172 3481 
z
" transform="scale(0.015625)"/>
       </defs>
       <use xlink:href="#DejaVuSans-30"/>
       <use xlink:href="#DejaVuSans-2e" x="63.623047"/>
       <use xlink:href="#DejaVuSans-38" x="95.410156"/>
      </g>
     </g>
    </g>
    <g id="xtick_6">
     <g id="line2d_6">
      <g>
       <use xlink:href="#mf24a5bca5c" x="267.186364" y="243.16" style="stroke: #000000; stroke-width: 0.8"/>
      </g>
     </g>
     <g id="text_6">
      <!-- 1.0 -->
      <g transform="translate(259.234801 257.758438) scale(0.1 -0.1)">
       <defs>
        <path id="DejaVuSans-31" d="M 794 531 
L 1825 531 
L 1825 4091 
L 703 3866 
L 703 4441 
L 1819 4666 
L 2450 4666 
L 2450 531 
L 3481 531 
L 3481 0 
L 794 0 
L 794 531 
z
" transform="scale(0.015625)"/>
       </defs>
       <use xlink:href="#DejaVuSans-31"/>
       <use xlink:href="#DejaVuSans-2e" x="63.623047"/>
       <use xlink:href="#DejaVuSans-30" x="95.410156"/>
      </g>
     </g>
    </g>
    <g id="text_7">
     <!-- Time (s) -->
     <g transform="translate(142.655313 272.95625) scale(0.12 -0.12)">
      <defs>
       <path id="DejaVuSans-54" d="M -19 4666 
L 3928 4666 
L 3928 4134 
L 2272 4134 
L 2272 0 
L 1638 0 
L 1638 4134 
L -19 4134 
L -19 4666 
z
" transform="scale(0.015625)"/>
       <path id="DejaVuSans-69" d="M 603 3500 
L 1178 3500 
L 1178 0 
L 603 0 
L 603 3500 
z
M 603 4863 
L 1178 4863 
L 1178 4134 
L 603 4134 
L 603 4863 
z
" transform="scale(0.015625)"/>
       <path id="DejaVuSans-6d" d="M 3328 2828 
Q 3544 3216 3844 3400 
Q 4144 3584 4550 3584 
Q 5097 3584 5394 3201 
Q 5691 2819 5691 2113 
L 5691 0 
L 5113 0 
L 5113 2094 
Q 5113 2597 4934 2840 
Q 4756 3084 4391 3084 
Q 3944 3084 3684 2787 
Q 3425 2491 3425 1978 
L 3425 0 
L 2847 0 
L 2847 2094 
Q 2847 2600 2669 2842 
Q 2491 3084 2119 3084 
Q 1678 3084 1418 2786 
Q 1159 2488 1159 1978 
L 1159 0 
L 581 0 
L 581 3500 
L 1159 3500 
L 1159 2956 
Q 1356 3278 1631 3431 
Q 1906 3584 2284 3584 
Q 2666 3584 2933 3390 
Q 3200 3197 3328 2828 
z
" transform="scale(0.015625)"/>
       <path id="DejaVuSans-65" d="M 3597 1894 
L 3597 1613 
L 953 1613 
Q 991 1019 1311 708 
Q 1631 397 2203 397 
Q 2534 397 2845 478 
Q 3156 559 3463 722 
L 3463 178 
Q 3153 47 2828 -22 
Q 2503 -91 2169 -91 
Q 1331 -91 842 396 
Q 353 884 353 1716 
Q 353 2575 817 3079 
Q 1281 3584 2069 3584 
Q 2775 3584 3186 3129 
Q 3597 2675 3597 1894 
z
M 3022 2063 
Q 3016 2534 2758 2815 
Q 2500 3097 2075 3097 
Q 1594 3097 1305 2825 
Q 1016 2553 972 2059 
L 3022 2063 
z
" transform="scale(0.015625)"/>
       <path id="DejaVuSans-20" transform="scale(0.015625)"/>
       <path id="DejaVuSans-28" d="M 1984 4856 
Q 1566 4138 1362 3434 
Q 1159 2731 1159 2009 
Q 1159 1288 1364 580 
Q 1569 -128 1984 -844 
L 1484 -844 
Q 1016 -109 783 600 
Q 550 1309 550 2009 
Q 550 2706 781 3412 
Q 1013 4119 1484 4856 
L 1984 4856 
z
" transform="scale(0.015625)"/>
       <path id="DejaVuSans-73" d="M 2834 3397 
L 2834 2853 
Q 2591 2978 2328 3040 
Q 2066 3103 1784 3103 
Q 1356 3103 1142 2972 
Q 928 2841 928 2578 
Q 928 2378 1081 2264 
Q 1234 2150 1697 2047 
L 1894 2003 
Q 2506 1872 2764 1633 
Q 3022 1394 3022 966 
Q 3022 478 2636 193 
Q 2250 -91 1575 -91 
Q 1294 -91 989 -36 
Q 684 19 347 128 
L 347 722 
Q 666 556 975 473 
Q 1284 391 1588 391 
Q 1994 391 2212 530 
Q 2431 669 2431 922 
Q 2431 1156 2273 1281 
Q 2116 1406 1581 1522 
L 1381 1569 
Q 847 1681 609 1914 
Q 372 2147 372 2553 
Q 372 3047 722 3315 
Q 1072 3584 1716 3584 
Q 2034 3584 2315 3537 
Q 2597 3491 2834 3397 
z
" transform="scale(0.015625)"/>
       <path id="DejaVuSans-29" d="M 513 4856 
L 1013 4856 
Q 1481 4119 1714 3412 
Q 1947 2706 1947 2009 
Q 1947 1309 1714 600 
Q 1481 -109 1013 -844 
L 513 -844 
Q 928 -128 1133 580 
Q 1338 1288 1338 2009 
Q 1338 2731 1133 3434 
Q 928 4138 513 4856 
z
" transform="scale(0.015625)"/>
      </defs>
      <use xlink:href="#DejaVuSans-54"/>
      <use xlink:href="#DejaVuSans-69" x="57.958984"/>
      <use xlink:href="#DejaVuSans-6d" x="85.742188"/>
      <use xlink:href="#DejaVuSans-65" x="183.154297"/>
      <use xlink:href="#DejaVuSans-20" x="244.677734"/>
      <use xlink:href="#DejaVuSans-28" x="276.464844"/>
      <use xlink:href="#DejaVuSans-73" x="315.478516"/>
      <use xlink:href="#DejaVuSans-29" x="367.578125"/>
     </g>
    </g>
   </g>
   <g id="matplotlib.axis_2">
    <g id="ytick_1">
     <g id="line2d_7">
      <defs>
       <path id="me4df1d51f3" d="M 0 0 
L -3.5 0 
" style="stroke: #000000; stroke-width: 0.8"/>
      </defs>
      <g>
       <use xlink:href="#me4df1d51f3" x="56.9" y="211.40602" style="stroke: #000000; stroke-width: 0.8"/>
      </g>
     </g>
     <g id="text_8">
      <!-- 0.00 -->
      <g transform="translate(27.634375 215.205239) scale(0.1 -0.1)">
       <use xlink:href="#DejaVuSans-30"/>
       <use xlink:href="#DejaVuSans-2e" x="63.623047"/>
       <use xlink:href="#DejaVuSans-30" x="95.410156"/>
       <use xlink:href="#DejaVuSans-30" x="159.033203"/>
      </g>
     </g>
    </g>
    <g id="ytick_2">
     <g id="line2d_8">
      <g>
       <use xlink:href="#me4df1d51f3" x="56.9" y="178.652226" style="stroke: #000000; stroke-width: 0.8"/>
      </g>
     </g>
     <g id="text_9">
      <!-- 0.01 -->
      <g transform="translate(27.634375 182.451445) scale(0.1 -0.1)">
       <use xlink:href="#DejaVuSans-30"/>
       <use xlink:href="#DejaVuSans-2e" x="63.623047"/>
       <use xlink:href="#DejaVuSans-30" x="95.410156"/>
       <use xlink:href="#DejaVuSans-31" x="159.033203"/>
      </g>
     </g>
    </g>
    <g id="ytick_3">
     <g id="line2d_9">
      <g>
       <use xlink:href="#me4df1d51f3" x="56.9" y="145.898432" style="stroke: #000000; stroke-width: 0.8"/>
      </g>
     </g>
     <g id="text_10">
      <!-- 0.02 -->
      <g transform="translate(27.634375 149.697651) scale(0.1 -0.1)">
       <use xlink:href="#DejaVuSans-30"/>
       <use xlink:href="#DejaVuSans-2e" x="63.623047"/>
       <use xlink:href="#DejaVuSans-30" x="95.410156"/>
       <use xlink:href="#DejaVuSans-32" x="159.033203"/>
      </g>
     </g>
    </g>
    <g id="ytick_4">
     <g id="line2d_10">
      <g>
       <use xlink:href="#me4df1d51f3" x="56.9" y="113.144638" style="stroke: #000000; stroke-width: 0.8"/>
      </g>
     </g>
     <g id="text_11">
      <!-- 0.03 -->
      <g transform="translate(27.634375 116.943857) scale(0.1 -0.1)">
       <defs>
        <path id="DejaVuSans-33" d="M 2597 2516 
Q 3050 2419 3304 2112 
Q 3559 1806 3559 1356 
Q 3559 666 3084 287 
Q 2609 -91 1734 -91 
Q 1441 -91 1130 -33 
Q 819 25 488 141 
L 488 750 
Q 750 597 1062 519 
Q 1375 441 1716 441 
Q 2309 441 2620 675 
Q 2931 909 2931 1356 
Q 2931 1769 2642 2001 
Q 2353 2234 1838 2234 
L 1294 2234 
L 1294 2753 
L 1863 2753 
Q 2328 2753 2575 2939 
Q 2822 3125 2822 3475 
Q 2822 3834 2567 4026 
Q 2313 4219 1838 4219 
Q 1578 4219 1281 4162 
Q 984 4106 628 3988 
L 628 4550 
Q 988 4650 1302 4700 
Q 1616 4750 1894 4750 
Q 2613 4750 3031 4423 
Q 3450 4097 3450 3541 
Q 3450 3153 3228 2886 
Q 3006 2619 2597 2516 
z
" transform="scale(0.015625)"/>
       </defs>
       <use xlink:href="#DejaVuSans-30"/>
       <use xlink:href="#DejaVuSans-2e" x="63.623047"/>
       <use xlink:href="#DejaVuSans-30" x="95.410156"/>
       <use xlink:href="#DejaVuSans-33" x="159.033203"/>
      </g>
     </g>
    </g>
    <g id="ytick_5">
     <g id="line2d_11">
      <g>
       <use xlink:href="#me4df1d51f3" x="56.9" y="80.390844" style="stroke: #000000; stroke-width: 0.8"/>
      </g>
     </g>
     <g id="text_12">
      <!-- 0.04 -->
      <g transform="translate(27.634375 84.190063) scale(0.1 -0.1)">
       <use xlink:href="#DejaVuSans-30"/>
       <use xlink:href="#DejaVuSans-2e" x="63.623047"/>
       <use xlink:href="#DejaVuSans-30" x="95.410156"/>
       <use xlink:href="#DejaVuSans-34" x="159.033203"/>
      </g>
     </g>
    </g>
    <g id="ytick_6">
     <g id="line2d_12">
      <g>
       <use xlink:href="#me4df1d51f3" x="56.9" y="47.63705" style="stroke: #000000; stroke-width: 0.8"/>
      </g>
     </g>
     <g id="text_13">
      <!-- 0.05 -->
      <g transform="translate(27.634375 51.436269) scale(0.1 -0.1)">
       <defs>
        <path id="DejaVuSans-35" d="M 691 4666 
L 3169 4666 
L 3169 4134 
L 1269 4134 
L 1269 2991 
Q 1406 3038 1543 3061 
Q 1681 3084 1819 3084 
Q 2600 3084 3056 2656 
Q 3513 2228 3513 1497 
Q 3513 744 3044 326 
Q 2575 -91 1722 -91 
Q 1428 -91 1123 -41 
Q 819 9 494 109 
L 494 744 
Q 775 591 1075 516 
Q 1375 441 1709 441 
Q 2250 441 2565 725 
Q 2881 1009 2881 1497 
Q 2881 1984 2565 2268 
Q 2250 2553 1709 2553 
Q 1456 2553 1204 2497 
Q 953 2441 691 2322 
L 691 4666 
z
" transform="scale(0.015625)"/>
       </defs>
       <use xlink:href="#DejaVuSans-30"/>
       <use xlink:href="#DejaVuSans-2e" x="63.623047"/>
       <use xlink:href="#DejaVuSans-30" x="95.410156"/>
       <use xlink:href="#DejaVuSans-35" x="159.033203"/>
      </g>
     </g>
    </g>
    <g id="ytick_7">
     <g id="line2d_13">
      <g>
       <use xlink:href="#me4df1d51f3" x="56.9" y="14.883256" style="stroke: #000000; stroke-width: 0.8"/>
      </g>
     </g>
     <g id="text_14">
      <!-- 0.06 -->
      <g transform="translate(27.634375 18.682475) scale(0.1 -0.1)">
       <use xlink:href="#DejaVuSans-30"/>
       <use xlink:href="#DejaVuSans-2e" x="63.623047"/>
       <use xlink:href="#DejaVuSans-30" x="95.410156"/>
       <use xlink:href="#DejaVuSans-36" x="159.033203"/>
      </g>
     </g>
    </g>
    <g id="text_15">
     <!-- Spearman Correlation -->
     <g transform="translate(21.13875 193.184966) rotate(-90) scale(0.12 -0.12)">
      <defs>
       <path id="DejaVuSans-53" d="M 3425 4513 
L 3425 3897 
Q 3066 4069 2747 4153 
Q 2428 4238 2131 4238 
Q 1616 4238 1336 4038 
Q 1056 3838 1056 3469 
Q 1056 3159 1242 3001 
Q 1428 2844 1947 2747 
L 2328 2669 
Q 3034 2534 3370 2195 
Q 3706 1856 3706 1288 
Q 3706 609 3251 259 
Q 2797 -91 1919 -91 
Q 1588 -91 1214 -16 
Q 841 59 441 206 
L 441 856 
Q 825 641 1194 531 
Q 1563 422 1919 422 
Q 2459 422 2753 634 
Q 3047 847 3047 1241 
Q 3047 1584 2836 1778 
Q 2625 1972 2144 2069 
L 1759 2144 
Q 1053 2284 737 2584 
Q 422 2884 422 3419 
Q 422 4038 858 4394 
Q 1294 4750 2059 4750 
Q 2388 4750 2728 4690 
Q 3069 4631 3425 4513 
z
" transform="scale(0.015625)"/>
       <path id="DejaVuSans-70" d="M 1159 525 
L 1159 -1331 
L 581 -1331 
L 581 3500 
L 1159 3500 
L 1159 2969 
Q 1341 3281 1617 3432 
Q 1894 3584 2278 3584 
Q 2916 3584 3314 3078 
Q 3713 2572 3713 1747 
Q 3713 922 3314 415 
Q 2916 -91 2278 -91 
Q 1894 -91 1617 61 
Q 1341 213 1159 525 
z
M 3116 1747 
Q 3116 2381 2855 2742 
Q 2594 3103 2138 3103 
Q 1681 3103 1420 2742 
Q 1159 2381 1159 1747 
Q 1159 1113 1420 752 
Q 1681 391 2138 391 
Q 2594 391 2855 752 
Q 3116 1113 3116 1747 
z
" transform="scale(0.015625)"/>
       <path id="DejaVuSans-61" d="M 2194 1759 
Q 1497 1759 1228 1600 
Q 959 1441 959 1056 
Q 959 750 1161 570 
Q 1363 391 1709 391 
Q 2188 391 2477 730 
Q 2766 1069 2766 1631 
L 2766 1759 
L 2194 1759 
z
M 3341 1997 
L 3341 0 
L 2766 0 
L 2766 531 
Q 2569 213 2275 61 
Q 1981 -91 1556 -91 
Q 1019 -91 701 211 
Q 384 513 384 1019 
Q 384 1609 779 1909 
Q 1175 2209 1959 2209 
L 2766 2209 
L 2766 2266 
Q 2766 2663 2505 2880 
Q 2244 3097 1772 3097 
Q 1472 3097 1187 3025 
Q 903 2953 641 2809 
L 641 3341 
Q 956 3463 1253 3523 
Q 1550 3584 1831 3584 
Q 2591 3584 2966 3190 
Q 3341 2797 3341 1997 
z
" transform="scale(0.015625)"/>
       <path id="DejaVuSans-72" d="M 2631 2963 
Q 2534 3019 2420 3045 
Q 2306 3072 2169 3072 
Q 1681 3072 1420 2755 
Q 1159 2438 1159 1844 
L 1159 0 
L 581 0 
L 581 3500 
L 1159 3500 
L 1159 2956 
Q 1341 3275 1631 3429 
Q 1922 3584 2338 3584 
Q 2397 3584 2469 3576 
Q 2541 3569 2628 3553 
L 2631 2963 
z
" transform="scale(0.015625)"/>
       <path id="DejaVuSans-6e" d="M 3513 2113 
L 3513 0 
L 2938 0 
L 2938 2094 
Q 2938 2591 2744 2837 
Q 2550 3084 2163 3084 
Q 1697 3084 1428 2787 
Q 1159 2491 1159 1978 
L 1159 0 
L 581 0 
L 581 3500 
L 1159 3500 
L 1159 2956 
Q 1366 3272 1645 3428 
Q 1925 3584 2291 3584 
Q 2894 3584 3203 3211 
Q 3513 2838 3513 2113 
z
" transform="scale(0.015625)"/>
       <path id="DejaVuSans-43" d="M 4122 4306 
L 4122 3641 
Q 3803 3938 3442 4084 
Q 3081 4231 2675 4231 
Q 1875 4231 1450 3742 
Q 1025 3253 1025 2328 
Q 1025 1406 1450 917 
Q 1875 428 2675 428 
Q 3081 428 3442 575 
Q 3803 722 4122 1019 
L 4122 359 
Q 3791 134 3420 21 
Q 3050 -91 2638 -91 
Q 1578 -91 968 557 
Q 359 1206 359 2328 
Q 359 3453 968 4101 
Q 1578 4750 2638 4750 
Q 3056 4750 3426 4639 
Q 3797 4528 4122 4306 
z
" transform="scale(0.015625)"/>
       <path id="DejaVuSans-6f" d="M 1959 3097 
Q 1497 3097 1228 2736 
Q 959 2375 959 1747 
Q 959 1119 1226 758 
Q 1494 397 1959 397 
Q 2419 397 2687 759 
Q 2956 1122 2956 1747 
Q 2956 2369 2687 2733 
Q 2419 3097 1959 3097 
z
M 1959 3584 
Q 2709 3584 3137 3096 
Q 3566 2609 3566 1747 
Q 3566 888 3137 398 
Q 2709 -91 1959 -91 
Q 1206 -91 779 398 
Q 353 888 353 1747 
Q 353 2609 779 3096 
Q 1206 3584 1959 3584 
z
" transform="scale(0.015625)"/>
       <path id="DejaVuSans-6c" d="M 603 4863 
L 1178 4863 
L 1178 0 
L 603 0 
L 603 4863 
z
" transform="scale(0.015625)"/>
       <path id="DejaVuSans-74" d="M 1172 4494 
L 1172 3500 
L 2356 3500 
L 2356 3053 
L 1172 3053 
L 1172 1153 
Q 1172 725 1289 603 
Q 1406 481 1766 481 
L 2356 481 
L 2356 0 
L 1766 0 
Q 1100 0 847 248 
Q 594 497 594 1153 
L 594 3053 
L 172 3053 
L 172 3500 
L 594 3500 
L 594 4494 
L 1172 4494 
z
" transform="scale(0.015625)"/>
      </defs>
      <use xlink:href="#DejaVuSans-53"/>
      <use xlink:href="#DejaVuSans-70" x="63.476562"/>
      <use xlink:href="#DejaVuSans-65" x="126.953125"/>
      <use xlink:href="#DejaVuSans-61" x="188.476562"/>
      <use xlink:href="#DejaVuSans-72" x="249.755859"/>
      <use xlink:href="#DejaVuSans-6d" x="289.119141"/>
      <use xlink:href="#DejaVuSans-61" x="386.53125"/>
      <use xlink:href="#DejaVuSans-6e" x="447.810547"/>
      <use xlink:href="#DejaVuSans-20" x="511.189453"/>
      <use xlink:href="#DejaVuSans-43" x="542.976562"/>
      <use xlink:href="#DejaVuSans-6f" x="612.800781"/>
      <use xlink:href="#DejaVuSans-72" x="673.982422"/>
      <use xlink:href="#DejaVuSans-72" x="713.345703"/>
      <use xlink:href="#DejaVuSans-65" x="752.208984"/>
      <use xlink:href="#DejaVuSans-6c" x="813.732422"/>
      <use xlink:href="#DejaVuSans-61" x="841.515625"/>
      <use xlink:href="#DejaVuSans-74" x="902.794922"/>
      <use xlink:href="#DejaVuSans-69" x="942.003906"/>
      <use xlink:href="#DejaVuSans-6f" x="969.787109"/>
      <use xlink:href="#DejaVuSans-6e" x="1030.96875"/>
     </g>
    </g>
   </g>
   <g id="line2d_14">
    <path d="M 85.120248 243.16 
L 85.120248 11.886807 
" clip-path="url(#p5a16b2e886)" style="fill: none; stroke-dasharray: 5.55,2.4; stroke-dashoffset: 0; stroke: #d3d3d3; stroke-width: 1.5"/>
   </g>
   <g id="line2d_15">
    <path d="M 56.9 211.40602 
L 277.2 211.40602 
" clip-path="url(#p5a16b2e886)" style="fill: none; stroke-dasharray: 5.55,2.4; stroke-dashoffset: 0; stroke: #d3d3d3; stroke-width: 1.5"/>
   </g>
   <g id="line2d_16">
    <path d="M 66.913636 217.491393 
L 68.344156 220.868499 
L 69.774675 214.444047 
L 71.205195 186.794772 
L 72.635714 195.718124 
L 74.066234 217.274539 
L 75.496753 228.105067 
L 76.927273 223.914255 
L 78.357792 224.596531 
L 79.788312 215.589214 
L 81.218831 200.722009 
L 82.649351 203.414226 
L 84.07987 203.130458 
L 86.940909 197.59236 
L 88.371429 196.814663 
L 89.801948 199.03023 
L 91.232468 190.405969 
L 92.662987 196.001473 
L 94.093506 209.648969 
L 95.524026 213.041118 
L 96.954545 195.164251 
L 98.385065 140.791718 
L 99.815584 90.856092 
L 101.246104 77.577689 
L 102.676623 74.513565 
L 104.107143 68.553766 
L 105.537662 53.53642 
L 106.968182 46.993022 
L 108.398701 42.060989 
L 109.829221 31.603643 
L 111.25974 30.828474 
L 112.69026 43.320353 
L 114.120779 59.234413 
L 115.551299 68.916259 
L 116.981818 62.74101 
L 118.412338 62.168069 
L 121.273377 81.04929 
L 122.703896 86.79482 
L 124.134416 76.423336 
L 125.564935 72.573882 
L 126.995455 75.659906 
L 128.425974 73.241426 
L 129.856494 75.644671 
L 131.287013 79.686417 
L 132.717532 76.243619 
L 134.148052 74.848397 
L 135.578571 77.228348 
L 137.009091 90.031162 
L 138.43961 91.036855 
L 139.87013 90.538172 
L 141.300649 93.142707 
L 144.161688 114.086291 
L 145.592208 119.005817 
L 147.022727 118.810551 
L 148.453247 119.168568 
L 149.883766 121.923174 
L 151.314286 123.378645 
L 152.744805 122.468518 
L 154.175325 125.835684 
L 155.605844 122.566041 
L 157.036364 117.736875 
L 158.466883 118.709979 
L 159.897403 120.454512 
L 161.327922 123.792886 
L 162.758442 128.599457 
L 164.188961 133.01506 
L 167.05 131.916533 
L 168.480519 132.439452 
L 169.911039 138.683565 
L 171.341558 142.588776 
L 172.772078 146.924755 
L 174.202597 151.726947 
L 175.633117 150.440041 
L 177.063636 149.602795 
L 178.494156 147.919485 
L 179.924675 147.735895 
L 181.355195 149.751113 
L 182.785714 146.225502 
L 184.216234 145.197375 
L 185.646753 145.826803 
L 187.077273 145.272891 
L 188.507792 151.730605 
L 189.938312 156.45786 
L 191.368831 152.342216 
L 192.799351 149.754865 
L 194.22987 148.969714 
L 195.66039 153.668969 
L 197.090909 153.219204 
L 198.521429 151.81634 
L 199.951948 155.160569 
L 201.382468 160.70814 
L 202.812987 165.425172 
L 204.243506 166.036171 
L 205.674026 167.700895 
L 207.104545 167.692682 
L 208.535065 166.769795 
L 209.965584 164.126823 
L 211.396104 167.609327 
L 212.826623 169.324424 
L 214.257143 168.316657 
L 215.687662 161.324832 
L 217.118182 155.393396 
L 218.548701 154.447218 
L 219.979221 156.856834 
L 221.40974 156.31872 
L 222.84026 156.542399 
L 224.270779 157.814958 
L 225.701299 158.818201 
L 227.131818 158.917576 
L 228.562338 159.80318 
L 229.992857 160.129606 
L 231.423377 158.764003 
L 232.853896 159.671646 
L 234.284416 161.320109 
L 235.714935 158.869951 
L 237.145455 156.696755 
L 238.575974 158.014357 
L 240.006494 164.463202 
L 241.437013 170.169786 
L 242.867532 171.031334 
L 244.298052 173.064736 
L 245.728571 170.187091 
L 247.159091 168.723955 
L 248.58961 164.095398 
L 250.02013 157.469725 
L 251.450649 159.348496 
L 252.881169 163.449161 
L 254.311688 163.688187 
L 257.172727 166.13971 
L 258.603247 166.581826 
L 260.033766 170.129415 
L 262.894805 179.415801 
L 264.325325 178.600458 
L 265.755844 175.596728 
L 267.186364 175.479573 
L 267.186364 175.479573 
" clip-path="url(#p5a16b2e886)" style="fill: none; stroke: #13594e; stroke-width: 1.5; stroke-linecap: square"/>
   </g>
   <g id="line2d_17">
    <path d="M 66.913636 218.981877 
L 68.344156 220.231206 
L 69.774675 208.422694 
L 71.205195 187.606538 
L 72.635714 193.173275 
L 74.066234 220.995669 
L 75.496753 230.556771 
L 76.927273 224.536209 
L 78.357792 219.304381 
L 79.788312 207.780374 
L 81.218831 198.455224 
L 82.649351 198.028877 
L 84.07987 200.835694 
L 85.51039 201.513136 
L 86.940909 195.241529 
L 89.801948 194.445716 
L 91.232468 190.215235 
L 92.662987 197.148775 
L 94.093506 206.637041 
L 95.524026 209.505147 
L 96.954545 188.136055 
L 98.385065 135.778796 
L 99.815584 89.020455 
L 101.246104 71.252654 
L 102.676623 66.676866 
L 104.107143 58.070214 
L 105.537662 46.40961 
L 106.968182 41.288549 
L 108.398701 35.108576 
L 109.829221 28.276797 
L 111.25974 27.82158 
L 112.69026 36.797249 
L 114.120779 52.352686 
L 115.551299 61.01346 
L 116.981818 60.491586 
L 118.412338 60.43514 
L 119.842857 67.290382 
L 121.273377 76.776395 
L 122.703896 79.596183 
L 124.134416 74.888256 
L 125.564935 71.867029 
L 126.995455 70.804771 
L 129.856494 72.546725 
L 131.287013 73.546465 
L 132.717532 73.79218 
L 134.148052 71.606843 
L 135.578571 76.523315 
L 137.009091 83.075537 
L 138.43961 87.711158 
L 139.87013 88.469038 
L 141.300649 93.261846 
L 144.161688 109.384099 
L 145.592208 114.810134 
L 147.022727 116.143104 
L 148.453247 118.022607 
L 149.883766 120.095527 
L 151.314286 121.205773 
L 152.744805 122.559869 
L 154.175325 122.440059 
L 155.605844 120.055197 
L 157.036364 117.361386 
L 158.466883 117.248841 
L 159.897403 119.44624 
L 161.327922 122.486265 
L 162.758442 127.068913 
L 164.188961 130.205478 
L 165.619481 130.674882 
L 167.05 130.964537 
L 168.480519 132.463213 
L 169.911039 136.454477 
L 172.772078 146.577733 
L 174.202597 149.46515 
L 175.633117 150.024874 
L 177.063636 148.661228 
L 178.494156 147.083581 
L 179.924675 147.611731 
L 181.355195 147.890363 
L 182.785714 146.022812 
L 184.216234 144.863448 
L 185.646753 144.424308 
L 187.077273 145.767111 
L 188.507792 149.861979 
L 189.938312 152.530739 
L 191.368831 151.733644 
L 192.799351 149.50973 
L 194.22987 149.909787 
L 195.66039 151.678407 
L 198.521429 152.833149 
L 199.951948 155.630286 
L 201.382468 159.121658 
L 202.812987 163.034813 
L 204.243506 165.95275 
L 205.674026 167.13833 
L 207.104545 167.131855 
L 208.535065 166.886794 
L 209.965584 166.072709 
L 212.826623 167.168324 
L 214.257143 165.65644 
L 215.687662 161.258073 
L 217.118182 156.163526 
L 218.548701 154.161613 
L 219.979221 154.959075 
L 221.40974 155.181155 
L 222.84026 155.655457 
L 225.701299 157.796927 
L 227.131818 158.227906 
L 228.562338 159.043092 
L 231.423377 159.268089 
L 232.853896 159.18449 
L 234.284416 159.284018 
L 237.145455 156.666833 
L 238.575974 159.196268 
L 240.006494 164.342444 
L 241.437013 168.356619 
L 242.867532 171.449183 
L 244.298052 172.122461 
L 245.728571 170.084423 
L 247.159091 167.500383 
L 248.58961 163.293161 
L 250.02013 159.628115 
L 251.450649 159.448876 
L 252.881169 161.718303 
L 254.311688 163.55525 
L 255.742208 164.35559 
L 257.172727 165.509518 
L 258.603247 167.158963 
L 260.033766 170.305864 
L 261.464286 174.788545 
L 262.894805 177.357245 
L 264.325325 177.471674 
L 265.755844 176.120079 
L 267.186364 175.393592 
L 267.186364 175.393592 
" clip-path="url(#p5a16b2e886)" style="fill: none; stroke: #1d8676; stroke-width: 1.5; stroke-linecap: square"/>
   </g>
   <g id="line2d_18">
    <path d="M 66.913636 220.139393 
L 68.344156 217.49204 
L 69.774675 206.323071 
L 71.205195 190.369849 
L 72.635714 193.918471 
L 74.066234 218.781435 
L 75.496753 232.647582 
L 76.927273 229.462888 
L 78.357792 214.189964 
L 79.788312 195.910971 
L 81.218831 195.370811 
L 82.649351 196.743395 
L 84.07987 202.064793 
L 85.51039 196.890999 
L 86.940909 194.634768 
L 88.371429 190.201103 
L 89.801948 189.716714 
L 91.232468 191.076053 
L 92.662987 195.945923 
L 94.093506 199.807105 
L 95.524026 196.926542 
L 96.954545 171.742146 
L 98.385065 126.09397 
L 99.815584 85.965259 
L 101.246104 65.701648 
L 102.676623 53.35822 
L 104.107143 43.594311 
L 105.537662 36.652321 
L 106.968182 30.961121 
L 108.398701 25.827519 
L 109.829221 22.399225 
L 111.25974 23.412875 
L 112.69026 28.28688 
L 114.120779 41.121968 
L 115.551299 51.768166 
L 116.981818 56.140892 
L 118.412338 58.918094 
L 119.842857 63.551699 
L 121.273377 69.022937 
L 122.703896 72.356767 
L 124.134416 72.492504 
L 125.564935 70.344575 
L 126.995455 68.832437 
L 128.425974 69.101341 
L 129.856494 69.086973 
L 131.287013 68.92496 
L 132.717532 69.767625 
L 134.148052 71.981171 
L 135.578571 74.75237 
L 137.009091 78.368056 
L 138.43961 82.539416 
L 139.87013 88.659146 
L 142.731169 99.195985 
L 145.592208 109.467732 
L 147.022727 113.214545 
L 148.453247 116.320029 
L 149.883766 118.341232 
L 151.314286 119.864261 
L 152.744805 119.861463 
L 157.036364 117.610179 
L 158.466883 117.459782 
L 159.897403 118.807921 
L 162.758442 124.566119 
L 164.188961 127.089266 
L 165.619481 128.653445 
L 167.05 130.592306 
L 168.480519 132.72482 
L 169.911039 136.068729 
L 171.341558 140.721348 
L 172.772078 144.915764 
L 174.202597 147.609705 
L 175.633117 148.281329 
L 177.063636 147.506931 
L 178.494156 146.944273 
L 179.924675 146.643432 
L 182.785714 145.51207 
L 184.216234 144.346693 
L 185.646753 144.827255 
L 187.077273 146.600867 
L 189.938312 149.061107 
L 192.799351 149.978923 
L 194.22987 150.021507 
L 195.66039 150.515267 
L 197.090909 151.236487 
L 198.521429 153.992621 
L 199.951948 156.010317 
L 201.382468 157.793864 
L 204.243506 164.490841 
L 205.674026 166.027024 
L 207.104545 166.241275 
L 208.535065 166.948822 
L 209.965584 167.122709 
L 211.396104 166.161261 
L 212.826623 164.400885 
L 214.257143 162.964366 
L 215.687662 160.941308 
L 217.118182 157.602654 
L 218.548701 154.730139 
L 219.979221 153.572152 
L 222.84026 154.767371 
L 225.701299 156.776363 
L 227.131818 157.445731 
L 228.562338 157.728378 
L 229.992857 158.605902 
L 231.423377 159.011628 
L 232.853896 158.472562 
L 234.284416 157.51956 
L 235.714935 157.206119 
L 237.145455 158.137738 
L 238.575974 160.789833 
L 242.867532 170.012044 
L 244.298052 170.792473 
L 245.728571 168.942617 
L 247.159091 165.88934 
L 248.58961 163.23344 
L 250.02013 161.436191 
L 251.450649 160.32482 
L 252.881169 160.928377 
L 254.311688 162.744805 
L 255.742208 164.314681 
L 257.172727 165.646958 
L 258.603247 167.945727 
L 260.033766 171.312756 
L 261.464286 174.096419 
L 262.894805 175.368126 
L 264.325325 176.004639 
L 265.755844 176.441555 
L 267.186364 175.805166 
L 267.186364 175.805166 
" clip-path="url(#p5a16b2e886)" style="fill: none; stroke: #59e5d0; stroke-width: 1.5; stroke-linecap: square"/>
   </g>
   <g id="patch_3">
    <path d="M 56.9 243.16 
L 56.9 11.886807 
" style="fill: none; stroke: #000000; stroke-width: 0.8; stroke-linejoin: miter; stroke-linecap: square"/>
   </g>
   <g id="patch_4">
    <path d="M 56.9 243.16 
L 277.2 243.16 
" style="fill: none; stroke: #000000; stroke-width: 0.8; stroke-linejoin: miter; stroke-linecap: square"/>
   </g>
   <g id="legend_1">
    <g id="patch_5">
     <path d="M 175.43125 63.921182 
L 270.2 63.921182 
Q 272.2 63.921182 272.2 61.921182 
L 272.2 18.886807 
Q 272.2 16.886807 270.2 16.886807 
L 175.43125 16.886807 
Q 173.43125 16.886807 173.43125 18.886807 
L 173.43125 61.921182 
Q 173.43125 63.921182 175.43125 63.921182 
z
" style="fill: #ffffff; opacity: 0.8; stroke: #cccccc; stroke-linejoin: miter"/>
    </g>
    <g id="line2d_19">
     <path d="M 177.43125 24.985245 
L 187.43125 24.985245 
L 197.43125 24.985245 
" style="fill: none; stroke: #13594e; stroke-width: 1.5; stroke-linecap: square"/>
    </g>
    <g id="text_16">
     <!-- n = 0 (Base) -->
     <g transform="translate(205.43125 28.485245) scale(0.1 -0.1)">
      <defs>
       <path id="DejaVuSans-3d" d="M 678 2906 
L 4684 2906 
L 4684 2381 
L 678 2381 
L 678 2906 
z
M 678 1631 
L 4684 1631 
L 4684 1100 
L 678 1100 
L 678 1631 
z
" transform="scale(0.015625)"/>
       <path id="DejaVuSans-42" d="M 1259 2228 
L 1259 519 
L 2272 519 
Q 2781 519 3026 730 
Q 3272 941 3272 1375 
Q 3272 1813 3026 2020 
Q 2781 2228 2272 2228 
L 1259 2228 
z
M 1259 4147 
L 1259 2741 
L 2194 2741 
Q 2656 2741 2882 2914 
Q 3109 3088 3109 3444 
Q 3109 3797 2882 3972 
Q 2656 4147 2194 4147 
L 1259 4147 
z
M 628 4666 
L 2241 4666 
Q 2963 4666 3353 4366 
Q 3744 4066 3744 3513 
Q 3744 3084 3544 2831 
Q 3344 2578 2956 2516 
Q 3422 2416 3680 2098 
Q 3938 1781 3938 1306 
Q 3938 681 3513 340 
Q 3088 0 2303 0 
L 628 0 
L 628 4666 
z
" transform="scale(0.015625)"/>
      </defs>
      <use xlink:href="#DejaVuSans-6e"/>
      <use xlink:href="#DejaVuSans-20" x="63.378906"/>
      <use xlink:href="#DejaVuSans-3d" x="95.166016"/>
      <use xlink:href="#DejaVuSans-20" x="178.955078"/>
      <use xlink:href="#DejaVuSans-30" x="210.742188"/>
      <use xlink:href="#DejaVuSans-20" x="274.365234"/>
      <use xlink:href="#DejaVuSans-28" x="306.152344"/>
      <use xlink:href="#DejaVuSans-42" x="345.166016"/>
      <use xlink:href="#DejaVuSans-61" x="413.769531"/>
      <use xlink:href="#DejaVuSans-73" x="475.048828"/>
      <use xlink:href="#DejaVuSans-65" x="527.148438"/>
      <use xlink:href="#DejaVuSans-29" x="588.671875"/>
     </g>
    </g>
    <g id="line2d_20">
     <path d="M 177.43125 39.66337 
L 187.43125 39.66337 
L 197.43125 39.66337 
" style="fill: none; stroke: #1d8676; stroke-width: 1.5; stroke-linecap: square"/>
    </g>
    <g id="text_17">
     <!-- n = 3 -->
     <g transform="translate(205.43125 43.16337) scale(0.1 -0.1)">
      <use xlink:href="#DejaVuSans-6e"/>
      <use xlink:href="#DejaVuSans-20" x="63.378906"/>
      <use xlink:href="#DejaVuSans-3d" x="95.166016"/>
      <use xlink:href="#DejaVuSans-20" x="178.955078"/>
      <use xlink:href="#DejaVuSans-33" x="210.742188"/>
     </g>
    </g>
    <g id="line2d_21">
     <path d="M 177.43125 54.341495 
L 187.43125 54.341495 
L 197.43125 54.341495 
" style="fill: none; stroke: #59e5d0; stroke-width: 1.5; stroke-linecap: square"/>
    </g>
    <g id="text_18">
     <!-- n = 5 -->
     <g transform="translate(205.43125 57.841495) scale(0.1 -0.1)">
      <use xlink:href="#DejaVuSans-6e"/>
      <use xlink:href="#DejaVuSans-20" x="63.378906"/>
      <use xlink:href="#DejaVuSans-3d" x="95.166016"/>
      <use xlink:href="#DejaVuSans-20" x="178.955078"/>
      <use xlink:href="#DejaVuSans-35" x="210.742188"/>
     </g>
    </g>
   </g>
  </g>
 </g>
 <defs>
  <clipPath id="p5a16b2e886">
   <rect x="56.9" y="11.886807" width="220.3" height="231.273193"/>
  </clipPath>
 </defs>
</svg>
