<?xml version="1.0" encoding="utf-8" standalone="no"?>
<!DOCTYPE svg PUBLIC "-//W3C//DTD SVG 1.1//EN"
  "http://www.w3.org/Graphics/SVG/1.1/DTD/svg11.dtd">
<svg xmlns:xlink="http://www.w3.org/1999/xlink" width="360pt" height="360pt" viewBox="0 0 360 360" xmlns="http://www.w3.org/2000/svg" version="1.1">
 <metadata>
  <rdf:RDF xmlns:dc="http://purl.org/dc/elements/1.1/" xmlns:cc="http://creativecommons.org/ns#" xmlns:rdf="http://www.w3.org/1999/02/22-rdf-syntax-ns#">
   <cc:Work>
    <dc:type rdf:resource="http://purl.org/dc/dcmitype/StillImage"/>
    <dc:date>2025-12-03T13:35:39.170923</dc:date>
    <dc:format>image/svg+xml</dc:format>
    <dc:creator>
     <cc:Agent>
      <dc:title>Matplotlib v3.6.2, https://matplotlib.org/</dc:title>
     </cc:Agent>
    </dc:creator>
   </cc:Work>
  </rdf:RDF>
 </metadata>
 <defs>
  <style type="text/css">*{stroke-linejoin: round; stroke-linecap: butt}</style>
 </defs>
 <g id="figure_1">
  <g id="patch_1">
   <path d="M 0 360 
L 360 360 
L 360 0 
L 0 0 
L 0 360 
z
" style="fill: none"/>
  </g>
  <g id="axes_1">
   <g id="patch_2">
    <path d="M 65.27 315.16 
L 349.2 315.16 
L 349.2 10.8 
L 65.27 10.8 
L 65.27 315.16 
z
" style="fill: none"/>
   </g>
   <g id="PolyCollection_1">
    <defs>
     <path id="m8c2a6d29d8" d="M 78.175909 -92.969273 
L 78.175909 -68.492939 
L 80.01961 -69.334153 
L 81.863312 -77.368984 
L 83.707013 -89.355429 
L 85.550714 -86.136286 
L 87.394416 -74.561503 
L 89.238117 -70.647274 
L 91.081818 -80.050866 
L 92.925519 -85.253021 
L 94.769221 -85.811452 
L 96.612922 -81.436153 
L 98.456623 -77.139244 
L 100.300325 -74.564351 
L 102.144026 -80.269942 
L 103.987727 -88.106123 
L 105.831429 -89.001698 
L 107.67513 -93.397989 
L 109.518831 -90.602671 
L 111.362532 -82.34639 
L 113.206234 -78.375786 
L 115.049935 -85.828089 
L 116.893636 -109.188577 
L 118.737338 -151.446501 
L 120.581039 -192.845278 
L 122.42474 -219.290965 
L 124.268442 -233.920018 
L 126.112143 -240.416349 
L 127.955844 -246.30413 
L 129.799545 -255.858999 
L 131.643247 -268.97159 
L 133.486948 -278.198073 
L 135.330649 -281.033017 
L 137.174351 -277.792081 
L 139.018052 -271.676441 
L 140.861753 -267.53027 
L 142.705455 -265.585813 
L 144.549156 -263.026265 
L 146.392857 -256.491865 
L 148.236558 -243.643862 
L 150.08026 -229.488865 
L 151.923961 -217.038348 
L 153.767662 -209.7771 
L 155.611364 -206.952703 
L 157.455065 -206.616785 
L 159.298766 -207.199478 
L 161.142468 -208.571142 
L 162.986169 -207.305351 
L 164.82987 -202.930248 
L 166.673571 -198.411572 
L 168.517273 -193.250895 
L 170.360974 -188.54264 
L 172.204675 -183.438537 
L 174.048377 -181.236045 
L 175.892078 -181.163126 
L 177.735779 -181.115154 
L 179.579481 -180.252382 
L 181.423182 -177.511566 
L 183.266883 -175.666593 
L 185.110584 -173.143006 
L 186.954286 -170.720572 
L 188.797987 -167.889453 
L 190.641688 -164.604174 
L 192.48539 -161.903282 
L 194.329091 -159.246716 
L 196.172792 -158.632966 
L 198.016494 -158.365867 
L 199.860195 -158.362656 
L 201.703896 -158.443739 
L 203.547597 -157.792884 
L 205.391299 -157.862804 
L 207.235 -157.057878 
L 209.078701 -157.256011 
L 210.922403 -155.552294 
L 212.766104 -152.599783 
L 214.609805 -148.212131 
L 216.453506 -144.929995 
L 218.297208 -142.348173 
L 220.140909 -141.597756 
L 221.98461 -141.890004 
L 223.828312 -141.442996 
L 225.672013 -140.740288 
L 227.515714 -140.96339 
L 229.359416 -142.474856 
L 231.203117 -142.942571 
L 233.046818 -142.764891 
L 234.890519 -142.919832 
L 236.734221 -142.089069 
L 238.577922 -140.532962 
L 240.421623 -139.257981 
L 242.265325 -139.810618 
L 244.109026 -140.480127 
L 245.952727 -139.2421 
L 247.796429 -137.072291 
L 249.64013 -135.358714 
L 251.483831 -133.481108 
L 253.327532 -131.596589 
L 255.171234 -130.400435 
L 257.014935 -130.946648 
L 258.858636 -131.209075 
L 260.702338 -130.041876 
L 262.546039 -127.564396 
L 264.38974 -126.905996 
L 266.233442 -128.789167 
L 268.077143 -132.527022 
L 269.920844 -136.429745 
L 271.764545 -141.065766 
L 273.608247 -145.145161 
L 275.451948 -146.942067 
L 277.295649 -146.085893 
L 279.139351 -144.715943 
L 280.983052 -142.741844 
L 282.826753 -140.119224 
L 284.670455 -137.659267 
L 286.514156 -135.884023 
L 288.357857 -135.103874 
L 290.201558 -135.112855 
L 292.04526 -136.316642 
L 293.888961 -136.995047 
L 295.732662 -136.866621 
L 297.576364 -134.122202 
L 299.420065 -129.522257 
L 301.263766 -125.032825 
L 303.107468 -120.943928 
L 304.951169 -117.148918 
L 306.79487 -115.747622 
L 308.638571 -116.067161 
L 310.482273 -118.052855 
L 312.325974 -120.81787 
L 314.169675 -122.563143 
L 316.013377 -124.232522 
L 317.857078 -124.249851 
L 319.700779 -122.716336 
L 321.544481 -121.489442 
L 323.388182 -120.132283 
L 325.231883 -117.270752 
L 327.075584 -113.194205 
L 328.919286 -109.906095 
L 330.762987 -107.35988 
L 332.606688 -105.611644 
L 334.45039 -105.105273 
L 336.294091 -106.016791 
L 336.294091 -129.581281 
L 336.294091 -129.581281 
L 334.45039 -128.169062 
L 332.606688 -128.218995 
L 330.762987 -129.45135 
L 328.919286 -131.393845 
L 327.075584 -135.236972 
L 325.231883 -140.746649 
L 323.388182 -144.956404 
L 321.544481 -147.54816 
L 319.700779 -150.347858 
L 317.857078 -153.192444 
L 316.013377 -153.545251 
L 314.169675 -151.655161 
L 312.325974 -149.739823 
L 310.482273 -146.865604 
L 308.638571 -144.900755 
L 306.79487 -144.905871 
L 304.951169 -146.447487 
L 303.107468 -150.749406 
L 301.263766 -155.939755 
L 299.420065 -162.295012 
L 297.576364 -168.576217 
L 295.732662 -172.315812 
L 293.888961 -172.964431 
L 292.04526 -173.043585 
L 290.201558 -172.731844 
L 288.357857 -173.182021 
L 286.514156 -174.169151 
L 284.670455 -176.440965 
L 282.826753 -179.83437 
L 280.983052 -182.820467 
L 279.139351 -185.340399 
L 277.295649 -187.295991 
L 275.451948 -188.472367 
L 273.608247 -186.043903 
L 271.764545 -180.438958 
L 269.920844 -173.692066 
L 268.077143 -168.31993 
L 266.233442 -164.154738 
L 264.38974 -162.949128 
L 262.546039 -165.424593 
L 260.702338 -170.601897 
L 258.858636 -173.722871 
L 257.014935 -174.86189 
L 255.171234 -174.771586 
L 253.327532 -176.6638 
L 251.483831 -178.596788 
L 249.64013 -180.603966 
L 247.796429 -181.85049 
L 245.952727 -183.54038 
L 244.109026 -185.365627 
L 242.265325 -187.044428 
L 240.421623 -188.162359 
L 238.577922 -190.471541 
L 236.734221 -192.234754 
L 234.890519 -192.90885 
L 233.046818 -192.295357 
L 231.203117 -193.083112 
L 229.359416 -193.798719 
L 227.515714 -193.042183 
L 225.672013 -192.865042 
L 223.828312 -193.587346 
L 221.98461 -192.839019 
L 220.140909 -191.316375 
L 218.297208 -191.382692 
L 216.453506 -193.620173 
L 214.609805 -197.558082 
L 212.766104 -202.731438 
L 210.922403 -205.765653 
L 209.078701 -207.101069 
L 207.235 -205.887932 
L 205.391299 -205.866411 
L 203.547597 -205.439426 
L 201.703896 -206.011428 
L 199.860195 -206.004549 
L 198.016494 -205.946159 
L 196.172792 -205.803726 
L 194.329091 -204.449003 
L 192.48539 -204.495996 
L 190.641688 -204.798576 
L 188.797987 -207.461291 
L 186.954286 -210.20996 
L 185.110584 -213.105342 
L 183.266883 -216.15967 
L 181.423182 -219.449144 
L 179.579481 -224.896048 
L 177.735779 -229.126193 
L 175.892078 -231.227187 
L 174.048377 -231.370723 
L 172.204675 -231.42836 
L 170.360974 -232.036476 
L 168.517273 -232.083953 
L 166.673571 -235.106416 
L 164.82987 -239.673609 
L 162.986169 -244.693815 
L 161.142468 -245.384738 
L 159.298766 -242.304211 
L 157.455065 -242.347013 
L 155.611364 -246.654239 
L 153.767662 -254.469963 
L 151.923961 -267.240367 
L 150.08026 -285.65264 
L 148.236558 -304.214196 
L 146.392857 -319.110592 
L 144.549156 -321.80095 
L 142.705455 -317.377769 
L 140.861753 -316.045499 
L 139.018052 -322.029076 
L 137.174351 -331.408363 
L 135.330649 -335.047645 
L 133.486948 -327.058204 
L 131.643247 -311.106178 
L 129.799545 -297.875579 
L 127.955844 -298.595699 
L 126.112143 -305.929593 
L 124.268442 -304.841561 
L 122.42474 -287.625858 
L 120.581039 -249.45092 
L 118.737338 -188.223186 
L 116.893636 -136.405781 
L 115.049935 -114.483952 
L 113.206234 -107.114488 
L 111.362532 -109.200654 
L 109.518831 -123.677246 
L 107.67513 -132.599615 
L 105.831429 -124.234231 
L 103.987727 -121.482342 
L 102.144026 -114.254814 
L 100.300325 -96.109441 
L 98.456623 -100.410916 
L 96.612922 -113.738796 
L 94.769221 -115.487364 
L 92.925519 -104.057815 
L 91.081818 -93.397112 
L 89.238117 -83.252269 
L 87.394416 -91.229866 
L 85.550714 -115.212674 
L 83.707013 -118.656347 
L 81.863312 -101.757486 
L 80.01961 -91.792151 
L 78.175909 -92.969273 
z
" style="stroke: #0974f1; stroke-opacity: 0.3"/>
    </defs>
    <g clip-path="url(#p869987cfe1)">
     <use xlink:href="#m8c2a6d29d8" x="0" y="360" style="fill: #0974f1; fill-opacity: 0.3; stroke: #0974f1; stroke-opacity: 0.3"/>
    </g>
   </g>
   <g id="PolyCollection_2">
    <defs>
     <path id="m4438209ab5" d="M 78.175909 -95.436182 
L 78.175909 -71.054909 
L 80.01961 -76.787277 
L 81.863312 -80.154552 
L 83.707013 -80.878386 
L 85.550714 -82.883564 
L 87.394416 -82.941423 
L 89.238117 -69.584229 
L 91.081818 -85.688139 
L 92.925519 -85.597415 
L 94.769221 -82.157092 
L 96.612922 -83.845405 
L 98.456623 -83.309451 
L 100.300325 -75.847876 
L 102.144026 -74.170489 
L 103.987727 -79.558074 
L 105.831429 -79.772589 
L 107.67513 -74.388349 
L 109.518831 -70.803337 
L 111.362532 -71.299801 
L 113.206234 -72.663439 
L 115.049935 -84.610478 
L 116.893636 -106.734131 
L 118.737338 -131.625588 
L 120.581039 -155.051399 
L 122.42474 -171.726134 
L 124.268442 -181.631051 
L 126.112143 -188.199621 
L 127.955844 -193.19373 
L 129.799545 -199.403954 
L 131.643247 -206.014784 
L 133.486948 -212.823264 
L 135.330649 -214.435185 
L 137.174351 -210.377875 
L 139.018052 -209.450961 
L 140.861753 -209.813454 
L 142.705455 -208.178385 
L 144.549156 -204.930392 
L 146.392857 -202.05298 
L 148.236558 -196.272287 
L 150.08026 -189.332552 
L 151.923961 -183.431178 
L 153.767662 -181.805841 
L 155.611364 -182.241431 
L 157.455065 -180.919683 
L 159.298766 -178.913644 
L 161.142468 -178.481171 
L 162.986169 -178.091226 
L 164.82987 -177.299631 
L 166.673571 -175.867773 
L 168.517273 -173.4823 
L 170.360974 -172.356755 
L 172.204675 -172.847634 
L 174.048377 -173.893501 
L 175.892078 -174.550288 
L 177.735779 -172.401517 
L 179.579481 -170.760053 
L 181.423182 -169.638337 
L 183.266883 -166.93726 
L 185.110584 -161.532308 
L 186.954286 -158.305178 
L 188.797987 -157.757466 
L 190.641688 -156.983542 
L 192.48539 -154.809345 
L 194.329091 -151.693222 
L 196.172792 -149.688759 
L 198.016494 -147.98882 
L 199.860195 -146.969313 
L 201.703896 -145.246446 
L 203.547597 -144.597779 
L 205.391299 -146.065836 
L 207.235 -147.321109 
L 209.078701 -146.59523 
L 210.922403 -144.743943 
L 212.766104 -140.812727 
L 214.609805 -136.218375 
L 216.453506 -132.056282 
L 218.297208 -129.268401 
L 220.140909 -128.031277 
L 221.98461 -128.498363 
L 223.828312 -129.391862 
L 225.672013 -130.050811 
L 227.515714 -129.069289 
L 229.359416 -128.232389 
L 231.203117 -127.193278 
L 233.046818 -127.258835 
L 234.890519 -127.482195 
L 236.734221 -128.39159 
L 238.577922 -128.86572 
L 240.421623 -129.248492 
L 242.265325 -130.658064 
L 244.109026 -130.72123 
L 245.952727 -129.049277 
L 247.796429 -126.450114 
L 249.64013 -124.913122 
L 251.483831 -123.007418 
L 253.327532 -121.509553 
L 255.171234 -119.627619 
L 257.014935 -118.25885 
L 258.858636 -116.823536 
L 260.702338 -116.789592 
L 262.546039 -116.859975 
L 264.38974 -119.243377 
L 266.233442 -122.875842 
L 268.077143 -124.760966 
L 269.920844 -125.198238 
L 271.764545 -126.857115 
L 273.608247 -129.098911 
L 275.451948 -131.472928 
L 277.295649 -131.847978 
L 279.139351 -130.081865 
L 280.983052 -125.742525 
L 282.826753 -121.899594 
L 284.670455 -120.586752 
L 286.514156 -121.632326 
L 288.357857 -123.649222 
L 290.201558 -125.431654 
L 292.04526 -126.148639 
L 293.888961 -124.835188 
L 295.732662 -123.229893 
L 297.576364 -121.009529 
L 299.420065 -119.380707 
L 301.263766 -118.223716 
L 303.107468 -117.299363 
L 304.951169 -117.098343 
L 306.79487 -117.827228 
L 308.638571 -118.616274 
L 310.482273 -118.877732 
L 312.325974 -118.200931 
L 314.169675 -116.319975 
L 316.013377 -113.050782 
L 317.857078 -109.449298 
L 319.700779 -105.98318 
L 321.544481 -104.118347 
L 323.388182 -101.749403 
L 325.231883 -99.639535 
L 327.075584 -99.244233 
L 328.919286 -99.615246 
L 330.762987 -100.852739 
L 332.606688 -103.454954 
L 334.45039 -106.054719 
L 336.294091 -107.982158 
L 336.294091 -136.257654 
L 336.294091 -136.257654 
L 334.45039 -135.203169 
L 332.606688 -133.757458 
L 330.762987 -131.802771 
L 328.919286 -130.518273 
L 327.075584 -130.215122 
L 325.231883 -130.895788 
L 323.388182 -133.036894 
L 321.544481 -135.344629 
L 319.700779 -137.071613 
L 317.857078 -140.052703 
L 316.013377 -142.319568 
L 314.169675 -144.376356 
L 312.325974 -145.703868 
L 310.482273 -146.304455 
L 308.638571 -146.283805 
L 306.79487 -145.80137 
L 304.951169 -146.118153 
L 303.107468 -147.822894 
L 301.263766 -149.974985 
L 299.420065 -152.473415 
L 297.576364 -155.087753 
L 295.732662 -157.484672 
L 293.888961 -158.381677 
L 292.04526 -158.38714 
L 290.201558 -156.553268 
L 288.357857 -154.712498 
L 286.514156 -152.911617 
L 284.670455 -151.818641 
L 282.826753 -152.552112 
L 280.983052 -155.543044 
L 279.139351 -159.212567 
L 277.295649 -160.653718 
L 275.451948 -159.820648 
L 273.608247 -157.689338 
L 271.764545 -156.131499 
L 269.920844 -154.584916 
L 268.077143 -153.747125 
L 266.233442 -152.063958 
L 264.38974 -148.764088 
L 262.546039 -146.837101 
L 260.702338 -147.044136 
L 258.858636 -146.266936 
L 257.014935 -147.002133 
L 255.171234 -147.974661 
L 253.327532 -149.329898 
L 251.483831 -149.700532 
L 249.64013 -150.384998 
L 247.796429 -150.680468 
L 245.952727 -151.980251 
L 244.109026 -153.250004 
L 242.265325 -154.150602 
L 240.421623 -154.046079 
L 238.577922 -154.816102 
L 236.734221 -156.016713 
L 234.890519 -156.351063 
L 233.046818 -157.100936 
L 231.203117 -158.208717 
L 229.359416 -160.502237 
L 227.515714 -161.942206 
L 225.672013 -163.289489 
L 223.828312 -163.389334 
L 221.98461 -162.534583 
L 220.140909 -162.445285 
L 218.297208 -163.054595 
L 216.453506 -164.838629 
L 214.609805 -167.002702 
L 212.766104 -169.901967 
L 210.922403 -172.768807 
L 209.078701 -174.65262 
L 207.235 -175.064358 
L 205.391299 -174.39998 
L 203.547597 -174.211867 
L 201.703896 -176.361388 
L 199.860195 -179.148077 
L 198.016494 -181.566952 
L 196.172792 -184.48643 
L 194.329091 -186.263911 
L 192.48539 -188.213948 
L 190.641688 -188.155392 
L 188.797987 -186.212495 
L 186.954286 -184.793058 
L 185.110584 -186.823361 
L 183.266883 -191.993746 
L 181.423182 -195.386395 
L 179.579481 -196.994358 
L 177.735779 -198.55086 
L 175.892078 -200.747444 
L 174.048377 -200.812493 
L 172.204675 -200.45241 
L 170.360974 -200.437956 
L 168.517273 -200.735037 
L 166.673571 -202.463064 
L 164.82987 -203.242787 
L 162.986169 -203.643214 
L 161.142468 -204.611037 
L 159.298766 -206.328886 
L 157.455065 -209.202408 
L 155.611364 -210.440788 
L 153.767662 -207.974848 
L 151.923961 -207.527739 
L 150.08026 -212.790524 
L 148.236558 -220.414841 
L 146.392857 -228.355441 
L 144.549156 -232.685564 
L 142.705455 -237.512745 
L 140.861753 -240.265271 
L 139.018052 -239.09152 
L 137.174351 -236.438656 
L 135.330649 -236.524122 
L 133.486948 -232.508052 
L 131.643247 -224.305654 
L 129.799545 -219.29727 
L 127.955844 -220.911888 
L 126.112143 -223.723101 
L 124.268442 -222.042412 
L 122.42474 -211.794936 
L 120.581039 -189.297146 
L 118.737338 -158.028295 
L 116.893636 -130.961247 
L 115.049935 -109.944337 
L 113.206234 -100.366821 
L 111.362532 -103.505553 
L 109.518831 -106.202154 
L 107.67513 -107.654957 
L 105.831429 -107.143662 
L 103.987727 -99.286016 
L 102.144026 -91.525541 
L 100.300325 -91.697264 
L 98.456623 -101.882217 
L 96.612922 -103.081131 
L 94.769221 -104.785041 
L 92.925519 -108.255598 
L 91.081818 -104.561545 
L 89.238117 -91.616122 
L 87.394416 -105.53185 
L 85.550714 -106.603067 
L 83.707013 -100.699582 
L 81.863312 -98.271781 
L 80.01961 -96.317465 
L 78.175909 -95.436182 
z
" style="stroke: #103783; stroke-opacity: 0.3"/>
    </defs>
    <g clip-path="url(#p869987cfe1)">
     <use xlink:href="#m4438209ab5" x="0" y="360" style="fill: #103783; fill-opacity: 0.3; stroke: #103783; stroke-opacity: 0.3"/>
    </g>
   </g>
   <g id="PolyCollection_3">
    <defs>
     <path id="mf1e838117e" d="M 78.175909 -95.071965 
L 78.175909 -66.346807 
L 80.01961 -68.767364 
L 81.863312 -79.619617 
L 83.707013 -94.221091 
L 85.550714 -92.283379 
L 87.394416 -73.22368 
L 89.238117 -58.674545 
L 91.081818 -62.517865 
L 92.925519 -76.839571 
L 94.769221 -88.367066 
L 96.612922 -89.75373 
L 98.456623 -92.151274 
L 100.300325 -88.003104 
L 102.144026 -86.789233 
L 103.987727 -89.072176 
L 105.831429 -92.000954 
L 107.67513 -91.72543 
L 109.518831 -94.836632 
L 111.362532 -94.794026 
L 113.206234 -89.518593 
L 115.049935 -91.788843 
L 116.893636 -120.317783 
L 118.737338 -170.697931 
L 120.581039 -210.546422 
L 122.42474 -230.440682 
L 124.268442 -244.567885 
L 126.112143 -259.797685 
L 127.955844 -272.68026 
L 129.799545 -283.549924 
L 131.643247 -291.09758 
L 133.486948 -292.881038 
L 135.330649 -288.15723 
L 137.174351 -281.298382 
L 139.018052 -267.219739 
L 140.861753 -254.048492 
L 142.705455 -247.834603 
L 144.549156 -243.902418 
L 146.392857 -238.66357 
L 148.236558 -233.20797 
L 150.08026 -230.145072 
L 151.923961 -230.495643 
L 153.767662 -233.496768 
L 155.611364 -235.702904 
L 157.455065 -235.44271 
L 159.298766 -234.914404 
L 161.142468 -234.743301 
L 162.986169 -234.065786 
L 164.82987 -231.827482 
L 166.673571 -228.638012 
L 168.517273 -224.248477 
L 170.360974 -218.757109 
L 172.204675 -210.928136 
L 174.048377 -204.319913 
L 175.892078 -198.746082 
L 177.735779 -193.900276 
L 179.579481 -189.053777 
L 181.423182 -185.505628 
L 183.266883 -181.772275 
L 185.110584 -178.565945 
L 186.954286 -176.222571 
L 188.797987 -175.996904 
L 190.641688 -176.588584 
L 192.48539 -176.112103 
L 194.329091 -174.920589 
L 196.172792 -173.662436 
L 198.016494 -172.079384 
L 199.860195 -169.180756 
L 201.703896 -166.591813 
L 203.547597 -164.520786 
L 205.391299 -163.339201 
L 207.235 -161.180842 
L 209.078701 -158.808849 
L 210.922403 -155.500048 
L 212.766104 -150.501872 
L 214.609805 -145.754555 
L 216.453506 -142.46325 
L 218.297208 -141.097234 
L 220.140909 -141.183234 
L 221.98461 -141.222166 
L 223.828312 -141.270334 
L 225.672013 -142.090672 
L 227.515714 -143.112412 
L 229.359416 -144.721885 
L 231.203117 -144.11209 
L 233.046818 -141.957158 
L 234.890519 -140.202686 
L 236.734221 -139.064432 
L 238.577922 -139.093738 
L 240.421623 -139.398288 
L 242.265325 -140.776574 
L 244.109026 -141.562705 
L 245.952727 -141.63538 
L 247.796429 -138.933046 
L 249.64013 -136.684577 
L 251.483831 -134.46345 
L 253.327532 -130.750652 
L 255.171234 -127.124906 
L 257.014935 -125.882138 
L 258.858636 -125.904289 
L 260.702338 -125.152813 
L 262.546039 -125.15129 
L 264.38974 -126.58796 
L 266.233442 -128.785688 
L 268.077143 -130.21602 
L 269.920844 -131.802172 
L 271.764545 -134.731898 
L 273.608247 -137.685262 
L 275.451948 -139.142381 
L 277.295649 -139.028564 
L 279.139351 -139.24871 
L 280.983052 -138.718379 
L 282.826753 -137.62735 
L 284.670455 -136.589522 
L 286.514156 -135.881083 
L 288.357857 -134.582834 
L 290.201558 -134.244848 
L 292.04526 -134.961514 
L 293.888961 -136.096596 
L 295.732662 -136.628288 
L 297.576364 -136.014775 
L 299.420065 -133.60687 
L 301.263766 -130.948368 
L 303.107468 -127.93678 
L 304.951169 -125.061037 
L 306.79487 -124.587808 
L 308.638571 -127.08265 
L 310.482273 -130.851375 
L 312.325974 -133.766585 
L 314.169675 -135.44635 
L 316.013377 -136.229544 
L 317.857078 -134.940844 
L 319.700779 -132.578859 
L 321.544481 -130.819005 
L 323.388182 -129.502485 
L 325.231883 -127.29142 
L 327.075584 -124.305626 
L 328.919286 -121.962006 
L 330.762987 -120.913719 
L 332.606688 -120.407033 
L 334.45039 -119.972083 
L 336.294091 -120.691848 
L 336.294091 -144.866518 
L 336.294091 -144.866518 
L 334.45039 -144.091427 
L 332.606688 -144.682779 
L 330.762987 -145.671239 
L 328.919286 -147.610148 
L 327.075584 -151.805259 
L 325.231883 -156.728502 
L 323.388182 -159.917168 
L 321.544481 -161.73012 
L 319.700779 -163.657853 
L 317.857078 -165.562595 
L 316.013377 -165.691631 
L 314.169675 -163.86425 
L 312.325974 -161.322339 
L 310.482273 -157.998931 
L 308.638571 -154.595611 
L 306.79487 -152.745203 
L 304.951169 -154.105178 
L 303.107468 -158.328151 
L 301.263766 -162.858229 
L 299.420065 -167.222004 
L 297.576364 -171.043781 
L 295.732662 -172.618607 
L 293.888961 -172.41404 
L 292.04526 -171.310552 
L 290.201558 -170.76097 
L 288.357857 -171.376019 
L 286.514156 -172.139044 
L 284.670455 -172.094535 
L 282.826753 -172.62903 
L 280.983052 -173.89017 
L 279.139351 -175.726725 
L 277.295649 -177.271055 
L 275.451948 -178.640581 
L 273.608247 -177.377629 
L 271.764545 -173.583551 
L 269.920844 -168.670893 
L 268.077143 -165.504951 
L 266.233442 -163.560948 
L 264.38974 -161.623612 
L 262.546039 -160.801875 
L 260.702338 -161.208805 
L 258.858636 -162.119333 
L 257.014935 -162.644752 
L 255.171234 -165.010427 
L 253.327532 -169.55529 
L 251.483831 -173.402854 
L 249.64013 -175.371218 
L 247.796429 -177.862248 
L 245.952727 -181.63398 
L 244.109026 -183.400776 
L 242.265325 -185.346732 
L 240.421623 -186.825046 
L 238.577922 -188.193386 
L 236.734221 -189.314821 
L 234.890519 -190.906296 
L 233.046818 -192.201117 
L 231.203117 -194.212339 
L 229.359416 -194.731368 
L 227.515714 -193.603408 
L 225.672013 -193.175392 
L 223.828312 -192.787956 
L 221.98461 -192.129459 
L 220.140909 -190.846726 
L 218.297208 -189.113691 
L 216.453506 -189.325298 
L 214.609805 -192.36197 
L 212.766104 -197.467193 
L 210.922403 -203.397861 
L 209.078701 -207.943789 
L 207.235 -210.580998 
L 205.391299 -212.976956 
L 203.547597 -215.469575 
L 201.703896 -219.325336 
L 199.860195 -223.275617 
L 198.016494 -227.363576 
L 196.172792 -228.947257 
L 194.329091 -227.335827 
L 192.48539 -224.492754 
L 190.641688 -222.175417 
L 188.797987 -220.971322 
L 186.954286 -220.739083 
L 185.110584 -221.973251 
L 183.266883 -223.514659 
L 181.423182 -227.075982 
L 179.579481 -232.328971 
L 177.735779 -239.727291 
L 175.892078 -246.764649 
L 174.048377 -253.141536 
L 172.204675 -259.333273 
L 170.360974 -265.879337 
L 168.517273 -270.186353 
L 166.673571 -274.289941 
L 164.82987 -277.609924 
L 162.986169 -280.571165 
L 161.142468 -281.87304 
L 159.298766 -281.321375 
L 157.455065 -280.759318 
L 155.611364 -281.130771 
L 153.767662 -279.784947 
L 151.923961 -277.740659 
L 150.08026 -278.410072 
L 148.236558 -283.178226 
L 146.392857 -290.57438 
L 144.549156 -296.219712 
L 142.705455 -298.811082 
L 140.861753 -302.868577 
L 139.018052 -314.704888 
L 137.174351 -330.77543 
L 135.330649 -335.365455 
L 133.486948 -333.022676 
L 131.643247 -326.753187 
L 129.799545 -322.242186 
L 127.955844 -319.743414 
L 126.112143 -316.319492 
L 124.268442 -308.614201 
L 122.42474 -293.74711 
L 120.581039 -266.042836 
L 118.737338 -211.630349 
L 116.893636 -154.78448 
L 115.049935 -124.156129 
L 113.206234 -119.660035 
L 111.362532 -123.454386 
L 109.518831 -134.85094 
L 107.67513 -141.155182 
L 105.831429 -139.741846 
L 103.987727 -132.256097 
L 102.144026 -129.239228 
L 100.300325 -115.87229 
L 98.456623 -124.223904 
L 96.612922 -129.8456 
L 94.769221 -129.963447 
L 92.925519 -98.554209 
L 91.081818 -77.000336 
L 89.238117 -73.362916 
L 87.394416 -91.38489 
L 85.550714 -130.72745 
L 83.707013 -137.125331 
L 81.863312 -114.253227 
L 80.01961 -98.869951 
L 78.175909 -95.071965 
z
" style="stroke: #99f2d1; stroke-opacity: 0.5"/>
    </defs>
    <g clip-path="url(#p869987cfe1)">
     <use xlink:href="#mf1e838117e" x="0" y="360" style="fill: #99f2d1; fill-opacity: 0.5; stroke: #99f2d1; stroke-opacity: 0.5"/>
    </g>
   </g>
   <g id="matplotlib.axis_1">
    <g id="xtick_1">
     <g id="line2d_1">
      <defs>
       <path id="m5c6db43f48" d="M 0 0 
L 0 3.5 
" style="stroke: #000000; stroke-width: 0.8"/>
      </defs>
      <g>
       <use xlink:href="#m5c6db43f48" x="101.641198" y="315.16" style="stroke: #000000; stroke-width: 0.8"/>
      </g>
     </g>
     <g id="text_1">
      <!-- 0.0 -->
      <g transform="translate(93.689636 329.758438) scale(0.1 -0.1)">
       <defs>
        <path id="DejaVuSans-30" d="M 2034 4250 
Q 1547 4250 1301 3770 
Q 1056 3291 1056 2328 
Q 1056 1369 1301 889 
Q 1547 409 2034 409 
Q 2525 409 2770 889 
Q 3016 1369 3016 2328 
Q 3016 3291 2770 3770 
Q 2525 4250 2034 4250 
z
M 2034 4750 
Q 2819 4750 3233 4129 
Q 3647 3509 3647 2328 
Q 3647 1150 3233 529 
Q 2819 -91 2034 -91 
Q 1250 -91 836 529 
Q 422 1150 422 2328 
Q 422 3509 836 4129 
Q 1250 4750 2034 4750 
z
" transform="scale(0.015625)"/>
        <path id="DejaVuSans-2e" d="M 684 794 
L 1344 794 
L 1344 0 
L 684 0 
L 684 794 
z
" transform="scale(0.015625)"/>
       </defs>
       <use xlink:href="#DejaVuSans-30"/>
       <use xlink:href="#DejaVuSans-2e" x="63.623047"/>
       <use xlink:href="#DejaVuSans-30" x="95.410156"/>
      </g>
     </g>
    </g>
    <g id="xtick_2">
     <g id="line2d_2">
      <g>
       <use xlink:href="#m5c6db43f48" x="148.571777" y="315.16" style="stroke: #000000; stroke-width: 0.8"/>
      </g>
     </g>
     <g id="text_2">
      <!-- 0.2 -->
      <g transform="translate(140.620214 329.758438) scale(0.1 -0.1)">
       <defs>
        <path id="DejaVuSans-32" d="M 1228 531 
L 3431 531 
L 3431 0 
L 469 0 
L 469 531 
Q 828 903 1448 1529 
Q 2069 2156 2228 2338 
Q 2531 2678 2651 2914 
Q 2772 3150 2772 3378 
Q 2772 3750 2511 3984 
Q 2250 4219 1831 4219 
Q 1534 4219 1204 4116 
Q 875 4013 500 3803 
L 500 4441 
Q 881 4594 1212 4672 
Q 1544 4750 1819 4750 
Q 2544 4750 2975 4387 
Q 3406 4025 3406 3419 
Q 3406 3131 3298 2873 
Q 3191 2616 2906 2266 
Q 2828 2175 2409 1742 
Q 1991 1309 1228 531 
z
" transform="scale(0.015625)"/>
       </defs>
       <use xlink:href="#DejaVuSans-30"/>
       <use xlink:href="#DejaVuSans-2e" x="63.623047"/>
       <use xlink:href="#DejaVuSans-32" x="95.410156"/>
      </g>
     </g>
    </g>
    <g id="xtick_3">
     <g id="line2d_3">
      <g>
       <use xlink:href="#m5c6db43f48" x="195.502355" y="315.16" style="stroke: #000000; stroke-width: 0.8"/>
      </g>
     </g>
     <g id="text_3">
      <!-- 0.4 -->
      <g transform="translate(187.550793 329.758438) scale(0.1 -0.1)">
       <defs>
        <path id="DejaVuSans-34" d="M 2419 4116 
L 825 1625 
L 2419 1625 
L 2419 4116 
z
M 2253 4666 
L 3047 4666 
L 3047 1625 
L 3713 1625 
L 3713 1100 
L 3047 1100 
L 3047 0 
L 2419 0 
L 2419 1100 
L 313 1100 
L 313 1709 
L 2253 4666 
z
" transform="scale(0.015625)"/>
       </defs>
       <use xlink:href="#DejaVuSans-30"/>
       <use xlink:href="#DejaVuSans-2e" x="63.623047"/>
       <use xlink:href="#DejaVuSans-34" x="95.410156"/>
      </g>
     </g>
    </g>
    <g id="xtick_4">
     <g id="line2d_4">
      <g>
       <use xlink:href="#m5c6db43f48" x="242.432934" y="315.16" style="stroke: #000000; stroke-width: 0.8"/>
      </g>
     </g>
     <g id="text_4">
      <!-- 0.6 -->
      <g transform="translate(234.481371 329.758438) scale(0.1 -0.1)">
       <defs>
        <path id="DejaVuSans-36" d="M 2113 2584 
Q 1688 2584 1439 2293 
Q 1191 2003 1191 1497 
Q 1191 994 1439 701 
Q 1688 409 2113 409 
Q 2538 409 2786 701 
Q 3034 994 3034 1497 
Q 3034 2003 2786 2293 
Q 2538 2584 2113 2584 
z
M 3366 4563 
L 3366 3988 
Q 3128 4100 2886 4159 
Q 2644 4219 2406 4219 
Q 1781 4219 1451 3797 
Q 1122 3375 1075 2522 
Q 1259 2794 1537 2939 
Q 1816 3084 2150 3084 
Q 2853 3084 3261 2657 
Q 3669 2231 3669 1497 
Q 3669 778 3244 343 
Q 2819 -91 2113 -91 
Q 1303 -91 875 529 
Q 447 1150 447 2328 
Q 447 3434 972 4092 
Q 1497 4750 2381 4750 
Q 2619 4750 2861 4703 
Q 3103 4656 3366 4563 
z
" transform="scale(0.015625)"/>
       </defs>
       <use xlink:href="#DejaVuSans-30"/>
       <use xlink:href="#DejaVuSans-2e" x="63.623047"/>
       <use xlink:href="#DejaVuSans-36" x="95.410156"/>
      </g>
     </g>
    </g>
    <g id="xtick_5">
     <g id="line2d_5">
      <g>
       <use xlink:href="#m5c6db43f48" x="289.363512" y="315.16" style="stroke: #000000; stroke-width: 0.8"/>
      </g>
     </g>
     <g id="text_5">
      <!-- 0.8 -->
      <g transform="translate(281.41195 329.758438) scale(0.1 -0.1)">
       <defs>
        <path id="DejaVuSans-38" d="M 2034 2216 
Q 1584 2216 1326 1975 
Q 1069 1734 1069 1313 
Q 1069 891 1326 650 
Q 1584 409 2034 409 
Q 2484 409 2743 651 
Q 3003 894 3003 1313 
Q 3003 1734 2745 1975 
Q 2488 2216 2034 2216 
z
M 1403 2484 
Q 997 2584 770 2862 
Q 544 3141 544 3541 
Q 544 4100 942 4425 
Q 1341 4750 2034 4750 
Q 2731 4750 3128 4425 
Q 3525 4100 3525 3541 
Q 3525 3141 3298 2862 
Q 3072 2584 2669 2484 
Q 3125 2378 3379 2068 
Q 3634 1759 3634 1313 
Q 3634 634 3220 271 
Q 2806 -91 2034 -91 
Q 1263 -91 848 271 
Q 434 634 434 1313 
Q 434 1759 690 2068 
Q 947 2378 1403 2484 
z
M 1172 3481 
Q 1172 3119 1398 2916 
Q 1625 2713 2034 2713 
Q 2441 2713 2670 2916 
Q 2900 3119 2900 3481 
Q 2900 3844 2670 4047 
Q 2441 4250 2034 4250 
Q 1625 4250 1398 4047 
Q 1172 3844 1172 3481 
z
" transform="scale(0.015625)"/>
       </defs>
       <use xlink:href="#DejaVuSans-30"/>
       <use xlink:href="#DejaVuSans-2e" x="63.623047"/>
       <use xlink:href="#DejaVuSans-38" x="95.410156"/>
      </g>
     </g>
    </g>
    <g id="xtick_6">
     <g id="line2d_6">
      <g>
       <use xlink:href="#m5c6db43f48" x="336.294091" y="315.16" style="stroke: #000000; stroke-width: 0.8"/>
      </g>
     </g>
     <g id="text_6">
      <!-- 1.0 -->
      <g transform="translate(328.342528 329.758438) scale(0.1 -0.1)">
       <defs>
        <path id="DejaVuSans-31" d="M 794 531 
L 1825 531 
L 1825 4091 
L 703 3866 
L 703 4441 
L 1819 4666 
L 2450 4666 
L 2450 531 
L 3481 531 
L 3481 0 
L 794 0 
L 794 531 
z
" transform="scale(0.015625)"/>
       </defs>
       <use xlink:href="#DejaVuSans-31"/>
       <use xlink:href="#DejaVuSans-2e" x="63.623047"/>
       <use xlink:href="#DejaVuSans-30" x="95.410156"/>
      </g>
     </g>
    </g>
    <g id="text_7">
     <!-- Time (s) -->
     <g transform="translate(182.840312 344.95625) scale(0.12 -0.12)">
      <defs>
       <path id="DejaVuSans-54" d="M -19 4666 
L 3928 4666 
L 3928 4134 
L 2272 4134 
L 2272 0 
L 1638 0 
L 1638 4134 
L -19 4134 
L -19 4666 
z
" transform="scale(0.015625)"/>
       <path id="DejaVuSans-69" d="M 603 3500 
L 1178 3500 
L 1178 0 
L 603 0 
L 603 3500 
z
M 603 4863 
L 1178 4863 
L 1178 4134 
L 603 4134 
L 603 4863 
z
" transform="scale(0.015625)"/>
       <path id="DejaVuSans-6d" d="M 3328 2828 
Q 3544 3216 3844 3400 
Q 4144 3584 4550 3584 
Q 5097 3584 5394 3201 
Q 5691 2819 5691 2113 
L 5691 0 
L 5113 0 
L 5113 2094 
Q 5113 2597 4934 2840 
Q 4756 3084 4391 3084 
Q 3944 3084 3684 2787 
Q 3425 2491 3425 1978 
L 3425 0 
L 2847 0 
L 2847 2094 
Q 2847 2600 2669 2842 
Q 2491 3084 2119 3084 
Q 1678 3084 1418 2786 
Q 1159 2488 1159 1978 
L 1159 0 
L 581 0 
L 581 3500 
L 1159 3500 
L 1159 2956 
Q 1356 3278 1631 3431 
Q 1906 3584 2284 3584 
Q 2666 3584 2933 3390 
Q 3200 3197 3328 2828 
z
" transform="scale(0.015625)"/>
       <path id="DejaVuSans-65" d="M 3597 1894 
L 3597 1613 
L 953 1613 
Q 991 1019 1311 708 
Q 1631 397 2203 397 
Q 2534 397 2845 478 
Q 3156 559 3463 722 
L 3463 178 
Q 3153 47 2828 -22 
Q 2503 -91 2169 -91 
Q 1331 -91 842 396 
Q 353 884 353 1716 
Q 353 2575 817 3079 
Q 1281 3584 2069 3584 
Q 2775 3584 3186 3129 
Q 3597 2675 3597 1894 
z
M 3022 2063 
Q 3016 2534 2758 2815 
Q 2500 3097 2075 3097 
Q 1594 3097 1305 2825 
Q 1016 2553 972 2059 
L 3022 2063 
z
" transform="scale(0.015625)"/>
       <path id="DejaVuSans-20" transform="scale(0.015625)"/>
       <path id="DejaVuSans-28" d="M 1984 4856 
Q 1566 4138 1362 3434 
Q 1159 2731 1159 2009 
Q 1159 1288 1364 580 
Q 1569 -128 1984 -844 
L 1484 -844 
Q 1016 -109 783 600 
Q 550 1309 550 2009 
Q 550 2706 781 3412 
Q 1013 4119 1484 4856 
L 1984 4856 
z
" transform="scale(0.015625)"/>
       <path id="DejaVuSans-73" d="M 2834 3397 
L 2834 2853 
Q 2591 2978 2328 3040 
Q 2066 3103 1784 3103 
Q 1356 3103 1142 2972 
Q 928 2841 928 2578 
Q 928 2378 1081 2264 
Q 1234 2150 1697 2047 
L 1894 2003 
Q 2506 1872 2764 1633 
Q 3022 1394 3022 966 
Q 3022 478 2636 193 
Q 2250 -91 1575 -91 
Q 1294 -91 989 -36 
Q 684 19 347 128 
L 347 722 
Q 666 556 975 473 
Q 1284 391 1588 391 
Q 1994 391 2212 530 
Q 2431 669 2431 922 
Q 2431 1156 2273 1281 
Q 2116 1406 1581 1522 
L 1381 1569 
Q 847 1681 609 1914 
Q 372 2147 372 2553 
Q 372 3047 722 3315 
Q 1072 3584 1716 3584 
Q 2034 3584 2315 3537 
Q 2597 3491 2834 3397 
z
" transform="scale(0.015625)"/>
       <path id="DejaVuSans-29" d="M 513 4856 
L 1013 4856 
Q 1481 4119 1714 3412 
Q 1947 2706 1947 2009 
Q 1947 1309 1714 600 
Q 1481 -109 1013 -844 
L 513 -844 
Q 928 -128 1133 580 
Q 1338 1288 1338 2009 
Q 1338 2731 1133 3434 
Q 928 4138 513 4856 
z
" transform="scale(0.015625)"/>
      </defs>
      <use xlink:href="#DejaVuSans-54"/>
      <use xlink:href="#DejaVuSans-69" x="57.958984"/>
      <use xlink:href="#DejaVuSans-6d" x="85.742188"/>
      <use xlink:href="#DejaVuSans-65" x="183.154297"/>
      <use xlink:href="#DejaVuSans-20" x="244.677734"/>
      <use xlink:href="#DejaVuSans-28" x="276.464844"/>
      <use xlink:href="#DejaVuSans-73" x="315.478516"/>
      <use xlink:href="#DejaVuSans-29" x="367.578125"/>
     </g>
    </g>
   </g>
   <g id="matplotlib.axis_2">
    <g id="ytick_1">
     <g id="line2d_7">
      <defs>
       <path id="m8feebf52ce" d="M 0 0 
L -3.5 0 
" style="stroke: #000000; stroke-width: 0.8"/>
      </defs>
      <g>
       <use xlink:href="#m8feebf52ce" x="65.27" y="307.50219" style="stroke: #000000; stroke-width: 0.8"/>
      </g>
     </g>
     <g id="text_8">
      <!-- −0.01 -->
      <g transform="translate(27.624688 311.301409) scale(0.1 -0.1)">
       <defs>
        <path id="DejaVuSans-2212" d="M 678 2272 
L 4684 2272 
L 4684 1741 
L 678 1741 
L 678 2272 
z
" transform="scale(0.015625)"/>
       </defs>
       <use xlink:href="#DejaVuSans-2212"/>
       <use xlink:href="#DejaVuSans-30" x="83.789062"/>
       <use xlink:href="#DejaVuSans-2e" x="147.412109"/>
       <use xlink:href="#DejaVuSans-30" x="179.199219"/>
       <use xlink:href="#DejaVuSans-31" x="242.822266"/>
      </g>
     </g>
    </g>
    <g id="ytick_2">
     <g id="line2d_8">
      <g>
       <use xlink:href="#m8feebf52ce" x="65.27" y="269.033415" style="stroke: #000000; stroke-width: 0.8"/>
      </g>
     </g>
     <g id="text_9">
      <!-- 0.00 -->
      <g transform="translate(36.004375 272.832634) scale(0.1 -0.1)">
       <use xlink:href="#DejaVuSans-30"/>
       <use xlink:href="#DejaVuSans-2e" x="63.623047"/>
       <use xlink:href="#DejaVuSans-30" x="95.410156"/>
       <use xlink:href="#DejaVuSans-30" x="159.033203"/>
      </g>
     </g>
    </g>
    <g id="ytick_3">
     <g id="line2d_9">
      <g>
       <use xlink:href="#m8feebf52ce" x="65.27" y="230.56464" style="stroke: #000000; stroke-width: 0.8"/>
      </g>
     </g>
     <g id="text_10">
      <!-- 0.01 -->
      <g transform="translate(36.004375 234.363859) scale(0.1 -0.1)">
       <use xlink:href="#DejaVuSans-30"/>
       <use xlink:href="#DejaVuSans-2e" x="63.623047"/>
       <use xlink:href="#DejaVuSans-30" x="95.410156"/>
       <use xlink:href="#DejaVuSans-31" x="159.033203"/>
      </g>
     </g>
    </g>
    <g id="ytick_4">
     <g id="line2d_10">
      <g>
       <use xlink:href="#m8feebf52ce" x="65.27" y="192.095865" style="stroke: #000000; stroke-width: 0.8"/>
      </g>
     </g>
     <g id="text_11">
      <!-- 0.02 -->
      <g transform="translate(36.004375 195.895084) scale(0.1 -0.1)">
       <use xlink:href="#DejaVuSans-30"/>
       <use xlink:href="#DejaVuSans-2e" x="63.623047"/>
       <use xlink:href="#DejaVuSans-30" x="95.410156"/>
       <use xlink:href="#DejaVuSans-32" x="159.033203"/>
      </g>
     </g>
    </g>
    <g id="ytick_5">
     <g id="line2d_11">
      <g>
       <use xlink:href="#m8feebf52ce" x="65.27" y="153.62709" style="stroke: #000000; stroke-width: 0.8"/>
      </g>
     </g>
     <g id="text_12">
      <!-- 0.03 -->
      <g transform="translate(36.004375 157.426309) scale(0.1 -0.1)">
       <defs>
        <path id="DejaVuSans-33" d="M 2597 2516 
Q 3050 2419 3304 2112 
Q 3559 1806 3559 1356 
Q 3559 666 3084 287 
Q 2609 -91 1734 -91 
Q 1441 -91 1130 -33 
Q 819 25 488 141 
L 488 750 
Q 750 597 1062 519 
Q 1375 441 1716 441 
Q 2309 441 2620 675 
Q 2931 909 2931 1356 
Q 2931 1769 2642 2001 
Q 2353 2234 1838 2234 
L 1294 2234 
L 1294 2753 
L 1863 2753 
Q 2328 2753 2575 2939 
Q 2822 3125 2822 3475 
Q 2822 3834 2567 4026 
Q 2313 4219 1838 4219 
Q 1578 4219 1281 4162 
Q 984 4106 628 3988 
L 628 4550 
Q 988 4650 1302 4700 
Q 1616 4750 1894 4750 
Q 2613 4750 3031 4423 
Q 3450 4097 3450 3541 
Q 3450 3153 3228 2886 
Q 3006 2619 2597 2516 
z
" transform="scale(0.015625)"/>
       </defs>
       <use xlink:href="#DejaVuSans-30"/>
       <use xlink:href="#DejaVuSans-2e" x="63.623047"/>
       <use xlink:href="#DejaVuSans-30" x="95.410156"/>
       <use xlink:href="#DejaVuSans-33" x="159.033203"/>
      </g>
     </g>
    </g>
    <g id="ytick_6">
     <g id="line2d_12">
      <g>
       <use xlink:href="#m8feebf52ce" x="65.27" y="115.158315" style="stroke: #000000; stroke-width: 0.8"/>
      </g>
     </g>
     <g id="text_13">
      <!-- 0.04 -->
      <g transform="translate(36.004375 118.957534) scale(0.1 -0.1)">
       <use xlink:href="#DejaVuSans-30"/>
       <use xlink:href="#DejaVuSans-2e" x="63.623047"/>
       <use xlink:href="#DejaVuSans-30" x="95.410156"/>
       <use xlink:href="#DejaVuSans-34" x="159.033203"/>
      </g>
     </g>
    </g>
    <g id="ytick_7">
     <g id="line2d_13">
      <g>
       <use xlink:href="#m8feebf52ce" x="65.27" y="76.68954" style="stroke: #000000; stroke-width: 0.8"/>
      </g>
     </g>
     <g id="text_14">
      <!-- 0.05 -->
      <g transform="translate(36.004375 80.488759) scale(0.1 -0.1)">
       <defs>
        <path id="DejaVuSans-35" d="M 691 4666 
L 3169 4666 
L 3169 4134 
L 1269 4134 
L 1269 2991 
Q 1406 3038 1543 3061 
Q 1681 3084 1819 3084 
Q 2600 3084 3056 2656 
Q 3513 2228 3513 1497 
Q 3513 744 3044 326 
Q 2575 -91 1722 -91 
Q 1428 -91 1123 -41 
Q 819 9 494 109 
L 494 744 
Q 775 591 1075 516 
Q 1375 441 1709 441 
Q 2250 441 2565 725 
Q 2881 1009 2881 1497 
Q 2881 1984 2565 2268 
Q 2250 2553 1709 2553 
Q 1456 2553 1204 2497 
Q 953 2441 691 2322 
L 691 4666 
z
" transform="scale(0.015625)"/>
       </defs>
       <use xlink:href="#DejaVuSans-30"/>
       <use xlink:href="#DejaVuSans-2e" x="63.623047"/>
       <use xlink:href="#DejaVuSans-30" x="95.410156"/>
       <use xlink:href="#DejaVuSans-35" x="159.033203"/>
      </g>
     </g>
    </g>
    <g id="ytick_8">
     <g id="line2d_14">
      <g>
       <use xlink:href="#m8feebf52ce" x="65.27" y="38.220765" style="stroke: #000000; stroke-width: 0.8"/>
      </g>
     </g>
     <g id="text_15">
      <!-- 0.06 -->
      <g transform="translate(36.004375 42.019984) scale(0.1 -0.1)">
       <use xlink:href="#DejaVuSans-30"/>
       <use xlink:href="#DejaVuSans-2e" x="63.623047"/>
       <use xlink:href="#DejaVuSans-30" x="95.410156"/>
       <use xlink:href="#DejaVuSans-36" x="159.033203"/>
      </g>
     </g>
    </g>
    <g id="text_16">
     <!-- Spearman Correlation -->
     <g transform="translate(21.129063 228.641563) rotate(-90) scale(0.12 -0.12)">
      <defs>
       <path id="DejaVuSans-53" d="M 3425 4513 
L 3425 3897 
Q 3066 4069 2747 4153 
Q 2428 4238 2131 4238 
Q 1616 4238 1336 4038 
Q 1056 3838 1056 3469 
Q 1056 3159 1242 3001 
Q 1428 2844 1947 2747 
L 2328 2669 
Q 3034 2534 3370 2195 
Q 3706 1856 3706 1288 
Q 3706 609 3251 259 
Q 2797 -91 1919 -91 
Q 1588 -91 1214 -16 
Q 841 59 441 206 
L 441 856 
Q 825 641 1194 531 
Q 1563 422 1919 422 
Q 2459 422 2753 634 
Q 3047 847 3047 1241 
Q 3047 1584 2836 1778 
Q 2625 1972 2144 2069 
L 1759 2144 
Q 1053 2284 737 2584 
Q 422 2884 422 3419 
Q 422 4038 858 4394 
Q 1294 4750 2059 4750 
Q 2388 4750 2728 4690 
Q 3069 4631 3425 4513 
z
" transform="scale(0.015625)"/>
       <path id="DejaVuSans-70" d="M 1159 525 
L 1159 -1331 
L 581 -1331 
L 581 3500 
L 1159 3500 
L 1159 2969 
Q 1341 3281 1617 3432 
Q 1894 3584 2278 3584 
Q 2916 3584 3314 3078 
Q 3713 2572 3713 1747 
Q 3713 922 3314 415 
Q 2916 -91 2278 -91 
Q 1894 -91 1617 61 
Q 1341 213 1159 525 
z
M 3116 1747 
Q 3116 2381 2855 2742 
Q 2594 3103 2138 3103 
Q 1681 3103 1420 2742 
Q 1159 2381 1159 1747 
Q 1159 1113 1420 752 
Q 1681 391 2138 391 
Q 2594 391 2855 752 
Q 3116 1113 3116 1747 
z
" transform="scale(0.015625)"/>
       <path id="DejaVuSans-61" d="M 2194 1759 
Q 1497 1759 1228 1600 
Q 959 1441 959 1056 
Q 959 750 1161 570 
Q 1363 391 1709 391 
Q 2188 391 2477 730 
Q 2766 1069 2766 1631 
L 2766 1759 
L 2194 1759 
z
M 3341 1997 
L 3341 0 
L 2766 0 
L 2766 531 
Q 2569 213 2275 61 
Q 1981 -91 1556 -91 
Q 1019 -91 701 211 
Q 384 513 384 1019 
Q 384 1609 779 1909 
Q 1175 2209 1959 2209 
L 2766 2209 
L 2766 2266 
Q 2766 2663 2505 2880 
Q 2244 3097 1772 3097 
Q 1472 3097 1187 3025 
Q 903 2953 641 2809 
L 641 3341 
Q 956 3463 1253 3523 
Q 1550 3584 1831 3584 
Q 2591 3584 2966 3190 
Q 3341 2797 3341 1997 
z
" transform="scale(0.015625)"/>
       <path id="DejaVuSans-72" d="M 2631 2963 
Q 2534 3019 2420 3045 
Q 2306 3072 2169 3072 
Q 1681 3072 1420 2755 
Q 1159 2438 1159 1844 
L 1159 0 
L 581 0 
L 581 3500 
L 1159 3500 
L 1159 2956 
Q 1341 3275 1631 3429 
Q 1922 3584 2338 3584 
Q 2397 3584 2469 3576 
Q 2541 3569 2628 3553 
L 2631 2963 
z
" transform="scale(0.015625)"/>
       <path id="DejaVuSans-6e" d="M 3513 2113 
L 3513 0 
L 2938 0 
L 2938 2094 
Q 2938 2591 2744 2837 
Q 2550 3084 2163 3084 
Q 1697 3084 1428 2787 
Q 1159 2491 1159 1978 
L 1159 0 
L 581 0 
L 581 3500 
L 1159 3500 
L 1159 2956 
Q 1366 3272 1645 3428 
Q 1925 3584 2291 3584 
Q 2894 3584 3203 3211 
Q 3513 2838 3513 2113 
z
" transform="scale(0.015625)"/>
       <path id="DejaVuSans-43" d="M 4122 4306 
L 4122 3641 
Q 3803 3938 3442 4084 
Q 3081 4231 2675 4231 
Q 1875 4231 1450 3742 
Q 1025 3253 1025 2328 
Q 1025 1406 1450 917 
Q 1875 428 2675 428 
Q 3081 428 3442 575 
Q 3803 722 4122 1019 
L 4122 359 
Q 3791 134 3420 21 
Q 3050 -91 2638 -91 
Q 1578 -91 968 557 
Q 359 1206 359 2328 
Q 359 3453 968 4101 
Q 1578 4750 2638 4750 
Q 3056 4750 3426 4639 
Q 3797 4528 4122 4306 
z
" transform="scale(0.015625)"/>
       <path id="DejaVuSans-6f" d="M 1959 3097 
Q 1497 3097 1228 2736 
Q 959 2375 959 1747 
Q 959 1119 1226 758 
Q 1494 397 1959 397 
Q 2419 397 2687 759 
Q 2956 1122 2956 1747 
Q 2956 2369 2687 2733 
Q 2419 3097 1959 3097 
z
M 1959 3584 
Q 2709 3584 3137 3096 
Q 3566 2609 3566 1747 
Q 3566 888 3137 398 
Q 2709 -91 1959 -91 
Q 1206 -91 779 398 
Q 353 888 353 1747 
Q 353 2609 779 3096 
Q 1206 3584 1959 3584 
z
" transform="scale(0.015625)"/>
       <path id="DejaVuSans-6c" d="M 603 4863 
L 1178 4863 
L 1178 0 
L 603 0 
L 603 4863 
z
" transform="scale(0.015625)"/>
       <path id="DejaVuSans-74" d="M 1172 4494 
L 1172 3500 
L 2356 3500 
L 2356 3053 
L 1172 3053 
L 1172 1153 
Q 1172 725 1289 603 
Q 1406 481 1766 481 
L 2356 481 
L 2356 0 
L 1766 0 
Q 1100 0 847 248 
Q 594 497 594 1153 
L 594 3053 
L 172 3053 
L 172 3500 
L 594 3500 
L 594 4494 
L 1172 4494 
z
" transform="scale(0.015625)"/>
      </defs>
      <use xlink:href="#DejaVuSans-53"/>
      <use xlink:href="#DejaVuSans-70" x="63.476562"/>
      <use xlink:href="#DejaVuSans-65" x="126.953125"/>
      <use xlink:href="#DejaVuSans-61" x="188.476562"/>
      <use xlink:href="#DejaVuSans-72" x="249.755859"/>
      <use xlink:href="#DejaVuSans-6d" x="289.119141"/>
      <use xlink:href="#DejaVuSans-61" x="386.53125"/>
      <use xlink:href="#DejaVuSans-6e" x="447.810547"/>
      <use xlink:href="#DejaVuSans-20" x="511.189453"/>
      <use xlink:href="#DejaVuSans-43" x="542.976562"/>
      <use xlink:href="#DejaVuSans-6f" x="612.800781"/>
      <use xlink:href="#DejaVuSans-72" x="673.982422"/>
      <use xlink:href="#DejaVuSans-72" x="713.345703"/>
      <use xlink:href="#DejaVuSans-65" x="752.208984"/>
      <use xlink:href="#DejaVuSans-6c" x="813.732422"/>
      <use xlink:href="#DejaVuSans-61" x="841.515625"/>
      <use xlink:href="#DejaVuSans-74" x="902.794922"/>
      <use xlink:href="#DejaVuSans-69" x="942.003906"/>
      <use xlink:href="#DejaVuSans-6f" x="969.787109"/>
      <use xlink:href="#DejaVuSans-6e" x="1030.96875"/>
     </g>
    </g>
   </g>
   <g id="line2d_15">
    <path d="M 101.641198 315.16 
L 101.641198 10.8 
" clip-path="url(#p869987cfe1)" style="fill: none; stroke-dasharray: 5.55,2.4; stroke-dashoffset: 0; stroke: #d3d3d3; stroke-width: 1.5"/>
   </g>
   <g id="line2d_16">
    <path d="M 65.27 269.033415 
L 349.2 269.033415 
" clip-path="url(#p869987cfe1)" style="fill: none; stroke-dasharray: 5.55,2.4; stroke-dashoffset: 0; stroke: #d3d3d3; stroke-width: 1.5"/>
   </g>
   <g id="line2d_17">
    <path d="M 78.175909 279.268894 
L 80.01961 279.436848 
L 81.863312 270.436765 
L 83.707013 255.994112 
L 85.550714 259.32552 
L 87.394416 277.104315 
L 89.238117 283.050228 
L 91.081818 273.276011 
L 92.925519 265.344582 
L 94.769221 259.350592 
L 96.612922 262.412526 
L 98.456623 271.22492 
L 100.300325 274.663104 
L 102.144026 262.737622 
L 103.987727 255.205768 
L 105.831429 253.382035 
L 107.67513 247.001198 
L 109.518831 252.860042 
L 111.362532 264.226478 
L 113.206234 267.254863 
L 115.049935 259.84398 
L 116.893636 237.202821 
L 118.737338 190.165156 
L 120.581039 138.851901 
L 122.42474 106.541589 
L 124.268442 90.61921 
L 126.112143 86.827029 
L 127.955844 87.550086 
L 129.799545 83.132711 
L 133.486948 57.371861 
L 135.330649 51.959669 
L 137.174351 55.399778 
L 139.018052 63.147241 
L 140.861753 68.212116 
L 142.705455 68.518209 
L 144.549156 67.586393 
L 146.392857 72.198772 
L 148.236558 86.070971 
L 151.923961 117.860642 
L 153.767662 127.876468 
L 155.611364 133.196529 
L 157.455065 135.518101 
L 159.298766 135.248156 
L 161.142468 133.02206 
L 162.986169 134.000417 
L 166.673571 143.241006 
L 168.517273 147.332576 
L 170.360974 149.710442 
L 172.204675 152.566552 
L 174.048377 153.696616 
L 175.892078 153.804843 
L 177.735779 154.879327 
L 179.579481 157.425785 
L 181.423182 161.519645 
L 183.266883 164.086868 
L 190.641688 175.298625 
L 192.48539 176.800361 
L 194.329091 178.152141 
L 196.172792 177.781654 
L 199.860195 177.816398 
L 201.703896 177.772417 
L 203.547597 178.383845 
L 205.391299 178.135393 
L 207.235 178.527095 
L 209.078701 177.82146 
L 210.922403 179.341026 
L 212.766104 182.334389 
L 214.609805 187.114894 
L 216.453506 190.724916 
L 218.297208 193.134568 
L 220.140909 193.542935 
L 221.98461 192.635489 
L 223.828312 192.484829 
L 225.672013 193.197335 
L 227.515714 192.997213 
L 229.359416 191.863213 
L 231.203117 191.987159 
L 233.046818 192.469876 
L 234.890519 192.085659 
L 236.734221 192.838088 
L 240.421623 196.28983 
L 242.265325 196.572477 
L 244.109026 197.077123 
L 245.952727 198.60876 
L 247.796429 200.53861 
L 249.64013 202.01866 
L 253.327532 205.869805 
L 255.171234 207.41399 
L 257.014935 207.095731 
L 258.858636 207.534027 
L 260.702338 209.678114 
L 262.546039 213.505506 
L 264.38974 215.072438 
L 266.233442 213.528047 
L 268.077143 209.576524 
L 269.920844 204.939094 
L 271.764545 199.247638 
L 273.608247 194.405468 
L 275.451948 192.292783 
L 277.295649 193.309058 
L 279.139351 194.971829 
L 280.983052 197.218844 
L 284.670455 202.949884 
L 286.514156 204.973413 
L 288.357857 205.857053 
L 290.201558 206.07765 
L 292.04526 205.319887 
L 293.888961 205.020261 
L 295.732662 205.408783 
L 297.576364 208.65079 
L 301.263766 219.51371 
L 303.107468 224.153333 
L 304.951169 228.201797 
L 306.79487 229.673253 
L 308.638571 229.516042 
L 310.482273 227.54077 
L 312.325974 224.721154 
L 316.013377 221.111114 
L 317.857078 221.278852 
L 319.700779 223.467903 
L 323.388182 227.455656 
L 325.231883 230.9913 
L 327.075584 235.784412 
L 328.919286 239.35003 
L 330.762987 241.594385 
L 332.606688 243.08468 
L 334.45039 243.362832 
L 336.294091 242.200964 
L 336.294091 242.200964 
" clip-path="url(#p869987cfe1)" style="fill: none; stroke: #0974f1; stroke-linecap: square"/>
   </g>
   <g id="line2d_18">
    <path d="M 78.175909 276.754454 
L 80.01961 273.447629 
L 81.863312 270.786833 
L 83.707013 269.211016 
L 85.550714 265.256684 
L 87.394416 265.763364 
L 89.238117 279.399825 
L 91.081818 264.875158 
L 92.925519 263.073493 
L 94.769221 266.528934 
L 96.612922 266.536732 
L 98.456623 267.404166 
L 100.300325 276.22743 
L 102.144026 277.151985 
L 103.987727 270.577955 
L 105.831429 266.541875 
L 109.518831 271.497255 
L 111.362532 272.597323 
L 113.206234 273.48487 
L 115.049935 262.722592 
L 116.893636 241.152311 
L 120.581039 187.825728 
L 122.42474 168.239465 
L 124.268442 158.163268 
L 126.112143 154.038639 
L 127.955844 152.947191 
L 129.799545 150.649388 
L 131.643247 144.839781 
L 133.486948 137.334342 
L 135.330649 134.520346 
L 137.174351 136.591735 
L 140.861753 134.960637 
L 142.705455 137.154435 
L 144.549156 141.192022 
L 146.392857 144.795789 
L 150.08026 158.938462 
L 151.923961 164.520541 
L 153.767662 165.109656 
L 155.611364 163.658891 
L 157.455065 164.938955 
L 159.298766 167.378735 
L 161.142468 168.453896 
L 164.82987 169.728791 
L 166.673571 170.834582 
L 168.517273 172.891332 
L 170.360974 173.602645 
L 172.204675 173.349978 
L 174.048377 172.647003 
L 175.892078 172.351134 
L 177.735779 174.523812 
L 179.579481 176.122794 
L 181.423182 177.487634 
L 183.266883 180.534497 
L 185.110584 185.822165 
L 186.954286 188.450882 
L 188.797987 188.015019 
L 190.641688 187.430533 
L 192.48539 188.488353 
L 194.329091 191.021433 
L 196.172792 192.912405 
L 198.016494 195.222114 
L 199.860195 196.941305 
L 201.703896 199.196083 
L 203.547597 200.595177 
L 205.391299 199.767092 
L 207.235 198.807267 
L 209.078701 199.376075 
L 210.922403 201.243625 
L 212.766104 204.642653 
L 214.609805 208.389461 
L 216.453506 211.552545 
L 218.297208 213.838502 
L 220.140909 214.761719 
L 221.98461 214.483527 
L 223.828312 213.609402 
L 225.672013 213.32985 
L 229.359416 215.632687 
L 231.203117 217.299003 
L 233.046818 217.820115 
L 234.890519 218.083371 
L 236.734221 217.795849 
L 238.577922 218.159089 
L 240.421623 218.352714 
L 242.265325 217.595667 
L 244.109026 218.014383 
L 245.952727 219.485236 
L 247.796429 221.434709 
L 249.64013 222.35094 
L 251.483831 223.646025 
L 253.327532 224.580274 
L 255.171234 226.19886 
L 258.858636 228.454764 
L 260.702338 228.083136 
L 262.546039 228.151462 
L 264.38974 225.996267 
L 266.233442 222.5301 
L 268.077143 220.745954 
L 269.920844 220.108423 
L 271.764545 218.505693 
L 273.608247 216.605876 
L 275.451948 214.353212 
L 277.295649 213.749152 
L 279.139351 215.352784 
L 280.983052 219.357216 
L 282.826753 222.774147 
L 284.670455 223.797304 
L 286.514156 222.728028 
L 290.201558 219.007539 
L 292.04526 217.73211 
L 293.888961 218.391567 
L 295.732662 219.642718 
L 297.576364 221.951359 
L 299.420065 224.072939 
L 301.263766 225.90065 
L 303.107468 227.438871 
L 304.951169 228.391752 
L 306.79487 228.185701 
L 308.638571 227.549961 
L 310.482273 227.408907 
L 312.325974 228.0476 
L 314.169675 229.651835 
L 316.013377 232.314825 
L 317.857078 235.248999 
L 319.700779 238.472604 
L 321.544481 240.268512 
L 323.388182 242.606852 
L 325.231883 244.732339 
L 327.075584 245.270323 
L 328.919286 244.93324 
L 330.762987 243.672245 
L 332.606688 241.393794 
L 334.45039 239.371056 
L 336.294091 237.880094 
L 336.294091 237.880094 
" clip-path="url(#p869987cfe1)" style="fill: none; stroke: #103783; stroke-linecap: square"/>
   </g>
   <g id="line2d_19">
    <path d="M 78.175909 279.290614 
L 80.01961 276.181343 
L 81.863312 263.063578 
L 83.707013 244.326789 
L 85.550714 248.494585 
L 87.394416 277.695715 
L 89.238117 293.981269 
L 91.081818 290.2409 
L 92.925519 272.30311 
L 94.769221 250.834743 
L 96.612922 250.200335 
L 98.456623 251.812411 
L 100.300325 258.062303 
L 102.144026 251.98577 
L 103.987727 249.335864 
L 105.831429 244.1286 
L 107.67513 243.559694 
L 109.518831 245.156214 
L 111.362532 250.875794 
L 113.206234 255.410686 
L 115.049935 252.027514 
L 116.893636 222.448868 
L 118.737338 168.83586 
L 120.581039 121.705371 
L 122.42474 97.906104 
L 124.268442 83.408957 
L 126.112143 71.941411 
L 127.955844 63.788163 
L 129.799545 57.103945 
L 131.643247 51.074616 
L 133.486948 47.048143 
L 135.330649 48.238658 
L 137.174351 53.963094 
L 139.018052 69.037687 
L 140.861753 81.541465 
L 142.705455 86.677158 
L 144.549156 89.938935 
L 146.392857 95.381025 
L 148.236558 101.806902 
L 150.08026 105.722428 
L 151.923961 105.881849 
L 153.767662 103.359142 
L 155.611364 101.583162 
L 157.455065 101.898986 
L 159.298766 101.882111 
L 161.142468 101.69183 
L 162.986169 102.681524 
L 164.82987 105.281297 
L 166.673571 108.536023 
L 168.517273 112.782585 
L 170.360974 117.681777 
L 172.204675 124.869296 
L 174.048377 131.269275 
L 179.579481 149.308626 
L 181.423182 153.709195 
L 183.266883 157.356533 
L 185.110584 159.730402 
L 186.954286 161.519173 
L 188.797987 161.515887 
L 194.329091 158.871792 
L 196.172792 158.695153 
L 198.016494 160.27852 
L 201.703896 167.041425 
L 203.547597 170.00482 
L 205.391299 171.841921 
L 207.235 174.11908 
L 209.078701 176.623681 
L 210.922403 180.551045 
L 212.766104 186.015467 
L 214.609805 190.941738 
L 216.453506 194.105726 
L 218.297208 194.894537 
L 220.140909 193.98502 
L 221.98461 193.324187 
L 223.828312 192.970855 
L 225.672013 192.366968 
L 227.515714 191.64209 
L 229.359416 190.273374 
L 231.203117 190.837786 
L 233.046818 192.920863 
L 234.890519 194.445509 
L 236.734221 195.810374 
L 240.421623 196.888333 
L 242.265325 196.938347 
L 244.109026 197.51826 
L 245.952727 198.36532 
L 247.796429 201.602353 
L 249.64013 203.972103 
L 251.483831 206.066848 
L 253.327532 209.847029 
L 255.171234 213.932333 
L 257.014935 215.736555 
L 258.858636 215.988189 
L 260.702338 216.819191 
L 262.546039 217.023418 
L 264.38974 215.894214 
L 266.233442 213.826682 
L 268.077143 212.139515 
L 269.920844 209.763467 
L 271.764545 205.842275 
L 273.608247 202.468555 
L 275.451948 201.108519 
L 279.139351 202.512283 
L 282.826753 204.87181 
L 284.670455 205.657971 
L 286.514156 205.989936 
L 288.357857 207.020573 
L 290.201558 207.497091 
L 292.04526 206.863967 
L 293.888961 205.744682 
L 295.732662 205.376552 
L 297.576364 206.470722 
L 299.420065 209.585563 
L 301.263766 213.096702 
L 304.951169 220.416893 
L 306.79487 221.333494 
L 308.638571 219.16087 
L 310.482273 215.574847 
L 312.325974 212.455538 
L 314.169675 210.3447 
L 316.013377 209.039413 
L 317.857078 209.748281 
L 319.700779 211.881644 
L 321.544481 213.725437 
L 323.388182 215.290173 
L 325.231883 217.990039 
L 327.075584 221.944558 
L 328.919286 225.213923 
L 330.762987 226.707521 
L 332.606688 227.455094 
L 334.45039 227.968245 
L 336.294091 227.220817 
L 336.294091 227.220817 
" clip-path="url(#p869987cfe1)" style="fill: none; stroke: #99f2d1; stroke-width: 2; stroke-linecap: square"/>
   </g>
   <g id="patch_3">
    <path d="M 65.27 315.16 
L 65.27 10.8 
" style="fill: none; stroke: #000000; stroke-width: 0.8; stroke-linejoin: miter; stroke-linecap: square"/>
   </g>
   <g id="patch_4">
    <path d="M 65.27 315.16 
L 349.2 315.16 
" style="fill: none; stroke: #000000; stroke-width: 0.8; stroke-linejoin: miter; stroke-linecap: square"/>
   </g>
   <g id="text_17">
    <!-- GIST -->
    <g transform="translate(193.342187 4.8) scale(0.12 -0.12)">
     <defs>
      <path id="DejaVuSans-47" d="M 3809 666 
L 3809 1919 
L 2778 1919 
L 2778 2438 
L 4434 2438 
L 4434 434 
Q 4069 175 3628 42 
Q 3188 -91 2688 -91 
Q 1594 -91 976 548 
Q 359 1188 359 2328 
Q 359 3472 976 4111 
Q 1594 4750 2688 4750 
Q 3144 4750 3555 4637 
Q 3966 4525 4313 4306 
L 4313 3634 
Q 3963 3931 3569 4081 
Q 3175 4231 2741 4231 
Q 1884 4231 1454 3753 
Q 1025 3275 1025 2328 
Q 1025 1384 1454 906 
Q 1884 428 2741 428 
Q 3075 428 3337 486 
Q 3600 544 3809 666 
z
" transform="scale(0.015625)"/>
      <path id="DejaVuSans-49" d="M 628 4666 
L 1259 4666 
L 1259 0 
L 628 0 
L 628 4666 
z
" transform="scale(0.015625)"/>
     </defs>
     <use xlink:href="#DejaVuSans-47"/>
     <use xlink:href="#DejaVuSans-49" x="77.490234"/>
     <use xlink:href="#DejaVuSans-53" x="106.982422"/>
     <use xlink:href="#DejaVuSans-54" x="170.458984"/>
    </g>
   </g>
   <g id="legend_1">
    <g id="patch_5">
     <path d="M 247.279687 62.834375 
L 342.2 62.834375 
Q 344.2 62.834375 344.2 60.834375 
L 344.2 17.8 
Q 344.2 15.8 342.2 15.8 
L 247.279687 15.8 
Q 245.279687 15.8 245.279687 17.8 
L 245.279687 60.834375 
Q 245.279687 62.834375 247.279687 62.834375 
z
" style="fill: #ffffff; opacity: 0.8; stroke: #cccccc; stroke-linejoin: miter"/>
    </g>
    <g id="line2d_20">
     <path d="M 249.279687 23.898438 
L 259.279687 23.898438 
L 269.279687 23.898438 
" style="fill: none; stroke: #0974f1; stroke-linecap: square"/>
    </g>
    <g id="text_18">
     <!-- Euclidean -->
     <g transform="translate(277.279687 27.398438) scale(0.1 -0.1)">
      <defs>
       <path id="DejaVuSans-45" d="M 628 4666 
L 3578 4666 
L 3578 4134 
L 1259 4134 
L 1259 2753 
L 3481 2753 
L 3481 2222 
L 1259 2222 
L 1259 531 
L 3634 531 
L 3634 0 
L 628 0 
L 628 4666 
z
" transform="scale(0.015625)"/>
       <path id="DejaVuSans-75" d="M 544 1381 
L 544 3500 
L 1119 3500 
L 1119 1403 
Q 1119 906 1312 657 
Q 1506 409 1894 409 
Q 2359 409 2629 706 
Q 2900 1003 2900 1516 
L 2900 3500 
L 3475 3500 
L 3475 0 
L 2900 0 
L 2900 538 
Q 2691 219 2414 64 
Q 2138 -91 1772 -91 
Q 1169 -91 856 284 
Q 544 659 544 1381 
z
M 1991 3584 
L 1991 3584 
z
" transform="scale(0.015625)"/>
       <path id="DejaVuSans-63" d="M 3122 3366 
L 3122 2828 
Q 2878 2963 2633 3030 
Q 2388 3097 2138 3097 
Q 1578 3097 1268 2742 
Q 959 2388 959 1747 
Q 959 1106 1268 751 
Q 1578 397 2138 397 
Q 2388 397 2633 464 
Q 2878 531 3122 666 
L 3122 134 
Q 2881 22 2623 -34 
Q 2366 -91 2075 -91 
Q 1284 -91 818 406 
Q 353 903 353 1747 
Q 353 2603 823 3093 
Q 1294 3584 2113 3584 
Q 2378 3584 2631 3529 
Q 2884 3475 3122 3366 
z
" transform="scale(0.015625)"/>
       <path id="DejaVuSans-64" d="M 2906 2969 
L 2906 4863 
L 3481 4863 
L 3481 0 
L 2906 0 
L 2906 525 
Q 2725 213 2448 61 
Q 2172 -91 1784 -91 
Q 1150 -91 751 415 
Q 353 922 353 1747 
Q 353 2572 751 3078 
Q 1150 3584 1784 3584 
Q 2172 3584 2448 3432 
Q 2725 3281 2906 2969 
z
M 947 1747 
Q 947 1113 1208 752 
Q 1469 391 1925 391 
Q 2381 391 2643 752 
Q 2906 1113 2906 1747 
Q 2906 2381 2643 2742 
Q 2381 3103 1925 3103 
Q 1469 3103 1208 2742 
Q 947 2381 947 1747 
z
" transform="scale(0.015625)"/>
      </defs>
      <use xlink:href="#DejaVuSans-45"/>
      <use xlink:href="#DejaVuSans-75" x="63.183594"/>
      <use xlink:href="#DejaVuSans-63" x="126.5625"/>
      <use xlink:href="#DejaVuSans-6c" x="181.542969"/>
      <use xlink:href="#DejaVuSans-69" x="209.326172"/>
      <use xlink:href="#DejaVuSans-64" x="237.109375"/>
      <use xlink:href="#DejaVuSans-65" x="300.585938"/>
      <use xlink:href="#DejaVuSans-61" x="362.109375"/>
      <use xlink:href="#DejaVuSans-6e" x="423.388672"/>
     </g>
    </g>
    <g id="line2d_21">
     <path d="M 249.279687 38.576563 
L 259.279687 38.576563 
L 269.279687 38.576563 
" style="fill: none; stroke: #103783; stroke-linecap: square"/>
    </g>
    <g id="text_19">
     <!-- Mahalanobis -->
     <g transform="translate(277.279687 42.076563) scale(0.1 -0.1)">
      <defs>
       <path id="DejaVuSans-4d" d="M 628 4666 
L 1569 4666 
L 2759 1491 
L 3956 4666 
L 4897 4666 
L 4897 0 
L 4281 0 
L 4281 4097 
L 3078 897 
L 2444 897 
L 1241 4097 
L 1241 0 
L 628 0 
L 628 4666 
z
" transform="scale(0.015625)"/>
       <path id="DejaVuSans-68" d="M 3513 2113 
L 3513 0 
L 2938 0 
L 2938 2094 
Q 2938 2591 2744 2837 
Q 2550 3084 2163 3084 
Q 1697 3084 1428 2787 
Q 1159 2491 1159 1978 
L 1159 0 
L 581 0 
L 581 4863 
L 1159 4863 
L 1159 2956 
Q 1366 3272 1645 3428 
Q 1925 3584 2291 3584 
Q 2894 3584 3203 3211 
Q 3513 2838 3513 2113 
z
" transform="scale(0.015625)"/>
       <path id="DejaVuSans-62" d="M 3116 1747 
Q 3116 2381 2855 2742 
Q 2594 3103 2138 3103 
Q 1681 3103 1420 2742 
Q 1159 2381 1159 1747 
Q 1159 1113 1420 752 
Q 1681 391 2138 391 
Q 2594 391 2855 752 
Q 3116 1113 3116 1747 
z
M 1159 2969 
Q 1341 3281 1617 3432 
Q 1894 3584 2278 3584 
Q 2916 3584 3314 3078 
Q 3713 2572 3713 1747 
Q 3713 922 3314 415 
Q 2916 -91 2278 -91 
Q 1894 -91 1617 61 
Q 1341 213 1159 525 
L 1159 0 
L 581 0 
L 581 4863 
L 1159 4863 
L 1159 2969 
z
" transform="scale(0.015625)"/>
      </defs>
      <use xlink:href="#DejaVuSans-4d"/>
      <use xlink:href="#DejaVuSans-61" x="86.279297"/>
      <use xlink:href="#DejaVuSans-68" x="147.558594"/>
      <use xlink:href="#DejaVuSans-61" x="210.9375"/>
      <use xlink:href="#DejaVuSans-6c" x="272.216797"/>
      <use xlink:href="#DejaVuSans-61" x="300"/>
      <use xlink:href="#DejaVuSans-6e" x="361.279297"/>
      <use xlink:href="#DejaVuSans-6f" x="424.658203"/>
      <use xlink:href="#DejaVuSans-62" x="485.839844"/>
      <use xlink:href="#DejaVuSans-69" x="549.316406"/>
      <use xlink:href="#DejaVuSans-73" x="577.099609"/>
     </g>
    </g>
    <g id="line2d_22">
     <path d="M 249.279687 53.254687 
L 259.279687 53.254687 
L 269.279687 53.254687 
" style="fill: none; stroke: #99f2d1; stroke-width: 2; stroke-linecap: square"/>
    </g>
    <g id="text_20">
     <!-- Correlation -->
     <g transform="translate(277.279687 56.754687) scale(0.1 -0.1)">
      <use xlink:href="#DejaVuSans-43"/>
      <use xlink:href="#DejaVuSans-6f" x="69.824219"/>
      <use xlink:href="#DejaVuSans-72" x="131.005859"/>
      <use xlink:href="#DejaVuSans-72" x="170.369141"/>
      <use xlink:href="#DejaVuSans-65" x="209.232422"/>
      <use xlink:href="#DejaVuSans-6c" x="270.755859"/>
      <use xlink:href="#DejaVuSans-61" x="298.539062"/>
      <use xlink:href="#DejaVuSans-74" x="359.818359"/>
      <use xlink:href="#DejaVuSans-69" x="399.027344"/>
      <use xlink:href="#DejaVuSans-6f" x="426.810547"/>
      <use xlink:href="#DejaVuSans-6e" x="487.992188"/>
     </g>
    </g>
   </g>
  </g>
 </g>
 <defs>
  <clipPath id="p869987cfe1">
   <rect x="65.27" y="10.8" width="283.93" height="304.36"/>
  </clipPath>
 </defs>
</svg>
