<?xml version="1.0" encoding="utf-8" standalone="no"?>
<!DOCTYPE svg PUBLIC "-//W3C//DTD SVG 1.1//EN"
  "http://www.w3.org/Graphics/SVG/1.1/DTD/svg11.dtd">
<svg xmlns:xlink="http://www.w3.org/1999/xlink" width="460.8pt" height="345.6pt" viewBox="0 0 460.8 345.6" xmlns="http://www.w3.org/2000/svg" version="1.1">
 <metadata>
  <rdf:RDF xmlns:dc="http://purl.org/dc/elements/1.1/" xmlns:cc="http://creativecommons.org/ns#" xmlns:rdf="http://www.w3.org/1999/02/22-rdf-syntax-ns#">
   <cc:Work>
    <dc:type rdf:resource="http://purl.org/dc/dcmitype/StillImage"/>
    <dc:date>2025-12-03T13:37:14.980543</dc:date>
    <dc:format>image/svg+xml</dc:format>
    <dc:creator>
     <cc:Agent>
      <dc:title>Matplotlib v3.6.2, https://matplotlib.org/</dc:title>
     </cc:Agent>
    </dc:creator>
   </cc:Work>
  </rdf:RDF>
 </metadata>
 <defs>
  <style type="text/css">*{stroke-linejoin: round; stroke-linecap: butt}</style>
 </defs>
 <g id="figure_1">
  <g id="patch_1">
   <path d="M 0 345.6 
L 460.8 345.6 
L 460.8 0 
L 0 0 
L 0 345.6 
z
" style="fill: none"/>
  </g>
  <g id="axes_1">
   <g id="patch_2">
    <path d="M 57.6 307.584 
L 414.72 307.584 
L 414.72 41.472 
L 57.6 41.472 
L 57.6 307.584 
z
" style="fill: none"/>
   </g>
   <g id="PolyCollection_1">
    <defs>
     <path id="m8adcddc808" d="M 73.832727 -99.216414 
L 73.832727 -74.871771 
L 76.151688 -79.616821 
L 78.470649 -84.305041 
L 80.78961 -80.883478 
L 83.108571 -86.033318 
L 85.427532 -82.885093 
L 87.746494 -86.169944 
L 90.065455 -83.908813 
L 92.384416 -83.71217 
L 94.703377 -78.840429 
L 97.022338 -79.538572 
L 99.341299 -86.203642 
L 101.66026 -100.520154 
L 103.979221 -102.023319 
L 106.298182 -95.111169 
L 108.617143 -84.011526 
L 110.936104 -79.653735 
L 113.255065 -77.560741 
L 115.574026 -71.252055 
L 117.892987 -58.44613 
L 120.211948 -50.112 
L 122.530909 -63.698551 
L 124.84987 -95.981312 
L 127.168831 -124.002568 
L 129.487792 -139.352278 
L 131.806753 -139.159211 
L 134.125714 -131.637318 
L 136.444675 -123.884485 
L 138.763636 -126.132393 
L 141.082597 -130.918625 
L 143.401558 -130.968579 
L 145.720519 -132.395713 
L 148.039481 -142.096847 
L 150.358442 -165.061678 
L 152.677403 -183.254527 
L 154.996364 -194.352833 
L 157.315325 -202.094171 
L 159.634286 -207.443462 
L 161.953247 -213.537355 
L 164.272208 -218.679255 
L 166.591169 -219.555334 
L 168.91013 -215.658656 
L 171.229091 -208.354382 
L 173.548052 -198.778881 
L 175.867013 -186.437882 
L 178.185974 -171.300336 
L 180.504935 -157.20928 
L 182.823896 -148.702047 
L 185.142857 -144.574447 
L 187.461818 -142.904567 
L 189.780779 -140.202175 
L 192.09974 -135.394764 
L 194.418701 -128.645906 
L 196.737662 -123.621426 
L 199.056623 -116.878507 
L 201.375584 -110.135016 
L 203.694545 -108.419066 
L 206.013506 -108.818601 
L 208.332468 -106.405108 
L 210.651429 -103.217369 
L 212.97039 -101.65838 
L 215.289351 -101.418112 
L 217.608312 -99.218556 
L 219.927273 -94.49036 
L 222.246234 -92.054341 
L 224.565195 -93.873859 
L 226.884156 -96.987447 
L 229.203117 -99.18602 
L 231.522078 -101.710391 
L 233.841039 -104.745338 
L 236.16 -106.308197 
L 238.478961 -104.470776 
L 240.797922 -100.577319 
L 243.116883 -94.547709 
L 245.435844 -87.618183 
L 247.754805 -81.391561 
L 250.073766 -77.31078 
L 252.392727 -76.188856 
L 254.711688 -76.349951 
L 257.030649 -77.0106 
L 259.34961 -77.175857 
L 261.668571 -75.72208 
L 263.987532 -74.843517 
L 266.306494 -73.249694 
L 268.625455 -72.132293 
L 270.944416 -73.344817 
L 273.263377 -77.492222 
L 275.582338 -82.965572 
L 277.901299 -88.902016 
L 280.22026 -91.202353 
L 282.539221 -89.845451 
L 284.858182 -87.532904 
L 287.177143 -87.377544 
L 289.496104 -89.014165 
L 291.815065 -89.957272 
L 294.134026 -87.605273 
L 296.452987 -84.116691 
L 298.771948 -82.735766 
L 301.090909 -82.039532 
L 303.40987 -79.751222 
L 305.728831 -77.593225 
L 308.047792 -76.670665 
L 310.366753 -76.425524 
L 312.685714 -75.26362 
L 315.004675 -76.471196 
L 317.323636 -79.781894 
L 319.642597 -83.274995 
L 321.961558 -85.165795 
L 324.280519 -85.00868 
L 326.599481 -81.89801 
L 328.918442 -77.130975 
L 331.237403 -74.884443 
L 333.556364 -77.245108 
L 335.875325 -82.843667 
L 338.194286 -86.870799 
L 340.513247 -90.430472 
L 342.832208 -93.952442 
L 345.151169 -94.952237 
L 347.47013 -91.950217 
L 349.789091 -87.806067 
L 352.108052 -84.968478 
L 354.427013 -81.381468 
L 356.745974 -77.19378 
L 359.064935 -75.020677 
L 361.383896 -74.914189 
L 363.702857 -76.354833 
L 366.021818 -80.567666 
L 368.340779 -87.626346 
L 370.65974 -95.265734 
L 372.978701 -99.95905 
L 375.297662 -100.305794 
L 377.616623 -97.561207 
L 379.935584 -92.166605 
L 382.254545 -85.740438 
L 384.573506 -81.624982 
L 386.892468 -82.39212 
L 389.211429 -85.551644 
L 391.53039 -87.002948 
L 393.849351 -86.738201 
L 396.168312 -86.577825 
L 398.487273 -84.601644 
L 398.487273 -128.560035 
L 398.487273 -128.560035 
L 396.168312 -129.595874 
L 393.849351 -129.847247 
L 391.53039 -130.166187 
L 389.211429 -129.948542 
L 386.892468 -128.068362 
L 384.573506 -128.149541 
L 382.254545 -132.573626 
L 379.935584 -139.031029 
L 377.616623 -144.182178 
L 375.297662 -146.505111 
L 372.978701 -145.415095 
L 370.65974 -140.013672 
L 368.340779 -131.445144 
L 366.021818 -123.063679 
L 363.702857 -116.915123 
L 361.383896 -113.077826 
L 359.064935 -112.02141 
L 356.745974 -114.370563 
L 354.427013 -120.176749 
L 352.108052 -125.706225 
L 349.789091 -129.885237 
L 347.47013 -134.566613 
L 345.151169 -137.857559 
L 342.832208 -137.430036 
L 340.513247 -135.666039 
L 338.194286 -135.747077 
L 335.875325 -136.803113 
L 333.556364 -135.214627 
L 331.237403 -134.01062 
L 328.918442 -134.571522 
L 326.599481 -135.468552 
L 324.280519 -133.320045 
L 321.961558 -129.249347 
L 319.642597 -125.709603 
L 317.323636 -123.833282 
L 315.004675 -124.566792 
L 312.685714 -127.438412 
L 310.366753 -132.605234 
L 308.047792 -137.054826 
L 305.728831 -141.204074 
L 303.40987 -145.265432 
L 301.090909 -148.62732 
L 298.771948 -149.415389 
L 296.452987 -149.194025 
L 294.134026 -149.741496 
L 291.815065 -149.611092 
L 289.496104 -147.450488 
L 287.177143 -146.636834 
L 284.858182 -149.112114 
L 282.539221 -154.260823 
L 280.22026 -157.380293 
L 277.901299 -155.143594 
L 275.582338 -149.009894 
L 273.263377 -143.978033 
L 270.944416 -139.500764 
L 268.625455 -136.476549 
L 266.306494 -135.071025 
L 263.987532 -135.441516 
L 261.668571 -135.952382 
L 259.34961 -136.416553 
L 257.030649 -136.063174 
L 254.711688 -136.048847 
L 252.392727 -137.306804 
L 250.073766 -140.616303 
L 247.754805 -146.855148 
L 245.435844 -154.326083 
L 243.116883 -161.499772 
L 240.797922 -168.001434 
L 238.478961 -171.352404 
L 236.16 -171.873408 
L 233.841039 -168.832779 
L 231.522078 -164.70112 
L 229.203117 -160.467057 
L 226.884156 -157.4614 
L 224.565195 -154.625796 
L 222.246234 -152.073483 
L 219.927273 -152.66846 
L 217.608312 -155.397259 
L 215.289351 -156.517525 
L 212.97039 -157.085165 
L 210.651429 -158.543286 
L 208.332468 -160.706384 
L 206.013506 -163.410903 
L 203.694545 -165.752205 
L 201.375584 -170.503193 
L 199.056623 -180.666866 
L 196.737662 -190.9488 
L 194.418701 -197.962634 
L 192.09974 -204.858397 
L 189.780779 -209.746933 
L 187.461818 -212.755028 
L 185.142857 -216.738399 
L 182.823896 -220.412026 
L 180.504935 -224.939205 
L 178.185974 -233.461658 
L 175.867013 -246.596754 
L 173.548052 -260.042161 
L 171.229091 -269.757218 
L 168.91013 -273.328424 
L 166.591169 -271.629988 
L 164.272208 -268.65502 
L 161.953247 -266.071869 
L 159.634286 -265.167298 
L 157.315325 -264.687127 
L 154.996364 -259.055672 
L 152.677403 -244.664457 
L 150.358442 -222.920315 
L 148.039481 -198.986478 
L 145.720519 -188.128311 
L 143.401558 -185.248645 
L 141.082597 -183.968863 
L 138.763636 -178.75299 
L 136.444675 -175.774962 
L 134.125714 -178.697506 
L 131.806753 -179.24074 
L 129.487792 -174.922109 
L 127.168831 -162.441436 
L 124.84987 -140.663625 
L 122.530909 -98.589858 
L 120.211948 -78.696025 
L 117.892987 -79.949106 
L 115.574026 -94.375382 
L 113.255065 -99.911555 
L 110.936104 -99.231887 
L 108.617143 -102.992466 
L 106.298182 -112.226154 
L 103.979221 -122.977629 
L 101.66026 -123.397118 
L 99.341299 -103.946266 
L 97.022338 -96.998428 
L 94.703377 -102.847821 
L 92.384416 -112.129178 
L 90.065455 -118.39294 
L 87.746494 -110.085139 
L 85.427532 -99.941907 
L 83.108571 -106.032604 
L 80.78961 -105.032075 
L 78.470649 -104.693167 
L 76.151688 -103.475257 
L 73.832727 -99.216414 
z
" style="stroke: #ff2c55; stroke-opacity: 0.1"/>
    </defs>
    <g clip-path="url(#p1351981b2c)">
     <use xlink:href="#m8adcddc808" x="0" y="345.6" style="fill: #ff2c55; fill-opacity: 0.1; stroke: #ff2c55; stroke-opacity: 0.1"/>
    </g>
   </g>
   <g id="PolyCollection_2">
    <defs>
     <path id="m4fb6c4f97e" d="M 73.832727 -103.55155 
L 73.832727 -80.985296 
L 76.151688 -82.530282 
L 78.470649 -90.784731 
L 80.78961 -102.295859 
L 83.108571 -100.733307 
L 85.427532 -86.031413 
L 87.746494 -73.936035 
L 90.065455 -76.393326 
L 92.384416 -88.147782 
L 94.703377 -97.888173 
L 97.022338 -99.379756 
L 99.341299 -100.647438 
L 101.66026 -96.381365 
L 103.979221 -95.51839 
L 106.298182 -97.741063 
L 108.617143 -100.393649 
L 110.936104 -100.38298 
L 113.255065 -102.663885 
L 115.574026 -103.185973 
L 117.892987 -100.325268 
L 120.211948 -102.363817 
L 122.530909 -123.220853 
L 124.84987 -158.864434 
L 127.168831 -187.474348 
L 129.487792 -201.74649 
L 131.806753 -212.370133 
L 134.125714 -224.566405 
L 136.444675 -235.090582 
L 138.763636 -243.334008 
L 141.082597 -248.66149 
L 143.401558 -250.04944 
L 145.720519 -246.358391 
L 148.039481 -240.238422 
L 150.358442 -227.391498 
L 152.677403 -215.581047 
L 154.996364 -209.725588 
L 157.315325 -206.073627 
L 159.634286 -201.731273 
L 161.953247 -197.177828 
L 164.272208 -194.566134 
L 166.591169 -194.980723 
L 168.91013 -197.706685 
L 171.229091 -199.974791 
L 173.548052 -200.625848 
L 175.867013 -201.361564 
L 178.185974 -202.373067 
L 180.504935 -202.751236 
L 182.823896 -201.470015 
L 185.142857 -199.165324 
L 187.461818 -195.838971 
L 189.780779 -191.798922 
L 192.09974 -186.170966 
L 194.418701 -181.635711 
L 196.737662 -177.738816 
L 199.056623 -174.5115 
L 201.375584 -171.23221 
L 203.694545 -168.633731 
L 206.013506 -165.811093 
L 208.332468 -163.583784 
L 210.651429 -162.023731 
L 212.97039 -161.976169 
L 215.289351 -162.46894 
L 217.608312 -162.242957 
L 219.927273 -161.644106 
L 222.246234 -160.916157 
L 224.565195 -159.683652 
L 226.884156 -157.277573 
L 229.203117 -155.041194 
L 231.522078 -153.115957 
L 233.841039 -151.882057 
L 236.16 -149.995643 
L 238.478961 -148.147117 
L 240.797922 -145.703135 
L 243.116883 -142.183885 
L 245.435844 -138.964107 
L 247.754805 -136.887842 
L 250.073766 -136.216425 
L 252.392727 -136.497113 
L 254.711688 -136.693817 
L 257.030649 -136.868436 
L 259.34961 -137.660645 
L 261.668571 -138.647882 
L 263.987532 -139.975606 
L 266.306494 -139.470895 
L 268.625455 -137.572373 
L 270.944416 -135.856725 
L 273.263377 -134.52789 
L 275.582338 -134.118683 
L 277.901299 -133.930129 
L 280.22026 -134.878778 
L 282.539221 -135.708722 
L 284.858182 -136.114049 
L 287.177143 -134.228948 
L 289.496104 -132.591871 
L 291.815065 -130.912346 
L 294.134026 -128.225536 
L 296.452987 -125.568733 
L 298.771948 -124.594239 
L 301.090909 -124.60679 
L 303.40987 -124.215924 
L 305.728831 -124.430979 
L 308.047792 -125.717331 
L 310.366753 -127.573539 
L 312.685714 -128.886171 
L 315.004675 -130.174576 
L 317.323636 -132.385379 
L 319.642597 -134.49145 
L 321.961558 -135.449591 
L 324.280519 -135.282205 
L 326.599481 -135.51219 
L 328.918442 -135.279751 
L 331.237403 -134.486836 
L 333.556364 -133.513468 
L 335.875325 -132.707763 
L 338.194286 -131.689893 
L 340.513247 -131.437584 
L 342.832208 -131.910269 
L 345.151169 -132.847287 
L 347.47013 -133.567392 
L 349.789091 -133.433522 
L 352.108052 -131.774844 
L 354.427013 -130.002272 
L 356.745974 -128.035685 
L 359.064935 -126.018693 
L 361.383896 -125.64027 
L 363.702857 -127.295023 
L 366.021818 -129.678101 
L 368.340779 -131.267078 
L 370.65974 -131.972447 
L 372.978701 -132.292119 
L 375.297662 -131.376367 
L 377.616623 -129.843254 
L 379.935584 -128.8602 
L 382.254545 -128.184518 
L 384.573506 -126.645784 
L 386.892468 -124.296386 
L 389.211429 -122.372313 
L 391.53039 -121.606028 
L 393.849351 -121.334564 
L 396.168312 -121.07411 
L 398.487273 -121.728062 
L 398.487273 -139.877198 
L 398.487273 -139.877198 
L 396.168312 -139.151337 
L 393.849351 -139.650348 
L 391.53039 -140.484507 
L 389.211429 -142.144723 
L 386.892468 -145.640417 
L 384.573506 -149.429828 
L 382.254545 -151.389619 
L 379.935584 -152.135875 
L 377.616623 -153.181752 
L 375.297662 -154.537419 
L 372.978701 -154.813314 
L 370.65974 -153.893778 
L 368.340779 -152.596914 
L 366.021818 -150.576221 
L 363.702857 -148.23976 
L 361.383896 -146.959449 
L 359.064935 -148.067938 
L 356.745974 -151.167529 
L 354.427013 -154.236199 
L 352.108052 -157.166962 
L 349.789091 -159.761305 
L 347.47013 -160.628865 
L 345.151169 -160.290995 
L 342.832208 -159.608069 
L 340.513247 -159.506034 
L 338.194286 -160.249127 
L 335.875325 -161.047929 
L 333.556364 -161.316635 
L 331.237403 -161.84211 
L 328.918442 -162.652967 
L 326.599481 -163.805498 
L 324.280519 -164.968757 
L 321.961558 -166.228752 
L 319.642597 -165.506419 
L 317.323636 -162.836102 
L 315.004675 -159.21076 
L 312.685714 -156.709685 
L 310.366753 -154.935053 
L 308.047792 -153.247331 
L 305.728831 -152.399285 
L 303.40987 -152.442216 
L 301.090909 -152.894271 
L 298.771948 -153.187659 
L 296.452987 -154.909518 
L 294.134026 -158.226642 
L 291.815065 -161.177444 
L 289.496104 -162.948548 
L 287.177143 -165.135466 
L 284.858182 -168.025979 
L 282.539221 -169.156725 
L 280.22026 -170.525208 
L 277.901299 -171.88776 
L 275.582338 -173.443378 
L 273.263377 -174.688819 
L 270.944416 -176.139441 
L 268.625455 -177.121102 
L 266.306494 -178.479672 
L 263.987532 -178.714468 
L 261.668571 -177.827684 
L 259.34961 -177.534844 
L 257.030649 -177.416757 
L 254.711688 -177.082699 
L 252.392727 -176.16525 
L 250.073766 -174.700781 
L 247.754805 -174.452876 
L 245.435844 -176.209362 
L 243.116883 -179.511005 
L 240.797922 -183.471451 
L 238.478961 -186.540231 
L 236.16 -188.376085 
L 233.841039 -190.342097 
L 231.522078 -192.481897 
L 229.203117 -195.63755 
L 226.884156 -198.842749 
L 224.565195 -202.274181 
L 222.246234 -203.784027 
L 219.927273 -202.508078 
L 217.608312 -200.038322 
L 215.289351 -198.129056 
L 212.97039 -197.181468 
L 210.651429 -196.909117 
L 208.332468 -197.704496 
L 206.013506 -198.763703 
L 203.694545 -201.454596 
L 201.375584 -205.187686 
L 199.056623 -210.085237 
L 196.737662 -214.73538 
L 194.418701 -219.138185 
L 192.09974 -223.413482 
L 189.780779 -228.105267 
L 187.461818 -231.165712 
L 185.142857 -233.995375 
L 182.823896 -236.131945 
L 180.504935 -237.834205 
L 178.185974 -237.947855 
L 175.867013 -236.481472 
L 173.548052 -235.219802 
L 171.229091 -234.892532 
L 168.91013 -233.570467 
L 166.591169 -232.17632 
L 164.272208 -233.090494 
L 161.953247 -237.111522 
L 159.634286 -243.022066 
L 157.315325 -247.53835 
L 154.996364 -249.942808 
L 152.677403 -253.907829 
L 150.358442 -264.348663 
L 148.039481 -278.283136 
L 145.720519 -282.558409 
L 143.401558 -281.009045 
L 141.082597 -276.288074 
L 138.763636 -273.093275 
L 136.444675 -271.422822 
L 134.125714 -268.523499 
L 131.806753 -262.409008 
L 129.487792 -251.012383 
L 127.168831 -230.792676 
L 124.84987 -190.766417 
L 122.530909 -149.653053 
L 120.211948 -127.600132 
L 117.892987 -123.696342 
L 115.574026 -125.704869 
L 113.255065 -134.10277 
L 110.936104 -138.728731 
L 108.617143 -137.213595 
L 106.298182 -130.304385 
L 103.979221 -127.122144 
L 101.66026 -116.976807 
L 99.341299 -124.908789 
L 97.022338 -129.707738 
L 94.703377 -129.823309 
L 92.384416 -105.453299 
L 90.065455 -89.11665 
L 87.746494 -86.302197 
L 85.427532 -100.286786 
L 83.108571 -129.783451 
L 80.78961 -135.098816 
L 78.470649 -117.554573 
L 76.151688 -106.093581 
L 73.832727 -103.55155 
z
" style="stroke: #ee9b00; stroke-opacity: 0.1"/>
    </defs>
    <g clip-path="url(#p1351981b2c)">
     <use xlink:href="#m4fb6c4f97e" x="0" y="345.6" style="fill: #ee9b00; fill-opacity: 0.1; stroke: #ee9b00; stroke-opacity: 0.1"/>
    </g>
   </g>
   <g id="matplotlib.axis_1">
    <g id="xtick_1">
     <g id="line2d_1">
      <defs>
       <path id="m2256ee8a95" d="M 0 0 
L 0 3.5 
" style="stroke: #000000; stroke-width: 0.8"/>
      </defs>
      <g>
       <use xlink:href="#m2256ee8a95" x="103.346777" y="307.584" style="stroke: #000000; stroke-width: 0.8"/>
      </g>
     </g>
     <g id="text_1">
      <!-- 0.0 -->
      <g transform="translate(95.395214 322.182437) scale(0.1 -0.1)">
       <defs>
        <path id="DejaVuSans-30" d="M 2034 4250 
Q 1547 4250 1301 3770 
Q 1056 3291 1056 2328 
Q 1056 1369 1301 889 
Q 1547 409 2034 409 
Q 2525 409 2770 889 
Q 3016 1369 3016 2328 
Q 3016 3291 2770 3770 
Q 2525 4250 2034 4250 
z
M 2034 4750 
Q 2819 4750 3233 4129 
Q 3647 3509 3647 2328 
Q 3647 1150 3233 529 
Q 2819 -91 2034 -91 
Q 1250 -91 836 529 
Q 422 1150 422 2328 
Q 422 3509 836 4129 
Q 1250 4750 2034 4750 
z
" transform="scale(0.015625)"/>
        <path id="DejaVuSans-2e" d="M 684 794 
L 1344 794 
L 1344 0 
L 684 0 
L 684 794 
z
" transform="scale(0.015625)"/>
       </defs>
       <use xlink:href="#DejaVuSans-30"/>
       <use xlink:href="#DejaVuSans-2e" x="63.623047"/>
       <use xlink:href="#DejaVuSans-30" x="95.410156"/>
      </g>
     </g>
    </g>
    <g id="xtick_2">
     <g id="line2d_2">
      <g>
       <use xlink:href="#m2256ee8a95" x="162.374876" y="307.584" style="stroke: #000000; stroke-width: 0.8"/>
      </g>
     </g>
     <g id="text_2">
      <!-- 0.2 -->
      <g transform="translate(154.423314 322.182437) scale(0.1 -0.1)">
       <defs>
        <path id="DejaVuSans-32" d="M 1228 531 
L 3431 531 
L 3431 0 
L 469 0 
L 469 531 
Q 828 903 1448 1529 
Q 2069 2156 2228 2338 
Q 2531 2678 2651 2914 
Q 2772 3150 2772 3378 
Q 2772 3750 2511 3984 
Q 2250 4219 1831 4219 
Q 1534 4219 1204 4116 
Q 875 4013 500 3803 
L 500 4441 
Q 881 4594 1212 4672 
Q 1544 4750 1819 4750 
Q 2544 4750 2975 4387 
Q 3406 4025 3406 3419 
Q 3406 3131 3298 2873 
Q 3191 2616 2906 2266 
Q 2828 2175 2409 1742 
Q 1991 1309 1228 531 
z
" transform="scale(0.015625)"/>
       </defs>
       <use xlink:href="#DejaVuSans-30"/>
       <use xlink:href="#DejaVuSans-2e" x="63.623047"/>
       <use xlink:href="#DejaVuSans-32" x="95.410156"/>
      </g>
     </g>
    </g>
    <g id="xtick_3">
     <g id="line2d_3">
      <g>
       <use xlink:href="#m2256ee8a95" x="221.402975" y="307.584" style="stroke: #000000; stroke-width: 0.8"/>
      </g>
     </g>
     <g id="text_3">
      <!-- 0.4 -->
      <g transform="translate(213.451413 322.182437) scale(0.1 -0.1)">
       <defs>
        <path id="DejaVuSans-34" d="M 2419 4116 
L 825 1625 
L 2419 1625 
L 2419 4116 
z
M 2253 4666 
L 3047 4666 
L 3047 1625 
L 3713 1625 
L 3713 1100 
L 3047 1100 
L 3047 0 
L 2419 0 
L 2419 1100 
L 313 1100 
L 313 1709 
L 2253 4666 
z
" transform="scale(0.015625)"/>
       </defs>
       <use xlink:href="#DejaVuSans-30"/>
       <use xlink:href="#DejaVuSans-2e" x="63.623047"/>
       <use xlink:href="#DejaVuSans-34" x="95.410156"/>
      </g>
     </g>
    </g>
    <g id="xtick_4">
     <g id="line2d_4">
      <g>
       <use xlink:href="#m2256ee8a95" x="280.431074" y="307.584" style="stroke: #000000; stroke-width: 0.8"/>
      </g>
     </g>
     <g id="text_4">
      <!-- 0.6 -->
      <g transform="translate(272.479512 322.182437) scale(0.1 -0.1)">
       <defs>
        <path id="DejaVuSans-36" d="M 2113 2584 
Q 1688 2584 1439 2293 
Q 1191 2003 1191 1497 
Q 1191 994 1439 701 
Q 1688 409 2113 409 
Q 2538 409 2786 701 
Q 3034 994 3034 1497 
Q 3034 2003 2786 2293 
Q 2538 2584 2113 2584 
z
M 3366 4563 
L 3366 3988 
Q 3128 4100 2886 4159 
Q 2644 4219 2406 4219 
Q 1781 4219 1451 3797 
Q 1122 3375 1075 2522 
Q 1259 2794 1537 2939 
Q 1816 3084 2150 3084 
Q 2853 3084 3261 2657 
Q 3669 2231 3669 1497 
Q 3669 778 3244 343 
Q 2819 -91 2113 -91 
Q 1303 -91 875 529 
Q 447 1150 447 2328 
Q 447 3434 972 4092 
Q 1497 4750 2381 4750 
Q 2619 4750 2861 4703 
Q 3103 4656 3366 4563 
z
" transform="scale(0.015625)"/>
       </defs>
       <use xlink:href="#DejaVuSans-30"/>
       <use xlink:href="#DejaVuSans-2e" x="63.623047"/>
       <use xlink:href="#DejaVuSans-36" x="95.410156"/>
      </g>
     </g>
    </g>
    <g id="xtick_5">
     <g id="line2d_5">
      <g>
       <use xlink:href="#m2256ee8a95" x="339.459174" y="307.584" style="stroke: #000000; stroke-width: 0.8"/>
      </g>
     </g>
     <g id="text_5">
      <!-- 0.8 -->
      <g transform="translate(331.507611 322.182437) scale(0.1 -0.1)">
       <defs>
        <path id="DejaVuSans-38" d="M 2034 2216 
Q 1584 2216 1326 1975 
Q 1069 1734 1069 1313 
Q 1069 891 1326 650 
Q 1584 409 2034 409 
Q 2484 409 2743 651 
Q 3003 894 3003 1313 
Q 3003 1734 2745 1975 
Q 2488 2216 2034 2216 
z
M 1403 2484 
Q 997 2584 770 2862 
Q 544 3141 544 3541 
Q 544 4100 942 4425 
Q 1341 4750 2034 4750 
Q 2731 4750 3128 4425 
Q 3525 4100 3525 3541 
Q 3525 3141 3298 2862 
Q 3072 2584 2669 2484 
Q 3125 2378 3379 2068 
Q 3634 1759 3634 1313 
Q 3634 634 3220 271 
Q 2806 -91 2034 -91 
Q 1263 -91 848 271 
Q 434 634 434 1313 
Q 434 1759 690 2068 
Q 947 2378 1403 2484 
z
M 1172 3481 
Q 1172 3119 1398 2916 
Q 1625 2713 2034 2713 
Q 2441 2713 2670 2916 
Q 2900 3119 2900 3481 
Q 2900 3844 2670 4047 
Q 2441 4250 2034 4250 
Q 1625 4250 1398 4047 
Q 1172 3844 1172 3481 
z
" transform="scale(0.015625)"/>
       </defs>
       <use xlink:href="#DejaVuSans-30"/>
       <use xlink:href="#DejaVuSans-2e" x="63.623047"/>
       <use xlink:href="#DejaVuSans-38" x="95.410156"/>
      </g>
     </g>
    </g>
    <g id="xtick_6">
     <g id="line2d_6">
      <g>
       <use xlink:href="#m2256ee8a95" x="398.487273" y="307.584" style="stroke: #000000; stroke-width: 0.8"/>
      </g>
     </g>
     <g id="text_6">
      <!-- 1.0 -->
      <g transform="translate(390.53571 322.182437) scale(0.1 -0.1)">
       <defs>
        <path id="DejaVuSans-31" d="M 794 531 
L 1825 531 
L 1825 4091 
L 703 3866 
L 703 4441 
L 1819 4666 
L 2450 4666 
L 2450 531 
L 3481 531 
L 3481 0 
L 794 0 
L 794 531 
z
" transform="scale(0.015625)"/>
       </defs>
       <use xlink:href="#DejaVuSans-31"/>
       <use xlink:href="#DejaVuSans-2e" x="63.623047"/>
       <use xlink:href="#DejaVuSans-30" x="95.410156"/>
      </g>
     </g>
    </g>
    <g id="text_7">
     <!-- Time (s) -->
     <g transform="translate(215.831094 335.860562) scale(0.1 -0.1)">
      <defs>
       <path id="DejaVuSans-54" d="M -19 4666 
L 3928 4666 
L 3928 4134 
L 2272 4134 
L 2272 0 
L 1638 0 
L 1638 4134 
L -19 4134 
L -19 4666 
z
" transform="scale(0.015625)"/>
       <path id="DejaVuSans-69" d="M 603 3500 
L 1178 3500 
L 1178 0 
L 603 0 
L 603 3500 
z
M 603 4863 
L 1178 4863 
L 1178 4134 
L 603 4134 
L 603 4863 
z
" transform="scale(0.015625)"/>
       <path id="DejaVuSans-6d" d="M 3328 2828 
Q 3544 3216 3844 3400 
Q 4144 3584 4550 3584 
Q 5097 3584 5394 3201 
Q 5691 2819 5691 2113 
L 5691 0 
L 5113 0 
L 5113 2094 
Q 5113 2597 4934 2840 
Q 4756 3084 4391 3084 
Q 3944 3084 3684 2787 
Q 3425 2491 3425 1978 
L 3425 0 
L 2847 0 
L 2847 2094 
Q 2847 2600 2669 2842 
Q 2491 3084 2119 3084 
Q 1678 3084 1418 2786 
Q 1159 2488 1159 1978 
L 1159 0 
L 581 0 
L 581 3500 
L 1159 3500 
L 1159 2956 
Q 1356 3278 1631 3431 
Q 1906 3584 2284 3584 
Q 2666 3584 2933 3390 
Q 3200 3197 3328 2828 
z
" transform="scale(0.015625)"/>
       <path id="DejaVuSans-65" d="M 3597 1894 
L 3597 1613 
L 953 1613 
Q 991 1019 1311 708 
Q 1631 397 2203 397 
Q 2534 397 2845 478 
Q 3156 559 3463 722 
L 3463 178 
Q 3153 47 2828 -22 
Q 2503 -91 2169 -91 
Q 1331 -91 842 396 
Q 353 884 353 1716 
Q 353 2575 817 3079 
Q 1281 3584 2069 3584 
Q 2775 3584 3186 3129 
Q 3597 2675 3597 1894 
z
M 3022 2063 
Q 3016 2534 2758 2815 
Q 2500 3097 2075 3097 
Q 1594 3097 1305 2825 
Q 1016 2553 972 2059 
L 3022 2063 
z
" transform="scale(0.015625)"/>
       <path id="DejaVuSans-20" transform="scale(0.015625)"/>
       <path id="DejaVuSans-28" d="M 1984 4856 
Q 1566 4138 1362 3434 
Q 1159 2731 1159 2009 
Q 1159 1288 1364 580 
Q 1569 -128 1984 -844 
L 1484 -844 
Q 1016 -109 783 600 
Q 550 1309 550 2009 
Q 550 2706 781 3412 
Q 1013 4119 1484 4856 
L 1984 4856 
z
" transform="scale(0.015625)"/>
       <path id="DejaVuSans-73" d="M 2834 3397 
L 2834 2853 
Q 2591 2978 2328 3040 
Q 2066 3103 1784 3103 
Q 1356 3103 1142 2972 
Q 928 2841 928 2578 
Q 928 2378 1081 2264 
Q 1234 2150 1697 2047 
L 1894 2003 
Q 2506 1872 2764 1633 
Q 3022 1394 3022 966 
Q 3022 478 2636 193 
Q 2250 -91 1575 -91 
Q 1294 -91 989 -36 
Q 684 19 347 128 
L 347 722 
Q 666 556 975 473 
Q 1284 391 1588 391 
Q 1994 391 2212 530 
Q 2431 669 2431 922 
Q 2431 1156 2273 1281 
Q 2116 1406 1581 1522 
L 1381 1569 
Q 847 1681 609 1914 
Q 372 2147 372 2553 
Q 372 3047 722 3315 
Q 1072 3584 1716 3584 
Q 2034 3584 2315 3537 
Q 2597 3491 2834 3397 
z
" transform="scale(0.015625)"/>
       <path id="DejaVuSans-29" d="M 513 4856 
L 1013 4856 
Q 1481 4119 1714 3412 
Q 1947 2706 1947 2009 
Q 1947 1309 1714 600 
Q 1481 -109 1013 -844 
L 513 -844 
Q 928 -128 1133 580 
Q 1338 1288 1338 2009 
Q 1338 2731 1133 3434 
Q 928 4138 513 4856 
z
" transform="scale(0.015625)"/>
      </defs>
      <use xlink:href="#DejaVuSans-54"/>
      <use xlink:href="#DejaVuSans-69" x="57.958984"/>
      <use xlink:href="#DejaVuSans-6d" x="85.742188"/>
      <use xlink:href="#DejaVuSans-65" x="183.154297"/>
      <use xlink:href="#DejaVuSans-20" x="244.677734"/>
      <use xlink:href="#DejaVuSans-28" x="276.464844"/>
      <use xlink:href="#DejaVuSans-73" x="315.478516"/>
      <use xlink:href="#DejaVuSans-29" x="367.578125"/>
     </g>
    </g>
   </g>
   <g id="matplotlib.axis_2">
    <g id="ytick_1">
     <g id="line2d_7">
      <defs>
       <path id="m2ecb30853d" d="M 0 0 
L -3.5 0 
" style="stroke: #000000; stroke-width: 0.8"/>
      </defs>
      <g>
       <use xlink:href="#m2ecb30853d" x="57.6" y="305.710428" style="stroke: #000000; stroke-width: 0.8"/>
      </g>
     </g>
     <g id="text_8">
      <!-- −0.02 -->
      <g transform="translate(19.954687 309.509647) scale(0.1 -0.1)">
       <defs>
        <path id="DejaVuSans-2212" d="M 678 2272 
L 4684 2272 
L 4684 1741 
L 678 1741 
L 678 2272 
z
" transform="scale(0.015625)"/>
       </defs>
       <use xlink:href="#DejaVuSans-2212"/>
       <use xlink:href="#DejaVuSans-30" x="83.789062"/>
       <use xlink:href="#DejaVuSans-2e" x="147.412109"/>
       <use xlink:href="#DejaVuSans-30" x="179.199219"/>
       <use xlink:href="#DejaVuSans-32" x="242.822266"/>
      </g>
     </g>
    </g>
    <g id="ytick_2">
     <g id="line2d_8">
      <g>
       <use xlink:href="#m2ecb30853d" x="57.6" y="276.046613" style="stroke: #000000; stroke-width: 0.8"/>
      </g>
     </g>
     <g id="text_9">
      <!-- −0.01 -->
      <g transform="translate(19.954687 279.845832) scale(0.1 -0.1)">
       <use xlink:href="#DejaVuSans-2212"/>
       <use xlink:href="#DejaVuSans-30" x="83.789062"/>
       <use xlink:href="#DejaVuSans-2e" x="147.412109"/>
       <use xlink:href="#DejaVuSans-30" x="179.199219"/>
       <use xlink:href="#DejaVuSans-31" x="242.822266"/>
      </g>
     </g>
    </g>
    <g id="ytick_3">
     <g id="line2d_9">
      <g>
       <use xlink:href="#m2ecb30853d" x="57.6" y="246.382798" style="stroke: #000000; stroke-width: 0.8"/>
      </g>
     </g>
     <g id="text_10">
      <!-- 0.00 -->
      <g transform="translate(28.334375 250.182017) scale(0.1 -0.1)">
       <use xlink:href="#DejaVuSans-30"/>
       <use xlink:href="#DejaVuSans-2e" x="63.623047"/>
       <use xlink:href="#DejaVuSans-30" x="95.410156"/>
       <use xlink:href="#DejaVuSans-30" x="159.033203"/>
      </g>
     </g>
    </g>
    <g id="ytick_4">
     <g id="line2d_10">
      <g>
       <use xlink:href="#m2ecb30853d" x="57.6" y="216.718983" style="stroke: #000000; stroke-width: 0.8"/>
      </g>
     </g>
     <g id="text_11">
      <!-- 0.01 -->
      <g transform="translate(28.334375 220.518202) scale(0.1 -0.1)">
       <use xlink:href="#DejaVuSans-30"/>
       <use xlink:href="#DejaVuSans-2e" x="63.623047"/>
       <use xlink:href="#DejaVuSans-30" x="95.410156"/>
       <use xlink:href="#DejaVuSans-31" x="159.033203"/>
      </g>
     </g>
    </g>
    <g id="ytick_5">
     <g id="line2d_11">
      <g>
       <use xlink:href="#m2ecb30853d" x="57.6" y="187.055168" style="stroke: #000000; stroke-width: 0.8"/>
      </g>
     </g>
     <g id="text_12">
      <!-- 0.02 -->
      <g transform="translate(28.334375 190.854386) scale(0.1 -0.1)">
       <use xlink:href="#DejaVuSans-30"/>
       <use xlink:href="#DejaVuSans-2e" x="63.623047"/>
       <use xlink:href="#DejaVuSans-30" x="95.410156"/>
       <use xlink:href="#DejaVuSans-32" x="159.033203"/>
      </g>
     </g>
    </g>
    <g id="ytick_6">
     <g id="line2d_12">
      <g>
       <use xlink:href="#m2ecb30853d" x="57.6" y="157.391353" style="stroke: #000000; stroke-width: 0.8"/>
      </g>
     </g>
     <g id="text_13">
      <!-- 0.03 -->
      <g transform="translate(28.334375 161.190571) scale(0.1 -0.1)">
       <defs>
        <path id="DejaVuSans-33" d="M 2597 2516 
Q 3050 2419 3304 2112 
Q 3559 1806 3559 1356 
Q 3559 666 3084 287 
Q 2609 -91 1734 -91 
Q 1441 -91 1130 -33 
Q 819 25 488 141 
L 488 750 
Q 750 597 1062 519 
Q 1375 441 1716 441 
Q 2309 441 2620 675 
Q 2931 909 2931 1356 
Q 2931 1769 2642 2001 
Q 2353 2234 1838 2234 
L 1294 2234 
L 1294 2753 
L 1863 2753 
Q 2328 2753 2575 2939 
Q 2822 3125 2822 3475 
Q 2822 3834 2567 4026 
Q 2313 4219 1838 4219 
Q 1578 4219 1281 4162 
Q 984 4106 628 3988 
L 628 4550 
Q 988 4650 1302 4700 
Q 1616 4750 1894 4750 
Q 2613 4750 3031 4423 
Q 3450 4097 3450 3541 
Q 3450 3153 3228 2886 
Q 3006 2619 2597 2516 
z
" transform="scale(0.015625)"/>
       </defs>
       <use xlink:href="#DejaVuSans-30"/>
       <use xlink:href="#DejaVuSans-2e" x="63.623047"/>
       <use xlink:href="#DejaVuSans-30" x="95.410156"/>
       <use xlink:href="#DejaVuSans-33" x="159.033203"/>
      </g>
     </g>
    </g>
    <g id="ytick_7">
     <g id="line2d_13">
      <g>
       <use xlink:href="#m2ecb30853d" x="57.6" y="127.727538" style="stroke: #000000; stroke-width: 0.8"/>
      </g>
     </g>
     <g id="text_14">
      <!-- 0.04 -->
      <g transform="translate(28.334375 131.526756) scale(0.1 -0.1)">
       <use xlink:href="#DejaVuSans-30"/>
       <use xlink:href="#DejaVuSans-2e" x="63.623047"/>
       <use xlink:href="#DejaVuSans-30" x="95.410156"/>
       <use xlink:href="#DejaVuSans-34" x="159.033203"/>
      </g>
     </g>
    </g>
    <g id="ytick_8">
     <g id="line2d_14">
      <g>
       <use xlink:href="#m2ecb30853d" x="57.6" y="98.063723" style="stroke: #000000; stroke-width: 0.8"/>
      </g>
     </g>
     <g id="text_15">
      <!-- 0.05 -->
      <g transform="translate(28.334375 101.862941) scale(0.1 -0.1)">
       <defs>
        <path id="DejaVuSans-35" d="M 691 4666 
L 3169 4666 
L 3169 4134 
L 1269 4134 
L 1269 2991 
Q 1406 3038 1543 3061 
Q 1681 3084 1819 3084 
Q 2600 3084 3056 2656 
Q 3513 2228 3513 1497 
Q 3513 744 3044 326 
Q 2575 -91 1722 -91 
Q 1428 -91 1123 -41 
Q 819 9 494 109 
L 494 744 
Q 775 591 1075 516 
Q 1375 441 1709 441 
Q 2250 441 2565 725 
Q 2881 1009 2881 1497 
Q 2881 1984 2565 2268 
Q 2250 2553 1709 2553 
Q 1456 2553 1204 2497 
Q 953 2441 691 2322 
L 691 4666 
z
" transform="scale(0.015625)"/>
       </defs>
       <use xlink:href="#DejaVuSans-30"/>
       <use xlink:href="#DejaVuSans-2e" x="63.623047"/>
       <use xlink:href="#DejaVuSans-30" x="95.410156"/>
       <use xlink:href="#DejaVuSans-35" x="159.033203"/>
      </g>
     </g>
    </g>
    <g id="ytick_9">
     <g id="line2d_15">
      <g>
       <use xlink:href="#m2ecb30853d" x="57.6" y="68.399908" style="stroke: #000000; stroke-width: 0.8"/>
      </g>
     </g>
     <g id="text_16">
      <!-- 0.06 -->
      <g transform="translate(28.334375 72.199126) scale(0.1 -0.1)">
       <use xlink:href="#DejaVuSans-30"/>
       <use xlink:href="#DejaVuSans-2e" x="63.623047"/>
       <use xlink:href="#DejaVuSans-30" x="95.410156"/>
       <use xlink:href="#DejaVuSans-36" x="159.033203"/>
      </g>
     </g>
    </g>
    <g id="text_17">
     <!-- Partial Spearman Correlation -->
     <g transform="translate(13.875 246.54675) rotate(-90) scale(0.1 -0.1)">
      <defs>
       <path id="DejaVuSans-50" d="M 1259 4147 
L 1259 2394 
L 2053 2394 
Q 2494 2394 2734 2622 
Q 2975 2850 2975 3272 
Q 2975 3691 2734 3919 
Q 2494 4147 2053 4147 
L 1259 4147 
z
M 628 4666 
L 2053 4666 
Q 2838 4666 3239 4311 
Q 3641 3956 3641 3272 
Q 3641 2581 3239 2228 
Q 2838 1875 2053 1875 
L 1259 1875 
L 1259 0 
L 628 0 
L 628 4666 
z
" transform="scale(0.015625)"/>
       <path id="DejaVuSans-61" d="M 2194 1759 
Q 1497 1759 1228 1600 
Q 959 1441 959 1056 
Q 959 750 1161 570 
Q 1363 391 1709 391 
Q 2188 391 2477 730 
Q 2766 1069 2766 1631 
L 2766 1759 
L 2194 1759 
z
M 3341 1997 
L 3341 0 
L 2766 0 
L 2766 531 
Q 2569 213 2275 61 
Q 1981 -91 1556 -91 
Q 1019 -91 701 211 
Q 384 513 384 1019 
Q 384 1609 779 1909 
Q 1175 2209 1959 2209 
L 2766 2209 
L 2766 2266 
Q 2766 2663 2505 2880 
Q 2244 3097 1772 3097 
Q 1472 3097 1187 3025 
Q 903 2953 641 2809 
L 641 3341 
Q 956 3463 1253 3523 
Q 1550 3584 1831 3584 
Q 2591 3584 2966 3190 
Q 3341 2797 3341 1997 
z
" transform="scale(0.015625)"/>
       <path id="DejaVuSans-72" d="M 2631 2963 
Q 2534 3019 2420 3045 
Q 2306 3072 2169 3072 
Q 1681 3072 1420 2755 
Q 1159 2438 1159 1844 
L 1159 0 
L 581 0 
L 581 3500 
L 1159 3500 
L 1159 2956 
Q 1341 3275 1631 3429 
Q 1922 3584 2338 3584 
Q 2397 3584 2469 3576 
Q 2541 3569 2628 3553 
L 2631 2963 
z
" transform="scale(0.015625)"/>
       <path id="DejaVuSans-74" d="M 1172 4494 
L 1172 3500 
L 2356 3500 
L 2356 3053 
L 1172 3053 
L 1172 1153 
Q 1172 725 1289 603 
Q 1406 481 1766 481 
L 2356 481 
L 2356 0 
L 1766 0 
Q 1100 0 847 248 
Q 594 497 594 1153 
L 594 3053 
L 172 3053 
L 172 3500 
L 594 3500 
L 594 4494 
L 1172 4494 
z
" transform="scale(0.015625)"/>
       <path id="DejaVuSans-6c" d="M 603 4863 
L 1178 4863 
L 1178 0 
L 603 0 
L 603 4863 
z
" transform="scale(0.015625)"/>
       <path id="DejaVuSans-53" d="M 3425 4513 
L 3425 3897 
Q 3066 4069 2747 4153 
Q 2428 4238 2131 4238 
Q 1616 4238 1336 4038 
Q 1056 3838 1056 3469 
Q 1056 3159 1242 3001 
Q 1428 2844 1947 2747 
L 2328 2669 
Q 3034 2534 3370 2195 
Q 3706 1856 3706 1288 
Q 3706 609 3251 259 
Q 2797 -91 1919 -91 
Q 1588 -91 1214 -16 
Q 841 59 441 206 
L 441 856 
Q 825 641 1194 531 
Q 1563 422 1919 422 
Q 2459 422 2753 634 
Q 3047 847 3047 1241 
Q 3047 1584 2836 1778 
Q 2625 1972 2144 2069 
L 1759 2144 
Q 1053 2284 737 2584 
Q 422 2884 422 3419 
Q 422 4038 858 4394 
Q 1294 4750 2059 4750 
Q 2388 4750 2728 4690 
Q 3069 4631 3425 4513 
z
" transform="scale(0.015625)"/>
       <path id="DejaVuSans-70" d="M 1159 525 
L 1159 -1331 
L 581 -1331 
L 581 3500 
L 1159 3500 
L 1159 2969 
Q 1341 3281 1617 3432 
Q 1894 3584 2278 3584 
Q 2916 3584 3314 3078 
Q 3713 2572 3713 1747 
Q 3713 922 3314 415 
Q 2916 -91 2278 -91 
Q 1894 -91 1617 61 
Q 1341 213 1159 525 
z
M 3116 1747 
Q 3116 2381 2855 2742 
Q 2594 3103 2138 3103 
Q 1681 3103 1420 2742 
Q 1159 2381 1159 1747 
Q 1159 1113 1420 752 
Q 1681 391 2138 391 
Q 2594 391 2855 752 
Q 3116 1113 3116 1747 
z
" transform="scale(0.015625)"/>
       <path id="DejaVuSans-6e" d="M 3513 2113 
L 3513 0 
L 2938 0 
L 2938 2094 
Q 2938 2591 2744 2837 
Q 2550 3084 2163 3084 
Q 1697 3084 1428 2787 
Q 1159 2491 1159 1978 
L 1159 0 
L 581 0 
L 581 3500 
L 1159 3500 
L 1159 2956 
Q 1366 3272 1645 3428 
Q 1925 3584 2291 3584 
Q 2894 3584 3203 3211 
Q 3513 2838 3513 2113 
z
" transform="scale(0.015625)"/>
       <path id="DejaVuSans-43" d="M 4122 4306 
L 4122 3641 
Q 3803 3938 3442 4084 
Q 3081 4231 2675 4231 
Q 1875 4231 1450 3742 
Q 1025 3253 1025 2328 
Q 1025 1406 1450 917 
Q 1875 428 2675 428 
Q 3081 428 3442 575 
Q 3803 722 4122 1019 
L 4122 359 
Q 3791 134 3420 21 
Q 3050 -91 2638 -91 
Q 1578 -91 968 557 
Q 359 1206 359 2328 
Q 359 3453 968 4101 
Q 1578 4750 2638 4750 
Q 3056 4750 3426 4639 
Q 3797 4528 4122 4306 
z
" transform="scale(0.015625)"/>
       <path id="DejaVuSans-6f" d="M 1959 3097 
Q 1497 3097 1228 2736 
Q 959 2375 959 1747 
Q 959 1119 1226 758 
Q 1494 397 1959 397 
Q 2419 397 2687 759 
Q 2956 1122 2956 1747 
Q 2956 2369 2687 2733 
Q 2419 3097 1959 3097 
z
M 1959 3584 
Q 2709 3584 3137 3096 
Q 3566 2609 3566 1747 
Q 3566 888 3137 398 
Q 2709 -91 1959 -91 
Q 1206 -91 779 398 
Q 353 888 353 1747 
Q 353 2609 779 3096 
Q 1206 3584 1959 3584 
z
" transform="scale(0.015625)"/>
      </defs>
      <use xlink:href="#DejaVuSans-50"/>
      <use xlink:href="#DejaVuSans-61" x="55.802734"/>
      <use xlink:href="#DejaVuSans-72" x="117.082031"/>
      <use xlink:href="#DejaVuSans-74" x="158.195312"/>
      <use xlink:href="#DejaVuSans-69" x="197.404297"/>
      <use xlink:href="#DejaVuSans-61" x="225.1875"/>
      <use xlink:href="#DejaVuSans-6c" x="286.466797"/>
      <use xlink:href="#DejaVuSans-20" x="314.25"/>
      <use xlink:href="#DejaVuSans-53" x="346.037109"/>
      <use xlink:href="#DejaVuSans-70" x="409.513672"/>
      <use xlink:href="#DejaVuSans-65" x="472.990234"/>
      <use xlink:href="#DejaVuSans-61" x="534.513672"/>
      <use xlink:href="#DejaVuSans-72" x="595.792969"/>
      <use xlink:href="#DejaVuSans-6d" x="635.15625"/>
      <use xlink:href="#DejaVuSans-61" x="732.568359"/>
      <use xlink:href="#DejaVuSans-6e" x="793.847656"/>
      <use xlink:href="#DejaVuSans-20" x="857.226562"/>
      <use xlink:href="#DejaVuSans-43" x="889.013672"/>
      <use xlink:href="#DejaVuSans-6f" x="958.837891"/>
      <use xlink:href="#DejaVuSans-72" x="1020.019531"/>
      <use xlink:href="#DejaVuSans-72" x="1059.382812"/>
      <use xlink:href="#DejaVuSans-65" x="1098.246094"/>
      <use xlink:href="#DejaVuSans-6c" x="1159.769531"/>
      <use xlink:href="#DejaVuSans-61" x="1187.552734"/>
      <use xlink:href="#DejaVuSans-74" x="1248.832031"/>
      <use xlink:href="#DejaVuSans-69" x="1288.041016"/>
      <use xlink:href="#DejaVuSans-6f" x="1315.824219"/>
      <use xlink:href="#DejaVuSans-6e" x="1377.005859"/>
     </g>
    </g>
   </g>
   <g id="line2d_16">
    <path d="M 103.346777 307.584 
L 103.346777 41.472 
" clip-path="url(#p1351981b2c)" style="fill: none; stroke-dasharray: 5.55,2.4; stroke-dashoffset: 0; stroke: #d3d3d3; stroke-width: 1.5"/>
   </g>
   <g id="line2d_17">
    <path d="M 57.6 246.382798 
L 414.72 246.382798 
" clip-path="url(#p1351981b2c)" style="fill: none; stroke-dasharray: 5.55,2.4; stroke-dashoffset: 0; stroke: #d3d3d3; stroke-width: 1.5"/>
   </g>
   <g id="line2d_18">
    <path d="M 73.832727 258.555907 
L 76.151688 254.053961 
L 78.470649 251.100896 
L 80.78961 252.642223 
L 83.108571 249.567039 
L 85.427532 254.1865 
L 87.746494 247.472459 
L 90.065455 244.449123 
L 92.384416 247.679326 
L 94.703377 254.755875 
L 97.022338 257.3315 
L 99.341299 250.525046 
L 101.66026 233.641364 
L 103.979221 233.099526 
L 106.298182 241.931338 
L 108.617143 252.098004 
L 110.936104 256.157189 
L 113.255065 256.863852 
L 115.574026 262.786281 
L 117.892987 276.402382 
L 120.211948 281.195987 
L 122.530909 264.455796 
L 124.84987 227.277532 
L 127.168831 202.377998 
L 129.487792 188.462807 
L 131.806753 186.400024 
L 134.125714 190.432588 
L 136.444675 195.770276 
L 138.763636 193.157309 
L 141.082597 188.156256 
L 143.401558 187.491388 
L 145.720519 185.337988 
L 148.039481 175.058338 
L 150.358442 151.609003 
L 152.677403 131.640508 
L 154.996364 118.895748 
L 157.315325 112.209351 
L 159.634286 109.29462 
L 161.953247 105.795388 
L 164.272208 101.932862 
L 166.591169 100.007339 
L 168.91013 101.10646 
L 171.229091 106.5442 
L 173.548052 116.189479 
L 175.867013 129.082682 
L 178.185974 143.219003 
L 180.504935 154.525758 
L 182.823896 161.042963 
L 185.142857 164.943577 
L 189.780779 170.625446 
L 192.09974 175.473419 
L 194.418701 182.29573 
L 196.737662 188.314887 
L 201.375584 205.280896 
L 203.694545 208.514365 
L 206.013506 209.485248 
L 210.651429 214.719673 
L 212.97039 216.228227 
L 215.289351 216.632182 
L 217.608312 218.292093 
L 219.927273 222.02059 
L 222.246234 223.536088 
L 224.565195 221.350173 
L 226.884156 218.375576 
L 229.203117 215.773461 
L 231.522078 212.394244 
L 233.841039 208.810941 
L 236.16 206.509198 
L 238.478961 207.68841 
L 240.797922 211.310623 
L 243.116883 217.57626 
L 247.754805 231.476645 
L 250.073766 236.636458 
L 252.392727 238.85217 
L 254.711688 239.400601 
L 259.34961 238.803795 
L 261.668571 239.762769 
L 263.987532 240.457484 
L 266.306494 241.439641 
L 268.625455 241.295579 
L 270.944416 239.177209 
L 273.263377 234.864872 
L 275.582338 229.612267 
L 277.901299 223.577195 
L 280.22026 221.308677 
L 282.539221 223.546863 
L 284.858182 227.277491 
L 287.177143 228.592811 
L 289.496104 227.367673 
L 291.815065 225.815818 
L 294.134026 226.926616 
L 296.452987 228.944642 
L 298.771948 229.524422 
L 301.090909 230.266574 
L 303.40987 233.091673 
L 305.728831 236.20135 
L 308.047792 238.737254 
L 310.366753 241.084621 
L 312.685714 244.248984 
L 315.004675 245.081006 
L 317.323636 243.792412 
L 321.961558 238.392429 
L 324.280519 236.435638 
L 326.599481 236.916719 
L 328.918442 239.748752 
L 331.237403 241.152469 
L 333.556364 239.370132 
L 335.875325 235.77661 
L 338.194286 234.291062 
L 340.513247 232.551744 
L 342.832208 229.908761 
L 345.151169 229.195102 
L 347.47013 232.341585 
L 349.789091 236.754348 
L 352.108052 240.262648 
L 354.427013 244.820892 
L 356.745974 249.817828 
L 359.064935 252.078956 
L 361.383896 251.603992 
L 363.702857 248.965022 
L 366.021818 243.784327 
L 370.65974 227.960297 
L 372.978701 222.912928 
L 375.297662 222.194548 
L 377.616623 224.728308 
L 379.935584 230.001183 
L 382.254545 236.442968 
L 384.573506 240.712738 
L 386.892468 240.369759 
L 389.211429 237.849907 
L 391.53039 237.015432 
L 396.168312 237.51315 
L 398.487273 239.019161 
L 398.487273 239.019161 
" clip-path="url(#p1351981b2c)" style="fill: none; stroke: #ff2c55; stroke-linecap: square"/>
   </g>
   <g id="line2d_19">
    <path d="M 73.832727 253.331577 
L 76.151688 251.288068 
L 78.470649 241.430348 
L 80.78961 226.902662 
L 83.108571 230.341621 
L 85.427532 252.440901 
L 87.746494 265.480884 
L 90.065455 262.845012 
L 92.384416 248.79946 
L 94.703377 231.744259 
L 97.022338 231.056253 
L 99.341299 232.821886 
L 101.66026 238.920914 
L 103.979221 234.279733 
L 106.298182 231.577276 
L 108.617143 226.796378 
L 110.936104 226.044145 
L 113.255065 227.216672 
L 115.574026 231.154579 
L 117.892987 233.589195 
L 120.211948 230.618025 
L 122.530909 209.163047 
L 124.84987 170.784574 
L 127.168831 136.466488 
L 129.487792 119.220563 
L 131.806753 108.210429 
L 134.125714 99.055048 
L 136.444675 92.343298 
L 138.763636 87.386359 
L 141.082597 83.125218 
L 143.401558 80.070757 
L 145.720519 81.1416 
L 148.039481 86.339221 
L 150.358442 99.729919 
L 152.677403 110.855562 
L 154.996364 115.765802 
L 157.315325 118.794011 
L 159.634286 123.223331 
L 161.953247 128.455325 
L 164.272208 131.771686 
L 166.591169 132.021479 
L 168.91013 129.961424 
L 171.229091 128.166338 
L 173.548052 127.677175 
L 175.867013 126.678482 
L 178.185974 125.439539 
L 180.504935 125.307279 
L 182.823896 126.79902 
L 185.142857 129.01965 
L 187.461818 132.097659 
L 189.780779 135.647906 
L 192.09974 140.807776 
L 194.418701 145.213052 
L 199.056623 153.301632 
L 201.375584 157.390052 
L 203.694545 160.555837 
L 206.013506 163.312602 
L 208.332468 164.95586 
L 210.651429 166.133576 
L 212.97039 166.021181 
L 215.289351 165.301002 
L 219.927273 163.523908 
L 222.246234 163.249908 
L 224.565195 164.621083 
L 226.884156 167.539839 
L 229.203117 170.260628 
L 231.522078 172.801073 
L 233.841039 174.487923 
L 238.478961 178.256326 
L 240.797922 181.012707 
L 243.116883 184.752555 
L 245.435844 188.013265 
L 247.754805 189.929641 
L 250.073766 190.141397 
L 252.392727 189.268819 
L 254.711688 188.711742 
L 257.030649 188.457403 
L 259.34961 188.002256 
L 261.668571 187.362217 
L 263.987532 186.254963 
L 266.306494 186.624717 
L 268.625455 188.253262 
L 273.263377 190.991646 
L 277.901299 192.691056 
L 282.539221 193.167276 
L 284.858182 193.529986 
L 287.177143 195.917793 
L 289.496104 197.829791 
L 291.815065 199.555105 
L 296.452987 205.360874 
L 298.771948 206.709051 
L 301.090909 206.849469 
L 303.40987 207.27093 
L 305.728831 207.184868 
L 308.047792 206.117669 
L 310.366753 204.345704 
L 312.685714 202.802072 
L 315.004675 200.907332 
L 317.323636 197.989259 
L 319.642597 195.601066 
L 321.961558 194.760828 
L 324.280519 195.474519 
L 326.599481 195.941156 
L 331.237403 197.435527 
L 333.556364 198.184948 
L 335.875325 198.722154 
L 338.194286 199.63049 
L 340.513247 200.128191 
L 342.832208 199.840831 
L 345.151169 199.030859 
L 347.47013 198.501872 
L 349.789091 199.002587 
L 352.108052 201.129097 
L 354.427013 203.480764 
L 359.064935 208.556685 
L 361.383896 209.30014 
L 363.702857 207.832609 
L 366.021818 205.472839 
L 368.340779 203.668004 
L 370.65974 202.666888 
L 372.978701 202.047283 
L 375.297662 202.643107 
L 377.616623 204.087497 
L 379.935584 205.101962 
L 382.254545 205.812932 
L 384.573506 207.562194 
L 386.892468 210.631598 
L 389.211429 213.341482 
L 391.53039 214.554733 
L 393.849351 215.107544 
L 396.168312 215.487276 
L 398.487273 214.79737 
L 398.487273 214.79737 
" clip-path="url(#p1351981b2c)" style="fill: none; stroke: #ee9b00; stroke-linecap: square"/>
   </g>
   <g id="line2d_20">
    <path d="M 166.591169 307.584 
L 166.591169 41.472 
" clip-path="url(#p1351981b2c)" style="fill: none; stroke-dasharray: 5.55,2.4; stroke-dashoffset: 0; stroke: #ff2c55; stroke-width: 1.5"/>
   </g>
   <g id="line2d_21">
    <path d="M 143.401558 307.584 
L 143.401558 41.472 
" clip-path="url(#p1351981b2c)" style="fill: none; stroke-dasharray: 5.55,2.4; stroke-dashoffset: 0; stroke: #ee9b00; stroke-width: 1.5"/>
   </g>
   <g id="line2d_22">
    <path d="M 166.591169 53.568 
L 143.401558 53.568 
" clip-path="url(#p1351981b2c)" style="fill: none; stroke: #000000; stroke-width: 1.5; stroke-linecap: square"/>
   </g>
   <g id="line2d_23">
    <path d="M 166.591169 59.500763 
L 166.591169 53.568 
" clip-path="url(#p1351981b2c)" style="fill: none; stroke: #000000; stroke-width: 1.5; stroke-linecap: square"/>
   </g>
   <g id="line2d_24">
    <path d="M 143.401558 59.500763 
L 143.401558 53.568 
" clip-path="url(#p1351981b2c)" style="fill: none; stroke: #000000; stroke-width: 1.5; stroke-linecap: square"/>
   </g>
   <g id="patch_3">
    <path d="M 57.6 307.584 
L 57.6 41.472 
" style="fill: none; stroke: #000000; stroke-width: 0.8; stroke-linejoin: miter; stroke-linecap: square"/>
   </g>
   <g id="patch_4">
    <path d="M 57.6 307.584 
L 414.72 307.584 
" style="fill: none; stroke: #000000; stroke-width: 0.8; stroke-linejoin: miter; stroke-linecap: square"/>
   </g>
   <g id="text_18">
    <!-- . -->
    <g style="fill: #ff2c55" transform="translate(152.677403 298.454382) scale(0.15 -0.15)">
     <use xlink:href="#DejaVuSans-2e"/>
    </g>
   </g>
   <g id="text_19">
    <!-- . -->
    <g style="fill: #ff2c55" transform="translate(154.996364 298.454382) scale(0.15 -0.15)">
     <use xlink:href="#DejaVuSans-2e"/>
    </g>
   </g>
   <g id="text_20">
    <!-- . -->
    <g style="fill: #ff2c55" transform="translate(157.315325 298.454382) scale(0.15 -0.15)">
     <use xlink:href="#DejaVuSans-2e"/>
    </g>
   </g>
   <g id="text_21">
    <!-- . -->
    <g style="fill: #ff2c55" transform="translate(159.634286 298.454382) scale(0.15 -0.15)">
     <use xlink:href="#DejaVuSans-2e"/>
    </g>
   </g>
   <g id="text_22">
    <!-- . -->
    <g style="fill: #ff2c55" transform="translate(161.953247 298.454382) scale(0.15 -0.15)">
     <use xlink:href="#DejaVuSans-2e"/>
    </g>
   </g>
   <g id="text_23">
    <!-- . -->
    <g style="fill: #ff2c55" transform="translate(164.272208 298.454382) scale(0.15 -0.15)">
     <use xlink:href="#DejaVuSans-2e"/>
    </g>
   </g>
   <g id="text_24">
    <!-- . -->
    <g style="fill: #ff2c55" transform="translate(166.591169 298.454382) scale(0.15 -0.15)">
     <use xlink:href="#DejaVuSans-2e"/>
    </g>
   </g>
   <g id="text_25">
    <!-- . -->
    <g style="fill: #ff2c55" transform="translate(168.91013 298.454382) scale(0.15 -0.15)">
     <use xlink:href="#DejaVuSans-2e"/>
    </g>
   </g>
   <g id="text_26">
    <!-- . -->
    <g style="fill: #ff2c55" transform="translate(171.229091 298.454382) scale(0.15 -0.15)">
     <use xlink:href="#DejaVuSans-2e"/>
    </g>
   </g>
   <g id="text_27">
    <!-- . -->
    <g style="fill: #ff2c55" transform="translate(173.548052 298.454382) scale(0.15 -0.15)">
     <use xlink:href="#DejaVuSans-2e"/>
    </g>
   </g>
   <g id="text_28">
    <!-- . -->
    <g style="fill: #ff2c55" transform="translate(175.867013 298.454382) scale(0.15 -0.15)">
     <use xlink:href="#DejaVuSans-2e"/>
    </g>
   </g>
   <g id="text_29">
    <!-- . -->
    <g style="fill: #ee9b00" transform="translate(87.746494 304.387145) scale(0.15 -0.15)">
     <use xlink:href="#DejaVuSans-2e"/>
    </g>
   </g>
   <g id="text_30">
    <!-- . -->
    <g style="fill: #ee9b00" transform="translate(90.065455 304.387145) scale(0.15 -0.15)">
     <use xlink:href="#DejaVuSans-2e"/>
    </g>
   </g>
   <g id="text_31">
    <!-- . -->
    <g style="fill: #ee9b00" transform="translate(122.530909 304.387145) scale(0.15 -0.15)">
     <use xlink:href="#DejaVuSans-2e"/>
    </g>
   </g>
   <g id="text_32">
    <!-- . -->
    <g style="fill: #ee9b00" transform="translate(124.84987 304.387145) scale(0.15 -0.15)">
     <use xlink:href="#DejaVuSans-2e"/>
    </g>
   </g>
   <g id="text_33">
    <!-- . -->
    <g style="fill: #ee9b00" transform="translate(127.168831 304.387145) scale(0.15 -0.15)">
     <use xlink:href="#DejaVuSans-2e"/>
    </g>
   </g>
   <g id="text_34">
    <!-- . -->
    <g style="fill: #ee9b00" transform="translate(129.487792 304.387145) scale(0.15 -0.15)">
     <use xlink:href="#DejaVuSans-2e"/>
    </g>
   </g>
   <g id="text_35">
    <!-- . -->
    <g style="fill: #ee9b00" transform="translate(131.806753 304.387145) scale(0.15 -0.15)">
     <use xlink:href="#DejaVuSans-2e"/>
    </g>
   </g>
   <g id="text_36">
    <!-- . -->
    <g style="fill: #ee9b00" transform="translate(134.125714 304.387145) scale(0.15 -0.15)">
     <use xlink:href="#DejaVuSans-2e"/>
    </g>
   </g>
   <g id="text_37">
    <!-- . -->
    <g style="fill: #ee9b00" transform="translate(136.444675 304.387145) scale(0.15 -0.15)">
     <use xlink:href="#DejaVuSans-2e"/>
    </g>
   </g>
   <g id="text_38">
    <!-- . -->
    <g style="fill: #ee9b00" transform="translate(138.763636 304.387145) scale(0.15 -0.15)">
     <use xlink:href="#DejaVuSans-2e"/>
    </g>
   </g>
   <g id="text_39">
    <!-- . -->
    <g style="fill: #ee9b00" transform="translate(141.082597 304.387145) scale(0.15 -0.15)">
     <use xlink:href="#DejaVuSans-2e"/>
    </g>
   </g>
   <g id="text_40">
    <!-- . -->
    <g style="fill: #ee9b00" transform="translate(143.401558 304.387145) scale(0.15 -0.15)">
     <use xlink:href="#DejaVuSans-2e"/>
    </g>
   </g>
   <g id="text_41">
    <!-- . -->
    <g style="fill: #ee9b00" transform="translate(145.720519 304.387145) scale(0.15 -0.15)">
     <use xlink:href="#DejaVuSans-2e"/>
    </g>
   </g>
   <g id="text_42">
    <!-- . -->
    <g style="fill: #ee9b00" transform="translate(148.039481 304.387145) scale(0.15 -0.15)">
     <use xlink:href="#DejaVuSans-2e"/>
    </g>
   </g>
   <g id="text_43">
    <!-- . -->
    <g style="fill: #ee9b00" transform="translate(150.358442 304.387145) scale(0.15 -0.15)">
     <use xlink:href="#DejaVuSans-2e"/>
    </g>
   </g>
   <g id="text_44">
    <!-- . -->
    <g style="fill: #ee9b00" transform="translate(152.677403 304.387145) scale(0.15 -0.15)">
     <use xlink:href="#DejaVuSans-2e"/>
    </g>
   </g>
   <g id="text_45">
    <!-- . -->
    <g style="fill: #ee9b00" transform="translate(154.996364 304.387145) scale(0.15 -0.15)">
     <use xlink:href="#DejaVuSans-2e"/>
    </g>
   </g>
   <g id="text_46">
    <!-- . -->
    <g style="fill: #ee9b00" transform="translate(157.315325 304.387145) scale(0.15 -0.15)">
     <use xlink:href="#DejaVuSans-2e"/>
    </g>
   </g>
   <g id="text_47">
    <!-- . -->
    <g style="fill: #ee9b00" transform="translate(159.634286 304.387145) scale(0.15 -0.15)">
     <use xlink:href="#DejaVuSans-2e"/>
    </g>
   </g>
   <g id="text_48">
    <!-- . -->
    <g style="fill: #ee9b00" transform="translate(161.953247 304.387145) scale(0.15 -0.15)">
     <use xlink:href="#DejaVuSans-2e"/>
    </g>
   </g>
   <g id="text_49">
    <!-- . -->
    <g style="fill: #ee9b00" transform="translate(164.272208 304.387145) scale(0.15 -0.15)">
     <use xlink:href="#DejaVuSans-2e"/>
    </g>
   </g>
   <g id="text_50">
    <!-- . -->
    <g style="fill: #ee9b00" transform="translate(166.591169 304.387145) scale(0.15 -0.15)">
     <use xlink:href="#DejaVuSans-2e"/>
    </g>
   </g>
   <g id="text_51">
    <!-- . -->
    <g style="fill: #ee9b00" transform="translate(168.91013 304.387145) scale(0.15 -0.15)">
     <use xlink:href="#DejaVuSans-2e"/>
    </g>
   </g>
   <g id="text_52">
    <!-- . -->
    <g style="fill: #ee9b00" transform="translate(171.229091 304.387145) scale(0.15 -0.15)">
     <use xlink:href="#DejaVuSans-2e"/>
    </g>
   </g>
   <g id="text_53">
    <!-- . -->
    <g style="fill: #ee9b00" transform="translate(173.548052 304.387145) scale(0.15 -0.15)">
     <use xlink:href="#DejaVuSans-2e"/>
    </g>
   </g>
   <g id="text_54">
    <!-- . -->
    <g style="fill: #ee9b00" transform="translate(175.867013 304.387145) scale(0.15 -0.15)">
     <use xlink:href="#DejaVuSans-2e"/>
    </g>
   </g>
   <g id="text_55">
    <!-- . -->
    <g style="fill: #ee9b00" transform="translate(178.185974 304.387145) scale(0.15 -0.15)">
     <use xlink:href="#DejaVuSans-2e"/>
    </g>
   </g>
   <g id="text_56">
    <!-- . -->
    <g style="fill: #ee9b00" transform="translate(180.504935 304.387145) scale(0.15 -0.15)">
     <use xlink:href="#DejaVuSans-2e"/>
    </g>
   </g>
   <g id="text_57">
    <!-- . -->
    <g style="fill: #ee9b00" transform="translate(182.823896 304.387145) scale(0.15 -0.15)">
     <use xlink:href="#DejaVuSans-2e"/>
    </g>
   </g>
   <g id="text_58">
    <!-- . -->
    <g style="fill: #ee9b00" transform="translate(185.142857 304.387145) scale(0.15 -0.15)">
     <use xlink:href="#DejaVuSans-2e"/>
    </g>
   </g>
   <g id="text_59">
    <!-- . -->
    <g style="fill: #ee9b00" transform="translate(187.461818 304.387145) scale(0.15 -0.15)">
     <use xlink:href="#DejaVuSans-2e"/>
    </g>
   </g>
   <g id="text_60">
    <!-- . -->
    <g style="fill: #ee9b00" transform="translate(189.780779 304.387145) scale(0.15 -0.15)">
     <use xlink:href="#DejaVuSans-2e"/>
    </g>
   </g>
   <g id="text_61">
    <!-- . -->
    <g style="fill: #ee9b00" transform="translate(192.09974 304.387145) scale(0.15 -0.15)">
     <use xlink:href="#DejaVuSans-2e"/>
    </g>
   </g>
   <g id="text_62">
    <!-- . -->
    <g style="fill: #ee9b00" transform="translate(194.418701 304.387145) scale(0.15 -0.15)">
     <use xlink:href="#DejaVuSans-2e"/>
    </g>
   </g>
   <g id="text_63">
    <!-- . -->
    <g style="fill: #ee9b00" transform="translate(196.737662 304.387145) scale(0.15 -0.15)">
     <use xlink:href="#DejaVuSans-2e"/>
    </g>
   </g>
   <g id="text_64">
    <!-- . -->
    <g style="fill: #ee9b00" transform="translate(199.056623 304.387145) scale(0.15 -0.15)">
     <use xlink:href="#DejaVuSans-2e"/>
    </g>
   </g>
   <g id="text_65">
    <!-- . -->
    <g style="fill: #ee9b00" transform="translate(201.375584 304.387145) scale(0.15 -0.15)">
     <use xlink:href="#DejaVuSans-2e"/>
    </g>
   </g>
   <g id="text_66">
    <!-- . -->
    <g style="fill: #ee9b00" transform="translate(203.694545 304.387145) scale(0.15 -0.15)">
     <use xlink:href="#DejaVuSans-2e"/>
    </g>
   </g>
   <g id="text_67">
    <!-- . -->
    <g style="fill: #ee9b00" transform="translate(206.013506 304.387145) scale(0.15 -0.15)">
     <use xlink:href="#DejaVuSans-2e"/>
    </g>
   </g>
   <g id="text_68">
    <!-- . -->
    <g style="fill: #ee9b00" transform="translate(208.332468 304.387145) scale(0.15 -0.15)">
     <use xlink:href="#DejaVuSans-2e"/>
    </g>
   </g>
   <g id="text_69">
    <!-- . -->
    <g style="fill: #ee9b00" transform="translate(210.651429 304.387145) scale(0.15 -0.15)">
     <use xlink:href="#DejaVuSans-2e"/>
    </g>
   </g>
   <g id="text_70">
    <!-- . -->
    <g style="fill: #ee9b00" transform="translate(212.97039 304.387145) scale(0.15 -0.15)">
     <use xlink:href="#DejaVuSans-2e"/>
    </g>
   </g>
   <g id="text_71">
    <!-- . -->
    <g style="fill: #ee9b00" transform="translate(215.289351 304.387145) scale(0.15 -0.15)">
     <use xlink:href="#DejaVuSans-2e"/>
    </g>
   </g>
   <g id="text_72">
    <!-- . -->
    <g style="fill: #ee9b00" transform="translate(217.608312 304.387145) scale(0.15 -0.15)">
     <use xlink:href="#DejaVuSans-2e"/>
    </g>
   </g>
   <g id="text_73">
    <!-- . -->
    <g style="fill: #ee9b00" transform="translate(219.927273 304.387145) scale(0.15 -0.15)">
     <use xlink:href="#DejaVuSans-2e"/>
    </g>
   </g>
   <g id="text_74">
    <!-- . -->
    <g style="fill: #ee9b00" transform="translate(222.246234 304.387145) scale(0.15 -0.15)">
     <use xlink:href="#DejaVuSans-2e"/>
    </g>
   </g>
   <g id="text_75">
    <!-- . -->
    <g style="fill: #ee9b00" transform="translate(224.565195 304.387145) scale(0.15 -0.15)">
     <use xlink:href="#DejaVuSans-2e"/>
    </g>
   </g>
   <g id="text_76">
    <!-- . -->
    <g style="fill: #ee9b00" transform="translate(226.884156 304.387145) scale(0.15 -0.15)">
     <use xlink:href="#DejaVuSans-2e"/>
    </g>
   </g>
   <g id="text_77">
    <!-- . -->
    <g style="fill: #ee9b00" transform="translate(229.203117 304.387145) scale(0.15 -0.15)">
     <use xlink:href="#DejaVuSans-2e"/>
    </g>
   </g>
   <g id="text_78">
    <!-- . -->
    <g style="fill: #ee9b00" transform="translate(231.522078 304.387145) scale(0.15 -0.15)">
     <use xlink:href="#DejaVuSans-2e"/>
    </g>
   </g>
   <g id="text_79">
    <!-- . -->
    <g style="fill: #ee9b00" transform="translate(233.841039 304.387145) scale(0.15 -0.15)">
     <use xlink:href="#DejaVuSans-2e"/>
    </g>
   </g>
   <g id="text_80">
    <!-- . -->
    <g style="fill: #ee9b00" transform="translate(236.16 304.387145) scale(0.15 -0.15)">
     <use xlink:href="#DejaVuSans-2e"/>
    </g>
   </g>
   <g id="text_81">
    <!-- . -->
    <g style="fill: #ee9b00" transform="translate(238.478961 304.387145) scale(0.15 -0.15)">
     <use xlink:href="#DejaVuSans-2e"/>
    </g>
   </g>
   <g id="text_82">
    <!-- . -->
    <g style="fill: #ee9b00" transform="translate(240.797922 304.387145) scale(0.15 -0.15)">
     <use xlink:href="#DejaVuSans-2e"/>
    </g>
   </g>
   <g id="text_83">
    <!-- . -->
    <g style="fill: #ee9b00" transform="translate(243.116883 304.387145) scale(0.15 -0.15)">
     <use xlink:href="#DejaVuSans-2e"/>
    </g>
   </g>
   <g id="text_84">
    <!-- . -->
    <g style="fill: #ee9b00" transform="translate(245.435844 304.387145) scale(0.15 -0.15)">
     <use xlink:href="#DejaVuSans-2e"/>
    </g>
   </g>
   <g id="text_85">
    <!-- . -->
    <g style="fill: #ee9b00" transform="translate(247.754805 304.387145) scale(0.15 -0.15)">
     <use xlink:href="#DejaVuSans-2e"/>
    </g>
   </g>
   <g id="text_86">
    <!-- . -->
    <g style="fill: #ee9b00" transform="translate(250.073766 304.387145) scale(0.15 -0.15)">
     <use xlink:href="#DejaVuSans-2e"/>
    </g>
   </g>
   <g id="text_87">
    <!-- . -->
    <g style="fill: #ee9b00" transform="translate(252.392727 304.387145) scale(0.15 -0.15)">
     <use xlink:href="#DejaVuSans-2e"/>
    </g>
   </g>
   <g id="text_88">
    <!-- . -->
    <g style="fill: #ee9b00" transform="translate(254.711688 304.387145) scale(0.15 -0.15)">
     <use xlink:href="#DejaVuSans-2e"/>
    </g>
   </g>
   <g id="text_89">
    <!-- . -->
    <g style="fill: #ee9b00" transform="translate(257.030649 304.387145) scale(0.15 -0.15)">
     <use xlink:href="#DejaVuSans-2e"/>
    </g>
   </g>
   <g id="text_90">
    <!-- . -->
    <g style="fill: #ee9b00" transform="translate(259.34961 304.387145) scale(0.15 -0.15)">
     <use xlink:href="#DejaVuSans-2e"/>
    </g>
   </g>
   <g id="text_91">
    <!-- . -->
    <g style="fill: #ee9b00" transform="translate(261.668571 304.387145) scale(0.15 -0.15)">
     <use xlink:href="#DejaVuSans-2e"/>
    </g>
   </g>
   <g id="text_92">
    <!-- . -->
    <g style="fill: #ee9b00" transform="translate(263.987532 304.387145) scale(0.15 -0.15)">
     <use xlink:href="#DejaVuSans-2e"/>
    </g>
   </g>
   <g id="text_93">
    <!-- . -->
    <g style="fill: #ee9b00" transform="translate(266.306494 304.387145) scale(0.15 -0.15)">
     <use xlink:href="#DejaVuSans-2e"/>
    </g>
   </g>
   <g id="text_94">
    <!-- . -->
    <g style="fill: #ee9b00" transform="translate(268.625455 304.387145) scale(0.15 -0.15)">
     <use xlink:href="#DejaVuSans-2e"/>
    </g>
   </g>
   <g id="text_95">
    <!-- . -->
    <g style="fill: #ee9b00" transform="translate(270.944416 304.387145) scale(0.15 -0.15)">
     <use xlink:href="#DejaVuSans-2e"/>
    </g>
   </g>
   <g id="text_96">
    <!-- . -->
    <g style="fill: #ee9b00" transform="translate(273.263377 304.387145) scale(0.15 -0.15)">
     <use xlink:href="#DejaVuSans-2e"/>
    </g>
   </g>
   <g id="text_97">
    <!-- . -->
    <g style="fill: #ee9b00" transform="translate(275.582338 304.387145) scale(0.15 -0.15)">
     <use xlink:href="#DejaVuSans-2e"/>
    </g>
   </g>
   <g id="text_98">
    <!-- . -->
    <g style="fill: #ee9b00" transform="translate(277.901299 304.387145) scale(0.15 -0.15)">
     <use xlink:href="#DejaVuSans-2e"/>
    </g>
   </g>
   <g id="text_99">
    <!-- . -->
    <g style="fill: #ee9b00" transform="translate(280.22026 304.387145) scale(0.15 -0.15)">
     <use xlink:href="#DejaVuSans-2e"/>
    </g>
   </g>
   <g id="text_100">
    <!-- . -->
    <g style="fill: #ee9b00" transform="translate(282.539221 304.387145) scale(0.15 -0.15)">
     <use xlink:href="#DejaVuSans-2e"/>
    </g>
   </g>
   <g id="text_101">
    <!-- . -->
    <g style="fill: #ee9b00" transform="translate(284.858182 304.387145) scale(0.15 -0.15)">
     <use xlink:href="#DejaVuSans-2e"/>
    </g>
   </g>
   <g id="text_102">
    <!-- . -->
    <g style="fill: #ee9b00" transform="translate(287.177143 304.387145) scale(0.15 -0.15)">
     <use xlink:href="#DejaVuSans-2e"/>
    </g>
   </g>
   <g id="text_103">
    <!-- . -->
    <g style="fill: #ee9b00" transform="translate(289.496104 304.387145) scale(0.15 -0.15)">
     <use xlink:href="#DejaVuSans-2e"/>
    </g>
   </g>
   <g id="text_104">
    <!-- . -->
    <g style="fill: #ee9b00" transform="translate(291.815065 304.387145) scale(0.15 -0.15)">
     <use xlink:href="#DejaVuSans-2e"/>
    </g>
   </g>
   <g id="text_105">
    <!-- . -->
    <g style="fill: #ee9b00" transform="translate(294.134026 304.387145) scale(0.15 -0.15)">
     <use xlink:href="#DejaVuSans-2e"/>
    </g>
   </g>
   <g id="text_106">
    <!-- . -->
    <g style="fill: #ee9b00" transform="translate(296.452987 304.387145) scale(0.15 -0.15)">
     <use xlink:href="#DejaVuSans-2e"/>
    </g>
   </g>
   <g id="text_107">
    <!-- . -->
    <g style="fill: #ee9b00" transform="translate(298.771948 304.387145) scale(0.15 -0.15)">
     <use xlink:href="#DejaVuSans-2e"/>
    </g>
   </g>
   <g id="text_108">
    <!-- . -->
    <g style="fill: #ee9b00" transform="translate(301.090909 304.387145) scale(0.15 -0.15)">
     <use xlink:href="#DejaVuSans-2e"/>
    </g>
   </g>
   <g id="text_109">
    <!-- . -->
    <g style="fill: #ee9b00" transform="translate(303.40987 304.387145) scale(0.15 -0.15)">
     <use xlink:href="#DejaVuSans-2e"/>
    </g>
   </g>
   <g id="text_110">
    <!-- . -->
    <g style="fill: #ee9b00" transform="translate(305.728831 304.387145) scale(0.15 -0.15)">
     <use xlink:href="#DejaVuSans-2e"/>
    </g>
   </g>
   <g id="text_111">
    <!-- . -->
    <g style="fill: #ee9b00" transform="translate(308.047792 304.387145) scale(0.15 -0.15)">
     <use xlink:href="#DejaVuSans-2e"/>
    </g>
   </g>
   <g id="text_112">
    <!-- . -->
    <g style="fill: #ee9b00" transform="translate(310.366753 304.387145) scale(0.15 -0.15)">
     <use xlink:href="#DejaVuSans-2e"/>
    </g>
   </g>
   <g id="text_113">
    <!-- . -->
    <g style="fill: #ee9b00" transform="translate(312.685714 304.387145) scale(0.15 -0.15)">
     <use xlink:href="#DejaVuSans-2e"/>
    </g>
   </g>
   <g id="text_114">
    <!-- . -->
    <g style="fill: #ee9b00" transform="translate(315.004675 304.387145) scale(0.15 -0.15)">
     <use xlink:href="#DejaVuSans-2e"/>
    </g>
   </g>
   <g id="text_115">
    <!-- . -->
    <g style="fill: #ee9b00" transform="translate(317.323636 304.387145) scale(0.15 -0.15)">
     <use xlink:href="#DejaVuSans-2e"/>
    </g>
   </g>
   <g id="text_116">
    <!-- . -->
    <g style="fill: #ee9b00" transform="translate(319.642597 304.387145) scale(0.15 -0.15)">
     <use xlink:href="#DejaVuSans-2e"/>
    </g>
   </g>
   <g id="text_117">
    <!-- . -->
    <g style="fill: #ee9b00" transform="translate(321.961558 304.387145) scale(0.15 -0.15)">
     <use xlink:href="#DejaVuSans-2e"/>
    </g>
   </g>
   <g id="text_118">
    <!-- . -->
    <g style="fill: #ee9b00" transform="translate(324.280519 304.387145) scale(0.15 -0.15)">
     <use xlink:href="#DejaVuSans-2e"/>
    </g>
   </g>
   <g id="text_119">
    <!-- . -->
    <g style="fill: #ee9b00" transform="translate(326.599481 304.387145) scale(0.15 -0.15)">
     <use xlink:href="#DejaVuSans-2e"/>
    </g>
   </g>
   <g id="text_120">
    <!-- . -->
    <g style="fill: #ee9b00" transform="translate(328.918442 304.387145) scale(0.15 -0.15)">
     <use xlink:href="#DejaVuSans-2e"/>
    </g>
   </g>
   <g id="text_121">
    <!-- . -->
    <g style="fill: #ee9b00" transform="translate(331.237403 304.387145) scale(0.15 -0.15)">
     <use xlink:href="#DejaVuSans-2e"/>
    </g>
   </g>
   <g id="text_122">
    <!-- . -->
    <g style="fill: #ee9b00" transform="translate(333.556364 304.387145) scale(0.15 -0.15)">
     <use xlink:href="#DejaVuSans-2e"/>
    </g>
   </g>
   <g id="text_123">
    <!-- . -->
    <g style="fill: #ee9b00" transform="translate(335.875325 304.387145) scale(0.15 -0.15)">
     <use xlink:href="#DejaVuSans-2e"/>
    </g>
   </g>
   <g id="text_124">
    <!-- . -->
    <g style="fill: #ee9b00" transform="translate(338.194286 304.387145) scale(0.15 -0.15)">
     <use xlink:href="#DejaVuSans-2e"/>
    </g>
   </g>
   <g id="text_125">
    <!-- . -->
    <g style="fill: #ee9b00" transform="translate(340.513247 304.387145) scale(0.15 -0.15)">
     <use xlink:href="#DejaVuSans-2e"/>
    </g>
   </g>
   <g id="text_126">
    <!-- . -->
    <g style="fill: #ee9b00" transform="translate(342.832208 304.387145) scale(0.15 -0.15)">
     <use xlink:href="#DejaVuSans-2e"/>
    </g>
   </g>
   <g id="text_127">
    <!-- . -->
    <g style="fill: #ee9b00" transform="translate(345.151169 304.387145) scale(0.15 -0.15)">
     <use xlink:href="#DejaVuSans-2e"/>
    </g>
   </g>
   <g id="text_128">
    <!-- . -->
    <g style="fill: #ee9b00" transform="translate(347.47013 304.387145) scale(0.15 -0.15)">
     <use xlink:href="#DejaVuSans-2e"/>
    </g>
   </g>
   <g id="text_129">
    <!-- . -->
    <g style="fill: #ee9b00" transform="translate(349.789091 304.387145) scale(0.15 -0.15)">
     <use xlink:href="#DejaVuSans-2e"/>
    </g>
   </g>
   <g id="text_130">
    <!-- . -->
    <g style="fill: #ee9b00" transform="translate(352.108052 304.387145) scale(0.15 -0.15)">
     <use xlink:href="#DejaVuSans-2e"/>
    </g>
   </g>
   <g id="text_131">
    <!-- . -->
    <g style="fill: #ee9b00" transform="translate(354.427013 304.387145) scale(0.15 -0.15)">
     <use xlink:href="#DejaVuSans-2e"/>
    </g>
   </g>
   <g id="text_132">
    <!-- . -->
    <g style="fill: #ee9b00" transform="translate(356.745974 304.387145) scale(0.15 -0.15)">
     <use xlink:href="#DejaVuSans-2e"/>
    </g>
   </g>
   <g id="text_133">
    <!-- . -->
    <g style="fill: #ee9b00" transform="translate(359.064935 304.387145) scale(0.15 -0.15)">
     <use xlink:href="#DejaVuSans-2e"/>
    </g>
   </g>
   <g id="text_134">
    <!-- . -->
    <g style="fill: #ee9b00" transform="translate(361.383896 304.387145) scale(0.15 -0.15)">
     <use xlink:href="#DejaVuSans-2e"/>
    </g>
   </g>
   <g id="text_135">
    <!-- . -->
    <g style="fill: #ee9b00" transform="translate(363.702857 304.387145) scale(0.15 -0.15)">
     <use xlink:href="#DejaVuSans-2e"/>
    </g>
   </g>
   <g id="text_136">
    <!-- . -->
    <g style="fill: #ee9b00" transform="translate(366.021818 304.387145) scale(0.15 -0.15)">
     <use xlink:href="#DejaVuSans-2e"/>
    </g>
   </g>
   <g id="text_137">
    <!-- . -->
    <g style="fill: #ee9b00" transform="translate(368.340779 304.387145) scale(0.15 -0.15)">
     <use xlink:href="#DejaVuSans-2e"/>
    </g>
   </g>
   <g id="text_138">
    <!-- . -->
    <g style="fill: #ee9b00" transform="translate(370.65974 304.387145) scale(0.15 -0.15)">
     <use xlink:href="#DejaVuSans-2e"/>
    </g>
   </g>
   <g id="text_139">
    <!-- . -->
    <g style="fill: #ee9b00" transform="translate(372.978701 304.387145) scale(0.15 -0.15)">
     <use xlink:href="#DejaVuSans-2e"/>
    </g>
   </g>
   <g id="text_140">
    <!-- . -->
    <g style="fill: #ee9b00" transform="translate(375.297662 304.387145) scale(0.15 -0.15)">
     <use xlink:href="#DejaVuSans-2e"/>
    </g>
   </g>
   <g id="text_141">
    <!-- . -->
    <g style="fill: #ee9b00" transform="translate(377.616623 304.387145) scale(0.15 -0.15)">
     <use xlink:href="#DejaVuSans-2e"/>
    </g>
   </g>
   <g id="text_142">
    <!-- . -->
    <g style="fill: #ee9b00" transform="translate(379.935584 304.387145) scale(0.15 -0.15)">
     <use xlink:href="#DejaVuSans-2e"/>
    </g>
   </g>
   <g id="text_143">
    <!-- . -->
    <g style="fill: #ee9b00" transform="translate(382.254545 304.387145) scale(0.15 -0.15)">
     <use xlink:href="#DejaVuSans-2e"/>
    </g>
   </g>
   <g id="text_144">
    <!-- . -->
    <g style="fill: #ee9b00" transform="translate(384.573506 304.387145) scale(0.15 -0.15)">
     <use xlink:href="#DejaVuSans-2e"/>
    </g>
   </g>
   <g id="text_145">
    <!-- . -->
    <g style="fill: #ee9b00" transform="translate(386.892468 304.387145) scale(0.15 -0.15)">
     <use xlink:href="#DejaVuSans-2e"/>
    </g>
   </g>
   <g id="text_146">
    <!-- . -->
    <g style="fill: #ee9b00" transform="translate(389.211429 304.387145) scale(0.15 -0.15)">
     <use xlink:href="#DejaVuSans-2e"/>
    </g>
   </g>
   <g id="text_147">
    <!-- . -->
    <g style="fill: #ee9b00" transform="translate(391.53039 304.387145) scale(0.15 -0.15)">
     <use xlink:href="#DejaVuSans-2e"/>
    </g>
   </g>
   <g id="text_148">
    <!-- . -->
    <g style="fill: #ee9b00" transform="translate(393.849351 304.387145) scale(0.15 -0.15)">
     <use xlink:href="#DejaVuSans-2e"/>
    </g>
   </g>
   <g id="text_149">
    <!-- . -->
    <g style="fill: #ee9b00" transform="translate(396.168312 304.387145) scale(0.15 -0.15)">
     <use xlink:href="#DejaVuSans-2e"/>
    </g>
   </g>
   <g id="text_150">
    <!-- . -->
    <g style="fill: #ee9b00" transform="translate(398.487273 304.387145) scale(0.15 -0.15)">
     <use xlink:href="#DejaVuSans-2e"/>
    </g>
   </g>
   <g id="text_151">
    <!-- * -->
    <g transform="translate(151.996364 50.601618) scale(0.12 -0.12)">
     <defs>
      <path id="DejaVuSans-2a" d="M 3009 3897 
L 1888 3291 
L 3009 2681 
L 2828 2375 
L 1778 3009 
L 1778 1831 
L 1422 1831 
L 1422 3009 
L 372 2375 
L 191 2681 
L 1313 3291 
L 191 3897 
L 372 4206 
L 1422 3572 
L 1422 4750 
L 1778 4750 
L 1778 3572 
L 2828 4206 
L 3009 3897 
z
" transform="scale(0.015625)"/>
     </defs>
     <use xlink:href="#DejaVuSans-2a"/>
    </g>
   </g>
   <g id="legend_1">
    <g id="patch_5">
     <path d="M 215.259062 78.82825 
L 407.72 78.82825 
Q 409.72 78.82825 409.72 76.82825 
L 409.72 48.472 
Q 409.72 46.472 407.72 46.472 
L 215.259062 46.472 
Q 213.259062 46.472 213.259062 48.472 
L 213.259062 76.82825 
Q 213.259062 78.82825 215.259062 78.82825 
z
" style="fill: #ffffff; opacity: 0.8; stroke: #cccccc; stroke-linejoin: miter"/>
    </g>
    <g id="line2d_25">
     <path d="M 217.259062 54.570437 
L 227.259062 54.570437 
L 237.259062 54.570437 
" style="fill: none; stroke: #ff2c55; stroke-linecap: square"/>
    </g>
    <g id="text_152">
     <!-- Affordance (partialed out GIST) -->
     <g transform="translate(245.259062 58.070437) scale(0.1 -0.1)">
      <defs>
       <path id="DejaVuSans-41" d="M 2188 4044 
L 1331 1722 
L 3047 1722 
L 2188 4044 
z
M 1831 4666 
L 2547 4666 
L 4325 0 
L 3669 0 
L 3244 1197 
L 1141 1197 
L 716 0 
L 50 0 
L 1831 4666 
z
" transform="scale(0.015625)"/>
       <path id="DejaVuSans-66" d="M 2375 4863 
L 2375 4384 
L 1825 4384 
Q 1516 4384 1395 4259 
Q 1275 4134 1275 3809 
L 1275 3500 
L 2222 3500 
L 2222 3053 
L 1275 3053 
L 1275 0 
L 697 0 
L 697 3053 
L 147 3053 
L 147 3500 
L 697 3500 
L 697 3744 
Q 697 4328 969 4595 
Q 1241 4863 1831 4863 
L 2375 4863 
z
" transform="scale(0.015625)"/>
       <path id="DejaVuSans-64" d="M 2906 2969 
L 2906 4863 
L 3481 4863 
L 3481 0 
L 2906 0 
L 2906 525 
Q 2725 213 2448 61 
Q 2172 -91 1784 -91 
Q 1150 -91 751 415 
Q 353 922 353 1747 
Q 353 2572 751 3078 
Q 1150 3584 1784 3584 
Q 2172 3584 2448 3432 
Q 2725 3281 2906 2969 
z
M 947 1747 
Q 947 1113 1208 752 
Q 1469 391 1925 391 
Q 2381 391 2643 752 
Q 2906 1113 2906 1747 
Q 2906 2381 2643 2742 
Q 2381 3103 1925 3103 
Q 1469 3103 1208 2742 
Q 947 2381 947 1747 
z
" transform="scale(0.015625)"/>
       <path id="DejaVuSans-63" d="M 3122 3366 
L 3122 2828 
Q 2878 2963 2633 3030 
Q 2388 3097 2138 3097 
Q 1578 3097 1268 2742 
Q 959 2388 959 1747 
Q 959 1106 1268 751 
Q 1578 397 2138 397 
Q 2388 397 2633 464 
Q 2878 531 3122 666 
L 3122 134 
Q 2881 22 2623 -34 
Q 2366 -91 2075 -91 
Q 1284 -91 818 406 
Q 353 903 353 1747 
Q 353 2603 823 3093 
Q 1294 3584 2113 3584 
Q 2378 3584 2631 3529 
Q 2884 3475 3122 3366 
z
" transform="scale(0.015625)"/>
       <path id="DejaVuSans-75" d="M 544 1381 
L 544 3500 
L 1119 3500 
L 1119 1403 
Q 1119 906 1312 657 
Q 1506 409 1894 409 
Q 2359 409 2629 706 
Q 2900 1003 2900 1516 
L 2900 3500 
L 3475 3500 
L 3475 0 
L 2900 0 
L 2900 538 
Q 2691 219 2414 64 
Q 2138 -91 1772 -91 
Q 1169 -91 856 284 
Q 544 659 544 1381 
z
M 1991 3584 
L 1991 3584 
z
" transform="scale(0.015625)"/>
       <path id="DejaVuSans-47" d="M 3809 666 
L 3809 1919 
L 2778 1919 
L 2778 2438 
L 4434 2438 
L 4434 434 
Q 4069 175 3628 42 
Q 3188 -91 2688 -91 
Q 1594 -91 976 548 
Q 359 1188 359 2328 
Q 359 3472 976 4111 
Q 1594 4750 2688 4750 
Q 3144 4750 3555 4637 
Q 3966 4525 4313 4306 
L 4313 3634 
Q 3963 3931 3569 4081 
Q 3175 4231 2741 4231 
Q 1884 4231 1454 3753 
Q 1025 3275 1025 2328 
Q 1025 1384 1454 906 
Q 1884 428 2741 428 
Q 3075 428 3337 486 
Q 3600 544 3809 666 
z
" transform="scale(0.015625)"/>
       <path id="DejaVuSans-49" d="M 628 4666 
L 1259 4666 
L 1259 0 
L 628 0 
L 628 4666 
z
" transform="scale(0.015625)"/>
      </defs>
      <use xlink:href="#DejaVuSans-41"/>
      <use xlink:href="#DejaVuSans-66" x="64.783203"/>
      <use xlink:href="#DejaVuSans-66" x="99.988281"/>
      <use xlink:href="#DejaVuSans-6f" x="135.193359"/>
      <use xlink:href="#DejaVuSans-72" x="196.375"/>
      <use xlink:href="#DejaVuSans-64" x="235.738281"/>
      <use xlink:href="#DejaVuSans-61" x="299.214844"/>
      <use xlink:href="#DejaVuSans-6e" x="360.494141"/>
      <use xlink:href="#DejaVuSans-63" x="423.873047"/>
      <use xlink:href="#DejaVuSans-65" x="478.853516"/>
      <use xlink:href="#DejaVuSans-20" x="540.376953"/>
      <use xlink:href="#DejaVuSans-28" x="572.164062"/>
      <use xlink:href="#DejaVuSans-70" x="611.177734"/>
      <use xlink:href="#DejaVuSans-61" x="674.654297"/>
      <use xlink:href="#DejaVuSans-72" x="735.933594"/>
      <use xlink:href="#DejaVuSans-74" x="777.046875"/>
      <use xlink:href="#DejaVuSans-69" x="816.255859"/>
      <use xlink:href="#DejaVuSans-61" x="844.039062"/>
      <use xlink:href="#DejaVuSans-6c" x="905.318359"/>
      <use xlink:href="#DejaVuSans-65" x="933.101562"/>
      <use xlink:href="#DejaVuSans-64" x="994.625"/>
      <use xlink:href="#DejaVuSans-20" x="1058.101562"/>
      <use xlink:href="#DejaVuSans-6f" x="1089.888672"/>
      <use xlink:href="#DejaVuSans-75" x="1151.070312"/>
      <use xlink:href="#DejaVuSans-74" x="1214.449219"/>
      <use xlink:href="#DejaVuSans-20" x="1253.658203"/>
      <use xlink:href="#DejaVuSans-47" x="1285.445312"/>
      <use xlink:href="#DejaVuSans-49" x="1362.935547"/>
      <use xlink:href="#DejaVuSans-53" x="1392.427734"/>
      <use xlink:href="#DejaVuSans-54" x="1455.904297"/>
      <use xlink:href="#DejaVuSans-29" x="1516.988281"/>
     </g>
    </g>
    <g id="line2d_26">
     <path d="M 217.259062 69.248562 
L 227.259062 69.248562 
L 237.259062 69.248562 
" style="fill: none; stroke: #ee9b00; stroke-linecap: square"/>
    </g>
    <g id="text_153">
     <!-- GIST (partialed out affordances) -->
     <g transform="translate(245.259062 72.748562) scale(0.1 -0.1)">
      <use xlink:href="#DejaVuSans-47"/>
      <use xlink:href="#DejaVuSans-49" x="77.490234"/>
      <use xlink:href="#DejaVuSans-53" x="106.982422"/>
      <use xlink:href="#DejaVuSans-54" x="170.458984"/>
      <use xlink:href="#DejaVuSans-20" x="231.542969"/>
      <use xlink:href="#DejaVuSans-28" x="263.330078"/>
      <use xlink:href="#DejaVuSans-70" x="302.34375"/>
      <use xlink:href="#DejaVuSans-61" x="365.820312"/>
      <use xlink:href="#DejaVuSans-72" x="427.099609"/>
      <use xlink:href="#DejaVuSans-74" x="468.212891"/>
      <use xlink:href="#DejaVuSans-69" x="507.421875"/>
      <use xlink:href="#DejaVuSans-61" x="535.205078"/>
      <use xlink:href="#DejaVuSans-6c" x="596.484375"/>
      <use xlink:href="#DejaVuSans-65" x="624.267578"/>
      <use xlink:href="#DejaVuSans-64" x="685.791016"/>
      <use xlink:href="#DejaVuSans-20" x="749.267578"/>
      <use xlink:href="#DejaVuSans-6f" x="781.054688"/>
      <use xlink:href="#DejaVuSans-75" x="842.236328"/>
      <use xlink:href="#DejaVuSans-74" x="905.615234"/>
      <use xlink:href="#DejaVuSans-20" x="944.824219"/>
      <use xlink:href="#DejaVuSans-61" x="976.611328"/>
      <use xlink:href="#DejaVuSans-66" x="1037.890625"/>
      <use xlink:href="#DejaVuSans-66" x="1073.095703"/>
      <use xlink:href="#DejaVuSans-6f" x="1108.300781"/>
      <use xlink:href="#DejaVuSans-72" x="1169.482422"/>
      <use xlink:href="#DejaVuSans-64" x="1208.845703"/>
      <use xlink:href="#DejaVuSans-61" x="1272.322266"/>
      <use xlink:href="#DejaVuSans-6e" x="1333.601562"/>
      <use xlink:href="#DejaVuSans-63" x="1396.980469"/>
      <use xlink:href="#DejaVuSans-65" x="1451.960938"/>
      <use xlink:href="#DejaVuSans-73" x="1513.484375"/>
      <use xlink:href="#DejaVuSans-29" x="1565.583984"/>
     </g>
    </g>
   </g>
  </g>
 </g>
 <defs>
  <clipPath id="p1351981b2c">
   <rect x="57.6" y="41.472" width="357.12" height="266.112"/>
  </clipPath>
 </defs>
</svg>
