<?xml version="1.0" encoding="utf-8" standalone="no"?>
<!DOCTYPE svg PUBLIC "-//W3C//DTD SVG 1.1//EN"
  "http://www.w3.org/Graphics/SVG/1.1/DTD/svg11.dtd">
<svg xmlns:xlink="http://www.w3.org/1999/xlink" width="460.8pt" height="345.6pt" viewBox="0 0 460.8 345.6" xmlns="http://www.w3.org/2000/svg" version="1.1">
 <metadata>
  <rdf:RDF xmlns:dc="http://purl.org/dc/elements/1.1/" xmlns:cc="http://creativecommons.org/ns#" xmlns:rdf="http://www.w3.org/1999/02/22-rdf-syntax-ns#">
   <cc:Work>
    <dc:type rdf:resource="http://purl.org/dc/dcmitype/StillImage"/>
    <dc:date>2025-12-03T13:37:44.095930</dc:date>
    <dc:format>image/svg+xml</dc:format>
    <dc:creator>
     <cc:Agent>
      <dc:title>Matplotlib v3.6.2, https://matplotlib.org/</dc:title>
     </cc:Agent>
    </dc:creator>
   </cc:Work>
  </rdf:RDF>
 </metadata>
 <defs>
  <style type="text/css">*{stroke-linejoin: round; stroke-linecap: butt}</style>
 </defs>
 <g id="figure_1">
  <g id="patch_1">
   <path d="M 0 345.6 
L 460.8 345.6 
L 460.8 0 
L 0 0 
L 0 345.6 
z
" style="fill: none"/>
  </g>
  <g id="axes_1">
   <g id="patch_2">
    <path d="M 57.6 307.584 
L 414.72 307.584 
L 414.72 41.472 
L 57.6 41.472 
L 57.6 307.584 
z
" style="fill: none"/>
   </g>
   <g id="PolyCollection_1">
    <defs>
     <path id="mcc73a9926c" d="M 73.832727 -54.001139 
L 73.832727 -50.112 
L 76.151688 -51.586746 
L 78.470649 -53.122971 
L 80.78961 -58.260727 
L 83.108571 -54.527363 
L 85.427532 -50.360278 
L 87.746494 -51.007723 
L 90.065455 -56.053433 
L 92.384416 -54.791166 
L 94.703377 -55.735688 
L 97.022338 -55.421819 
L 99.341299 -52.410927 
L 101.66026 -52.770486 
L 103.979221 -50.543109 
L 106.298182 -51.268046 
L 108.617143 -50.856886 
L 110.936104 -50.372865 
L 113.255065 -50.830867 
L 115.574026 -52.826849 
L 117.892987 -55.692781 
L 120.211948 -61.800091 
L 122.530909 -71.067629 
L 124.84987 -86.12184 
L 127.168831 -110.602449 
L 129.487792 -107.249659 
L 131.806753 -94.833382 
L 134.125714 -96.698438 
L 136.444675 -104.576914 
L 138.763636 -114.522575 
L 141.082597 -130.483856 
L 143.401558 -140.462008 
L 145.720519 -136.856033 
L 148.039481 -142.175599 
L 150.358442 -148.360315 
L 152.677403 -146.924881 
L 154.996364 -141.920429 
L 157.315325 -134.892263 
L 159.634286 -135.799149 
L 161.953247 -143.514912 
L 164.272208 -150.829651 
L 166.591169 -157.227782 
L 168.91013 -169.822471 
L 171.229091 -178.480995 
L 173.548052 -174.956764 
L 175.867013 -163.000488 
L 178.185974 -147.427475 
L 180.504935 -137.786145 
L 182.823896 -135.007049 
L 185.142857 -136.051776 
L 187.461818 -135.412201 
L 189.780779 -131.508807 
L 192.09974 -127.909346 
L 194.418701 -125.35727 
L 196.737662 -124.704927 
L 199.056623 -124.933341 
L 201.375584 -127.358797 
L 203.694545 -130.893603 
L 206.013506 -132.250418 
L 208.332468 -132.682781 
L 210.651429 -134.702486 
L 212.97039 -136.965298 
L 215.289351 -137.419736 
L 217.608312 -137.798658 
L 219.927273 -136.276501 
L 222.246234 -133.863541 
L 224.565195 -135.850009 
L 226.884156 -142.057918 
L 229.203117 -152.330643 
L 231.522078 -162.762415 
L 233.841039 -167.503017 
L 236.16 -170.186315 
L 238.478961 -170.559227 
L 240.797922 -166.362968 
L 243.116883 -158.788681 
L 245.435844 -153.134409 
L 247.754805 -149.269027 
L 250.073766 -145.550891 
L 252.392727 -141.273443 
L 254.711688 -136.352773 
L 257.030649 -132.000058 
L 259.34961 -131.316285 
L 261.668571 -134.081992 
L 263.987532 -137.665781 
L 266.306494 -140.868611 
L 268.625455 -146.04844 
L 270.944416 -150.251601 
L 273.263377 -151.975188 
L 275.582338 -149.423075 
L 277.901299 -145.529797 
L 280.22026 -144.49126 
L 282.539221 -144.185754 
L 284.858182 -140.560107 
L 287.177143 -134.583115 
L 289.496104 -130.775002 
L 291.815065 -131.785876 
L 294.134026 -135.73998 
L 296.452987 -139.542979 
L 298.771948 -141.789082 
L 301.090909 -143.066025 
L 303.40987 -143.1544 
L 305.728831 -141.743672 
L 308.047792 -141.087504 
L 310.366753 -143.516344 
L 312.685714 -146.163713 
L 315.004675 -145.264678 
L 317.323636 -139.527072 
L 319.642597 -134.169379 
L 321.961558 -129.600971 
L 324.280519 -123.877596 
L 326.599481 -120.810648 
L 328.918442 -122.221919 
L 331.237403 -123.30611 
L 333.556364 -122.313877 
L 335.875325 -121.82273 
L 338.194286 -121.140436 
L 340.513247 -120.295027 
L 342.832208 -119.151772 
L 345.151169 -118.86699 
L 347.47013 -119.484678 
L 349.789091 -118.859764 
L 352.108052 -115.725957 
L 354.427013 -111.431077 
L 356.745974 -106.742633 
L 359.064935 -101.897862 
L 361.383896 -97.722012 
L 363.702857 -94.495516 
L 366.021818 -91.798823 
L 368.340779 -90.140164 
L 370.65974 -90.278687 
L 372.978701 -92.082317 
L 375.297662 -93.278322 
L 377.616623 -92.221969 
L 379.935584 -91.071546 
L 382.254545 -91.117993 
L 384.573506 -91.207674 
L 386.892468 -90.36215 
L 389.211429 -88.700515 
L 391.53039 -85.201254 
L 393.849351 -81.408967 
L 396.168312 -78.590992 
L 398.487273 -78.394585 
L 398.487273 -102.735298 
L 398.487273 -102.735298 
L 396.168312 -105.341917 
L 393.849351 -110.99675 
L 391.53039 -117.784848 
L 389.211429 -125.742837 
L 386.892468 -129.94528 
L 384.573506 -131.189346 
L 382.254545 -130.594634 
L 379.935584 -129.762938 
L 377.616623 -130.663659 
L 375.297662 -131.587469 
L 372.978701 -129.142755 
L 370.65974 -126.734067 
L 368.340779 -126.785587 
L 366.021818 -129.252822 
L 363.702857 -131.797986 
L 361.383896 -134.224549 
L 359.064935 -138.149297 
L 356.745974 -143.256824 
L 354.427013 -148.63361 
L 352.108052 -154.539272 
L 349.789091 -160.382596 
L 347.47013 -164.891125 
L 345.151169 -167.400559 
L 342.832208 -169.973359 
L 340.513247 -172.260372 
L 338.194286 -173.956449 
L 335.875325 -175.86305 
L 333.556364 -176.84123 
L 331.237403 -177.856917 
L 328.918442 -177.510519 
L 326.599481 -177.595016 
L 324.280519 -181.859421 
L 321.961558 -188.639632 
L 319.642597 -192.102404 
L 317.323636 -198.1511 
L 315.004675 -209.246066 
L 312.685714 -217.099493 
L 310.366753 -221.229213 
L 308.047792 -223.593937 
L 305.728831 -227.586655 
L 303.40987 -231.035444 
L 301.090909 -229.615616 
L 298.771948 -222.403525 
L 296.452987 -213.418869 
L 294.134026 -207.056031 
L 291.815065 -205.82064 
L 289.496104 -211.764061 
L 287.177143 -223.218543 
L 284.858182 -234.893786 
L 282.539221 -242.370785 
L 280.22026 -246.254552 
L 277.901299 -255.642869 
L 275.582338 -273.956412 
L 273.263377 -290.149548 
L 270.944416 -292.032 
L 268.625455 -281.288661 
L 266.306494 -264.552628 
L 263.987532 -250.174214 
L 261.668571 -241.651576 
L 259.34961 -238.629297 
L 257.030649 -240.823567 
L 254.711688 -250.009673 
L 252.392727 -262.647626 
L 250.073766 -272.478031 
L 247.754805 -274.486008 
L 245.435844 -269.357518 
L 243.116883 -266.96955 
L 240.797922 -271.928672 
L 238.478961 -278.743621 
L 236.16 -282.064232 
L 233.841039 -280.798207 
L 231.522078 -272.441782 
L 229.203117 -250.673251 
L 226.884156 -226.01143 
L 224.565195 -209.126576 
L 222.246234 -200.495449 
L 219.927273 -200.563812 
L 217.608312 -203.510287 
L 215.289351 -208.861704 
L 212.97039 -218.395586 
L 210.651429 -225.165176 
L 208.332468 -225.679244 
L 206.013506 -220.32036 
L 203.694545 -212.051069 
L 201.375584 -203.428603 
L 199.056623 -194.416818 
L 196.737662 -186.035721 
L 194.418701 -180.013869 
L 192.09974 -184.435553 
L 189.780779 -196.692534 
L 187.461818 -206.798041 
L 185.142857 -215.412175 
L 182.823896 -216.345412 
L 180.504935 -213.039109 
L 178.185974 -212.824932 
L 175.867013 -225.337751 
L 173.548052 -236.284887 
L 171.229091 -238.030025 
L 168.91013 -228.573781 
L 166.591169 -217.385787 
L 164.272208 -216.036403 
L 161.953247 -219.353768 
L 159.634286 -224.832583 
L 157.315325 -227.522952 
L 154.996364 -222.352852 
L 152.677403 -206.306194 
L 150.358442 -212.847072 
L 148.039481 -223.760201 
L 145.720519 -245.975745 
L 143.401558 -285.325305 
L 141.082597 -259.946406 
L 138.763636 -180.27595 
L 136.444675 -151.95023 
L 134.125714 -143.564046 
L 131.806753 -139.870135 
L 129.487792 -156.643987 
L 127.168831 -155.139465 
L 124.84987 -138.413936 
L 122.530909 -89.630083 
L 120.211948 -70.957246 
L 117.892987 -63.95226 
L 115.574026 -59.750389 
L 113.255065 -59.011996 
L 110.936104 -57.775261 
L 108.617143 -56.592345 
L 106.298182 -57.29573 
L 103.979221 -67.350367 
L 101.66026 -67.711236 
L 99.341299 -56.694229 
L 97.022338 -61.706578 
L 94.703377 -61.909461 
L 92.384416 -60.889915 
L 90.065455 -62.663348 
L 87.746494 -56.149262 
L 85.427532 -55.699327 
L 83.108571 -59.491775 
L 80.78961 -63.890861 
L 78.470649 -59.284298 
L 76.151688 -56.723068 
L 73.832727 -54.001139 
z
" style="stroke: #ff2c55; stroke-opacity: 0.1"/>
    </defs>
    <g clip-path="url(#p45da1c2b90)">
     <use xlink:href="#mcc73a9926c" x="0" y="345.6" style="fill: #ff2c55; fill-opacity: 0.1; stroke: #ff2c55; stroke-opacity: 0.1"/>
    </g>
   </g>
   <g id="PolyCollection_2">
    <defs>
     <path id="m4372b269f3" d="M 73.832727 -56.507262 
L 73.832727 -52.078222 
L 76.151688 -53.275733 
L 78.470649 -55.76951 
L 80.78961 -57.398128 
L 83.108571 -56.809427 
L 85.427532 -54.259117 
L 87.746494 -51.94628 
L 90.065455 -55.626685 
L 92.384416 -55.626462 
L 94.703377 -56.937812 
L 97.022338 -56.552298 
L 99.341299 -53.471894 
L 101.66026 -52.208918 
L 103.979221 -50.513571 
L 106.298182 -50.241084 
L 108.617143 -51.853771 
L 110.936104 -55.291528 
L 113.255065 -59.739231 
L 115.574026 -59.824454 
L 117.892987 -59.177422 
L 120.211948 -57.508678 
L 122.530909 -62.52708 
L 124.84987 -72.400191 
L 127.168831 -74.148143 
L 129.487792 -78.859531 
L 131.806753 -77.321536 
L 134.125714 -68.747888 
L 136.444675 -61.950372 
L 138.763636 -65.175854 
L 141.082597 -77.531608 
L 143.401558 -87.647666 
L 145.720519 -91.314055 
L 148.039481 -93.418404 
L 150.358442 -92.743843 
L 152.677403 -96.417457 
L 154.996364 -104.338169 
L 157.315325 -106.497776 
L 159.634286 -103.718637 
L 161.953247 -94.833801 
L 164.272208 -86.201994 
L 166.591169 -80.818052 
L 168.91013 -77.668229 
L 171.229091 -75.567894 
L 173.548052 -72.909578 
L 175.867013 -69.102916 
L 178.185974 -64.338542 
L 180.504935 -61.820269 
L 182.823896 -62.087697 
L 185.142857 -63.570889 
L 187.461818 -65.45874 
L 189.780779 -66.822864 
L 192.09974 -66.47792 
L 194.418701 -65.013663 
L 196.737662 -63.349596 
L 199.056623 -62.032327 
L 201.375584 -62.205761 
L 203.694545 -62.647129 
L 206.013506 -63.531077 
L 208.332468 -66.650003 
L 210.651429 -70.944877 
L 212.97039 -73.76921 
L 215.289351 -73.958819 
L 217.608312 -72.34522 
L 219.927273 -71.490684 
L 222.246234 -71.652487 
L 224.565195 -71.959566 
L 226.884156 -72.914495 
L 229.203117 -74.999523 
L 231.522078 -78.270631 
L 233.841039 -81.71238 
L 236.16 -85.943425 
L 238.478961 -89.673153 
L 240.797922 -90.868664 
L 243.116883 -89.710408 
L 245.435844 -88.053182 
L 247.754805 -85.850988 
L 250.073766 -83.595649 
L 252.392727 -81.872493 
L 254.711688 -80.577993 
L 257.030649 -80.270836 
L 259.34961 -81.539236 
L 261.668571 -84.259258 
L 263.987532 -86.948764 
L 266.306494 -88.071588 
L 268.625455 -88.41351 
L 270.944416 -87.243808 
L 273.263377 -83.690159 
L 275.582338 -79.052977 
L 277.901299 -75.697474 
L 280.22026 -75.017757 
L 282.539221 -76.475438 
L 284.858182 -78.43727 
L 287.177143 -79.167758 
L 289.496104 -77.776558 
L 291.815065 -75.693958 
L 294.134026 -73.98391 
L 296.452987 -72.794601 
L 298.771948 -71.228878 
L 301.090909 -69.535596 
L 303.40987 -68.258828 
L 305.728831 -68.03911 
L 308.047792 -69.258539 
L 310.366753 -71.443513 
L 312.685714 -72.199494 
L 315.004675 -71.402669 
L 317.323636 -69.776116 
L 319.642597 -68.372337 
L 321.961558 -66.335981 
L 324.280519 -63.45712 
L 326.599481 -62.214483 
L 328.918442 -62.900124 
L 331.237403 -63.737166 
L 333.556364 -64.092389 
L 335.875325 -64.379903 
L 338.194286 -64.857879 
L 340.513247 -65.629189 
L 342.832208 -65.918662 
L 345.151169 -66.308528 
L 347.47013 -67.137678 
L 349.789091 -67.483574 
L 352.108052 -66.479975 
L 354.427013 -64.592946 
L 356.745974 -62.193885 
L 359.064935 -60.206428 
L 361.383896 -59.775494 
L 363.702857 -61.371773 
L 366.021818 -64.020671 
L 368.340779 -66.469263 
L 370.65974 -68.50286 
L 372.978701 -70.341986 
L 375.297662 -71.311534 
L 377.616623 -70.831851 
L 379.935584 -69.558663 
L 382.254545 -68.230384 
L 384.573506 -67.084409 
L 386.892468 -66.144995 
L 389.211429 -65.387033 
L 391.53039 -64.324685 
L 393.849351 -63.022849 
L 396.168312 -61.877785 
L 398.487273 -61.660959 
L 398.487273 -79.244457 
L 398.487273 -79.244457 
L 396.168312 -79.657019 
L 393.849351 -80.331045 
L 391.53039 -80.574104 
L 389.211429 -80.666332 
L 386.892468 -80.623658 
L 384.573506 -80.98706 
L 382.254545 -82.114734 
L 379.935584 -84.014605 
L 377.616623 -86.253476 
L 375.297662 -87.413422 
L 372.978701 -86.672792 
L 370.65974 -85.149588 
L 368.340779 -83.266499 
L 366.021818 -79.911133 
L 363.702857 -75.400886 
L 361.383896 -71.887952 
L 359.064935 -70.913796 
L 356.745974 -72.156143 
L 354.427013 -74.703892 
L 352.108052 -77.526694 
L 349.789091 -79.955639 
L 347.47013 -80.715335 
L 345.151169 -80.937536 
L 342.832208 -82.386203 
L 340.513247 -84.096818 
L 338.194286 -83.997952 
L 335.875325 -83.234678 
L 333.556364 -82.726344 
L 331.237403 -82.950682 
L 328.918442 -83.50539 
L 326.599481 -84.256486 
L 324.280519 -86.911244 
L 321.961558 -91.753449 
L 319.642597 -95.144662 
L 317.323636 -96.620584 
L 315.004675 -98.615198 
L 312.685714 -100.81518 
L 310.366753 -101.382978 
L 308.047792 -99.528544 
L 305.728831 -98.045974 
L 303.40987 -97.773166 
L 301.090909 -97.317664 
L 298.771948 -96.579166 
L 296.452987 -96.473444 
L 294.134026 -97.252543 
L 291.815065 -99.033185 
L 289.496104 -101.879933 
L 287.177143 -104.354033 
L 284.858182 -104.087881 
L 282.539221 -101.119636 
L 280.22026 -97.618115 
L 277.901299 -96.990164 
L 275.582338 -101.482519 
L 273.263377 -109.587718 
L 270.944416 -115.646228 
L 268.625455 -116.439222 
L 266.306494 -113.589547 
L 263.987532 -111.496266 
L 261.668571 -110.060875 
L 259.34961 -109.401067 
L 257.030649 -110.187061 
L 254.711688 -113.849857 
L 252.392727 -120.13863 
L 250.073766 -125.524981 
L 247.754805 -128.764639 
L 245.435844 -130.429299 
L 243.116883 -131.611611 
L 240.797922 -131.343212 
L 238.478961 -128.228641 
L 236.16 -122.259715 
L 233.841039 -115.57529 
L 231.522078 -108.74759 
L 229.203117 -101.083555 
L 226.884156 -96.02451 
L 224.565195 -93.973549 
L 222.246234 -93.087626 
L 219.927273 -92.261565 
L 217.608312 -92.434846 
L 215.289351 -95.004787 
L 212.97039 -98.654442 
L 210.651429 -100.801472 
L 208.332468 -99.965773 
L 206.013506 -96.368297 
L 203.694545 -91.963235 
L 201.375584 -87.553515 
L 199.056623 -84.687461 
L 196.737662 -84.27096 
L 194.418701 -84.287709 
L 192.09974 -84.058301 
L 189.780779 -83.077613 
L 187.461818 -80.463033 
L 185.142857 -77.740452 
L 182.823896 -76.246807 
L 180.504935 -75.998794 
L 178.185974 -77.813747 
L 175.867013 -83.263179 
L 173.548052 -89.783135 
L 171.229091 -93.559104 
L 168.91013 -95.400852 
L 166.591169 -101.638674 
L 164.272208 -112.8321 
L 161.953247 -126.473405 
L 159.634286 -143.786507 
L 157.315325 -154.256801 
L 154.996364 -148.766346 
L 152.677403 -130.178122 
L 150.358442 -127.064403 
L 148.039481 -127.713927 
L 145.720519 -120.891581 
L 143.401558 -112.825565 
L 141.082597 -96.024918 
L 138.763636 -78.523382 
L 136.444675 -73.121002 
L 134.125714 -82.999865 
L 131.806753 -95.409422 
L 129.487792 -99.18245 
L 127.168831 -90.205255 
L 124.84987 -81.700716 
L 122.530909 -67.557923 
L 120.211948 -62.873019 
L 117.892987 -70.506274 
L 115.574026 -74.312026 
L 113.255065 -69.452325 
L 110.936104 -61.214579 
L 108.617143 -55.60661 
L 106.298182 -53.786505 
L 103.979221 -53.701139 
L 101.66026 -55.233488 
L 99.341299 -57.166424 
L 97.022338 -59.51136 
L 94.703377 -60.617783 
L 92.384416 -59.436784 
L 90.065455 -60.005244 
L 87.746494 -54.159477 
L 85.427532 -59.009733 
L 83.108571 -61.211846 
L 80.78961 -60.541867 
L 78.470649 -60.163858 
L 76.151688 -57.450211 
L 73.832727 -56.507262 
z
" style="stroke: #0974f1; stroke-opacity: 0.1"/>
    </defs>
    <g clip-path="url(#p45da1c2b90)">
     <use xlink:href="#m4372b269f3" x="0" y="345.6" style="fill: #0974f1; fill-opacity: 0.1; stroke: #0974f1; stroke-opacity: 0.1"/>
    </g>
   </g>
   <g id="matplotlib.axis_1">
    <g id="xtick_1">
     <g id="line2d_1">
      <defs>
       <path id="mf0cfa7cca0" d="M 0 0 
L 0 3.5 
" style="stroke: #000000; stroke-width: 0.8"/>
      </defs>
      <g>
       <use xlink:href="#mf0cfa7cca0" x="103.346777" y="307.584" style="stroke: #000000; stroke-width: 0.8"/>
      </g>
     </g>
     <g id="text_1">
      <!-- 0.0 -->
      <g transform="translate(95.395214 322.182437) scale(0.1 -0.1)">
       <defs>
        <path id="DejaVuSans-30" d="M 2034 4250 
Q 1547 4250 1301 3770 
Q 1056 3291 1056 2328 
Q 1056 1369 1301 889 
Q 1547 409 2034 409 
Q 2525 409 2770 889 
Q 3016 1369 3016 2328 
Q 3016 3291 2770 3770 
Q 2525 4250 2034 4250 
z
M 2034 4750 
Q 2819 4750 3233 4129 
Q 3647 3509 3647 2328 
Q 3647 1150 3233 529 
Q 2819 -91 2034 -91 
Q 1250 -91 836 529 
Q 422 1150 422 2328 
Q 422 3509 836 4129 
Q 1250 4750 2034 4750 
z
" transform="scale(0.015625)"/>
        <path id="DejaVuSans-2e" d="M 684 794 
L 1344 794 
L 1344 0 
L 684 0 
L 684 794 
z
" transform="scale(0.015625)"/>
       </defs>
       <use xlink:href="#DejaVuSans-30"/>
       <use xlink:href="#DejaVuSans-2e" x="63.623047"/>
       <use xlink:href="#DejaVuSans-30" x="95.410156"/>
      </g>
     </g>
    </g>
    <g id="xtick_2">
     <g id="line2d_2">
      <g>
       <use xlink:href="#mf0cfa7cca0" x="162.374876" y="307.584" style="stroke: #000000; stroke-width: 0.8"/>
      </g>
     </g>
     <g id="text_2">
      <!-- 0.2 -->
      <g transform="translate(154.423314 322.182437) scale(0.1 -0.1)">
       <defs>
        <path id="DejaVuSans-32" d="M 1228 531 
L 3431 531 
L 3431 0 
L 469 0 
L 469 531 
Q 828 903 1448 1529 
Q 2069 2156 2228 2338 
Q 2531 2678 2651 2914 
Q 2772 3150 2772 3378 
Q 2772 3750 2511 3984 
Q 2250 4219 1831 4219 
Q 1534 4219 1204 4116 
Q 875 4013 500 3803 
L 500 4441 
Q 881 4594 1212 4672 
Q 1544 4750 1819 4750 
Q 2544 4750 2975 4387 
Q 3406 4025 3406 3419 
Q 3406 3131 3298 2873 
Q 3191 2616 2906 2266 
Q 2828 2175 2409 1742 
Q 1991 1309 1228 531 
z
" transform="scale(0.015625)"/>
       </defs>
       <use xlink:href="#DejaVuSans-30"/>
       <use xlink:href="#DejaVuSans-2e" x="63.623047"/>
       <use xlink:href="#DejaVuSans-32" x="95.410156"/>
      </g>
     </g>
    </g>
    <g id="xtick_3">
     <g id="line2d_3">
      <g>
       <use xlink:href="#mf0cfa7cca0" x="221.402975" y="307.584" style="stroke: #000000; stroke-width: 0.8"/>
      </g>
     </g>
     <g id="text_3">
      <!-- 0.4 -->
      <g transform="translate(213.451413 322.182437) scale(0.1 -0.1)">
       <defs>
        <path id="DejaVuSans-34" d="M 2419 4116 
L 825 1625 
L 2419 1625 
L 2419 4116 
z
M 2253 4666 
L 3047 4666 
L 3047 1625 
L 3713 1625 
L 3713 1100 
L 3047 1100 
L 3047 0 
L 2419 0 
L 2419 1100 
L 313 1100 
L 313 1709 
L 2253 4666 
z
" transform="scale(0.015625)"/>
       </defs>
       <use xlink:href="#DejaVuSans-30"/>
       <use xlink:href="#DejaVuSans-2e" x="63.623047"/>
       <use xlink:href="#DejaVuSans-34" x="95.410156"/>
      </g>
     </g>
    </g>
    <g id="xtick_4">
     <g id="line2d_4">
      <g>
       <use xlink:href="#mf0cfa7cca0" x="280.431074" y="307.584" style="stroke: #000000; stroke-width: 0.8"/>
      </g>
     </g>
     <g id="text_4">
      <!-- 0.6 -->
      <g transform="translate(272.479512 322.182437) scale(0.1 -0.1)">
       <defs>
        <path id="DejaVuSans-36" d="M 2113 2584 
Q 1688 2584 1439 2293 
Q 1191 2003 1191 1497 
Q 1191 994 1439 701 
Q 1688 409 2113 409 
Q 2538 409 2786 701 
Q 3034 994 3034 1497 
Q 3034 2003 2786 2293 
Q 2538 2584 2113 2584 
z
M 3366 4563 
L 3366 3988 
Q 3128 4100 2886 4159 
Q 2644 4219 2406 4219 
Q 1781 4219 1451 3797 
Q 1122 3375 1075 2522 
Q 1259 2794 1537 2939 
Q 1816 3084 2150 3084 
Q 2853 3084 3261 2657 
Q 3669 2231 3669 1497 
Q 3669 778 3244 343 
Q 2819 -91 2113 -91 
Q 1303 -91 875 529 
Q 447 1150 447 2328 
Q 447 3434 972 4092 
Q 1497 4750 2381 4750 
Q 2619 4750 2861 4703 
Q 3103 4656 3366 4563 
z
" transform="scale(0.015625)"/>
       </defs>
       <use xlink:href="#DejaVuSans-30"/>
       <use xlink:href="#DejaVuSans-2e" x="63.623047"/>
       <use xlink:href="#DejaVuSans-36" x="95.410156"/>
      </g>
     </g>
    </g>
    <g id="xtick_5">
     <g id="line2d_5">
      <g>
       <use xlink:href="#mf0cfa7cca0" x="339.459174" y="307.584" style="stroke: #000000; stroke-width: 0.8"/>
      </g>
     </g>
     <g id="text_5">
      <!-- 0.8 -->
      <g transform="translate(331.507611 322.182437) scale(0.1 -0.1)">
       <defs>
        <path id="DejaVuSans-38" d="M 2034 2216 
Q 1584 2216 1326 1975 
Q 1069 1734 1069 1313 
Q 1069 891 1326 650 
Q 1584 409 2034 409 
Q 2484 409 2743 651 
Q 3003 894 3003 1313 
Q 3003 1734 2745 1975 
Q 2488 2216 2034 2216 
z
M 1403 2484 
Q 997 2584 770 2862 
Q 544 3141 544 3541 
Q 544 4100 942 4425 
Q 1341 4750 2034 4750 
Q 2731 4750 3128 4425 
Q 3525 4100 3525 3541 
Q 3525 3141 3298 2862 
Q 3072 2584 2669 2484 
Q 3125 2378 3379 2068 
Q 3634 1759 3634 1313 
Q 3634 634 3220 271 
Q 2806 -91 2034 -91 
Q 1263 -91 848 271 
Q 434 634 434 1313 
Q 434 1759 690 2068 
Q 947 2378 1403 2484 
z
M 1172 3481 
Q 1172 3119 1398 2916 
Q 1625 2713 2034 2713 
Q 2441 2713 2670 2916 
Q 2900 3119 2900 3481 
Q 2900 3844 2670 4047 
Q 2441 4250 2034 4250 
Q 1625 4250 1398 4047 
Q 1172 3844 1172 3481 
z
" transform="scale(0.015625)"/>
       </defs>
       <use xlink:href="#DejaVuSans-30"/>
       <use xlink:href="#DejaVuSans-2e" x="63.623047"/>
       <use xlink:href="#DejaVuSans-38" x="95.410156"/>
      </g>
     </g>
    </g>
    <g id="xtick_6">
     <g id="line2d_6">
      <g>
       <use xlink:href="#mf0cfa7cca0" x="398.487273" y="307.584" style="stroke: #000000; stroke-width: 0.8"/>
      </g>
     </g>
     <g id="text_6">
      <!-- 1.0 -->
      <g transform="translate(390.53571 322.182437) scale(0.1 -0.1)">
       <defs>
        <path id="DejaVuSans-31" d="M 794 531 
L 1825 531 
L 1825 4091 
L 703 3866 
L 703 4441 
L 1819 4666 
L 2450 4666 
L 2450 531 
L 3481 531 
L 3481 0 
L 794 0 
L 794 531 
z
" transform="scale(0.015625)"/>
       </defs>
       <use xlink:href="#DejaVuSans-31"/>
       <use xlink:href="#DejaVuSans-2e" x="63.623047"/>
       <use xlink:href="#DejaVuSans-30" x="95.410156"/>
      </g>
     </g>
    </g>
    <g id="text_7">
     <!-- Time (s) -->
     <g transform="translate(215.831094 335.860562) scale(0.1 -0.1)">
      <defs>
       <path id="DejaVuSans-54" d="M -19 4666 
L 3928 4666 
L 3928 4134 
L 2272 4134 
L 2272 0 
L 1638 0 
L 1638 4134 
L -19 4134 
L -19 4666 
z
" transform="scale(0.015625)"/>
       <path id="DejaVuSans-69" d="M 603 3500 
L 1178 3500 
L 1178 0 
L 603 0 
L 603 3500 
z
M 603 4863 
L 1178 4863 
L 1178 4134 
L 603 4134 
L 603 4863 
z
" transform="scale(0.015625)"/>
       <path id="DejaVuSans-6d" d="M 3328 2828 
Q 3544 3216 3844 3400 
Q 4144 3584 4550 3584 
Q 5097 3584 5394 3201 
Q 5691 2819 5691 2113 
L 5691 0 
L 5113 0 
L 5113 2094 
Q 5113 2597 4934 2840 
Q 4756 3084 4391 3084 
Q 3944 3084 3684 2787 
Q 3425 2491 3425 1978 
L 3425 0 
L 2847 0 
L 2847 2094 
Q 2847 2600 2669 2842 
Q 2491 3084 2119 3084 
Q 1678 3084 1418 2786 
Q 1159 2488 1159 1978 
L 1159 0 
L 581 0 
L 581 3500 
L 1159 3500 
L 1159 2956 
Q 1356 3278 1631 3431 
Q 1906 3584 2284 3584 
Q 2666 3584 2933 3390 
Q 3200 3197 3328 2828 
z
" transform="scale(0.015625)"/>
       <path id="DejaVuSans-65" d="M 3597 1894 
L 3597 1613 
L 953 1613 
Q 991 1019 1311 708 
Q 1631 397 2203 397 
Q 2534 397 2845 478 
Q 3156 559 3463 722 
L 3463 178 
Q 3153 47 2828 -22 
Q 2503 -91 2169 -91 
Q 1331 -91 842 396 
Q 353 884 353 1716 
Q 353 2575 817 3079 
Q 1281 3584 2069 3584 
Q 2775 3584 3186 3129 
Q 3597 2675 3597 1894 
z
M 3022 2063 
Q 3016 2534 2758 2815 
Q 2500 3097 2075 3097 
Q 1594 3097 1305 2825 
Q 1016 2553 972 2059 
L 3022 2063 
z
" transform="scale(0.015625)"/>
       <path id="DejaVuSans-20" transform="scale(0.015625)"/>
       <path id="DejaVuSans-28" d="M 1984 4856 
Q 1566 4138 1362 3434 
Q 1159 2731 1159 2009 
Q 1159 1288 1364 580 
Q 1569 -128 1984 -844 
L 1484 -844 
Q 1016 -109 783 600 
Q 550 1309 550 2009 
Q 550 2706 781 3412 
Q 1013 4119 1484 4856 
L 1984 4856 
z
" transform="scale(0.015625)"/>
       <path id="DejaVuSans-73" d="M 2834 3397 
L 2834 2853 
Q 2591 2978 2328 3040 
Q 2066 3103 1784 3103 
Q 1356 3103 1142 2972 
Q 928 2841 928 2578 
Q 928 2378 1081 2264 
Q 1234 2150 1697 2047 
L 1894 2003 
Q 2506 1872 2764 1633 
Q 3022 1394 3022 966 
Q 3022 478 2636 193 
Q 2250 -91 1575 -91 
Q 1294 -91 989 -36 
Q 684 19 347 128 
L 347 722 
Q 666 556 975 473 
Q 1284 391 1588 391 
Q 1994 391 2212 530 
Q 2431 669 2431 922 
Q 2431 1156 2273 1281 
Q 2116 1406 1581 1522 
L 1381 1569 
Q 847 1681 609 1914 
Q 372 2147 372 2553 
Q 372 3047 722 3315 
Q 1072 3584 1716 3584 
Q 2034 3584 2315 3537 
Q 2597 3491 2834 3397 
z
" transform="scale(0.015625)"/>
       <path id="DejaVuSans-29" d="M 513 4856 
L 1013 4856 
Q 1481 4119 1714 3412 
Q 1947 2706 1947 2009 
Q 1947 1309 1714 600 
Q 1481 -109 1013 -844 
L 513 -844 
Q 928 -128 1133 580 
Q 1338 1288 1338 2009 
Q 1338 2731 1133 3434 
Q 928 4138 513 4856 
z
" transform="scale(0.015625)"/>
      </defs>
      <use xlink:href="#DejaVuSans-54"/>
      <use xlink:href="#DejaVuSans-69" x="57.958984"/>
      <use xlink:href="#DejaVuSans-6d" x="85.742188"/>
      <use xlink:href="#DejaVuSans-65" x="183.154297"/>
      <use xlink:href="#DejaVuSans-20" x="244.677734"/>
      <use xlink:href="#DejaVuSans-28" x="276.464844"/>
      <use xlink:href="#DejaVuSans-73" x="315.478516"/>
      <use xlink:href="#DejaVuSans-29" x="367.578125"/>
     </g>
    </g>
   </g>
   <g id="matplotlib.axis_2">
    <g id="ytick_1">
     <g id="line2d_7">
      <defs>
       <path id="mf56156615d" d="M 0 0 
L -3.5 0 
" style="stroke: #000000; stroke-width: 0.8"/>
      </defs>
      <g>
       <use xlink:href="#mf56156615d" x="57.6" y="288.947084" style="stroke: #000000; stroke-width: 0.8"/>
      </g>
     </g>
     <g id="text_8">
      <!-- 0.000 -->
      <g transform="translate(21.971875 292.746302) scale(0.1 -0.1)">
       <use xlink:href="#DejaVuSans-30"/>
       <use xlink:href="#DejaVuSans-2e" x="63.623047"/>
       <use xlink:href="#DejaVuSans-30" x="95.410156"/>
       <use xlink:href="#DejaVuSans-30" x="159.033203"/>
       <use xlink:href="#DejaVuSans-30" x="222.65625"/>
      </g>
     </g>
    </g>
    <g id="ytick_2">
     <g id="line2d_8">
      <g>
       <use xlink:href="#mf56156615d" x="57.6" y="259.368726" style="stroke: #000000; stroke-width: 0.8"/>
      </g>
     </g>
     <g id="text_9">
      <!-- 0.001 -->
      <g transform="translate(21.971875 263.167945) scale(0.1 -0.1)">
       <use xlink:href="#DejaVuSans-30"/>
       <use xlink:href="#DejaVuSans-2e" x="63.623047"/>
       <use xlink:href="#DejaVuSans-30" x="95.410156"/>
       <use xlink:href="#DejaVuSans-30" x="159.033203"/>
       <use xlink:href="#DejaVuSans-31" x="222.65625"/>
      </g>
     </g>
    </g>
    <g id="ytick_3">
     <g id="line2d_9">
      <g>
       <use xlink:href="#mf56156615d" x="57.6" y="229.790368" style="stroke: #000000; stroke-width: 0.8"/>
      </g>
     </g>
     <g id="text_10">
      <!-- 0.002 -->
      <g transform="translate(21.971875 233.589587) scale(0.1 -0.1)">
       <use xlink:href="#DejaVuSans-30"/>
       <use xlink:href="#DejaVuSans-2e" x="63.623047"/>
       <use xlink:href="#DejaVuSans-30" x="95.410156"/>
       <use xlink:href="#DejaVuSans-30" x="159.033203"/>
       <use xlink:href="#DejaVuSans-32" x="222.65625"/>
      </g>
     </g>
    </g>
    <g id="ytick_4">
     <g id="line2d_10">
      <g>
       <use xlink:href="#mf56156615d" x="57.6" y="200.21201" style="stroke: #000000; stroke-width: 0.8"/>
      </g>
     </g>
     <g id="text_11">
      <!-- 0.003 -->
      <g transform="translate(21.971875 204.011229) scale(0.1 -0.1)">
       <defs>
        <path id="DejaVuSans-33" d="M 2597 2516 
Q 3050 2419 3304 2112 
Q 3559 1806 3559 1356 
Q 3559 666 3084 287 
Q 2609 -91 1734 -91 
Q 1441 -91 1130 -33 
Q 819 25 488 141 
L 488 750 
Q 750 597 1062 519 
Q 1375 441 1716 441 
Q 2309 441 2620 675 
Q 2931 909 2931 1356 
Q 2931 1769 2642 2001 
Q 2353 2234 1838 2234 
L 1294 2234 
L 1294 2753 
L 1863 2753 
Q 2328 2753 2575 2939 
Q 2822 3125 2822 3475 
Q 2822 3834 2567 4026 
Q 2313 4219 1838 4219 
Q 1578 4219 1281 4162 
Q 984 4106 628 3988 
L 628 4550 
Q 988 4650 1302 4700 
Q 1616 4750 1894 4750 
Q 2613 4750 3031 4423 
Q 3450 4097 3450 3541 
Q 3450 3153 3228 2886 
Q 3006 2619 2597 2516 
z
" transform="scale(0.015625)"/>
       </defs>
       <use xlink:href="#DejaVuSans-30"/>
       <use xlink:href="#DejaVuSans-2e" x="63.623047"/>
       <use xlink:href="#DejaVuSans-30" x="95.410156"/>
       <use xlink:href="#DejaVuSans-30" x="159.033203"/>
       <use xlink:href="#DejaVuSans-33" x="222.65625"/>
      </g>
     </g>
    </g>
    <g id="ytick_5">
     <g id="line2d_11">
      <g>
       <use xlink:href="#mf56156615d" x="57.6" y="170.633652" style="stroke: #000000; stroke-width: 0.8"/>
      </g>
     </g>
     <g id="text_12">
      <!-- 0.004 -->
      <g transform="translate(21.971875 174.432871) scale(0.1 -0.1)">
       <use xlink:href="#DejaVuSans-30"/>
       <use xlink:href="#DejaVuSans-2e" x="63.623047"/>
       <use xlink:href="#DejaVuSans-30" x="95.410156"/>
       <use xlink:href="#DejaVuSans-30" x="159.033203"/>
       <use xlink:href="#DejaVuSans-34" x="222.65625"/>
      </g>
     </g>
    </g>
    <g id="ytick_6">
     <g id="line2d_12">
      <g>
       <use xlink:href="#mf56156615d" x="57.6" y="141.055294" style="stroke: #000000; stroke-width: 0.8"/>
      </g>
     </g>
     <g id="text_13">
      <!-- 0.005 -->
      <g transform="translate(21.971875 144.854513) scale(0.1 -0.1)">
       <defs>
        <path id="DejaVuSans-35" d="M 691 4666 
L 3169 4666 
L 3169 4134 
L 1269 4134 
L 1269 2991 
Q 1406 3038 1543 3061 
Q 1681 3084 1819 3084 
Q 2600 3084 3056 2656 
Q 3513 2228 3513 1497 
Q 3513 744 3044 326 
Q 2575 -91 1722 -91 
Q 1428 -91 1123 -41 
Q 819 9 494 109 
L 494 744 
Q 775 591 1075 516 
Q 1375 441 1709 441 
Q 2250 441 2565 725 
Q 2881 1009 2881 1497 
Q 2881 1984 2565 2268 
Q 2250 2553 1709 2553 
Q 1456 2553 1204 2497 
Q 953 2441 691 2322 
L 691 4666 
z
" transform="scale(0.015625)"/>
       </defs>
       <use xlink:href="#DejaVuSans-30"/>
       <use xlink:href="#DejaVuSans-2e" x="63.623047"/>
       <use xlink:href="#DejaVuSans-30" x="95.410156"/>
       <use xlink:href="#DejaVuSans-30" x="159.033203"/>
       <use xlink:href="#DejaVuSans-35" x="222.65625"/>
      </g>
     </g>
    </g>
    <g id="ytick_7">
     <g id="line2d_13">
      <g>
       <use xlink:href="#mf56156615d" x="57.6" y="111.476937" style="stroke: #000000; stroke-width: 0.8"/>
      </g>
     </g>
     <g id="text_14">
      <!-- 0.006 -->
      <g transform="translate(21.971875 115.276155) scale(0.1 -0.1)">
       <use xlink:href="#DejaVuSans-30"/>
       <use xlink:href="#DejaVuSans-2e" x="63.623047"/>
       <use xlink:href="#DejaVuSans-30" x="95.410156"/>
       <use xlink:href="#DejaVuSans-30" x="159.033203"/>
       <use xlink:href="#DejaVuSans-36" x="222.65625"/>
      </g>
     </g>
    </g>
    <g id="ytick_8">
     <g id="line2d_14">
      <g>
       <use xlink:href="#mf56156615d" x="57.6" y="81.898579" style="stroke: #000000; stroke-width: 0.8"/>
      </g>
     </g>
     <g id="text_15">
      <!-- 0.007 -->
      <g transform="translate(21.971875 85.697798) scale(0.1 -0.1)">
       <defs>
        <path id="DejaVuSans-37" d="M 525 4666 
L 3525 4666 
L 3525 4397 
L 1831 0 
L 1172 0 
L 2766 4134 
L 525 4134 
L 525 4666 
z
" transform="scale(0.015625)"/>
       </defs>
       <use xlink:href="#DejaVuSans-30"/>
       <use xlink:href="#DejaVuSans-2e" x="63.623047"/>
       <use xlink:href="#DejaVuSans-30" x="95.410156"/>
       <use xlink:href="#DejaVuSans-30" x="159.033203"/>
       <use xlink:href="#DejaVuSans-37" x="222.65625"/>
      </g>
     </g>
    </g>
    <g id="ytick_9">
     <g id="line2d_15">
      <g>
       <use xlink:href="#mf56156615d" x="57.6" y="52.320221" style="stroke: #000000; stroke-width: 0.8"/>
      </g>
     </g>
     <g id="text_16">
      <!-- 0.008 -->
      <g transform="translate(21.971875 56.11944) scale(0.1 -0.1)">
       <use xlink:href="#DejaVuSans-30"/>
       <use xlink:href="#DejaVuSans-2e" x="63.623047"/>
       <use xlink:href="#DejaVuSans-30" x="95.410156"/>
       <use xlink:href="#DejaVuSans-30" x="159.033203"/>
       <use xlink:href="#DejaVuSans-38" x="222.65625"/>
      </g>
     </g>
    </g>
    <g id="text_17">
     <!-- Unique Variance -->
     <g transform="translate(15.892187 215.353781) rotate(-90) scale(0.1 -0.1)">
      <defs>
       <path id="DejaVuSans-55" d="M 556 4666 
L 1191 4666 
L 1191 1831 
Q 1191 1081 1462 751 
Q 1734 422 2344 422 
Q 2950 422 3222 751 
Q 3494 1081 3494 1831 
L 3494 4666 
L 4128 4666 
L 4128 1753 
Q 4128 841 3676 375 
Q 3225 -91 2344 -91 
Q 1459 -91 1007 375 
Q 556 841 556 1753 
L 556 4666 
z
" transform="scale(0.015625)"/>
       <path id="DejaVuSans-6e" d="M 3513 2113 
L 3513 0 
L 2938 0 
L 2938 2094 
Q 2938 2591 2744 2837 
Q 2550 3084 2163 3084 
Q 1697 3084 1428 2787 
Q 1159 2491 1159 1978 
L 1159 0 
L 581 0 
L 581 3500 
L 1159 3500 
L 1159 2956 
Q 1366 3272 1645 3428 
Q 1925 3584 2291 3584 
Q 2894 3584 3203 3211 
Q 3513 2838 3513 2113 
z
" transform="scale(0.015625)"/>
       <path id="DejaVuSans-71" d="M 947 1747 
Q 947 1113 1208 752 
Q 1469 391 1925 391 
Q 2381 391 2643 752 
Q 2906 1113 2906 1747 
Q 2906 2381 2643 2742 
Q 2381 3103 1925 3103 
Q 1469 3103 1208 2742 
Q 947 2381 947 1747 
z
M 2906 525 
Q 2725 213 2448 61 
Q 2172 -91 1784 -91 
Q 1150 -91 751 415 
Q 353 922 353 1747 
Q 353 2572 751 3078 
Q 1150 3584 1784 3584 
Q 2172 3584 2448 3432 
Q 2725 3281 2906 2969 
L 2906 3500 
L 3481 3500 
L 3481 -1331 
L 2906 -1331 
L 2906 525 
z
" transform="scale(0.015625)"/>
       <path id="DejaVuSans-75" d="M 544 1381 
L 544 3500 
L 1119 3500 
L 1119 1403 
Q 1119 906 1312 657 
Q 1506 409 1894 409 
Q 2359 409 2629 706 
Q 2900 1003 2900 1516 
L 2900 3500 
L 3475 3500 
L 3475 0 
L 2900 0 
L 2900 538 
Q 2691 219 2414 64 
Q 2138 -91 1772 -91 
Q 1169 -91 856 284 
Q 544 659 544 1381 
z
M 1991 3584 
L 1991 3584 
z
" transform="scale(0.015625)"/>
       <path id="DejaVuSans-56" d="M 1831 0 
L 50 4666 
L 709 4666 
L 2188 738 
L 3669 4666 
L 4325 4666 
L 2547 0 
L 1831 0 
z
" transform="scale(0.015625)"/>
       <path id="DejaVuSans-61" d="M 2194 1759 
Q 1497 1759 1228 1600 
Q 959 1441 959 1056 
Q 959 750 1161 570 
Q 1363 391 1709 391 
Q 2188 391 2477 730 
Q 2766 1069 2766 1631 
L 2766 1759 
L 2194 1759 
z
M 3341 1997 
L 3341 0 
L 2766 0 
L 2766 531 
Q 2569 213 2275 61 
Q 1981 -91 1556 -91 
Q 1019 -91 701 211 
Q 384 513 384 1019 
Q 384 1609 779 1909 
Q 1175 2209 1959 2209 
L 2766 2209 
L 2766 2266 
Q 2766 2663 2505 2880 
Q 2244 3097 1772 3097 
Q 1472 3097 1187 3025 
Q 903 2953 641 2809 
L 641 3341 
Q 956 3463 1253 3523 
Q 1550 3584 1831 3584 
Q 2591 3584 2966 3190 
Q 3341 2797 3341 1997 
z
" transform="scale(0.015625)"/>
       <path id="DejaVuSans-72" d="M 2631 2963 
Q 2534 3019 2420 3045 
Q 2306 3072 2169 3072 
Q 1681 3072 1420 2755 
Q 1159 2438 1159 1844 
L 1159 0 
L 581 0 
L 581 3500 
L 1159 3500 
L 1159 2956 
Q 1341 3275 1631 3429 
Q 1922 3584 2338 3584 
Q 2397 3584 2469 3576 
Q 2541 3569 2628 3553 
L 2631 2963 
z
" transform="scale(0.015625)"/>
       <path id="DejaVuSans-63" d="M 3122 3366 
L 3122 2828 
Q 2878 2963 2633 3030 
Q 2388 3097 2138 3097 
Q 1578 3097 1268 2742 
Q 959 2388 959 1747 
Q 959 1106 1268 751 
Q 1578 397 2138 397 
Q 2388 397 2633 464 
Q 2878 531 3122 666 
L 3122 134 
Q 2881 22 2623 -34 
Q 2366 -91 2075 -91 
Q 1284 -91 818 406 
Q 353 903 353 1747 
Q 353 2603 823 3093 
Q 1294 3584 2113 3584 
Q 2378 3584 2631 3529 
Q 2884 3475 3122 3366 
z
" transform="scale(0.015625)"/>
      </defs>
      <use xlink:href="#DejaVuSans-55"/>
      <use xlink:href="#DejaVuSans-6e" x="73.193359"/>
      <use xlink:href="#DejaVuSans-69" x="136.572266"/>
      <use xlink:href="#DejaVuSans-71" x="164.355469"/>
      <use xlink:href="#DejaVuSans-75" x="227.832031"/>
      <use xlink:href="#DejaVuSans-65" x="291.210938"/>
      <use xlink:href="#DejaVuSans-20" x="352.734375"/>
      <use xlink:href="#DejaVuSans-56" x="384.521484"/>
      <use xlink:href="#DejaVuSans-61" x="445.179688"/>
      <use xlink:href="#DejaVuSans-72" x="506.458984"/>
      <use xlink:href="#DejaVuSans-69" x="547.572266"/>
      <use xlink:href="#DejaVuSans-61" x="575.355469"/>
      <use xlink:href="#DejaVuSans-6e" x="636.634766"/>
      <use xlink:href="#DejaVuSans-63" x="700.013672"/>
      <use xlink:href="#DejaVuSans-65" x="754.994141"/>
     </g>
    </g>
   </g>
   <g id="line2d_16">
    <path d="M 103.346777 307.584 
L 103.346777 41.472 
" clip-path="url(#p45da1c2b90)" style="fill: none; stroke-dasharray: 5.55,2.4; stroke-dashoffset: 0; stroke: #d3d3d3; stroke-width: 1.5"/>
   </g>
   <g id="line2d_17">
    <path d="M 57.6 288.947084 
L 414.72 288.947084 
" clip-path="url(#p45da1c2b90)" style="fill: none; stroke-dasharray: 5.55,2.4; stroke-dashoffset: 0; stroke: #d3d3d3; stroke-width: 1.5"/>
   </g>
   <g id="line2d_18">
    <path d="M 73.832727 293.54343 
L 78.470649 289.396366 
L 80.78961 284.524206 
L 85.427532 292.570197 
L 87.746494 292.021508 
L 90.065455 286.24161 
L 92.384416 287.759459 
L 94.703377 286.777425 
L 97.022338 287.035802 
L 99.341299 291.047422 
L 101.66026 285.359139 
L 103.979221 286.653262 
L 106.298182 291.318112 
L 108.617143 291.875385 
L 110.936104 291.525937 
L 113.255065 290.678568 
L 115.574026 289.311381 
L 117.892987 285.77748 
L 120.211948 279.221332 
L 122.530909 265.251144 
L 124.84987 233.332112 
L 127.168831 212.729043 
L 129.487792 213.653177 
L 131.806753 228.248242 
L 134.125714 225.468758 
L 136.444675 217.336428 
L 138.763636 198.200738 
L 141.082597 150.384869 
L 143.401558 132.706343 
L 145.720519 154.184111 
L 148.039481 162.6321 
L 150.358442 164.996306 
L 152.677403 168.984462 
L 154.996364 163.463359 
L 159.634286 165.284134 
L 161.953247 164.16566 
L 164.272208 162.166973 
L 166.591169 158.293216 
L 168.91013 146.401874 
L 171.229091 137.34449 
L 173.548052 139.979175 
L 175.867013 151.430881 
L 178.185974 165.473797 
L 180.504935 170.187373 
L 182.823896 169.923769 
L 185.142857 169.868025 
L 187.461818 174.494879 
L 189.780779 181.499329 
L 192.09974 189.42755 
L 194.418701 192.91443 
L 196.737662 190.229676 
L 199.056623 185.92492 
L 201.375584 180.2063 
L 203.694545 174.127664 
L 206.013506 169.314611 
L 208.332468 166.418987 
L 210.651429 165.666169 
L 212.97039 167.919558 
L 215.289351 172.45928 
L 217.608312 174.945527 
L 219.927273 177.179844 
L 222.246234 178.420505 
L 224.565195 173.111707 
L 226.884156 161.565326 
L 229.203117 144.098053 
L 231.522078 127.997901 
L 233.841039 121.449388 
L 236.16 119.474727 
L 238.478961 120.948576 
L 240.797922 126.45418 
L 243.116883 132.720885 
L 245.435844 134.354036 
L 247.754805 133.722482 
L 250.073766 136.585539 
L 252.392727 143.639466 
L 254.711688 152.418777 
L 257.030649 159.188188 
L 259.34961 160.627209 
L 261.668571 157.733216 
L 263.987532 151.680002 
L 266.306494 142.889381 
L 268.625455 131.931449 
L 270.944416 124.4582 
L 273.263377 124.537632 
L 275.582338 133.910256 
L 277.901299 145.013667 
L 280.22026 150.227094 
L 282.539221 152.32173 
L 284.858182 157.873054 
L 287.177143 166.699171 
L 289.496104 174.330468 
L 291.815065 176.796742 
L 294.134026 174.201994 
L 296.452987 169.119076 
L 298.771948 163.503696 
L 301.090909 159.25918 
L 303.40987 158.505078 
L 308.047792 163.25928 
L 310.366753 163.227221 
L 312.685714 163.968397 
L 315.004675 168.344628 
L 317.323636 176.760914 
L 319.642597 182.464109 
L 321.961558 186.479699 
L 324.280519 192.731492 
L 326.599481 196.397168 
L 331.237403 195.018486 
L 333.556364 196.022446 
L 335.875325 196.75711 
L 340.513247 199.322301 
L 342.832208 201.037434 
L 345.151169 202.466225 
L 347.47013 203.412098 
L 349.789091 205.97882 
L 352.108052 210.467386 
L 359.064935 225.57642 
L 361.383896 229.62672 
L 363.702857 232.453249 
L 366.021818 235.074178 
L 368.340779 237.137125 
L 370.65974 237.093623 
L 372.978701 234.987464 
L 375.297662 233.167104 
L 379.935584 235.182758 
L 384.573506 234.40149 
L 386.892468 235.446285 
L 389.211429 238.378324 
L 391.53039 244.106949 
L 393.849351 249.397142 
L 396.168312 253.633545 
L 398.487273 255.035058 
L 398.487273 255.035058 
" clip-path="url(#p45da1c2b90)" style="fill: none; stroke: #ff2c55; stroke-linecap: square"/>
   </g>
   <g id="line2d_19">
    <path d="M 73.832727 291.307258 
L 76.151688 290.237028 
L 78.470649 287.633316 
L 80.78961 286.630003 
L 83.108571 286.589363 
L 85.427532 288.965575 
L 87.746494 292.547122 
L 90.065455 287.784035 
L 92.384416 288.068377 
L 94.703377 286.822202 
L 97.022338 287.568171 
L 99.341299 290.280841 
L 103.979221 293.492645 
L 106.298182 293.586205 
L 108.617143 291.86981 
L 110.936104 287.346946 
L 113.255065 281.004222 
L 115.574026 278.53176 
L 117.892987 280.758152 
L 120.211948 285.409152 
L 122.530909 280.557498 
L 124.84987 268.549546 
L 127.168831 263.423301 
L 129.487792 256.579009 
L 131.806753 259.234521 
L 134.125714 269.726123 
L 136.444675 278.064313 
L 138.763636 273.750382 
L 141.082597 258.821737 
L 143.401558 245.363385 
L 145.720519 239.497182 
L 148.039481 235.033834 
L 150.358442 235.695877 
L 152.677403 232.30221 
L 154.996364 219.047743 
L 157.315325 215.222712 
L 159.634286 221.847428 
L 161.953247 234.946397 
L 164.272208 246.082953 
L 166.591169 254.371637 
L 168.91013 259.065459 
L 171.229091 261.036501 
L 173.548052 264.253644 
L 178.185974 274.523855 
L 180.504935 276.690468 
L 182.823896 276.432748 
L 185.142857 274.94433 
L 187.461818 272.639114 
L 189.780779 270.649761 
L 192.09974 270.33189 
L 194.418701 270.949314 
L 196.737662 271.789722 
L 199.056623 272.240106 
L 201.375584 270.720362 
L 203.694545 268.294818 
L 206.013506 265.650313 
L 208.332468 262.292112 
L 210.651429 259.726825 
L 212.97039 259.388174 
L 215.289351 261.118197 
L 217.608312 263.209967 
L 219.927273 263.723876 
L 224.565195 262.633443 
L 226.884156 261.130497 
L 229.203117 257.558461 
L 231.522078 252.09089 
L 233.841039 246.956165 
L 236.16 241.49843 
L 238.478961 236.649103 
L 240.797922 234.494062 
L 243.116883 234.93899 
L 245.435844 236.35876 
L 247.754805 238.292186 
L 250.073766 241.039685 
L 252.392727 244.594438 
L 254.711688 248.386075 
L 257.030649 250.371052 
L 259.34961 250.129849 
L 261.668571 248.439934 
L 263.987532 246.377485 
L 268.625455 243.173634 
L 270.944416 244.154982 
L 273.263377 248.961062 
L 275.582338 255.332252 
L 277.901299 259.256181 
L 280.22026 259.282064 
L 284.858182 254.337424 
L 287.177143 253.839104 
L 289.496104 255.771755 
L 291.815065 258.236429 
L 294.134026 259.981774 
L 296.452987 260.965978 
L 298.771948 261.695978 
L 303.40987 262.584003 
L 305.728831 262.557458 
L 308.047792 261.206459 
L 310.366753 259.186754 
L 312.685714 259.092663 
L 315.004675 260.591066 
L 317.323636 262.40165 
L 319.642597 263.8415 
L 321.961558 266.555285 
L 324.280519 270.415818 
L 326.599481 272.364515 
L 328.918442 272.397243 
L 333.556364 272.190634 
L 335.875325 271.792709 
L 338.194286 271.172085 
L 340.513247 270.736997 
L 342.832208 271.447567 
L 345.151169 271.976968 
L 347.47013 271.673494 
L 349.789091 271.880393 
L 352.108052 273.596665 
L 356.745974 278.424986 
L 359.064935 280.039888 
L 361.383896 279.768277 
L 363.702857 277.21367 
L 366.021818 273.634098 
L 368.340779 270.732119 
L 370.65974 268.773776 
L 372.978701 267.092611 
L 375.297662 266.237522 
L 377.616623 267.057336 
L 379.935584 268.813366 
L 382.254545 270.427441 
L 384.573506 271.564266 
L 386.892468 272.215673 
L 389.211429 272.573318 
L 391.53039 273.150605 
L 393.849351 273.923053 
L 396.168312 274.832598 
L 398.487273 275.147292 
L 398.487273 275.147292 
" clip-path="url(#p45da1c2b90)" style="fill: none; stroke: #0974f1; stroke-linecap: square"/>
   </g>
   <g id="line2d_20">
    <path d="M 236.16 307.584 
L 236.16 41.472 
" clip-path="url(#p45da1c2b90)" style="fill: none; stroke-dasharray: 5.55,2.4; stroke-dashoffset: 0; stroke: #ff2c55; stroke-width: 1.5"/>
   </g>
   <g id="line2d_21">
    <path d="M 157.315325 307.584 
L 157.315325 41.472 
" clip-path="url(#p45da1c2b90)" style="fill: none; stroke-dasharray: 5.55,2.4; stroke-dashoffset: 0; stroke: #0974f1; stroke-width: 1.5"/>
   </g>
   <g id="patch_3">
    <path d="M 57.6 307.584 
L 57.6 41.472 
" style="fill: none; stroke: #000000; stroke-width: 0.8; stroke-linejoin: miter; stroke-linecap: square"/>
   </g>
   <g id="patch_4">
    <path d="M 57.6 307.584 
L 414.72 307.584 
" style="fill: none; stroke: #000000; stroke-width: 0.8; stroke-linejoin: miter; stroke-linecap: square"/>
   </g>
   <g id="text_18">
    <!-- . -->
    <g style="fill: #ff2c55" transform="translate(73.832727 296.966918) scale(0.15 -0.15)">
     <use xlink:href="#DejaVuSans-2e"/>
    </g>
   </g>
   <g id="text_19">
    <!-- . -->
    <g style="fill: #ff2c55" transform="translate(122.530909 296.966918) scale(0.15 -0.15)">
     <use xlink:href="#DejaVuSans-2e"/>
    </g>
   </g>
   <g id="text_20">
    <!-- . -->
    <g style="fill: #ff2c55" transform="translate(127.168831 296.966918) scale(0.15 -0.15)">
     <use xlink:href="#DejaVuSans-2e"/>
    </g>
   </g>
   <g id="text_21">
    <!-- . -->
    <g style="fill: #ff2c55" transform="translate(129.487792 296.966918) scale(0.15 -0.15)">
     <use xlink:href="#DejaVuSans-2e"/>
    </g>
   </g>
   <g id="text_22">
    <!-- . -->
    <g style="fill: #ff2c55" transform="translate(131.806753 296.966918) scale(0.15 -0.15)">
     <use xlink:href="#DejaVuSans-2e"/>
    </g>
   </g>
   <g id="text_23">
    <!-- . -->
    <g style="fill: #ff2c55" transform="translate(134.125714 296.966918) scale(0.15 -0.15)">
     <use xlink:href="#DejaVuSans-2e"/>
    </g>
   </g>
   <g id="text_24">
    <!-- . -->
    <g style="fill: #ff2c55" transform="translate(136.444675 296.966918) scale(0.15 -0.15)">
     <use xlink:href="#DejaVuSans-2e"/>
    </g>
   </g>
   <g id="text_25">
    <!-- . -->
    <g style="fill: #ff2c55" transform="translate(138.763636 296.966918) scale(0.15 -0.15)">
     <use xlink:href="#DejaVuSans-2e"/>
    </g>
   </g>
   <g id="text_26">
    <!-- . -->
    <g style="fill: #ff2c55" transform="translate(145.720519 296.966918) scale(0.15 -0.15)">
     <use xlink:href="#DejaVuSans-2e"/>
    </g>
   </g>
   <g id="text_27">
    <!-- . -->
    <g style="fill: #ff2c55" transform="translate(148.039481 296.966918) scale(0.15 -0.15)">
     <use xlink:href="#DejaVuSans-2e"/>
    </g>
   </g>
   <g id="text_28">
    <!-- . -->
    <g style="fill: #ff2c55" transform="translate(150.358442 296.966918) scale(0.15 -0.15)">
     <use xlink:href="#DejaVuSans-2e"/>
    </g>
   </g>
   <g id="text_29">
    <!-- . -->
    <g style="fill: #ff2c55" transform="translate(152.677403 296.966918) scale(0.15 -0.15)">
     <use xlink:href="#DejaVuSans-2e"/>
    </g>
   </g>
   <g id="text_30">
    <!-- . -->
    <g style="fill: #ff2c55" transform="translate(154.996364 296.966918) scale(0.15 -0.15)">
     <use xlink:href="#DejaVuSans-2e"/>
    </g>
   </g>
   <g id="text_31">
    <!-- . -->
    <g style="fill: #ff2c55" transform="translate(157.315325 296.966918) scale(0.15 -0.15)">
     <use xlink:href="#DejaVuSans-2e"/>
    </g>
   </g>
   <g id="text_32">
    <!-- . -->
    <g style="fill: #ff2c55" transform="translate(159.634286 296.966918) scale(0.15 -0.15)">
     <use xlink:href="#DejaVuSans-2e"/>
    </g>
   </g>
   <g id="text_33">
    <!-- . -->
    <g style="fill: #ff2c55" transform="translate(161.953247 296.966918) scale(0.15 -0.15)">
     <use xlink:href="#DejaVuSans-2e"/>
    </g>
   </g>
   <g id="text_34">
    <!-- . -->
    <g style="fill: #ff2c55" transform="translate(164.272208 296.966918) scale(0.15 -0.15)">
     <use xlink:href="#DejaVuSans-2e"/>
    </g>
   </g>
   <g id="text_35">
    <!-- . -->
    <g style="fill: #ff2c55" transform="translate(166.591169 296.966918) scale(0.15 -0.15)">
     <use xlink:href="#DejaVuSans-2e"/>
    </g>
   </g>
   <g id="text_36">
    <!-- . -->
    <g style="fill: #ff2c55" transform="translate(168.91013 296.966918) scale(0.15 -0.15)">
     <use xlink:href="#DejaVuSans-2e"/>
    </g>
   </g>
   <g id="text_37">
    <!-- . -->
    <g style="fill: #ff2c55" transform="translate(171.229091 296.966918) scale(0.15 -0.15)">
     <use xlink:href="#DejaVuSans-2e"/>
    </g>
   </g>
   <g id="text_38">
    <!-- . -->
    <g style="fill: #ff2c55" transform="translate(173.548052 296.966918) scale(0.15 -0.15)">
     <use xlink:href="#DejaVuSans-2e"/>
    </g>
   </g>
   <g id="text_39">
    <!-- . -->
    <g style="fill: #ff2c55" transform="translate(175.867013 296.966918) scale(0.15 -0.15)">
     <use xlink:href="#DejaVuSans-2e"/>
    </g>
   </g>
   <g id="text_40">
    <!-- . -->
    <g style="fill: #ff2c55" transform="translate(178.185974 296.966918) scale(0.15 -0.15)">
     <use xlink:href="#DejaVuSans-2e"/>
    </g>
   </g>
   <g id="text_41">
    <!-- . -->
    <g style="fill: #ff2c55" transform="translate(180.504935 296.966918) scale(0.15 -0.15)">
     <use xlink:href="#DejaVuSans-2e"/>
    </g>
   </g>
   <g id="text_42">
    <!-- . -->
    <g style="fill: #ff2c55" transform="translate(182.823896 296.966918) scale(0.15 -0.15)">
     <use xlink:href="#DejaVuSans-2e"/>
    </g>
   </g>
   <g id="text_43">
    <!-- . -->
    <g style="fill: #ff2c55" transform="translate(185.142857 296.966918) scale(0.15 -0.15)">
     <use xlink:href="#DejaVuSans-2e"/>
    </g>
   </g>
   <g id="text_44">
    <!-- . -->
    <g style="fill: #ff2c55" transform="translate(187.461818 296.966918) scale(0.15 -0.15)">
     <use xlink:href="#DejaVuSans-2e"/>
    </g>
   </g>
   <g id="text_45">
    <!-- . -->
    <g style="fill: #ff2c55" transform="translate(189.780779 296.966918) scale(0.15 -0.15)">
     <use xlink:href="#DejaVuSans-2e"/>
    </g>
   </g>
   <g id="text_46">
    <!-- . -->
    <g style="fill: #ff2c55" transform="translate(192.09974 296.966918) scale(0.15 -0.15)">
     <use xlink:href="#DejaVuSans-2e"/>
    </g>
   </g>
   <g id="text_47">
    <!-- . -->
    <g style="fill: #ff2c55" transform="translate(194.418701 296.966918) scale(0.15 -0.15)">
     <use xlink:href="#DejaVuSans-2e"/>
    </g>
   </g>
   <g id="text_48">
    <!-- . -->
    <g style="fill: #ff2c55" transform="translate(196.737662 296.966918) scale(0.15 -0.15)">
     <use xlink:href="#DejaVuSans-2e"/>
    </g>
   </g>
   <g id="text_49">
    <!-- . -->
    <g style="fill: #ff2c55" transform="translate(199.056623 296.966918) scale(0.15 -0.15)">
     <use xlink:href="#DejaVuSans-2e"/>
    </g>
   </g>
   <g id="text_50">
    <!-- . -->
    <g style="fill: #ff2c55" transform="translate(201.375584 296.966918) scale(0.15 -0.15)">
     <use xlink:href="#DejaVuSans-2e"/>
    </g>
   </g>
   <g id="text_51">
    <!-- . -->
    <g style="fill: #ff2c55" transform="translate(203.694545 296.966918) scale(0.15 -0.15)">
     <use xlink:href="#DejaVuSans-2e"/>
    </g>
   </g>
   <g id="text_52">
    <!-- . -->
    <g style="fill: #ff2c55" transform="translate(206.013506 296.966918) scale(0.15 -0.15)">
     <use xlink:href="#DejaVuSans-2e"/>
    </g>
   </g>
   <g id="text_53">
    <!-- . -->
    <g style="fill: #ff2c55" transform="translate(208.332468 296.966918) scale(0.15 -0.15)">
     <use xlink:href="#DejaVuSans-2e"/>
    </g>
   </g>
   <g id="text_54">
    <!-- . -->
    <g style="fill: #ff2c55" transform="translate(210.651429 296.966918) scale(0.15 -0.15)">
     <use xlink:href="#DejaVuSans-2e"/>
    </g>
   </g>
   <g id="text_55">
    <!-- . -->
    <g style="fill: #ff2c55" transform="translate(212.97039 296.966918) scale(0.15 -0.15)">
     <use xlink:href="#DejaVuSans-2e"/>
    </g>
   </g>
   <g id="text_56">
    <!-- . -->
    <g style="fill: #ff2c55" transform="translate(215.289351 296.966918) scale(0.15 -0.15)">
     <use xlink:href="#DejaVuSans-2e"/>
    </g>
   </g>
   <g id="text_57">
    <!-- . -->
    <g style="fill: #ff2c55" transform="translate(217.608312 296.966918) scale(0.15 -0.15)">
     <use xlink:href="#DejaVuSans-2e"/>
    </g>
   </g>
   <g id="text_58">
    <!-- . -->
    <g style="fill: #ff2c55" transform="translate(219.927273 296.966918) scale(0.15 -0.15)">
     <use xlink:href="#DejaVuSans-2e"/>
    </g>
   </g>
   <g id="text_59">
    <!-- . -->
    <g style="fill: #ff2c55" transform="translate(222.246234 296.966918) scale(0.15 -0.15)">
     <use xlink:href="#DejaVuSans-2e"/>
    </g>
   </g>
   <g id="text_60">
    <!-- . -->
    <g style="fill: #ff2c55" transform="translate(224.565195 296.966918) scale(0.15 -0.15)">
     <use xlink:href="#DejaVuSans-2e"/>
    </g>
   </g>
   <g id="text_61">
    <!-- . -->
    <g style="fill: #ff2c55" transform="translate(226.884156 296.966918) scale(0.15 -0.15)">
     <use xlink:href="#DejaVuSans-2e"/>
    </g>
   </g>
   <g id="text_62">
    <!-- . -->
    <g style="fill: #ff2c55" transform="translate(229.203117 296.966918) scale(0.15 -0.15)">
     <use xlink:href="#DejaVuSans-2e"/>
    </g>
   </g>
   <g id="text_63">
    <!-- . -->
    <g style="fill: #ff2c55" transform="translate(231.522078 296.966918) scale(0.15 -0.15)">
     <use xlink:href="#DejaVuSans-2e"/>
    </g>
   </g>
   <g id="text_64">
    <!-- . -->
    <g style="fill: #ff2c55" transform="translate(233.841039 296.966918) scale(0.15 -0.15)">
     <use xlink:href="#DejaVuSans-2e"/>
    </g>
   </g>
   <g id="text_65">
    <!-- . -->
    <g style="fill: #ff2c55" transform="translate(236.16 296.966918) scale(0.15 -0.15)">
     <use xlink:href="#DejaVuSans-2e"/>
    </g>
   </g>
   <g id="text_66">
    <!-- . -->
    <g style="fill: #ff2c55" transform="translate(238.478961 296.966918) scale(0.15 -0.15)">
     <use xlink:href="#DejaVuSans-2e"/>
    </g>
   </g>
   <g id="text_67">
    <!-- . -->
    <g style="fill: #ff2c55" transform="translate(240.797922 296.966918) scale(0.15 -0.15)">
     <use xlink:href="#DejaVuSans-2e"/>
    </g>
   </g>
   <g id="text_68">
    <!-- . -->
    <g style="fill: #ff2c55" transform="translate(243.116883 296.966918) scale(0.15 -0.15)">
     <use xlink:href="#DejaVuSans-2e"/>
    </g>
   </g>
   <g id="text_69">
    <!-- . -->
    <g style="fill: #ff2c55" transform="translate(245.435844 296.966918) scale(0.15 -0.15)">
     <use xlink:href="#DejaVuSans-2e"/>
    </g>
   </g>
   <g id="text_70">
    <!-- . -->
    <g style="fill: #ff2c55" transform="translate(247.754805 296.966918) scale(0.15 -0.15)">
     <use xlink:href="#DejaVuSans-2e"/>
    </g>
   </g>
   <g id="text_71">
    <!-- . -->
    <g style="fill: #ff2c55" transform="translate(250.073766 296.966918) scale(0.15 -0.15)">
     <use xlink:href="#DejaVuSans-2e"/>
    </g>
   </g>
   <g id="text_72">
    <!-- . -->
    <g style="fill: #ff2c55" transform="translate(252.392727 296.966918) scale(0.15 -0.15)">
     <use xlink:href="#DejaVuSans-2e"/>
    </g>
   </g>
   <g id="text_73">
    <!-- . -->
    <g style="fill: #ff2c55" transform="translate(254.711688 296.966918) scale(0.15 -0.15)">
     <use xlink:href="#DejaVuSans-2e"/>
    </g>
   </g>
   <g id="text_74">
    <!-- . -->
    <g style="fill: #ff2c55" transform="translate(257.030649 296.966918) scale(0.15 -0.15)">
     <use xlink:href="#DejaVuSans-2e"/>
    </g>
   </g>
   <g id="text_75">
    <!-- . -->
    <g style="fill: #ff2c55" transform="translate(259.34961 296.966918) scale(0.15 -0.15)">
     <use xlink:href="#DejaVuSans-2e"/>
    </g>
   </g>
   <g id="text_76">
    <!-- . -->
    <g style="fill: #ff2c55" transform="translate(261.668571 296.966918) scale(0.15 -0.15)">
     <use xlink:href="#DejaVuSans-2e"/>
    </g>
   </g>
   <g id="text_77">
    <!-- . -->
    <g style="fill: #ff2c55" transform="translate(263.987532 296.966918) scale(0.15 -0.15)">
     <use xlink:href="#DejaVuSans-2e"/>
    </g>
   </g>
   <g id="text_78">
    <!-- . -->
    <g style="fill: #ff2c55" transform="translate(266.306494 296.966918) scale(0.15 -0.15)">
     <use xlink:href="#DejaVuSans-2e"/>
    </g>
   </g>
   <g id="text_79">
    <!-- . -->
    <g style="fill: #ff2c55" transform="translate(268.625455 296.966918) scale(0.15 -0.15)">
     <use xlink:href="#DejaVuSans-2e"/>
    </g>
   </g>
   <g id="text_80">
    <!-- . -->
    <g style="fill: #ff2c55" transform="translate(270.944416 296.966918) scale(0.15 -0.15)">
     <use xlink:href="#DejaVuSans-2e"/>
    </g>
   </g>
   <g id="text_81">
    <!-- . -->
    <g style="fill: #ff2c55" transform="translate(273.263377 296.966918) scale(0.15 -0.15)">
     <use xlink:href="#DejaVuSans-2e"/>
    </g>
   </g>
   <g id="text_82">
    <!-- . -->
    <g style="fill: #ff2c55" transform="translate(275.582338 296.966918) scale(0.15 -0.15)">
     <use xlink:href="#DejaVuSans-2e"/>
    </g>
   </g>
   <g id="text_83">
    <!-- . -->
    <g style="fill: #ff2c55" transform="translate(277.901299 296.966918) scale(0.15 -0.15)">
     <use xlink:href="#DejaVuSans-2e"/>
    </g>
   </g>
   <g id="text_84">
    <!-- . -->
    <g style="fill: #ff2c55" transform="translate(280.22026 296.966918) scale(0.15 -0.15)">
     <use xlink:href="#DejaVuSans-2e"/>
    </g>
   </g>
   <g id="text_85">
    <!-- . -->
    <g style="fill: #ff2c55" transform="translate(282.539221 296.966918) scale(0.15 -0.15)">
     <use xlink:href="#DejaVuSans-2e"/>
    </g>
   </g>
   <g id="text_86">
    <!-- . -->
    <g style="fill: #ff2c55" transform="translate(284.858182 296.966918) scale(0.15 -0.15)">
     <use xlink:href="#DejaVuSans-2e"/>
    </g>
   </g>
   <g id="text_87">
    <!-- . -->
    <g style="fill: #ff2c55" transform="translate(287.177143 296.966918) scale(0.15 -0.15)">
     <use xlink:href="#DejaVuSans-2e"/>
    </g>
   </g>
   <g id="text_88">
    <!-- . -->
    <g style="fill: #ff2c55" transform="translate(289.496104 296.966918) scale(0.15 -0.15)">
     <use xlink:href="#DejaVuSans-2e"/>
    </g>
   </g>
   <g id="text_89">
    <!-- . -->
    <g style="fill: #ff2c55" transform="translate(291.815065 296.966918) scale(0.15 -0.15)">
     <use xlink:href="#DejaVuSans-2e"/>
    </g>
   </g>
   <g id="text_90">
    <!-- . -->
    <g style="fill: #ff2c55" transform="translate(294.134026 296.966918) scale(0.15 -0.15)">
     <use xlink:href="#DejaVuSans-2e"/>
    </g>
   </g>
   <g id="text_91">
    <!-- . -->
    <g style="fill: #ff2c55" transform="translate(296.452987 296.966918) scale(0.15 -0.15)">
     <use xlink:href="#DejaVuSans-2e"/>
    </g>
   </g>
   <g id="text_92">
    <!-- . -->
    <g style="fill: #ff2c55" transform="translate(298.771948 296.966918) scale(0.15 -0.15)">
     <use xlink:href="#DejaVuSans-2e"/>
    </g>
   </g>
   <g id="text_93">
    <!-- . -->
    <g style="fill: #ff2c55" transform="translate(301.090909 296.966918) scale(0.15 -0.15)">
     <use xlink:href="#DejaVuSans-2e"/>
    </g>
   </g>
   <g id="text_94">
    <!-- . -->
    <g style="fill: #ff2c55" transform="translate(303.40987 296.966918) scale(0.15 -0.15)">
     <use xlink:href="#DejaVuSans-2e"/>
    </g>
   </g>
   <g id="text_95">
    <!-- . -->
    <g style="fill: #ff2c55" transform="translate(305.728831 296.966918) scale(0.15 -0.15)">
     <use xlink:href="#DejaVuSans-2e"/>
    </g>
   </g>
   <g id="text_96">
    <!-- . -->
    <g style="fill: #ff2c55" transform="translate(308.047792 296.966918) scale(0.15 -0.15)">
     <use xlink:href="#DejaVuSans-2e"/>
    </g>
   </g>
   <g id="text_97">
    <!-- . -->
    <g style="fill: #ff2c55" transform="translate(310.366753 296.966918) scale(0.15 -0.15)">
     <use xlink:href="#DejaVuSans-2e"/>
    </g>
   </g>
   <g id="text_98">
    <!-- . -->
    <g style="fill: #ff2c55" transform="translate(312.685714 296.966918) scale(0.15 -0.15)">
     <use xlink:href="#DejaVuSans-2e"/>
    </g>
   </g>
   <g id="text_99">
    <!-- . -->
    <g style="fill: #ff2c55" transform="translate(315.004675 296.966918) scale(0.15 -0.15)">
     <use xlink:href="#DejaVuSans-2e"/>
    </g>
   </g>
   <g id="text_100">
    <!-- . -->
    <g style="fill: #ff2c55" transform="translate(317.323636 296.966918) scale(0.15 -0.15)">
     <use xlink:href="#DejaVuSans-2e"/>
    </g>
   </g>
   <g id="text_101">
    <!-- . -->
    <g style="fill: #ff2c55" transform="translate(319.642597 296.966918) scale(0.15 -0.15)">
     <use xlink:href="#DejaVuSans-2e"/>
    </g>
   </g>
   <g id="text_102">
    <!-- . -->
    <g style="fill: #ff2c55" transform="translate(321.961558 296.966918) scale(0.15 -0.15)">
     <use xlink:href="#DejaVuSans-2e"/>
    </g>
   </g>
   <g id="text_103">
    <!-- . -->
    <g style="fill: #ff2c55" transform="translate(324.280519 296.966918) scale(0.15 -0.15)">
     <use xlink:href="#DejaVuSans-2e"/>
    </g>
   </g>
   <g id="text_104">
    <!-- . -->
    <g style="fill: #ff2c55" transform="translate(326.599481 296.966918) scale(0.15 -0.15)">
     <use xlink:href="#DejaVuSans-2e"/>
    </g>
   </g>
   <g id="text_105">
    <!-- . -->
    <g style="fill: #ff2c55" transform="translate(328.918442 296.966918) scale(0.15 -0.15)">
     <use xlink:href="#DejaVuSans-2e"/>
    </g>
   </g>
   <g id="text_106">
    <!-- . -->
    <g style="fill: #ff2c55" transform="translate(331.237403 296.966918) scale(0.15 -0.15)">
     <use xlink:href="#DejaVuSans-2e"/>
    </g>
   </g>
   <g id="text_107">
    <!-- . -->
    <g style="fill: #ff2c55" transform="translate(333.556364 296.966918) scale(0.15 -0.15)">
     <use xlink:href="#DejaVuSans-2e"/>
    </g>
   </g>
   <g id="text_108">
    <!-- . -->
    <g style="fill: #ff2c55" transform="translate(335.875325 296.966918) scale(0.15 -0.15)">
     <use xlink:href="#DejaVuSans-2e"/>
    </g>
   </g>
   <g id="text_109">
    <!-- . -->
    <g style="fill: #ff2c55" transform="translate(338.194286 296.966918) scale(0.15 -0.15)">
     <use xlink:href="#DejaVuSans-2e"/>
    </g>
   </g>
   <g id="text_110">
    <!-- . -->
    <g style="fill: #ff2c55" transform="translate(340.513247 296.966918) scale(0.15 -0.15)">
     <use xlink:href="#DejaVuSans-2e"/>
    </g>
   </g>
   <g id="text_111">
    <!-- . -->
    <g style="fill: #ff2c55" transform="translate(342.832208 296.966918) scale(0.15 -0.15)">
     <use xlink:href="#DejaVuSans-2e"/>
    </g>
   </g>
   <g id="text_112">
    <!-- . -->
    <g style="fill: #ff2c55" transform="translate(345.151169 296.966918) scale(0.15 -0.15)">
     <use xlink:href="#DejaVuSans-2e"/>
    </g>
   </g>
   <g id="text_113">
    <!-- . -->
    <g style="fill: #ff2c55" transform="translate(347.47013 296.966918) scale(0.15 -0.15)">
     <use xlink:href="#DejaVuSans-2e"/>
    </g>
   </g>
   <g id="text_114">
    <!-- . -->
    <g style="fill: #ff2c55" transform="translate(349.789091 296.966918) scale(0.15 -0.15)">
     <use xlink:href="#DejaVuSans-2e"/>
    </g>
   </g>
   <g id="text_115">
    <!-- . -->
    <g style="fill: #ff2c55" transform="translate(352.108052 296.966918) scale(0.15 -0.15)">
     <use xlink:href="#DejaVuSans-2e"/>
    </g>
   </g>
   <g id="text_116">
    <!-- . -->
    <g style="fill: #ff2c55" transform="translate(354.427013 296.966918) scale(0.15 -0.15)">
     <use xlink:href="#DejaVuSans-2e"/>
    </g>
   </g>
   <g id="text_117">
    <!-- . -->
    <g style="fill: #ff2c55" transform="translate(356.745974 296.966918) scale(0.15 -0.15)">
     <use xlink:href="#DejaVuSans-2e"/>
    </g>
   </g>
   <g id="text_118">
    <!-- . -->
    <g style="fill: #ff2c55" transform="translate(359.064935 296.966918) scale(0.15 -0.15)">
     <use xlink:href="#DejaVuSans-2e"/>
    </g>
   </g>
   <g id="text_119">
    <!-- . -->
    <g style="fill: #ff2c55" transform="translate(361.383896 296.966918) scale(0.15 -0.15)">
     <use xlink:href="#DejaVuSans-2e"/>
    </g>
   </g>
   <g id="text_120">
    <!-- . -->
    <g style="fill: #ff2c55" transform="translate(363.702857 296.966918) scale(0.15 -0.15)">
     <use xlink:href="#DejaVuSans-2e"/>
    </g>
   </g>
   <g id="text_121">
    <!-- . -->
    <g style="fill: #ff2c55" transform="translate(366.021818 296.966918) scale(0.15 -0.15)">
     <use xlink:href="#DejaVuSans-2e"/>
    </g>
   </g>
   <g id="text_122">
    <!-- . -->
    <g style="fill: #ff2c55" transform="translate(368.340779 296.966918) scale(0.15 -0.15)">
     <use xlink:href="#DejaVuSans-2e"/>
    </g>
   </g>
   <g id="text_123">
    <!-- . -->
    <g style="fill: #ff2c55" transform="translate(370.65974 296.966918) scale(0.15 -0.15)">
     <use xlink:href="#DejaVuSans-2e"/>
    </g>
   </g>
   <g id="text_124">
    <!-- . -->
    <g style="fill: #ff2c55" transform="translate(372.978701 296.966918) scale(0.15 -0.15)">
     <use xlink:href="#DejaVuSans-2e"/>
    </g>
   </g>
   <g id="text_125">
    <!-- . -->
    <g style="fill: #ff2c55" transform="translate(375.297662 296.966918) scale(0.15 -0.15)">
     <use xlink:href="#DejaVuSans-2e"/>
    </g>
   </g>
   <g id="text_126">
    <!-- . -->
    <g style="fill: #ff2c55" transform="translate(377.616623 296.966918) scale(0.15 -0.15)">
     <use xlink:href="#DejaVuSans-2e"/>
    </g>
   </g>
   <g id="text_127">
    <!-- . -->
    <g style="fill: #ff2c55" transform="translate(379.935584 296.966918) scale(0.15 -0.15)">
     <use xlink:href="#DejaVuSans-2e"/>
    </g>
   </g>
   <g id="text_128">
    <!-- . -->
    <g style="fill: #ff2c55" transform="translate(382.254545 296.966918) scale(0.15 -0.15)">
     <use xlink:href="#DejaVuSans-2e"/>
    </g>
   </g>
   <g id="text_129">
    <!-- . -->
    <g style="fill: #ff2c55" transform="translate(384.573506 296.966918) scale(0.15 -0.15)">
     <use xlink:href="#DejaVuSans-2e"/>
    </g>
   </g>
   <g id="text_130">
    <!-- . -->
    <g style="fill: #ff2c55" transform="translate(386.892468 296.966918) scale(0.15 -0.15)">
     <use xlink:href="#DejaVuSans-2e"/>
    </g>
   </g>
   <g id="text_131">
    <!-- . -->
    <g style="fill: #ff2c55" transform="translate(389.211429 296.966918) scale(0.15 -0.15)">
     <use xlink:href="#DejaVuSans-2e"/>
    </g>
   </g>
   <g id="text_132">
    <!-- . -->
    <g style="fill: #ff2c55" transform="translate(391.53039 296.966918) scale(0.15 -0.15)">
     <use xlink:href="#DejaVuSans-2e"/>
    </g>
   </g>
   <g id="text_133">
    <!-- . -->
    <g style="fill: #ff2c55" transform="translate(393.849351 296.966918) scale(0.15 -0.15)">
     <use xlink:href="#DejaVuSans-2e"/>
    </g>
   </g>
   <g id="text_134">
    <!-- . -->
    <g style="fill: #ff2c55" transform="translate(396.168312 296.966918) scale(0.15 -0.15)">
     <use xlink:href="#DejaVuSans-2e"/>
    </g>
   </g>
   <g id="text_135">
    <!-- . -->
    <g style="fill: #ff2c55" transform="translate(398.487273 296.966918) scale(0.15 -0.15)">
     <use xlink:href="#DejaVuSans-2e"/>
    </g>
   </g>
   <g id="text_136">
    <!-- . -->
    <g style="fill: #0974f1" transform="translate(87.746494 301.403672) scale(0.15 -0.15)">
     <use xlink:href="#DejaVuSans-2e"/>
    </g>
   </g>
   <g id="text_137">
    <!-- . -->
    <g style="fill: #0974f1" transform="translate(122.530909 301.403672) scale(0.15 -0.15)">
     <use xlink:href="#DejaVuSans-2e"/>
    </g>
   </g>
   <g id="text_138">
    <!-- . -->
    <g style="fill: #0974f1" transform="translate(124.84987 301.403672) scale(0.15 -0.15)">
     <use xlink:href="#DejaVuSans-2e"/>
    </g>
   </g>
   <g id="text_139">
    <!-- . -->
    <g style="fill: #0974f1" transform="translate(127.168831 301.403672) scale(0.15 -0.15)">
     <use xlink:href="#DejaVuSans-2e"/>
    </g>
   </g>
   <g id="text_140">
    <!-- . -->
    <g style="fill: #0974f1" transform="translate(129.487792 301.403672) scale(0.15 -0.15)">
     <use xlink:href="#DejaVuSans-2e"/>
    </g>
   </g>
   <g id="text_141">
    <!-- . -->
    <g style="fill: #0974f1" transform="translate(131.806753 301.403672) scale(0.15 -0.15)">
     <use xlink:href="#DejaVuSans-2e"/>
    </g>
   </g>
   <g id="text_142">
    <!-- . -->
    <g style="fill: #0974f1" transform="translate(141.082597 301.403672) scale(0.15 -0.15)">
     <use xlink:href="#DejaVuSans-2e"/>
    </g>
   </g>
   <g id="text_143">
    <!-- . -->
    <g style="fill: #0974f1" transform="translate(143.401558 301.403672) scale(0.15 -0.15)">
     <use xlink:href="#DejaVuSans-2e"/>
    </g>
   </g>
   <g id="text_144">
    <!-- . -->
    <g style="fill: #0974f1" transform="translate(145.720519 301.403672) scale(0.15 -0.15)">
     <use xlink:href="#DejaVuSans-2e"/>
    </g>
   </g>
   <g id="text_145">
    <!-- . -->
    <g style="fill: #0974f1" transform="translate(148.039481 301.403672) scale(0.15 -0.15)">
     <use xlink:href="#DejaVuSans-2e"/>
    </g>
   </g>
   <g id="text_146">
    <!-- . -->
    <g style="fill: #0974f1" transform="translate(150.358442 301.403672) scale(0.15 -0.15)">
     <use xlink:href="#DejaVuSans-2e"/>
    </g>
   </g>
   <g id="text_147">
    <!-- . -->
    <g style="fill: #0974f1" transform="translate(152.677403 301.403672) scale(0.15 -0.15)">
     <use xlink:href="#DejaVuSans-2e"/>
    </g>
   </g>
   <g id="text_148">
    <!-- . -->
    <g style="fill: #0974f1" transform="translate(154.996364 301.403672) scale(0.15 -0.15)">
     <use xlink:href="#DejaVuSans-2e"/>
    </g>
   </g>
   <g id="text_149">
    <!-- . -->
    <g style="fill: #0974f1" transform="translate(157.315325 301.403672) scale(0.15 -0.15)">
     <use xlink:href="#DejaVuSans-2e"/>
    </g>
   </g>
   <g id="text_150">
    <!-- . -->
    <g style="fill: #0974f1" transform="translate(159.634286 301.403672) scale(0.15 -0.15)">
     <use xlink:href="#DejaVuSans-2e"/>
    </g>
   </g>
   <g id="text_151">
    <!-- . -->
    <g style="fill: #0974f1" transform="translate(161.953247 301.403672) scale(0.15 -0.15)">
     <use xlink:href="#DejaVuSans-2e"/>
    </g>
   </g>
   <g id="text_152">
    <!-- . -->
    <g style="fill: #0974f1" transform="translate(164.272208 301.403672) scale(0.15 -0.15)">
     <use xlink:href="#DejaVuSans-2e"/>
    </g>
   </g>
   <g id="text_153">
    <!-- . -->
    <g style="fill: #0974f1" transform="translate(166.591169 301.403672) scale(0.15 -0.15)">
     <use xlink:href="#DejaVuSans-2e"/>
    </g>
   </g>
   <g id="text_154">
    <!-- . -->
    <g style="fill: #0974f1" transform="translate(168.91013 301.403672) scale(0.15 -0.15)">
     <use xlink:href="#DejaVuSans-2e"/>
    </g>
   </g>
   <g id="text_155">
    <!-- . -->
    <g style="fill: #0974f1" transform="translate(171.229091 301.403672) scale(0.15 -0.15)">
     <use xlink:href="#DejaVuSans-2e"/>
    </g>
   </g>
   <g id="text_156">
    <!-- . -->
    <g style="fill: #0974f1" transform="translate(261.668571 301.403672) scale(0.15 -0.15)">
     <use xlink:href="#DejaVuSans-2e"/>
    </g>
   </g>
   <g id="text_157">
    <!-- . -->
    <g style="fill: #0974f1" transform="translate(263.987532 301.403672) scale(0.15 -0.15)">
     <use xlink:href="#DejaVuSans-2e"/>
    </g>
   </g>
   <g id="text_158">
    <!-- . -->
    <g style="fill: #0974f1" transform="translate(266.306494 301.403672) scale(0.15 -0.15)">
     <use xlink:href="#DejaVuSans-2e"/>
    </g>
   </g>
   <g id="text_159">
    <!-- . -->
    <g style="fill: #0974f1" transform="translate(268.625455 301.403672) scale(0.15 -0.15)">
     <use xlink:href="#DejaVuSans-2e"/>
    </g>
   </g>
   <g id="text_160">
    <!-- . -->
    <g style="fill: #0974f1" transform="translate(270.944416 301.403672) scale(0.15 -0.15)">
     <use xlink:href="#DejaVuSans-2e"/>
    </g>
   </g>
   <g id="text_161">
    <!-- . -->
    <g style="fill: #0974f1" transform="translate(273.263377 301.403672) scale(0.15 -0.15)">
     <use xlink:href="#DejaVuSans-2e"/>
    </g>
   </g>
   <g id="legend_1">
    <g id="patch_5">
     <path d="M 280.196563 78.82825 
L 407.72 78.82825 
Q 409.72 78.82825 409.72 76.82825 
L 409.72 48.472 
Q 409.72 46.472 407.72 46.472 
L 280.196563 46.472 
Q 278.196563 46.472 278.196563 48.472 
L 278.196563 76.82825 
Q 278.196563 78.82825 280.196563 78.82825 
z
" style="fill: #ffffff; opacity: 0.8; stroke: #cccccc; stroke-linejoin: miter"/>
    </g>
    <g id="line2d_22">
     <path d="M 282.196563 54.570437 
L 292.196563 54.570437 
L 302.196563 54.570437 
" style="fill: none; stroke: #ff2c55; stroke-linecap: square"/>
    </g>
    <g id="text_162">
     <!-- Affordance (online) -->
     <g transform="translate(310.196563 58.070437) scale(0.1 -0.1)">
      <defs>
       <path id="DejaVuSans-41" d="M 2188 4044 
L 1331 1722 
L 3047 1722 
L 2188 4044 
z
M 1831 4666 
L 2547 4666 
L 4325 0 
L 3669 0 
L 3244 1197 
L 1141 1197 
L 716 0 
L 50 0 
L 1831 4666 
z
" transform="scale(0.015625)"/>
       <path id="DejaVuSans-66" d="M 2375 4863 
L 2375 4384 
L 1825 4384 
Q 1516 4384 1395 4259 
Q 1275 4134 1275 3809 
L 1275 3500 
L 2222 3500 
L 2222 3053 
L 1275 3053 
L 1275 0 
L 697 0 
L 697 3053 
L 147 3053 
L 147 3500 
L 697 3500 
L 697 3744 
Q 697 4328 969 4595 
Q 1241 4863 1831 4863 
L 2375 4863 
z
" transform="scale(0.015625)"/>
       <path id="DejaVuSans-6f" d="M 1959 3097 
Q 1497 3097 1228 2736 
Q 959 2375 959 1747 
Q 959 1119 1226 758 
Q 1494 397 1959 397 
Q 2419 397 2687 759 
Q 2956 1122 2956 1747 
Q 2956 2369 2687 2733 
Q 2419 3097 1959 3097 
z
M 1959 3584 
Q 2709 3584 3137 3096 
Q 3566 2609 3566 1747 
Q 3566 888 3137 398 
Q 2709 -91 1959 -91 
Q 1206 -91 779 398 
Q 353 888 353 1747 
Q 353 2609 779 3096 
Q 1206 3584 1959 3584 
z
" transform="scale(0.015625)"/>
       <path id="DejaVuSans-64" d="M 2906 2969 
L 2906 4863 
L 3481 4863 
L 3481 0 
L 2906 0 
L 2906 525 
Q 2725 213 2448 61 
Q 2172 -91 1784 -91 
Q 1150 -91 751 415 
Q 353 922 353 1747 
Q 353 2572 751 3078 
Q 1150 3584 1784 3584 
Q 2172 3584 2448 3432 
Q 2725 3281 2906 2969 
z
M 947 1747 
Q 947 1113 1208 752 
Q 1469 391 1925 391 
Q 2381 391 2643 752 
Q 2906 1113 2906 1747 
Q 2906 2381 2643 2742 
Q 2381 3103 1925 3103 
Q 1469 3103 1208 2742 
Q 947 2381 947 1747 
z
" transform="scale(0.015625)"/>
       <path id="DejaVuSans-6c" d="M 603 4863 
L 1178 4863 
L 1178 0 
L 603 0 
L 603 4863 
z
" transform="scale(0.015625)"/>
      </defs>
      <use xlink:href="#DejaVuSans-41"/>
      <use xlink:href="#DejaVuSans-66" x="64.783203"/>
      <use xlink:href="#DejaVuSans-66" x="99.988281"/>
      <use xlink:href="#DejaVuSans-6f" x="135.193359"/>
      <use xlink:href="#DejaVuSans-72" x="196.375"/>
      <use xlink:href="#DejaVuSans-64" x="235.738281"/>
      <use xlink:href="#DejaVuSans-61" x="299.214844"/>
      <use xlink:href="#DejaVuSans-6e" x="360.494141"/>
      <use xlink:href="#DejaVuSans-63" x="423.873047"/>
      <use xlink:href="#DejaVuSans-65" x="478.853516"/>
      <use xlink:href="#DejaVuSans-20" x="540.376953"/>
      <use xlink:href="#DejaVuSans-28" x="572.164062"/>
      <use xlink:href="#DejaVuSans-6f" x="611.177734"/>
      <use xlink:href="#DejaVuSans-6e" x="672.359375"/>
      <use xlink:href="#DejaVuSans-6c" x="735.738281"/>
      <use xlink:href="#DejaVuSans-69" x="763.521484"/>
      <use xlink:href="#DejaVuSans-6e" x="791.304688"/>
      <use xlink:href="#DejaVuSans-65" x="854.683594"/>
      <use xlink:href="#DejaVuSans-29" x="916.207031"/>
     </g>
    </g>
    <g id="line2d_23">
     <path d="M 282.196563 69.248562 
L 292.196563 69.248562 
L 302.196563 69.248562 
" style="fill: none; stroke: #0974f1; stroke-linecap: square"/>
    </g>
    <g id="text_163">
     <!-- Objects (online) -->
     <g transform="translate(310.196563 72.748562) scale(0.1 -0.1)">
      <defs>
       <path id="DejaVuSans-4f" d="M 2522 4238 
Q 1834 4238 1429 3725 
Q 1025 3213 1025 2328 
Q 1025 1447 1429 934 
Q 1834 422 2522 422 
Q 3209 422 3611 934 
Q 4013 1447 4013 2328 
Q 4013 3213 3611 3725 
Q 3209 4238 2522 4238 
z
M 2522 4750 
Q 3503 4750 4090 4092 
Q 4678 3434 4678 2328 
Q 4678 1225 4090 567 
Q 3503 -91 2522 -91 
Q 1538 -91 948 565 
Q 359 1222 359 2328 
Q 359 3434 948 4092 
Q 1538 4750 2522 4750 
z
" transform="scale(0.015625)"/>
       <path id="DejaVuSans-62" d="M 3116 1747 
Q 3116 2381 2855 2742 
Q 2594 3103 2138 3103 
Q 1681 3103 1420 2742 
Q 1159 2381 1159 1747 
Q 1159 1113 1420 752 
Q 1681 391 2138 391 
Q 2594 391 2855 752 
Q 3116 1113 3116 1747 
z
M 1159 2969 
Q 1341 3281 1617 3432 
Q 1894 3584 2278 3584 
Q 2916 3584 3314 3078 
Q 3713 2572 3713 1747 
Q 3713 922 3314 415 
Q 2916 -91 2278 -91 
Q 1894 -91 1617 61 
Q 1341 213 1159 525 
L 1159 0 
L 581 0 
L 581 4863 
L 1159 4863 
L 1159 2969 
z
" transform="scale(0.015625)"/>
       <path id="DejaVuSans-6a" d="M 603 3500 
L 1178 3500 
L 1178 -63 
Q 1178 -731 923 -1031 
Q 669 -1331 103 -1331 
L -116 -1331 
L -116 -844 
L 38 -844 
Q 366 -844 484 -692 
Q 603 -541 603 -63 
L 603 3500 
z
M 603 4863 
L 1178 4863 
L 1178 4134 
L 603 4134 
L 603 4863 
z
" transform="scale(0.015625)"/>
       <path id="DejaVuSans-74" d="M 1172 4494 
L 1172 3500 
L 2356 3500 
L 2356 3053 
L 1172 3053 
L 1172 1153 
Q 1172 725 1289 603 
Q 1406 481 1766 481 
L 2356 481 
L 2356 0 
L 1766 0 
Q 1100 0 847 248 
Q 594 497 594 1153 
L 594 3053 
L 172 3053 
L 172 3500 
L 594 3500 
L 594 4494 
L 1172 4494 
z
" transform="scale(0.015625)"/>
      </defs>
      <use xlink:href="#DejaVuSans-4f"/>
      <use xlink:href="#DejaVuSans-62" x="78.710938"/>
      <use xlink:href="#DejaVuSans-6a" x="142.1875"/>
      <use xlink:href="#DejaVuSans-65" x="169.970703"/>
      <use xlink:href="#DejaVuSans-63" x="231.494141"/>
      <use xlink:href="#DejaVuSans-74" x="286.474609"/>
      <use xlink:href="#DejaVuSans-73" x="325.683594"/>
      <use xlink:href="#DejaVuSans-20" x="377.783203"/>
      <use xlink:href="#DejaVuSans-28" x="409.570312"/>
      <use xlink:href="#DejaVuSans-6f" x="448.583984"/>
      <use xlink:href="#DejaVuSans-6e" x="509.765625"/>
      <use xlink:href="#DejaVuSans-6c" x="573.144531"/>
      <use xlink:href="#DejaVuSans-69" x="600.927734"/>
      <use xlink:href="#DejaVuSans-6e" x="628.710938"/>
      <use xlink:href="#DejaVuSans-65" x="692.089844"/>
      <use xlink:href="#DejaVuSans-29" x="753.613281"/>
     </g>
    </g>
   </g>
  </g>
 </g>
 <defs>
  <clipPath id="p45da1c2b90">
   <rect x="57.6" y="41.472" width="357.12" height="266.112"/>
  </clipPath>
 </defs>
</svg>
