<?xml version="1.0" encoding="utf-8" standalone="no"?>
<!DOCTYPE svg PUBLIC "-//W3C//DTD SVG 1.1//EN"
  "http://www.w3.org/Graphics/SVG/1.1/DTD/svg11.dtd">
<svg xmlns:xlink="http://www.w3.org/1999/xlink" width="460.8pt" height="345.6pt" viewBox="0 0 460.8 345.6" xmlns="http://www.w3.org/2000/svg" version="1.1">
 <metadata>
  <rdf:RDF xmlns:dc="http://purl.org/dc/elements/1.1/" xmlns:cc="http://creativecommons.org/ns#" xmlns:rdf="http://www.w3.org/1999/02/22-rdf-syntax-ns#">
   <cc:Work>
    <dc:type rdf:resource="http://purl.org/dc/dcmitype/StillImage"/>
    <dc:date>2025-12-03T13:37:21.876477</dc:date>
    <dc:format>image/svg+xml</dc:format>
    <dc:creator>
     <cc:Agent>
      <dc:title>Matplotlib v3.6.2, https://matplotlib.org/</dc:title>
     </cc:Agent>
    </dc:creator>
   </cc:Work>
  </rdf:RDF>
 </metadata>
 <defs>
  <style type="text/css">*{stroke-linejoin: round; stroke-linecap: butt}</style>
 </defs>
 <g id="figure_1">
  <g id="patch_1">
   <path d="M 0 345.6 
L 460.8 345.6 
L 460.8 0 
L 0 0 
L 0 345.6 
z
" style="fill: none"/>
  </g>
  <g id="axes_1">
   <g id="patch_2">
    <path d="M 57.6 307.584 
L 414.72 307.584 
L 414.72 41.472 
L 57.6 41.472 
L 57.6 307.584 
z
" style="fill: none"/>
   </g>
   <g id="PolyCollection_1">
    <defs>
     <path id="mbc97002c35" d="M 73.832727 -83.531653 
L 73.832727 -62.280906 
L 76.151688 -64.270492 
L 78.470649 -65.522101 
L 80.78961 -69.964327 
L 83.108571 -73.482797 
L 85.427532 -60.210899 
L 87.746494 -58.274157 
L 90.065455 -64.851792 
L 92.384416 -68.225586 
L 94.703377 -67.36169 
L 97.022338 -65.047139 
L 99.341299 -63.893287 
L 101.66026 -71.557286 
L 103.979221 -82.249353 
L 106.298182 -83.8711 
L 108.617143 -79.110683 
L 110.936104 -77.197404 
L 113.255065 -76.425965 
L 115.574026 -65.899752 
L 117.892987 -50.934654 
L 120.211948 -51.112133 
L 122.530909 -83.478422 
L 124.84987 -134.145936 
L 127.168831 -162.9072 
L 129.487792 -180.127756 
L 131.806753 -186.910655 
L 134.125714 -189.825265 
L 136.444675 -196.472969 
L 138.763636 -199.964316 
L 141.082597 -188.21104 
L 143.401558 -177.663894 
L 145.720519 -184.551332 
L 148.039481 -202.773929 
L 150.358442 -214.096005 
L 152.677403 -207.357792 
L 154.996364 -196.753096 
L 157.315325 -197.373066 
L 159.634286 -206.564094 
L 161.953247 -221.594819 
L 164.272208 -233.5529 
L 166.591169 -237.540518 
L 168.91013 -238.434033 
L 171.229091 -239.459954 
L 173.548052 -240.319486 
L 175.867013 -239.370958 
L 178.185974 -234.404115 
L 180.504935 -225.953144 
L 182.823896 -217.291605 
L 185.142857 -211.591819 
L 187.461818 -209.272857 
L 189.780779 -206.91658 
L 192.09974 -203.890912 
L 194.418701 -199.894428 
L 196.737662 -196.90398 
L 199.056623 -192.171966 
L 201.375584 -186.18886 
L 203.694545 -181.906798 
L 206.013506 -176.623695 
L 208.332468 -169.49143 
L 210.651429 -165.136281 
L 212.97039 -165.785388 
L 215.289351 -169.208512 
L 217.608312 -170.867245 
L 219.927273 -169.421595 
L 222.246234 -169.437219 
L 224.565195 -171.538476 
L 226.884156 -173.55632 
L 229.203117 -175.382102 
L 231.522078 -176.45058 
L 233.841039 -174.965432 
L 236.16 -169.893271 
L 238.478961 -164.199511 
L 240.797922 -159.594858 
L 243.116883 -154.311081 
L 245.435844 -146.601448 
L 247.754805 -137.339866 
L 250.073766 -128.923191 
L 252.392727 -123.344238 
L 254.711688 -120.612223 
L 257.030649 -120.511955 
L 259.34961 -123.840617 
L 261.668571 -128.562983 
L 263.987532 -134.137542 
L 266.306494 -136.410645 
L 268.625455 -135.686901 
L 270.944416 -135.97941 
L 273.263377 -138.862914 
L 275.582338 -142.915155 
L 277.901299 -145.959651 
L 280.22026 -144.368334 
L 282.539221 -138.900173 
L 284.858182 -132.746553 
L 287.177143 -128.486022 
L 289.496104 -125.835902 
L 291.815065 -123.928266 
L 294.134026 -119.963579 
L 296.452987 -114.252159 
L 298.771948 -110.380302 
L 301.090909 -107.249858 
L 303.40987 -102.919282 
L 305.728831 -99.316486 
L 308.047792 -98.050336 
L 310.366753 -97.854449 
L 312.685714 -97.809038 
L 315.004675 -98.657026 
L 317.323636 -100.915847 
L 319.642597 -103.238625 
L 321.961558 -106.528253 
L 324.280519 -111.000647 
L 326.599481 -114.974237 
L 328.918442 -115.046591 
L 331.237403 -114.55161 
L 333.556364 -115.816313 
L 335.875325 -118.891869 
L 338.194286 -122.597397 
L 340.513247 -126.867469 
L 342.832208 -132.115913 
L 345.151169 -135.075772 
L 347.47013 -133.030273 
L 349.789091 -126.300139 
L 352.108052 -118.608726 
L 354.427013 -112.308602 
L 356.745974 -107.734126 
L 359.064935 -107.170417 
L 361.383896 -110.083519 
L 363.702857 -116.853002 
L 366.021818 -123.948466 
L 368.340779 -128.628149 
L 370.65974 -129.555925 
L 372.978701 -127.962819 
L 375.297662 -123.471871 
L 377.616623 -116.851939 
L 379.935584 -109.70966 
L 382.254545 -105.374213 
L 384.573506 -104.492699 
L 386.892468 -107.058176 
L 389.211429 -110.064556 
L 391.53039 -113.138037 
L 393.849351 -116.282737 
L 396.168312 -119.564747 
L 398.487273 -120.728988 
L 398.487273 -176.659386 
L 398.487273 -176.659386 
L 396.168312 -176.002362 
L 393.849351 -174.240937 
L 391.53039 -172.768108 
L 389.211429 -171.623665 
L 386.892468 -169.359894 
L 384.573506 -166.839399 
L 382.254545 -167.434798 
L 379.935584 -171.358305 
L 377.616623 -177.767164 
L 375.297662 -183.479252 
L 372.978701 -187.417555 
L 370.65974 -189.436944 
L 368.340779 -189.438066 
L 366.021818 -186.070051 
L 363.702857 -180.834231 
L 361.383896 -175.567808 
L 359.064935 -173.280995 
L 356.745974 -173.750244 
L 354.427013 -177.551366 
L 352.108052 -183.30815 
L 349.789091 -191.403164 
L 347.47013 -199.971188 
L 345.151169 -204.732402 
L 342.832208 -204.72747 
L 340.513247 -201.735738 
L 338.194286 -198.540236 
L 335.875325 -194.592795 
L 333.556364 -191.05161 
L 331.237403 -189.513798 
L 328.918442 -189.1077 
L 326.599481 -188.033458 
L 324.280519 -184.236577 
L 321.961558 -180.78085 
L 319.642597 -178.695787 
L 317.323636 -178.817709 
L 315.004675 -180.43105 
L 312.685714 -182.548887 
L 310.366753 -183.797082 
L 308.047792 -183.813631 
L 305.728831 -183.974184 
L 303.40987 -185.997279 
L 301.090909 -188.101875 
L 298.771948 -188.70127 
L 296.452987 -190.374725 
L 294.134026 -194.006698 
L 291.815065 -196.197175 
L 289.496104 -197.297053 
L 287.177143 -201.4001 
L 284.858182 -208.810097 
L 282.539221 -218.31192 
L 280.22026 -226.759588 
L 277.901299 -231.746317 
L 275.582338 -232.357127 
L 273.263377 -230.704911 
L 270.944416 -227.287413 
L 268.625455 -223.920647 
L 266.306494 -220.315113 
L 263.987532 -214.469466 
L 261.668571 -206.92883 
L 259.34961 -201.86152 
L 257.030649 -199.700836 
L 254.711688 -201.592651 
L 252.392727 -205.458696 
L 250.073766 -210.843896 
L 247.754805 -217.910518 
L 245.435844 -224.820882 
L 243.116883 -230.731909 
L 240.797922 -236.534039 
L 238.478961 -242.029613 
L 236.16 -248.432252 
L 233.841039 -252.631626 
L 231.522078 -252.233656 
L 229.203117 -248.392265 
L 226.884156 -245.180365 
L 224.565195 -243.006769 
L 222.246234 -239.968311 
L 219.927273 -237.876472 
L 217.608312 -236.230751 
L 215.289351 -232.201118 
L 212.97039 -228.59396 
L 210.651429 -228.016569 
L 208.332468 -231.042124 
L 206.013506 -236.055486 
L 203.694545 -239.416332 
L 201.375584 -241.805202 
L 199.056623 -246.994338 
L 196.737662 -252.408717 
L 194.418701 -256.68011 
L 192.09974 -262.967034 
L 189.780779 -269.050744 
L 187.461818 -272.9777 
L 185.142857 -276.149019 
L 182.823896 -280.047486 
L 180.504935 -284.005408 
L 178.185974 -286.899135 
L 175.867013 -290.040899 
L 173.548052 -292.032 
L 171.229091 -291.75824 
L 168.91013 -287.168238 
L 166.591169 -279.556192 
L 164.272208 -271.547695 
L 161.953247 -261.680468 
L 159.634286 -252.206748 
L 157.315325 -246.685815 
L 154.996364 -246.537733 
L 152.677403 -254.484169 
L 150.358442 -264.991984 
L 148.039481 -262.113308 
L 145.720519 -250.999368 
L 143.401558 -248.050101 
L 141.082597 -254.823777 
L 138.763636 -255.461271 
L 136.444675 -247.047189 
L 134.125714 -241.379982 
L 131.806753 -240.824344 
L 129.487792 -241.157341 
L 127.168831 -227.815886 
L 124.84987 -190.905312 
L 122.530909 -121.624655 
L 120.211948 -81.090583 
L 117.892987 -73.41109 
L 115.574026 -89.704719 
L 113.255065 -99.471139 
L 110.936104 -101.104374 
L 108.617143 -102.309673 
L 106.298182 -105.010756 
L 103.979221 -107.213021 
L 101.66026 -97.384216 
L 99.341299 -86.958801 
L 97.022338 -91.467014 
L 94.703377 -93.2574 
L 92.384416 -93.6355 
L 90.065455 -90.996764 
L 87.746494 -79.882986 
L 85.427532 -76.538653 
L 83.108571 -97.223616 
L 80.78961 -99.093542 
L 78.470649 -87.689174 
L 76.151688 -85.033441 
L 73.832727 -83.531653 
z
" style="stroke: #ff2c55; stroke-opacity: 0.1"/>
    </defs>
    <g clip-path="url(#p0bbc627407)">
     <use xlink:href="#mbc97002c35" x="0" y="345.6" style="fill: #ff2c55; fill-opacity: 0.1; stroke: #ff2c55; stroke-opacity: 0.1"/>
    </g>
   </g>
   <g id="PolyCollection_2">
    <defs>
     <path id="m7205f2937a" d="M 73.832727 -83.2551 
L 73.832727 -65.428382 
L 76.151688 -65.101031 
L 78.470649 -70.897271 
L 80.78961 -75.524494 
L 83.108571 -70.127167 
L 85.427532 -57.459073 
L 87.746494 -50.133368 
L 90.065455 -50.112 
L 92.384416 -61.023741 
L 94.703377 -64.348374 
L 97.022338 -66.973508 
L 99.341299 -71.423834 
L 101.66026 -77.257162 
L 103.979221 -83.524808 
L 106.298182 -90.75643 
L 108.617143 -89.886408 
L 110.936104 -87.058085 
L 113.255065 -88.855225 
L 115.574026 -88.89023 
L 117.892987 -81.879707 
L 120.211948 -75.416568 
L 122.530909 -88.541737 
L 124.84987 -115.693835 
L 127.168831 -139.058901 
L 129.487792 -153.656698 
L 131.806753 -165.962816 
L 134.125714 -169.64187 
L 136.444675 -164.679581 
L 138.763636 -159.976404 
L 141.082597 -154.619703 
L 143.401558 -146.751494 
L 145.720519 -136.475099 
L 148.039481 -130.568715 
L 150.358442 -125.389143 
L 152.677403 -123.065831 
L 154.996364 -126.428738 
L 157.315325 -131.926854 
L 159.634286 -134.91079 
L 161.953247 -136.507131 
L 164.272208 -138.679939 
L 166.591169 -142.38745 
L 168.91013 -143.816708 
L 171.229091 -143.005738 
L 173.548052 -141.078809 
L 175.867013 -141.518932 
L 178.185974 -144.608401 
L 180.504935 -148.405743 
L 182.823896 -149.903702 
L 185.142857 -150.377548 
L 187.461818 -152.652873 
L 189.780779 -154.285267 
L 192.09974 -152.294531 
L 194.418701 -147.727557 
L 196.737662 -141.550235 
L 199.056623 -134.00919 
L 201.375584 -126.339374 
L 203.694545 -120.871749 
L 206.013506 -117.061949 
L 208.332468 -113.347826 
L 210.651429 -111.937 
L 212.97039 -113.194722 
L 215.289351 -114.644068 
L 217.608312 -113.826353 
L 219.927273 -111.761566 
L 222.246234 -109.606547 
L 224.565195 -107.761848 
L 226.884156 -105.278823 
L 229.203117 -103.295985 
L 231.522078 -101.656135 
L 233.841039 -99.274558 
L 236.16 -95.504335 
L 238.478961 -90.876017 
L 240.797922 -86.372243 
L 243.116883 -82.388821 
L 245.435844 -80.178079 
L 247.754805 -81.275958 
L 250.073766 -84.811872 
L 252.392727 -89.468702 
L 254.711688 -93.401315 
L 257.030649 -95.987362 
L 259.34961 -98.22683 
L 261.668571 -100.38576 
L 263.987532 -103.640815 
L 266.306494 -106.400605 
L 268.625455 -107.554921 
L 270.944416 -108.78379 
L 273.263377 -109.952623 
L 275.582338 -110.387845 
L 277.901299 -111.351609 
L 280.22026 -112.893012 
L 282.539221 -112.10936 
L 284.858182 -108.950648 
L 287.177143 -105.11091 
L 289.496104 -102.329065 
L 291.815065 -99.987707 
L 294.134026 -96.69772 
L 296.452987 -93.623447 
L 298.771948 -91.975861 
L 301.090909 -91.172666 
L 303.40987 -90.552468 
L 305.728831 -91.436768 
L 308.047792 -91.921984 
L 310.366753 -90.744651 
L 312.685714 -88.929888 
L 315.004675 -87.957498 
L 317.323636 -87.319971 
L 319.642597 -88.117466 
L 321.961558 -89.965455 
L 324.280519 -91.716078 
L 326.599481 -91.563241 
L 328.918442 -90.339043 
L 331.237403 -89.768577 
L 333.556364 -90.680038 
L 335.875325 -92.832521 
L 338.194286 -95.025737 
L 340.513247 -97.450809 
L 342.832208 -100.614961 
L 345.151169 -101.941623 
L 347.47013 -99.989354 
L 349.789091 -95.250571 
L 352.108052 -90.190615 
L 354.427013 -86.818253 
L 356.745974 -84.809414 
L 359.064935 -84.085254 
L 361.383896 -84.594716 
L 363.702857 -86.153152 
L 366.021818 -87.557895 
L 368.340779 -88.090075 
L 370.65974 -88.086876 
L 372.978701 -87.241505 
L 375.297662 -84.492848 
L 377.616623 -81.188676 
L 379.935584 -79.158558 
L 382.254545 -79.545312 
L 384.573506 -81.770058 
L 386.892468 -84.229167 
L 389.211429 -84.919321 
L 391.53039 -83.075787 
L 393.849351 -79.28489 
L 396.168312 -76.101735 
L 398.487273 -73.972698 
L 398.487273 -95.156173 
L 398.487273 -95.156173 
L 396.168312 -97.219416 
L 393.849351 -100.325313 
L 391.53039 -104.073077 
L 389.211429 -106.467846 
L 386.892468 -106.725638 
L 384.573506 -105.57202 
L 382.254545 -104.532906 
L 379.935584 -105.009403 
L 377.616623 -107.055464 
L 375.297662 -109.489553 
L 372.978701 -111.437564 
L 370.65974 -112.104431 
L 368.340779 -111.682222 
L 366.021818 -110.284061 
L 363.702857 -108.036597 
L 361.383896 -105.995701 
L 359.064935 -105.478373 
L 356.745974 -106.463065 
L 354.427013 -108.684308 
L 352.108052 -111.653758 
L 349.789091 -115.838041 
L 347.47013 -119.097519 
L 345.151169 -120.325069 
L 342.832208 -119.383281 
L 340.513247 -116.810001 
L 338.194286 -114.633223 
L 335.875325 -113.209687 
L 333.556364 -112.07918 
L 331.237403 -112.103834 
L 328.918442 -112.853128 
L 326.599481 -113.848469 
L 324.280519 -114.358167 
L 321.961558 -113.719842 
L 319.642597 -113.039145 
L 317.323636 -112.919076 
L 315.004675 -114.341897 
L 312.685714 -116.067543 
L 310.366753 -117.721088 
L 308.047792 -118.650925 
L 305.728831 -118.551285 
L 303.40987 -118.853785 
L 301.090909 -121.295807 
L 298.771948 -124.637671 
L 296.452987 -127.879024 
L 294.134026 -131.337549 
L 291.815065 -133.725354 
L 289.496104 -134.369439 
L 287.177143 -135.283062 
L 284.858182 -137.749399 
L 282.539221 -140.496388 
L 280.22026 -142.812714 
L 277.901299 -144.064943 
L 275.582338 -146.117935 
L 273.263377 -148.736766 
L 270.944416 -149.880777 
L 268.625455 -149.321989 
L 266.306494 -147.714369 
L 263.987532 -143.375606 
L 261.668571 -138.118221 
L 259.34961 -134.290496 
L 257.030649 -130.505358 
L 254.711688 -126.238923 
L 252.392727 -121.167838 
L 250.073766 -115.924168 
L 247.754805 -112.107826 
L 245.435844 -111.304956 
L 243.116883 -114.217843 
L 240.797922 -119.078936 
L 238.478961 -124.294193 
L 236.16 -129.501111 
L 233.841039 -133.73384 
L 231.522078 -136.621321 
L 229.203117 -138.574137 
L 226.884156 -140.426844 
L 224.565195 -142.49441 
L 222.246234 -143.178201 
L 219.927273 -142.641028 
L 217.608312 -142.45563 
L 215.289351 -142.678523 
L 212.97039 -141.761817 
L 210.651429 -141.808314 
L 208.332468 -144.536907 
L 206.013506 -148.896997 
L 203.694545 -152.835516 
L 201.375584 -157.992343 
L 199.056623 -165.377956 
L 196.737662 -173.058141 
L 194.418701 -179.367056 
L 192.09974 -183.376395 
L 189.780779 -184.579426 
L 187.461818 -182.626085 
L 185.142857 -180.579031 
L 182.823896 -180.568042 
L 180.504935 -179.898959 
L 178.185974 -176.698175 
L 175.867013 -174.544145 
L 173.548052 -175.067431 
L 171.229091 -179.033492 
L 168.91013 -183.079814 
L 166.591169 -183.93424 
L 164.272208 -181.446327 
L 161.953247 -180.779785 
L 159.634286 -181.207003 
L 157.315325 -178.673274 
L 154.996364 -169.569302 
L 152.677403 -161.830633 
L 150.358442 -162.553472 
L 148.039481 -169.754626 
L 145.720519 -175.959687 
L 143.401558 -184.856638 
L 141.082597 -191.280706 
L 138.763636 -194.714185 
L 136.444675 -200.464716 
L 134.125714 -209.458877 
L 131.806753 -207.479015 
L 129.487792 -195.218846 
L 127.168831 -177.522281 
L 124.84987 -146.181596 
L 122.530909 -112.004715 
L 120.211948 -101.88749 
L 117.892987 -110.093917 
L 115.574026 -116.689862 
L 113.255065 -116.285959 
L 110.936104 -112.316346 
L 108.617143 -109.842816 
L 106.298182 -111.329804 
L 103.979221 -103.20921 
L 101.66026 -95.946133 
L 99.341299 -92.483248 
L 97.022338 -86.704332 
L 94.703377 -78.706186 
L 92.384416 -77.607874 
L 90.065455 -68.923338 
L 87.746494 -60.685546 
L 85.427532 -76.014413 
L 83.108571 -90.312904 
L 80.78961 -93.966633 
L 78.470649 -91.929692 
L 76.151688 -85.712066 
L 73.832727 -83.2551 
z
" style="stroke: #0974f1; stroke-opacity: 0.1"/>
    </defs>
    <g clip-path="url(#p0bbc627407)">
     <use xlink:href="#m7205f2937a" x="0" y="345.6" style="fill: #0974f1; fill-opacity: 0.1; stroke: #0974f1; stroke-opacity: 0.1"/>
    </g>
   </g>
   <g id="matplotlib.axis_1">
    <g id="xtick_1">
     <g id="line2d_1">
      <defs>
       <path id="m762563b793" d="M 0 0 
L 0 3.5 
" style="stroke: #000000; stroke-width: 0.8"/>
      </defs>
      <g>
       <use xlink:href="#m762563b793" x="103.346777" y="307.584" style="stroke: #000000; stroke-width: 0.8"/>
      </g>
     </g>
     <g id="text_1">
      <!-- 0.0 -->
      <g transform="translate(95.395214 322.182437) scale(0.1 -0.1)">
       <defs>
        <path id="DejaVuSans-30" d="M 2034 4250 
Q 1547 4250 1301 3770 
Q 1056 3291 1056 2328 
Q 1056 1369 1301 889 
Q 1547 409 2034 409 
Q 2525 409 2770 889 
Q 3016 1369 3016 2328 
Q 3016 3291 2770 3770 
Q 2525 4250 2034 4250 
z
M 2034 4750 
Q 2819 4750 3233 4129 
Q 3647 3509 3647 2328 
Q 3647 1150 3233 529 
Q 2819 -91 2034 -91 
Q 1250 -91 836 529 
Q 422 1150 422 2328 
Q 422 3509 836 4129 
Q 1250 4750 2034 4750 
z
" transform="scale(0.015625)"/>
        <path id="DejaVuSans-2e" d="M 684 794 
L 1344 794 
L 1344 0 
L 684 0 
L 684 794 
z
" transform="scale(0.015625)"/>
       </defs>
       <use xlink:href="#DejaVuSans-30"/>
       <use xlink:href="#DejaVuSans-2e" x="63.623047"/>
       <use xlink:href="#DejaVuSans-30" x="95.410156"/>
      </g>
     </g>
    </g>
    <g id="xtick_2">
     <g id="line2d_2">
      <g>
       <use xlink:href="#m762563b793" x="162.374876" y="307.584" style="stroke: #000000; stroke-width: 0.8"/>
      </g>
     </g>
     <g id="text_2">
      <!-- 0.2 -->
      <g transform="translate(154.423314 322.182437) scale(0.1 -0.1)">
       <defs>
        <path id="DejaVuSans-32" d="M 1228 531 
L 3431 531 
L 3431 0 
L 469 0 
L 469 531 
Q 828 903 1448 1529 
Q 2069 2156 2228 2338 
Q 2531 2678 2651 2914 
Q 2772 3150 2772 3378 
Q 2772 3750 2511 3984 
Q 2250 4219 1831 4219 
Q 1534 4219 1204 4116 
Q 875 4013 500 3803 
L 500 4441 
Q 881 4594 1212 4672 
Q 1544 4750 1819 4750 
Q 2544 4750 2975 4387 
Q 3406 4025 3406 3419 
Q 3406 3131 3298 2873 
Q 3191 2616 2906 2266 
Q 2828 2175 2409 1742 
Q 1991 1309 1228 531 
z
" transform="scale(0.015625)"/>
       </defs>
       <use xlink:href="#DejaVuSans-30"/>
       <use xlink:href="#DejaVuSans-2e" x="63.623047"/>
       <use xlink:href="#DejaVuSans-32" x="95.410156"/>
      </g>
     </g>
    </g>
    <g id="xtick_3">
     <g id="line2d_3">
      <g>
       <use xlink:href="#m762563b793" x="221.402975" y="307.584" style="stroke: #000000; stroke-width: 0.8"/>
      </g>
     </g>
     <g id="text_3">
      <!-- 0.4 -->
      <g transform="translate(213.451413 322.182437) scale(0.1 -0.1)">
       <defs>
        <path id="DejaVuSans-34" d="M 2419 4116 
L 825 1625 
L 2419 1625 
L 2419 4116 
z
M 2253 4666 
L 3047 4666 
L 3047 1625 
L 3713 1625 
L 3713 1100 
L 3047 1100 
L 3047 0 
L 2419 0 
L 2419 1100 
L 313 1100 
L 313 1709 
L 2253 4666 
z
" transform="scale(0.015625)"/>
       </defs>
       <use xlink:href="#DejaVuSans-30"/>
       <use xlink:href="#DejaVuSans-2e" x="63.623047"/>
       <use xlink:href="#DejaVuSans-34" x="95.410156"/>
      </g>
     </g>
    </g>
    <g id="xtick_4">
     <g id="line2d_4">
      <g>
       <use xlink:href="#m762563b793" x="280.431074" y="307.584" style="stroke: #000000; stroke-width: 0.8"/>
      </g>
     </g>
     <g id="text_4">
      <!-- 0.6 -->
      <g transform="translate(272.479512 322.182437) scale(0.1 -0.1)">
       <defs>
        <path id="DejaVuSans-36" d="M 2113 2584 
Q 1688 2584 1439 2293 
Q 1191 2003 1191 1497 
Q 1191 994 1439 701 
Q 1688 409 2113 409 
Q 2538 409 2786 701 
Q 3034 994 3034 1497 
Q 3034 2003 2786 2293 
Q 2538 2584 2113 2584 
z
M 3366 4563 
L 3366 3988 
Q 3128 4100 2886 4159 
Q 2644 4219 2406 4219 
Q 1781 4219 1451 3797 
Q 1122 3375 1075 2522 
Q 1259 2794 1537 2939 
Q 1816 3084 2150 3084 
Q 2853 3084 3261 2657 
Q 3669 2231 3669 1497 
Q 3669 778 3244 343 
Q 2819 -91 2113 -91 
Q 1303 -91 875 529 
Q 447 1150 447 2328 
Q 447 3434 972 4092 
Q 1497 4750 2381 4750 
Q 2619 4750 2861 4703 
Q 3103 4656 3366 4563 
z
" transform="scale(0.015625)"/>
       </defs>
       <use xlink:href="#DejaVuSans-30"/>
       <use xlink:href="#DejaVuSans-2e" x="63.623047"/>
       <use xlink:href="#DejaVuSans-36" x="95.410156"/>
      </g>
     </g>
    </g>
    <g id="xtick_5">
     <g id="line2d_5">
      <g>
       <use xlink:href="#m762563b793" x="339.459174" y="307.584" style="stroke: #000000; stroke-width: 0.8"/>
      </g>
     </g>
     <g id="text_5">
      <!-- 0.8 -->
      <g transform="translate(331.507611 322.182437) scale(0.1 -0.1)">
       <defs>
        <path id="DejaVuSans-38" d="M 2034 2216 
Q 1584 2216 1326 1975 
Q 1069 1734 1069 1313 
Q 1069 891 1326 650 
Q 1584 409 2034 409 
Q 2484 409 2743 651 
Q 3003 894 3003 1313 
Q 3003 1734 2745 1975 
Q 2488 2216 2034 2216 
z
M 1403 2484 
Q 997 2584 770 2862 
Q 544 3141 544 3541 
Q 544 4100 942 4425 
Q 1341 4750 2034 4750 
Q 2731 4750 3128 4425 
Q 3525 4100 3525 3541 
Q 3525 3141 3298 2862 
Q 3072 2584 2669 2484 
Q 3125 2378 3379 2068 
Q 3634 1759 3634 1313 
Q 3634 634 3220 271 
Q 2806 -91 2034 -91 
Q 1263 -91 848 271 
Q 434 634 434 1313 
Q 434 1759 690 2068 
Q 947 2378 1403 2484 
z
M 1172 3481 
Q 1172 3119 1398 2916 
Q 1625 2713 2034 2713 
Q 2441 2713 2670 2916 
Q 2900 3119 2900 3481 
Q 2900 3844 2670 4047 
Q 2441 4250 2034 4250 
Q 1625 4250 1398 4047 
Q 1172 3844 1172 3481 
z
" transform="scale(0.015625)"/>
       </defs>
       <use xlink:href="#DejaVuSans-30"/>
       <use xlink:href="#DejaVuSans-2e" x="63.623047"/>
       <use xlink:href="#DejaVuSans-38" x="95.410156"/>
      </g>
     </g>
    </g>
    <g id="xtick_6">
     <g id="line2d_6">
      <g>
       <use xlink:href="#m762563b793" x="398.487273" y="307.584" style="stroke: #000000; stroke-width: 0.8"/>
      </g>
     </g>
     <g id="text_6">
      <!-- 1.0 -->
      <g transform="translate(390.53571 322.182437) scale(0.1 -0.1)">
       <defs>
        <path id="DejaVuSans-31" d="M 794 531 
L 1825 531 
L 1825 4091 
L 703 3866 
L 703 4441 
L 1819 4666 
L 2450 4666 
L 2450 531 
L 3481 531 
L 3481 0 
L 794 0 
L 794 531 
z
" transform="scale(0.015625)"/>
       </defs>
       <use xlink:href="#DejaVuSans-31"/>
       <use xlink:href="#DejaVuSans-2e" x="63.623047"/>
       <use xlink:href="#DejaVuSans-30" x="95.410156"/>
      </g>
     </g>
    </g>
    <g id="text_7">
     <!-- Time (s) -->
     <g transform="translate(215.831094 335.860562) scale(0.1 -0.1)">
      <defs>
       <path id="DejaVuSans-54" d="M -19 4666 
L 3928 4666 
L 3928 4134 
L 2272 4134 
L 2272 0 
L 1638 0 
L 1638 4134 
L -19 4134 
L -19 4666 
z
" transform="scale(0.015625)"/>
       <path id="DejaVuSans-69" d="M 603 3500 
L 1178 3500 
L 1178 0 
L 603 0 
L 603 3500 
z
M 603 4863 
L 1178 4863 
L 1178 4134 
L 603 4134 
L 603 4863 
z
" transform="scale(0.015625)"/>
       <path id="DejaVuSans-6d" d="M 3328 2828 
Q 3544 3216 3844 3400 
Q 4144 3584 4550 3584 
Q 5097 3584 5394 3201 
Q 5691 2819 5691 2113 
L 5691 0 
L 5113 0 
L 5113 2094 
Q 5113 2597 4934 2840 
Q 4756 3084 4391 3084 
Q 3944 3084 3684 2787 
Q 3425 2491 3425 1978 
L 3425 0 
L 2847 0 
L 2847 2094 
Q 2847 2600 2669 2842 
Q 2491 3084 2119 3084 
Q 1678 3084 1418 2786 
Q 1159 2488 1159 1978 
L 1159 0 
L 581 0 
L 581 3500 
L 1159 3500 
L 1159 2956 
Q 1356 3278 1631 3431 
Q 1906 3584 2284 3584 
Q 2666 3584 2933 3390 
Q 3200 3197 3328 2828 
z
" transform="scale(0.015625)"/>
       <path id="DejaVuSans-65" d="M 3597 1894 
L 3597 1613 
L 953 1613 
Q 991 1019 1311 708 
Q 1631 397 2203 397 
Q 2534 397 2845 478 
Q 3156 559 3463 722 
L 3463 178 
Q 3153 47 2828 -22 
Q 2503 -91 2169 -91 
Q 1331 -91 842 396 
Q 353 884 353 1716 
Q 353 2575 817 3079 
Q 1281 3584 2069 3584 
Q 2775 3584 3186 3129 
Q 3597 2675 3597 1894 
z
M 3022 2063 
Q 3016 2534 2758 2815 
Q 2500 3097 2075 3097 
Q 1594 3097 1305 2825 
Q 1016 2553 972 2059 
L 3022 2063 
z
" transform="scale(0.015625)"/>
       <path id="DejaVuSans-20" transform="scale(0.015625)"/>
       <path id="DejaVuSans-28" d="M 1984 4856 
Q 1566 4138 1362 3434 
Q 1159 2731 1159 2009 
Q 1159 1288 1364 580 
Q 1569 -128 1984 -844 
L 1484 -844 
Q 1016 -109 783 600 
Q 550 1309 550 2009 
Q 550 2706 781 3412 
Q 1013 4119 1484 4856 
L 1984 4856 
z
" transform="scale(0.015625)"/>
       <path id="DejaVuSans-73" d="M 2834 3397 
L 2834 2853 
Q 2591 2978 2328 3040 
Q 2066 3103 1784 3103 
Q 1356 3103 1142 2972 
Q 928 2841 928 2578 
Q 928 2378 1081 2264 
Q 1234 2150 1697 2047 
L 1894 2003 
Q 2506 1872 2764 1633 
Q 3022 1394 3022 966 
Q 3022 478 2636 193 
Q 2250 -91 1575 -91 
Q 1294 -91 989 -36 
Q 684 19 347 128 
L 347 722 
Q 666 556 975 473 
Q 1284 391 1588 391 
Q 1994 391 2212 530 
Q 2431 669 2431 922 
Q 2431 1156 2273 1281 
Q 2116 1406 1581 1522 
L 1381 1569 
Q 847 1681 609 1914 
Q 372 2147 372 2553 
Q 372 3047 722 3315 
Q 1072 3584 1716 3584 
Q 2034 3584 2315 3537 
Q 2597 3491 2834 3397 
z
" transform="scale(0.015625)"/>
       <path id="DejaVuSans-29" d="M 513 4856 
L 1013 4856 
Q 1481 4119 1714 3412 
Q 1947 2706 1947 2009 
Q 1947 1309 1714 600 
Q 1481 -109 1013 -844 
L 513 -844 
Q 928 -128 1133 580 
Q 1338 1288 1338 2009 
Q 1338 2731 1133 3434 
Q 928 4138 513 4856 
z
" transform="scale(0.015625)"/>
      </defs>
      <use xlink:href="#DejaVuSans-54"/>
      <use xlink:href="#DejaVuSans-69" x="57.958984"/>
      <use xlink:href="#DejaVuSans-6d" x="85.742188"/>
      <use xlink:href="#DejaVuSans-65" x="183.154297"/>
      <use xlink:href="#DejaVuSans-20" x="244.677734"/>
      <use xlink:href="#DejaVuSans-28" x="276.464844"/>
      <use xlink:href="#DejaVuSans-73" x="315.478516"/>
      <use xlink:href="#DejaVuSans-29" x="367.578125"/>
     </g>
    </g>
   </g>
   <g id="matplotlib.axis_2">
    <g id="ytick_1">
     <g id="line2d_7">
      <defs>
       <path id="mace86413eb" d="M 0 0 
L -3.5 0 
" style="stroke: #000000; stroke-width: 0.8"/>
      </defs>
      <g>
       <use xlink:href="#mace86413eb" x="57.6" y="264.693719" style="stroke: #000000; stroke-width: 0.8"/>
      </g>
     </g>
     <g id="text_8">
      <!-- 0.00 -->
      <g transform="translate(28.334375 268.492937) scale(0.1 -0.1)">
       <use xlink:href="#DejaVuSans-30"/>
       <use xlink:href="#DejaVuSans-2e" x="63.623047"/>
       <use xlink:href="#DejaVuSans-30" x="95.410156"/>
       <use xlink:href="#DejaVuSans-30" x="159.033203"/>
      </g>
     </g>
    </g>
    <g id="ytick_2">
     <g id="line2d_8">
      <g>
       <use xlink:href="#mace86413eb" x="57.6" y="210.175202" style="stroke: #000000; stroke-width: 0.8"/>
      </g>
     </g>
     <g id="text_9">
      <!-- 0.02 -->
      <g transform="translate(28.334375 213.974421) scale(0.1 -0.1)">
       <use xlink:href="#DejaVuSans-30"/>
       <use xlink:href="#DejaVuSans-2e" x="63.623047"/>
       <use xlink:href="#DejaVuSans-30" x="95.410156"/>
       <use xlink:href="#DejaVuSans-32" x="159.033203"/>
      </g>
     </g>
    </g>
    <g id="ytick_3">
     <g id="line2d_9">
      <g>
       <use xlink:href="#mace86413eb" x="57.6" y="155.656686" style="stroke: #000000; stroke-width: 0.8"/>
      </g>
     </g>
     <g id="text_10">
      <!-- 0.04 -->
      <g transform="translate(28.334375 159.455905) scale(0.1 -0.1)">
       <use xlink:href="#DejaVuSans-30"/>
       <use xlink:href="#DejaVuSans-2e" x="63.623047"/>
       <use xlink:href="#DejaVuSans-30" x="95.410156"/>
       <use xlink:href="#DejaVuSans-34" x="159.033203"/>
      </g>
     </g>
    </g>
    <g id="ytick_4">
     <g id="line2d_10">
      <g>
       <use xlink:href="#mace86413eb" x="57.6" y="101.138169" style="stroke: #000000; stroke-width: 0.8"/>
      </g>
     </g>
     <g id="text_11">
      <!-- 0.06 -->
      <g transform="translate(28.334375 104.937388) scale(0.1 -0.1)">
       <use xlink:href="#DejaVuSans-30"/>
       <use xlink:href="#DejaVuSans-2e" x="63.623047"/>
       <use xlink:href="#DejaVuSans-30" x="95.410156"/>
       <use xlink:href="#DejaVuSans-36" x="159.033203"/>
      </g>
     </g>
    </g>
    <g id="ytick_5">
     <g id="line2d_11">
      <g>
       <use xlink:href="#mace86413eb" x="57.6" y="46.619653" style="stroke: #000000; stroke-width: 0.8"/>
      </g>
     </g>
     <g id="text_12">
      <!-- 0.08 -->
      <g transform="translate(28.334375 50.418872) scale(0.1 -0.1)">
       <use xlink:href="#DejaVuSans-30"/>
       <use xlink:href="#DejaVuSans-2e" x="63.623047"/>
       <use xlink:href="#DejaVuSans-30" x="95.410156"/>
       <use xlink:href="#DejaVuSans-38" x="159.033203"/>
      </g>
     </g>
    </g>
    <g id="text_13">
     <!-- Spearman Correlation -->
     <g transform="translate(22.254687 229.245969) rotate(-90) scale(0.1 -0.1)">
      <defs>
       <path id="DejaVuSans-53" d="M 3425 4513 
L 3425 3897 
Q 3066 4069 2747 4153 
Q 2428 4238 2131 4238 
Q 1616 4238 1336 4038 
Q 1056 3838 1056 3469 
Q 1056 3159 1242 3001 
Q 1428 2844 1947 2747 
L 2328 2669 
Q 3034 2534 3370 2195 
Q 3706 1856 3706 1288 
Q 3706 609 3251 259 
Q 2797 -91 1919 -91 
Q 1588 -91 1214 -16 
Q 841 59 441 206 
L 441 856 
Q 825 641 1194 531 
Q 1563 422 1919 422 
Q 2459 422 2753 634 
Q 3047 847 3047 1241 
Q 3047 1584 2836 1778 
Q 2625 1972 2144 2069 
L 1759 2144 
Q 1053 2284 737 2584 
Q 422 2884 422 3419 
Q 422 4038 858 4394 
Q 1294 4750 2059 4750 
Q 2388 4750 2728 4690 
Q 3069 4631 3425 4513 
z
" transform="scale(0.015625)"/>
       <path id="DejaVuSans-70" d="M 1159 525 
L 1159 -1331 
L 581 -1331 
L 581 3500 
L 1159 3500 
L 1159 2969 
Q 1341 3281 1617 3432 
Q 1894 3584 2278 3584 
Q 2916 3584 3314 3078 
Q 3713 2572 3713 1747 
Q 3713 922 3314 415 
Q 2916 -91 2278 -91 
Q 1894 -91 1617 61 
Q 1341 213 1159 525 
z
M 3116 1747 
Q 3116 2381 2855 2742 
Q 2594 3103 2138 3103 
Q 1681 3103 1420 2742 
Q 1159 2381 1159 1747 
Q 1159 1113 1420 752 
Q 1681 391 2138 391 
Q 2594 391 2855 752 
Q 3116 1113 3116 1747 
z
" transform="scale(0.015625)"/>
       <path id="DejaVuSans-61" d="M 2194 1759 
Q 1497 1759 1228 1600 
Q 959 1441 959 1056 
Q 959 750 1161 570 
Q 1363 391 1709 391 
Q 2188 391 2477 730 
Q 2766 1069 2766 1631 
L 2766 1759 
L 2194 1759 
z
M 3341 1997 
L 3341 0 
L 2766 0 
L 2766 531 
Q 2569 213 2275 61 
Q 1981 -91 1556 -91 
Q 1019 -91 701 211 
Q 384 513 384 1019 
Q 384 1609 779 1909 
Q 1175 2209 1959 2209 
L 2766 2209 
L 2766 2266 
Q 2766 2663 2505 2880 
Q 2244 3097 1772 3097 
Q 1472 3097 1187 3025 
Q 903 2953 641 2809 
L 641 3341 
Q 956 3463 1253 3523 
Q 1550 3584 1831 3584 
Q 2591 3584 2966 3190 
Q 3341 2797 3341 1997 
z
" transform="scale(0.015625)"/>
       <path id="DejaVuSans-72" d="M 2631 2963 
Q 2534 3019 2420 3045 
Q 2306 3072 2169 3072 
Q 1681 3072 1420 2755 
Q 1159 2438 1159 1844 
L 1159 0 
L 581 0 
L 581 3500 
L 1159 3500 
L 1159 2956 
Q 1341 3275 1631 3429 
Q 1922 3584 2338 3584 
Q 2397 3584 2469 3576 
Q 2541 3569 2628 3553 
L 2631 2963 
z
" transform="scale(0.015625)"/>
       <path id="DejaVuSans-6e" d="M 3513 2113 
L 3513 0 
L 2938 0 
L 2938 2094 
Q 2938 2591 2744 2837 
Q 2550 3084 2163 3084 
Q 1697 3084 1428 2787 
Q 1159 2491 1159 1978 
L 1159 0 
L 581 0 
L 581 3500 
L 1159 3500 
L 1159 2956 
Q 1366 3272 1645 3428 
Q 1925 3584 2291 3584 
Q 2894 3584 3203 3211 
Q 3513 2838 3513 2113 
z
" transform="scale(0.015625)"/>
       <path id="DejaVuSans-43" d="M 4122 4306 
L 4122 3641 
Q 3803 3938 3442 4084 
Q 3081 4231 2675 4231 
Q 1875 4231 1450 3742 
Q 1025 3253 1025 2328 
Q 1025 1406 1450 917 
Q 1875 428 2675 428 
Q 3081 428 3442 575 
Q 3803 722 4122 1019 
L 4122 359 
Q 3791 134 3420 21 
Q 3050 -91 2638 -91 
Q 1578 -91 968 557 
Q 359 1206 359 2328 
Q 359 3453 968 4101 
Q 1578 4750 2638 4750 
Q 3056 4750 3426 4639 
Q 3797 4528 4122 4306 
z
" transform="scale(0.015625)"/>
       <path id="DejaVuSans-6f" d="M 1959 3097 
Q 1497 3097 1228 2736 
Q 959 2375 959 1747 
Q 959 1119 1226 758 
Q 1494 397 1959 397 
Q 2419 397 2687 759 
Q 2956 1122 2956 1747 
Q 2956 2369 2687 2733 
Q 2419 3097 1959 3097 
z
M 1959 3584 
Q 2709 3584 3137 3096 
Q 3566 2609 3566 1747 
Q 3566 888 3137 398 
Q 2709 -91 1959 -91 
Q 1206 -91 779 398 
Q 353 888 353 1747 
Q 353 2609 779 3096 
Q 1206 3584 1959 3584 
z
" transform="scale(0.015625)"/>
       <path id="DejaVuSans-6c" d="M 603 4863 
L 1178 4863 
L 1178 0 
L 603 0 
L 603 4863 
z
" transform="scale(0.015625)"/>
       <path id="DejaVuSans-74" d="M 1172 4494 
L 1172 3500 
L 2356 3500 
L 2356 3053 
L 1172 3053 
L 1172 1153 
Q 1172 725 1289 603 
Q 1406 481 1766 481 
L 2356 481 
L 2356 0 
L 1766 0 
Q 1100 0 847 248 
Q 594 497 594 1153 
L 594 3053 
L 172 3053 
L 172 3500 
L 594 3500 
L 594 4494 
L 1172 4494 
z
" transform="scale(0.015625)"/>
      </defs>
      <use xlink:href="#DejaVuSans-53"/>
      <use xlink:href="#DejaVuSans-70" x="63.476562"/>
      <use xlink:href="#DejaVuSans-65" x="126.953125"/>
      <use xlink:href="#DejaVuSans-61" x="188.476562"/>
      <use xlink:href="#DejaVuSans-72" x="249.755859"/>
      <use xlink:href="#DejaVuSans-6d" x="289.119141"/>
      <use xlink:href="#DejaVuSans-61" x="386.53125"/>
      <use xlink:href="#DejaVuSans-6e" x="447.810547"/>
      <use xlink:href="#DejaVuSans-20" x="511.189453"/>
      <use xlink:href="#DejaVuSans-43" x="542.976562"/>
      <use xlink:href="#DejaVuSans-6f" x="612.800781"/>
      <use xlink:href="#DejaVuSans-72" x="673.982422"/>
      <use xlink:href="#DejaVuSans-72" x="713.345703"/>
      <use xlink:href="#DejaVuSans-65" x="752.208984"/>
      <use xlink:href="#DejaVuSans-6c" x="813.732422"/>
      <use xlink:href="#DejaVuSans-61" x="841.515625"/>
      <use xlink:href="#DejaVuSans-74" x="902.794922"/>
      <use xlink:href="#DejaVuSans-69" x="942.003906"/>
      <use xlink:href="#DejaVuSans-6f" x="969.787109"/>
      <use xlink:href="#DejaVuSans-6e" x="1030.96875"/>
     </g>
    </g>
   </g>
   <g id="line2d_12">
    <path d="M 103.346777 307.584 
L 103.346777 41.472 
" clip-path="url(#p0bbc627407)" style="fill: none; stroke-dasharray: 5.55,2.4; stroke-dashoffset: 0; stroke: #d3d3d3; stroke-width: 1.5"/>
   </g>
   <g id="line2d_13">
    <path d="M 57.6 264.693719 
L 414.72 264.693719 
" clip-path="url(#p0bbc627407)" style="fill: none; stroke-dasharray: 5.55,2.4; stroke-dashoffset: 0; stroke: #d3d3d3; stroke-width: 1.5"/>
   </g>
   <g id="line2d_14">
    <path d="M 73.832727 272.693721 
L 76.151688 270.948034 
L 78.470649 268.994362 
L 80.78961 261.071065 
L 83.108571 260.246793 
L 85.427532 277.225224 
L 87.746494 276.521429 
L 90.065455 267.675722 
L 92.384416 264.669457 
L 94.703377 265.290455 
L 97.022338 267.342923 
L 99.341299 270.173956 
L 101.66026 261.129249 
L 103.979221 250.868813 
L 106.298182 251.159072 
L 108.617143 254.889822 
L 110.936104 256.449111 
L 113.255065 257.651448 
L 115.574026 267.797764 
L 117.892987 283.427128 
L 120.211948 279.498642 
L 122.530909 243.048461 
L 124.84987 183.074376 
L 127.168831 150.238457 
L 129.487792 134.957451 
L 131.806753 131.732501 
L 134.125714 129.997377 
L 138.763636 117.887207 
L 141.082597 124.082592 
L 143.401558 132.743003 
L 145.720519 127.82465 
L 148.039481 113.156381 
L 150.358442 106.056006 
L 152.677403 114.67902 
L 154.996364 123.954585 
L 157.315325 123.570559 
L 159.634286 116.214579 
L 161.953247 103.962357 
L 164.272208 93.049703 
L 166.591169 87.051645 
L 168.91013 82.798864 
L 171.229091 79.990903 
L 173.548052 79.424257 
L 175.867013 80.894071 
L 178.185974 84.948375 
L 180.504935 90.620724 
L 182.823896 96.930455 
L 185.142857 101.729581 
L 187.461818 104.474722 
L 189.780779 107.616338 
L 192.09974 112.171027 
L 194.418701 117.312731 
L 196.737662 120.943652 
L 199.056623 126.016848 
L 201.375584 131.602969 
L 203.694545 134.938435 
L 206.013506 139.26041 
L 208.332468 145.333223 
L 210.651429 149.023575 
L 212.97039 148.410326 
L 215.289351 144.895185 
L 217.608312 142.051002 
L 219.927273 141.950967 
L 222.246234 140.897235 
L 224.565195 138.327378 
L 226.884156 136.231657 
L 231.522078 131.257882 
L 233.841039 131.801471 
L 236.16 136.437238 
L 238.478961 142.485438 
L 240.797922 147.535551 
L 243.116883 153.078505 
L 245.435844 159.888835 
L 250.073766 175.716456 
L 252.392727 181.198533 
L 254.711688 184.497563 
L 257.030649 185.493604 
L 259.34961 182.748931 
L 261.668571 177.854094 
L 263.987532 171.296496 
L 266.306494 167.237121 
L 268.625455 165.796226 
L 270.944416 163.966589 
L 273.263377 160.816087 
L 275.582338 157.963859 
L 277.901299 156.747016 
L 280.22026 160.036039 
L 282.539221 166.993954 
L 284.858182 174.821675 
L 287.177143 180.656939 
L 289.496104 184.033523 
L 291.815065 185.537279 
L 294.134026 188.614862 
L 296.452987 193.286558 
L 298.771948 196.059214 
L 301.090909 197.924134 
L 303.40987 201.141719 
L 305.728831 203.954665 
L 308.047792 204.668016 
L 310.366753 204.774234 
L 315.004675 206.055962 
L 317.323636 205.733222 
L 319.642597 204.632794 
L 321.961558 201.945448 
L 326.599481 194.096153 
L 328.918442 193.522855 
L 331.237403 193.567296 
L 333.556364 192.166038 
L 335.875325 188.857668 
L 342.832208 177.178309 
L 345.151169 175.695913 
L 347.47013 179.09927 
L 352.108052 194.641562 
L 354.427013 200.670016 
L 356.745974 204.857815 
L 359.064935 205.374294 
L 361.383896 202.774337 
L 366.021818 190.590742 
L 368.340779 186.566893 
L 370.65974 186.103566 
L 372.978701 187.909813 
L 375.297662 192.124439 
L 377.616623 198.290448 
L 379.935584 205.066017 
L 382.254545 209.195495 
L 384.573506 209.933951 
L 389.211429 204.755889 
L 391.53039 202.646928 
L 393.849351 200.338163 
L 396.168312 197.816445 
L 398.487273 196.905813 
L 398.487273 196.905813 
" clip-path="url(#p0bbc627407)" style="fill: none; stroke: #ff2c55; stroke-linecap: square"/>
   </g>
   <g id="line2d_15">
    <path d="M 73.832727 271.258259 
L 76.151688 270.193452 
L 78.470649 264.186518 
L 80.78961 260.854436 
L 83.108571 265.379965 
L 85.427532 278.863257 
L 87.746494 290.190543 
L 90.065455 286.082331 
L 92.384416 276.284193 
L 94.703377 274.07272 
L 99.341299 263.646459 
L 101.66026 258.998352 
L 103.979221 252.232991 
L 106.298182 244.556883 
L 108.617143 245.735388 
L 110.936104 245.912784 
L 113.255065 243.029408 
L 115.574026 242.809954 
L 117.892987 249.613188 
L 120.211948 256.947971 
L 122.530909 245.326774 
L 124.84987 214.662284 
L 127.168831 187.309409 
L 129.487792 171.162228 
L 131.806753 158.879085 
L 134.125714 156.049626 
L 136.444675 163.027851 
L 138.763636 168.254705 
L 141.082597 172.649796 
L 143.401558 179.795934 
L 145.720519 189.382607 
L 150.358442 201.628692 
L 152.677403 203.151768 
L 154.996364 197.60098 
L 157.315325 190.299936 
L 159.634286 187.541104 
L 161.953247 186.956542 
L 164.272208 185.536867 
L 166.591169 182.439155 
L 168.91013 182.151739 
L 171.229091 184.580385 
L 173.548052 187.52688 
L 175.867013 187.568462 
L 178.185974 184.946712 
L 180.504935 181.447649 
L 182.823896 180.364128 
L 185.142857 180.121711 
L 187.461818 177.960521 
L 189.780779 176.167654 
L 192.09974 177.764537 
L 194.418701 182.052693 
L 196.737662 188.295812 
L 201.375584 203.434141 
L 203.694545 208.746368 
L 208.332468 216.657634 
L 210.651429 218.727343 
L 212.97039 218.121731 
L 215.289351 216.938705 
L 217.608312 217.459009 
L 219.927273 218.398703 
L 222.246234 219.207626 
L 224.565195 220.471871 
L 226.884156 222.747167 
L 231.522078 226.461272 
L 233.841039 229.095801 
L 236.16 233.097277 
L 240.797922 242.87441 
L 243.116883 247.296668 
L 245.435844 249.858482 
L 247.754805 248.908108 
L 250.073766 245.23198 
L 252.392727 240.28173 
L 254.711688 235.779881 
L 257.030649 232.35364 
L 261.668571 226.348009 
L 263.987532 222.091789 
L 266.306494 218.542513 
L 268.625455 217.161545 
L 270.944416 216.267716 
L 273.263377 216.255305 
L 275.582338 217.34711 
L 277.901299 217.891724 
L 280.22026 217.747137 
L 282.539221 219.297126 
L 284.858182 222.249977 
L 287.177143 225.403014 
L 289.496104 227.250748 
L 291.815065 228.74347 
L 294.134026 231.582365 
L 296.452987 234.848765 
L 298.771948 237.293234 
L 301.090909 239.365763 
L 303.40987 240.896874 
L 308.047792 240.313545 
L 310.366753 241.367131 
L 312.685714 243.101284 
L 315.004675 244.450303 
L 317.323636 245.480476 
L 319.642597 245.021695 
L 324.280519 242.562877 
L 326.599481 242.894145 
L 328.918442 244.003914 
L 331.237403 244.663795 
L 333.556364 244.220391 
L 335.875325 242.578896 
L 338.194286 240.77052 
L 340.513247 238.469595 
L 342.832208 235.600879 
L 345.151169 234.466654 
L 347.47013 236.056563 
L 349.789091 240.055694 
L 352.108052 244.677814 
L 354.427013 247.84872 
L 356.745974 249.96376 
L 359.064935 250.818186 
L 361.383896 250.304791 
L 366.021818 246.679022 
L 368.340779 245.713852 
L 370.65974 245.504347 
L 372.978701 246.260465 
L 375.297662 248.6088 
L 377.616623 251.47793 
L 379.935584 253.516019 
L 382.254545 253.560891 
L 384.573506 251.928961 
L 386.892468 250.122598 
L 389.211429 249.906416 
L 391.53039 252.025568 
L 393.849351 255.794898 
L 396.168312 258.939425 
L 398.487273 261.035564 
L 398.487273 261.035564 
" clip-path="url(#p0bbc627407)" style="fill: none; stroke: #0974f1; stroke-linecap: square"/>
   </g>
   <g id="line2d_16">
    <path d="M 173.548052 307.584 
L 173.548052 41.472 
" clip-path="url(#p0bbc627407)" style="fill: none; stroke-dasharray: 5.55,2.4; stroke-dashoffset: 0; stroke: #ff2c55; stroke-width: 1.5"/>
   </g>
   <g id="line2d_17">
    <path d="M 134.125714 307.584 
L 134.125714 41.472 
" clip-path="url(#p0bbc627407)" style="fill: none; stroke-dasharray: 5.55,2.4; stroke-dashoffset: 0; stroke: #0974f1; stroke-width: 1.5"/>
   </g>
   <g id="patch_3">
    <path d="M 57.6 307.584 
L 57.6 41.472 
" style="fill: none; stroke: #000000; stroke-width: 0.8; stroke-linejoin: miter; stroke-linecap: square"/>
   </g>
   <g id="patch_4">
    <path d="M 57.6 307.584 
L 414.72 307.584 
" style="fill: none; stroke: #000000; stroke-width: 0.8; stroke-linejoin: miter; stroke-linecap: square"/>
   </g>
   <g id="text_14">
    <!-- . -->
    <g style="fill: #ff2c55" transform="translate(124.84987 296.850963) scale(0.15 -0.15)">
     <use xlink:href="#DejaVuSans-2e"/>
    </g>
   </g>
   <g id="text_15">
    <!-- . -->
    <g style="fill: #ff2c55" transform="translate(127.168831 296.850963) scale(0.15 -0.15)">
     <use xlink:href="#DejaVuSans-2e"/>
    </g>
   </g>
   <g id="text_16">
    <!-- . -->
    <g style="fill: #ff2c55" transform="translate(129.487792 296.850963) scale(0.15 -0.15)">
     <use xlink:href="#DejaVuSans-2e"/>
    </g>
   </g>
   <g id="text_17">
    <!-- . -->
    <g style="fill: #ff2c55" transform="translate(131.806753 296.850963) scale(0.15 -0.15)">
     <use xlink:href="#DejaVuSans-2e"/>
    </g>
   </g>
   <g id="text_18">
    <!-- . -->
    <g style="fill: #ff2c55" transform="translate(134.125714 296.850963) scale(0.15 -0.15)">
     <use xlink:href="#DejaVuSans-2e"/>
    </g>
   </g>
   <g id="text_19">
    <!-- . -->
    <g style="fill: #ff2c55" transform="translate(136.444675 296.850963) scale(0.15 -0.15)">
     <use xlink:href="#DejaVuSans-2e"/>
    </g>
   </g>
   <g id="text_20">
    <!-- . -->
    <g style="fill: #ff2c55" transform="translate(138.763636 296.850963) scale(0.15 -0.15)">
     <use xlink:href="#DejaVuSans-2e"/>
    </g>
   </g>
   <g id="text_21">
    <!-- . -->
    <g style="fill: #ff2c55" transform="translate(141.082597 296.850963) scale(0.15 -0.15)">
     <use xlink:href="#DejaVuSans-2e"/>
    </g>
   </g>
   <g id="text_22">
    <!-- . -->
    <g style="fill: #ff2c55" transform="translate(143.401558 296.850963) scale(0.15 -0.15)">
     <use xlink:href="#DejaVuSans-2e"/>
    </g>
   </g>
   <g id="text_23">
    <!-- . -->
    <g style="fill: #ff2c55" transform="translate(145.720519 296.850963) scale(0.15 -0.15)">
     <use xlink:href="#DejaVuSans-2e"/>
    </g>
   </g>
   <g id="text_24">
    <!-- . -->
    <g style="fill: #ff2c55" transform="translate(148.039481 296.850963) scale(0.15 -0.15)">
     <use xlink:href="#DejaVuSans-2e"/>
    </g>
   </g>
   <g id="text_25">
    <!-- . -->
    <g style="fill: #ff2c55" transform="translate(150.358442 296.850963) scale(0.15 -0.15)">
     <use xlink:href="#DejaVuSans-2e"/>
    </g>
   </g>
   <g id="text_26">
    <!-- . -->
    <g style="fill: #ff2c55" transform="translate(152.677403 296.850963) scale(0.15 -0.15)">
     <use xlink:href="#DejaVuSans-2e"/>
    </g>
   </g>
   <g id="text_27">
    <!-- . -->
    <g style="fill: #ff2c55" transform="translate(154.996364 296.850963) scale(0.15 -0.15)">
     <use xlink:href="#DejaVuSans-2e"/>
    </g>
   </g>
   <g id="text_28">
    <!-- . -->
    <g style="fill: #ff2c55" transform="translate(157.315325 296.850963) scale(0.15 -0.15)">
     <use xlink:href="#DejaVuSans-2e"/>
    </g>
   </g>
   <g id="text_29">
    <!-- . -->
    <g style="fill: #ff2c55" transform="translate(159.634286 296.850963) scale(0.15 -0.15)">
     <use xlink:href="#DejaVuSans-2e"/>
    </g>
   </g>
   <g id="text_30">
    <!-- . -->
    <g style="fill: #ff2c55" transform="translate(161.953247 296.850963) scale(0.15 -0.15)">
     <use xlink:href="#DejaVuSans-2e"/>
    </g>
   </g>
   <g id="text_31">
    <!-- . -->
    <g style="fill: #ff2c55" transform="translate(164.272208 296.850963) scale(0.15 -0.15)">
     <use xlink:href="#DejaVuSans-2e"/>
    </g>
   </g>
   <g id="text_32">
    <!-- . -->
    <g style="fill: #ff2c55" transform="translate(166.591169 296.850963) scale(0.15 -0.15)">
     <use xlink:href="#DejaVuSans-2e"/>
    </g>
   </g>
   <g id="text_33">
    <!-- . -->
    <g style="fill: #ff2c55" transform="translate(168.91013 296.850963) scale(0.15 -0.15)">
     <use xlink:href="#DejaVuSans-2e"/>
    </g>
   </g>
   <g id="text_34">
    <!-- . -->
    <g style="fill: #ff2c55" transform="translate(171.229091 296.850963) scale(0.15 -0.15)">
     <use xlink:href="#DejaVuSans-2e"/>
    </g>
   </g>
   <g id="text_35">
    <!-- . -->
    <g style="fill: #ff2c55" transform="translate(173.548052 296.850963) scale(0.15 -0.15)">
     <use xlink:href="#DejaVuSans-2e"/>
    </g>
   </g>
   <g id="text_36">
    <!-- . -->
    <g style="fill: #ff2c55" transform="translate(175.867013 296.850963) scale(0.15 -0.15)">
     <use xlink:href="#DejaVuSans-2e"/>
    </g>
   </g>
   <g id="text_37">
    <!-- . -->
    <g style="fill: #ff2c55" transform="translate(178.185974 296.850963) scale(0.15 -0.15)">
     <use xlink:href="#DejaVuSans-2e"/>
    </g>
   </g>
   <g id="text_38">
    <!-- . -->
    <g style="fill: #ff2c55" transform="translate(180.504935 296.850963) scale(0.15 -0.15)">
     <use xlink:href="#DejaVuSans-2e"/>
    </g>
   </g>
   <g id="text_39">
    <!-- . -->
    <g style="fill: #ff2c55" transform="translate(182.823896 296.850963) scale(0.15 -0.15)">
     <use xlink:href="#DejaVuSans-2e"/>
    </g>
   </g>
   <g id="text_40">
    <!-- . -->
    <g style="fill: #ff2c55" transform="translate(185.142857 296.850963) scale(0.15 -0.15)">
     <use xlink:href="#DejaVuSans-2e"/>
    </g>
   </g>
   <g id="text_41">
    <!-- . -->
    <g style="fill: #ff2c55" transform="translate(187.461818 296.850963) scale(0.15 -0.15)">
     <use xlink:href="#DejaVuSans-2e"/>
    </g>
   </g>
   <g id="text_42">
    <!-- . -->
    <g style="fill: #ff2c55" transform="translate(189.780779 296.850963) scale(0.15 -0.15)">
     <use xlink:href="#DejaVuSans-2e"/>
    </g>
   </g>
   <g id="text_43">
    <!-- . -->
    <g style="fill: #ff2c55" transform="translate(192.09974 296.850963) scale(0.15 -0.15)">
     <use xlink:href="#DejaVuSans-2e"/>
    </g>
   </g>
   <g id="text_44">
    <!-- . -->
    <g style="fill: #ff2c55" transform="translate(194.418701 296.850963) scale(0.15 -0.15)">
     <use xlink:href="#DejaVuSans-2e"/>
    </g>
   </g>
   <g id="text_45">
    <!-- . -->
    <g style="fill: #ff2c55" transform="translate(196.737662 296.850963) scale(0.15 -0.15)">
     <use xlink:href="#DejaVuSans-2e"/>
    </g>
   </g>
   <g id="text_46">
    <!-- . -->
    <g style="fill: #ff2c55" transform="translate(199.056623 296.850963) scale(0.15 -0.15)">
     <use xlink:href="#DejaVuSans-2e"/>
    </g>
   </g>
   <g id="text_47">
    <!-- . -->
    <g style="fill: #ff2c55" transform="translate(201.375584 296.850963) scale(0.15 -0.15)">
     <use xlink:href="#DejaVuSans-2e"/>
    </g>
   </g>
   <g id="text_48">
    <!-- . -->
    <g style="fill: #ff2c55" transform="translate(203.694545 296.850963) scale(0.15 -0.15)">
     <use xlink:href="#DejaVuSans-2e"/>
    </g>
   </g>
   <g id="text_49">
    <!-- . -->
    <g style="fill: #ff2c55" transform="translate(206.013506 296.850963) scale(0.15 -0.15)">
     <use xlink:href="#DejaVuSans-2e"/>
    </g>
   </g>
   <g id="text_50">
    <!-- . -->
    <g style="fill: #ff2c55" transform="translate(208.332468 296.850963) scale(0.15 -0.15)">
     <use xlink:href="#DejaVuSans-2e"/>
    </g>
   </g>
   <g id="text_51">
    <!-- . -->
    <g style="fill: #ff2c55" transform="translate(210.651429 296.850963) scale(0.15 -0.15)">
     <use xlink:href="#DejaVuSans-2e"/>
    </g>
   </g>
   <g id="text_52">
    <!-- . -->
    <g style="fill: #ff2c55" transform="translate(212.97039 296.850963) scale(0.15 -0.15)">
     <use xlink:href="#DejaVuSans-2e"/>
    </g>
   </g>
   <g id="text_53">
    <!-- . -->
    <g style="fill: #ff2c55" transform="translate(215.289351 296.850963) scale(0.15 -0.15)">
     <use xlink:href="#DejaVuSans-2e"/>
    </g>
   </g>
   <g id="text_54">
    <!-- . -->
    <g style="fill: #ff2c55" transform="translate(217.608312 296.850963) scale(0.15 -0.15)">
     <use xlink:href="#DejaVuSans-2e"/>
    </g>
   </g>
   <g id="text_55">
    <!-- . -->
    <g style="fill: #ff2c55" transform="translate(219.927273 296.850963) scale(0.15 -0.15)">
     <use xlink:href="#DejaVuSans-2e"/>
    </g>
   </g>
   <g id="text_56">
    <!-- . -->
    <g style="fill: #ff2c55" transform="translate(222.246234 296.850963) scale(0.15 -0.15)">
     <use xlink:href="#DejaVuSans-2e"/>
    </g>
   </g>
   <g id="text_57">
    <!-- . -->
    <g style="fill: #ff2c55" transform="translate(224.565195 296.850963) scale(0.15 -0.15)">
     <use xlink:href="#DejaVuSans-2e"/>
    </g>
   </g>
   <g id="text_58">
    <!-- . -->
    <g style="fill: #ff2c55" transform="translate(226.884156 296.850963) scale(0.15 -0.15)">
     <use xlink:href="#DejaVuSans-2e"/>
    </g>
   </g>
   <g id="text_59">
    <!-- . -->
    <g style="fill: #ff2c55" transform="translate(229.203117 296.850963) scale(0.15 -0.15)">
     <use xlink:href="#DejaVuSans-2e"/>
    </g>
   </g>
   <g id="text_60">
    <!-- . -->
    <g style="fill: #ff2c55" transform="translate(231.522078 296.850963) scale(0.15 -0.15)">
     <use xlink:href="#DejaVuSans-2e"/>
    </g>
   </g>
   <g id="text_61">
    <!-- . -->
    <g style="fill: #ff2c55" transform="translate(233.841039 296.850963) scale(0.15 -0.15)">
     <use xlink:href="#DejaVuSans-2e"/>
    </g>
   </g>
   <g id="text_62">
    <!-- . -->
    <g style="fill: #ff2c55" transform="translate(236.16 296.850963) scale(0.15 -0.15)">
     <use xlink:href="#DejaVuSans-2e"/>
    </g>
   </g>
   <g id="text_63">
    <!-- . -->
    <g style="fill: #ff2c55" transform="translate(238.478961 296.850963) scale(0.15 -0.15)">
     <use xlink:href="#DejaVuSans-2e"/>
    </g>
   </g>
   <g id="text_64">
    <!-- . -->
    <g style="fill: #ff2c55" transform="translate(240.797922 296.850963) scale(0.15 -0.15)">
     <use xlink:href="#DejaVuSans-2e"/>
    </g>
   </g>
   <g id="text_65">
    <!-- . -->
    <g style="fill: #ff2c55" transform="translate(243.116883 296.850963) scale(0.15 -0.15)">
     <use xlink:href="#DejaVuSans-2e"/>
    </g>
   </g>
   <g id="text_66">
    <!-- . -->
    <g style="fill: #ff2c55" transform="translate(245.435844 296.850963) scale(0.15 -0.15)">
     <use xlink:href="#DejaVuSans-2e"/>
    </g>
   </g>
   <g id="text_67">
    <!-- . -->
    <g style="fill: #0974f1" transform="translate(87.746494 300.939852) scale(0.15 -0.15)">
     <use xlink:href="#DejaVuSans-2e"/>
    </g>
   </g>
   <g id="text_68">
    <!-- . -->
    <g style="fill: #0974f1" transform="translate(124.84987 300.939852) scale(0.15 -0.15)">
     <use xlink:href="#DejaVuSans-2e"/>
    </g>
   </g>
   <g id="text_69">
    <!-- . -->
    <g style="fill: #0974f1" transform="translate(127.168831 300.939852) scale(0.15 -0.15)">
     <use xlink:href="#DejaVuSans-2e"/>
    </g>
   </g>
   <g id="text_70">
    <!-- . -->
    <g style="fill: #0974f1" transform="translate(129.487792 300.939852) scale(0.15 -0.15)">
     <use xlink:href="#DejaVuSans-2e"/>
    </g>
   </g>
   <g id="text_71">
    <!-- . -->
    <g style="fill: #0974f1" transform="translate(131.806753 300.939852) scale(0.15 -0.15)">
     <use xlink:href="#DejaVuSans-2e"/>
    </g>
   </g>
   <g id="text_72">
    <!-- . -->
    <g style="fill: #0974f1" transform="translate(134.125714 300.939852) scale(0.15 -0.15)">
     <use xlink:href="#DejaVuSans-2e"/>
    </g>
   </g>
   <g id="text_73">
    <!-- . -->
    <g style="fill: #0974f1" transform="translate(136.444675 300.939852) scale(0.15 -0.15)">
     <use xlink:href="#DejaVuSans-2e"/>
    </g>
   </g>
   <g id="text_74">
    <!-- . -->
    <g style="fill: #0974f1" transform="translate(138.763636 300.939852) scale(0.15 -0.15)">
     <use xlink:href="#DejaVuSans-2e"/>
    </g>
   </g>
   <g id="text_75">
    <!-- . -->
    <g style="fill: #0974f1" transform="translate(141.082597 300.939852) scale(0.15 -0.15)">
     <use xlink:href="#DejaVuSans-2e"/>
    </g>
   </g>
   <g id="text_76">
    <!-- . -->
    <g style="fill: #0974f1" transform="translate(143.401558 300.939852) scale(0.15 -0.15)">
     <use xlink:href="#DejaVuSans-2e"/>
    </g>
   </g>
   <g id="text_77">
    <!-- . -->
    <g style="fill: #0974f1" transform="translate(145.720519 300.939852) scale(0.15 -0.15)">
     <use xlink:href="#DejaVuSans-2e"/>
    </g>
   </g>
   <g id="text_78">
    <!-- . -->
    <g style="fill: #0974f1" transform="translate(148.039481 300.939852) scale(0.15 -0.15)">
     <use xlink:href="#DejaVuSans-2e"/>
    </g>
   </g>
   <g id="text_79">
    <!-- . -->
    <g style="fill: #0974f1" transform="translate(150.358442 300.939852) scale(0.15 -0.15)">
     <use xlink:href="#DejaVuSans-2e"/>
    </g>
   </g>
   <g id="text_80">
    <!-- . -->
    <g style="fill: #0974f1" transform="translate(152.677403 300.939852) scale(0.15 -0.15)">
     <use xlink:href="#DejaVuSans-2e"/>
    </g>
   </g>
   <g id="text_81">
    <!-- . -->
    <g style="fill: #0974f1" transform="translate(154.996364 300.939852) scale(0.15 -0.15)">
     <use xlink:href="#DejaVuSans-2e"/>
    </g>
   </g>
   <g id="text_82">
    <!-- . -->
    <g style="fill: #0974f1" transform="translate(157.315325 300.939852) scale(0.15 -0.15)">
     <use xlink:href="#DejaVuSans-2e"/>
    </g>
   </g>
   <g id="text_83">
    <!-- . -->
    <g style="fill: #0974f1" transform="translate(159.634286 300.939852) scale(0.15 -0.15)">
     <use xlink:href="#DejaVuSans-2e"/>
    </g>
   </g>
   <g id="text_84">
    <!-- . -->
    <g style="fill: #0974f1" transform="translate(161.953247 300.939852) scale(0.15 -0.15)">
     <use xlink:href="#DejaVuSans-2e"/>
    </g>
   </g>
   <g id="text_85">
    <!-- . -->
    <g style="fill: #0974f1" transform="translate(164.272208 300.939852) scale(0.15 -0.15)">
     <use xlink:href="#DejaVuSans-2e"/>
    </g>
   </g>
   <g id="text_86">
    <!-- . -->
    <g style="fill: #0974f1" transform="translate(166.591169 300.939852) scale(0.15 -0.15)">
     <use xlink:href="#DejaVuSans-2e"/>
    </g>
   </g>
   <g id="text_87">
    <!-- . -->
    <g style="fill: #0974f1" transform="translate(168.91013 300.939852) scale(0.15 -0.15)">
     <use xlink:href="#DejaVuSans-2e"/>
    </g>
   </g>
   <g id="text_88">
    <!-- . -->
    <g style="fill: #0974f1" transform="translate(171.229091 300.939852) scale(0.15 -0.15)">
     <use xlink:href="#DejaVuSans-2e"/>
    </g>
   </g>
   <g id="text_89">
    <!-- . -->
    <g style="fill: #0974f1" transform="translate(173.548052 300.939852) scale(0.15 -0.15)">
     <use xlink:href="#DejaVuSans-2e"/>
    </g>
   </g>
   <g id="text_90">
    <!-- . -->
    <g style="fill: #0974f1" transform="translate(175.867013 300.939852) scale(0.15 -0.15)">
     <use xlink:href="#DejaVuSans-2e"/>
    </g>
   </g>
   <g id="text_91">
    <!-- . -->
    <g style="fill: #0974f1" transform="translate(178.185974 300.939852) scale(0.15 -0.15)">
     <use xlink:href="#DejaVuSans-2e"/>
    </g>
   </g>
   <g id="text_92">
    <!-- . -->
    <g style="fill: #0974f1" transform="translate(180.504935 300.939852) scale(0.15 -0.15)">
     <use xlink:href="#DejaVuSans-2e"/>
    </g>
   </g>
   <g id="text_93">
    <!-- . -->
    <g style="fill: #0974f1" transform="translate(182.823896 300.939852) scale(0.15 -0.15)">
     <use xlink:href="#DejaVuSans-2e"/>
    </g>
   </g>
   <g id="text_94">
    <!-- . -->
    <g style="fill: #0974f1" transform="translate(185.142857 300.939852) scale(0.15 -0.15)">
     <use xlink:href="#DejaVuSans-2e"/>
    </g>
   </g>
   <g id="text_95">
    <!-- . -->
    <g style="fill: #0974f1" transform="translate(187.461818 300.939852) scale(0.15 -0.15)">
     <use xlink:href="#DejaVuSans-2e"/>
    </g>
   </g>
   <g id="text_96">
    <!-- . -->
    <g style="fill: #0974f1" transform="translate(189.780779 300.939852) scale(0.15 -0.15)">
     <use xlink:href="#DejaVuSans-2e"/>
    </g>
   </g>
   <g id="text_97">
    <!-- . -->
    <g style="fill: #0974f1" transform="translate(192.09974 300.939852) scale(0.15 -0.15)">
     <use xlink:href="#DejaVuSans-2e"/>
    </g>
   </g>
   <g id="text_98">
    <!-- . -->
    <g style="fill: #0974f1" transform="translate(194.418701 300.939852) scale(0.15 -0.15)">
     <use xlink:href="#DejaVuSans-2e"/>
    </g>
   </g>
   <g id="text_99">
    <!-- . -->
    <g style="fill: #0974f1" transform="translate(196.737662 300.939852) scale(0.15 -0.15)">
     <use xlink:href="#DejaVuSans-2e"/>
    </g>
   </g>
   <g id="text_100">
    <!-- . -->
    <g style="fill: #0974f1" transform="translate(199.056623 300.939852) scale(0.15 -0.15)">
     <use xlink:href="#DejaVuSans-2e"/>
    </g>
   </g>
   <g id="text_101">
    <!-- . -->
    <g style="fill: #0974f1" transform="translate(201.375584 300.939852) scale(0.15 -0.15)">
     <use xlink:href="#DejaVuSans-2e"/>
    </g>
   </g>
   <g id="text_102">
    <!-- . -->
    <g style="fill: #0974f1" transform="translate(203.694545 300.939852) scale(0.15 -0.15)">
     <use xlink:href="#DejaVuSans-2e"/>
    </g>
   </g>
   <g id="text_103">
    <!-- . -->
    <g style="fill: #0974f1" transform="translate(206.013506 300.939852) scale(0.15 -0.15)">
     <use xlink:href="#DejaVuSans-2e"/>
    </g>
   </g>
   <g id="text_104">
    <!-- . -->
    <g style="fill: #0974f1" transform="translate(208.332468 300.939852) scale(0.15 -0.15)">
     <use xlink:href="#DejaVuSans-2e"/>
    </g>
   </g>
   <g id="text_105">
    <!-- . -->
    <g style="fill: #0974f1" transform="translate(210.651429 300.939852) scale(0.15 -0.15)">
     <use xlink:href="#DejaVuSans-2e"/>
    </g>
   </g>
   <g id="text_106">
    <!-- . -->
    <g style="fill: #0974f1" transform="translate(212.97039 300.939852) scale(0.15 -0.15)">
     <use xlink:href="#DejaVuSans-2e"/>
    </g>
   </g>
   <g id="text_107">
    <!-- . -->
    <g style="fill: #0974f1" transform="translate(215.289351 300.939852) scale(0.15 -0.15)">
     <use xlink:href="#DejaVuSans-2e"/>
    </g>
   </g>
   <g id="text_108">
    <!-- . -->
    <g style="fill: #0974f1" transform="translate(217.608312 300.939852) scale(0.15 -0.15)">
     <use xlink:href="#DejaVuSans-2e"/>
    </g>
   </g>
   <g id="text_109">
    <!-- . -->
    <g style="fill: #0974f1" transform="translate(219.927273 300.939852) scale(0.15 -0.15)">
     <use xlink:href="#DejaVuSans-2e"/>
    </g>
   </g>
   <g id="text_110">
    <!-- . -->
    <g style="fill: #0974f1" transform="translate(222.246234 300.939852) scale(0.15 -0.15)">
     <use xlink:href="#DejaVuSans-2e"/>
    </g>
   </g>
   <g id="text_111">
    <!-- . -->
    <g style="fill: #0974f1" transform="translate(277.901299 300.939852) scale(0.15 -0.15)">
     <use xlink:href="#DejaVuSans-2e"/>
    </g>
   </g>
   <g id="text_112">
    <!-- . -->
    <g style="fill: #0974f1" transform="translate(280.22026 300.939852) scale(0.15 -0.15)">
     <use xlink:href="#DejaVuSans-2e"/>
    </g>
   </g>
   <g id="text_113">
    <!-- . -->
    <g style="fill: #0974f1" transform="translate(282.539221 300.939852) scale(0.15 -0.15)">
     <use xlink:href="#DejaVuSans-2e"/>
    </g>
   </g>
   <g id="text_114">
    <!-- . -->
    <g style="fill: #0974f1" transform="translate(284.858182 300.939852) scale(0.15 -0.15)">
     <use xlink:href="#DejaVuSans-2e"/>
    </g>
   </g>
   <g id="text_115">
    <!-- . -->
    <g style="fill: #0974f1" transform="translate(340.513247 300.939852) scale(0.15 -0.15)">
     <use xlink:href="#DejaVuSans-2e"/>
    </g>
   </g>
   <g id="text_116">
    <!-- . -->
    <g style="fill: #0974f1" transform="translate(342.832208 300.939852) scale(0.15 -0.15)">
     <use xlink:href="#DejaVuSans-2e"/>
    </g>
   </g>
   <g id="text_117">
    <!-- . -->
    <g style="fill: #0974f1" transform="translate(345.151169 300.939852) scale(0.15 -0.15)">
     <use xlink:href="#DejaVuSans-2e"/>
    </g>
   </g>
   <g id="text_118">
    <!-- . -->
    <g style="fill: #0974f1" transform="translate(347.47013 300.939852) scale(0.15 -0.15)">
     <use xlink:href="#DejaVuSans-2e"/>
    </g>
   </g>
   <g id="text_119">
    <!-- . -->
    <g transform="translate(166.591169 305.02874) scale(0.15 -0.15)">
     <use xlink:href="#DejaVuSans-2e"/>
    </g>
   </g>
   <g id="text_120">
    <!-- . -->
    <g transform="translate(168.91013 305.02874) scale(0.15 -0.15)">
     <use xlink:href="#DejaVuSans-2e"/>
    </g>
   </g>
   <g id="text_121">
    <!-- . -->
    <g transform="translate(171.229091 305.02874) scale(0.15 -0.15)">
     <use xlink:href="#DejaVuSans-2e"/>
    </g>
   </g>
   <g id="text_122">
    <!-- . -->
    <g transform="translate(173.548052 305.02874) scale(0.15 -0.15)">
     <use xlink:href="#DejaVuSans-2e"/>
    </g>
   </g>
   <g id="text_123">
    <!-- . -->
    <g transform="translate(175.867013 305.02874) scale(0.15 -0.15)">
     <use xlink:href="#DejaVuSans-2e"/>
    </g>
   </g>
   <g id="text_124">
    <!-- . -->
    <g transform="translate(178.185974 305.02874) scale(0.15 -0.15)">
     <use xlink:href="#DejaVuSans-2e"/>
    </g>
   </g>
   <g id="legend_1">
    <g id="patch_5">
     <path d="M 274.987188 78.82825 
L 407.72 78.82825 
Q 409.72 78.82825 409.72 76.82825 
L 409.72 48.472 
Q 409.72 46.472 407.72 46.472 
L 274.987188 46.472 
Q 272.987188 46.472 272.987188 48.472 
L 272.987188 76.82825 
Q 272.987188 78.82825 274.987188 78.82825 
z
" style="fill: #ffffff; opacity: 0.8; stroke: #cccccc; stroke-linejoin: miter"/>
    </g>
    <g id="line2d_18">
     <path d="M 276.987188 54.570437 
L 286.987188 54.570437 
L 296.987188 54.570437 
" style="fill: none; stroke: #ff2c55; stroke-linecap: square"/>
    </g>
    <g id="text_125">
     <!-- Affordances (online) -->
     <g transform="translate(304.987188 58.070437) scale(0.1 -0.1)">
      <defs>
       <path id="DejaVuSans-41" d="M 2188 4044 
L 1331 1722 
L 3047 1722 
L 2188 4044 
z
M 1831 4666 
L 2547 4666 
L 4325 0 
L 3669 0 
L 3244 1197 
L 1141 1197 
L 716 0 
L 50 0 
L 1831 4666 
z
" transform="scale(0.015625)"/>
       <path id="DejaVuSans-66" d="M 2375 4863 
L 2375 4384 
L 1825 4384 
Q 1516 4384 1395 4259 
Q 1275 4134 1275 3809 
L 1275 3500 
L 2222 3500 
L 2222 3053 
L 1275 3053 
L 1275 0 
L 697 0 
L 697 3053 
L 147 3053 
L 147 3500 
L 697 3500 
L 697 3744 
Q 697 4328 969 4595 
Q 1241 4863 1831 4863 
L 2375 4863 
z
" transform="scale(0.015625)"/>
       <path id="DejaVuSans-64" d="M 2906 2969 
L 2906 4863 
L 3481 4863 
L 3481 0 
L 2906 0 
L 2906 525 
Q 2725 213 2448 61 
Q 2172 -91 1784 -91 
Q 1150 -91 751 415 
Q 353 922 353 1747 
Q 353 2572 751 3078 
Q 1150 3584 1784 3584 
Q 2172 3584 2448 3432 
Q 2725 3281 2906 2969 
z
M 947 1747 
Q 947 1113 1208 752 
Q 1469 391 1925 391 
Q 2381 391 2643 752 
Q 2906 1113 2906 1747 
Q 2906 2381 2643 2742 
Q 2381 3103 1925 3103 
Q 1469 3103 1208 2742 
Q 947 2381 947 1747 
z
" transform="scale(0.015625)"/>
       <path id="DejaVuSans-63" d="M 3122 3366 
L 3122 2828 
Q 2878 2963 2633 3030 
Q 2388 3097 2138 3097 
Q 1578 3097 1268 2742 
Q 959 2388 959 1747 
Q 959 1106 1268 751 
Q 1578 397 2138 397 
Q 2388 397 2633 464 
Q 2878 531 3122 666 
L 3122 134 
Q 2881 22 2623 -34 
Q 2366 -91 2075 -91 
Q 1284 -91 818 406 
Q 353 903 353 1747 
Q 353 2603 823 3093 
Q 1294 3584 2113 3584 
Q 2378 3584 2631 3529 
Q 2884 3475 3122 3366 
z
" transform="scale(0.015625)"/>
      </defs>
      <use xlink:href="#DejaVuSans-41"/>
      <use xlink:href="#DejaVuSans-66" x="64.783203"/>
      <use xlink:href="#DejaVuSans-66" x="99.988281"/>
      <use xlink:href="#DejaVuSans-6f" x="135.193359"/>
      <use xlink:href="#DejaVuSans-72" x="196.375"/>
      <use xlink:href="#DejaVuSans-64" x="235.738281"/>
      <use xlink:href="#DejaVuSans-61" x="299.214844"/>
      <use xlink:href="#DejaVuSans-6e" x="360.494141"/>
      <use xlink:href="#DejaVuSans-63" x="423.873047"/>
      <use xlink:href="#DejaVuSans-65" x="478.853516"/>
      <use xlink:href="#DejaVuSans-73" x="540.376953"/>
      <use xlink:href="#DejaVuSans-20" x="592.476562"/>
      <use xlink:href="#DejaVuSans-28" x="624.263672"/>
      <use xlink:href="#DejaVuSans-6f" x="663.277344"/>
      <use xlink:href="#DejaVuSans-6e" x="724.458984"/>
      <use xlink:href="#DejaVuSans-6c" x="787.837891"/>
      <use xlink:href="#DejaVuSans-69" x="815.621094"/>
      <use xlink:href="#DejaVuSans-6e" x="843.404297"/>
      <use xlink:href="#DejaVuSans-65" x="906.783203"/>
      <use xlink:href="#DejaVuSans-29" x="968.306641"/>
     </g>
    </g>
    <g id="line2d_19">
     <path d="M 276.987188 69.248562 
L 286.987188 69.248562 
L 296.987188 69.248562 
" style="fill: none; stroke: #0974f1; stroke-linecap: square"/>
    </g>
    <g id="text_126">
     <!-- Objects (online) -->
     <g transform="translate(304.987188 72.748562) scale(0.1 -0.1)">
      <defs>
       <path id="DejaVuSans-4f" d="M 2522 4238 
Q 1834 4238 1429 3725 
Q 1025 3213 1025 2328 
Q 1025 1447 1429 934 
Q 1834 422 2522 422 
Q 3209 422 3611 934 
Q 4013 1447 4013 2328 
Q 4013 3213 3611 3725 
Q 3209 4238 2522 4238 
z
M 2522 4750 
Q 3503 4750 4090 4092 
Q 4678 3434 4678 2328 
Q 4678 1225 4090 567 
Q 3503 -91 2522 -91 
Q 1538 -91 948 565 
Q 359 1222 359 2328 
Q 359 3434 948 4092 
Q 1538 4750 2522 4750 
z
" transform="scale(0.015625)"/>
       <path id="DejaVuSans-62" d="M 3116 1747 
Q 3116 2381 2855 2742 
Q 2594 3103 2138 3103 
Q 1681 3103 1420 2742 
Q 1159 2381 1159 1747 
Q 1159 1113 1420 752 
Q 1681 391 2138 391 
Q 2594 391 2855 752 
Q 3116 1113 3116 1747 
z
M 1159 2969 
Q 1341 3281 1617 3432 
Q 1894 3584 2278 3584 
Q 2916 3584 3314 3078 
Q 3713 2572 3713 1747 
Q 3713 922 3314 415 
Q 2916 -91 2278 -91 
Q 1894 -91 1617 61 
Q 1341 213 1159 525 
L 1159 0 
L 581 0 
L 581 4863 
L 1159 4863 
L 1159 2969 
z
" transform="scale(0.015625)"/>
       <path id="DejaVuSans-6a" d="M 603 3500 
L 1178 3500 
L 1178 -63 
Q 1178 -731 923 -1031 
Q 669 -1331 103 -1331 
L -116 -1331 
L -116 -844 
L 38 -844 
Q 366 -844 484 -692 
Q 603 -541 603 -63 
L 603 3500 
z
M 603 4863 
L 1178 4863 
L 1178 4134 
L 603 4134 
L 603 4863 
z
" transform="scale(0.015625)"/>
      </defs>
      <use xlink:href="#DejaVuSans-4f"/>
      <use xlink:href="#DejaVuSans-62" x="78.710938"/>
      <use xlink:href="#DejaVuSans-6a" x="142.1875"/>
      <use xlink:href="#DejaVuSans-65" x="169.970703"/>
      <use xlink:href="#DejaVuSans-63" x="231.494141"/>
      <use xlink:href="#DejaVuSans-74" x="286.474609"/>
      <use xlink:href="#DejaVuSans-73" x="325.683594"/>
      <use xlink:href="#DejaVuSans-20" x="377.783203"/>
      <use xlink:href="#DejaVuSans-28" x="409.570312"/>
      <use xlink:href="#DejaVuSans-6f" x="448.583984"/>
      <use xlink:href="#DejaVuSans-6e" x="509.765625"/>
      <use xlink:href="#DejaVuSans-6c" x="573.144531"/>
      <use xlink:href="#DejaVuSans-69" x="600.927734"/>
      <use xlink:href="#DejaVuSans-6e" x="628.710938"/>
      <use xlink:href="#DejaVuSans-65" x="692.089844"/>
      <use xlink:href="#DejaVuSans-29" x="753.613281"/>
     </g>
    </g>
   </g>
  </g>
 </g>
 <defs>
  <clipPath id="p0bbc627407">
   <rect x="57.6" y="41.472" width="357.12" height="266.112"/>
  </clipPath>
 </defs>
</svg>
