<?xml version="1.0" encoding="utf-8" standalone="no"?>
<!DOCTYPE svg PUBLIC "-//W3C//DTD SVG 1.1//EN"
  "http://www.w3.org/Graphics/SVG/1.1/DTD/svg11.dtd">
<svg xmlns:xlink="http://www.w3.org/1999/xlink" width="460.8pt" height="345.6pt" viewBox="0 0 460.8 345.6" xmlns="http://www.w3.org/2000/svg" version="1.1">
 <metadata>
  <rdf:RDF xmlns:dc="http://purl.org/dc/elements/1.1/" xmlns:cc="http://creativecommons.org/ns#" xmlns:rdf="http://www.w3.org/1999/02/22-rdf-syntax-ns#">
   <cc:Work>
    <dc:type rdf:resource="http://purl.org/dc/dcmitype/StillImage"/>
    <dc:date>2025-12-03T13:37:27.828394</dc:date>
    <dc:format>image/svg+xml</dc:format>
    <dc:creator>
     <cc:Agent>
      <dc:title>Matplotlib v3.6.2, https://matplotlib.org/</dc:title>
     </cc:Agent>
    </dc:creator>
   </cc:Work>
  </rdf:RDF>
 </metadata>
 <defs>
  <style type="text/css">*{stroke-linejoin: round; stroke-linecap: butt}</style>
 </defs>
 <g id="figure_1">
  <g id="patch_1">
   <path d="M 0 345.6 
L 460.8 345.6 
L 460.8 0 
L 0 0 
L 0 345.6 
z
" style="fill: none"/>
  </g>
  <g id="axes_1">
   <g id="patch_2">
    <path d="M 57.6 307.584 
L 414.72 307.584 
L 414.72 41.472 
L 57.6 41.472 
L 57.6 307.584 
z
" style="fill: none"/>
   </g>
   <g id="PolyCollection_1">
    <defs>
     <path id="m1c55db57f1" d="M 73.832727 -80.898864 
L 73.832727 -62.153188 
L 76.151688 -64.647239 
L 78.470649 -66.395478 
L 80.78961 -71.613975 
L 83.108571 -76.362975 
L 85.427532 -65.815303 
L 87.746494 -61.777818 
L 90.065455 -65.619537 
L 92.384416 -68.422209 
L 94.703377 -70.317263 
L 97.022338 -68.087947 
L 99.341299 -65.663078 
L 101.66026 -72.103417 
L 103.979221 -80.312178 
L 106.298182 -81.336729 
L 108.617143 -78.565945 
L 110.936104 -79.612547 
L 113.255065 -81.595147 
L 115.574026 -72.188989 
L 117.892987 -55.197905 
L 120.211948 -50.112 
L 122.530909 -80.576341 
L 124.84987 -132.451107 
L 127.168831 -160.731725 
L 129.487792 -173.815432 
L 131.806753 -177.089197 
L 134.125714 -176.286183 
L 136.444675 -181.659492 
L 138.763636 -187.19529 
L 141.082597 -178.37704 
L 143.401558 -168.674112 
L 145.720519 -174.829336 
L 148.039481 -196.262357 
L 150.358442 -213.877679 
L 152.677403 -210.716402 
L 154.996364 -201.757862 
L 157.315325 -201.850425 
L 159.634286 -209.109065 
L 161.953247 -221.446938 
L 164.272208 -230.498714 
L 166.591169 -233.436897 
L 168.91013 -235.256669 
L 171.229091 -237.615174 
L 173.548052 -238.703978 
L 175.867013 -237.102977 
L 178.185974 -231.109781 
L 180.504935 -222.269142 
L 182.823896 -213.268772 
L 185.142857 -207.722164 
L 187.461818 -205.076018 
L 189.780779 -201.330146 
L 192.09974 -195.653218 
L 194.418701 -188.418521 
L 196.737662 -182.346125 
L 199.056623 -176.469413 
L 201.375584 -170.875515 
L 203.694545 -167.13709 
L 206.013506 -162.065776 
L 208.332468 -154.979622 
L 210.651429 -150.067634 
L 212.97039 -148.821513 
L 215.289351 -150.112586 
L 217.608312 -149.834972 
L 219.927273 -146.737588 
L 222.246234 -145.479091 
L 224.565195 -148.035731 
L 226.884156 -151.529411 
L 229.203117 -154.951645 
L 231.522078 -156.737107 
L 233.841039 -154.767951 
L 236.16 -147.829545 
L 238.478961 -138.783812 
L 240.797922 -130.180067 
L 243.116883 -121.670188 
L 245.435844 -112.317269 
L 247.754805 -102.977062 
L 250.073766 -95.398568 
L 252.392727 -90.454997 
L 254.711688 -88.32749 
L 257.030649 -88.659422 
L 259.34961 -92.025793 
L 261.668571 -96.496151 
L 263.987532 -101.958553 
L 266.306494 -104.018938 
L 268.625455 -102.970074 
L 270.944416 -102.625632 
L 273.263377 -104.673455 
L 275.582338 -108.125122 
L 277.901299 -111.219568 
L 280.22026 -109.883197 
L 282.539221 -104.253028 
L 284.858182 -97.519208 
L 287.177143 -92.979758 
L 289.496104 -90.561488 
L 291.815065 -88.756222 
L 294.134026 -84.2385 
L 296.452987 -78.095238 
L 298.771948 -74.762897 
L 301.090909 -72.742492 
L 303.40987 -69.816826 
L 305.728831 -67.591588 
L 308.047792 -66.702554 
L 310.366753 -66.134379 
L 312.685714 -65.586788 
L 315.004675 -66.158436 
L 317.323636 -68.575686 
L 319.642597 -71.763715 
L 321.961558 -76.130156 
L 324.280519 -81.337922 
L 326.599481 -85.794974 
L 328.918442 -86.661067 
L 331.237403 -87.55431 
L 333.556364 -90.426873 
L 335.875325 -94.390906 
L 338.194286 -98.241411 
L 340.513247 -102.864529 
L 342.832208 -108.129348 
L 345.151169 -110.144023 
L 347.47013 -106.290252 
L 349.789091 -97.395135 
L 352.108052 -88.531284 
L 354.427013 -82.534811 
L 356.745974 -78.870059 
L 359.064935 -79.099512 
L 361.383896 -83.120918 
L 363.702857 -91.05277 
L 366.021818 -99.105856 
L 368.340779 -104.254806 
L 370.65974 -105.0731 
L 372.978701 -102.474993 
L 375.297662 -96.271077 
L 377.616623 -88.227832 
L 379.935584 -80.804067 
L 382.254545 -77.240302 
L 384.573506 -77.417089 
L 386.892468 -80.433905 
L 389.211429 -82.645015 
L 391.53039 -83.718225 
L 393.849351 -84.330265 
L 396.168312 -85.528834 
L 398.487273 -85.629943 
L 398.487273 -135.241297 
L 398.487273 -135.241297 
L 396.168312 -135.47501 
L 393.849351 -135.663044 
L 391.53039 -136.890009 
L 389.211429 -138.718227 
L 386.892468 -138.622889 
L 384.573506 -136.710823 
L 382.254545 -136.788266 
L 379.935584 -140.166723 
L 377.616623 -146.838201 
L 375.297662 -153.342998 
L 372.978701 -157.937003 
L 370.65974 -159.987936 
L 368.340779 -159.617063 
L 366.021818 -155.738307 
L 363.702857 -149.457168 
L 361.383896 -142.736186 
L 359.064935 -138.932337 
L 356.745974 -138.42039 
L 354.427013 -141.577177 
L 352.108052 -147.298268 
L 349.789091 -156.298274 
L 347.47013 -166.040462 
L 345.151169 -171.418472 
L 342.832208 -171.802171 
L 340.513247 -168.856208 
L 338.194286 -166.00163 
L 335.875325 -163.80401 
L 333.556364 -160.722449 
L 331.237403 -158.073501 
L 328.918442 -156.284016 
L 326.599481 -154.077523 
L 324.280519 -149.275965 
L 321.961558 -144.50119 
L 319.642597 -140.905258 
L 317.323636 -140.063336 
L 315.004675 -141.461365 
L 312.685714 -144.0097 
L 310.366753 -146.520108 
L 308.047792 -148.24125 
L 305.728831 -149.297119 
L 303.40987 -151.093923 
L 301.090909 -152.91815 
L 298.771948 -153.035879 
L 296.452987 -154.01322 
L 294.134026 -157.54389 
L 291.815065 -159.962727 
L 289.496104 -160.982795 
L 287.177143 -165.012498 
L 284.858182 -172.886926 
L 282.539221 -182.992557 
L 280.22026 -191.265459 
L 277.901299 -195.332902 
L 275.582338 -195.479446 
L 273.263377 -194.361692 
L 270.944416 -192.275109 
L 268.625455 -190.154695 
L 266.306494 -187.092045 
L 263.987532 -181.500113 
L 261.668571 -174.397218 
L 259.34961 -169.894688 
L 257.030649 -168.144072 
L 254.711688 -170.350243 
L 252.392727 -174.227983 
L 250.073766 -178.677263 
L 247.754805 -183.806672 
L 245.435844 -189.41712 
L 243.116883 -195.864623 
L 240.797922 -203.545593 
L 238.478961 -212.115898 
L 236.16 -221.457989 
L 233.841039 -227.717275 
L 231.522078 -228.326843 
L 229.203117 -224.653028 
L 226.884156 -220.658062 
L 224.565195 -217.211652 
L 222.246234 -213.798815 
L 219.927273 -213.540247 
L 217.608312 -214.939496 
L 215.289351 -214.020257 
L 212.97039 -213.073368 
L 210.651429 -214.397104 
L 208.332468 -218.159573 
L 206.013506 -223.30992 
L 203.694545 -226.929777 
L 201.375584 -229.397579 
L 199.056623 -234.848647 
L 196.737662 -241.496267 
L 194.418701 -247.700794 
L 192.09974 -255.387268 
L 189.780779 -262.775972 
L 187.461818 -266.91126 
L 185.142857 -269.536956 
L 182.823896 -273.771065 
L 180.504935 -279.758776 
L 178.185974 -284.834339 
L 175.867013 -289.567292 
L 173.548052 -292.032 
L 171.229091 -291.402568 
L 168.91013 -285.733824 
L 166.591169 -276.998454 
L 164.272208 -268.455876 
L 161.953247 -258.935135 
L 159.634286 -250.854739 
L 157.315325 -247.49235 
L 154.996364 -248.461173 
L 152.677403 -253.497529 
L 150.358442 -258.276914 
L 148.039481 -250.220872 
L 145.720519 -238.625809 
L 143.401558 -238.05406 
L 141.082597 -245.112252 
L 138.763636 -244.699037 
L 136.444675 -236.0373 
L 134.125714 -229.81418 
L 131.806753 -228.460676 
L 129.487792 -230.773154 
L 127.168831 -222.063576 
L 124.84987 -188.344236 
L 122.530909 -119.665599 
L 120.211948 -82.385232 
L 117.892987 -79.207155 
L 115.574026 -94.502144 
L 113.255065 -101.210789 
L 110.936104 -100.294822 
L 108.617143 -100.556837 
L 106.298182 -103.695871 
L 103.979221 -107.167739 
L 101.66026 -98.867485 
L 99.341299 -89.02885 
L 97.022338 -94.18292 
L 94.703377 -93.950809 
L 92.384416 -93.028084 
L 90.065455 -91.87362 
L 87.746494 -82.443441 
L 85.427532 -81.458192 
L 83.108571 -100.079064 
L 80.78961 -99.107096 
L 78.470649 -89.01356 
L 76.151688 -84.79549 
L 73.832727 -80.898864 
z
" style="stroke: #ff2c55; stroke-opacity: 0.1"/>
    </defs>
    <g clip-path="url(#p6522ab72d6)">
     <use xlink:href="#m1c55db57f1" x="0" y="345.6" style="fill: #ff2c55; fill-opacity: 0.1; stroke: #ff2c55; stroke-opacity: 0.1"/>
    </g>
   </g>
   <g id="PolyCollection_2">
    <defs>
     <path id="mb98341801a" d="M 73.832727 -77.974372 
L 73.832727 -61.259266 
L 76.151688 -60.941048 
L 78.470649 -63.895463 
L 80.78961 -65.701182 
L 83.108571 -62.340003 
L 85.427532 -58.360156 
L 87.746494 -55.149492 
L 90.065455 -51.458406 
L 92.384416 -55.707869 
L 94.703377 -55.164467 
L 97.022338 -58.515238 
L 99.341299 -65.05568 
L 101.66026 -76.28901 
L 103.979221 -84.376396 
L 106.298182 -91.869003 
L 108.617143 -92.181398 
L 110.936104 -90.548612 
L 113.255065 -90.858547 
L 115.574026 -89.253237 
L 117.892987 -79.381981 
L 120.211948 -67.268946 
L 122.530909 -72.380001 
L 124.84987 -97.183973 
L 127.168831 -126.419285 
L 129.487792 -144.106435 
L 131.806753 -152.364645 
L 134.125714 -147.487939 
L 136.444675 -131.91267 
L 138.763636 -115.348146 
L 141.082597 -97.660332 
L 143.401558 -80.629697 
L 145.720519 -67.84073 
L 148.039481 -65.083033 
L 150.358442 -69.092061 
L 152.677403 -77.865494 
L 154.996364 -87.9352 
L 157.315325 -96.105942 
L 159.634286 -100.319525 
L 161.953247 -103.753389 
L 164.272208 -105.988028 
L 166.591169 -107.475185 
L 168.91013 -107.382993 
L 171.229091 -107.613261 
L 173.548052 -108.22736 
L 175.867013 -111.153473 
L 178.185974 -115.876194 
L 180.504935 -121.702507 
L 182.823896 -126.058033 
L 185.142857 -129.511502 
L 187.461818 -133.491998 
L 189.780779 -136.182047 
L 192.09974 -135.022201 
L 194.418701 -131.447385 
L 196.737662 -126.550883 
L 199.056623 -120.414989 
L 201.375584 -113.102717 
L 203.694545 -105.594595 
L 206.013506 -97.169768 
L 208.332468 -88.055276 
L 210.651429 -82.500323 
L 212.97039 -82.117594 
L 215.289351 -84.387174 
L 217.608312 -85.480808 
L 219.927273 -84.676155 
L 222.246234 -83.524216 
L 224.565195 -84.599278 
L 226.884156 -85.744015 
L 229.203117 -86.554438 
L 231.522078 -86.156478 
L 233.841039 -83.784675 
L 236.16 -78.888935 
L 238.478961 -72.585266 
L 240.797922 -66.495271 
L 243.116883 -61.646567 
L 245.435844 -59.765748 
L 247.754805 -61.827017 
L 250.073766 -66.108016 
L 252.392727 -70.022289 
L 254.711688 -71.685452 
L 257.030649 -71.633914 
L 259.34961 -72.560409 
L 261.668571 -74.750949 
L 263.987532 -79.541061 
L 266.306494 -85.033551 
L 268.625455 -89.109362 
L 270.944416 -92.294931 
L 273.263377 -93.677141 
L 275.582338 -92.620941 
L 277.901299 -90.930718 
L 280.22026 -89.537687 
L 282.539221 -86.297558 
L 284.858182 -82.351182 
L 287.177143 -78.696129 
L 289.496104 -76.623752 
L 291.815065 -75.046579 
L 294.134026 -72.229258 
L 296.452987 -68.908298 
L 298.771948 -67.047044 
L 301.090909 -66.655259 
L 303.40987 -66.348285 
L 305.728831 -66.86931 
L 308.047792 -66.604748 
L 310.366753 -65.112885 
L 312.685714 -63.766935 
L 315.004675 -63.359579 
L 317.323636 -63.251435 
L 319.642597 -64.502752 
L 321.961558 -67.137227 
L 324.280519 -69.134786 
L 326.599481 -68.990689 
L 328.918442 -67.827077 
L 331.237403 -67.510469 
L 333.556364 -67.999521 
L 335.875325 -69.36123 
L 338.194286 -71.280575 
L 340.513247 -74.358487 
L 342.832208 -78.784619 
L 345.151169 -81.535779 
L 347.47013 -80.644295 
L 349.789091 -75.974802 
L 352.108052 -70.004427 
L 354.427013 -65.317792 
L 356.745974 -62.158814 
L 359.064935 -60.858605 
L 361.383896 -60.888456 
L 363.702857 -62.523734 
L 366.021818 -64.137901 
L 368.340779 -64.341128 
L 370.65974 -63.054376 
L 372.978701 -60.829394 
L 375.297662 -56.965236 
L 377.616623 -53.377956 
L 379.935584 -52.236807 
L 382.254545 -54.867352 
L 384.573506 -60.324116 
L 386.892468 -65.91967 
L 389.211429 -68.642543 
L 391.53039 -67.240577 
L 393.849351 -63.02578 
L 396.168312 -59.195847 
L 398.487273 -56.360665 
L 398.487273 -86.502957 
L 398.487273 -86.502957 
L 396.168312 -90.06939 
L 393.849351 -94.528402 
L 391.53039 -99.010084 
L 389.211429 -100.270649 
L 386.892468 -97.347396 
L 384.573506 -91.796658 
L 382.254545 -86.880411 
L 379.935584 -85.157067 
L 377.616623 -86.872319 
L 375.297662 -90.029803 
L 372.978701 -93.264238 
L 370.65974 -95.759418 
L 368.340779 -97.60235 
L 366.021818 -97.597652 
L 363.702857 -95.499833 
L 361.383896 -92.186571 
L 359.064935 -89.86278 
L 356.745974 -88.572942 
L 354.427013 -89.429673 
L 352.108052 -92.954448 
L 349.789091 -98.933218 
L 347.47013 -103.60043 
L 345.151169 -104.982673 
L 342.832208 -103.292903 
L 340.513247 -99.760456 
L 338.194286 -97.032405 
L 335.875325 -95.628411 
L 333.556364 -94.484851 
L 331.237403 -93.693173 
L 328.918442 -93.105857 
L 326.599481 -93.160921 
L 324.280519 -93.247557 
L 321.961558 -92.860818 
L 319.642597 -92.470246 
L 317.323636 -92.003018 
L 315.004675 -92.327587 
L 312.685714 -92.82459 
L 310.366753 -93.421284 
L 308.047792 -94.152886 
L 305.728831 -94.663514 
L 303.40987 -95.477484 
L 301.090909 -98.092216 
L 298.771948 -101.027964 
L 296.452987 -104.170581 
L 294.134026 -107.642573 
L 291.815065 -109.472249 
L 289.496104 -108.979683 
L 287.177143 -108.501276 
L 284.858182 -109.895805 
L 282.539221 -113.082243 
L 280.22026 -117.707304 
L 277.901299 -122.615667 
L 275.582338 -128.301912 
L 273.263377 -132.955269 
L 270.944416 -134.067362 
L 268.625455 -131.313801 
L 266.306494 -126.453664 
L 263.987532 -119.599266 
L 261.668571 -113.179565 
L 259.34961 -109.457372 
L 257.030649 -107.382348 
L 254.711688 -106.644601 
L 252.392727 -104.827338 
L 250.073766 -100.494722 
L 247.754805 -95.562669 
L 245.435844 -93.210479 
L 243.116883 -94.341212 
L 240.797922 -97.62022 
L 238.478961 -102.477166 
L 236.16 -109.091382 
L 233.841039 -115.282968 
L 231.522078 -119.764315 
L 229.203117 -122.949655 
L 226.884156 -125.37787 
L 224.565195 -127.214174 
L 222.246234 -127.375478 
L 219.927273 -127.34484 
L 217.608312 -126.628098 
L 215.289351 -124.022368 
L 212.97039 -119.776441 
L 210.651429 -118.894224 
L 208.332468 -124.167187 
L 206.013506 -133.514072 
L 203.694545 -142.691191 
L 201.375584 -151.699987 
L 199.056623 -160.613059 
L 196.737662 -167.811296 
L 194.418701 -172.808994 
L 192.09974 -175.942218 
L 189.780779 -176.814887 
L 187.461818 -173.431466 
L 185.142857 -167.860738 
L 182.823896 -162.629497 
L 180.504935 -156.953609 
L 178.185974 -150.15431 
L 175.867013 -145.865025 
L 173.548052 -144.977594 
L 171.229091 -147.080803 
L 168.91013 -149.333876 
L 166.591169 -149.989843 
L 164.272208 -147.659896 
L 161.953247 -146.066294 
L 159.634286 -146.651944 
L 157.315325 -145.829609 
L 154.996364 -136.141392 
L 152.677403 -122.087217 
L 150.358442 -111.46103 
L 148.039481 -108.866549 
L 145.720519 -111.615193 
L 143.401558 -121.709461 
L 141.082597 -135.58356 
L 138.763636 -150.739239 
L 136.444675 -165.804552 
L 134.125714 -183.789883 
L 131.806753 -191.868504 
L 129.487792 -185.40523 
L 127.168831 -166.683497 
L 124.84987 -132.682688 
L 122.530909 -96.592946 
L 120.211948 -92.163664 
L 117.892987 -108.070774 
L 115.574026 -119.827946 
L 113.255065 -119.837895 
L 110.936104 -113.821724 
L 108.617143 -110.213489 
L 106.298182 -109.11486 
L 103.979221 -100.617555 
L 101.66026 -92.053732 
L 99.341299 -86.178399 
L 97.022338 -79.775901 
L 94.703377 -72.795448 
L 92.384416 -73.219289 
L 90.065455 -71.23066 
L 87.746494 -68.277725 
L 85.427532 -76.742223 
L 83.108571 -84.89392 
L 80.78961 -86.194537 
L 78.470649 -84.653794 
L 76.151688 -78.512898 
L 73.832727 -77.974372 
z
" style="stroke: #0974f1; stroke-opacity: 0.1"/>
    </defs>
    <g clip-path="url(#p6522ab72d6)">
     <use xlink:href="#mb98341801a" x="0" y="345.6" style="fill: #0974f1; fill-opacity: 0.1; stroke: #0974f1; stroke-opacity: 0.1"/>
    </g>
   </g>
   <g id="matplotlib.axis_1">
    <g id="xtick_1">
     <g id="line2d_1">
      <defs>
       <path id="m94fd9261e1" d="M 0 0 
L 0 3.5 
" style="stroke: #000000; stroke-width: 0.8"/>
      </defs>
      <g>
       <use xlink:href="#m94fd9261e1" x="103.346777" y="307.584" style="stroke: #000000; stroke-width: 0.8"/>
      </g>
     </g>
     <g id="text_1">
      <!-- 0.0 -->
      <g transform="translate(95.395214 322.182437) scale(0.1 -0.1)">
       <defs>
        <path id="DejaVuSans-30" d="M 2034 4250 
Q 1547 4250 1301 3770 
Q 1056 3291 1056 2328 
Q 1056 1369 1301 889 
Q 1547 409 2034 409 
Q 2525 409 2770 889 
Q 3016 1369 3016 2328 
Q 3016 3291 2770 3770 
Q 2525 4250 2034 4250 
z
M 2034 4750 
Q 2819 4750 3233 4129 
Q 3647 3509 3647 2328 
Q 3647 1150 3233 529 
Q 2819 -91 2034 -91 
Q 1250 -91 836 529 
Q 422 1150 422 2328 
Q 422 3509 836 4129 
Q 1250 4750 2034 4750 
z
" transform="scale(0.015625)"/>
        <path id="DejaVuSans-2e" d="M 684 794 
L 1344 794 
L 1344 0 
L 684 0 
L 684 794 
z
" transform="scale(0.015625)"/>
       </defs>
       <use xlink:href="#DejaVuSans-30"/>
       <use xlink:href="#DejaVuSans-2e" x="63.623047"/>
       <use xlink:href="#DejaVuSans-30" x="95.410156"/>
      </g>
     </g>
    </g>
    <g id="xtick_2">
     <g id="line2d_2">
      <g>
       <use xlink:href="#m94fd9261e1" x="162.374876" y="307.584" style="stroke: #000000; stroke-width: 0.8"/>
      </g>
     </g>
     <g id="text_2">
      <!-- 0.2 -->
      <g transform="translate(154.423314 322.182437) scale(0.1 -0.1)">
       <defs>
        <path id="DejaVuSans-32" d="M 1228 531 
L 3431 531 
L 3431 0 
L 469 0 
L 469 531 
Q 828 903 1448 1529 
Q 2069 2156 2228 2338 
Q 2531 2678 2651 2914 
Q 2772 3150 2772 3378 
Q 2772 3750 2511 3984 
Q 2250 4219 1831 4219 
Q 1534 4219 1204 4116 
Q 875 4013 500 3803 
L 500 4441 
Q 881 4594 1212 4672 
Q 1544 4750 1819 4750 
Q 2544 4750 2975 4387 
Q 3406 4025 3406 3419 
Q 3406 3131 3298 2873 
Q 3191 2616 2906 2266 
Q 2828 2175 2409 1742 
Q 1991 1309 1228 531 
z
" transform="scale(0.015625)"/>
       </defs>
       <use xlink:href="#DejaVuSans-30"/>
       <use xlink:href="#DejaVuSans-2e" x="63.623047"/>
       <use xlink:href="#DejaVuSans-32" x="95.410156"/>
      </g>
     </g>
    </g>
    <g id="xtick_3">
     <g id="line2d_3">
      <g>
       <use xlink:href="#m94fd9261e1" x="221.402975" y="307.584" style="stroke: #000000; stroke-width: 0.8"/>
      </g>
     </g>
     <g id="text_3">
      <!-- 0.4 -->
      <g transform="translate(213.451413 322.182437) scale(0.1 -0.1)">
       <defs>
        <path id="DejaVuSans-34" d="M 2419 4116 
L 825 1625 
L 2419 1625 
L 2419 4116 
z
M 2253 4666 
L 3047 4666 
L 3047 1625 
L 3713 1625 
L 3713 1100 
L 3047 1100 
L 3047 0 
L 2419 0 
L 2419 1100 
L 313 1100 
L 313 1709 
L 2253 4666 
z
" transform="scale(0.015625)"/>
       </defs>
       <use xlink:href="#DejaVuSans-30"/>
       <use xlink:href="#DejaVuSans-2e" x="63.623047"/>
       <use xlink:href="#DejaVuSans-34" x="95.410156"/>
      </g>
     </g>
    </g>
    <g id="xtick_4">
     <g id="line2d_4">
      <g>
       <use xlink:href="#m94fd9261e1" x="280.431074" y="307.584" style="stroke: #000000; stroke-width: 0.8"/>
      </g>
     </g>
     <g id="text_4">
      <!-- 0.6 -->
      <g transform="translate(272.479512 322.182437) scale(0.1 -0.1)">
       <defs>
        <path id="DejaVuSans-36" d="M 2113 2584 
Q 1688 2584 1439 2293 
Q 1191 2003 1191 1497 
Q 1191 994 1439 701 
Q 1688 409 2113 409 
Q 2538 409 2786 701 
Q 3034 994 3034 1497 
Q 3034 2003 2786 2293 
Q 2538 2584 2113 2584 
z
M 3366 4563 
L 3366 3988 
Q 3128 4100 2886 4159 
Q 2644 4219 2406 4219 
Q 1781 4219 1451 3797 
Q 1122 3375 1075 2522 
Q 1259 2794 1537 2939 
Q 1816 3084 2150 3084 
Q 2853 3084 3261 2657 
Q 3669 2231 3669 1497 
Q 3669 778 3244 343 
Q 2819 -91 2113 -91 
Q 1303 -91 875 529 
Q 447 1150 447 2328 
Q 447 3434 972 4092 
Q 1497 4750 2381 4750 
Q 2619 4750 2861 4703 
Q 3103 4656 3366 4563 
z
" transform="scale(0.015625)"/>
       </defs>
       <use xlink:href="#DejaVuSans-30"/>
       <use xlink:href="#DejaVuSans-2e" x="63.623047"/>
       <use xlink:href="#DejaVuSans-36" x="95.410156"/>
      </g>
     </g>
    </g>
    <g id="xtick_5">
     <g id="line2d_5">
      <g>
       <use xlink:href="#m94fd9261e1" x="339.459174" y="307.584" style="stroke: #000000; stroke-width: 0.8"/>
      </g>
     </g>
     <g id="text_5">
      <!-- 0.8 -->
      <g transform="translate(331.507611 322.182437) scale(0.1 -0.1)">
       <defs>
        <path id="DejaVuSans-38" d="M 2034 2216 
Q 1584 2216 1326 1975 
Q 1069 1734 1069 1313 
Q 1069 891 1326 650 
Q 1584 409 2034 409 
Q 2484 409 2743 651 
Q 3003 894 3003 1313 
Q 3003 1734 2745 1975 
Q 2488 2216 2034 2216 
z
M 1403 2484 
Q 997 2584 770 2862 
Q 544 3141 544 3541 
Q 544 4100 942 4425 
Q 1341 4750 2034 4750 
Q 2731 4750 3128 4425 
Q 3525 4100 3525 3541 
Q 3525 3141 3298 2862 
Q 3072 2584 2669 2484 
Q 3125 2378 3379 2068 
Q 3634 1759 3634 1313 
Q 3634 634 3220 271 
Q 2806 -91 2034 -91 
Q 1263 -91 848 271 
Q 434 634 434 1313 
Q 434 1759 690 2068 
Q 947 2378 1403 2484 
z
M 1172 3481 
Q 1172 3119 1398 2916 
Q 1625 2713 2034 2713 
Q 2441 2713 2670 2916 
Q 2900 3119 2900 3481 
Q 2900 3844 2670 4047 
Q 2441 4250 2034 4250 
Q 1625 4250 1398 4047 
Q 1172 3844 1172 3481 
z
" transform="scale(0.015625)"/>
       </defs>
       <use xlink:href="#DejaVuSans-30"/>
       <use xlink:href="#DejaVuSans-2e" x="63.623047"/>
       <use xlink:href="#DejaVuSans-38" x="95.410156"/>
      </g>
     </g>
    </g>
    <g id="xtick_6">
     <g id="line2d_6">
      <g>
       <use xlink:href="#m94fd9261e1" x="398.487273" y="307.584" style="stroke: #000000; stroke-width: 0.8"/>
      </g>
     </g>
     <g id="text_6">
      <!-- 1.0 -->
      <g transform="translate(390.53571 322.182437) scale(0.1 -0.1)">
       <defs>
        <path id="DejaVuSans-31" d="M 794 531 
L 1825 531 
L 1825 4091 
L 703 3866 
L 703 4441 
L 1819 4666 
L 2450 4666 
L 2450 531 
L 3481 531 
L 3481 0 
L 794 0 
L 794 531 
z
" transform="scale(0.015625)"/>
       </defs>
       <use xlink:href="#DejaVuSans-31"/>
       <use xlink:href="#DejaVuSans-2e" x="63.623047"/>
       <use xlink:href="#DejaVuSans-30" x="95.410156"/>
      </g>
     </g>
    </g>
    <g id="text_7">
     <!-- Time (s) -->
     <g transform="translate(215.831094 335.860562) scale(0.1 -0.1)">
      <defs>
       <path id="DejaVuSans-54" d="M -19 4666 
L 3928 4666 
L 3928 4134 
L 2272 4134 
L 2272 0 
L 1638 0 
L 1638 4134 
L -19 4134 
L -19 4666 
z
" transform="scale(0.015625)"/>
       <path id="DejaVuSans-69" d="M 603 3500 
L 1178 3500 
L 1178 0 
L 603 0 
L 603 3500 
z
M 603 4863 
L 1178 4863 
L 1178 4134 
L 603 4134 
L 603 4863 
z
" transform="scale(0.015625)"/>
       <path id="DejaVuSans-6d" d="M 3328 2828 
Q 3544 3216 3844 3400 
Q 4144 3584 4550 3584 
Q 5097 3584 5394 3201 
Q 5691 2819 5691 2113 
L 5691 0 
L 5113 0 
L 5113 2094 
Q 5113 2597 4934 2840 
Q 4756 3084 4391 3084 
Q 3944 3084 3684 2787 
Q 3425 2491 3425 1978 
L 3425 0 
L 2847 0 
L 2847 2094 
Q 2847 2600 2669 2842 
Q 2491 3084 2119 3084 
Q 1678 3084 1418 2786 
Q 1159 2488 1159 1978 
L 1159 0 
L 581 0 
L 581 3500 
L 1159 3500 
L 1159 2956 
Q 1356 3278 1631 3431 
Q 1906 3584 2284 3584 
Q 2666 3584 2933 3390 
Q 3200 3197 3328 2828 
z
" transform="scale(0.015625)"/>
       <path id="DejaVuSans-65" d="M 3597 1894 
L 3597 1613 
L 953 1613 
Q 991 1019 1311 708 
Q 1631 397 2203 397 
Q 2534 397 2845 478 
Q 3156 559 3463 722 
L 3463 178 
Q 3153 47 2828 -22 
Q 2503 -91 2169 -91 
Q 1331 -91 842 396 
Q 353 884 353 1716 
Q 353 2575 817 3079 
Q 1281 3584 2069 3584 
Q 2775 3584 3186 3129 
Q 3597 2675 3597 1894 
z
M 3022 2063 
Q 3016 2534 2758 2815 
Q 2500 3097 2075 3097 
Q 1594 3097 1305 2825 
Q 1016 2553 972 2059 
L 3022 2063 
z
" transform="scale(0.015625)"/>
       <path id="DejaVuSans-20" transform="scale(0.015625)"/>
       <path id="DejaVuSans-28" d="M 1984 4856 
Q 1566 4138 1362 3434 
Q 1159 2731 1159 2009 
Q 1159 1288 1364 580 
Q 1569 -128 1984 -844 
L 1484 -844 
Q 1016 -109 783 600 
Q 550 1309 550 2009 
Q 550 2706 781 3412 
Q 1013 4119 1484 4856 
L 1984 4856 
z
" transform="scale(0.015625)"/>
       <path id="DejaVuSans-73" d="M 2834 3397 
L 2834 2853 
Q 2591 2978 2328 3040 
Q 2066 3103 1784 3103 
Q 1356 3103 1142 2972 
Q 928 2841 928 2578 
Q 928 2378 1081 2264 
Q 1234 2150 1697 2047 
L 1894 2003 
Q 2506 1872 2764 1633 
Q 3022 1394 3022 966 
Q 3022 478 2636 193 
Q 2250 -91 1575 -91 
Q 1294 -91 989 -36 
Q 684 19 347 128 
L 347 722 
Q 666 556 975 473 
Q 1284 391 1588 391 
Q 1994 391 2212 530 
Q 2431 669 2431 922 
Q 2431 1156 2273 1281 
Q 2116 1406 1581 1522 
L 1381 1569 
Q 847 1681 609 1914 
Q 372 2147 372 2553 
Q 372 3047 722 3315 
Q 1072 3584 1716 3584 
Q 2034 3584 2315 3537 
Q 2597 3491 2834 3397 
z
" transform="scale(0.015625)"/>
       <path id="DejaVuSans-29" d="M 513 4856 
L 1013 4856 
Q 1481 4119 1714 3412 
Q 1947 2706 1947 2009 
Q 1947 1309 1714 600 
Q 1481 -109 1013 -844 
L 513 -844 
Q 928 -128 1133 580 
Q 1338 1288 1338 2009 
Q 1338 2731 1133 3434 
Q 928 4138 513 4856 
z
" transform="scale(0.015625)"/>
      </defs>
      <use xlink:href="#DejaVuSans-54"/>
      <use xlink:href="#DejaVuSans-69" x="57.958984"/>
      <use xlink:href="#DejaVuSans-6d" x="85.742188"/>
      <use xlink:href="#DejaVuSans-65" x="183.154297"/>
      <use xlink:href="#DejaVuSans-20" x="244.677734"/>
      <use xlink:href="#DejaVuSans-28" x="276.464844"/>
      <use xlink:href="#DejaVuSans-73" x="315.478516"/>
      <use xlink:href="#DejaVuSans-29" x="367.578125"/>
     </g>
    </g>
   </g>
   <g id="matplotlib.axis_2">
    <g id="ytick_1">
     <g id="line2d_7">
      <defs>
       <path id="m75f3996e30" d="M 0 0 
L -3.5 0 
" style="stroke: #000000; stroke-width: 0.8"/>
      </defs>
      <g>
       <use xlink:href="#m75f3996e30" x="57.6" y="261.905097" style="stroke: #000000; stroke-width: 0.8"/>
      </g>
     </g>
     <g id="text_8">
      <!-- 0.00 -->
      <g transform="translate(28.334375 265.704316) scale(0.1 -0.1)">
       <use xlink:href="#DejaVuSans-30"/>
       <use xlink:href="#DejaVuSans-2e" x="63.623047"/>
       <use xlink:href="#DejaVuSans-30" x="95.410156"/>
       <use xlink:href="#DejaVuSans-30" x="159.033203"/>
      </g>
     </g>
    </g>
    <g id="ytick_2">
     <g id="line2d_8">
      <g>
       <use xlink:href="#m75f3996e30" x="57.6" y="206.876586" style="stroke: #000000; stroke-width: 0.8"/>
      </g>
     </g>
     <g id="text_9">
      <!-- 0.02 -->
      <g transform="translate(28.334375 210.675804) scale(0.1 -0.1)">
       <use xlink:href="#DejaVuSans-30"/>
       <use xlink:href="#DejaVuSans-2e" x="63.623047"/>
       <use xlink:href="#DejaVuSans-30" x="95.410156"/>
       <use xlink:href="#DejaVuSans-32" x="159.033203"/>
      </g>
     </g>
    </g>
    <g id="ytick_3">
     <g id="line2d_9">
      <g>
       <use xlink:href="#m75f3996e30" x="57.6" y="151.848074" style="stroke: #000000; stroke-width: 0.8"/>
      </g>
     </g>
     <g id="text_10">
      <!-- 0.04 -->
      <g transform="translate(28.334375 155.647293) scale(0.1 -0.1)">
       <use xlink:href="#DejaVuSans-30"/>
       <use xlink:href="#DejaVuSans-2e" x="63.623047"/>
       <use xlink:href="#DejaVuSans-30" x="95.410156"/>
       <use xlink:href="#DejaVuSans-34" x="159.033203"/>
      </g>
     </g>
    </g>
    <g id="ytick_4">
     <g id="line2d_10">
      <g>
       <use xlink:href="#m75f3996e30" x="57.6" y="96.819563" style="stroke: #000000; stroke-width: 0.8"/>
      </g>
     </g>
     <g id="text_11">
      <!-- 0.06 -->
      <g transform="translate(28.334375 100.618782) scale(0.1 -0.1)">
       <use xlink:href="#DejaVuSans-30"/>
       <use xlink:href="#DejaVuSans-2e" x="63.623047"/>
       <use xlink:href="#DejaVuSans-30" x="95.410156"/>
       <use xlink:href="#DejaVuSans-36" x="159.033203"/>
      </g>
     </g>
    </g>
    <g id="ytick_5">
     <g id="line2d_11">
      <g>
       <use xlink:href="#m75f3996e30" x="57.6" y="41.791051" style="stroke: #000000; stroke-width: 0.8"/>
      </g>
     </g>
     <g id="text_12">
      <!-- 0.08 -->
      <g transform="translate(28.334375 45.59027) scale(0.1 -0.1)">
       <use xlink:href="#DejaVuSans-30"/>
       <use xlink:href="#DejaVuSans-2e" x="63.623047"/>
       <use xlink:href="#DejaVuSans-30" x="95.410156"/>
       <use xlink:href="#DejaVuSans-38" x="159.033203"/>
      </g>
     </g>
    </g>
    <g id="text_13">
     <!-- Spearman Correlation -->
     <g transform="translate(22.254687 229.245969) rotate(-90) scale(0.1 -0.1)">
      <defs>
       <path id="DejaVuSans-53" d="M 3425 4513 
L 3425 3897 
Q 3066 4069 2747 4153 
Q 2428 4238 2131 4238 
Q 1616 4238 1336 4038 
Q 1056 3838 1056 3469 
Q 1056 3159 1242 3001 
Q 1428 2844 1947 2747 
L 2328 2669 
Q 3034 2534 3370 2195 
Q 3706 1856 3706 1288 
Q 3706 609 3251 259 
Q 2797 -91 1919 -91 
Q 1588 -91 1214 -16 
Q 841 59 441 206 
L 441 856 
Q 825 641 1194 531 
Q 1563 422 1919 422 
Q 2459 422 2753 634 
Q 3047 847 3047 1241 
Q 3047 1584 2836 1778 
Q 2625 1972 2144 2069 
L 1759 2144 
Q 1053 2284 737 2584 
Q 422 2884 422 3419 
Q 422 4038 858 4394 
Q 1294 4750 2059 4750 
Q 2388 4750 2728 4690 
Q 3069 4631 3425 4513 
z
" transform="scale(0.015625)"/>
       <path id="DejaVuSans-70" d="M 1159 525 
L 1159 -1331 
L 581 -1331 
L 581 3500 
L 1159 3500 
L 1159 2969 
Q 1341 3281 1617 3432 
Q 1894 3584 2278 3584 
Q 2916 3584 3314 3078 
Q 3713 2572 3713 1747 
Q 3713 922 3314 415 
Q 2916 -91 2278 -91 
Q 1894 -91 1617 61 
Q 1341 213 1159 525 
z
M 3116 1747 
Q 3116 2381 2855 2742 
Q 2594 3103 2138 3103 
Q 1681 3103 1420 2742 
Q 1159 2381 1159 1747 
Q 1159 1113 1420 752 
Q 1681 391 2138 391 
Q 2594 391 2855 752 
Q 3116 1113 3116 1747 
z
" transform="scale(0.015625)"/>
       <path id="DejaVuSans-61" d="M 2194 1759 
Q 1497 1759 1228 1600 
Q 959 1441 959 1056 
Q 959 750 1161 570 
Q 1363 391 1709 391 
Q 2188 391 2477 730 
Q 2766 1069 2766 1631 
L 2766 1759 
L 2194 1759 
z
M 3341 1997 
L 3341 0 
L 2766 0 
L 2766 531 
Q 2569 213 2275 61 
Q 1981 -91 1556 -91 
Q 1019 -91 701 211 
Q 384 513 384 1019 
Q 384 1609 779 1909 
Q 1175 2209 1959 2209 
L 2766 2209 
L 2766 2266 
Q 2766 2663 2505 2880 
Q 2244 3097 1772 3097 
Q 1472 3097 1187 3025 
Q 903 2953 641 2809 
L 641 3341 
Q 956 3463 1253 3523 
Q 1550 3584 1831 3584 
Q 2591 3584 2966 3190 
Q 3341 2797 3341 1997 
z
" transform="scale(0.015625)"/>
       <path id="DejaVuSans-72" d="M 2631 2963 
Q 2534 3019 2420 3045 
Q 2306 3072 2169 3072 
Q 1681 3072 1420 2755 
Q 1159 2438 1159 1844 
L 1159 0 
L 581 0 
L 581 3500 
L 1159 3500 
L 1159 2956 
Q 1341 3275 1631 3429 
Q 1922 3584 2338 3584 
Q 2397 3584 2469 3576 
Q 2541 3569 2628 3553 
L 2631 2963 
z
" transform="scale(0.015625)"/>
       <path id="DejaVuSans-6e" d="M 3513 2113 
L 3513 0 
L 2938 0 
L 2938 2094 
Q 2938 2591 2744 2837 
Q 2550 3084 2163 3084 
Q 1697 3084 1428 2787 
Q 1159 2491 1159 1978 
L 1159 0 
L 581 0 
L 581 3500 
L 1159 3500 
L 1159 2956 
Q 1366 3272 1645 3428 
Q 1925 3584 2291 3584 
Q 2894 3584 3203 3211 
Q 3513 2838 3513 2113 
z
" transform="scale(0.015625)"/>
       <path id="DejaVuSans-43" d="M 4122 4306 
L 4122 3641 
Q 3803 3938 3442 4084 
Q 3081 4231 2675 4231 
Q 1875 4231 1450 3742 
Q 1025 3253 1025 2328 
Q 1025 1406 1450 917 
Q 1875 428 2675 428 
Q 3081 428 3442 575 
Q 3803 722 4122 1019 
L 4122 359 
Q 3791 134 3420 21 
Q 3050 -91 2638 -91 
Q 1578 -91 968 557 
Q 359 1206 359 2328 
Q 359 3453 968 4101 
Q 1578 4750 2638 4750 
Q 3056 4750 3426 4639 
Q 3797 4528 4122 4306 
z
" transform="scale(0.015625)"/>
       <path id="DejaVuSans-6f" d="M 1959 3097 
Q 1497 3097 1228 2736 
Q 959 2375 959 1747 
Q 959 1119 1226 758 
Q 1494 397 1959 397 
Q 2419 397 2687 759 
Q 2956 1122 2956 1747 
Q 2956 2369 2687 2733 
Q 2419 3097 1959 3097 
z
M 1959 3584 
Q 2709 3584 3137 3096 
Q 3566 2609 3566 1747 
Q 3566 888 3137 398 
Q 2709 -91 1959 -91 
Q 1206 -91 779 398 
Q 353 888 353 1747 
Q 353 2609 779 3096 
Q 1206 3584 1959 3584 
z
" transform="scale(0.015625)"/>
       <path id="DejaVuSans-6c" d="M 603 4863 
L 1178 4863 
L 1178 0 
L 603 0 
L 603 4863 
z
" transform="scale(0.015625)"/>
       <path id="DejaVuSans-74" d="M 1172 4494 
L 1172 3500 
L 2356 3500 
L 2356 3053 
L 1172 3053 
L 1172 1153 
Q 1172 725 1289 603 
Q 1406 481 1766 481 
L 2356 481 
L 2356 0 
L 1766 0 
Q 1100 0 847 248 
Q 594 497 594 1153 
L 594 3053 
L 172 3053 
L 172 3500 
L 594 3500 
L 594 4494 
L 1172 4494 
z
" transform="scale(0.015625)"/>
      </defs>
      <use xlink:href="#DejaVuSans-53"/>
      <use xlink:href="#DejaVuSans-70" x="63.476562"/>
      <use xlink:href="#DejaVuSans-65" x="126.953125"/>
      <use xlink:href="#DejaVuSans-61" x="188.476562"/>
      <use xlink:href="#DejaVuSans-72" x="249.755859"/>
      <use xlink:href="#DejaVuSans-6d" x="289.119141"/>
      <use xlink:href="#DejaVuSans-61" x="386.53125"/>
      <use xlink:href="#DejaVuSans-6e" x="447.810547"/>
      <use xlink:href="#DejaVuSans-20" x="511.189453"/>
      <use xlink:href="#DejaVuSans-43" x="542.976562"/>
      <use xlink:href="#DejaVuSans-6f" x="612.800781"/>
      <use xlink:href="#DejaVuSans-72" x="673.982422"/>
      <use xlink:href="#DejaVuSans-72" x="713.345703"/>
      <use xlink:href="#DejaVuSans-65" x="752.208984"/>
      <use xlink:href="#DejaVuSans-6c" x="813.732422"/>
      <use xlink:href="#DejaVuSans-61" x="841.515625"/>
      <use xlink:href="#DejaVuSans-74" x="902.794922"/>
      <use xlink:href="#DejaVuSans-69" x="942.003906"/>
      <use xlink:href="#DejaVuSans-6f" x="969.787109"/>
      <use xlink:href="#DejaVuSans-6e" x="1030.96875"/>
     </g>
    </g>
   </g>
   <g id="line2d_12">
    <path d="M 103.346777 307.584 
L 103.346777 41.472 
" clip-path="url(#p6522ab72d6)" style="fill: none; stroke-dasharray: 5.55,2.4; stroke-dashoffset: 0; stroke: #d3d3d3; stroke-width: 1.5"/>
   </g>
   <g id="line2d_13">
    <path d="M 57.6 261.905097 
L 414.72 261.905097 
" clip-path="url(#p6522ab72d6)" style="fill: none; stroke-dasharray: 5.55,2.4; stroke-dashoffset: 0; stroke: #d3d3d3; stroke-width: 1.5"/>
   </g>
   <g id="line2d_14">
    <path d="M 73.832727 274.073974 
L 76.151688 270.878635 
L 78.470649 267.895481 
L 80.78961 260.239464 
L 83.108571 257.378981 
L 85.427532 271.963253 
L 87.746494 273.48937 
L 90.065455 266.853422 
L 92.384416 264.874853 
L 94.703377 263.465964 
L 97.022338 264.464566 
L 99.341299 268.254036 
L 103.979221 251.860042 
L 106.298182 253.0837 
L 108.617143 256.038609 
L 110.936104 255.646316 
L 113.255065 254.197032 
L 115.574026 262.254434 
L 117.892987 278.39747 
L 120.211948 279.351384 
L 122.530909 245.47903 
L 124.84987 185.202329 
L 127.168831 154.20235 
L 129.487792 143.305707 
L 131.806753 142.825064 
L 134.125714 142.549819 
L 136.444675 136.751604 
L 138.763636 129.652837 
L 141.082597 133.855354 
L 143.401558 142.235914 
L 145.720519 138.872428 
L 148.039481 122.358386 
L 150.358442 109.522704 
L 152.677403 113.493035 
L 154.996364 120.490482 
L 157.315325 120.928613 
L 159.634286 115.618098 
L 161.953247 105.408963 
L 164.272208 96.122705 
L 166.591169 90.382325 
L 168.91013 85.104754 
L 171.229091 81.091129 
L 173.548052 80.232011 
L 175.867013 82.264866 
L 178.185974 87.62794 
L 180.504935 94.586041 
L 182.823896 102.080081 
L 185.142857 106.97044 
L 187.461818 109.606361 
L 189.780779 113.546941 
L 192.09974 120.079757 
L 194.418701 127.540342 
L 199.056623 139.94097 
L 201.375584 145.463453 
L 203.694545 148.566566 
L 206.013506 152.912152 
L 208.332468 159.030403 
L 210.651429 163.367631 
L 212.97039 164.65256 
L 215.289351 163.533579 
L 217.608312 163.212766 
L 219.927273 165.461083 
L 222.246234 165.961047 
L 224.565195 162.976309 
L 226.884156 159.506264 
L 229.203117 155.797663 
L 231.522078 153.068025 
L 233.841039 154.357387 
L 236.16 160.956233 
L 238.478961 170.150145 
L 240.797922 178.73717 
L 245.435844 194.732806 
L 247.754805 202.208133 
L 250.073766 208.562084 
L 252.392727 213.25851 
L 254.711688 216.261133 
L 257.030649 217.198253 
L 259.34961 214.639759 
L 261.668571 210.153316 
L 263.987532 203.870667 
L 266.306494 200.044509 
L 270.944416 198.14963 
L 273.263377 196.082427 
L 275.582338 193.797716 
L 277.901299 192.323765 
L 280.22026 195.025672 
L 282.539221 201.977208 
L 284.858182 210.396933 
L 287.177143 216.603872 
L 289.496104 219.827858 
L 291.815065 221.240526 
L 294.134026 224.708805 
L 296.452987 229.545771 
L 298.771948 231.700612 
L 301.090909 232.769679 
L 303.40987 235.144625 
L 305.728831 237.155647 
L 308.047792 238.128098 
L 310.366753 239.272757 
L 312.685714 240.801756 
L 315.004675 241.7901 
L 317.323636 241.280489 
L 319.642597 239.265514 
L 321.961558 235.284327 
L 324.280519 230.293056 
L 326.599481 225.663752 
L 328.918442 224.127458 
L 331.237403 222.786095 
L 333.556364 220.025339 
L 335.875325 216.502542 
L 338.194286 213.478479 
L 340.513247 209.739632 
L 342.832208 205.63424 
L 345.151169 204.818752 
L 347.47013 209.434643 
L 352.108052 227.685224 
L 354.427013 233.544006 
L 356.745974 236.954776 
L 359.064935 236.584075 
L 361.383896 232.671448 
L 366.021818 218.177918 
L 368.340779 213.664066 
L 370.65974 213.069482 
L 372.978701 215.394002 
L 375.297662 220.792963 
L 379.935584 235.114605 
L 382.254545 238.585716 
L 384.573506 238.536044 
L 386.892468 236.071603 
L 389.211429 234.918379 
L 393.849351 235.603345 
L 396.168312 235.098078 
L 398.487273 235.16438 
L 398.487273 235.16438 
" clip-path="url(#p6522ab72d6)" style="fill: none; stroke: #ff2c55; stroke-linecap: square"/>
   </g>
   <g id="line2d_15">
    <path d="M 73.832727 275.983181 
L 76.151688 275.873027 
L 78.470649 271.325371 
L 80.78961 269.65214 
L 83.108571 271.983039 
L 87.746494 283.886392 
L 90.065455 284.255467 
L 92.384416 281.136421 
L 94.703377 281.620042 
L 97.022338 276.45443 
L 99.341299 269.98296 
L 103.979221 253.103025 
L 106.298182 245.108068 
L 108.617143 244.402556 
L 110.936104 243.414832 
L 113.255065 240.251779 
L 115.574026 241.059409 
L 117.892987 251.873622 
L 120.211948 265.883695 
L 122.530909 261.113527 
L 127.168831 199.048609 
L 129.487792 180.844168 
L 131.806753 173.483426 
L 134.125714 179.961089 
L 136.444675 196.741389 
L 143.401558 244.430421 
L 145.720519 255.872039 
L 148.039481 258.625209 
L 150.358442 255.323454 
L 152.677403 245.623645 
L 154.996364 233.561704 
L 157.315325 224.632225 
L 159.634286 222.114266 
L 161.953247 220.690159 
L 166.591169 216.867486 
L 168.91013 217.241566 
L 171.229091 218.252968 
L 173.548052 218.997523 
L 175.867013 217.090751 
L 178.185974 212.584748 
L 180.504935 206.271942 
L 182.823896 201.256235 
L 185.142857 196.91388 
L 187.461818 192.138268 
L 189.780779 189.101533 
L 192.09974 190.11779 
L 194.418701 193.471811 
L 196.737662 198.418911 
L 199.056623 205.085976 
L 203.694545 221.457107 
L 208.332468 239.488769 
L 210.651429 244.902726 
L 212.97039 244.652982 
L 215.289351 241.395229 
L 217.608312 239.545547 
L 219.927273 239.589503 
L 222.246234 240.150153 
L 224.565195 239.693274 
L 226.884156 240.039057 
L 229.203117 240.847954 
L 231.522078 242.639604 
L 233.841039 246.066179 
L 236.16 251.609841 
L 238.478961 258.068784 
L 240.797922 263.542254 
L 243.116883 267.60611 
L 245.435844 269.111887 
L 247.754805 266.905157 
L 250.073766 262.298631 
L 252.392727 258.175186 
L 254.711688 256.434973 
L 257.030649 256.091869 
L 259.34961 254.591109 
L 261.668571 251.634743 
L 263.987532 246.029836 
L 266.306494 239.856392 
L 268.625455 235.388419 
L 270.944416 232.418853 
L 273.263377 232.283795 
L 275.582338 235.138574 
L 277.901299 238.826807 
L 280.22026 241.977505 
L 282.539221 245.9101 
L 284.858182 249.476507 
L 287.177143 252.001298 
L 289.496104 252.798283 
L 291.815065 253.340586 
L 294.134026 255.664085 
L 296.452987 259.06056 
L 298.771948 261.562496 
L 301.090909 263.226263 
L 303.40987 264.687116 
L 305.728831 264.833588 
L 308.047792 265.221183 
L 310.366753 266.332916 
L 312.685714 267.304237 
L 315.004675 267.756417 
L 317.323636 267.972774 
L 319.642597 267.113501 
L 321.961558 265.600978 
L 324.280519 264.408829 
L 326.599481 264.524195 
L 328.918442 265.133533 
L 331.237403 264.998179 
L 333.556364 264.357814 
L 335.875325 263.105179 
L 338.194286 261.44351 
L 340.513247 258.540528 
L 342.832208 254.561239 
L 345.151169 252.340774 
L 347.47013 253.477638 
L 349.789091 258.14599 
L 352.108052 264.120562 
L 354.427013 268.226267 
L 356.745974 270.234122 
L 359.064935 270.239307 
L 361.383896 269.062486 
L 363.702857 266.588217 
L 366.021818 264.732223 
L 368.340779 264.628261 
L 370.65974 266.193103 
L 372.978701 268.553184 
L 377.616623 275.474862 
L 379.935584 276.903063 
L 382.254545 274.726118 
L 384.573506 269.539613 
L 386.892468 263.966467 
L 389.211429 261.143404 
L 391.53039 262.47467 
L 396.168312 270.967381 
L 398.487273 274.168189 
L 398.487273 274.168189 
" clip-path="url(#p6522ab72d6)" style="fill: none; stroke: #0974f1; stroke-linecap: square"/>
   </g>
   <g id="line2d_16">
    <path d="M 173.548052 307.584 
L 173.548052 41.472 
" clip-path="url(#p6522ab72d6)" style="fill: none; stroke-dasharray: 5.55,2.4; stroke-dashoffset: 0; stroke: #ff2c55; stroke-width: 1.5"/>
   </g>
   <g id="line2d_17">
    <path d="M 131.806753 307.584 
L 131.806753 41.472 
" clip-path="url(#p6522ab72d6)" style="fill: none; stroke-dasharray: 5.55,2.4; stroke-dashoffset: 0; stroke: #0974f1; stroke-width: 1.5"/>
   </g>
   <g id="patch_3">
    <path d="M 57.6 307.584 
L 57.6 41.472 
" style="fill: none; stroke: #000000; stroke-width: 0.8; stroke-linejoin: miter; stroke-linecap: square"/>
   </g>
   <g id="patch_4">
    <path d="M 57.6 307.584 
L 414.72 307.584 
" style="fill: none; stroke: #000000; stroke-width: 0.8; stroke-linejoin: miter; stroke-linecap: square"/>
   </g>
   <g id="text_14">
    <!-- . -->
    <g style="fill: #ff2c55" transform="translate(124.84987 296.863713) scale(0.15 -0.15)">
     <use xlink:href="#DejaVuSans-2e"/>
    </g>
   </g>
   <g id="text_15">
    <!-- . -->
    <g style="fill: #ff2c55" transform="translate(127.168831 296.863713) scale(0.15 -0.15)">
     <use xlink:href="#DejaVuSans-2e"/>
    </g>
   </g>
   <g id="text_16">
    <!-- . -->
    <g style="fill: #ff2c55" transform="translate(129.487792 296.863713) scale(0.15 -0.15)">
     <use xlink:href="#DejaVuSans-2e"/>
    </g>
   </g>
   <g id="text_17">
    <!-- . -->
    <g style="fill: #ff2c55" transform="translate(131.806753 296.863713) scale(0.15 -0.15)">
     <use xlink:href="#DejaVuSans-2e"/>
    </g>
   </g>
   <g id="text_18">
    <!-- . -->
    <g style="fill: #ff2c55" transform="translate(134.125714 296.863713) scale(0.15 -0.15)">
     <use xlink:href="#DejaVuSans-2e"/>
    </g>
   </g>
   <g id="text_19">
    <!-- . -->
    <g style="fill: #ff2c55" transform="translate(136.444675 296.863713) scale(0.15 -0.15)">
     <use xlink:href="#DejaVuSans-2e"/>
    </g>
   </g>
   <g id="text_20">
    <!-- . -->
    <g style="fill: #ff2c55" transform="translate(138.763636 296.863713) scale(0.15 -0.15)">
     <use xlink:href="#DejaVuSans-2e"/>
    </g>
   </g>
   <g id="text_21">
    <!-- . -->
    <g style="fill: #ff2c55" transform="translate(141.082597 296.863713) scale(0.15 -0.15)">
     <use xlink:href="#DejaVuSans-2e"/>
    </g>
   </g>
   <g id="text_22">
    <!-- . -->
    <g style="fill: #ff2c55" transform="translate(143.401558 296.863713) scale(0.15 -0.15)">
     <use xlink:href="#DejaVuSans-2e"/>
    </g>
   </g>
   <g id="text_23">
    <!-- . -->
    <g style="fill: #ff2c55" transform="translate(145.720519 296.863713) scale(0.15 -0.15)">
     <use xlink:href="#DejaVuSans-2e"/>
    </g>
   </g>
   <g id="text_24">
    <!-- . -->
    <g style="fill: #ff2c55" transform="translate(148.039481 296.863713) scale(0.15 -0.15)">
     <use xlink:href="#DejaVuSans-2e"/>
    </g>
   </g>
   <g id="text_25">
    <!-- . -->
    <g style="fill: #ff2c55" transform="translate(150.358442 296.863713) scale(0.15 -0.15)">
     <use xlink:href="#DejaVuSans-2e"/>
    </g>
   </g>
   <g id="text_26">
    <!-- . -->
    <g style="fill: #ff2c55" transform="translate(152.677403 296.863713) scale(0.15 -0.15)">
     <use xlink:href="#DejaVuSans-2e"/>
    </g>
   </g>
   <g id="text_27">
    <!-- . -->
    <g style="fill: #ff2c55" transform="translate(154.996364 296.863713) scale(0.15 -0.15)">
     <use xlink:href="#DejaVuSans-2e"/>
    </g>
   </g>
   <g id="text_28">
    <!-- . -->
    <g style="fill: #ff2c55" transform="translate(157.315325 296.863713) scale(0.15 -0.15)">
     <use xlink:href="#DejaVuSans-2e"/>
    </g>
   </g>
   <g id="text_29">
    <!-- . -->
    <g style="fill: #ff2c55" transform="translate(159.634286 296.863713) scale(0.15 -0.15)">
     <use xlink:href="#DejaVuSans-2e"/>
    </g>
   </g>
   <g id="text_30">
    <!-- . -->
    <g style="fill: #ff2c55" transform="translate(161.953247 296.863713) scale(0.15 -0.15)">
     <use xlink:href="#DejaVuSans-2e"/>
    </g>
   </g>
   <g id="text_31">
    <!-- . -->
    <g style="fill: #ff2c55" transform="translate(164.272208 296.863713) scale(0.15 -0.15)">
     <use xlink:href="#DejaVuSans-2e"/>
    </g>
   </g>
   <g id="text_32">
    <!-- . -->
    <g style="fill: #ff2c55" transform="translate(166.591169 296.863713) scale(0.15 -0.15)">
     <use xlink:href="#DejaVuSans-2e"/>
    </g>
   </g>
   <g id="text_33">
    <!-- . -->
    <g style="fill: #ff2c55" transform="translate(168.91013 296.863713) scale(0.15 -0.15)">
     <use xlink:href="#DejaVuSans-2e"/>
    </g>
   </g>
   <g id="text_34">
    <!-- . -->
    <g style="fill: #ff2c55" transform="translate(171.229091 296.863713) scale(0.15 -0.15)">
     <use xlink:href="#DejaVuSans-2e"/>
    </g>
   </g>
   <g id="text_35">
    <!-- . -->
    <g style="fill: #ff2c55" transform="translate(173.548052 296.863713) scale(0.15 -0.15)">
     <use xlink:href="#DejaVuSans-2e"/>
    </g>
   </g>
   <g id="text_36">
    <!-- . -->
    <g style="fill: #ff2c55" transform="translate(175.867013 296.863713) scale(0.15 -0.15)">
     <use xlink:href="#DejaVuSans-2e"/>
    </g>
   </g>
   <g id="text_37">
    <!-- . -->
    <g style="fill: #ff2c55" transform="translate(178.185974 296.863713) scale(0.15 -0.15)">
     <use xlink:href="#DejaVuSans-2e"/>
    </g>
   </g>
   <g id="text_38">
    <!-- . -->
    <g style="fill: #ff2c55" transform="translate(180.504935 296.863713) scale(0.15 -0.15)">
     <use xlink:href="#DejaVuSans-2e"/>
    </g>
   </g>
   <g id="text_39">
    <!-- . -->
    <g style="fill: #ff2c55" transform="translate(182.823896 296.863713) scale(0.15 -0.15)">
     <use xlink:href="#DejaVuSans-2e"/>
    </g>
   </g>
   <g id="text_40">
    <!-- . -->
    <g style="fill: #ff2c55" transform="translate(185.142857 296.863713) scale(0.15 -0.15)">
     <use xlink:href="#DejaVuSans-2e"/>
    </g>
   </g>
   <g id="text_41">
    <!-- . -->
    <g style="fill: #ff2c55" transform="translate(187.461818 296.863713) scale(0.15 -0.15)">
     <use xlink:href="#DejaVuSans-2e"/>
    </g>
   </g>
   <g id="text_42">
    <!-- . -->
    <g style="fill: #ff2c55" transform="translate(189.780779 296.863713) scale(0.15 -0.15)">
     <use xlink:href="#DejaVuSans-2e"/>
    </g>
   </g>
   <g id="text_43">
    <!-- . -->
    <g style="fill: #ff2c55" transform="translate(192.09974 296.863713) scale(0.15 -0.15)">
     <use xlink:href="#DejaVuSans-2e"/>
    </g>
   </g>
   <g id="text_44">
    <!-- . -->
    <g style="fill: #ff2c55" transform="translate(194.418701 296.863713) scale(0.15 -0.15)">
     <use xlink:href="#DejaVuSans-2e"/>
    </g>
   </g>
   <g id="text_45">
    <!-- . -->
    <g style="fill: #ff2c55" transform="translate(196.737662 296.863713) scale(0.15 -0.15)">
     <use xlink:href="#DejaVuSans-2e"/>
    </g>
   </g>
   <g id="text_46">
    <!-- . -->
    <g style="fill: #ff2c55" transform="translate(199.056623 296.863713) scale(0.15 -0.15)">
     <use xlink:href="#DejaVuSans-2e"/>
    </g>
   </g>
   <g id="text_47">
    <!-- . -->
    <g style="fill: #ff2c55" transform="translate(201.375584 296.863713) scale(0.15 -0.15)">
     <use xlink:href="#DejaVuSans-2e"/>
    </g>
   </g>
   <g id="text_48">
    <!-- . -->
    <g style="fill: #ff2c55" transform="translate(203.694545 296.863713) scale(0.15 -0.15)">
     <use xlink:href="#DejaVuSans-2e"/>
    </g>
   </g>
   <g id="text_49">
    <!-- . -->
    <g style="fill: #ff2c55" transform="translate(206.013506 296.863713) scale(0.15 -0.15)">
     <use xlink:href="#DejaVuSans-2e"/>
    </g>
   </g>
   <g id="text_50">
    <!-- . -->
    <g style="fill: #ff2c55" transform="translate(208.332468 296.863713) scale(0.15 -0.15)">
     <use xlink:href="#DejaVuSans-2e"/>
    </g>
   </g>
   <g id="text_51">
    <!-- . -->
    <g style="fill: #ff2c55" transform="translate(210.651429 296.863713) scale(0.15 -0.15)">
     <use xlink:href="#DejaVuSans-2e"/>
    </g>
   </g>
   <g id="text_52">
    <!-- . -->
    <g style="fill: #ff2c55" transform="translate(212.97039 296.863713) scale(0.15 -0.15)">
     <use xlink:href="#DejaVuSans-2e"/>
    </g>
   </g>
   <g id="text_53">
    <!-- . -->
    <g style="fill: #ff2c55" transform="translate(215.289351 296.863713) scale(0.15 -0.15)">
     <use xlink:href="#DejaVuSans-2e"/>
    </g>
   </g>
   <g id="text_54">
    <!-- . -->
    <g style="fill: #ff2c55" transform="translate(217.608312 296.863713) scale(0.15 -0.15)">
     <use xlink:href="#DejaVuSans-2e"/>
    </g>
   </g>
   <g id="text_55">
    <!-- . -->
    <g style="fill: #ff2c55" transform="translate(219.927273 296.863713) scale(0.15 -0.15)">
     <use xlink:href="#DejaVuSans-2e"/>
    </g>
   </g>
   <g id="text_56">
    <!-- . -->
    <g style="fill: #ff2c55" transform="translate(222.246234 296.863713) scale(0.15 -0.15)">
     <use xlink:href="#DejaVuSans-2e"/>
    </g>
   </g>
   <g id="text_57">
    <!-- . -->
    <g style="fill: #ff2c55" transform="translate(224.565195 296.863713) scale(0.15 -0.15)">
     <use xlink:href="#DejaVuSans-2e"/>
    </g>
   </g>
   <g id="text_58">
    <!-- . -->
    <g style="fill: #ff2c55" transform="translate(226.884156 296.863713) scale(0.15 -0.15)">
     <use xlink:href="#DejaVuSans-2e"/>
    </g>
   </g>
   <g id="text_59">
    <!-- . -->
    <g style="fill: #ff2c55" transform="translate(229.203117 296.863713) scale(0.15 -0.15)">
     <use xlink:href="#DejaVuSans-2e"/>
    </g>
   </g>
   <g id="text_60">
    <!-- . -->
    <g style="fill: #ff2c55" transform="translate(231.522078 296.863713) scale(0.15 -0.15)">
     <use xlink:href="#DejaVuSans-2e"/>
    </g>
   </g>
   <g id="text_61">
    <!-- . -->
    <g style="fill: #ff2c55" transform="translate(233.841039 296.863713) scale(0.15 -0.15)">
     <use xlink:href="#DejaVuSans-2e"/>
    </g>
   </g>
   <g id="text_62">
    <!-- . -->
    <g style="fill: #ff2c55" transform="translate(236.16 296.863713) scale(0.15 -0.15)">
     <use xlink:href="#DejaVuSans-2e"/>
    </g>
   </g>
   <g id="text_63">
    <!-- . -->
    <g style="fill: #0974f1" transform="translate(131.806753 300.990851) scale(0.15 -0.15)">
     <use xlink:href="#DejaVuSans-2e"/>
    </g>
   </g>
   <g id="text_64">
    <!-- . -->
    <g style="fill: #0974f1" transform="translate(134.125714 300.990851) scale(0.15 -0.15)">
     <use xlink:href="#DejaVuSans-2e"/>
    </g>
   </g>
   <g id="text_65">
    <!-- . -->
    <g transform="translate(138.763636 305.117989) scale(0.15 -0.15)">
     <use xlink:href="#DejaVuSans-2e"/>
    </g>
   </g>
   <g id="text_66">
    <!-- . -->
    <g transform="translate(145.720519 305.117989) scale(0.15 -0.15)">
     <use xlink:href="#DejaVuSans-2e"/>
    </g>
   </g>
   <g id="text_67">
    <!-- . -->
    <g transform="translate(148.039481 305.117989) scale(0.15 -0.15)">
     <use xlink:href="#DejaVuSans-2e"/>
    </g>
   </g>
   <g id="text_68">
    <!-- . -->
    <g transform="translate(150.358442 305.117989) scale(0.15 -0.15)">
     <use xlink:href="#DejaVuSans-2e"/>
    </g>
   </g>
   <g id="text_69">
    <!-- . -->
    <g transform="translate(152.677403 305.117989) scale(0.15 -0.15)">
     <use xlink:href="#DejaVuSans-2e"/>
    </g>
   </g>
   <g id="text_70">
    <!-- . -->
    <g transform="translate(154.996364 305.117989) scale(0.15 -0.15)">
     <use xlink:href="#DejaVuSans-2e"/>
    </g>
   </g>
   <g id="text_71">
    <!-- . -->
    <g transform="translate(159.634286 305.117989) scale(0.15 -0.15)">
     <use xlink:href="#DejaVuSans-2e"/>
    </g>
   </g>
   <g id="text_72">
    <!-- . -->
    <g transform="translate(161.953247 305.117989) scale(0.15 -0.15)">
     <use xlink:href="#DejaVuSans-2e"/>
    </g>
   </g>
   <g id="text_73">
    <!-- . -->
    <g transform="translate(164.272208 305.117989) scale(0.15 -0.15)">
     <use xlink:href="#DejaVuSans-2e"/>
    </g>
   </g>
   <g id="text_74">
    <!-- . -->
    <g transform="translate(166.591169 305.117989) scale(0.15 -0.15)">
     <use xlink:href="#DejaVuSans-2e"/>
    </g>
   </g>
   <g id="text_75">
    <!-- . -->
    <g transform="translate(168.91013 305.117989) scale(0.15 -0.15)">
     <use xlink:href="#DejaVuSans-2e"/>
    </g>
   </g>
   <g id="text_76">
    <!-- . -->
    <g transform="translate(171.229091 305.117989) scale(0.15 -0.15)">
     <use xlink:href="#DejaVuSans-2e"/>
    </g>
   </g>
   <g id="text_77">
    <!-- . -->
    <g transform="translate(173.548052 305.117989) scale(0.15 -0.15)">
     <use xlink:href="#DejaVuSans-2e"/>
    </g>
   </g>
   <g id="text_78">
    <!-- . -->
    <g transform="translate(175.867013 305.117989) scale(0.15 -0.15)">
     <use xlink:href="#DejaVuSans-2e"/>
    </g>
   </g>
   <g id="text_79">
    <!-- . -->
    <g transform="translate(178.185974 305.117989) scale(0.15 -0.15)">
     <use xlink:href="#DejaVuSans-2e"/>
    </g>
   </g>
   <g id="text_80">
    <!-- . -->
    <g transform="translate(180.504935 305.117989) scale(0.15 -0.15)">
     <use xlink:href="#DejaVuSans-2e"/>
    </g>
   </g>
   <g id="text_81">
    <!-- . -->
    <g transform="translate(182.823896 305.117989) scale(0.15 -0.15)">
     <use xlink:href="#DejaVuSans-2e"/>
    </g>
   </g>
   <g id="text_82">
    <!-- . -->
    <g transform="translate(185.142857 305.117989) scale(0.15 -0.15)">
     <use xlink:href="#DejaVuSans-2e"/>
    </g>
   </g>
   <g id="legend_1">
    <g id="patch_5">
     <path d="M 274.987188 78.82825 
L 407.72 78.82825 
Q 409.72 78.82825 409.72 76.82825 
L 409.72 48.472 
Q 409.72 46.472 407.72 46.472 
L 274.987188 46.472 
Q 272.987188 46.472 272.987188 48.472 
L 272.987188 76.82825 
Q 272.987188 78.82825 274.987188 78.82825 
z
" style="fill: #ffffff; opacity: 0.8; stroke: #cccccc; stroke-linejoin: miter"/>
    </g>
    <g id="line2d_18">
     <path d="M 276.987188 54.570437 
L 286.987188 54.570437 
L 296.987188 54.570437 
" style="fill: none; stroke: #ff2c55; stroke-linecap: square"/>
    </g>
    <g id="text_83">
     <!-- Affordances (online) -->
     <g transform="translate(304.987188 58.070437) scale(0.1 -0.1)">
      <defs>
       <path id="DejaVuSans-41" d="M 2188 4044 
L 1331 1722 
L 3047 1722 
L 2188 4044 
z
M 1831 4666 
L 2547 4666 
L 4325 0 
L 3669 0 
L 3244 1197 
L 1141 1197 
L 716 0 
L 50 0 
L 1831 4666 
z
" transform="scale(0.015625)"/>
       <path id="DejaVuSans-66" d="M 2375 4863 
L 2375 4384 
L 1825 4384 
Q 1516 4384 1395 4259 
Q 1275 4134 1275 3809 
L 1275 3500 
L 2222 3500 
L 2222 3053 
L 1275 3053 
L 1275 0 
L 697 0 
L 697 3053 
L 147 3053 
L 147 3500 
L 697 3500 
L 697 3744 
Q 697 4328 969 4595 
Q 1241 4863 1831 4863 
L 2375 4863 
z
" transform="scale(0.015625)"/>
       <path id="DejaVuSans-64" d="M 2906 2969 
L 2906 4863 
L 3481 4863 
L 3481 0 
L 2906 0 
L 2906 525 
Q 2725 213 2448 61 
Q 2172 -91 1784 -91 
Q 1150 -91 751 415 
Q 353 922 353 1747 
Q 353 2572 751 3078 
Q 1150 3584 1784 3584 
Q 2172 3584 2448 3432 
Q 2725 3281 2906 2969 
z
M 947 1747 
Q 947 1113 1208 752 
Q 1469 391 1925 391 
Q 2381 391 2643 752 
Q 2906 1113 2906 1747 
Q 2906 2381 2643 2742 
Q 2381 3103 1925 3103 
Q 1469 3103 1208 2742 
Q 947 2381 947 1747 
z
" transform="scale(0.015625)"/>
       <path id="DejaVuSans-63" d="M 3122 3366 
L 3122 2828 
Q 2878 2963 2633 3030 
Q 2388 3097 2138 3097 
Q 1578 3097 1268 2742 
Q 959 2388 959 1747 
Q 959 1106 1268 751 
Q 1578 397 2138 397 
Q 2388 397 2633 464 
Q 2878 531 3122 666 
L 3122 134 
Q 2881 22 2623 -34 
Q 2366 -91 2075 -91 
Q 1284 -91 818 406 
Q 353 903 353 1747 
Q 353 2603 823 3093 
Q 1294 3584 2113 3584 
Q 2378 3584 2631 3529 
Q 2884 3475 3122 3366 
z
" transform="scale(0.015625)"/>
      </defs>
      <use xlink:href="#DejaVuSans-41"/>
      <use xlink:href="#DejaVuSans-66" x="64.783203"/>
      <use xlink:href="#DejaVuSans-66" x="99.988281"/>
      <use xlink:href="#DejaVuSans-6f" x="135.193359"/>
      <use xlink:href="#DejaVuSans-72" x="196.375"/>
      <use xlink:href="#DejaVuSans-64" x="235.738281"/>
      <use xlink:href="#DejaVuSans-61" x="299.214844"/>
      <use xlink:href="#DejaVuSans-6e" x="360.494141"/>
      <use xlink:href="#DejaVuSans-63" x="423.873047"/>
      <use xlink:href="#DejaVuSans-65" x="478.853516"/>
      <use xlink:href="#DejaVuSans-73" x="540.376953"/>
      <use xlink:href="#DejaVuSans-20" x="592.476562"/>
      <use xlink:href="#DejaVuSans-28" x="624.263672"/>
      <use xlink:href="#DejaVuSans-6f" x="663.277344"/>
      <use xlink:href="#DejaVuSans-6e" x="724.458984"/>
      <use xlink:href="#DejaVuSans-6c" x="787.837891"/>
      <use xlink:href="#DejaVuSans-69" x="815.621094"/>
      <use xlink:href="#DejaVuSans-6e" x="843.404297"/>
      <use xlink:href="#DejaVuSans-65" x="906.783203"/>
      <use xlink:href="#DejaVuSans-29" x="968.306641"/>
     </g>
    </g>
    <g id="line2d_19">
     <path d="M 276.987188 69.248562 
L 286.987188 69.248562 
L 296.987188 69.248562 
" style="fill: none; stroke: #0974f1; stroke-linecap: square"/>
    </g>
    <g id="text_84">
     <!-- Objects (online) -->
     <g transform="translate(304.987188 72.748562) scale(0.1 -0.1)">
      <defs>
       <path id="DejaVuSans-4f" d="M 2522 4238 
Q 1834 4238 1429 3725 
Q 1025 3213 1025 2328 
Q 1025 1447 1429 934 
Q 1834 422 2522 422 
Q 3209 422 3611 934 
Q 4013 1447 4013 2328 
Q 4013 3213 3611 3725 
Q 3209 4238 2522 4238 
z
M 2522 4750 
Q 3503 4750 4090 4092 
Q 4678 3434 4678 2328 
Q 4678 1225 4090 567 
Q 3503 -91 2522 -91 
Q 1538 -91 948 565 
Q 359 1222 359 2328 
Q 359 3434 948 4092 
Q 1538 4750 2522 4750 
z
" transform="scale(0.015625)"/>
       <path id="DejaVuSans-62" d="M 3116 1747 
Q 3116 2381 2855 2742 
Q 2594 3103 2138 3103 
Q 1681 3103 1420 2742 
Q 1159 2381 1159 1747 
Q 1159 1113 1420 752 
Q 1681 391 2138 391 
Q 2594 391 2855 752 
Q 3116 1113 3116 1747 
z
M 1159 2969 
Q 1341 3281 1617 3432 
Q 1894 3584 2278 3584 
Q 2916 3584 3314 3078 
Q 3713 2572 3713 1747 
Q 3713 922 3314 415 
Q 2916 -91 2278 -91 
Q 1894 -91 1617 61 
Q 1341 213 1159 525 
L 1159 0 
L 581 0 
L 581 4863 
L 1159 4863 
L 1159 2969 
z
" transform="scale(0.015625)"/>
       <path id="DejaVuSans-6a" d="M 603 3500 
L 1178 3500 
L 1178 -63 
Q 1178 -731 923 -1031 
Q 669 -1331 103 -1331 
L -116 -1331 
L -116 -844 
L 38 -844 
Q 366 -844 484 -692 
Q 603 -541 603 -63 
L 603 3500 
z
M 603 4863 
L 1178 4863 
L 1178 4134 
L 603 4134 
L 603 4863 
z
" transform="scale(0.015625)"/>
      </defs>
      <use xlink:href="#DejaVuSans-4f"/>
      <use xlink:href="#DejaVuSans-62" x="78.710938"/>
      <use xlink:href="#DejaVuSans-6a" x="142.1875"/>
      <use xlink:href="#DejaVuSans-65" x="169.970703"/>
      <use xlink:href="#DejaVuSans-63" x="231.494141"/>
      <use xlink:href="#DejaVuSans-74" x="286.474609"/>
      <use xlink:href="#DejaVuSans-73" x="325.683594"/>
      <use xlink:href="#DejaVuSans-20" x="377.783203"/>
      <use xlink:href="#DejaVuSans-28" x="409.570312"/>
      <use xlink:href="#DejaVuSans-6f" x="448.583984"/>
      <use xlink:href="#DejaVuSans-6e" x="509.765625"/>
      <use xlink:href="#DejaVuSans-6c" x="573.144531"/>
      <use xlink:href="#DejaVuSans-69" x="600.927734"/>
      <use xlink:href="#DejaVuSans-6e" x="628.710938"/>
      <use xlink:href="#DejaVuSans-65" x="692.089844"/>
      <use xlink:href="#DejaVuSans-29" x="753.613281"/>
     </g>
    </g>
   </g>
  </g>
 </g>
 <defs>
  <clipPath id="p6522ab72d6">
   <rect x="57.6" y="41.472" width="357.12" height="266.112"/>
  </clipPath>
 </defs>
</svg>
