<?xml version="1.0" encoding="utf-8" standalone="no"?>
<!DOCTYPE svg PUBLIC "-//W3C//DTD SVG 1.1//EN"
  "http://www.w3.org/Graphics/SVG/1.1/DTD/svg11.dtd">
<svg xmlns:xlink="http://www.w3.org/1999/xlink" width="288pt" height="288pt" viewBox="0 0 288 288" xmlns="http://www.w3.org/2000/svg" version="1.1">
 <metadata>
  <rdf:RDF xmlns:dc="http://purl.org/dc/elements/1.1/" xmlns:cc="http://creativecommons.org/ns#" xmlns:rdf="http://www.w3.org/1999/02/22-rdf-syntax-ns#">
   <cc:Work>
    <dc:type rdf:resource="http://purl.org/dc/dcmitype/StillImage"/>
    <dc:date>2025-12-03T11:15:48.422921</dc:date>
    <dc:format>image/svg+xml</dc:format>
    <dc:creator>
     <cc:Agent>
      <dc:title>Matplotlib v3.6.2, https://matplotlib.org/</dc:title>
     </cc:Agent>
    </dc:creator>
   </cc:Work>
  </rdf:RDF>
 </metadata>
 <defs>
  <style type="text/css">*{stroke-linejoin: round; stroke-linecap: butt}</style>
 </defs>
 <g id="figure_1">
  <g id="patch_1">
   <path d="M 0 288 
L 288 288 
L 288 0 
L 0 0 
L 0 288 
z
" style="fill: none"/>
  </g>
  <g id="axes_1">
   <g id="patch_2">
    <path d="M 62.39 246.04 
L 277.2 246.04 
L 277.2 14.76 
L 62.39 14.76 
L 62.39 246.04 
z
" style="fill: none"/>
   </g>
   <g id="matplotlib.axis_1">
    <g id="xtick_1">
     <g id="line2d_1">
      <defs>
       <path id="mfd1d36586a" d="M 0 0 
L 0 3.5 
" style="stroke: #000000; stroke-width: 0.8"/>
      </defs>
      <g>
       <use xlink:href="#mfd1d36586a" x="89.906983" y="246.04" style="stroke: #000000; stroke-width: 0.8"/>
      </g>
     </g>
     <g id="text_1">
      <!-- 0.0 -->
      <g transform="translate(81.955421 260.638438) scale(0.1 -0.1)">
       <defs>
        <path id="DejaVuSans-30" d="M 2034 4250 
Q 1547 4250 1301 3770 
Q 1056 3291 1056 2328 
Q 1056 1369 1301 889 
Q 1547 409 2034 409 
Q 2525 409 2770 889 
Q 3016 1369 3016 2328 
Q 3016 3291 2770 3770 
Q 2525 4250 2034 4250 
z
M 2034 4750 
Q 2819 4750 3233 4129 
Q 3647 3509 3647 2328 
Q 3647 1150 3233 529 
Q 2819 -91 2034 -91 
Q 1250 -91 836 529 
Q 422 1150 422 2328 
Q 422 3509 836 4129 
Q 1250 4750 2034 4750 
z
" transform="scale(0.015625)"/>
        <path id="DejaVuSans-2e" d="M 684 794 
L 1344 794 
L 1344 0 
L 684 0 
L 684 794 
z
" transform="scale(0.015625)"/>
       </defs>
       <use xlink:href="#DejaVuSans-30"/>
       <use xlink:href="#DejaVuSans-2e" x="63.623047"/>
       <use xlink:href="#DejaVuSans-30" x="95.410156"/>
      </g>
     </g>
    </g>
    <g id="xtick_2">
     <g id="line2d_2">
      <g>
       <use xlink:href="#mfd1d36586a" x="125.412769" y="246.04" style="stroke: #000000; stroke-width: 0.8"/>
      </g>
     </g>
     <g id="text_2">
      <!-- 0.2 -->
      <g transform="translate(117.461206 260.638438) scale(0.1 -0.1)">
       <defs>
        <path id="DejaVuSans-32" d="M 1228 531 
L 3431 531 
L 3431 0 
L 469 0 
L 469 531 
Q 828 903 1448 1529 
Q 2069 2156 2228 2338 
Q 2531 2678 2651 2914 
Q 2772 3150 2772 3378 
Q 2772 3750 2511 3984 
Q 2250 4219 1831 4219 
Q 1534 4219 1204 4116 
Q 875 4013 500 3803 
L 500 4441 
Q 881 4594 1212 4672 
Q 1544 4750 1819 4750 
Q 2544 4750 2975 4387 
Q 3406 4025 3406 3419 
Q 3406 3131 3298 2873 
Q 3191 2616 2906 2266 
Q 2828 2175 2409 1742 
Q 1991 1309 1228 531 
z
" transform="scale(0.015625)"/>
       </defs>
       <use xlink:href="#DejaVuSans-30"/>
       <use xlink:href="#DejaVuSans-2e" x="63.623047"/>
       <use xlink:href="#DejaVuSans-32" x="95.410156"/>
      </g>
     </g>
    </g>
    <g id="xtick_3">
     <g id="line2d_3">
      <g>
       <use xlink:href="#mfd1d36586a" x="160.918554" y="246.04" style="stroke: #000000; stroke-width: 0.8"/>
      </g>
     </g>
     <g id="text_3">
      <!-- 0.4 -->
      <g transform="translate(152.966991 260.638438) scale(0.1 -0.1)">
       <defs>
        <path id="DejaVuSans-34" d="M 2419 4116 
L 825 1625 
L 2419 1625 
L 2419 4116 
z
M 2253 4666 
L 3047 4666 
L 3047 1625 
L 3713 1625 
L 3713 1100 
L 3047 1100 
L 3047 0 
L 2419 0 
L 2419 1100 
L 313 1100 
L 313 1709 
L 2253 4666 
z
" transform="scale(0.015625)"/>
       </defs>
       <use xlink:href="#DejaVuSans-30"/>
       <use xlink:href="#DejaVuSans-2e" x="63.623047"/>
       <use xlink:href="#DejaVuSans-34" x="95.410156"/>
      </g>
     </g>
    </g>
    <g id="xtick_4">
     <g id="line2d_4">
      <g>
       <use xlink:href="#mfd1d36586a" x="196.424339" y="246.04" style="stroke: #000000; stroke-width: 0.8"/>
      </g>
     </g>
     <g id="text_4">
      <!-- 0.6 -->
      <g transform="translate(188.472776 260.638438) scale(0.1 -0.1)">
       <defs>
        <path id="DejaVuSans-36" d="M 2113 2584 
Q 1688 2584 1439 2293 
Q 1191 2003 1191 1497 
Q 1191 994 1439 701 
Q 1688 409 2113 409 
Q 2538 409 2786 701 
Q 3034 994 3034 1497 
Q 3034 2003 2786 2293 
Q 2538 2584 2113 2584 
z
M 3366 4563 
L 3366 3988 
Q 3128 4100 2886 4159 
Q 2644 4219 2406 4219 
Q 1781 4219 1451 3797 
Q 1122 3375 1075 2522 
Q 1259 2794 1537 2939 
Q 1816 3084 2150 3084 
Q 2853 3084 3261 2657 
Q 3669 2231 3669 1497 
Q 3669 778 3244 343 
Q 2819 -91 2113 -91 
Q 1303 -91 875 529 
Q 447 1150 447 2328 
Q 447 3434 972 4092 
Q 1497 4750 2381 4750 
Q 2619 4750 2861 4703 
Q 3103 4656 3366 4563 
z
" transform="scale(0.015625)"/>
       </defs>
       <use xlink:href="#DejaVuSans-30"/>
       <use xlink:href="#DejaVuSans-2e" x="63.623047"/>
       <use xlink:href="#DejaVuSans-36" x="95.410156"/>
      </g>
     </g>
    </g>
    <g id="xtick_5">
     <g id="line2d_5">
      <g>
       <use xlink:href="#mfd1d36586a" x="231.930124" y="246.04" style="stroke: #000000; stroke-width: 0.8"/>
      </g>
     </g>
     <g id="text_5">
      <!-- 0.8 -->
      <g transform="translate(223.978561 260.638438) scale(0.1 -0.1)">
       <defs>
        <path id="DejaVuSans-38" d="M 2034 2216 
Q 1584 2216 1326 1975 
Q 1069 1734 1069 1313 
Q 1069 891 1326 650 
Q 1584 409 2034 409 
Q 2484 409 2743 651 
Q 3003 894 3003 1313 
Q 3003 1734 2745 1975 
Q 2488 2216 2034 2216 
z
M 1403 2484 
Q 997 2584 770 2862 
Q 544 3141 544 3541 
Q 544 4100 942 4425 
Q 1341 4750 2034 4750 
Q 2731 4750 3128 4425 
Q 3525 4100 3525 3541 
Q 3525 3141 3298 2862 
Q 3072 2584 2669 2484 
Q 3125 2378 3379 2068 
Q 3634 1759 3634 1313 
Q 3634 634 3220 271 
Q 2806 -91 2034 -91 
Q 1263 -91 848 271 
Q 434 634 434 1313 
Q 434 1759 690 2068 
Q 947 2378 1403 2484 
z
M 1172 3481 
Q 1172 3119 1398 2916 
Q 1625 2713 2034 2713 
Q 2441 2713 2670 2916 
Q 2900 3119 2900 3481 
Q 2900 3844 2670 4047 
Q 2441 4250 2034 4250 
Q 1625 4250 1398 4047 
Q 1172 3844 1172 3481 
z
" transform="scale(0.015625)"/>
       </defs>
       <use xlink:href="#DejaVuSans-30"/>
       <use xlink:href="#DejaVuSans-2e" x="63.623047"/>
       <use xlink:href="#DejaVuSans-38" x="95.410156"/>
      </g>
     </g>
    </g>
    <g id="xtick_6">
     <g id="line2d_6">
      <g>
       <use xlink:href="#mfd1d36586a" x="267.435909" y="246.04" style="stroke: #000000; stroke-width: 0.8"/>
      </g>
     </g>
     <g id="text_6">
      <!-- 1.0 -->
      <g transform="translate(259.484347 260.638438) scale(0.1 -0.1)">
       <defs>
        <path id="DejaVuSans-31" d="M 794 531 
L 1825 531 
L 1825 4091 
L 703 3866 
L 703 4441 
L 1819 4666 
L 2450 4666 
L 2450 531 
L 3481 531 
L 3481 0 
L 794 0 
L 794 531 
z
" transform="scale(0.015625)"/>
       </defs>
       <use xlink:href="#DejaVuSans-31"/>
       <use xlink:href="#DejaVuSans-2e" x="63.623047"/>
       <use xlink:href="#DejaVuSans-30" x="95.410156"/>
      </g>
     </g>
    </g>
    <g id="text_7">
     <!-- Time (s) -->
     <g transform="translate(149.466094 274.316562) scale(0.1 -0.1)">
      <defs>
       <path id="DejaVuSans-54" d="M -19 4666 
L 3928 4666 
L 3928 4134 
L 2272 4134 
L 2272 0 
L 1638 0 
L 1638 4134 
L -19 4134 
L -19 4666 
z
" transform="scale(0.015625)"/>
       <path id="DejaVuSans-69" d="M 603 3500 
L 1178 3500 
L 1178 0 
L 603 0 
L 603 3500 
z
M 603 4863 
L 1178 4863 
L 1178 4134 
L 603 4134 
L 603 4863 
z
" transform="scale(0.015625)"/>
       <path id="DejaVuSans-6d" d="M 3328 2828 
Q 3544 3216 3844 3400 
Q 4144 3584 4550 3584 
Q 5097 3584 5394 3201 
Q 5691 2819 5691 2113 
L 5691 0 
L 5113 0 
L 5113 2094 
Q 5113 2597 4934 2840 
Q 4756 3084 4391 3084 
Q 3944 3084 3684 2787 
Q 3425 2491 3425 1978 
L 3425 0 
L 2847 0 
L 2847 2094 
Q 2847 2600 2669 2842 
Q 2491 3084 2119 3084 
Q 1678 3084 1418 2786 
Q 1159 2488 1159 1978 
L 1159 0 
L 581 0 
L 581 3500 
L 1159 3500 
L 1159 2956 
Q 1356 3278 1631 3431 
Q 1906 3584 2284 3584 
Q 2666 3584 2933 3390 
Q 3200 3197 3328 2828 
z
" transform="scale(0.015625)"/>
       <path id="DejaVuSans-65" d="M 3597 1894 
L 3597 1613 
L 953 1613 
Q 991 1019 1311 708 
Q 1631 397 2203 397 
Q 2534 397 2845 478 
Q 3156 559 3463 722 
L 3463 178 
Q 3153 47 2828 -22 
Q 2503 -91 2169 -91 
Q 1331 -91 842 396 
Q 353 884 353 1716 
Q 353 2575 817 3079 
Q 1281 3584 2069 3584 
Q 2775 3584 3186 3129 
Q 3597 2675 3597 1894 
z
M 3022 2063 
Q 3016 2534 2758 2815 
Q 2500 3097 2075 3097 
Q 1594 3097 1305 2825 
Q 1016 2553 972 2059 
L 3022 2063 
z
" transform="scale(0.015625)"/>
       <path id="DejaVuSans-20" transform="scale(0.015625)"/>
       <path id="DejaVuSans-28" d="M 1984 4856 
Q 1566 4138 1362 3434 
Q 1159 2731 1159 2009 
Q 1159 1288 1364 580 
Q 1569 -128 1984 -844 
L 1484 -844 
Q 1016 -109 783 600 
Q 550 1309 550 2009 
Q 550 2706 781 3412 
Q 1013 4119 1484 4856 
L 1984 4856 
z
" transform="scale(0.015625)"/>
       <path id="DejaVuSans-73" d="M 2834 3397 
L 2834 2853 
Q 2591 2978 2328 3040 
Q 2066 3103 1784 3103 
Q 1356 3103 1142 2972 
Q 928 2841 928 2578 
Q 928 2378 1081 2264 
Q 1234 2150 1697 2047 
L 1894 2003 
Q 2506 1872 2764 1633 
Q 3022 1394 3022 966 
Q 3022 478 2636 193 
Q 2250 -91 1575 -91 
Q 1294 -91 989 -36 
Q 684 19 347 128 
L 347 722 
Q 666 556 975 473 
Q 1284 391 1588 391 
Q 1994 391 2212 530 
Q 2431 669 2431 922 
Q 2431 1156 2273 1281 
Q 2116 1406 1581 1522 
L 1381 1569 
Q 847 1681 609 1914 
Q 372 2147 372 2553 
Q 372 3047 722 3315 
Q 1072 3584 1716 3584 
Q 2034 3584 2315 3537 
Q 2597 3491 2834 3397 
z
" transform="scale(0.015625)"/>
       <path id="DejaVuSans-29" d="M 513 4856 
L 1013 4856 
Q 1481 4119 1714 3412 
Q 1947 2706 1947 2009 
Q 1947 1309 1714 600 
Q 1481 -109 1013 -844 
L 513 -844 
Q 928 -128 1133 580 
Q 1338 1288 1338 2009 
Q 1338 2731 1133 3434 
Q 928 4138 513 4856 
z
" transform="scale(0.015625)"/>
      </defs>
      <use xlink:href="#DejaVuSans-54"/>
      <use xlink:href="#DejaVuSans-69" x="57.958984"/>
      <use xlink:href="#DejaVuSans-6d" x="85.742188"/>
      <use xlink:href="#DejaVuSans-65" x="183.154297"/>
      <use xlink:href="#DejaVuSans-20" x="244.677734"/>
      <use xlink:href="#DejaVuSans-28" x="276.464844"/>
      <use xlink:href="#DejaVuSans-73" x="315.478516"/>
      <use xlink:href="#DejaVuSans-29" x="367.578125"/>
     </g>
    </g>
   </g>
   <g id="matplotlib.axis_2">
    <g id="ytick_1">
     <g id="line2d_7">
      <defs>
       <path id="m7d719ae0ba" d="M 0 0 
L -3.5 0 
" style="stroke: #000000; stroke-width: 0.8"/>
      </defs>
      <g>
       <use xlink:href="#m7d719ae0ba" x="62.39" y="230.621333" style="stroke: #000000; stroke-width: 0.8"/>
      </g>
     </g>
     <g id="text_8">
      <!-- −0.01 -->
      <g transform="translate(24.744687 234.420552) scale(0.1 -0.1)">
       <defs>
        <path id="DejaVuSans-2212" d="M 678 2272 
L 4684 2272 
L 4684 1741 
L 678 1741 
L 678 2272 
z
" transform="scale(0.015625)"/>
       </defs>
       <use xlink:href="#DejaVuSans-2212"/>
       <use xlink:href="#DejaVuSans-30" x="83.789062"/>
       <use xlink:href="#DejaVuSans-2e" x="147.412109"/>
       <use xlink:href="#DejaVuSans-30" x="179.199219"/>
       <use xlink:href="#DejaVuSans-31" x="242.822266"/>
      </g>
     </g>
    </g>
    <g id="ytick_2">
     <g id="line2d_8">
      <g>
       <use xlink:href="#m7d719ae0ba" x="62.39" y="199.784" style="stroke: #000000; stroke-width: 0.8"/>
      </g>
     </g>
     <g id="text_9">
      <!-- 0.00 -->
      <g transform="translate(33.124375 203.583219) scale(0.1 -0.1)">
       <use xlink:href="#DejaVuSans-30"/>
       <use xlink:href="#DejaVuSans-2e" x="63.623047"/>
       <use xlink:href="#DejaVuSans-30" x="95.410156"/>
       <use xlink:href="#DejaVuSans-30" x="159.033203"/>
      </g>
     </g>
    </g>
    <g id="ytick_3">
     <g id="line2d_9">
      <g>
       <use xlink:href="#m7d719ae0ba" x="62.39" y="168.946667" style="stroke: #000000; stroke-width: 0.8"/>
      </g>
     </g>
     <g id="text_10">
      <!-- 0.01 -->
      <g transform="translate(33.124375 172.745885) scale(0.1 -0.1)">
       <use xlink:href="#DejaVuSans-30"/>
       <use xlink:href="#DejaVuSans-2e" x="63.623047"/>
       <use xlink:href="#DejaVuSans-30" x="95.410156"/>
       <use xlink:href="#DejaVuSans-31" x="159.033203"/>
      </g>
     </g>
    </g>
    <g id="ytick_4">
     <g id="line2d_10">
      <g>
       <use xlink:href="#m7d719ae0ba" x="62.39" y="138.109333" style="stroke: #000000; stroke-width: 0.8"/>
      </g>
     </g>
     <g id="text_11">
      <!-- 0.02 -->
      <g transform="translate(33.124375 141.908552) scale(0.1 -0.1)">
       <use xlink:href="#DejaVuSans-30"/>
       <use xlink:href="#DejaVuSans-2e" x="63.623047"/>
       <use xlink:href="#DejaVuSans-30" x="95.410156"/>
       <use xlink:href="#DejaVuSans-32" x="159.033203"/>
      </g>
     </g>
    </g>
    <g id="ytick_5">
     <g id="line2d_11">
      <g>
       <use xlink:href="#m7d719ae0ba" x="62.39" y="107.272" style="stroke: #000000; stroke-width: 0.8"/>
      </g>
     </g>
     <g id="text_12">
      <!-- 0.03 -->
      <g transform="translate(33.124375 111.071219) scale(0.1 -0.1)">
       <defs>
        <path id="DejaVuSans-33" d="M 2597 2516 
Q 3050 2419 3304 2112 
Q 3559 1806 3559 1356 
Q 3559 666 3084 287 
Q 2609 -91 1734 -91 
Q 1441 -91 1130 -33 
Q 819 25 488 141 
L 488 750 
Q 750 597 1062 519 
Q 1375 441 1716 441 
Q 2309 441 2620 675 
Q 2931 909 2931 1356 
Q 2931 1769 2642 2001 
Q 2353 2234 1838 2234 
L 1294 2234 
L 1294 2753 
L 1863 2753 
Q 2328 2753 2575 2939 
Q 2822 3125 2822 3475 
Q 2822 3834 2567 4026 
Q 2313 4219 1838 4219 
Q 1578 4219 1281 4162 
Q 984 4106 628 3988 
L 628 4550 
Q 988 4650 1302 4700 
Q 1616 4750 1894 4750 
Q 2613 4750 3031 4423 
Q 3450 4097 3450 3541 
Q 3450 3153 3228 2886 
Q 3006 2619 2597 2516 
z
" transform="scale(0.015625)"/>
       </defs>
       <use xlink:href="#DejaVuSans-30"/>
       <use xlink:href="#DejaVuSans-2e" x="63.623047"/>
       <use xlink:href="#DejaVuSans-30" x="95.410156"/>
       <use xlink:href="#DejaVuSans-33" x="159.033203"/>
      </g>
     </g>
    </g>
    <g id="ytick_6">
     <g id="line2d_12">
      <g>
       <use xlink:href="#m7d719ae0ba" x="62.39" y="76.434667" style="stroke: #000000; stroke-width: 0.8"/>
      </g>
     </g>
     <g id="text_13">
      <!-- 0.04 -->
      <g transform="translate(33.124375 80.233885) scale(0.1 -0.1)">
       <use xlink:href="#DejaVuSans-30"/>
       <use xlink:href="#DejaVuSans-2e" x="63.623047"/>
       <use xlink:href="#DejaVuSans-30" x="95.410156"/>
       <use xlink:href="#DejaVuSans-34" x="159.033203"/>
      </g>
     </g>
    </g>
    <g id="ytick_7">
     <g id="line2d_13">
      <g>
       <use xlink:href="#m7d719ae0ba" x="62.39" y="45.597333" style="stroke: #000000; stroke-width: 0.8"/>
      </g>
     </g>
     <g id="text_14">
      <!-- 0.05 -->
      <g transform="translate(33.124375 49.396552) scale(0.1 -0.1)">
       <defs>
        <path id="DejaVuSans-35" d="M 691 4666 
L 3169 4666 
L 3169 4134 
L 1269 4134 
L 1269 2991 
Q 1406 3038 1543 3061 
Q 1681 3084 1819 3084 
Q 2600 3084 3056 2656 
Q 3513 2228 3513 1497 
Q 3513 744 3044 326 
Q 2575 -91 1722 -91 
Q 1428 -91 1123 -41 
Q 819 9 494 109 
L 494 744 
Q 775 591 1075 516 
Q 1375 441 1709 441 
Q 2250 441 2565 725 
Q 2881 1009 2881 1497 
Q 2881 1984 2565 2268 
Q 2250 2553 1709 2553 
Q 1456 2553 1204 2497 
Q 953 2441 691 2322 
L 691 4666 
z
" transform="scale(0.015625)"/>
       </defs>
       <use xlink:href="#DejaVuSans-30"/>
       <use xlink:href="#DejaVuSans-2e" x="63.623047"/>
       <use xlink:href="#DejaVuSans-30" x="95.410156"/>
       <use xlink:href="#DejaVuSans-35" x="159.033203"/>
      </g>
     </g>
    </g>
    <g id="ytick_8">
     <g id="line2d_14">
      <g>
       <use xlink:href="#m7d719ae0ba" x="62.39" y="14.76" style="stroke: #000000; stroke-width: 0.8"/>
      </g>
     </g>
     <g id="text_15">
      <!-- 0.06 -->
      <g transform="translate(33.124375 18.559219) scale(0.1 -0.1)">
       <use xlink:href="#DejaVuSans-30"/>
       <use xlink:href="#DejaVuSans-2e" x="63.623047"/>
       <use xlink:href="#DejaVuSans-30" x="95.410156"/>
       <use xlink:href="#DejaVuSans-36" x="159.033203"/>
      </g>
     </g>
    </g>
    <g id="text_16">
     <!-- Partial Correlation -->
     <g transform="translate(18.665 175.269531) rotate(-90) scale(0.1 -0.1)">
      <defs>
       <path id="DejaVuSans-50" d="M 1259 4147 
L 1259 2394 
L 2053 2394 
Q 2494 2394 2734 2622 
Q 2975 2850 2975 3272 
Q 2975 3691 2734 3919 
Q 2494 4147 2053 4147 
L 1259 4147 
z
M 628 4666 
L 2053 4666 
Q 2838 4666 3239 4311 
Q 3641 3956 3641 3272 
Q 3641 2581 3239 2228 
Q 2838 1875 2053 1875 
L 1259 1875 
L 1259 0 
L 628 0 
L 628 4666 
z
" transform="scale(0.015625)"/>
       <path id="DejaVuSans-61" d="M 2194 1759 
Q 1497 1759 1228 1600 
Q 959 1441 959 1056 
Q 959 750 1161 570 
Q 1363 391 1709 391 
Q 2188 391 2477 730 
Q 2766 1069 2766 1631 
L 2766 1759 
L 2194 1759 
z
M 3341 1997 
L 3341 0 
L 2766 0 
L 2766 531 
Q 2569 213 2275 61 
Q 1981 -91 1556 -91 
Q 1019 -91 701 211 
Q 384 513 384 1019 
Q 384 1609 779 1909 
Q 1175 2209 1959 2209 
L 2766 2209 
L 2766 2266 
Q 2766 2663 2505 2880 
Q 2244 3097 1772 3097 
Q 1472 3097 1187 3025 
Q 903 2953 641 2809 
L 641 3341 
Q 956 3463 1253 3523 
Q 1550 3584 1831 3584 
Q 2591 3584 2966 3190 
Q 3341 2797 3341 1997 
z
" transform="scale(0.015625)"/>
       <path id="DejaVuSans-72" d="M 2631 2963 
Q 2534 3019 2420 3045 
Q 2306 3072 2169 3072 
Q 1681 3072 1420 2755 
Q 1159 2438 1159 1844 
L 1159 0 
L 581 0 
L 581 3500 
L 1159 3500 
L 1159 2956 
Q 1341 3275 1631 3429 
Q 1922 3584 2338 3584 
Q 2397 3584 2469 3576 
Q 2541 3569 2628 3553 
L 2631 2963 
z
" transform="scale(0.015625)"/>
       <path id="DejaVuSans-74" d="M 1172 4494 
L 1172 3500 
L 2356 3500 
L 2356 3053 
L 1172 3053 
L 1172 1153 
Q 1172 725 1289 603 
Q 1406 481 1766 481 
L 2356 481 
L 2356 0 
L 1766 0 
Q 1100 0 847 248 
Q 594 497 594 1153 
L 594 3053 
L 172 3053 
L 172 3500 
L 594 3500 
L 594 4494 
L 1172 4494 
z
" transform="scale(0.015625)"/>
       <path id="DejaVuSans-6c" d="M 603 4863 
L 1178 4863 
L 1178 0 
L 603 0 
L 603 4863 
z
" transform="scale(0.015625)"/>
       <path id="DejaVuSans-43" d="M 4122 4306 
L 4122 3641 
Q 3803 3938 3442 4084 
Q 3081 4231 2675 4231 
Q 1875 4231 1450 3742 
Q 1025 3253 1025 2328 
Q 1025 1406 1450 917 
Q 1875 428 2675 428 
Q 3081 428 3442 575 
Q 3803 722 4122 1019 
L 4122 359 
Q 3791 134 3420 21 
Q 3050 -91 2638 -91 
Q 1578 -91 968 557 
Q 359 1206 359 2328 
Q 359 3453 968 4101 
Q 1578 4750 2638 4750 
Q 3056 4750 3426 4639 
Q 3797 4528 4122 4306 
z
" transform="scale(0.015625)"/>
       <path id="DejaVuSans-6f" d="M 1959 3097 
Q 1497 3097 1228 2736 
Q 959 2375 959 1747 
Q 959 1119 1226 758 
Q 1494 397 1959 397 
Q 2419 397 2687 759 
Q 2956 1122 2956 1747 
Q 2956 2369 2687 2733 
Q 2419 3097 1959 3097 
z
M 1959 3584 
Q 2709 3584 3137 3096 
Q 3566 2609 3566 1747 
Q 3566 888 3137 398 
Q 2709 -91 1959 -91 
Q 1206 -91 779 398 
Q 353 888 353 1747 
Q 353 2609 779 3096 
Q 1206 3584 1959 3584 
z
" transform="scale(0.015625)"/>
       <path id="DejaVuSans-6e" d="M 3513 2113 
L 3513 0 
L 2938 0 
L 2938 2094 
Q 2938 2591 2744 2837 
Q 2550 3084 2163 3084 
Q 1697 3084 1428 2787 
Q 1159 2491 1159 1978 
L 1159 0 
L 581 0 
L 581 3500 
L 1159 3500 
L 1159 2956 
Q 1366 3272 1645 3428 
Q 1925 3584 2291 3584 
Q 2894 3584 3203 3211 
Q 3513 2838 3513 2113 
z
" transform="scale(0.015625)"/>
      </defs>
      <use xlink:href="#DejaVuSans-50"/>
      <use xlink:href="#DejaVuSans-61" x="55.802734"/>
      <use xlink:href="#DejaVuSans-72" x="117.082031"/>
      <use xlink:href="#DejaVuSans-74" x="158.195312"/>
      <use xlink:href="#DejaVuSans-69" x="197.404297"/>
      <use xlink:href="#DejaVuSans-61" x="225.1875"/>
      <use xlink:href="#DejaVuSans-6c" x="286.466797"/>
      <use xlink:href="#DejaVuSans-20" x="314.25"/>
      <use xlink:href="#DejaVuSans-43" x="346.037109"/>
      <use xlink:href="#DejaVuSans-6f" x="415.861328"/>
      <use xlink:href="#DejaVuSans-72" x="477.042969"/>
      <use xlink:href="#DejaVuSans-72" x="516.40625"/>
      <use xlink:href="#DejaVuSans-65" x="555.269531"/>
      <use xlink:href="#DejaVuSans-6c" x="616.792969"/>
      <use xlink:href="#DejaVuSans-61" x="644.576172"/>
      <use xlink:href="#DejaVuSans-74" x="705.855469"/>
      <use xlink:href="#DejaVuSans-69" x="745.064453"/>
      <use xlink:href="#DejaVuSans-6f" x="772.847656"/>
      <use xlink:href="#DejaVuSans-6e" x="834.029297"/>
     </g>
    </g>
   </g>
   <g id="line2d_15">
    <path d="M 89.906983 246.04 
L 89.906983 14.76 
" clip-path="url(#p9413fb5a9b)" style="fill: none; stroke-dasharray: 5.55,2.4; stroke-dashoffset: 0; stroke: #d3d3d3; stroke-width: 1.5"/>
   </g>
   <g id="line2d_16">
    <path d="M 62.39 199.784 
L 277.2 199.784 
" clip-path="url(#p9413fb5a9b)" style="fill: none; stroke-dasharray: 5.55,2.4; stroke-dashoffset: 0; stroke: #d3d3d3; stroke-width: 1.5"/>
   </g>
   <g id="line2d_17">
    <path d="M 72.154091 202.535687 
L 73.548961 202.273103 
L 74.943831 204.543414 
L 76.338701 208.154259 
L 77.733571 218.403026 
L 79.128442 225.058655 
L 80.523312 227.449901 
L 81.918182 213.281166 
L 83.313052 204.528017 
L 84.707922 213.562662 
L 86.102792 229.997678 
L 87.497662 227.630408 
L 88.892532 211.350126 
L 90.287403 204.592789 
L 91.682273 202.266903 
L 93.077143 196.557098 
L 94.472013 195.257484 
L 95.866883 191.585633 
L 97.261753 192.721214 
L 98.656623 204.871621 
L 100.051494 215.708339 
L 101.446364 206.048866 
L 102.841234 159.684729 
L 104.236104 126.753729 
L 105.630974 115.501371 
L 107.025844 118.323542 
L 108.420714 129.810403 
L 109.815584 147.728967 
L 111.210455 150.039084 
L 112.605325 141.300765 
L 114.000195 138.710985 
L 115.395065 142.988189 
L 116.789935 148.150411 
L 118.184805 152.462492 
L 119.579675 152.307957 
L 120.974545 148.206905 
L 122.369416 146.479991 
L 123.764286 148.144497 
L 125.159156 150.338992 
L 126.554026 150.699982 
L 127.948896 145.648483 
L 129.343766 139.911417 
L 130.738636 136.998151 
L 132.133506 138.702012 
L 133.528377 142.258226 
L 134.923247 147.12047 
L 136.318117 150.289023 
L 137.712987 150.303919 
L 139.107857 145.40471 
L 140.502727 138.278701 
L 141.897597 134.016333 
L 143.292468 135.623778 
L 144.687338 142.831641 
L 146.082208 154.020165 
L 147.477078 167.577891 
L 148.871948 177.586413 
L 150.266818 181.115965 
L 151.661688 180.840427 
L 153.056558 181.780337 
L 154.451429 183.227709 
L 155.846299 184.223961 
L 157.241169 186.12298 
L 158.636039 191.576753 
L 160.030909 195.733162 
L 161.425779 195.662766 
L 162.820649 193.444866 
L 164.215519 190.822164 
L 165.61039 187.482758 
L 167.00526 185.563728 
L 168.40013 185.645863 
L 169.795 186.717076 
L 171.18987 189.727865 
L 172.58474 193.41879 
L 175.374481 202.732718 
L 176.769351 206.268873 
L 178.164221 205.839999 
L 182.348831 197.657607 
L 183.743701 193.276058 
L 185.138571 186.716067 
L 186.533442 177.293769 
L 187.928312 168.827903 
L 189.323182 163.996059 
L 190.718052 162.844913 
L 192.112922 164.826197 
L 193.507792 170.450652 
L 194.902662 175.304393 
L 197.692403 180.903755 
L 199.087273 184.976982 
L 200.482143 187.951633 
L 201.877013 189.350034 
L 203.271883 191.365372 
L 204.666753 194.595174 
L 206.061623 196.331314 
L 207.456494 194.853273 
L 208.851364 192.966629 
L 210.246234 189.801186 
L 211.641104 184.973306 
L 213.035974 180.995693 
L 214.430844 180.659977 
L 215.825714 184.189511 
L 217.220584 188.472485 
L 218.615455 192.007568 
L 220.010325 193.560191 
L 221.405195 192.508723 
L 222.800065 189.730226 
L 224.194935 189.168974 
L 225.589805 190.459683 
L 226.984675 190.829284 
L 229.774416 187.503269 
L 231.169286 186.730574 
L 232.564156 183.755749 
L 233.959026 180.298285 
L 235.353896 180.989599 
L 236.748766 186.825991 
L 239.538506 204.134354 
L 240.933377 212.237852 
L 242.328247 218.808491 
L 243.723117 219.985217 
L 245.117987 217.034207 
L 246.512857 212.47468 
L 247.907727 208.707166 
L 249.302597 206.966615 
L 250.697468 206.891075 
L 252.092338 208.118357 
L 253.487208 211.118741 
L 254.882078 213.17868 
L 256.276948 213.938484 
L 257.671818 214.261687 
L 259.066688 214.223076 
L 260.461558 212.585032 
L 261.856429 212.641611 
L 263.251299 216.00196 
L 264.646169 221.05922 
L 266.041039 224.605503 
L 267.435909 227.561544 
L 267.435909 227.561544 
" clip-path="url(#p9413fb5a9b)" style="fill: none; stroke: #7209b7; stroke-width: 1.5; stroke-linecap: square"/>
   </g>
   <g id="line2d_18">
    <path d="M 72.154091 202.684908 
L 73.548961 201.369443 
L 74.943831 202.932053 
L 76.338701 206.506356 
L 77.733571 217.622045 
L 79.128442 225.460683 
L 80.523312 227.424197 
L 81.918182 212.944422 
L 83.313052 202.45486 
L 84.707922 211.901252 
L 86.102792 229.887768 
L 87.497662 229.591528 
L 88.892532 214.204399 
L 90.287403 206.317255 
L 91.682273 202.754609 
L 93.077143 196.418312 
L 94.472013 195.014985 
L 95.866883 191.564863 
L 97.261753 193.000798 
L 98.656623 204.679676 
L 100.051494 213.361054 
L 101.446364 200.357717 
L 102.841234 151.175497 
L 104.236104 117.307599 
L 105.630974 105.367771 
L 107.025844 108.617042 
L 108.420714 120.785182 
L 109.815584 138.228176 
L 111.210455 140.083438 
L 112.605325 132.065814 
L 114.000195 130.867625 
L 115.395065 136.442038 
L 118.184805 148.924974 
L 119.579675 150.69796 
L 120.974545 147.590767 
L 122.369416 145.868165 
L 125.159156 147.371155 
L 126.554026 146.264558 
L 129.343766 133.949076 
L 130.738636 130.876105 
L 132.133506 132.695863 
L 133.528377 136.676403 
L 134.923247 142.125979 
L 136.318117 145.629216 
L 137.712987 145.45003 
L 139.107857 139.929741 
L 140.502727 132.088167 
L 141.897597 127.397142 
L 143.292468 128.831248 
L 144.687338 136.103922 
L 146.082208 147.498931 
L 147.477078 161.327025 
L 148.871948 171.613679 
L 150.266818 175.452449 
L 151.661688 175.203366 
L 153.056558 175.896782 
L 154.451429 176.899571 
L 155.846299 177.608392 
L 157.241169 179.28937 
L 158.636039 184.497394 
L 160.030909 188.593834 
L 161.425779 188.584701 
L 162.820649 186.346765 
L 164.215519 183.585278 
L 165.61039 180.189771 
L 167.00526 178.458424 
L 168.40013 178.814185 
L 169.795 180.077308 
L 171.18987 183.162765 
L 172.58474 186.837621 
L 175.374481 196.118712 
L 176.769351 199.844898 
L 178.164221 199.802929 
L 182.348831 192.913597 
L 183.743701 188.831893 
L 185.138571 182.549509 
L 186.533442 173.391123 
L 187.928312 165.115935 
L 189.323182 160.371956 
L 190.718052 159.265285 
L 192.112922 161.143146 
L 193.507792 166.544599 
L 194.902662 171.206535 
L 197.692403 177.145866 
L 199.087273 181.450878 
L 200.482143 184.501305 
L 201.877013 185.892441 
L 203.271883 187.817181 
L 204.666753 190.931457 
L 206.061623 192.633104 
L 207.456494 191.225811 
L 208.851364 189.573431 
L 210.246234 186.776649 
L 211.641104 182.181725 
L 213.035974 178.240344 
L 214.430844 177.853357 
L 215.825714 181.33712 
L 217.220584 185.618801 
L 218.615455 189.073733 
L 220.010325 190.518518 
L 221.405195 189.227768 
L 222.800065 186.019871 
L 224.194935 184.910822 
L 225.589805 185.817351 
L 226.984675 186.003496 
L 229.774416 182.758212 
L 231.169286 182.224911 
L 232.564156 179.38474 
L 233.959026 175.854025 
L 235.353896 176.358574 
L 236.748766 182.016603 
L 239.538506 198.985782 
L 240.933377 207.007604 
L 242.328247 213.702427 
L 243.723117 215.124946 
L 245.117987 212.525066 
L 246.512857 208.318057 
L 247.907727 204.821518 
L 249.302597 203.224098 
L 250.697468 203.188884 
L 252.092338 204.276215 
L 253.487208 207.070322 
L 254.882078 208.941905 
L 256.276948 209.621927 
L 257.671818 209.943331 
L 259.066688 210.003642 
L 260.461558 208.533336 
L 261.856429 208.730567 
L 263.251299 212.095213 
L 264.646169 216.964115 
L 266.041039 220.215587 
L 267.435909 222.916728 
L 267.435909 222.916728 
" clip-path="url(#p9413fb5a9b)" style="fill: none; stroke: #7209b7; stroke-width: 1.5; stroke-linecap: square"/>
   </g>
   <g id="line2d_19">
    <path d="M 72.154091 204.117394 
L 73.548961 203.162063 
L 74.943831 204.511287 
L 76.338701 206.9334 
L 77.733571 217.08688 
L 79.128442 226.261381 
L 80.523312 229.151489 
L 81.918182 215.886673 
L 83.313052 205.575209 
L 84.707922 213.11924 
L 86.102792 228.703911 
L 87.497662 226.148575 
L 88.892532 210.361903 
L 90.287403 203.190389 
L 91.682273 201.360519 
L 93.077143 196.477367 
L 94.472013 195.363256 
L 95.866883 191.852933 
L 97.261753 193.047988 
L 98.656623 205.463186 
L 100.051494 216.809455 
L 101.446364 206.373369 
L 102.841234 157.341644 
L 104.236104 121.392375 
L 105.630974 107.258739 
L 107.025844 106.961869 
L 108.420714 115.352592 
L 109.815584 131.258778 
L 111.210455 133.318362 
L 112.605325 124.916243 
L 114.000195 122.378438 
L 115.395065 126.785973 
L 116.789935 131.809859 
L 118.184805 135.598887 
L 119.579675 134.363015 
L 120.974545 129.073655 
L 122.369416 126.702395 
L 123.764286 128.570131 
L 125.159156 131.618949 
L 126.554026 132.93791 
L 127.948896 128.719131 
L 129.343766 123.783679 
L 130.738636 121.755136 
L 132.133506 124.411378 
L 133.528377 128.739317 
L 134.923247 134.04648 
L 136.318117 137.546358 
L 137.712987 138.038214 
L 139.107857 133.7326 
L 140.502727 127.167882 
L 141.897597 123.324143 
L 143.292468 125.212887 
L 144.687338 132.552145 
L 146.082208 143.833143 
L 147.477078 157.484628 
L 148.871948 167.617053 
L 150.266818 171.232836 
L 151.661688 171.189081 
L 153.056558 172.320262 
L 154.451429 173.829828 
L 155.846299 174.859691 
L 157.241169 176.713966 
L 158.636039 182.058769 
L 160.030909 186.085531 
L 161.425779 185.98724 
L 164.215519 181.809982 
L 165.61039 178.856158 
L 167.00526 177.138997 
L 168.40013 177.254892 
L 169.795 178.271095 
L 171.18987 181.229198 
L 172.58474 185.00988 
L 175.374481 194.845676 
L 176.769351 198.520733 
L 178.164221 198.036283 
L 182.348831 189.046796 
L 183.743701 184.683736 
L 185.138571 178.381414 
L 186.533442 169.163304 
L 187.928312 160.9463 
L 189.323182 156.37726 
L 190.718052 155.305828 
L 192.112922 157.301176 
L 193.507792 162.872336 
L 194.902662 167.719947 
L 197.692403 173.1401 
L 199.087273 177.086369 
L 200.482143 180.095568 
L 201.877013 181.541201 
L 203.271883 183.579547 
L 204.666753 186.872682 
L 206.061623 188.705674 
L 207.456494 187.32673 
L 208.851364 185.708657 
L 210.246234 182.992465 
L 211.641104 178.665357 
L 213.035974 175.123468 
L 214.430844 175.015893 
L 215.825714 178.537348 
L 217.220584 182.617914 
L 218.615455 185.835645 
L 220.010325 187.058963 
L 221.405195 185.749105 
L 222.800065 182.976009 
L 224.194935 182.689961 
L 225.589805 184.389867 
L 226.984675 185.209823 
L 228.379545 183.97047 
L 229.774416 182.436663 
L 231.169286 181.757427 
L 232.564156 178.799797 
L 233.959026 175.232194 
L 235.353896 175.943446 
L 236.748766 181.947535 
L 239.538506 199.684628 
L 240.933377 207.964832 
L 242.328247 214.636969 
L 243.723117 215.924093 
L 245.117987 212.9618 
L 246.512857 208.319167 
L 247.907727 204.416467 
L 249.302597 202.452812 
L 250.697468 202.10823 
L 252.092338 203.167604 
L 253.487208 206.21301 
L 254.882078 208.44816 
L 256.276948 209.489466 
L 257.671818 210.10363 
L 259.066688 210.210856 
L 260.461558 208.643481 
L 261.856429 208.627325 
L 263.251299 211.796642 
L 264.646169 216.632774 
L 266.041039 220.043546 
L 267.435909 222.876796 
L 267.435909 222.876796 
" clip-path="url(#p9413fb5a9b)" style="fill: none; stroke: #7209b7; stroke-width: 1.5; stroke-linecap: square"/>
   </g>
   <g id="line2d_20">
    <path d="M 72.154091 203.108545 
L 73.548961 202.071986 
L 74.943831 204.535221 
L 76.338701 208.656766 
L 77.733571 219.20602 
L 79.128442 225.211658 
L 80.523312 226.130353 
L 81.918182 211.930122 
L 83.313052 203.624479 
L 84.707922 213.525528 
L 86.102792 230.498049 
L 87.497662 228.649447 
L 88.892532 212.600694 
L 90.287403 206.535849 
L 91.682273 204.439837 
L 93.077143 198.186445 
L 94.472013 196.589699 
L 95.866883 192.765074 
L 97.261753 193.630894 
L 98.656623 205.596127 
L 100.051494 216.40136 
L 101.446364 208.104347 
L 102.841234 164.950376 
L 104.236104 135.581989 
L 105.630974 126.094732 
L 107.025844 130.049704 
L 108.420714 141.864316 
L 109.815584 159.156084 
L 111.210455 160.369961 
L 112.605325 150.214082 
L 114.000195 145.944066 
L 115.395065 148.847401 
L 118.184805 156.829589 
L 119.579675 156.793588 
L 120.974545 153.276243 
L 122.369416 152.105833 
L 123.764286 153.955496 
L 125.159156 156.091272 
L 126.554026 156.524904 
L 127.948896 151.949456 
L 129.343766 146.984946 
L 130.738636 144.832514 
L 132.133506 147.129232 
L 133.528377 151.151061 
L 134.923247 156.58066 
L 136.318117 160.05352 
L 137.712987 159.683948 
L 139.107857 153.929409 
L 140.502727 145.968878 
L 141.897597 141.09259 
L 143.292468 142.301468 
L 144.687338 149.245367 
L 146.082208 160.193526 
L 147.477078 173.567813 
L 148.871948 183.458138 
L 150.266818 186.95832 
L 151.661688 186.605642 
L 153.056558 187.396415 
L 154.451429 188.636344 
L 155.846299 189.575964 
L 157.241169 191.438307 
L 158.636039 196.726659 
L 160.030909 200.71994 
L 161.425779 200.668111 
L 162.820649 198.499164 
L 164.215519 195.942004 
L 165.61039 192.749283 
L 167.00526 191.055552 
L 168.40013 191.209889 
L 169.795 191.959863 
L 171.18987 194.549861 
L 172.58474 197.841456 
L 175.374481 206.767492 
L 176.769351 210.38245 
L 178.164221 210.096003 
L 182.348831 202.048865 
L 183.743701 197.831786 
L 185.138571 191.469115 
L 186.533442 182.330474 
L 187.928312 174.078115 
L 189.323182 169.330182 
L 190.718052 168.237569 
L 192.112922 170.199072 
L 193.507792 175.729095 
L 194.902662 180.392531 
L 197.692403 185.511477 
L 199.087273 189.37926 
L 200.482143 192.1657 
L 201.877013 193.497794 
L 203.271883 195.520489 
L 204.666753 198.747943 
L 206.061623 200.351235 
L 207.456494 198.697015 
L 208.851364 196.634272 
L 210.246234 193.17829 
L 211.641104 188.035791 
L 213.035974 183.667127 
L 214.430844 183.011451 
L 215.825714 186.477145 
L 217.220584 190.903243 
L 218.615455 194.61445 
L 220.010325 196.429717 
L 221.405195 195.569417 
L 222.800065 192.849835 
L 224.194935 192.205484 
L 225.589805 193.409227 
L 226.984675 193.726678 
L 229.774416 190.514314 
L 231.169286 189.850536 
L 232.564156 186.968052 
L 233.959026 183.605406 
L 235.353896 184.397108 
L 236.748766 190.311319 
L 239.538506 207.519909 
L 240.933377 215.541484 
L 242.328247 222.155578 
L 243.723117 223.372935 
L 245.117987 220.429462 
L 246.512857 215.832386 
L 247.907727 211.984777 
L 249.302597 210.084654 
L 250.697468 209.825506 
L 252.092338 210.895145 
L 253.487208 213.773843 
L 254.882078 215.747918 
L 256.276948 216.529912 
L 257.671818 217.040571 
L 259.066688 217.159838 
L 260.461558 215.529408 
L 261.856429 215.358522 
L 263.251299 218.409797 
L 264.646169 223.106607 
L 266.041039 226.378414 
L 267.435909 229.13939 
L 267.435909 229.13939 
" clip-path="url(#p9413fb5a9b)" style="fill: none; stroke: #480ca8; stroke-width: 1.5; stroke-linecap: square"/>
   </g>
   <g id="line2d_21">
    <path d="M 72.154091 201.373599 
L 73.548961 200.011538 
L 74.943831 203.719438 
L 76.338701 210.082826 
L 77.733571 221.065494 
L 79.128442 223.848327 
L 80.523312 224.099181 
L 81.918182 209.879998 
L 83.313052 203.604025 
L 84.707922 214.761071 
L 86.102792 232.400183 
L 87.497662 229.280862 
L 88.892532 211.721437 
L 90.287403 204.564118 
L 91.682273 202.625372 
L 93.077143 196.611751 
L 94.472013 194.88071 
L 95.866883 191.507259 
L 97.261753 193.212048 
L 100.051494 217.77588 
L 101.446364 212.586405 
L 102.841234 173.07767 
L 104.236104 146.456552 
L 105.630974 138.42589 
L 107.025844 143.4004 
L 108.420714 154.463919 
L 109.815584 170.312539 
L 111.210455 170.042298 
L 112.605325 157.534894 
L 114.000195 149.99192 
L 115.395065 151.612385 
L 116.789935 157.040827 
L 118.184805 163.682935 
L 119.579675 166.086257 
L 120.974545 163.857658 
L 122.369416 162.997192 
L 123.764286 164.831248 
L 125.159156 167.179496 
L 126.554026 167.888024 
L 129.343766 159.417356 
L 130.738636 158.215921 
L 132.133506 161.301023 
L 133.528377 165.578856 
L 134.923247 171.344348 
L 136.318117 175.305668 
L 137.712987 174.961893 
L 139.107857 168.731686 
L 140.502727 160.304505 
L 141.897597 155.243941 
L 143.292468 156.560227 
L 144.687338 163.707553 
L 146.082208 174.716749 
L 147.477078 187.828681 
L 148.871948 197.083041 
L 150.266818 199.829785 
L 151.661688 198.666194 
L 153.056558 198.955713 
L 154.451429 199.903984 
L 155.846299 200.534243 
L 157.241169 201.885389 
L 158.636039 206.731733 
L 160.030909 210.665416 
L 161.425779 211.115441 
L 162.820649 209.764394 
L 164.215519 208.082585 
L 165.61039 205.44412 
L 167.00526 204.041234 
L 168.40013 204.108521 
L 169.795 204.426723 
L 171.18987 206.471929 
L 172.58474 209.286555 
L 175.374481 217.451053 
L 176.769351 220.954997 
L 178.164221 220.931405 
L 182.348831 214.139625 
L 183.743701 210.172187 
L 185.138571 203.782084 
L 187.928312 185.877022 
L 189.323182 180.80087 
L 190.718052 179.660462 
L 192.112922 181.763821 
L 193.507792 187.357128 
L 194.902662 191.986175 
L 197.692403 196.935247 
L 199.087273 200.652408 
L 200.482143 203.202806 
L 201.877013 204.488842 
L 203.271883 206.847872 
L 204.666753 210.298393 
L 206.061623 211.80814 
L 207.456494 210.091681 
L 208.851364 207.856776 
L 210.246234 203.920105 
L 211.641104 198.10642 
L 213.035974 193.20646 
L 214.430844 192.371331 
L 215.825714 196.062318 
L 217.220584 200.75488 
L 218.615455 204.58213 
L 220.010325 206.464698 
L 221.405195 205.656981 
L 222.800065 202.973661 
L 224.194935 202.543899 
L 225.589805 204.149721 
L 226.984675 204.796357 
L 229.774416 201.963309 
L 231.169286 201.372886 
L 232.564156 198.70462 
L 233.959026 195.627046 
L 235.353896 196.57577 
L 236.748766 202.377302 
L 239.538506 218.641321 
L 240.933377 226.312958 
L 242.328247 232.734963 
L 243.723117 233.874236 
L 245.117987 230.943517 
L 246.512857 226.454504 
L 247.907727 222.518565 
L 249.302597 220.446673 
L 250.697468 220.0979 
L 252.092338 221.196289 
L 253.487208 223.940049 
L 254.882078 225.686593 
L 257.671818 227.329164 
L 259.066688 227.749113 
L 260.461558 226.321801 
L 261.856429 226.293892 
L 263.251299 229.434271 
L 264.646169 234.025581 
L 266.041039 237.142691 
L 267.435909 239.791718 
L 267.435909 239.791718 
" clip-path="url(#p9413fb5a9b)" style="fill: none; stroke: #3f37c9; stroke-width: 1.5; stroke-linecap: square"/>
   </g>
   <g id="line2d_22">
    <path d="M 72.154091 202.903808 
L 73.548961 201.809905 
L 74.943831 203.932892 
L 76.338701 207.522888 
L 77.733571 218.27628 
L 79.128442 224.53792 
L 80.523312 225.946991 
L 81.918182 211.455347 
L 83.313052 203.23169 
L 84.707922 213.01801 
L 86.102792 230.315757 
L 87.497662 229.330952 
L 88.892532 213.30052 
L 90.287403 205.777601 
L 91.682273 202.725044 
L 93.077143 196.121919 
L 94.472013 194.833878 
L 95.866883 191.877612 
L 97.261753 193.452121 
L 98.656623 206.066904 
L 100.051494 216.760057 
L 101.446364 206.968808 
L 102.841234 161.128662 
L 104.236104 129.427044 
L 105.630974 119.060114 
L 107.025844 123.578866 
L 108.420714 136.936558 
L 109.815584 155.535744 
L 111.210455 157.727191 
L 112.605325 148.922835 
L 114.000195 146.233104 
L 118.184805 157.133322 
L 119.579675 157.628293 
L 120.974545 154.601406 
L 122.369416 153.141346 
L 125.159156 154.503028 
L 126.554026 153.461752 
L 129.343766 141.825924 
L 130.738636 139.152246 
L 132.133506 141.3356 
L 133.528377 145.696294 
L 134.923247 151.701855 
L 136.318117 155.629985 
L 137.712987 155.571723 
L 139.107857 150.012365 
L 140.502727 142.204179 
L 141.897597 137.597026 
L 143.292468 138.963498 
L 144.687338 146.039238 
L 146.082208 157.160538 
L 147.477078 170.706549 
L 148.871948 180.721872 
L 150.266818 184.325472 
L 151.661688 184.028399 
L 153.056558 184.801636 
L 154.451429 185.917954 
L 155.846299 186.660327 
L 157.241169 188.414418 
L 158.636039 193.742937 
L 160.030909 197.842896 
L 161.425779 197.84138 
L 162.820649 195.588514 
L 164.215519 192.743117 
L 165.61039 189.16089 
L 167.00526 187.305905 
L 168.40013 187.590029 
L 169.795 188.662152 
L 171.18987 191.516978 
L 172.58474 195.08578 
L 175.374481 204.357331 
L 176.769351 208.136476 
L 178.164221 208.204296 
L 182.348831 201.23421 
L 183.743701 197.154603 
L 185.138571 190.779614 
L 186.533442 181.521017 
L 187.928312 173.090721 
L 189.323182 168.106766 
L 190.718052 166.831309 
L 192.112922 168.689485 
L 193.507792 174.241357 
L 194.902662 179.059691 
L 197.692403 184.999277 
L 199.087273 189.194783 
L 200.482143 192.111485 
L 201.877013 193.496618 
L 203.271883 195.562105 
L 204.666753 198.886558 
L 206.061623 200.752877 
L 207.456494 199.409331 
L 208.851364 197.639534 
L 210.246234 194.40656 
L 211.641104 189.256474 
L 213.035974 184.778359 
L 214.430844 184.040057 
L 215.825714 187.462601 
L 217.220584 191.868949 
L 218.615455 195.572374 
L 220.010325 197.345973 
L 221.405195 196.349899 
L 222.800065 193.368964 
L 224.194935 192.405768 
L 225.589805 193.316702 
L 226.984675 193.429532 
L 229.774416 190.254772 
L 231.169286 189.815555 
L 232.564156 186.962458 
L 233.959026 183.399142 
L 235.353896 183.95896 
L 236.748766 189.680944 
L 239.538506 206.686315 
L 240.933377 214.743169 
L 242.328247 221.470412 
L 243.723117 222.854033 
L 245.117987 220.119521 
L 246.512857 215.704009 
L 247.907727 211.89007 
L 249.302597 209.944726 
L 250.697468 209.644264 
L 252.092338 210.64505 
L 253.487208 213.471156 
L 254.882078 215.473393 
L 256.276948 216.418571 
L 257.671818 217.104237 
L 259.066688 217.408793 
L 260.461558 215.983899 
L 261.856429 216.077117 
L 263.251299 219.28005 
L 264.646169 223.919336 
L 266.041039 227.027033 
L 267.435909 229.664803 
L 267.435909 229.664803 
" clip-path="url(#p9413fb5a9b)" style="fill: none; stroke: #4361ee; stroke-width: 1.5; stroke-linecap: square"/>
   </g>
   <g id="line2d_23">
    <path d="M 72.154091 202.361714 
L 73.548961 201.013692 
L 74.943831 203.610507 
L 76.338701 208.028336 
L 77.733571 220.144624 
L 79.128442 226.099344 
L 80.523312 225.697681 
L 81.918182 211.011318 
L 83.313052 202.575664 
L 84.707922 213.124779 
L 86.102792 231.029306 
L 87.497662 229.785039 
L 88.892532 214.508051 
L 90.287403 206.84137 
L 91.682273 203.58475 
L 93.077143 197.249606 
L 94.472013 195.957737 
L 95.866883 192.893163 
L 97.261753 194.33506 
L 98.656623 206.366147 
L 100.051494 217.255691 
L 101.446364 208.858296 
L 102.841234 165.478196 
L 104.236104 135.573102 
L 105.630974 125.380581 
L 107.025844 128.183915 
L 108.420714 139.029926 
L 109.815584 155.29739 
L 111.210455 156.297622 
L 112.605325 146.721458 
L 114.000195 143.615706 
L 115.395065 147.659973 
L 116.789935 153.539276 
L 118.184805 159.97764 
L 119.579675 161.458838 
L 120.974545 158.614671 
L 122.369416 157.447661 
L 123.764286 158.677503 
L 125.159156 160.118951 
L 126.554026 159.680735 
L 129.343766 148.473743 
L 130.738636 146.078245 
L 132.133506 148.444847 
L 133.528377 152.525952 
L 134.923247 157.798046 
L 136.318117 161.117858 
L 137.712987 160.493181 
L 139.107857 154.419438 
L 140.502727 146.45516 
L 141.897597 141.857236 
L 143.292468 143.427815 
L 144.687338 150.459617 
L 146.082208 161.222317 
L 147.477078 174.342605 
L 148.871948 184.061162 
L 150.266818 187.505401 
L 151.661688 187.003596 
L 153.056558 187.53142 
L 154.451429 188.440308 
L 155.846299 189.025896 
L 157.241169 190.463123 
L 158.636039 195.480813 
L 160.030909 199.500033 
L 161.425779 199.726463 
L 162.820649 197.958796 
L 164.215519 195.693523 
L 165.61039 192.655999 
L 167.00526 190.872782 
L 168.40013 190.732047 
L 169.795 191.111237 
L 171.18987 193.435649 
L 172.58474 196.62669 
L 175.374481 205.607957 
L 176.769351 209.39346 
L 178.164221 209.194223 
L 182.348831 200.992805 
L 183.743701 196.846186 
L 185.138571 190.569451 
L 186.533442 181.613695 
L 187.928312 173.478582 
L 189.323182 168.597951 
L 190.718052 167.322384 
L 192.112922 169.02107 
L 193.507792 174.267696 
L 194.902662 178.670055 
L 197.692403 183.645398 
L 199.087273 187.355395 
L 200.482143 189.980081 
L 201.877013 191.326725 
L 203.271883 193.494295 
L 204.666753 196.897452 
L 206.061623 198.690901 
L 207.456494 197.150925 
L 208.851364 195.131511 
L 210.246234 191.659932 
L 211.641104 186.414791 
L 213.035974 181.889828 
L 214.430844 181.083866 
L 215.825714 184.444778 
L 217.220584 188.756767 
L 218.615455 192.466078 
L 220.010325 194.451757 
L 221.405195 193.802588 
L 222.800065 191.055418 
L 224.194935 190.235593 
L 225.589805 191.189284 
L 226.984675 191.164052 
L 229.774416 187.510075 
L 231.169286 186.965624 
L 232.564156 184.128991 
L 233.959026 180.760396 
L 235.353896 181.540719 
L 236.748766 187.489585 
L 239.538506 204.445037 
L 240.933377 212.421188 
L 242.328247 219.089798 
L 243.723117 220.397201 
L 245.117987 217.662173 
L 246.512857 213.337046 
L 247.907727 209.669814 
L 249.302597 207.766561 
L 250.697468 207.441104 
L 252.092338 208.344977 
L 253.487208 211.065479 
L 254.882078 212.983441 
L 256.276948 213.866755 
L 257.671818 214.533365 
L 259.066688 214.877454 
L 260.461558 213.418636 
L 261.856429 213.406535 
L 263.251299 216.538939 
L 264.646169 221.279318 
L 266.041039 224.568112 
L 267.435909 227.271894 
L 267.435909 227.271894 
" clip-path="url(#p9413fb5a9b)" style="fill: none; stroke: #4361ee; stroke-width: 1.5; stroke-linecap: square"/>
   </g>
   <g id="line2d_24">
    <path d="M 72.154091 202.653924 
L 73.548961 201.769037 
L 74.943831 204.805429 
L 76.338701 209.339877 
L 77.733571 219.14204 
L 79.128442 224.581442 
L 80.523312 226.1091 
L 81.918182 213.448982 
L 83.313052 204.986257 
L 84.707922 214.662553 
L 86.102792 230.261716 
L 87.497662 227.116519 
L 88.892532 211.734886 
L 90.287403 205.684527 
L 91.682273 204.403381 
L 93.077143 199.296761 
L 94.472013 197.902245 
L 95.866883 193.755592 
L 97.261753 193.925603 
L 100.051494 217.413282 
L 101.446364 209.610516 
L 102.841234 165.475573 
L 104.236104 135.19431 
L 105.630974 125.930034 
L 107.025844 129.948728 
L 108.420714 141.526209 
L 109.815584 158.895791 
L 111.210455 159.958043 
L 112.605325 149.285144 
L 114.000195 144.90137 
L 115.395065 147.89515 
L 116.789935 152.069226 
L 118.184805 155.869008 
L 119.579675 155.717647 
L 120.974545 151.865266 
L 122.369416 150.330269 
L 123.764286 151.985695 
L 125.159156 154.172686 
L 126.554026 154.754775 
L 127.948896 150.312471 
L 129.343766 145.4443 
L 130.738636 143.405582 
L 132.133506 145.803009 
L 133.528377 149.894985 
L 134.923247 155.37933 
L 136.318117 159.069366 
L 137.712987 159.029465 
L 139.107857 153.510808 
L 140.502727 145.634261 
L 141.897597 140.787605 
L 143.292468 141.999702 
L 144.687338 148.949871 
L 146.082208 159.883398 
L 147.477078 173.190751 
L 148.871948 182.918685 
L 150.266818 186.233961 
L 151.661688 185.771288 
L 153.056558 186.603856 
L 154.451429 187.900156 
L 155.846299 188.792317 
L 157.241169 190.546951 
L 158.636039 195.893208 
L 160.030909 200.04394 
L 161.425779 200.169383 
L 162.820649 198.242822 
L 164.215519 195.946577 
L 165.61039 192.757785 
L 167.00526 190.810139 
L 168.40013 190.681833 
L 169.795 191.337731 
L 171.18987 193.957051 
L 172.58474 197.339746 
L 175.374481 206.340329 
L 176.769351 209.710048 
L 178.164221 209.121601 
L 180.953961 203.358511 
L 182.348831 200.691705 
L 183.743701 196.64097 
L 185.138571 190.585603 
L 187.928312 173.50681 
L 189.323182 168.769149 
L 190.718052 167.732452 
L 192.112922 169.781653 
L 193.507792 175.330119 
L 194.902662 179.950066 
L 197.692403 184.904561 
L 199.087273 188.625085 
L 200.482143 191.370597 
L 201.877013 192.766606 
L 203.271883 194.925035 
L 204.666753 198.238436 
L 206.061623 200.00108 
L 207.456494 198.599586 
L 208.851364 196.78778 
L 210.246234 193.504576 
L 211.641104 188.489081 
L 213.035974 184.312896 
L 214.430844 183.80996 
L 215.825714 187.24588 
L 217.220584 191.545492 
L 218.615455 195.143069 
L 220.010325 196.814836 
L 221.405195 195.867069 
L 222.800065 193.204151 
L 224.194935 192.834927 
L 225.589805 194.27007 
L 226.984675 194.676594 
L 228.379545 192.984403 
L 229.774416 191.022771 
L 231.169286 189.838767 
L 233.959026 183.183097 
L 235.353896 184.216026 
L 236.748766 190.436553 
L 239.538506 207.754795 
L 240.933377 215.724362 
L 242.328247 222.165538 
L 243.723117 223.199392 
L 245.117987 220.133771 
L 246.512857 215.480659 
L 247.907727 211.555256 
L 249.302597 209.541423 
L 250.697468 209.180288 
L 252.092338 210.189202 
L 253.487208 213.004038 
L 254.882078 214.964557 
L 256.276948 215.870325 
L 257.671818 216.555632 
L 259.066688 216.751288 
L 260.461558 215.133835 
L 261.856429 215.006489 
L 263.251299 218.116612 
L 264.646169 222.888353 
L 266.041039 226.296888 
L 267.435909 229.183912 
L 267.435909 229.183912 
" clip-path="url(#p9413fb5a9b)" style="fill: none; stroke: #4cc9f0; stroke-width: 1.5; stroke-linecap: square"/>
   </g>
   <g id="line2d_25">
    <path d="M 72.154091 205.033601 
L 73.548961 203.84307 
L 74.943831 204.656291 
L 76.338701 207.570764 
L 77.733571 218.239876 
L 79.128442 225.754966 
L 80.523312 226.796402 
L 81.918182 213.192393 
L 83.313052 202.131447 
L 84.707922 210.723312 
L 86.102792 229.973591 
L 87.497662 229.240884 
L 88.892532 214.493832 
L 90.287403 207.103929 
L 91.682273 205.068004 
L 93.077143 199.762444 
L 94.472013 197.855234 
L 95.866883 193.026066 
L 97.261753 192.606951 
L 100.051494 213.890927 
L 101.446364 203.129394 
L 102.841234 155.611919 
L 104.236104 122.872563 
L 105.630974 110.749021 
L 107.025844 111.291519 
L 108.420714 119.214709 
L 109.815584 134.138108 
L 111.210455 134.944216 
L 112.605325 125.891088 
L 114.000195 124.051285 
L 115.395065 130.002079 
L 118.184805 144.127337 
L 119.579675 144.615092 
L 120.974545 140.271481 
L 122.369416 138.505316 
L 125.159156 141.744766 
L 126.554026 141.321466 
L 129.343766 130.195985 
L 130.738636 127.951414 
L 132.133506 130.541504 
L 133.528377 134.789838 
L 134.923247 139.861966 
L 136.318117 142.956328 
L 137.712987 142.496141 
L 139.107857 136.971571 
L 140.502727 129.484573 
L 141.897597 125.451281 
L 143.292468 127.472355 
L 144.687338 135.009059 
L 146.082208 146.447989 
L 147.477078 160.042894 
L 148.871948 169.865597 
L 150.266818 173.25193 
L 151.661688 172.980273 
L 153.056558 174.051897 
L 154.451429 175.473574 
L 155.846299 176.328793 
L 157.241169 178.045468 
L 158.636039 183.30408 
L 160.030909 187.384288 
L 161.425779 187.509254 
L 162.820649 185.646135 
L 164.215519 183.549171 
L 165.61039 180.581841 
L 167.00526 178.61832 
L 168.40013 178.322997 
L 169.795 178.880334 
L 171.18987 181.40749 
L 172.58474 184.942499 
L 175.374481 194.662944 
L 176.769351 198.469897 
L 178.164221 198.102742 
L 180.953961 192.320951 
L 182.348831 189.604704 
L 183.743701 185.432489 
L 185.138571 179.288232 
L 186.533442 170.365261 
L 187.928312 162.322283 
L 189.323182 157.793411 
L 190.718052 156.697096 
L 192.112922 158.642674 
L 193.507792 164.108452 
L 194.902662 168.700302 
L 197.692403 173.978376 
L 199.087273 177.838635 
L 200.482143 180.55334 
L 201.877013 181.830906 
L 203.271883 183.987896 
L 204.666753 187.470264 
L 206.061623 189.397938 
L 207.456494 188.060019 
L 208.851364 186.423778 
L 210.246234 183.580061 
L 211.641104 179.110591 
L 213.035974 175.377651 
L 214.430844 175.148193 
L 215.825714 178.633654 
L 217.220584 182.704246 
L 218.615455 185.877861 
L 220.010325 187.138515 
L 221.405195 185.853203 
L 222.800065 183.02475 
L 224.194935 182.623177 
L 225.589805 184.110989 
L 226.984675 184.733549 
L 228.379545 183.335601 
L 229.774416 181.598026 
L 231.169286 180.750014 
L 232.564156 177.838822 
L 233.959026 174.495446 
L 235.353896 175.243005 
L 236.748766 181.008426 
L 239.538506 197.906128 
L 240.933377 206.160088 
L 242.328247 213.042208 
L 243.723117 214.467024 
L 245.117987 211.551795 
L 246.512857 206.882933 
L 247.907727 202.932158 
L 249.302597 200.94658 
L 250.697468 200.735595 
L 252.092338 201.977603 
L 253.487208 205.203466 
L 254.882078 207.552959 
L 256.276948 208.606889 
L 257.671818 209.240687 
L 259.066688 209.427089 
L 260.461558 207.698288 
L 261.856429 207.520762 
L 263.251299 210.594978 
L 264.646169 215.305343 
L 266.041039 218.561095 
L 267.435909 221.273728 
L 267.435909 221.273728 
" clip-path="url(#p9413fb5a9b)" style="fill: none; stroke: #4cc9f0; stroke-width: 1.5; stroke-linecap: square"/>
   </g>
   <g id="line2d_26">
    <path d="M 72.154091 202.064713 
L 73.548961 201.695264 
L 74.943831 204.934729 
L 76.338701 209.050861 
L 77.733571 218.938566 
L 79.128442 224.818926 
L 80.523312 226.569601 
L 81.918182 212.595251 
L 83.313052 204.244216 
L 84.707922 213.92893 
L 86.102792 229.740541 
L 87.497662 227.401487 
L 88.892532 211.849232 
L 90.287403 205.612647 
L 91.682273 203.635699 
L 93.077143 198.536276 
L 94.472013 197.366367 
L 95.866883 193.653889 
L 97.261753 194.40572 
L 100.051494 218.570974 
L 101.446364 212.334309 
L 102.841234 170.397726 
L 104.236104 141.42996 
L 105.630974 132.645013 
L 107.025844 136.753662 
L 108.420714 148.01509 
L 109.815584 164.637815 
L 111.210455 164.934128 
L 112.605325 153.58076 
L 114.000195 148.523711 
L 115.395065 151.733891 
L 116.789935 156.53592 
L 118.184805 160.0346 
L 119.579675 158.751104 
L 120.974545 154.017292 
L 122.369416 152.325148 
L 123.764286 154.519847 
L 125.159156 157.394562 
L 126.554026 158.551191 
L 127.948896 154.414249 
L 129.343766 149.78572 
L 130.738636 148.060677 
L 132.133506 150.689586 
L 133.528377 154.630995 
L 134.923247 159.530049 
L 136.318117 162.542443 
L 137.712987 162.0061 
L 139.107857 156.334764 
L 140.502727 148.572767 
L 141.897597 143.88161 
L 143.292468 145.307652 
L 144.687338 152.440595 
L 146.082208 163.486968 
L 147.477078 176.824676 
L 148.871948 186.479894 
L 150.266818 189.616258 
L 151.661688 188.913089 
L 153.056558 189.438059 
L 154.451429 190.509306 
L 155.846299 191.318011 
L 157.241169 193.129589 
L 158.636039 198.575547 
L 160.030909 202.816169 
L 161.425779 203.04992 
L 162.820649 201.205034 
L 164.215519 198.99797 
L 165.61039 195.919942 
L 167.00526 193.949395 
L 168.40013 193.69344 
L 169.795 194.194256 
L 171.18987 196.675229 
L 172.58474 199.992024 
L 175.374481 209.025602 
L 176.769351 212.535015 
L 178.164221 212.076477 
L 182.348831 203.683859 
L 183.743701 199.514332 
L 185.138571 193.222429 
L 186.533442 184.109009 
L 187.928312 175.751113 
L 189.323182 170.890123 
L 190.718052 169.808957 
L 192.112922 171.903059 
L 193.507792 177.522835 
L 194.902662 182.196812 
L 197.692403 186.978179 
L 199.087273 190.66071 
L 200.482143 193.35047 
L 201.877013 194.662119 
L 203.271883 196.705018 
L 204.666753 199.841239 
L 206.061623 201.332191 
L 207.456494 199.682504 
L 208.851364 197.694898 
L 210.246234 194.369792 
L 211.641104 189.399819 
L 213.035974 185.291267 
L 214.430844 184.867418 
L 215.825714 188.373924 
L 217.220584 192.697668 
L 218.615455 196.33712 
L 220.010325 198.074677 
L 221.405195 197.255887 
L 222.800065 194.72845 
L 224.194935 194.457926 
L 225.589805 195.899254 
L 226.984675 196.321388 
L 229.774416 192.930249 
L 231.169286 192.07439 
L 232.564156 189.081325 
L 233.959026 185.717573 
L 235.353896 186.614508 
L 236.748766 192.644214 
L 239.538506 209.874604 
L 240.933377 217.893526 
L 242.328247 224.393614 
L 243.723117 225.428887 
L 245.117987 222.331209 
L 246.512857 217.690101 
L 247.907727 213.786584 
L 249.302597 211.789125 
L 250.697468 211.472098 
L 252.092338 212.544004 
L 253.487208 215.375767 
L 254.882078 217.238532 
L 256.276948 217.871567 
L 257.671818 218.258147 
L 259.066688 218.268153 
L 260.461558 216.579284 
L 261.856429 216.462214 
L 263.251299 219.706705 
L 264.646169 224.744744 
L 266.041039 228.353912 
L 267.435909 231.365851 
L 267.435909 231.365851 
" clip-path="url(#p9413fb5a9b)" style="fill: none; stroke: #f48c06; stroke-width: 1.5; stroke-linecap: square"/>
   </g>
   <g id="line2d_27">
    <path d="M 72.154091 201.587131 
L 73.548961 200.020147 
L 74.943831 203.032892 
L 76.338701 209.718365 
L 77.733571 222.043701 
L 79.128442 226.682815 
L 80.523312 226.353639 
L 81.918182 210.520905 
L 83.313052 204.452857 
L 84.707922 215.186916 
L 86.102792 232.430743 
L 87.497662 230.740486 
L 88.892532 214.559423 
L 90.287403 206.362199 
L 91.682273 203.710746 
L 93.077143 197.693363 
L 94.472013 196.469117 
L 95.866883 194.72798 
L 97.261753 197.130167 
L 100.051494 222.251999 
L 101.446364 215.955508 
L 102.841234 175.071111 
L 104.236104 147.249761 
L 105.630974 137.57986 
L 107.025844 141.827866 
L 108.420714 153.563807 
L 109.815584 170.27689 
L 111.210455 170.450269 
L 112.605325 158.909293 
L 114.000195 154.183662 
L 115.395065 158.753014 
L 116.789935 165.894285 
L 118.184805 172.322673 
L 119.579675 172.925451 
L 120.974545 169.340572 
L 122.369416 167.966199 
L 123.764286 169.700032 
L 125.159156 171.736215 
L 126.554026 172.132792 
L 129.343766 163.58013 
L 130.738636 162.724836 
L 132.133506 166.238813 
L 133.528377 170.875351 
L 134.923247 176.418413 
L 136.318117 179.5252 
L 137.712987 177.855292 
L 139.107857 170.347858 
L 140.502727 161.097727 
L 141.897597 155.704283 
L 143.292468 156.941149 
L 144.687338 164.031074 
L 146.082208 175.130563 
L 147.477078 188.512798 
L 148.871948 197.981662 
L 150.266818 200.883606 
L 151.661688 199.853686 
L 153.056558 200.204652 
L 155.846299 202.279411 
L 157.241169 203.983526 
L 158.636039 208.997583 
L 160.030909 212.827645 
L 161.425779 212.786186 
L 164.215519 208.865669 
L 165.61039 206.145511 
L 167.00526 204.577702 
L 168.40013 204.379899 
L 169.795 204.427638 
L 171.18987 206.181543 
L 172.58474 208.600338 
L 173.97961 212.318517 
L 176.769351 220.527664 
L 178.164221 220.657341 
L 180.953961 215.565693 
L 182.348831 212.901312 
L 183.743701 208.773029 
L 185.138571 202.478881 
L 187.928312 185.05246 
L 189.323182 179.950931 
L 190.718052 178.656967 
L 192.112922 180.613795 
L 193.507792 186.067861 
L 194.902662 190.340966 
L 196.297532 192.333746 
L 197.692403 194.018922 
L 199.087273 197.136738 
L 200.482143 199.371443 
L 201.877013 200.612618 
L 203.271883 202.877833 
L 204.666753 206.369749 
L 206.061623 207.911364 
L 207.456494 206.046353 
L 208.851364 203.660852 
L 210.246234 199.804797 
L 211.641104 194.263604 
L 213.035974 189.625378 
L 214.430844 188.874889 
L 215.825714 192.48603 
L 217.220584 196.98595 
L 218.615455 200.718247 
L 220.010325 202.705927 
L 221.405195 202.175205 
L 222.800065 199.742912 
L 224.194935 199.34467 
L 225.589805 200.628097 
L 226.984675 200.912775 
L 229.774416 197.896159 
L 231.169286 197.514414 
L 232.564156 194.819382 
L 233.959026 191.55623 
L 235.353896 192.243949 
L 236.748766 197.870477 
L 240.933377 222.265746 
L 242.328247 229.228562 
L 243.723117 230.8535 
L 245.117987 228.424477 
L 246.512857 224.301497 
L 247.907727 220.6708 
L 249.302597 218.726287 
L 250.697468 218.421855 
L 252.092338 219.490818 
L 253.487208 222.113444 
L 254.882078 223.515712 
L 256.276948 223.80934 
L 257.671818 224.336349 
L 259.066688 224.665107 
L 260.461558 223.218272 
L 261.856429 223.25733 
L 263.251299 226.562842 
L 264.646169 231.354151 
L 266.041039 234.630907 
L 267.435909 237.318383 
L 267.435909 237.318383 
" clip-path="url(#p9413fb5a9b)" style="fill: none; stroke: #ffba08; stroke-width: 1.5; stroke-linecap: square"/>
   </g>
   <g id="line2d_28">
    <path d="M 72.154091 204.034896 
L 73.548961 202.593349 
L 74.943831 205.111922 
L 76.338701 210.705006 
L 77.733571 221.545172 
L 79.128442 226.476786 
L 80.523312 226.189031 
L 81.918182 210.88197 
L 83.313052 204.093078 
L 84.707922 215.534387 
L 86.102792 232.137741 
L 87.497662 229.624478 
L 88.892532 214.427213 
L 90.287403 207.392074 
L 91.682273 204.666304 
L 93.077143 199.095983 
L 94.472013 197.607549 
L 95.866883 193.66785 
L 97.261753 193.805328 
L 98.656623 205.590585 
L 100.051494 218.347367 
L 101.446364 213.368737 
L 102.841234 172.677776 
L 104.236104 143.85959 
L 105.630974 134.750997 
L 107.025844 138.608896 
L 108.420714 149.449667 
L 109.815584 166.393993 
L 111.210455 167.649721 
L 112.605325 156.949326 
L 114.000195 152.475634 
L 115.395065 156.427946 
L 116.789935 162.183286 
L 118.184805 166.164426 
L 119.579675 164.650329 
L 120.974545 159.602607 
L 122.369416 157.282348 
L 123.764286 158.56686 
L 125.159156 160.67723 
L 126.554026 161.334831 
L 129.343766 152.566668 
L 130.738636 151.135462 
L 132.133506 154.126366 
L 133.528377 158.519756 
L 134.923247 163.948007 
L 136.318117 167.271167 
L 137.712987 166.673459 
L 139.107857 160.75061 
L 140.502727 152.797765 
L 141.897597 148.140898 
L 143.292468 149.813871 
L 144.687338 157.233565 
L 146.082208 168.55968 
L 147.477078 182.161808 
L 148.871948 191.985374 
L 150.266818 195.238918 
L 151.661688 194.62737 
L 153.056558 195.206904 
L 154.451429 196.348721 
L 155.846299 197.23858 
L 157.241169 199.080958 
L 158.636039 204.439072 
L 160.030909 208.547813 
L 161.425779 208.629893 
L 162.820649 206.749088 
L 164.215519 204.613944 
L 165.61039 201.671793 
L 167.00526 199.819711 
L 168.40013 199.542519 
L 169.795 199.784837 
L 171.18987 202.005788 
L 172.58474 204.974615 
L 175.374481 213.376685 
L 176.769351 216.872984 
L 178.164221 216.486783 
L 180.953961 211.118816 
L 182.348831 208.598997 
L 183.743701 204.514698 
L 185.138571 198.11484 
L 186.533442 188.929034 
L 187.928312 180.551652 
L 189.323182 175.557774 
L 190.718052 174.357488 
L 192.112922 176.38058 
L 193.507792 182.032806 
L 194.902662 186.671595 
L 196.297532 189.059885 
L 197.692403 191.205131 
L 199.087273 194.737954 
L 200.482143 197.226459 
L 201.877013 198.409818 
L 203.271883 200.466759 
L 204.666753 203.728707 
L 206.061623 205.249666 
L 207.456494 203.438975 
L 208.851364 201.317085 
L 210.246234 197.809965 
L 211.641104 192.653941 
L 213.035974 188.352661 
L 214.430844 187.750805 
L 215.825714 191.231731 
L 217.220584 195.476156 
L 218.615455 199.047376 
L 220.010325 200.862289 
L 221.405195 200.242164 
L 222.800065 197.859083 
L 224.194935 197.567472 
L 225.589805 198.828427 
L 226.984675 199.042158 
L 229.774416 195.923739 
L 231.169286 195.426582 
L 232.564156 192.713241 
L 233.959026 189.583475 
L 235.353896 190.642649 
L 236.748766 196.673591 
L 239.538506 213.426326 
L 240.933377 221.278274 
L 242.328247 227.717977 
L 243.723117 228.761786 
L 245.117987 225.772649 
L 246.512857 221.31065 
L 247.907727 217.498319 
L 249.302597 215.480051 
L 250.697468 215.123985 
L 252.092338 216.193886 
L 253.487208 219.049167 
L 254.882078 220.930872 
L 256.276948 221.69008 
L 257.671818 222.275724 
L 259.066688 222.403433 
L 260.461558 220.700031 
L 261.856429 220.521959 
L 263.251299 223.764406 
L 264.646169 228.704024 
L 266.041039 232.264086 
L 267.435909 235.130095 
L 267.435909 235.130095 
" clip-path="url(#p9413fb5a9b)" style="fill: none; stroke: #ffba08; stroke-width: 1.5; stroke-linecap: square"/>
   </g>
   <g id="line2d_29">
    <path d="M 72.154091 203.453669 
L 73.548961 201.892586 
L 74.943831 204.599853 
L 76.338701 209.631745 
L 77.733571 220.342697 
L 79.128442 224.810678 
L 80.523312 225.689624 
L 81.918182 211.642955 
L 83.313052 204.99561 
L 84.707922 214.825076 
L 86.102792 231.184451 
L 87.497662 229.093517 
L 88.892532 213.771477 
L 90.287403 207.626385 
L 91.682273 205.418531 
L 93.077143 199.556999 
L 94.472013 197.85141 
L 95.866883 194.071278 
L 97.261753 194.560806 
L 100.051494 219.3863 
L 101.446364 214.194291 
L 102.841234 173.680729 
L 104.236104 145.202047 
L 105.630974 136.478426 
L 107.025844 140.639735 
L 108.420714 151.989758 
L 109.815584 168.900965 
L 111.210455 169.326447 
L 112.605325 157.390009 
L 114.000195 151.678568 
L 115.395065 154.888649 
L 116.789935 160.41716 
L 118.184805 164.503865 
L 119.579675 163.22006 
L 120.974545 158.402205 
L 122.369416 156.334579 
L 123.764286 157.986952 
L 125.159156 160.68153 
L 126.554026 161.975105 
L 129.343766 154.240565 
L 130.738636 153.228419 
L 132.133506 156.401292 
L 133.528377 160.768257 
L 134.923247 166.040149 
L 136.318117 169.27167 
L 137.712987 168.499443 
L 139.107857 162.343012 
L 140.502727 154.242452 
L 141.897597 149.562331 
L 143.292468 151.147297 
L 144.687338 158.408283 
L 146.082208 169.522274 
L 147.477078 182.903403 
L 148.871948 192.59635 
L 150.266818 195.787011 
L 151.661688 195.174286 
L 153.056558 195.800571 
L 154.451429 196.982007 
L 155.846299 197.815474 
L 157.241169 199.498763 
L 158.636039 204.730153 
L 160.030909 208.892436 
L 161.425779 209.34029 
L 162.820649 207.950965 
L 164.215519 206.089359 
L 165.61039 203.183622 
L 167.00526 201.168753 
L 168.40013 200.626957 
L 169.795 200.644311 
L 171.18987 202.684048 
L 172.58474 205.563302 
L 176.769351 217.698367 
L 178.164221 217.473462 
L 182.348831 209.516967 
L 183.743701 205.452306 
L 185.138571 199.124303 
L 187.928312 181.542369 
L 189.323182 176.361297 
L 190.718052 174.992427 
L 192.112922 176.82987 
L 193.507792 182.242985 
L 194.902662 186.645378 
L 197.692403 191.139881 
L 199.087273 194.779735 
L 200.482143 197.42388 
L 201.877013 198.787028 
L 203.271883 200.969145 
L 204.666753 204.349323 
L 206.061623 205.913291 
L 207.456494 204.063069 
L 208.851364 201.749333 
L 210.246234 198.054393 
L 211.641104 192.754742 
L 213.035974 188.306876 
L 214.430844 187.629133 
L 215.825714 191.123312 
L 217.220584 195.435849 
L 218.615455 199.018567 
L 220.010325 200.825382 
L 221.405195 200.218556 
L 222.800065 197.859695 
L 224.194935 197.595373 
L 225.589805 198.942744 
L 226.984675 199.205304 
L 229.774416 195.839234 
L 231.169286 195.134644 
L 232.564156 192.291261 
L 233.959026 189.126343 
L 235.353896 190.197192 
L 236.748766 196.238702 
L 239.538506 213.034409 
L 240.933377 220.990426 
L 242.328247 227.595699 
L 243.723117 228.783767 
L 245.117987 225.895482 
L 246.512857 221.511957 
L 247.907727 217.71496 
L 249.302597 215.619551 
L 250.697468 215.196644 
L 252.092338 216.239587 
L 253.487208 219.084364 
L 254.882078 220.911499 
L 256.276948 221.596653 
L 257.671818 222.137871 
L 259.066688 222.308207 
L 260.461558 220.662062 
L 261.856429 220.519335 
L 263.251299 223.764398 
L 264.646169 228.740685 
L 266.041039 232.327266 
L 267.435909 235.26293 
L 267.435909 235.26293 
" clip-path="url(#p9413fb5a9b)" style="fill: none; stroke: #ffba08; stroke-width: 1.5; stroke-linecap: square"/>
   </g>
   <g id="line2d_30">
    <path d="M 72.154091 203.900083 
L 73.548961 202.913345 
L 74.943831 203.556088 
L 76.338701 205.368484 
L 79.128442 225.092851 
L 80.523312 228.938329 
L 83.313052 204.71247 
L 84.707922 211.360665 
L 86.102792 226.723592 
L 87.497662 223.928864 
L 88.892532 208.372403 
L 90.287403 201.518844 
L 91.682273 200.454944 
L 93.077143 195.84984 
L 94.472013 194.682939 
L 95.866883 191.271276 
L 97.261753 192.638151 
L 98.656623 205.127085 
L 100.051494 216.032513 
L 101.446364 203.982807 
L 102.841234 152.702615 
L 104.236104 114.261064 
L 105.630974 98.208738 
L 107.025844 96.147503 
L 108.420714 103.038407 
L 109.815584 118.460634 
L 111.210455 120.834398 
L 112.605325 112.799696 
L 114.000195 110.592028 
L 115.395065 115.482906 
L 116.789935 121.069314 
L 118.184805 125.100884 
L 119.579675 123.705195 
L 120.974545 118.114939 
L 122.369416 115.641951 
L 123.764286 117.718783 
L 125.159156 121.185292 
L 126.554026 122.903046 
L 127.948896 118.966791 
L 129.343766 114.194992 
L 130.738636 112.365031 
L 132.133506 115.351751 
L 133.528377 119.893832 
L 134.923247 125.097477 
L 136.318117 128.522882 
L 137.712987 129.192987 
L 139.107857 125.23873 
L 140.502727 119.081785 
L 141.897597 115.714102 
L 143.292468 118.054382 
L 144.687338 125.736409 
L 146.082208 137.263657 
L 147.477078 151.088909 
L 148.871948 161.417214 
L 150.266818 165.205029 
L 151.661688 165.376841 
L 153.056558 166.704003 
L 154.451429 168.341173 
L 155.846299 169.321075 
L 157.241169 171.124779 
L 158.636039 176.510158 
L 160.030909 180.646785 
L 161.425779 180.724373 
L 162.820649 178.972415 
L 164.215519 177.039475 
L 165.61039 174.151234 
L 167.00526 172.319536 
L 168.40013 172.257658 
L 169.795 173.218554 
L 171.18987 176.147596 
L 172.58474 180.015674 
L 175.374481 190.279775 
L 176.769351 194.027413 
L 178.164221 193.52304 
L 182.348831 184.393668 
L 183.743701 179.992869 
L 185.138571 173.6965 
L 186.533442 164.483138 
L 187.928312 156.357922 
L 189.323182 151.954471 
L 190.718052 150.978159 
L 192.112922 153.019212 
L 193.507792 158.586792 
L 194.902662 163.509873 
L 197.692403 169.132903 
L 199.087273 173.113596 
L 200.482143 176.24792 
L 201.877013 177.780239 
L 203.271883 179.822955 
L 204.666753 183.102582 
L 206.061623 185.002875 
L 207.456494 183.736975 
L 208.851364 182.197173 
L 210.246234 179.633346 
L 211.641104 175.515494 
L 213.035974 172.16949 
L 214.430844 172.168416 
L 215.825714 175.702153 
L 217.220584 179.688478 
L 218.615455 182.743742 
L 220.010325 183.773095 
L 221.405195 182.286905 
L 222.800065 179.412927 
L 224.194935 179.079289 
L 225.589805 180.823344 
L 226.984675 181.759679 
L 228.379545 180.648611 
L 229.774416 179.140376 
L 231.169286 178.483573 
L 232.564156 175.535278 
L 233.959026 171.92334 
L 235.353896 172.562468 
L 236.748766 178.470539 
L 239.538506 196.189501 
L 240.933377 204.574462 
L 242.328247 211.346368 
L 243.723117 212.7229 
L 245.117987 209.765267 
L 246.512857 205.059921 
L 247.907727 201.103775 
L 249.302597 199.124743 
L 250.697468 198.768914 
L 252.092338 199.829986 
L 253.487208 202.956552 
L 254.882078 205.329251 
L 256.276948 206.485388 
L 257.671818 207.14507 
L 259.066688 207.25881 
L 260.461558 205.706887 
L 261.856429 205.752471 
L 263.251299 208.967972 
L 264.646169 213.83979 
L 266.041039 217.309418 
L 267.435909 220.17435 
L 267.435909 220.17435 
" clip-path="url(#p9413fb5a9b)" style="fill: none; stroke-dasharray: 5.55,2.4; stroke-dashoffset: 0; stroke: #000000; stroke-width: 1.5"/>
   </g>
   <g id="patch_3">
    <path d="M 62.39 246.04 
L 62.39 14.76 
" style="fill: none; stroke: #000000; stroke-width: 0.8; stroke-linejoin: miter; stroke-linecap: square"/>
   </g>
   <g id="patch_4">
    <path d="M 62.39 246.04 
L 277.2 246.04 
" style="fill: none; stroke: #000000; stroke-width: 0.8; stroke-linejoin: miter; stroke-linecap: square"/>
   </g>
  </g>
 </g>
 <defs>
  <clipPath id="p9413fb5a9b">
   <rect x="62.39" y="14.76" width="214.81" height="231.28"/>
  </clipPath>
 </defs>
</svg>
