<?xml version="1.0" encoding="utf-8" standalone="no"?>
<!DOCTYPE svg PUBLIC "-//W3C//DTD SVG 1.1//EN"
  "http://www.w3.org/Graphics/SVG/1.1/DTD/svg11.dtd">
<svg xmlns:xlink="http://www.w3.org/1999/xlink" width="288pt" height="288pt" viewBox="0 0 288 288" xmlns="http://www.w3.org/2000/svg" version="1.1">
 <metadata>
  <rdf:RDF xmlns:dc="http://purl.org/dc/elements/1.1/" xmlns:cc="http://creativecommons.org/ns#" xmlns:rdf="http://www.w3.org/1999/02/22-rdf-syntax-ns#">
   <cc:Work>
    <dc:type rdf:resource="http://purl.org/dc/dcmitype/StillImage"/>
    <dc:date>2025-12-03T11:15:44.854096</dc:date>
    <dc:format>image/svg+xml</dc:format>
    <dc:creator>
     <cc:Agent>
      <dc:title>Matplotlib v3.6.2, https://matplotlib.org/</dc:title>
     </cc:Agent>
    </dc:creator>
   </cc:Work>
  </rdf:RDF>
 </metadata>
 <defs>
  <style type="text/css">*{stroke-linejoin: round; stroke-linecap: butt}</style>
 </defs>
 <g id="figure_1">
  <g id="patch_1">
   <path d="M 0 288 
L 288 288 
L 288 0 
L 0 0 
L 0 288 
z
" style="fill: none"/>
  </g>
  <g id="axes_1">
   <g id="patch_2">
    <path d="M 62.39 246.04 
L 277.2 246.04 
L 277.2 14.76 
L 62.39 14.76 
L 62.39 246.04 
z
" style="fill: none"/>
   </g>
   <g id="matplotlib.axis_1">
    <g id="xtick_1">
     <g id="line2d_1">
      <defs>
       <path id="m43c9c3c497" d="M 0 0 
L 0 3.5 
" style="stroke: #000000; stroke-width: 0.8"/>
      </defs>
      <g>
       <use xlink:href="#m43c9c3c497" x="89.906983" y="246.04" style="stroke: #000000; stroke-width: 0.8"/>
      </g>
     </g>
     <g id="text_1">
      <!-- 0.0 -->
      <g transform="translate(81.955421 260.638438) scale(0.1 -0.1)">
       <defs>
        <path id="DejaVuSans-30" d="M 2034 4250 
Q 1547 4250 1301 3770 
Q 1056 3291 1056 2328 
Q 1056 1369 1301 889 
Q 1547 409 2034 409 
Q 2525 409 2770 889 
Q 3016 1369 3016 2328 
Q 3016 3291 2770 3770 
Q 2525 4250 2034 4250 
z
M 2034 4750 
Q 2819 4750 3233 4129 
Q 3647 3509 3647 2328 
Q 3647 1150 3233 529 
Q 2819 -91 2034 -91 
Q 1250 -91 836 529 
Q 422 1150 422 2328 
Q 422 3509 836 4129 
Q 1250 4750 2034 4750 
z
" transform="scale(0.015625)"/>
        <path id="DejaVuSans-2e" d="M 684 794 
L 1344 794 
L 1344 0 
L 684 0 
L 684 794 
z
" transform="scale(0.015625)"/>
       </defs>
       <use xlink:href="#DejaVuSans-30"/>
       <use xlink:href="#DejaVuSans-2e" x="63.623047"/>
       <use xlink:href="#DejaVuSans-30" x="95.410156"/>
      </g>
     </g>
    </g>
    <g id="xtick_2">
     <g id="line2d_2">
      <g>
       <use xlink:href="#m43c9c3c497" x="125.412769" y="246.04" style="stroke: #000000; stroke-width: 0.8"/>
      </g>
     </g>
     <g id="text_2">
      <!-- 0.2 -->
      <g transform="translate(117.461206 260.638438) scale(0.1 -0.1)">
       <defs>
        <path id="DejaVuSans-32" d="M 1228 531 
L 3431 531 
L 3431 0 
L 469 0 
L 469 531 
Q 828 903 1448 1529 
Q 2069 2156 2228 2338 
Q 2531 2678 2651 2914 
Q 2772 3150 2772 3378 
Q 2772 3750 2511 3984 
Q 2250 4219 1831 4219 
Q 1534 4219 1204 4116 
Q 875 4013 500 3803 
L 500 4441 
Q 881 4594 1212 4672 
Q 1544 4750 1819 4750 
Q 2544 4750 2975 4387 
Q 3406 4025 3406 3419 
Q 3406 3131 3298 2873 
Q 3191 2616 2906 2266 
Q 2828 2175 2409 1742 
Q 1991 1309 1228 531 
z
" transform="scale(0.015625)"/>
       </defs>
       <use xlink:href="#DejaVuSans-30"/>
       <use xlink:href="#DejaVuSans-2e" x="63.623047"/>
       <use xlink:href="#DejaVuSans-32" x="95.410156"/>
      </g>
     </g>
    </g>
    <g id="xtick_3">
     <g id="line2d_3">
      <g>
       <use xlink:href="#m43c9c3c497" x="160.918554" y="246.04" style="stroke: #000000; stroke-width: 0.8"/>
      </g>
     </g>
     <g id="text_3">
      <!-- 0.4 -->
      <g transform="translate(152.966991 260.638438) scale(0.1 -0.1)">
       <defs>
        <path id="DejaVuSans-34" d="M 2419 4116 
L 825 1625 
L 2419 1625 
L 2419 4116 
z
M 2253 4666 
L 3047 4666 
L 3047 1625 
L 3713 1625 
L 3713 1100 
L 3047 1100 
L 3047 0 
L 2419 0 
L 2419 1100 
L 313 1100 
L 313 1709 
L 2253 4666 
z
" transform="scale(0.015625)"/>
       </defs>
       <use xlink:href="#DejaVuSans-30"/>
       <use xlink:href="#DejaVuSans-2e" x="63.623047"/>
       <use xlink:href="#DejaVuSans-34" x="95.410156"/>
      </g>
     </g>
    </g>
    <g id="xtick_4">
     <g id="line2d_4">
      <g>
       <use xlink:href="#m43c9c3c497" x="196.424339" y="246.04" style="stroke: #000000; stroke-width: 0.8"/>
      </g>
     </g>
     <g id="text_4">
      <!-- 0.6 -->
      <g transform="translate(188.472776 260.638438) scale(0.1 -0.1)">
       <defs>
        <path id="DejaVuSans-36" d="M 2113 2584 
Q 1688 2584 1439 2293 
Q 1191 2003 1191 1497 
Q 1191 994 1439 701 
Q 1688 409 2113 409 
Q 2538 409 2786 701 
Q 3034 994 3034 1497 
Q 3034 2003 2786 2293 
Q 2538 2584 2113 2584 
z
M 3366 4563 
L 3366 3988 
Q 3128 4100 2886 4159 
Q 2644 4219 2406 4219 
Q 1781 4219 1451 3797 
Q 1122 3375 1075 2522 
Q 1259 2794 1537 2939 
Q 1816 3084 2150 3084 
Q 2853 3084 3261 2657 
Q 3669 2231 3669 1497 
Q 3669 778 3244 343 
Q 2819 -91 2113 -91 
Q 1303 -91 875 529 
Q 447 1150 447 2328 
Q 447 3434 972 4092 
Q 1497 4750 2381 4750 
Q 2619 4750 2861 4703 
Q 3103 4656 3366 4563 
z
" transform="scale(0.015625)"/>
       </defs>
       <use xlink:href="#DejaVuSans-30"/>
       <use xlink:href="#DejaVuSans-2e" x="63.623047"/>
       <use xlink:href="#DejaVuSans-36" x="95.410156"/>
      </g>
     </g>
    </g>
    <g id="xtick_5">
     <g id="line2d_5">
      <g>
       <use xlink:href="#m43c9c3c497" x="231.930124" y="246.04" style="stroke: #000000; stroke-width: 0.8"/>
      </g>
     </g>
     <g id="text_5">
      <!-- 0.8 -->
      <g transform="translate(223.978561 260.638438) scale(0.1 -0.1)">
       <defs>
        <path id="DejaVuSans-38" d="M 2034 2216 
Q 1584 2216 1326 1975 
Q 1069 1734 1069 1313 
Q 1069 891 1326 650 
Q 1584 409 2034 409 
Q 2484 409 2743 651 
Q 3003 894 3003 1313 
Q 3003 1734 2745 1975 
Q 2488 2216 2034 2216 
z
M 1403 2484 
Q 997 2584 770 2862 
Q 544 3141 544 3541 
Q 544 4100 942 4425 
Q 1341 4750 2034 4750 
Q 2731 4750 3128 4425 
Q 3525 4100 3525 3541 
Q 3525 3141 3298 2862 
Q 3072 2584 2669 2484 
Q 3125 2378 3379 2068 
Q 3634 1759 3634 1313 
Q 3634 634 3220 271 
Q 2806 -91 2034 -91 
Q 1263 -91 848 271 
Q 434 634 434 1313 
Q 434 1759 690 2068 
Q 947 2378 1403 2484 
z
M 1172 3481 
Q 1172 3119 1398 2916 
Q 1625 2713 2034 2713 
Q 2441 2713 2670 2916 
Q 2900 3119 2900 3481 
Q 2900 3844 2670 4047 
Q 2441 4250 2034 4250 
Q 1625 4250 1398 4047 
Q 1172 3844 1172 3481 
z
" transform="scale(0.015625)"/>
       </defs>
       <use xlink:href="#DejaVuSans-30"/>
       <use xlink:href="#DejaVuSans-2e" x="63.623047"/>
       <use xlink:href="#DejaVuSans-38" x="95.410156"/>
      </g>
     </g>
    </g>
    <g id="xtick_6">
     <g id="line2d_6">
      <g>
       <use xlink:href="#m43c9c3c497" x="267.435909" y="246.04" style="stroke: #000000; stroke-width: 0.8"/>
      </g>
     </g>
     <g id="text_6">
      <!-- 1.0 -->
      <g transform="translate(259.484347 260.638438) scale(0.1 -0.1)">
       <defs>
        <path id="DejaVuSans-31" d="M 794 531 
L 1825 531 
L 1825 4091 
L 703 3866 
L 703 4441 
L 1819 4666 
L 2450 4666 
L 2450 531 
L 3481 531 
L 3481 0 
L 794 0 
L 794 531 
z
" transform="scale(0.015625)"/>
       </defs>
       <use xlink:href="#DejaVuSans-31"/>
       <use xlink:href="#DejaVuSans-2e" x="63.623047"/>
       <use xlink:href="#DejaVuSans-30" x="95.410156"/>
      </g>
     </g>
    </g>
    <g id="text_7">
     <!-- Time (s) -->
     <g transform="translate(149.466094 274.316562) scale(0.1 -0.1)">
      <defs>
       <path id="DejaVuSans-54" d="M -19 4666 
L 3928 4666 
L 3928 4134 
L 2272 4134 
L 2272 0 
L 1638 0 
L 1638 4134 
L -19 4134 
L -19 4666 
z
" transform="scale(0.015625)"/>
       <path id="DejaVuSans-69" d="M 603 3500 
L 1178 3500 
L 1178 0 
L 603 0 
L 603 3500 
z
M 603 4863 
L 1178 4863 
L 1178 4134 
L 603 4134 
L 603 4863 
z
" transform="scale(0.015625)"/>
       <path id="DejaVuSans-6d" d="M 3328 2828 
Q 3544 3216 3844 3400 
Q 4144 3584 4550 3584 
Q 5097 3584 5394 3201 
Q 5691 2819 5691 2113 
L 5691 0 
L 5113 0 
L 5113 2094 
Q 5113 2597 4934 2840 
Q 4756 3084 4391 3084 
Q 3944 3084 3684 2787 
Q 3425 2491 3425 1978 
L 3425 0 
L 2847 0 
L 2847 2094 
Q 2847 2600 2669 2842 
Q 2491 3084 2119 3084 
Q 1678 3084 1418 2786 
Q 1159 2488 1159 1978 
L 1159 0 
L 581 0 
L 581 3500 
L 1159 3500 
L 1159 2956 
Q 1356 3278 1631 3431 
Q 1906 3584 2284 3584 
Q 2666 3584 2933 3390 
Q 3200 3197 3328 2828 
z
" transform="scale(0.015625)"/>
       <path id="DejaVuSans-65" d="M 3597 1894 
L 3597 1613 
L 953 1613 
Q 991 1019 1311 708 
Q 1631 397 2203 397 
Q 2534 397 2845 478 
Q 3156 559 3463 722 
L 3463 178 
Q 3153 47 2828 -22 
Q 2503 -91 2169 -91 
Q 1331 -91 842 396 
Q 353 884 353 1716 
Q 353 2575 817 3079 
Q 1281 3584 2069 3584 
Q 2775 3584 3186 3129 
Q 3597 2675 3597 1894 
z
M 3022 2063 
Q 3016 2534 2758 2815 
Q 2500 3097 2075 3097 
Q 1594 3097 1305 2825 
Q 1016 2553 972 2059 
L 3022 2063 
z
" transform="scale(0.015625)"/>
       <path id="DejaVuSans-20" transform="scale(0.015625)"/>
       <path id="DejaVuSans-28" d="M 1984 4856 
Q 1566 4138 1362 3434 
Q 1159 2731 1159 2009 
Q 1159 1288 1364 580 
Q 1569 -128 1984 -844 
L 1484 -844 
Q 1016 -109 783 600 
Q 550 1309 550 2009 
Q 550 2706 781 3412 
Q 1013 4119 1484 4856 
L 1984 4856 
z
" transform="scale(0.015625)"/>
       <path id="DejaVuSans-73" d="M 2834 3397 
L 2834 2853 
Q 2591 2978 2328 3040 
Q 2066 3103 1784 3103 
Q 1356 3103 1142 2972 
Q 928 2841 928 2578 
Q 928 2378 1081 2264 
Q 1234 2150 1697 2047 
L 1894 2003 
Q 2506 1872 2764 1633 
Q 3022 1394 3022 966 
Q 3022 478 2636 193 
Q 2250 -91 1575 -91 
Q 1294 -91 989 -36 
Q 684 19 347 128 
L 347 722 
Q 666 556 975 473 
Q 1284 391 1588 391 
Q 1994 391 2212 530 
Q 2431 669 2431 922 
Q 2431 1156 2273 1281 
Q 2116 1406 1581 1522 
L 1381 1569 
Q 847 1681 609 1914 
Q 372 2147 372 2553 
Q 372 3047 722 3315 
Q 1072 3584 1716 3584 
Q 2034 3584 2315 3537 
Q 2597 3491 2834 3397 
z
" transform="scale(0.015625)"/>
       <path id="DejaVuSans-29" d="M 513 4856 
L 1013 4856 
Q 1481 4119 1714 3412 
Q 1947 2706 1947 2009 
Q 1947 1309 1714 600 
Q 1481 -109 1013 -844 
L 513 -844 
Q 928 -128 1133 580 
Q 1338 1288 1338 2009 
Q 1338 2731 1133 3434 
Q 928 4138 513 4856 
z
" transform="scale(0.015625)"/>
      </defs>
      <use xlink:href="#DejaVuSans-54"/>
      <use xlink:href="#DejaVuSans-69" x="57.958984"/>
      <use xlink:href="#DejaVuSans-6d" x="85.742188"/>
      <use xlink:href="#DejaVuSans-65" x="183.154297"/>
      <use xlink:href="#DejaVuSans-20" x="244.677734"/>
      <use xlink:href="#DejaVuSans-28" x="276.464844"/>
      <use xlink:href="#DejaVuSans-73" x="315.478516"/>
      <use xlink:href="#DejaVuSans-29" x="367.578125"/>
     </g>
    </g>
   </g>
   <g id="matplotlib.axis_2">
    <g id="ytick_1">
     <g id="line2d_7">
      <defs>
       <path id="mbad28f457c" d="M 0 0 
L -3.5 0 
" style="stroke: #000000; stroke-width: 0.8"/>
      </defs>
      <g>
       <use xlink:href="#mbad28f457c" x="62.39" y="230.621333" style="stroke: #000000; stroke-width: 0.8"/>
      </g>
     </g>
     <g id="text_8">
      <!-- −0.01 -->
      <g transform="translate(24.744687 234.420552) scale(0.1 -0.1)">
       <defs>
        <path id="DejaVuSans-2212" d="M 678 2272 
L 4684 2272 
L 4684 1741 
L 678 1741 
L 678 2272 
z
" transform="scale(0.015625)"/>
       </defs>
       <use xlink:href="#DejaVuSans-2212"/>
       <use xlink:href="#DejaVuSans-30" x="83.789062"/>
       <use xlink:href="#DejaVuSans-2e" x="147.412109"/>
       <use xlink:href="#DejaVuSans-30" x="179.199219"/>
       <use xlink:href="#DejaVuSans-31" x="242.822266"/>
      </g>
     </g>
    </g>
    <g id="ytick_2">
     <g id="line2d_8">
      <g>
       <use xlink:href="#mbad28f457c" x="62.39" y="199.784" style="stroke: #000000; stroke-width: 0.8"/>
      </g>
     </g>
     <g id="text_9">
      <!-- 0.00 -->
      <g transform="translate(33.124375 203.583219) scale(0.1 -0.1)">
       <use xlink:href="#DejaVuSans-30"/>
       <use xlink:href="#DejaVuSans-2e" x="63.623047"/>
       <use xlink:href="#DejaVuSans-30" x="95.410156"/>
       <use xlink:href="#DejaVuSans-30" x="159.033203"/>
      </g>
     </g>
    </g>
    <g id="ytick_3">
     <g id="line2d_9">
      <g>
       <use xlink:href="#mbad28f457c" x="62.39" y="168.946667" style="stroke: #000000; stroke-width: 0.8"/>
      </g>
     </g>
     <g id="text_10">
      <!-- 0.01 -->
      <g transform="translate(33.124375 172.745885) scale(0.1 -0.1)">
       <use xlink:href="#DejaVuSans-30"/>
       <use xlink:href="#DejaVuSans-2e" x="63.623047"/>
       <use xlink:href="#DejaVuSans-30" x="95.410156"/>
       <use xlink:href="#DejaVuSans-31" x="159.033203"/>
      </g>
     </g>
    </g>
    <g id="ytick_4">
     <g id="line2d_10">
      <g>
       <use xlink:href="#mbad28f457c" x="62.39" y="138.109333" style="stroke: #000000; stroke-width: 0.8"/>
      </g>
     </g>
     <g id="text_11">
      <!-- 0.02 -->
      <g transform="translate(33.124375 141.908552) scale(0.1 -0.1)">
       <use xlink:href="#DejaVuSans-30"/>
       <use xlink:href="#DejaVuSans-2e" x="63.623047"/>
       <use xlink:href="#DejaVuSans-30" x="95.410156"/>
       <use xlink:href="#DejaVuSans-32" x="159.033203"/>
      </g>
     </g>
    </g>
    <g id="ytick_5">
     <g id="line2d_11">
      <g>
       <use xlink:href="#mbad28f457c" x="62.39" y="107.272" style="stroke: #000000; stroke-width: 0.8"/>
      </g>
     </g>
     <g id="text_12">
      <!-- 0.03 -->
      <g transform="translate(33.124375 111.071219) scale(0.1 -0.1)">
       <defs>
        <path id="DejaVuSans-33" d="M 2597 2516 
Q 3050 2419 3304 2112 
Q 3559 1806 3559 1356 
Q 3559 666 3084 287 
Q 2609 -91 1734 -91 
Q 1441 -91 1130 -33 
Q 819 25 488 141 
L 488 750 
Q 750 597 1062 519 
Q 1375 441 1716 441 
Q 2309 441 2620 675 
Q 2931 909 2931 1356 
Q 2931 1769 2642 2001 
Q 2353 2234 1838 2234 
L 1294 2234 
L 1294 2753 
L 1863 2753 
Q 2328 2753 2575 2939 
Q 2822 3125 2822 3475 
Q 2822 3834 2567 4026 
Q 2313 4219 1838 4219 
Q 1578 4219 1281 4162 
Q 984 4106 628 3988 
L 628 4550 
Q 988 4650 1302 4700 
Q 1616 4750 1894 4750 
Q 2613 4750 3031 4423 
Q 3450 4097 3450 3541 
Q 3450 3153 3228 2886 
Q 3006 2619 2597 2516 
z
" transform="scale(0.015625)"/>
       </defs>
       <use xlink:href="#DejaVuSans-30"/>
       <use xlink:href="#DejaVuSans-2e" x="63.623047"/>
       <use xlink:href="#DejaVuSans-30" x="95.410156"/>
       <use xlink:href="#DejaVuSans-33" x="159.033203"/>
      </g>
     </g>
    </g>
    <g id="ytick_6">
     <g id="line2d_12">
      <g>
       <use xlink:href="#mbad28f457c" x="62.39" y="76.434667" style="stroke: #000000; stroke-width: 0.8"/>
      </g>
     </g>
     <g id="text_13">
      <!-- 0.04 -->
      <g transform="translate(33.124375 80.233885) scale(0.1 -0.1)">
       <use xlink:href="#DejaVuSans-30"/>
       <use xlink:href="#DejaVuSans-2e" x="63.623047"/>
       <use xlink:href="#DejaVuSans-30" x="95.410156"/>
       <use xlink:href="#DejaVuSans-34" x="159.033203"/>
      </g>
     </g>
    </g>
    <g id="ytick_7">
     <g id="line2d_13">
      <g>
       <use xlink:href="#mbad28f457c" x="62.39" y="45.597333" style="stroke: #000000; stroke-width: 0.8"/>
      </g>
     </g>
     <g id="text_14">
      <!-- 0.05 -->
      <g transform="translate(33.124375 49.396552) scale(0.1 -0.1)">
       <defs>
        <path id="DejaVuSans-35" d="M 691 4666 
L 3169 4666 
L 3169 4134 
L 1269 4134 
L 1269 2991 
Q 1406 3038 1543 3061 
Q 1681 3084 1819 3084 
Q 2600 3084 3056 2656 
Q 3513 2228 3513 1497 
Q 3513 744 3044 326 
Q 2575 -91 1722 -91 
Q 1428 -91 1123 -41 
Q 819 9 494 109 
L 494 744 
Q 775 591 1075 516 
Q 1375 441 1709 441 
Q 2250 441 2565 725 
Q 2881 1009 2881 1497 
Q 2881 1984 2565 2268 
Q 2250 2553 1709 2553 
Q 1456 2553 1204 2497 
Q 953 2441 691 2322 
L 691 4666 
z
" transform="scale(0.015625)"/>
       </defs>
       <use xlink:href="#DejaVuSans-30"/>
       <use xlink:href="#DejaVuSans-2e" x="63.623047"/>
       <use xlink:href="#DejaVuSans-30" x="95.410156"/>
       <use xlink:href="#DejaVuSans-35" x="159.033203"/>
      </g>
     </g>
    </g>
    <g id="ytick_8">
     <g id="line2d_14">
      <g>
       <use xlink:href="#mbad28f457c" x="62.39" y="14.76" style="stroke: #000000; stroke-width: 0.8"/>
      </g>
     </g>
     <g id="text_15">
      <!-- 0.06 -->
      <g transform="translate(33.124375 18.559219) scale(0.1 -0.1)">
       <use xlink:href="#DejaVuSans-30"/>
       <use xlink:href="#DejaVuSans-2e" x="63.623047"/>
       <use xlink:href="#DejaVuSans-30" x="95.410156"/>
       <use xlink:href="#DejaVuSans-36" x="159.033203"/>
      </g>
     </g>
    </g>
    <g id="text_16">
     <!-- Partial Correlation -->
     <g transform="translate(18.665 175.269531) rotate(-90) scale(0.1 -0.1)">
      <defs>
       <path id="DejaVuSans-50" d="M 1259 4147 
L 1259 2394 
L 2053 2394 
Q 2494 2394 2734 2622 
Q 2975 2850 2975 3272 
Q 2975 3691 2734 3919 
Q 2494 4147 2053 4147 
L 1259 4147 
z
M 628 4666 
L 2053 4666 
Q 2838 4666 3239 4311 
Q 3641 3956 3641 3272 
Q 3641 2581 3239 2228 
Q 2838 1875 2053 1875 
L 1259 1875 
L 1259 0 
L 628 0 
L 628 4666 
z
" transform="scale(0.015625)"/>
       <path id="DejaVuSans-61" d="M 2194 1759 
Q 1497 1759 1228 1600 
Q 959 1441 959 1056 
Q 959 750 1161 570 
Q 1363 391 1709 391 
Q 2188 391 2477 730 
Q 2766 1069 2766 1631 
L 2766 1759 
L 2194 1759 
z
M 3341 1997 
L 3341 0 
L 2766 0 
L 2766 531 
Q 2569 213 2275 61 
Q 1981 -91 1556 -91 
Q 1019 -91 701 211 
Q 384 513 384 1019 
Q 384 1609 779 1909 
Q 1175 2209 1959 2209 
L 2766 2209 
L 2766 2266 
Q 2766 2663 2505 2880 
Q 2244 3097 1772 3097 
Q 1472 3097 1187 3025 
Q 903 2953 641 2809 
L 641 3341 
Q 956 3463 1253 3523 
Q 1550 3584 1831 3584 
Q 2591 3584 2966 3190 
Q 3341 2797 3341 1997 
z
" transform="scale(0.015625)"/>
       <path id="DejaVuSans-72" d="M 2631 2963 
Q 2534 3019 2420 3045 
Q 2306 3072 2169 3072 
Q 1681 3072 1420 2755 
Q 1159 2438 1159 1844 
L 1159 0 
L 581 0 
L 581 3500 
L 1159 3500 
L 1159 2956 
Q 1341 3275 1631 3429 
Q 1922 3584 2338 3584 
Q 2397 3584 2469 3576 
Q 2541 3569 2628 3553 
L 2631 2963 
z
" transform="scale(0.015625)"/>
       <path id="DejaVuSans-74" d="M 1172 4494 
L 1172 3500 
L 2356 3500 
L 2356 3053 
L 1172 3053 
L 1172 1153 
Q 1172 725 1289 603 
Q 1406 481 1766 481 
L 2356 481 
L 2356 0 
L 1766 0 
Q 1100 0 847 248 
Q 594 497 594 1153 
L 594 3053 
L 172 3053 
L 172 3500 
L 594 3500 
L 594 4494 
L 1172 4494 
z
" transform="scale(0.015625)"/>
       <path id="DejaVuSans-6c" d="M 603 4863 
L 1178 4863 
L 1178 0 
L 603 0 
L 603 4863 
z
" transform="scale(0.015625)"/>
       <path id="DejaVuSans-43" d="M 4122 4306 
L 4122 3641 
Q 3803 3938 3442 4084 
Q 3081 4231 2675 4231 
Q 1875 4231 1450 3742 
Q 1025 3253 1025 2328 
Q 1025 1406 1450 917 
Q 1875 428 2675 428 
Q 3081 428 3442 575 
Q 3803 722 4122 1019 
L 4122 359 
Q 3791 134 3420 21 
Q 3050 -91 2638 -91 
Q 1578 -91 968 557 
Q 359 1206 359 2328 
Q 359 3453 968 4101 
Q 1578 4750 2638 4750 
Q 3056 4750 3426 4639 
Q 3797 4528 4122 4306 
z
" transform="scale(0.015625)"/>
       <path id="DejaVuSans-6f" d="M 1959 3097 
Q 1497 3097 1228 2736 
Q 959 2375 959 1747 
Q 959 1119 1226 758 
Q 1494 397 1959 397 
Q 2419 397 2687 759 
Q 2956 1122 2956 1747 
Q 2956 2369 2687 2733 
Q 2419 3097 1959 3097 
z
M 1959 3584 
Q 2709 3584 3137 3096 
Q 3566 2609 3566 1747 
Q 3566 888 3137 398 
Q 2709 -91 1959 -91 
Q 1206 -91 779 398 
Q 353 888 353 1747 
Q 353 2609 779 3096 
Q 1206 3584 1959 3584 
z
" transform="scale(0.015625)"/>
       <path id="DejaVuSans-6e" d="M 3513 2113 
L 3513 0 
L 2938 0 
L 2938 2094 
Q 2938 2591 2744 2837 
Q 2550 3084 2163 3084 
Q 1697 3084 1428 2787 
Q 1159 2491 1159 1978 
L 1159 0 
L 581 0 
L 581 3500 
L 1159 3500 
L 1159 2956 
Q 1366 3272 1645 3428 
Q 1925 3584 2291 3584 
Q 2894 3584 3203 3211 
Q 3513 2838 3513 2113 
z
" transform="scale(0.015625)"/>
      </defs>
      <use xlink:href="#DejaVuSans-50"/>
      <use xlink:href="#DejaVuSans-61" x="55.802734"/>
      <use xlink:href="#DejaVuSans-72" x="117.082031"/>
      <use xlink:href="#DejaVuSans-74" x="158.195312"/>
      <use xlink:href="#DejaVuSans-69" x="197.404297"/>
      <use xlink:href="#DejaVuSans-61" x="225.1875"/>
      <use xlink:href="#DejaVuSans-6c" x="286.466797"/>
      <use xlink:href="#DejaVuSans-20" x="314.25"/>
      <use xlink:href="#DejaVuSans-43" x="346.037109"/>
      <use xlink:href="#DejaVuSans-6f" x="415.861328"/>
      <use xlink:href="#DejaVuSans-72" x="477.042969"/>
      <use xlink:href="#DejaVuSans-72" x="516.40625"/>
      <use xlink:href="#DejaVuSans-65" x="555.269531"/>
      <use xlink:href="#DejaVuSans-6c" x="616.792969"/>
      <use xlink:href="#DejaVuSans-61" x="644.576172"/>
      <use xlink:href="#DejaVuSans-74" x="705.855469"/>
      <use xlink:href="#DejaVuSans-69" x="745.064453"/>
      <use xlink:href="#DejaVuSans-6f" x="772.847656"/>
      <use xlink:href="#DejaVuSans-6e" x="834.029297"/>
     </g>
    </g>
   </g>
   <g id="line2d_15">
    <path d="M 89.906983 246.04 
L 89.906983 14.76 
" clip-path="url(#p4cf549e000)" style="fill: none; stroke-dasharray: 5.55,2.4; stroke-dashoffset: 0; stroke: #d3d3d3; stroke-width: 1.5"/>
   </g>
   <g id="line2d_16">
    <path d="M 62.39 199.784 
L 277.2 199.784 
" clip-path="url(#p4cf549e000)" style="fill: none; stroke-dasharray: 5.55,2.4; stroke-dashoffset: 0; stroke: #d3d3d3; stroke-width: 1.5"/>
   </g>
   <g id="line2d_17">
    <path d="M 72.154091 203.441093 
L 73.548961 203.921458 
L 74.943831 198.240608 
L 76.338701 187.071168 
L 77.733571 192.32364 
L 79.128442 206.187377 
L 80.523312 215.595116 
L 81.918182 206.318648 
L 83.313052 202.339474 
L 84.707922 190.43492 
L 86.102792 192.849897 
L 87.497662 195.956679 
L 88.892532 199.803608 
L 90.287403 194.898547 
L 91.682273 187.395475 
L 93.077143 178.335497 
L 94.472013 177.404526 
L 95.866883 177.846949 
L 97.261753 182.207478 
L 98.656623 184.411812 
L 100.051494 180.342542 
L 101.446364 163.048626 
L 102.841234 134.90634 
L 104.236104 114.084817 
L 105.630974 112.114586 
L 107.025844 118.745563 
L 108.420714 126.389674 
L 109.815584 127.75901 
L 111.210455 120.81505 
L 112.605325 112.34353 
L 114.000195 106.280877 
L 115.395065 104.084541 
L 116.789935 107.416738 
L 118.184805 122.784671 
L 119.579675 139.971532 
L 120.974545 151.533254 
L 122.369416 158.306135 
L 123.764286 162.24948 
L 125.159156 163.40042 
L 126.554026 161.834662 
L 127.948896 157.875499 
L 130.738636 145.90304 
L 132.133506 140.67722 
L 133.528377 136.057506 
L 134.923247 133.855216 
L 136.318117 133.360282 
L 137.712987 133.118131 
L 139.107857 132.758384 
L 140.502727 133.511736 
L 141.897597 134.969015 
L 144.687338 142.736509 
L 147.477078 150.229355 
L 148.871948 154.262161 
L 150.266818 157.256723 
L 151.661688 158.950171 
L 153.056558 159.558521 
L 154.451429 160.390529 
L 155.846299 160.357493 
L 157.241169 159.754147 
L 161.425779 156.871612 
L 162.820649 156.590232 
L 164.215519 157.295686 
L 165.61039 158.80364 
L 171.18987 169.253231 
L 172.58474 172.247827 
L 173.97961 175.516623 
L 175.374481 177.980832 
L 176.769351 179.83628 
L 178.164221 180.745296 
L 179.559091 181.109044 
L 182.348831 183.143131 
L 183.743701 182.934958 
L 185.138571 181.517135 
L 186.533442 179.851776 
L 187.928312 179.413426 
L 189.323182 179.905325 
L 190.718052 180.74713 
L 192.112922 181.784786 
L 193.507792 182.324347 
L 194.902662 182.38041 
L 196.297532 182.147283 
L 197.692403 182.488156 
L 199.087273 183.392469 
L 200.482143 185.680935 
L 203.271883 189.094783 
L 206.061623 195.492199 
L 207.456494 196.423167 
L 208.851364 195.257507 
L 210.246234 193.625896 
L 211.641104 191.002163 
L 214.430844 183.875221 
L 215.825714 181.985479 
L 217.220584 180.657612 
L 218.615455 178.678171 
L 220.010325 177.548725 
L 221.405195 178.212075 
L 222.800065 179.647295 
L 224.194935 179.502292 
L 225.589805 178.759277 
L 228.379545 176.478419 
L 229.774416 176.085207 
L 232.564156 177.283911 
L 233.959026 177.535662 
L 236.748766 175.414136 
L 238.143636 175.332738 
L 239.538506 176.682429 
L 240.933377 178.462997 
L 243.723117 183.523989 
L 245.117987 184.546032 
L 246.512857 183.193935 
L 247.907727 180.619392 
L 249.302597 178.633928 
L 250.697468 177.728889 
L 252.092338 177.103776 
L 253.487208 177.132248 
L 254.882078 177.809641 
L 257.671818 177.845373 
L 259.066688 179.776485 
L 260.461558 183.324066 
L 261.856429 186.517597 
L 263.251299 188.422361 
L 264.646169 189.742203 
L 266.041039 190.466871 
L 267.435909 190.002015 
L 267.435909 190.002015 
" clip-path="url(#p4cf549e000)" style="fill: none; stroke: #7209b7; stroke-width: 1.5; stroke-linecap: square"/>
   </g>
   <g id="line2d_18">
    <path d="M 72.154091 204.806794 
L 73.548961 201.125809 
L 74.943831 191.946461 
L 76.338701 179.589787 
L 77.733571 187.883833 
L 79.128442 208.178068 
L 80.523312 216.525395 
L 81.918182 206.85942 
L 83.313052 194.233754 
L 84.707922 183.58002 
L 86.102792 190.760514 
L 87.497662 200.334248 
L 88.892532 207.323728 
L 90.287403 198.740827 
L 93.077143 178.149816 
L 94.472013 177.380396 
L 95.866883 179.125189 
L 97.261753 184.972878 
L 98.656623 185.402578 
L 100.051494 172.725041 
L 101.446364 141.105168 
L 102.841234 98.731673 
L 104.236104 70.515491 
L 105.630974 62.380221 
L 107.025844 66.685919 
L 108.420714 73.587596 
L 109.815584 72.36541 
L 111.210455 65.252044 
L 112.605325 61.417259 
L 114.000195 62.49563 
L 115.395065 66.433798 
L 116.789935 73.986117 
L 119.579675 117.367785 
L 120.974545 130.455464 
L 122.369416 136.314846 
L 123.764286 137.085315 
L 125.159156 133.702371 
L 126.554026 127.575707 
L 129.343766 113.13551 
L 130.738636 107.200828 
L 132.133506 103.210868 
L 133.528377 100.660718 
L 134.923247 100.438425 
L 136.318117 101.062098 
L 137.712987 100.584347 
L 139.107857 98.790259 
L 140.502727 97.758937 
L 141.897597 98.382963 
L 143.292468 102.259347 
L 146.082208 111.369826 
L 148.871948 121.458172 
L 150.266818 125.572852 
L 151.661688 127.558528 
L 153.056558 127.546367 
L 154.451429 126.913202 
L 155.846299 125.825772 
L 157.241169 124.406882 
L 158.636039 122.59484 
L 160.030909 121.368579 
L 161.425779 120.858325 
L 162.820649 120.776821 
L 164.215519 121.3078 
L 165.61039 122.643713 
L 175.374481 143.424606 
L 176.769351 145.971805 
L 178.164221 148.171956 
L 179.559091 150.117629 
L 180.953961 152.443439 
L 182.348831 154.490737 
L 183.743701 155.065499 
L 185.138571 154.609505 
L 186.533442 153.961841 
L 187.928312 154.472766 
L 190.718052 156.681225 
L 192.112922 157.38401 
L 193.507792 157.090413 
L 194.902662 156.481814 
L 196.297532 156.527662 
L 197.692403 157.851118 
L 199.087273 159.642225 
L 200.482143 162.392584 
L 201.877013 164.09607 
L 203.271883 165.399974 
L 204.666753 167.976311 
L 206.061623 170.854605 
L 207.456494 172.050931 
L 208.851364 172.018709 
L 210.246234 172.364742 
L 211.641104 171.489059 
L 213.035974 168.906362 
L 214.430844 165.870498 
L 215.825714 163.96415 
L 217.220584 162.535088 
L 218.615455 160.11838 
L 220.010325 158.325613 
L 221.405195 157.743531 
L 222.800065 157.397715 
L 225.589805 153.2775 
L 226.984675 151.593114 
L 228.379545 150.502975 
L 229.774416 150.584129 
L 231.169286 152.025594 
L 232.564156 152.966279 
L 233.959026 152.760206 
L 236.748766 149.44182 
L 238.143636 148.842963 
L 239.538506 149.761962 
L 240.933377 151.38815 
L 242.328247 154.326049 
L 243.723117 157.758418 
L 245.117987 159.944461 
L 246.512857 159.841345 
L 249.302597 156.812852 
L 250.697468 155.989861 
L 252.092338 154.796672 
L 253.487208 154.1327 
L 254.882078 154.294132 
L 256.276948 154.282629 
L 257.671818 154.42035 
L 259.066688 156.630527 
L 260.461558 160.60859 
L 261.856429 164.153071 
L 263.251299 165.875282 
L 264.646169 166.377627 
L 266.041039 166.018122 
L 267.435909 164.683214 
L 267.435909 164.683214 
" clip-path="url(#p4cf549e000)" style="fill: none; stroke: #7209b7; stroke-width: 1.5; stroke-linecap: square"/>
   </g>
   <g id="line2d_19">
    <path d="M 72.154091 209.950488 
L 73.548961 207.776377 
L 74.943831 201.134757 
L 76.338701 187.393054 
L 77.733571 193.732681 
L 79.128442 214.84932 
L 80.523312 223.316507 
L 83.313052 208.850873 
L 84.707922 194.303173 
L 86.102792 194.167486 
L 87.497662 197.083588 
L 88.892532 201.746226 
L 91.682273 188.066467 
L 93.077143 181.890335 
L 94.472013 181.753578 
L 95.866883 182.278595 
L 97.261753 186.013893 
L 98.656623 188.990208 
L 100.051494 187.653961 
L 101.446364 171.124262 
L 102.841234 138.407574 
L 104.236104 114.301787 
L 105.630974 107.891454 
L 107.025844 107.398992 
L 108.420714 106.208355 
L 109.815584 100.041217 
L 111.210455 90.19684 
L 112.605325 81.322511 
L 114.000195 74.697347 
L 115.395065 72.241121 
L 116.789935 73.68976 
L 119.579675 100.397563 
L 120.974545 108.597824 
L 123.764286 118.568651 
L 125.159156 122.118631 
L 126.554026 123.024097 
L 127.948896 121.128587 
L 130.738636 113.796533 
L 132.133506 110.873715 
L 133.528377 108.417946 
L 134.923247 108.09967 
L 137.712987 109.761746 
L 139.107857 110.371089 
L 141.897597 112.971243 
L 146.082208 123.529837 
L 148.871948 131.530663 
L 150.266818 134.366346 
L 151.661688 136.227622 
L 154.451429 137.77009 
L 155.846299 138.308012 
L 157.241169 137.984873 
L 158.636039 136.745452 
L 160.030909 135.038441 
L 161.425779 133.572517 
L 162.820649 133.246537 
L 164.215519 134.950367 
L 165.61039 137.908988 
L 167.00526 141.867718 
L 168.40013 145.13102 
L 172.58474 153.373914 
L 173.97961 156.86337 
L 175.374481 159.75989 
L 176.769351 162.108936 
L 178.164221 163.054137 
L 179.559091 162.810869 
L 180.953961 162.698992 
L 182.348831 163.008912 
L 183.743701 162.822838 
L 185.138571 162.133295 
L 186.533442 160.957906 
L 187.928312 160.970112 
L 190.718052 162.894897 
L 192.112922 164.027383 
L 193.507792 164.515199 
L 194.902662 164.329994 
L 196.297532 163.4814 
L 197.692403 163.072165 
L 199.087273 163.483503 
L 200.482143 165.54994 
L 201.877013 167.096243 
L 203.271883 168.973622 
L 206.061623 175.936769 
L 207.456494 176.812422 
L 210.246234 176.065908 
L 211.641104 174.762852 
L 213.035974 172.230852 
L 214.430844 169.398582 
L 217.220584 165.939231 
L 218.615455 163.278107 
L 220.010325 161.421181 
L 221.405195 161.455983 
L 222.800065 162.996346 
L 224.194935 163.952455 
L 225.589805 164.733398 
L 226.984675 165.001422 
L 228.379545 164.76932 
L 229.774416 164.723605 
L 231.169286 165.354563 
L 232.564156 165.729552 
L 233.959026 165.556019 
L 235.353896 165.012766 
L 236.748766 165.208213 
L 238.143636 166.570416 
L 240.933377 171.413631 
L 243.723117 176.991334 
L 245.117987 177.956718 
L 246.512857 176.398864 
L 249.302597 170.538096 
L 250.697468 168.709321 
L 252.092338 167.535363 
L 253.487208 167.603576 
L 254.882078 168.517173 
L 256.276948 169.176943 
L 257.671818 170.092374 
L 259.066688 172.525252 
L 260.461558 176.217825 
L 261.856429 178.912935 
L 263.251299 180.003546 
L 264.646169 180.455776 
L 266.041039 180.463544 
L 267.435909 179.386102 
L 267.435909 179.386102 
" clip-path="url(#p4cf549e000)" style="fill: none; stroke: #7209b7; stroke-width: 1.5; stroke-linecap: square"/>
   </g>
   <g id="line2d_20">
    <path d="M 72.154091 205.079429 
L 73.548961 203.061432 
L 74.943831 196.180816 
L 76.338701 183.861305 
L 77.733571 189.487622 
L 79.128442 206.08677 
L 80.523312 214.198513 
L 81.918182 206.885573 
L 83.313052 200.172245 
L 84.707922 187.447107 
L 86.102792 189.383912 
L 87.497662 193.610954 
L 88.892532 199.710142 
L 90.287403 197.056418 
L 91.682273 191.720582 
L 93.077143 183.290508 
L 94.472013 182.13466 
L 95.866883 181.751201 
L 97.261753 184.470079 
L 98.656623 185.819136 
L 100.051494 181.171597 
L 101.446364 165.050889 
L 102.841234 140.253018 
L 104.236104 123.085121 
L 105.630974 121.617274 
L 107.025844 126.556611 
L 108.420714 130.40738 
L 109.815584 127.232556 
L 111.210455 117.159298 
L 112.605325 106.055802 
L 114.000195 96.4082 
L 115.395065 91.065587 
L 116.789935 90.756357 
L 118.184805 102.866224 
L 119.579675 118.177959 
L 120.974545 129.557875 
L 122.369416 137.099014 
L 123.764286 142.171171 
L 125.159156 144.753981 
L 126.554026 145.093242 
L 127.948896 143.809018 
L 132.133506 135.336766 
L 133.528377 132.843328 
L 134.923247 132.374314 
L 136.318117 132.933546 
L 137.712987 132.600601 
L 139.107857 131.32085 
L 140.502727 131.05659 
L 141.897597 131.712177 
L 147.477078 145.439357 
L 148.871948 149.341694 
L 150.266818 152.326779 
L 151.661688 154.148227 
L 153.056558 154.693037 
L 154.451429 155.074084 
L 155.846299 154.746907 
L 157.241169 153.90566 
L 160.030909 150.988807 
L 161.425779 150.424213 
L 162.820649 150.892145 
L 164.215519 152.679523 
L 165.61039 155.137959 
L 167.00526 158.472447 
L 168.40013 161.009557 
L 169.795 162.933777 
L 171.18987 164.635922 
L 172.58474 166.987919 
L 173.97961 170.160449 
L 175.374481 172.880568 
L 176.769351 174.945793 
L 178.164221 176.046679 
L 179.559091 176.307677 
L 180.953961 176.838976 
L 182.348831 177.581284 
L 183.743701 177.682953 
L 186.533442 176.591306 
L 187.928312 177.184118 
L 190.718052 179.67775 
L 192.112922 180.728326 
L 193.507792 180.907185 
L 194.902662 180.531902 
L 196.297532 179.870639 
L 197.692403 179.686944 
L 199.087273 180.187368 
L 200.482143 182.34572 
L 203.271883 185.7341 
L 206.061623 191.580071 
L 207.456494 192.153623 
L 208.851364 190.886535 
L 210.246234 189.284862 
L 211.641104 186.861607 
L 214.430844 179.453632 
L 215.825714 177.523899 
L 217.220584 176.424738 
L 218.615455 174.602308 
L 220.010325 173.727125 
L 221.405195 174.449392 
L 222.800065 175.871601 
L 224.194935 175.580056 
L 228.379545 173.417722 
L 229.774416 173.47343 
L 232.564156 175.113768 
L 233.959026 175.550561 
L 235.353896 174.973814 
L 236.748766 174.271082 
L 238.143636 174.381198 
L 239.538506 175.757148 
L 240.933377 177.412361 
L 243.723117 182.567664 
L 245.117987 183.563607 
L 246.512857 182.061576 
L 247.907727 179.162887 
L 249.302597 176.55326 
L 250.697468 174.898512 
L 252.092338 173.688927 
L 253.487208 173.461636 
L 254.882078 174.145408 
L 256.276948 174.634356 
L 257.671818 175.458425 
L 259.066688 177.934135 
L 260.461558 181.577864 
L 261.856429 184.160045 
L 263.251299 184.981405 
L 264.646169 184.985692 
L 266.041039 184.693818 
L 267.435909 183.47346 
L 267.435909 183.47346 
" clip-path="url(#p4cf549e000)" style="fill: none; stroke: #480ca8; stroke-width: 1.5; stroke-linecap: square"/>
   </g>
   <g id="line2d_21">
    <path d="M 72.154091 205.117022 
L 73.548961 201.613733 
L 74.943831 194.442481 
L 76.338701 185.151069 
L 77.733571 190.431365 
L 79.128442 204.366978 
L 80.523312 212.857433 
L 81.918182 207.518306 
L 83.313052 201.077269 
L 84.707922 188.670466 
L 86.102792 190.533615 
L 87.497662 191.444535 
L 88.892532 194.804466 
L 90.287403 189.566999 
L 91.682273 185.648985 
L 93.077143 178.59265 
L 94.472013 177.066783 
L 95.866883 178.979948 
L 97.261753 184.676638 
L 98.656623 187.516647 
L 100.051494 187.048874 
L 101.446364 173.841901 
L 102.841234 149.735757 
L 104.236104 129.715876 
L 105.630974 122.243783 
L 107.025844 120.116014 
L 108.420714 115.756684 
L 109.815584 108.213117 
L 111.210455 97.968169 
L 114.000195 72.634935 
L 115.395065 67.501861 
L 116.789935 71.726279 
L 119.579675 105.614053 
L 120.974545 115.901312 
L 122.369416 121.899579 
L 123.764286 126.910293 
L 125.159156 131.454328 
L 126.554026 133.953998 
L 127.948896 134.628547 
L 129.343766 133.777362 
L 130.738636 133.697011 
L 132.133506 134.12175 
L 133.528377 133.221547 
L 134.923247 133.256097 
L 136.318117 134.523886 
L 137.712987 135.070664 
L 139.107857 134.576029 
L 140.502727 135.173795 
L 141.897597 137.067008 
L 144.687338 145.982061 
L 146.082208 149.644069 
L 148.871948 155.671001 
L 150.266818 157.606681 
L 151.661688 158.688378 
L 154.451429 159.29835 
L 155.846299 158.481397 
L 157.241169 156.645351 
L 158.636039 154.425001 
L 160.030909 152.969236 
L 161.425779 153.400186 
L 162.820649 155.683123 
L 165.61039 163.186763 
L 167.00526 166.653131 
L 168.40013 168.397442 
L 169.795 169.161895 
L 171.18987 169.630808 
L 172.58474 171.075804 
L 175.374481 176.175754 
L 176.769351 178.312875 
L 178.164221 179.752037 
L 179.559091 180.270916 
L 180.953961 181.015654 
L 182.348831 181.929853 
L 183.743701 182.265166 
L 185.138571 181.819707 
L 186.533442 181.123428 
L 187.928312 181.387726 
L 190.718052 183.840212 
L 192.112922 185.166366 
L 193.507792 185.414313 
L 194.902662 185.119733 
L 196.297532 184.372923 
L 197.692403 183.972012 
L 199.087273 183.87457 
L 201.877013 187.050475 
L 203.271883 189.267981 
L 204.666753 192.641598 
L 206.061623 195.395814 
L 207.456494 196.232744 
L 208.851364 195.325484 
L 210.246234 193.920129 
L 211.641104 191.62911 
L 214.430844 185.305544 
L 215.825714 183.85904 
L 217.220584 182.634279 
L 218.615455 180.237113 
L 220.010325 178.6 
L 221.405195 178.716093 
L 222.800065 180.080891 
L 224.194935 180.726451 
L 225.589805 181.513813 
L 226.984675 182.052024 
L 229.774416 182.881983 
L 232.564156 185.071716 
L 233.959026 185.766489 
L 235.353896 185.375655 
L 236.748766 184.541673 
L 238.143636 184.011004 
L 239.538506 184.763684 
L 240.933377 186.130125 
L 242.328247 188.398299 
L 243.723117 191.062411 
L 245.117987 192.098275 
L 246.512857 190.778873 
L 249.302597 185.032118 
L 250.697468 183.247419 
L 252.092338 182.147754 
L 253.487208 181.964399 
L 254.882078 182.661034 
L 256.276948 183.601383 
L 257.671818 185.091981 
L 259.066688 187.829101 
L 260.461558 191.551369 
L 261.856429 194.28927 
L 263.251299 195.309052 
L 264.646169 195.306915 
L 266.041039 195.124992 
L 267.435909 194.064032 
L 267.435909 194.064032 
" clip-path="url(#p4cf549e000)" style="fill: none; stroke: #3f37c9; stroke-width: 1.5; stroke-linecap: square"/>
   </g>
   <g id="line2d_22">
    <path d="M 72.154091 206.358639 
L 73.548961 204.051755 
L 74.943831 195.918725 
L 76.338701 182.576845 
L 77.733571 188.262126 
L 79.128442 205.394447 
L 80.523312 215.076697 
L 81.918182 208.406214 
L 83.313052 199.967814 
L 84.707922 186.714233 
L 86.102792 189.255686 
L 88.892532 200.418958 
L 90.287403 194.624046 
L 91.682273 187.971425 
L 93.077143 178.902159 
L 94.472013 178.354143 
L 95.866883 180.372833 
L 97.261753 185.507653 
L 98.656623 188.567172 
L 100.051494 183.717292 
L 101.446364 163.466649 
L 102.841234 131.429504 
L 104.236104 107.646142 
L 105.630974 101.759363 
L 107.025844 105.358295 
L 108.420714 110.300024 
L 109.815584 109.219413 
L 111.210455 101.588724 
L 112.605325 93.297156 
L 114.000195 86.864223 
L 115.395065 83.642939 
L 116.789935 84.128174 
L 118.184805 96.810097 
L 119.579675 112.755267 
L 120.974545 124.026482 
L 122.369416 130.386158 
L 123.764286 133.363472 
L 125.159156 133.614328 
L 126.554026 131.696379 
L 127.948896 128.401997 
L 129.343766 124.05822 
L 130.738636 120.489215 
L 132.133506 118.292351 
L 133.528377 116.785398 
L 134.923247 117.132541 
L 136.318117 118.186727 
L 137.712987 118.454135 
L 139.107857 117.869623 
L 140.502727 118.306804 
L 141.897597 120.005255 
L 144.687338 127.909805 
L 147.477078 135.189047 
L 148.871948 139.250312 
L 150.266818 142.482561 
L 151.661688 144.589268 
L 153.056558 145.273995 
L 154.451429 145.574227 
L 155.846299 145.021603 
L 157.241169 144.075577 
L 158.636039 142.816593 
L 160.030909 141.709306 
L 161.425779 141.406772 
L 162.820649 141.957539 
L 164.215519 143.314664 
L 165.61039 144.907382 
L 167.00526 147.453888 
L 169.795 151.634339 
L 171.18987 153.536785 
L 172.58474 156.323375 
L 173.97961 159.988701 
L 175.374481 163.179724 
L 176.769351 165.672085 
L 178.164221 167.259453 
L 179.559091 167.920407 
L 180.953961 168.845254 
L 182.348831 169.96458 
L 183.743701 170.315985 
L 185.138571 169.873062 
L 186.533442 169.202568 
L 187.928312 169.619825 
L 190.718052 171.450849 
L 192.112922 172.210547 
L 193.507792 172.26303 
L 194.902662 172.06277 
L 196.297532 171.986568 
L 197.692403 172.660754 
L 199.087273 173.690916 
L 200.482143 176.10231 
L 203.271883 179.718881 
L 206.061623 185.969216 
L 207.456494 187.250753 
L 208.851364 186.826473 
L 210.246234 186.058961 
L 211.641104 184.177974 
L 214.430844 177.61632 
L 215.825714 175.772546 
L 217.220584 174.504763 
L 218.615455 172.452572 
L 220.010325 171.19719 
L 221.405195 171.293568 
L 222.800065 172.007593 
L 224.194935 171.247014 
L 226.984675 169.150166 
L 228.379545 168.546559 
L 229.774416 168.792982 
L 231.169286 170.129015 
L 232.564156 170.971296 
L 233.959026 170.837694 
L 236.748766 168.532646 
L 238.143636 168.282613 
L 239.538506 169.564407 
L 240.933377 171.400644 
L 243.723117 176.976534 
L 245.117987 178.169174 
L 246.512857 176.951519 
L 249.302597 171.736563 
L 250.697468 170.13157 
L 252.092338 168.904312 
L 253.487208 168.701524 
L 256.276948 170.462808 
L 257.671818 171.690495 
L 259.066688 174.458279 
L 260.461558 178.420262 
L 261.856429 181.506526 
L 263.251299 182.700994 
L 264.646169 182.680318 
L 266.041039 182.191928 
L 267.435909 180.845901 
L 267.435909 180.845901 
" clip-path="url(#p4cf549e000)" style="fill: none; stroke: #4361ee; stroke-width: 1.5; stroke-linecap: square"/>
   </g>
   <g id="line2d_23">
    <path d="M 72.154091 205.01923 
L 73.548961 202.31891 
L 74.943831 194.155723 
L 76.338701 181.779632 
L 77.733571 190.322363 
L 79.128442 208.382846 
L 80.523312 214.449027 
L 81.918182 207.345616 
L 83.313052 197.517179 
L 84.707922 185.90216 
L 86.102792 189.405643 
L 87.497662 194.237774 
L 88.892532 201.094266 
L 90.287403 194.517547 
L 91.682273 187.326988 
L 93.077143 179.34767 
L 94.472013 179.575222 
L 95.866883 182.216106 
L 97.261753 187.140403 
L 98.656623 188.407032 
L 100.051494 182.379218 
L 101.446364 162.419863 
L 102.841234 131.518862 
L 104.236104 108.348908 
L 105.630974 101.137657 
L 108.420714 97.328736 
L 109.815584 90.895148 
L 111.210455 82.091796 
L 112.605325 75.137192 
L 114.000195 71.831344 
L 115.395065 72.467052 
L 116.789935 78.625626 
L 118.184805 96.219119 
L 119.579675 111.771858 
L 120.974545 121.219593 
L 122.369416 127.035115 
L 123.764286 130.621699 
L 125.159156 132.250688 
L 126.554026 130.948896 
L 127.948896 127.672283 
L 129.343766 123.35804 
L 130.738636 119.944505 
L 133.528377 115.657492 
L 134.923247 114.353584 
L 136.318117 114.189611 
L 137.712987 113.782226 
L 139.107857 113.030354 
L 140.502727 113.983914 
L 141.897597 116.25992 
L 143.292468 120.937563 
L 144.687338 124.599258 
L 147.477078 130.409679 
L 148.871948 134.034714 
L 150.266818 137.111185 
L 151.661688 139.023765 
L 153.056558 139.335369 
L 154.451429 139.098966 
L 155.846299 137.896136 
L 158.636039 134.073608 
L 160.030909 132.810073 
L 161.425779 133.073324 
L 162.820649 134.68176 
L 165.61039 139.801807 
L 167.00526 142.508858 
L 168.40013 143.938864 
L 171.18987 145.890604 
L 172.58474 147.996043 
L 173.97961 151.196917 
L 175.374481 154.058289 
L 176.769351 156.263789 
L 178.164221 157.18557 
L 179.559091 156.98155 
L 180.953961 156.981852 
L 182.348831 157.293794 
L 183.743701 157.341184 
L 185.138571 157.104234 
L 186.533442 157.12732 
L 190.718052 160.370426 
L 192.112922 160.85525 
L 193.507792 160.415473 
L 196.297532 158.540152 
L 197.692403 158.163136 
L 199.087273 158.148171 
L 200.482143 159.916657 
L 203.271883 163.181125 
L 206.061623 169.225915 
L 207.456494 170.261919 
L 210.246234 169.196112 
L 211.641104 167.895106 
L 213.035974 165.19587 
L 214.430844 162.011244 
L 215.825714 159.955833 
L 217.220584 158.269712 
L 218.615455 156.004288 
L 220.010325 154.796751 
L 221.405195 155.202595 
L 222.800065 156.162953 
L 224.194935 155.693222 
L 225.589805 154.87621 
L 226.984675 153.807511 
L 228.379545 152.894609 
L 229.774416 152.810402 
L 231.169286 153.984561 
L 232.564156 154.796404 
L 233.959026 154.914688 
L 236.748766 153.454451 
L 238.143636 153.375961 
L 239.538506 154.651287 
L 240.933377 156.52821 
L 243.723117 162.48323 
L 245.117987 164.11652 
L 246.512857 163.517775 
L 247.907727 161.419709 
L 249.302597 159.115801 
L 252.092338 155.767955 
L 253.487208 155.214144 
L 256.276948 156.513998 
L 257.671818 157.609782 
L 259.066688 160.408711 
L 260.461558 164.353612 
L 261.856429 167.352107 
L 263.251299 168.418085 
L 264.646169 168.618344 
L 266.041039 168.546127 
L 267.435909 167.423016 
L 267.435909 167.423016 
" clip-path="url(#p4cf549e000)" style="fill: none; stroke: #4361ee; stroke-width: 1.5; stroke-linecap: square"/>
   </g>
   <g id="line2d_24">
    <path d="M 72.154091 204.871743 
L 73.548961 203.207 
L 74.943831 199.199893 
L 76.338701 189.352111 
L 77.733571 192.089466 
L 79.128442 205.076905 
L 80.523312 212.583839 
L 83.313052 204.037809 
L 84.707922 193.41572 
L 86.102792 192.010564 
L 87.497662 192.335552 
L 88.892532 199.551881 
L 90.287403 197.759754 
L 91.682273 193.797708 
L 93.077143 186.94907 
L 94.472013 185.909626 
L 95.866883 185.131409 
L 97.261753 186.750079 
L 98.656623 188.159883 
L 100.051494 187.294167 
L 101.446364 175.084485 
L 102.841234 151.78438 
L 104.236104 136.745681 
L 105.630974 139.700145 
L 107.025844 148.440981 
L 108.420714 154.723159 
L 109.815584 153.029459 
L 111.210455 141.458725 
L 112.605325 125.625024 
L 114.000195 111.573708 
L 115.395065 102.923465 
L 116.789935 100.255328 
L 118.184805 111.44787 
L 119.579675 126.61543 
L 120.974545 137.85766 
L 122.369416 145.673136 
L 123.764286 151.419775 
L 125.159156 155.007083 
L 126.554026 156.338502 
L 127.948896 155.800366 
L 129.343766 153.268149 
L 132.133506 147.833038 
L 133.528377 145.345362 
L 134.923247 145.39246 
L 136.318117 147.006594 
L 137.712987 147.412575 
L 139.107857 146.083913 
L 140.502727 145.251647 
L 141.897597 145.09663 
L 143.292468 147.659837 
L 146.082208 153.545007 
L 148.871948 160.577392 
L 150.266818 163.317082 
L 151.661688 165.045632 
L 153.056558 165.717899 
L 154.451429 166.012734 
L 155.846299 165.345386 
L 157.241169 163.954628 
L 158.636039 162.323666 
L 160.030909 160.981472 
L 161.425779 160.540019 
L 162.820649 161.170232 
L 164.215519 163.244145 
L 165.61039 165.591914 
L 167.00526 168.245255 
L 168.40013 169.903984 
L 169.795 171.281901 
L 171.18987 172.824353 
L 172.58474 175.16556 
L 173.97961 178.376124 
L 175.374481 180.953377 
L 176.769351 182.448886 
L 178.164221 182.760161 
L 179.559091 182.227662 
L 180.953961 182.307624 
L 182.348831 182.964699 
L 183.743701 183.398583 
L 185.138571 183.436662 
L 186.533442 183.362187 
L 187.928312 184.015023 
L 189.323182 185.19891 
L 192.112922 188.232972 
L 193.507792 188.624477 
L 194.902662 188.020479 
L 196.297532 186.760764 
L 197.692403 185.952334 
L 199.087273 185.62767 
L 201.877013 188.740565 
L 203.271883 190.66243 
L 206.061623 197.010635 
L 207.456494 198.362063 
L 208.851364 197.946011 
L 210.246234 196.754201 
L 211.641104 194.380143 
L 214.430844 187.237202 
L 215.825714 185.171454 
L 217.220584 183.830819 
L 218.615455 181.916548 
L 220.010325 180.866064 
L 221.405195 181.485784 
L 222.800065 183.059225 
L 224.194935 183.516391 
L 225.589805 183.528355 
L 226.984675 182.885302 
L 229.774416 180.739545 
L 231.169286 180.074637 
L 232.564156 179.908043 
L 233.959026 180.327513 
L 235.353896 180.622209 
L 236.748766 181.069997 
L 238.143636 181.817336 
L 240.933377 184.768949 
L 243.723117 188.851333 
L 245.117987 189.40843 
L 246.512857 187.5525 
L 249.302597 181.087148 
L 250.697468 179.054313 
L 252.092338 177.683528 
L 253.487208 177.21335 
L 254.882078 177.730204 
L 256.276948 178.412374 
L 257.671818 179.647474 
L 259.066688 182.28265 
L 260.461558 185.945528 
L 261.856429 188.697599 
L 263.251299 189.918692 
L 264.646169 190.494612 
L 266.041039 190.902426 
L 267.435909 190.197347 
L 267.435909 190.197347 
" clip-path="url(#p4cf549e000)" style="fill: none; stroke: #4cc9f0; stroke-width: 1.5; stroke-linecap: square"/>
   </g>
   <g id="line2d_25">
    <path d="M 72.154091 208.511961 
L 73.548961 206.37638 
L 74.943831 197.579104 
L 76.338701 184.708012 
L 77.733571 188.665129 
L 79.128442 207.802705 
L 80.523312 216.315355 
L 81.918182 210.871544 
L 83.313052 200.192074 
L 84.707922 187.376007 
L 86.102792 189.843767 
L 87.497662 192.87507 
L 88.892532 198.127435 
L 90.287403 192.827311 
L 91.682273 188.932431 
L 93.077143 183.926257 
L 95.866883 182.898422 
L 97.261753 185.185556 
L 98.656623 187.189004 
L 100.051494 183.628196 
L 101.446364 163.120769 
L 102.841234 128.465671 
L 104.236104 101.493352 
L 105.630974 91.482787 
L 108.420714 83.232967 
L 109.815584 76.953543 
L 112.605325 61.408486 
L 114.000195 56.253953 
L 115.395065 56.008549 
L 116.789935 60.625453 
L 119.579675 89.419794 
L 120.974545 96.875567 
L 122.369416 101.612008 
L 123.764286 105.950931 
L 125.159156 109.326266 
L 126.554026 110.439578 
L 127.948896 109.175824 
L 129.343766 106.361546 
L 130.738636 104.333845 
L 132.133506 103.500869 
L 133.528377 102.100803 
L 134.923247 101.018099 
L 136.318117 101.064382 
L 137.712987 101.591664 
L 139.107857 102.269572 
L 140.502727 104.197732 
L 141.897597 107.094684 
L 143.292468 112.19736 
L 144.687338 116.700949 
L 147.477078 124.70929 
L 148.871948 128.587559 
L 150.266818 131.255741 
L 151.661688 133.199081 
L 153.056558 134.301898 
L 154.451429 135.079262 
L 155.846299 134.587652 
L 157.241169 133.372808 
L 158.636039 131.942609 
L 160.030909 130.805193 
L 161.425779 130.47894 
L 162.820649 131.347793 
L 167.00526 138.627977 
L 169.795 141.822643 
L 171.18987 143.724575 
L 172.58474 146.715471 
L 173.97961 150.779237 
L 175.374481 154.231587 
L 176.769351 156.467633 
L 178.164221 157.101522 
L 179.559091 156.54433 
L 180.953961 156.399064 
L 182.348831 156.617007 
L 183.743701 156.439787 
L 185.138571 155.921851 
L 186.533442 155.224011 
L 187.928312 155.869247 
L 189.323182 157.391817 
L 192.112922 159.602826 
L 193.507792 159.817094 
L 194.902662 159.594868 
L 196.297532 159.03336 
L 197.692403 159.282846 
L 199.087273 159.988211 
L 200.482143 162.372011 
L 201.877013 164.197233 
L 203.271883 166.229712 
L 206.061623 172.979115 
L 207.456494 174.260069 
L 210.246234 173.992713 
L 211.641104 173.087073 
L 213.035974 171.009534 
L 214.430844 168.597624 
L 217.220584 165.300948 
L 218.615455 162.620571 
L 220.010325 160.616297 
L 221.405195 160.208264 
L 222.800065 161.098572 
L 225.589805 161.448599 
L 226.984675 161.400815 
L 229.774416 160.893184 
L 232.564156 161.613721 
L 233.959026 161.460385 
L 235.353896 160.53841 
L 236.748766 159.843615 
L 238.143636 160.102276 
L 239.538506 161.920983 
L 240.933377 164.305418 
L 243.723117 170.107097 
L 245.117987 170.764308 
L 246.512857 168.850903 
L 247.907727 165.724922 
L 249.302597 163.115735 
L 250.697468 161.640466 
L 252.092338 160.835689 
L 253.487208 161.3648 
L 254.882078 162.930895 
L 256.276948 164.100388 
L 257.671818 165.065264 
L 259.066688 167.182121 
L 260.461558 170.190108 
L 261.856429 172.535334 
L 263.251299 173.519076 
L 264.646169 174.018827 
L 266.041039 174.275805 
L 267.435909 173.608188 
L 267.435909 173.608188 
" clip-path="url(#p4cf549e000)" style="fill: none; stroke: #4cc9f0; stroke-width: 1.5; stroke-linecap: square"/>
   </g>
   <g id="line2d_26">
    <path d="M 72.154091 201.646704 
L 73.548961 201.632174 
L 74.943831 199.05619 
L 76.338701 188.788159 
L 77.733571 192.702269 
L 79.128442 205.087642 
L 80.523312 212.792524 
L 81.918182 205.039367 
L 83.313052 201.380649 
L 84.707922 190.665694 
L 86.102792 190.013411 
L 87.497662 193.601272 
L 88.892532 201.123264 
L 90.287403 198.352403 
L 93.077143 185.810498 
L 94.472013 185.640163 
L 95.866883 186.091072 
L 98.656623 191.683692 
L 100.051494 190.517171 
L 101.446364 183.962814 
L 102.841234 170.217038 
L 104.236104 163.0463 
L 105.630974 169.756792 
L 107.025844 180.510936 
L 108.420714 186.656036 
L 109.815584 182.131217 
L 111.210455 166.909891 
L 112.605325 148.478822 
L 114.000195 133.198824 
L 115.395065 126.716126 
L 116.789935 127.750343 
L 119.579675 151.624667 
L 120.974545 160.456975 
L 122.369416 167.501507 
L 123.764286 173.953483 
L 125.159156 178.312938 
L 126.554026 180.257122 
L 127.948896 180.131548 
L 130.738636 176.955562 
L 132.133506 175.118614 
L 133.528377 171.902356 
L 134.923247 169.747882 
L 136.318117 168.664563 
L 137.712987 166.452332 
L 139.107857 163.424554 
L 140.502727 162.113664 
L 141.897597 162.286204 
L 146.082208 172.568492 
L 148.871948 178.335293 
L 150.266818 179.969214 
L 151.661688 180.283619 
L 153.056558 179.521898 
L 154.451429 179.072441 
L 155.846299 178.408345 
L 157.241169 177.529554 
L 158.636039 176.514633 
L 160.030909 175.701486 
L 161.425779 175.977763 
L 162.820649 177.177727 
L 164.215519 179.687154 
L 167.00526 185.159452 
L 168.40013 186.440198 
L 171.18987 187.827924 
L 172.58474 189.464886 
L 175.374481 194.42153 
L 176.769351 196.330321 
L 178.164221 197.262669 
L 179.559091 197.318587 
L 180.953961 197.812084 
L 182.348831 198.79169 
L 183.743701 199.349759 
L 186.533442 198.698739 
L 187.928312 198.951488 
L 189.323182 199.591859 
L 190.718052 200.827772 
L 192.112922 202.299557 
L 193.507792 202.701545 
L 194.902662 201.96384 
L 196.297532 200.202374 
L 197.692403 198.786545 
L 199.087273 198.141629 
L 201.877013 200.838421 
L 203.271883 202.701786 
L 204.666753 205.587723 
L 206.061623 207.899607 
L 207.456494 208.264092 
L 208.851364 206.839513 
L 210.246234 204.88825 
L 211.641104 202.059474 
L 214.430844 194.294566 
L 215.825714 192.16131 
L 217.220584 190.835468 
L 218.615455 189.033035 
L 220.010325 188.393965 
L 221.405195 189.814294 
L 222.800065 192.198146 
L 224.194935 193.128023 
L 225.589805 192.948594 
L 226.984675 192.005182 
L 228.379545 190.840873 
L 229.774416 190.158156 
L 231.169286 190.374059 
L 232.564156 190.869964 
L 233.959026 191.483809 
L 235.353896 191.279047 
L 236.748766 190.912738 
L 238.143636 190.909176 
L 239.538506 191.991373 
L 240.933377 193.428495 
L 243.723117 197.645666 
L 245.117987 198.139918 
L 246.512857 196.458893 
L 249.302597 190.179996 
L 250.697468 188.211909 
L 252.092338 186.833071 
L 253.487208 186.154136 
L 254.882078 186.129226 
L 256.276948 185.778614 
L 257.671818 186.100707 
L 259.066688 188.299974 
L 260.461558 191.794578 
L 261.856429 194.413779 
L 263.251299 195.758158 
L 264.646169 196.782203 
L 266.041039 197.569182 
L 267.435909 197.179282 
L 267.435909 197.179282 
" clip-path="url(#p4cf549e000)" style="fill: none; stroke: #f48c06; stroke-width: 1.5; stroke-linecap: square"/>
   </g>
   <g id="line2d_27">
    <path d="M 72.154091 204.724994 
L 73.548961 201.040353 
L 74.943831 192.968858 
L 76.338701 183.349719 
L 77.733571 190.354706 
L 79.128442 208.494044 
L 80.523312 216.674464 
L 83.313052 201.772196 
L 84.707922 187.971428 
L 86.102792 189.495103 
L 87.497662 193.267041 
L 88.892532 199.36672 
L 90.287403 192.267964 
L 91.682273 186.754463 
L 93.077143 180.035693 
L 94.472013 179.524527 
L 95.866883 183.660007 
L 97.261753 190.39889 
L 98.656623 194.000299 
L 100.051494 192.534512 
L 101.446364 176.12374 
L 102.841234 148.156301 
L 104.236104 125.126877 
L 105.630974 114.931729 
L 108.420714 109.229987 
L 109.815584 103.10955 
L 112.605325 83.351376 
L 114.000195 76.108258 
L 115.395065 76.133025 
L 116.789935 82.626873 
L 118.184805 98.961075 
L 119.579675 113.28386 
L 120.974545 121.399364 
L 122.369416 126.104841 
L 123.764286 130.159141 
L 125.159156 133.308911 
L 126.554026 134.564776 
L 127.948896 134.355644 
L 129.343766 133.357548 
L 130.738636 133.415241 
L 132.133506 134.289795 
L 133.528377 134.091934 
L 134.923247 134.037219 
L 136.318117 134.126645 
L 137.712987 132.759909 
L 139.107857 130.477087 
L 140.502727 129.94182 
L 141.897597 131.397002 
L 144.687338 139.990222 
L 147.477078 147.354162 
L 148.871948 150.739447 
L 150.266818 153.008623 
L 151.661688 154.347422 
L 153.056558 154.775165 
L 154.451429 155.323582 
L 155.846299 155.238401 
L 157.241169 154.25114 
L 158.636039 152.59917 
L 160.030909 151.168169 
L 161.425779 150.824919 
L 162.820649 152.153455 
L 164.215519 155.196524 
L 167.00526 161.676499 
L 168.40013 163.149731 
L 169.795 163.77763 
L 171.18987 164.043638 
L 172.58474 165.104751 
L 173.97961 167.492866 
L 176.769351 173.244724 
L 178.164221 174.962773 
L 182.348831 175.966739 
L 183.743701 176.034081 
L 186.533442 175.315265 
L 187.928312 175.927699 
L 190.718052 178.080891 
L 192.112922 179.095201 
L 193.507792 179.042229 
L 194.902662 178.16747 
L 196.297532 176.664281 
L 197.692403 175.365957 
L 199.087273 174.548791 
L 200.482143 175.877611 
L 201.877013 177.51546 
L 203.271883 179.662161 
L 204.666753 183.178051 
L 206.061623 186.180903 
L 207.456494 187.028291 
L 210.246234 185.041792 
L 211.641104 183.350222 
L 213.035974 180.639968 
L 214.430844 177.673787 
L 217.220584 174.37576 
L 218.615455 171.748652 
L 220.010325 170.182935 
L 221.405195 170.559255 
L 222.800065 172.094253 
L 224.194935 172.621348 
L 225.589805 172.854775 
L 228.379545 172.846426 
L 229.774416 173.312446 
L 231.169286 174.632215 
L 232.564156 175.620385 
L 233.959026 175.856326 
L 235.353896 174.972567 
L 236.748766 173.893629 
L 238.143636 173.258448 
L 239.538506 174.284425 
L 240.933377 176.327851 
L 242.328247 179.404597 
L 243.723117 182.787411 
L 245.117987 184.580839 
L 246.512857 183.854867 
L 249.302597 178.795831 
L 250.697468 177.032558 
L 252.092338 175.819678 
L 253.487208 175.442856 
L 256.276948 175.896567 
L 257.671818 176.999425 
L 259.066688 179.701829 
L 260.461558 183.538515 
L 261.856429 186.523586 
L 263.251299 187.803094 
L 264.646169 187.990654 
L 266.041039 187.883445 
L 267.435909 186.714518 
L 267.435909 186.714518 
" clip-path="url(#p4cf549e000)" style="fill: none; stroke: #ffba08; stroke-width: 1.5; stroke-linecap: square"/>
   </g>
   <g id="line2d_28">
    <path d="M 72.154091 209.340639 
L 73.548961 205.552019 
L 74.943831 196.887089 
L 76.338701 186.469709 
L 77.733571 191.867077 
L 79.128442 207.548167 
L 80.523312 215.927443 
L 81.918182 207.703207 
L 83.313052 202.323319 
L 84.707922 190.658641 
L 86.102792 189.859646 
L 87.497662 192.471 
L 88.892532 200.908371 
L 90.287403 196.079227 
L 93.077143 182.917938 
L 94.472013 181.993812 
L 95.866883 182.610213 
L 97.261753 185.316911 
L 98.656623 187.537658 
L 100.051494 188.377281 
L 101.446364 179.883721 
L 102.841234 159.55872 
L 104.236104 142.262666 
L 105.630974 139.257469 
L 107.025844 141.597607 
L 108.420714 141.364964 
L 109.815584 136.586838 
L 111.210455 126.439005 
L 112.605325 114.02603 
L 114.000195 104.61842 
L 115.395065 102.976194 
L 116.789935 107.958003 
L 118.184805 121.587333 
L 119.579675 133.121268 
L 120.974545 139.470161 
L 123.764286 146.293598 
L 125.159156 148.847083 
L 126.554026 149.889841 
L 127.948896 149.587266 
L 129.343766 148.146019 
L 130.738636 147.32261 
L 132.133506 146.95734 
L 133.528377 145.761597 
L 134.923247 145.229054 
L 136.318117 145.471367 
L 137.712987 144.873519 
L 139.107857 143.630997 
L 140.502727 143.769096 
L 141.897597 145.425181 
L 144.687338 154.818195 
L 147.477078 162.261087 
L 148.871948 165.608024 
L 150.266818 167.821224 
L 151.661688 169.079363 
L 153.056558 169.194364 
L 154.451429 169.196942 
L 155.846299 168.337169 
L 157.241169 166.886313 
L 158.636039 165.090192 
L 160.030909 163.487693 
L 161.425779 163.111543 
L 162.820649 164.391997 
L 167.00526 173.231577 
L 168.40013 174.380621 
L 169.795 174.822318 
L 171.18987 175.500406 
L 172.58474 177.104552 
L 175.374481 182.116754 
L 176.769351 184.200846 
L 178.164221 185.204274 
L 179.559091 185.199284 
L 180.953961 185.700748 
L 182.348831 186.512774 
L 183.743701 186.739585 
L 186.533442 185.213989 
L 187.928312 185.354251 
L 189.323182 185.982615 
L 190.718052 186.861842 
L 192.112922 187.909404 
L 193.507792 188.209994 
L 194.902662 187.711607 
L 196.297532 186.491039 
L 197.692403 185.476356 
L 199.087273 184.957903 
L 201.877013 187.895421 
L 203.271883 189.746031 
L 204.666753 192.802855 
L 206.061623 195.351474 
L 207.456494 195.811007 
L 208.851364 194.874509 
L 210.246234 193.801221 
L 211.641104 192.06571 
L 213.035974 189.25138 
L 214.430844 186.04051 
L 217.220584 182.010329 
L 218.615455 179.300786 
L 220.010325 177.7807 
L 221.405195 178.464056 
L 222.800065 180.379913 
L 224.194935 181.107156 
L 225.589805 180.941221 
L 226.984675 180.356997 
L 228.379545 180.081766 
L 229.774416 180.54556 
L 232.564156 183.145527 
L 233.959026 184.021325 
L 235.353896 183.869556 
L 236.748766 183.291345 
L 238.143636 182.948433 
L 239.538506 183.832479 
L 240.933377 185.387481 
L 243.723117 190.319004 
L 245.117987 191.369202 
L 246.512857 190.17566 
L 249.302597 184.421645 
L 250.697468 182.478247 
L 252.092338 181.270866 
L 253.487208 181.20305 
L 256.276948 182.65716 
L 257.671818 183.807896 
L 259.066688 186.23027 
L 260.461558 189.537253 
L 261.856429 191.954007 
L 263.251299 193.13574 
L 266.041039 194.431094 
L 267.435909 193.691423 
L 267.435909 193.691423 
" clip-path="url(#p4cf549e000)" style="fill: none; stroke: #ffba08; stroke-width: 1.5; stroke-linecap: square"/>
   </g>
   <g id="line2d_29">
    <path d="M 72.154091 207.742186 
L 73.548961 204.600333 
L 74.943831 196.976354 
L 76.338701 185.639335 
L 77.733571 190.66506 
L 79.128442 204.751856 
L 80.523312 215.24019 
L 81.918182 209.47437 
L 83.313052 205.031269 
L 84.707922 190.458403 
L 86.102792 188.942599 
L 87.497662 191.64135 
L 88.892532 199.012189 
L 90.287403 195.326967 
L 91.682273 190.053344 
L 93.077143 183.65252 
L 94.472013 182.567507 
L 95.866883 183.27173 
L 97.261753 186.39345 
L 98.656623 188.514454 
L 100.051494 188.860348 
L 101.446364 179.28499 
L 102.841234 158.62083 
L 104.236104 140.540045 
L 105.630974 136.830004 
L 107.025844 138.508096 
L 108.420714 138.636556 
L 109.815584 134.049322 
L 111.210455 123.257553 
L 112.605325 109.494291 
L 114.000195 98.468192 
L 115.395065 95.886446 
L 116.789935 100.353861 
L 118.184805 113.411821 
L 119.579675 124.96711 
L 120.974545 131.819468 
L 125.159156 144.694413 
L 126.554026 147.199045 
L 127.948896 147.806998 
L 129.343766 146.91501 
L 130.738636 146.42552 
L 132.133506 146.070476 
L 133.528377 144.539764 
L 134.923247 143.481702 
L 136.318117 143.386772 
L 137.712987 142.745858 
L 139.107857 141.64424 
L 140.502727 142.172649 
L 141.897597 144.262443 
L 143.292468 149.161119 
L 144.687338 153.4961 
L 146.082208 156.967661 
L 148.871948 163.130562 
L 150.266818 165.219047 
L 151.661688 166.659005 
L 154.451429 167.609879 
L 155.846299 166.962059 
L 157.241169 165.496868 
L 158.636039 163.732682 
L 160.030909 162.475615 
L 161.425779 162.823506 
L 162.820649 164.885002 
L 164.215519 168.190939 
L 165.61039 171.176093 
L 167.00526 173.489363 
L 168.40013 174.127373 
L 169.795 174.207573 
L 171.18987 174.569372 
L 172.58474 176.061559 
L 175.374481 181.397817 
L 176.769351 183.756061 
L 178.164221 184.929471 
L 179.559091 184.975789 
L 180.953961 185.315069 
L 182.348831 185.912976 
L 183.743701 186.096953 
L 186.533442 184.882909 
L 187.928312 185.009877 
L 189.323182 185.504268 
L 190.718052 186.302002 
L 192.112922 187.306283 
L 193.507792 187.393148 
L 194.902662 186.575213 
L 196.297532 185.214232 
L 197.692403 184.262363 
L 199.087273 183.983641 
L 203.271883 189.204874 
L 204.666753 192.271194 
L 206.061623 194.756812 
L 207.456494 195.029034 
L 210.246234 192.080459 
L 211.641104 190.014151 
L 214.430844 183.74062 
L 217.220584 180.163078 
L 218.615455 177.559417 
L 220.010325 176.071678 
L 221.405195 176.881167 
L 222.800065 179.013782 
L 224.194935 180.003151 
L 225.589805 180.300158 
L 228.379545 179.610799 
L 229.774416 179.732118 
L 233.959026 182.08029 
L 235.353896 181.921247 
L 236.748766 181.465306 
L 238.143636 181.274656 
L 239.538506 182.347508 
L 240.933377 184.112715 
L 243.723117 189.596035 
L 245.117987 190.885227 
L 246.512857 189.802219 
L 249.302597 183.878292 
L 250.697468 181.859056 
L 252.092338 180.52226 
L 253.487208 180.255795 
L 256.276948 181.13554 
L 257.671818 182.049296 
L 259.066688 184.495281 
L 260.461558 188.035138 
L 261.856429 190.700744 
L 263.251299 191.999204 
L 266.041039 193.332626 
L 267.435909 192.695124 
L 267.435909 192.695124 
" clip-path="url(#p4cf549e000)" style="fill: none; stroke: #ffba08; stroke-width: 1.5; stroke-linecap: square"/>
   </g>
   <g id="line2d_30">
    <path d="M 72.154091 208.006374 
L 73.548961 205.513921 
L 74.943831 194.99846 
L 76.338701 179.978678 
L 77.733571 183.319667 
L 79.128442 206.727872 
L 80.523312 219.782695 
L 81.918182 216.784341 
L 83.313052 202.405053 
L 84.707922 185.195584 
L 86.102792 184.687029 
L 87.497662 185.979301 
L 88.892532 190.989339 
L 90.287403 186.118269 
L 91.682273 183.994052 
L 93.077143 179.819807 
L 94.472013 179.36376 
L 95.866883 180.643562 
L 97.261753 185.228491 
L 98.656623 188.86375 
L 100.051494 186.151732 
L 101.446364 162.440903 
L 102.841234 119.463652 
L 104.236104 81.682916 
L 105.630974 62.604952 
L 107.025844 50.983751 
L 108.420714 41.791139 
L 109.815584 35.255333 
L 111.210455 29.897132 
L 112.605325 25.063902 
L 114.000195 21.836201 
L 115.395065 22.790542 
L 116.789935 27.379363 
L 118.184805 39.463456 
L 119.579675 49.486733 
L 120.974545 53.603606 
L 122.369416 56.218311 
L 123.764286 60.580799 
L 125.159156 65.731909 
L 126.554026 68.870673 
L 127.948896 68.998468 
L 129.343766 66.976216 
L 130.738636 65.552555 
L 132.133506 65.805726 
L 133.528377 65.792198 
L 134.923247 65.639665 
L 136.318117 66.433024 
L 137.712987 68.517053 
L 139.107857 71.126106 
L 140.502727 74.530234 
L 141.897597 78.457524 
L 143.292468 84.219182 
L 146.082208 94.139499 
L 148.871948 103.810234 
L 150.266818 107.337817 
L 151.661688 110.261595 
L 153.056558 112.164536 
L 154.451429 113.59845 
L 155.846299 113.595816 
L 160.030909 111.476257 
L 161.425779 111.33466 
L 162.820649 112.603918 
L 165.61039 118.025197 
L 167.00526 120.400713 
L 168.40013 121.87337 
L 171.18987 125.706524 
L 172.58474 128.854777 
L 173.97961 133.235166 
L 175.374481 137.184162 
L 176.769351 139.720478 
L 178.164221 140.352804 
L 179.559091 139.623718 
L 180.953961 139.093981 
L 182.348831 138.810743 
L 185.138571 137.745578 
L 186.533442 136.648388 
L 187.928312 137.100832 
L 189.323182 138.770668 
L 192.112922 141.086957 
L 194.902662 141.951071 
L 196.297532 141.991163 
L 197.692403 142.456032 
L 199.087273 143.135053 
L 200.482143 145.729923 
L 201.877013 147.629561 
L 203.271883 149.308751 
L 206.061623 155.61388 
L 207.456494 157.06018 
L 208.851364 157.261895 
L 210.246234 157.928042 
L 211.641104 158.091754 
L 213.035974 157.186562 
L 214.430844 155.529188 
L 215.825714 154.176721 
L 217.220584 152.272034 
L 218.615455 149.128729 
L 220.010325 146.424287 
L 221.405195 145.334056 
L 224.194935 146.459341 
L 226.984675 148.350785 
L 228.379545 148.980987 
L 229.774416 149.247097 
L 231.169286 150.073276 
L 232.564156 150.455262 
L 233.959026 149.947737 
L 235.353896 149.050496 
L 236.748766 148.755396 
L 238.143636 149.632504 
L 239.538506 152.129422 
L 243.723117 160.812031 
L 245.117987 161.546797 
L 246.512857 159.805178 
L 247.907727 156.930551 
L 249.302597 154.430051 
L 250.697468 152.737962 
L 252.092338 151.691617 
L 253.487208 152.25986 
L 254.882078 153.970007 
L 256.276948 155.448028 
L 257.671818 156.702351 
L 259.066688 158.866617 
L 260.461558 162.036638 
L 261.856429 164.657425 
L 263.251299 165.854723 
L 264.646169 166.453993 
L 266.041039 166.865345 
L 267.435909 166.266192 
L 267.435909 166.266192 
" clip-path="url(#p4cf549e000)" style="fill: none; stroke-dasharray: 5.55,2.4; stroke-dashoffset: 0; stroke: #000000; stroke-width: 1.5"/>
   </g>
   <g id="patch_3">
    <path d="M 62.39 246.04 
L 62.39 14.76 
" style="fill: none; stroke: #000000; stroke-width: 0.8; stroke-linejoin: miter; stroke-linecap: square"/>
   </g>
   <g id="patch_4">
    <path d="M 62.39 246.04 
L 277.2 246.04 
" style="fill: none; stroke: #000000; stroke-width: 0.8; stroke-linejoin: miter; stroke-linecap: square"/>
   </g>
  </g>
 </g>
 <defs>
  <clipPath id="p4cf549e000">
   <rect x="62.39" y="14.76" width="214.81" height="231.28"/>
  </clipPath>
 </defs>
</svg>
