<?xml version="1.0" encoding="utf-8" standalone="no"?>
<!DOCTYPE svg PUBLIC "-//W3C//DTD SVG 1.1//EN"
  "http://www.w3.org/Graphics/SVG/1.1/DTD/svg11.dtd">
<svg xmlns:xlink="http://www.w3.org/1999/xlink" width="288pt" height="288pt" viewBox="0 0 288 288" xmlns="http://www.w3.org/2000/svg" version="1.1">
 <metadata>
  <rdf:RDF xmlns:dc="http://purl.org/dc/elements/1.1/" xmlns:cc="http://creativecommons.org/ns#" xmlns:rdf="http://www.w3.org/1999/02/22-rdf-syntax-ns#">
   <cc:Work>
    <dc:type rdf:resource="http://purl.org/dc/dcmitype/StillImage"/>
    <dc:date>2025-12-03T11:15:41.411697</dc:date>
    <dc:format>image/svg+xml</dc:format>
    <dc:creator>
     <cc:Agent>
      <dc:title>Matplotlib v3.6.2, https://matplotlib.org/</dc:title>
     </cc:Agent>
    </dc:creator>
   </cc:Work>
  </rdf:RDF>
 </metadata>
 <defs>
  <style type="text/css">*{stroke-linejoin: round; stroke-linecap: butt}</style>
 </defs>
 <g id="figure_1">
  <g id="patch_1">
   <path d="M 0 288 
L 288 288 
L 288 0 
L 0 0 
L 0 288 
z
" style="fill: none"/>
  </g>
  <g id="axes_1">
   <g id="patch_2">
    <path d="M 62.39 246.04 
L 277.2 246.04 
L 277.2 14.76 
L 62.39 14.76 
L 62.39 246.04 
z
" style="fill: none"/>
   </g>
   <g id="matplotlib.axis_1">
    <g id="xtick_1">
     <g id="line2d_1">
      <defs>
       <path id="me624b11122" d="M 0 0 
L 0 3.5 
" style="stroke: #000000; stroke-width: 0.8"/>
      </defs>
      <g>
       <use xlink:href="#me624b11122" x="89.906983" y="246.04" style="stroke: #000000; stroke-width: 0.8"/>
      </g>
     </g>
     <g id="text_1">
      <!-- 0.0 -->
      <g transform="translate(81.955421 260.638438) scale(0.1 -0.1)">
       <defs>
        <path id="DejaVuSans-30" d="M 2034 4250 
Q 1547 4250 1301 3770 
Q 1056 3291 1056 2328 
Q 1056 1369 1301 889 
Q 1547 409 2034 409 
Q 2525 409 2770 889 
Q 3016 1369 3016 2328 
Q 3016 3291 2770 3770 
Q 2525 4250 2034 4250 
z
M 2034 4750 
Q 2819 4750 3233 4129 
Q 3647 3509 3647 2328 
Q 3647 1150 3233 529 
Q 2819 -91 2034 -91 
Q 1250 -91 836 529 
Q 422 1150 422 2328 
Q 422 3509 836 4129 
Q 1250 4750 2034 4750 
z
" transform="scale(0.015625)"/>
        <path id="DejaVuSans-2e" d="M 684 794 
L 1344 794 
L 1344 0 
L 684 0 
L 684 794 
z
" transform="scale(0.015625)"/>
       </defs>
       <use xlink:href="#DejaVuSans-30"/>
       <use xlink:href="#DejaVuSans-2e" x="63.623047"/>
       <use xlink:href="#DejaVuSans-30" x="95.410156"/>
      </g>
     </g>
    </g>
    <g id="xtick_2">
     <g id="line2d_2">
      <g>
       <use xlink:href="#me624b11122" x="125.412769" y="246.04" style="stroke: #000000; stroke-width: 0.8"/>
      </g>
     </g>
     <g id="text_2">
      <!-- 0.2 -->
      <g transform="translate(117.461206 260.638438) scale(0.1 -0.1)">
       <defs>
        <path id="DejaVuSans-32" d="M 1228 531 
L 3431 531 
L 3431 0 
L 469 0 
L 469 531 
Q 828 903 1448 1529 
Q 2069 2156 2228 2338 
Q 2531 2678 2651 2914 
Q 2772 3150 2772 3378 
Q 2772 3750 2511 3984 
Q 2250 4219 1831 4219 
Q 1534 4219 1204 4116 
Q 875 4013 500 3803 
L 500 4441 
Q 881 4594 1212 4672 
Q 1544 4750 1819 4750 
Q 2544 4750 2975 4387 
Q 3406 4025 3406 3419 
Q 3406 3131 3298 2873 
Q 3191 2616 2906 2266 
Q 2828 2175 2409 1742 
Q 1991 1309 1228 531 
z
" transform="scale(0.015625)"/>
       </defs>
       <use xlink:href="#DejaVuSans-30"/>
       <use xlink:href="#DejaVuSans-2e" x="63.623047"/>
       <use xlink:href="#DejaVuSans-32" x="95.410156"/>
      </g>
     </g>
    </g>
    <g id="xtick_3">
     <g id="line2d_3">
      <g>
       <use xlink:href="#me624b11122" x="160.918554" y="246.04" style="stroke: #000000; stroke-width: 0.8"/>
      </g>
     </g>
     <g id="text_3">
      <!-- 0.4 -->
      <g transform="translate(152.966991 260.638438) scale(0.1 -0.1)">
       <defs>
        <path id="DejaVuSans-34" d="M 2419 4116 
L 825 1625 
L 2419 1625 
L 2419 4116 
z
M 2253 4666 
L 3047 4666 
L 3047 1625 
L 3713 1625 
L 3713 1100 
L 3047 1100 
L 3047 0 
L 2419 0 
L 2419 1100 
L 313 1100 
L 313 1709 
L 2253 4666 
z
" transform="scale(0.015625)"/>
       </defs>
       <use xlink:href="#DejaVuSans-30"/>
       <use xlink:href="#DejaVuSans-2e" x="63.623047"/>
       <use xlink:href="#DejaVuSans-34" x="95.410156"/>
      </g>
     </g>
    </g>
    <g id="xtick_4">
     <g id="line2d_4">
      <g>
       <use xlink:href="#me624b11122" x="196.424339" y="246.04" style="stroke: #000000; stroke-width: 0.8"/>
      </g>
     </g>
     <g id="text_4">
      <!-- 0.6 -->
      <g transform="translate(188.472776 260.638438) scale(0.1 -0.1)">
       <defs>
        <path id="DejaVuSans-36" d="M 2113 2584 
Q 1688 2584 1439 2293 
Q 1191 2003 1191 1497 
Q 1191 994 1439 701 
Q 1688 409 2113 409 
Q 2538 409 2786 701 
Q 3034 994 3034 1497 
Q 3034 2003 2786 2293 
Q 2538 2584 2113 2584 
z
M 3366 4563 
L 3366 3988 
Q 3128 4100 2886 4159 
Q 2644 4219 2406 4219 
Q 1781 4219 1451 3797 
Q 1122 3375 1075 2522 
Q 1259 2794 1537 2939 
Q 1816 3084 2150 3084 
Q 2853 3084 3261 2657 
Q 3669 2231 3669 1497 
Q 3669 778 3244 343 
Q 2819 -91 2113 -91 
Q 1303 -91 875 529 
Q 447 1150 447 2328 
Q 447 3434 972 4092 
Q 1497 4750 2381 4750 
Q 2619 4750 2861 4703 
Q 3103 4656 3366 4563 
z
" transform="scale(0.015625)"/>
       </defs>
       <use xlink:href="#DejaVuSans-30"/>
       <use xlink:href="#DejaVuSans-2e" x="63.623047"/>
       <use xlink:href="#DejaVuSans-36" x="95.410156"/>
      </g>
     </g>
    </g>
    <g id="xtick_5">
     <g id="line2d_5">
      <g>
       <use xlink:href="#me624b11122" x="231.930124" y="246.04" style="stroke: #000000; stroke-width: 0.8"/>
      </g>
     </g>
     <g id="text_5">
      <!-- 0.8 -->
      <g transform="translate(223.978561 260.638438) scale(0.1 -0.1)">
       <defs>
        <path id="DejaVuSans-38" d="M 2034 2216 
Q 1584 2216 1326 1975 
Q 1069 1734 1069 1313 
Q 1069 891 1326 650 
Q 1584 409 2034 409 
Q 2484 409 2743 651 
Q 3003 894 3003 1313 
Q 3003 1734 2745 1975 
Q 2488 2216 2034 2216 
z
M 1403 2484 
Q 997 2584 770 2862 
Q 544 3141 544 3541 
Q 544 4100 942 4425 
Q 1341 4750 2034 4750 
Q 2731 4750 3128 4425 
Q 3525 4100 3525 3541 
Q 3525 3141 3298 2862 
Q 3072 2584 2669 2484 
Q 3125 2378 3379 2068 
Q 3634 1759 3634 1313 
Q 3634 634 3220 271 
Q 2806 -91 2034 -91 
Q 1263 -91 848 271 
Q 434 634 434 1313 
Q 434 1759 690 2068 
Q 947 2378 1403 2484 
z
M 1172 3481 
Q 1172 3119 1398 2916 
Q 1625 2713 2034 2713 
Q 2441 2713 2670 2916 
Q 2900 3119 2900 3481 
Q 2900 3844 2670 4047 
Q 2441 4250 2034 4250 
Q 1625 4250 1398 4047 
Q 1172 3844 1172 3481 
z
" transform="scale(0.015625)"/>
       </defs>
       <use xlink:href="#DejaVuSans-30"/>
       <use xlink:href="#DejaVuSans-2e" x="63.623047"/>
       <use xlink:href="#DejaVuSans-38" x="95.410156"/>
      </g>
     </g>
    </g>
    <g id="xtick_6">
     <g id="line2d_6">
      <g>
       <use xlink:href="#me624b11122" x="267.435909" y="246.04" style="stroke: #000000; stroke-width: 0.8"/>
      </g>
     </g>
     <g id="text_6">
      <!-- 1.0 -->
      <g transform="translate(259.484347 260.638438) scale(0.1 -0.1)">
       <defs>
        <path id="DejaVuSans-31" d="M 794 531 
L 1825 531 
L 1825 4091 
L 703 3866 
L 703 4441 
L 1819 4666 
L 2450 4666 
L 2450 531 
L 3481 531 
L 3481 0 
L 794 0 
L 794 531 
z
" transform="scale(0.015625)"/>
       </defs>
       <use xlink:href="#DejaVuSans-31"/>
       <use xlink:href="#DejaVuSans-2e" x="63.623047"/>
       <use xlink:href="#DejaVuSans-30" x="95.410156"/>
      </g>
     </g>
    </g>
    <g id="text_7">
     <!-- Time (s) -->
     <g transform="translate(149.466094 274.316562) scale(0.1 -0.1)">
      <defs>
       <path id="DejaVuSans-54" d="M -19 4666 
L 3928 4666 
L 3928 4134 
L 2272 4134 
L 2272 0 
L 1638 0 
L 1638 4134 
L -19 4134 
L -19 4666 
z
" transform="scale(0.015625)"/>
       <path id="DejaVuSans-69" d="M 603 3500 
L 1178 3500 
L 1178 0 
L 603 0 
L 603 3500 
z
M 603 4863 
L 1178 4863 
L 1178 4134 
L 603 4134 
L 603 4863 
z
" transform="scale(0.015625)"/>
       <path id="DejaVuSans-6d" d="M 3328 2828 
Q 3544 3216 3844 3400 
Q 4144 3584 4550 3584 
Q 5097 3584 5394 3201 
Q 5691 2819 5691 2113 
L 5691 0 
L 5113 0 
L 5113 2094 
Q 5113 2597 4934 2840 
Q 4756 3084 4391 3084 
Q 3944 3084 3684 2787 
Q 3425 2491 3425 1978 
L 3425 0 
L 2847 0 
L 2847 2094 
Q 2847 2600 2669 2842 
Q 2491 3084 2119 3084 
Q 1678 3084 1418 2786 
Q 1159 2488 1159 1978 
L 1159 0 
L 581 0 
L 581 3500 
L 1159 3500 
L 1159 2956 
Q 1356 3278 1631 3431 
Q 1906 3584 2284 3584 
Q 2666 3584 2933 3390 
Q 3200 3197 3328 2828 
z
" transform="scale(0.015625)"/>
       <path id="DejaVuSans-65" d="M 3597 1894 
L 3597 1613 
L 953 1613 
Q 991 1019 1311 708 
Q 1631 397 2203 397 
Q 2534 397 2845 478 
Q 3156 559 3463 722 
L 3463 178 
Q 3153 47 2828 -22 
Q 2503 -91 2169 -91 
Q 1331 -91 842 396 
Q 353 884 353 1716 
Q 353 2575 817 3079 
Q 1281 3584 2069 3584 
Q 2775 3584 3186 3129 
Q 3597 2675 3597 1894 
z
M 3022 2063 
Q 3016 2534 2758 2815 
Q 2500 3097 2075 3097 
Q 1594 3097 1305 2825 
Q 1016 2553 972 2059 
L 3022 2063 
z
" transform="scale(0.015625)"/>
       <path id="DejaVuSans-20" transform="scale(0.015625)"/>
       <path id="DejaVuSans-28" d="M 1984 4856 
Q 1566 4138 1362 3434 
Q 1159 2731 1159 2009 
Q 1159 1288 1364 580 
Q 1569 -128 1984 -844 
L 1484 -844 
Q 1016 -109 783 600 
Q 550 1309 550 2009 
Q 550 2706 781 3412 
Q 1013 4119 1484 4856 
L 1984 4856 
z
" transform="scale(0.015625)"/>
       <path id="DejaVuSans-73" d="M 2834 3397 
L 2834 2853 
Q 2591 2978 2328 3040 
Q 2066 3103 1784 3103 
Q 1356 3103 1142 2972 
Q 928 2841 928 2578 
Q 928 2378 1081 2264 
Q 1234 2150 1697 2047 
L 1894 2003 
Q 2506 1872 2764 1633 
Q 3022 1394 3022 966 
Q 3022 478 2636 193 
Q 2250 -91 1575 -91 
Q 1294 -91 989 -36 
Q 684 19 347 128 
L 347 722 
Q 666 556 975 473 
Q 1284 391 1588 391 
Q 1994 391 2212 530 
Q 2431 669 2431 922 
Q 2431 1156 2273 1281 
Q 2116 1406 1581 1522 
L 1381 1569 
Q 847 1681 609 1914 
Q 372 2147 372 2553 
Q 372 3047 722 3315 
Q 1072 3584 1716 3584 
Q 2034 3584 2315 3537 
Q 2597 3491 2834 3397 
z
" transform="scale(0.015625)"/>
       <path id="DejaVuSans-29" d="M 513 4856 
L 1013 4856 
Q 1481 4119 1714 3412 
Q 1947 2706 1947 2009 
Q 1947 1309 1714 600 
Q 1481 -109 1013 -844 
L 513 -844 
Q 928 -128 1133 580 
Q 1338 1288 1338 2009 
Q 1338 2731 1133 3434 
Q 928 4138 513 4856 
z
" transform="scale(0.015625)"/>
      </defs>
      <use xlink:href="#DejaVuSans-54"/>
      <use xlink:href="#DejaVuSans-69" x="57.958984"/>
      <use xlink:href="#DejaVuSans-6d" x="85.742188"/>
      <use xlink:href="#DejaVuSans-65" x="183.154297"/>
      <use xlink:href="#DejaVuSans-20" x="244.677734"/>
      <use xlink:href="#DejaVuSans-28" x="276.464844"/>
      <use xlink:href="#DejaVuSans-73" x="315.478516"/>
      <use xlink:href="#DejaVuSans-29" x="367.578125"/>
     </g>
    </g>
   </g>
   <g id="matplotlib.axis_2">
    <g id="ytick_1">
     <g id="line2d_7">
      <defs>
       <path id="m382b8762ab" d="M 0 0 
L -3.5 0 
" style="stroke: #000000; stroke-width: 0.8"/>
      </defs>
      <g>
       <use xlink:href="#m382b8762ab" x="62.39" y="230.621333" style="stroke: #000000; stroke-width: 0.8"/>
      </g>
     </g>
     <g id="text_8">
      <!-- −0.01 -->
      <g transform="translate(24.744687 234.420552) scale(0.1 -0.1)">
       <defs>
        <path id="DejaVuSans-2212" d="M 678 2272 
L 4684 2272 
L 4684 1741 
L 678 1741 
L 678 2272 
z
" transform="scale(0.015625)"/>
       </defs>
       <use xlink:href="#DejaVuSans-2212"/>
       <use xlink:href="#DejaVuSans-30" x="83.789062"/>
       <use xlink:href="#DejaVuSans-2e" x="147.412109"/>
       <use xlink:href="#DejaVuSans-30" x="179.199219"/>
       <use xlink:href="#DejaVuSans-31" x="242.822266"/>
      </g>
     </g>
    </g>
    <g id="ytick_2">
     <g id="line2d_8">
      <g>
       <use xlink:href="#m382b8762ab" x="62.39" y="199.784" style="stroke: #000000; stroke-width: 0.8"/>
      </g>
     </g>
     <g id="text_9">
      <!-- 0.00 -->
      <g transform="translate(33.124375 203.583219) scale(0.1 -0.1)">
       <use xlink:href="#DejaVuSans-30"/>
       <use xlink:href="#DejaVuSans-2e" x="63.623047"/>
       <use xlink:href="#DejaVuSans-30" x="95.410156"/>
       <use xlink:href="#DejaVuSans-30" x="159.033203"/>
      </g>
     </g>
    </g>
    <g id="ytick_3">
     <g id="line2d_9">
      <g>
       <use xlink:href="#m382b8762ab" x="62.39" y="168.946667" style="stroke: #000000; stroke-width: 0.8"/>
      </g>
     </g>
     <g id="text_10">
      <!-- 0.01 -->
      <g transform="translate(33.124375 172.745885) scale(0.1 -0.1)">
       <use xlink:href="#DejaVuSans-30"/>
       <use xlink:href="#DejaVuSans-2e" x="63.623047"/>
       <use xlink:href="#DejaVuSans-30" x="95.410156"/>
       <use xlink:href="#DejaVuSans-31" x="159.033203"/>
      </g>
     </g>
    </g>
    <g id="ytick_4">
     <g id="line2d_10">
      <g>
       <use xlink:href="#m382b8762ab" x="62.39" y="138.109333" style="stroke: #000000; stroke-width: 0.8"/>
      </g>
     </g>
     <g id="text_11">
      <!-- 0.02 -->
      <g transform="translate(33.124375 141.908552) scale(0.1 -0.1)">
       <use xlink:href="#DejaVuSans-30"/>
       <use xlink:href="#DejaVuSans-2e" x="63.623047"/>
       <use xlink:href="#DejaVuSans-30" x="95.410156"/>
       <use xlink:href="#DejaVuSans-32" x="159.033203"/>
      </g>
     </g>
    </g>
    <g id="ytick_5">
     <g id="line2d_11">
      <g>
       <use xlink:href="#m382b8762ab" x="62.39" y="107.272" style="stroke: #000000; stroke-width: 0.8"/>
      </g>
     </g>
     <g id="text_12">
      <!-- 0.03 -->
      <g transform="translate(33.124375 111.071219) scale(0.1 -0.1)">
       <defs>
        <path id="DejaVuSans-33" d="M 2597 2516 
Q 3050 2419 3304 2112 
Q 3559 1806 3559 1356 
Q 3559 666 3084 287 
Q 2609 -91 1734 -91 
Q 1441 -91 1130 -33 
Q 819 25 488 141 
L 488 750 
Q 750 597 1062 519 
Q 1375 441 1716 441 
Q 2309 441 2620 675 
Q 2931 909 2931 1356 
Q 2931 1769 2642 2001 
Q 2353 2234 1838 2234 
L 1294 2234 
L 1294 2753 
L 1863 2753 
Q 2328 2753 2575 2939 
Q 2822 3125 2822 3475 
Q 2822 3834 2567 4026 
Q 2313 4219 1838 4219 
Q 1578 4219 1281 4162 
Q 984 4106 628 3988 
L 628 4550 
Q 988 4650 1302 4700 
Q 1616 4750 1894 4750 
Q 2613 4750 3031 4423 
Q 3450 4097 3450 3541 
Q 3450 3153 3228 2886 
Q 3006 2619 2597 2516 
z
" transform="scale(0.015625)"/>
       </defs>
       <use xlink:href="#DejaVuSans-30"/>
       <use xlink:href="#DejaVuSans-2e" x="63.623047"/>
       <use xlink:href="#DejaVuSans-30" x="95.410156"/>
       <use xlink:href="#DejaVuSans-33" x="159.033203"/>
      </g>
     </g>
    </g>
    <g id="ytick_6">
     <g id="line2d_12">
      <g>
       <use xlink:href="#m382b8762ab" x="62.39" y="76.434667" style="stroke: #000000; stroke-width: 0.8"/>
      </g>
     </g>
     <g id="text_13">
      <!-- 0.04 -->
      <g transform="translate(33.124375 80.233885) scale(0.1 -0.1)">
       <use xlink:href="#DejaVuSans-30"/>
       <use xlink:href="#DejaVuSans-2e" x="63.623047"/>
       <use xlink:href="#DejaVuSans-30" x="95.410156"/>
       <use xlink:href="#DejaVuSans-34" x="159.033203"/>
      </g>
     </g>
    </g>
    <g id="ytick_7">
     <g id="line2d_13">
      <g>
       <use xlink:href="#m382b8762ab" x="62.39" y="45.597333" style="stroke: #000000; stroke-width: 0.8"/>
      </g>
     </g>
     <g id="text_14">
      <!-- 0.05 -->
      <g transform="translate(33.124375 49.396552) scale(0.1 -0.1)">
       <defs>
        <path id="DejaVuSans-35" d="M 691 4666 
L 3169 4666 
L 3169 4134 
L 1269 4134 
L 1269 2991 
Q 1406 3038 1543 3061 
Q 1681 3084 1819 3084 
Q 2600 3084 3056 2656 
Q 3513 2228 3513 1497 
Q 3513 744 3044 326 
Q 2575 -91 1722 -91 
Q 1428 -91 1123 -41 
Q 819 9 494 109 
L 494 744 
Q 775 591 1075 516 
Q 1375 441 1709 441 
Q 2250 441 2565 725 
Q 2881 1009 2881 1497 
Q 2881 1984 2565 2268 
Q 2250 2553 1709 2553 
Q 1456 2553 1204 2497 
Q 953 2441 691 2322 
L 691 4666 
z
" transform="scale(0.015625)"/>
       </defs>
       <use xlink:href="#DejaVuSans-30"/>
       <use xlink:href="#DejaVuSans-2e" x="63.623047"/>
       <use xlink:href="#DejaVuSans-30" x="95.410156"/>
       <use xlink:href="#DejaVuSans-35" x="159.033203"/>
      </g>
     </g>
    </g>
    <g id="ytick_8">
     <g id="line2d_14">
      <g>
       <use xlink:href="#m382b8762ab" x="62.39" y="14.76" style="stroke: #000000; stroke-width: 0.8"/>
      </g>
     </g>
     <g id="text_15">
      <!-- 0.06 -->
      <g transform="translate(33.124375 18.559219) scale(0.1 -0.1)">
       <use xlink:href="#DejaVuSans-30"/>
       <use xlink:href="#DejaVuSans-2e" x="63.623047"/>
       <use xlink:href="#DejaVuSans-30" x="95.410156"/>
       <use xlink:href="#DejaVuSans-36" x="159.033203"/>
      </g>
     </g>
    </g>
    <g id="text_16">
     <!-- Partial Correlation -->
     <g transform="translate(18.665 175.269531) rotate(-90) scale(0.1 -0.1)">
      <defs>
       <path id="DejaVuSans-50" d="M 1259 4147 
L 1259 2394 
L 2053 2394 
Q 2494 2394 2734 2622 
Q 2975 2850 2975 3272 
Q 2975 3691 2734 3919 
Q 2494 4147 2053 4147 
L 1259 4147 
z
M 628 4666 
L 2053 4666 
Q 2838 4666 3239 4311 
Q 3641 3956 3641 3272 
Q 3641 2581 3239 2228 
Q 2838 1875 2053 1875 
L 1259 1875 
L 1259 0 
L 628 0 
L 628 4666 
z
" transform="scale(0.015625)"/>
       <path id="DejaVuSans-61" d="M 2194 1759 
Q 1497 1759 1228 1600 
Q 959 1441 959 1056 
Q 959 750 1161 570 
Q 1363 391 1709 391 
Q 2188 391 2477 730 
Q 2766 1069 2766 1631 
L 2766 1759 
L 2194 1759 
z
M 3341 1997 
L 3341 0 
L 2766 0 
L 2766 531 
Q 2569 213 2275 61 
Q 1981 -91 1556 -91 
Q 1019 -91 701 211 
Q 384 513 384 1019 
Q 384 1609 779 1909 
Q 1175 2209 1959 2209 
L 2766 2209 
L 2766 2266 
Q 2766 2663 2505 2880 
Q 2244 3097 1772 3097 
Q 1472 3097 1187 3025 
Q 903 2953 641 2809 
L 641 3341 
Q 956 3463 1253 3523 
Q 1550 3584 1831 3584 
Q 2591 3584 2966 3190 
Q 3341 2797 3341 1997 
z
" transform="scale(0.015625)"/>
       <path id="DejaVuSans-72" d="M 2631 2963 
Q 2534 3019 2420 3045 
Q 2306 3072 2169 3072 
Q 1681 3072 1420 2755 
Q 1159 2438 1159 1844 
L 1159 0 
L 581 0 
L 581 3500 
L 1159 3500 
L 1159 2956 
Q 1341 3275 1631 3429 
Q 1922 3584 2338 3584 
Q 2397 3584 2469 3576 
Q 2541 3569 2628 3553 
L 2631 2963 
z
" transform="scale(0.015625)"/>
       <path id="DejaVuSans-74" d="M 1172 4494 
L 1172 3500 
L 2356 3500 
L 2356 3053 
L 1172 3053 
L 1172 1153 
Q 1172 725 1289 603 
Q 1406 481 1766 481 
L 2356 481 
L 2356 0 
L 1766 0 
Q 1100 0 847 248 
Q 594 497 594 1153 
L 594 3053 
L 172 3053 
L 172 3500 
L 594 3500 
L 594 4494 
L 1172 4494 
z
" transform="scale(0.015625)"/>
       <path id="DejaVuSans-6c" d="M 603 4863 
L 1178 4863 
L 1178 0 
L 603 0 
L 603 4863 
z
" transform="scale(0.015625)"/>
       <path id="DejaVuSans-43" d="M 4122 4306 
L 4122 3641 
Q 3803 3938 3442 4084 
Q 3081 4231 2675 4231 
Q 1875 4231 1450 3742 
Q 1025 3253 1025 2328 
Q 1025 1406 1450 917 
Q 1875 428 2675 428 
Q 3081 428 3442 575 
Q 3803 722 4122 1019 
L 4122 359 
Q 3791 134 3420 21 
Q 3050 -91 2638 -91 
Q 1578 -91 968 557 
Q 359 1206 359 2328 
Q 359 3453 968 4101 
Q 1578 4750 2638 4750 
Q 3056 4750 3426 4639 
Q 3797 4528 4122 4306 
z
" transform="scale(0.015625)"/>
       <path id="DejaVuSans-6f" d="M 1959 3097 
Q 1497 3097 1228 2736 
Q 959 2375 959 1747 
Q 959 1119 1226 758 
Q 1494 397 1959 397 
Q 2419 397 2687 759 
Q 2956 1122 2956 1747 
Q 2956 2369 2687 2733 
Q 2419 3097 1959 3097 
z
M 1959 3584 
Q 2709 3584 3137 3096 
Q 3566 2609 3566 1747 
Q 3566 888 3137 398 
Q 2709 -91 1959 -91 
Q 1206 -91 779 398 
Q 353 888 353 1747 
Q 353 2609 779 3096 
Q 1206 3584 1959 3584 
z
" transform="scale(0.015625)"/>
       <path id="DejaVuSans-6e" d="M 3513 2113 
L 3513 0 
L 2938 0 
L 2938 2094 
Q 2938 2591 2744 2837 
Q 2550 3084 2163 3084 
Q 1697 3084 1428 2787 
Q 1159 2491 1159 1978 
L 1159 0 
L 581 0 
L 581 3500 
L 1159 3500 
L 1159 2956 
Q 1366 3272 1645 3428 
Q 1925 3584 2291 3584 
Q 2894 3584 3203 3211 
Q 3513 2838 3513 2113 
z
" transform="scale(0.015625)"/>
      </defs>
      <use xlink:href="#DejaVuSans-50"/>
      <use xlink:href="#DejaVuSans-61" x="55.802734"/>
      <use xlink:href="#DejaVuSans-72" x="117.082031"/>
      <use xlink:href="#DejaVuSans-74" x="158.195312"/>
      <use xlink:href="#DejaVuSans-69" x="197.404297"/>
      <use xlink:href="#DejaVuSans-61" x="225.1875"/>
      <use xlink:href="#DejaVuSans-6c" x="286.466797"/>
      <use xlink:href="#DejaVuSans-20" x="314.25"/>
      <use xlink:href="#DejaVuSans-43" x="346.037109"/>
      <use xlink:href="#DejaVuSans-6f" x="415.861328"/>
      <use xlink:href="#DejaVuSans-72" x="477.042969"/>
      <use xlink:href="#DejaVuSans-72" x="516.40625"/>
      <use xlink:href="#DejaVuSans-65" x="555.269531"/>
      <use xlink:href="#DejaVuSans-6c" x="616.792969"/>
      <use xlink:href="#DejaVuSans-61" x="644.576172"/>
      <use xlink:href="#DejaVuSans-74" x="705.855469"/>
      <use xlink:href="#DejaVuSans-69" x="745.064453"/>
      <use xlink:href="#DejaVuSans-6f" x="772.847656"/>
      <use xlink:href="#DejaVuSans-6e" x="834.029297"/>
     </g>
    </g>
   </g>
   <g id="line2d_15">
    <path d="M 89.906983 246.04 
L 89.906983 14.76 
" clip-path="url(#p9da3e420db)" style="fill: none; stroke-dasharray: 5.55,2.4; stroke-dashoffset: 0; stroke: #d3d3d3; stroke-width: 1.5"/>
   </g>
   <g id="line2d_16">
    <path d="M 62.39 199.784 
L 277.2 199.784 
" clip-path="url(#p9da3e420db)" style="fill: none; stroke-dasharray: 5.55,2.4; stroke-dashoffset: 0; stroke: #d3d3d3; stroke-width: 1.5"/>
   </g>
   <g id="line2d_17">
    <path d="M 72.154091 212.045344 
L 73.548961 207.724661 
L 74.943831 205.027076 
L 76.338701 206.719881 
L 77.733571 203.999187 
L 79.128442 208.066588 
L 80.523312 200.993077 
L 81.918182 196.679494 
L 83.313052 201.229206 
L 84.707922 208.861078 
L 86.102792 212.034067 
L 87.497662 205.309634 
L 88.892532 187.696312 
L 90.287403 186.982346 
L 91.682273 195.182635 
L 93.077143 204.755561 
L 94.472013 208.873873 
L 95.866883 209.515599 
L 97.261753 215.819705 
L 98.656623 229.925028 
L 100.051494 234.550699 
L 101.446364 217.210025 
L 102.841234 179.254944 
L 104.236104 154.707326 
L 105.630974 142.324994 
L 107.025844 142.757279 
L 109.815584 156.049108 
L 111.210455 152.841467 
L 112.605325 146.875763 
L 114.000195 145.70286 
L 115.395065 143.036711 
L 116.789935 132.264101 
L 118.184805 108.791722 
L 119.579675 89.57136 
L 120.974545 77.724837 
L 122.369416 71.557709 
L 123.764286 68.573519 
L 125.159156 64.385563 
L 126.554026 59.615249 
L 127.948896 56.878361 
L 129.343766 57.251837 
L 130.738636 62.073512 
L 132.133506 71.201642 
L 133.528377 83.886307 
L 134.923247 98.312244 
L 136.318117 109.939744 
L 137.712987 116.432611 
L 139.107857 120.1115 
L 141.897597 125.465522 
L 143.292468 130.444204 
L 144.687338 137.551085 
L 146.082208 143.835173 
L 148.871948 161.597416 
L 150.266818 165.010873 
L 151.661688 165.918057 
L 153.056558 168.440672 
L 154.451429 171.196748 
L 155.846299 172.785293 
L 157.241169 173.219767 
L 158.636039 174.906047 
L 160.030909 178.729328 
L 161.425779 180.201969 
L 162.820649 177.699922 
L 164.215519 174.331671 
L 165.61039 171.521844 
L 168.40013 164.601554 
L 169.795 162.408159 
L 171.18987 163.826131 
L 172.58474 167.68736 
L 173.97961 174.187683 
L 176.769351 188.582865 
L 178.164221 194.070711 
L 179.559091 196.571492 
L 180.953961 197.402663 
L 182.348831 197.275242 
L 183.743701 197.028454 
L 185.138571 197.854531 
L 186.533442 198.434588 
L 187.928312 199.325149 
L 189.323182 199.0284 
L 190.718052 196.78266 
L 192.112922 192.290223 
L 193.507792 186.812076 
L 194.902662 180.439697 
L 196.297532 178.023603 
L 197.692403 180.371577 
L 199.087273 184.351534 
L 200.482143 185.781499 
L 201.877013 184.530108 
L 203.271883 182.983018 
L 204.666753 184.285968 
L 206.061623 186.488885 
L 208.851364 187.586343 
L 213.035974 195.108779 
L 214.430844 197.187933 
L 215.825714 200.350885 
L 217.220584 201.254459 
L 218.615455 199.994355 
L 221.405195 194.779929 
L 222.800065 192.891724 
L 224.194935 193.276381 
L 225.589805 195.956365 
L 226.984675 197.0759 
L 228.379545 194.923954 
L 229.774416 191.056282 
L 231.169286 189.491981 
L 232.564156 187.726721 
L 233.959026 185.094217 
L 235.353896 184.321749 
L 236.748766 187.475472 
L 238.143636 191.966102 
L 239.538506 195.528246 
L 240.933377 200.206721 
L 242.328247 205.43164 
L 243.723117 207.843043 
L 245.117987 207.428586 
L 246.512857 204.686491 
L 247.907727 199.23072 
L 250.697468 182.795465 
L 252.092338 177.560746 
L 253.487208 176.733816 
L 254.882078 179.260573 
L 256.276948 184.576587 
L 257.671818 191.138558 
L 259.066688 195.639518 
L 260.461558 195.470246 
L 261.856429 193.046428 
L 263.251299 192.34612 
L 264.646169 192.794043 
L 266.041039 193.075166 
L 267.435909 194.652439 
L 267.435909 194.652439 
" clip-path="url(#p9da3e420db)" style="fill: none; stroke: #7209b7; stroke-width: 1.5; stroke-linecap: square"/>
   </g>
   <g id="line2d_18">
    <path d="M 72.154091 212.306828 
L 73.548961 207.2226 
L 74.943831 203.903876 
L 76.338701 205.449509 
L 77.733571 203.260928 
L 79.128442 208.38686 
L 80.523312 201.125882 
L 81.918182 196.692471 
L 83.313052 199.836264 
L 84.707922 207.605418 
L 86.102792 211.721919 
L 87.497662 206.309755 
L 88.892532 189.358074 
L 90.287403 187.869824 
L 91.682273 195.358697 
L 93.077143 204.627346 
L 94.472013 208.70866 
L 95.866883 209.564731 
L 97.261753 216.138916 
L 98.656623 229.96854 
L 100.051494 233.203934 
L 101.446364 213.423805 
L 102.841234 173.232326 
L 104.236104 147.698806 
L 105.630974 134.530324 
L 107.025844 134.864133 
L 108.420714 141.623389 
L 109.815584 147.78551 
L 111.210455 144.321192 
L 112.605325 138.848945 
L 114.000195 138.580559 
L 115.395065 136.79008 
L 116.789935 126.722911 
L 118.184805 104.50656 
L 119.579675 86.417295 
L 120.974545 75.058514 
L 122.369416 68.78722 
L 123.764286 65.21141 
L 125.159156 60.166352 
L 126.554026 54.558369 
L 127.948896 51.293122 
L 129.343766 51.423747 
L 130.738636 56.257527 
L 132.133506 65.592206 
L 133.528377 78.652658 
L 134.923247 93.488547 
L 136.318117 105.349456 
L 137.712987 111.754265 
L 139.107857 115.081672 
L 140.502727 117.307888 
L 141.897597 119.805447 
L 143.292468 124.71622 
L 144.687338 131.88034 
L 146.082208 138.295053 
L 148.871948 156.401133 
L 150.266818 160.036092 
L 151.661688 161.013026 
L 154.451429 165.906011 
L 155.846299 167.296408 
L 157.241169 167.559997 
L 158.636039 169.058251 
L 160.030909 172.830671 
L 161.425779 174.356034 
L 162.820649 171.889768 
L 164.215519 168.497138 
L 165.61039 165.69389 
L 168.40013 159.066712 
L 169.795 156.984902 
L 171.18987 158.43147 
L 172.58474 162.277046 
L 173.97961 168.759387 
L 176.769351 183.346116 
L 178.164221 189.083747 
L 179.559091 191.871234 
L 180.953961 192.955033 
L 182.348831 193.049125 
L 183.743701 193.002404 
L 185.138571 194.047995 
L 186.533442 194.839948 
L 187.928312 195.90576 
L 189.323182 195.717603 
L 190.718052 193.52239 
L 192.112922 188.965683 
L 193.507792 183.328638 
L 194.902662 176.822973 
L 196.297532 174.447594 
L 197.692403 176.955151 
L 199.087273 181.062939 
L 200.482143 182.548869 
L 201.877013 181.309828 
L 203.271883 179.715671 
L 204.666753 180.95753 
L 206.061623 183.160964 
L 208.851364 184.537341 
L 211.641104 190.44319 
L 214.430844 194.776373 
L 215.825714 197.901411 
L 217.220584 198.760294 
L 218.615455 197.387398 
L 221.405195 191.848488 
L 222.800065 189.674717 
L 224.194935 189.727639 
L 225.589805 192.202167 
L 226.984675 193.249518 
L 228.379545 191.109736 
L 229.774416 187.336636 
L 231.169286 185.938002 
L 232.564156 184.259931 
L 233.959026 181.559677 
L 235.353896 180.652589 
L 236.748766 183.68142 
L 238.143636 188.048335 
L 239.538506 191.506511 
L 240.933377 196.14519 
L 242.328247 201.462025 
L 243.723117 204.054078 
L 245.117987 203.877337 
L 246.512857 201.361197 
L 247.907727 196.06797 
L 250.697468 179.687157 
L 252.092338 174.337145 
L 253.487208 173.381352 
L 254.882078 175.814257 
L 256.276948 181.119565 
L 257.671818 187.718851 
L 259.066688 192.305278 
L 260.461558 192.258884 
L 261.856429 189.923051 
L 263.251299 189.19785 
L 264.646169 189.487689 
L 266.041039 189.554803 
L 267.435909 190.944657 
L 267.435909 190.944657 
" clip-path="url(#p9da3e420db)" style="fill: none; stroke: #7209b7; stroke-width: 1.5; stroke-linecap: square"/>
   </g>
   <g id="line2d_19">
    <path d="M 72.154091 213.20595 
L 73.548961 208.364666 
L 74.943831 205.038575 
L 76.338701 205.950228 
L 77.733571 203.32311 
L 79.128442 209.262841 
L 80.523312 202.533699 
L 81.918182 198.665403 
L 83.313052 201.977264 
L 84.707922 208.679352 
L 86.102792 211.449166 
L 87.497662 204.692635 
L 88.892532 187.414663 
L 90.287403 186.258193 
L 91.682273 194.669985 
L 93.077143 204.715421 
L 94.472013 208.941139 
L 95.866883 209.704596 
L 97.261753 216.073788 
L 98.656623 230.408986 
L 100.051494 235.47486 
L 101.446364 217.539996 
L 102.841234 177.525486 
L 104.236104 150.834462 
L 105.630974 136.4956 
L 107.025844 134.850376 
L 108.420714 139.478899 
L 109.815584 144.835356 
L 111.210455 141.449747 
L 112.605325 135.623665 
L 114.000195 134.436828 
L 115.395065 131.88615 
L 116.789935 121.10116 
L 118.184805 97.447968 
L 119.579675 77.591101 
L 120.974545 64.928498 
L 122.369416 58.2903 
L 123.764286 55.427188 
L 125.159156 51.836635 
L 126.554026 47.738672 
L 127.948896 45.548276 
L 129.343766 46.440898 
L 130.738636 51.847315 
L 132.133506 61.629635 
L 133.528377 74.845177 
L 134.923247 89.573916 
L 136.318117 101.41404 
L 137.712987 108.1849 
L 139.107857 112.16298 
L 141.897597 117.973683 
L 143.292468 123.095263 
L 144.687338 130.282017 
L 146.082208 136.664542 
L 148.871948 154.6316 
L 150.266818 158.113508 
L 151.661688 159.184607 
L 154.451429 164.627018 
L 155.846299 166.230591 
L 157.241169 166.629544 
L 158.636039 168.252408 
L 160.030909 171.984495 
L 161.425779 173.42408 
L 162.820649 171.069565 
L 164.215519 168.015145 
L 165.61039 165.472789 
L 168.40013 158.771369 
L 169.795 156.563215 
L 171.18987 157.952768 
L 172.58474 161.868772 
L 173.97961 168.529537 
L 176.769351 183.205527 
L 178.164221 188.627654 
L 179.559091 190.921716 
L 180.953961 191.486857 
L 183.743701 190.927984 
L 185.138571 191.905077 
L 186.533442 192.572718 
L 187.928312 193.578784 
L 189.323182 193.433683 
L 190.718052 191.247682 
L 192.112922 186.802345 
L 193.507792 181.356387 
L 194.902662 175.040549 
L 196.297532 172.597435 
L 197.692403 174.864741 
L 199.087273 178.751606 
L 200.482143 180.210183 
L 201.877013 179.01261 
L 203.271883 177.51914 
L 204.666753 178.903709 
L 206.061623 181.189554 
L 208.851364 182.538309 
L 213.035974 190.924856 
L 214.430844 193.15248 
L 215.825714 196.314057 
L 217.220584 197.093189 
L 218.615455 195.630172 
L 221.405195 190.016711 
L 222.800065 188.117898 
L 224.194935 188.695091 
L 225.589805 191.667992 
L 226.984675 193.104525 
L 228.379545 191.206151 
L 229.774416 187.479802 
L 231.169286 185.987062 
L 232.564156 184.2155 
L 233.959026 181.481092 
L 235.353896 180.728003 
L 236.748766 184.031007 
L 238.143636 188.707004 
L 239.538506 192.468488 
L 240.933377 197.306362 
L 242.328247 202.628381 
L 243.723117 205.123129 
L 245.117987 204.693711 
L 246.512857 201.882395 
L 247.907727 196.331077 
L 250.697468 179.591161 
L 252.092338 174.262662 
L 253.487208 173.489129 
L 254.882078 176.139977 
L 256.276948 181.638357 
L 257.671818 188.388795 
L 259.066688 192.984281 
L 260.461558 192.86339 
L 261.856429 190.398271 
L 263.251299 189.575878 
L 264.646169 189.88031 
L 266.041039 190.067396 
L 267.435909 191.550958 
L 267.435909 191.550958 
" clip-path="url(#p9da3e420db)" style="fill: none; stroke: #7209b7; stroke-width: 1.5; stroke-linecap: square"/>
   </g>
   <g id="line2d_20">
    <path d="M 72.154091 212.454579 
L 73.548961 207.574356 
L 74.943831 204.97821 
L 76.338701 207.019441 
L 77.733571 204.427758 
L 79.128442 208.057564 
L 80.523312 199.891177 
L 81.918182 195.595899 
L 83.313052 200.515782 
L 84.707922 208.767861 
L 86.102792 212.206002 
L 87.497662 205.847666 
L 88.892532 188.450767 
L 90.287403 188.256453 
L 91.682273 196.692555 
L 93.077143 206.046022 
L 94.472013 210.027575 
L 95.866883 210.583193 
L 97.261753 216.716341 
L 98.656623 230.655214 
L 100.051494 235.158368 
L 101.446364 218.688312 
L 102.841234 183.123366 
L 104.236104 161.285445 
L 105.630974 150.298865 
L 107.025844 151.627387 
L 108.420714 158.572774 
L 109.815584 164.69458 
L 111.210455 160.659843 
L 112.605325 153.712732 
L 114.000195 151.34101 
L 115.395065 147.593143 
L 116.789935 135.886538 
L 118.184805 111.847388 
L 119.579675 92.573481 
L 120.974545 81.097498 
L 122.369416 75.293104 
L 123.764286 72.389623 
L 125.159156 68.085217 
L 126.554026 63.302511 
L 127.948896 60.904369 
L 129.343766 61.857787 
L 130.738636 67.259366 
L 132.133506 76.84901 
L 133.528377 89.928223 
L 134.923247 104.820633 
L 136.318117 116.723967 
L 137.712987 122.992995 
L 139.107857 126.12253 
L 140.502727 128.225264 
L 141.897597 130.537443 
L 143.292468 135.224661 
L 144.687338 142.108233 
L 146.082208 148.152661 
L 148.871948 165.582166 
L 150.266818 168.96218 
L 151.661688 169.826628 
L 154.451429 174.864378 
L 155.846299 176.397403 
L 157.241169 176.77132 
L 158.636039 178.284893 
L 160.030909 181.972108 
L 161.425779 183.464404 
L 162.820649 181.002537 
L 164.215519 177.68551 
L 165.61039 174.992066 
L 168.40013 168.267425 
L 169.795 165.841288 
L 171.18987 166.959893 
L 172.58474 170.543868 
L 173.97961 176.851481 
L 176.769351 191.24492 
L 178.164221 196.867768 
L 179.559091 199.461527 
L 180.953961 200.317607 
L 183.743701 200.159026 
L 185.138571 201.207397 
L 186.533442 202.099839 
L 187.928312 203.240775 
L 189.323182 203.056885 
L 190.718052 200.858576 
L 192.112922 196.30603 
L 193.507792 190.671451 
L 194.902662 184.073435 
L 196.297532 181.467237 
L 197.692403 183.620815 
L 199.087273 187.449093 
L 200.482143 188.732637 
L 201.877013 187.417575 
L 203.271883 185.847001 
L 204.666753 187.127091 
L 206.061623 189.23885 
L 208.851364 190.144903 
L 211.641104 195.221845 
L 214.430844 199.047284 
L 215.825714 202.158381 
L 217.220584 203.132394 
L 218.615455 201.958213 
L 221.405195 197.019688 
L 222.800065 195.177926 
L 224.194935 195.501117 
L 225.589805 198.116874 
L 226.984675 199.195764 
L 228.379545 197.040878 
L 229.774416 193.237455 
L 231.169286 191.74178 
L 232.564156 190.050347 
L 233.959026 187.490918 
L 235.353896 186.772623 
L 236.748766 189.941938 
L 238.143636 194.367264 
L 239.538506 197.803434 
L 240.933377 202.374857 
L 242.328247 207.599791 
L 243.723117 210.044911 
L 245.117987 209.665397 
L 246.512857 206.926804 
L 247.907727 201.413338 
L 250.697468 184.62403 
L 252.092338 179.224688 
L 253.487208 178.274739 
L 254.882078 180.73716 
L 256.276948 186.100351 
L 257.671818 192.840752 
L 259.066688 197.490815 
L 260.461558 197.34622 
L 261.856429 194.745648 
L 263.251299 193.781448 
L 266.041039 193.954001 
L 267.435909 195.36024 
L 267.435909 195.36024 
" clip-path="url(#p9da3e420db)" style="fill: none; stroke: #480ca8; stroke-width: 1.5; stroke-linecap: square"/>
   </g>
   <g id="line2d_21">
    <path d="M 72.154091 211.433222 
L 73.548961 206.148328 
L 74.943831 204.42358 
L 76.338701 208.362187 
L 77.733571 206.022267 
L 79.128442 206.933764 
L 80.523312 197.929736 
L 81.918182 193.608326 
L 83.313052 200.458517 
L 84.707922 209.852554 
L 86.102792 213.728941 
L 87.497662 206.381939 
L 88.892532 187.794336 
L 90.287403 186.901736 
L 91.682273 195.445618 
L 93.077143 204.91326 
L 94.472013 208.769232 
L 95.866883 209.813731 
L 97.261753 216.728911 
L 98.656623 230.866204 
L 100.051494 236.727959 
L 101.446364 223.009598 
L 102.841234 191.154097 
L 104.236104 172.223284 
L 105.630974 162.631175 
L 107.025844 164.859757 
L 108.420714 171.279875 
L 109.815584 176.230098 
L 111.210455 170.949968 
L 112.605325 162.016218 
L 115.395065 151.802658 
L 116.789935 140.837952 
L 118.184805 118.586476 
L 119.579675 100.959021 
L 120.974545 90.454089 
L 122.369416 84.931368 
L 123.764286 82.04824 
L 125.159156 77.905684 
L 126.554026 73.332831 
L 127.948896 71.394031 
L 129.343766 72.971613 
L 130.738636 79.285371 
L 132.133506 89.609828 
L 133.528377 102.981888 
L 134.923247 118.227124 
L 136.318117 130.5803 
L 137.712987 136.860044 
L 139.107857 139.600425 
L 140.502727 141.348086 
L 141.897597 143.51373 
L 143.292468 148.260878 
L 144.687338 155.243239 
L 146.082208 161.218868 
L 148.871948 177.789518 
L 150.266818 180.575624 
L 151.661688 180.812256 
L 153.056558 182.84334 
L 154.451429 185.203888 
L 155.846299 186.468966 
L 157.241169 186.392226 
L 158.636039 187.467982 
L 160.030909 191.071537 
L 161.425779 192.968124 
L 162.820649 191.137969 
L 164.215519 188.492157 
L 165.61039 186.252697 
L 167.00526 183.236322 
L 168.40013 179.612971 
L 169.795 176.739993 
L 171.18987 177.339313 
L 172.58474 180.474232 
L 173.97961 186.401227 
L 176.769351 200.475729 
L 178.164221 206.390573 
L 179.559091 209.372505 
L 180.953961 210.604341 
L 183.743701 211.013577 
L 185.138571 212.127054 
L 187.928312 214.042431 
L 189.323182 213.675474 
L 190.718052 211.449972 
L 192.112922 206.944164 
L 193.507792 201.218654 
L 194.902662 194.42498 
L 196.297532 191.642891 
L 197.692403 193.657967 
L 199.087273 197.310125 
L 200.482143 198.336254 
L 203.271883 195.569923 
L 204.666753 196.993998 
L 206.061623 199.0006 
L 208.851364 199.690452 
L 211.641104 203.920097 
L 213.035974 205.490123 
L 214.430844 207.23936 
L 215.825714 210.515829 
L 217.220584 211.668618 
L 218.615455 210.554796 
L 221.405195 205.744504 
L 222.800065 203.99644 
L 224.194935 204.523159 
L 225.589805 207.456215 
L 226.984675 208.769703 
L 228.379545 206.763724 
L 229.774416 203.036938 
L 232.564156 200.0998 
L 233.959026 197.817008 
L 235.353896 197.236398 
L 236.748766 200.290197 
L 238.143636 204.309913 
L 239.538506 207.253301 
L 240.933377 211.475841 
L 242.328247 216.512505 
L 243.723117 218.908224 
L 245.117987 218.579669 
L 246.512857 215.953879 
L 247.907727 210.35291 
L 250.697468 193.195543 
L 252.092338 187.744975 
L 253.487208 186.625591 
L 254.882078 188.890059 
L 256.276948 194.308464 
L 257.671818 201.346332 
L 259.066688 206.257374 
L 260.461558 206.259753 
L 261.856429 203.706483 
L 263.251299 202.745188 
L 266.041039 202.640588 
L 267.435909 203.966239 
L 267.435909 203.966239 
" clip-path="url(#p9da3e420db)" style="fill: none; stroke: #3f37c9; stroke-width: 1.5; stroke-linecap: square"/>
   </g>
   <g id="line2d_22">
    <path d="M 72.154091 212.383671 
L 73.548961 207.492444 
L 74.943831 204.654378 
L 76.338701 206.288812 
L 77.733571 203.850842 
L 79.128442 207.686344 
L 80.523312 199.905502 
L 81.918182 195.443669 
L 83.313052 200.323848 
L 84.707922 208.426511 
L 86.102792 212.06456 
L 87.497662 206.28672 
L 88.892532 188.919278 
L 90.287403 187.782385 
L 91.682273 195.590917 
L 93.077143 204.660673 
L 94.472013 208.828015 
L 95.866883 209.974513 
L 97.261753 216.629725 
L 98.656623 231.032331 
L 100.051494 235.423524 
L 101.446364 217.854362 
L 102.841234 180.388728 
L 104.236104 156.905936 
L 105.630974 145.268022 
L 107.025844 146.92859 
L 108.420714 154.865218 
L 109.815584 161.842005 
L 111.210455 158.449374 
L 112.605325 152.367624 
L 114.000195 151.019845 
L 115.395065 147.75466 
L 116.789935 135.828621 
L 118.184805 111.658548 
L 119.579675 92.736781 
L 120.974545 81.572562 
L 122.369416 75.591013 
L 123.764286 72.001228 
L 125.159156 66.764824 
L 126.554026 61.066584 
L 127.948896 57.917181 
L 129.343766 58.303596 
L 130.738636 63.382682 
L 132.133506 72.902822 
L 133.528377 86.177448 
L 134.923247 101.389783 
L 136.318117 113.540166 
L 137.712987 119.994838 
L 139.107857 123.260994 
L 140.502727 125.487313 
L 141.897597 128.003278 
L 143.292468 132.813313 
L 144.687338 139.786081 
L 146.082208 145.935648 
L 148.871948 163.543249 
L 150.266818 166.996764 
L 151.661688 167.911832 
L 154.451429 172.875516 
L 155.846299 174.286108 
L 157.241169 174.596123 
L 158.636039 176.144014 
L 160.030909 179.906682 
L 161.425779 181.440637 
L 162.820649 178.939154 
L 164.215519 175.439374 
L 165.61039 172.477942 
L 168.40013 165.680185 
L 169.795 163.450966 
L 171.18987 164.733315 
L 172.58474 168.500676 
L 173.97961 174.959631 
L 176.769351 189.560948 
L 178.164221 195.397054 
L 179.559091 198.229069 
L 180.953961 199.311059 
L 182.348831 199.434267 
L 183.743701 199.430509 
L 185.138571 200.465936 
L 186.533442 201.275645 
L 187.928312 202.302002 
L 189.323182 201.96706 
L 190.718052 199.653457 
L 192.112922 195.040611 
L 193.507792 189.428847 
L 194.902662 182.942497 
L 196.297532 180.567527 
L 197.692403 183.029431 
L 199.087273 187.072126 
L 200.482143 188.447527 
L 201.877013 187.174782 
L 203.271883 185.631217 
L 204.666753 186.960083 
L 206.061623 189.231524 
L 208.851364 190.536835 
L 211.641104 195.789222 
L 214.430844 199.535231 
L 215.825714 202.625267 
L 217.220584 203.586312 
L 218.615455 202.407286 
L 221.405195 197.338894 
L 222.800065 195.318843 
L 224.194935 195.432929 
L 225.589805 197.852824 
L 226.984675 198.792861 
L 228.379545 196.60368 
L 229.774416 192.864363 
L 231.169286 191.52375 
L 232.564156 189.855501 
L 233.959026 187.15854 
L 235.353896 186.280014 
L 236.748766 189.314751 
L 238.143636 193.632434 
L 239.538506 197.026376 
L 240.933377 201.619317 
L 242.328247 206.914171 
L 243.723117 209.458174 
L 245.117987 209.200935 
L 246.512857 206.57504 
L 247.907727 201.087381 
L 250.697468 184.262819 
L 252.092338 178.832204 
L 253.487208 177.861075 
L 254.882078 180.352033 
L 256.276948 185.824391 
L 257.671818 192.677507 
L 259.066688 197.442212 
L 260.461558 197.427375 
L 261.856429 195.001798 
L 263.251299 194.143394 
L 264.646169 194.245959 
L 266.041039 194.182013 
L 267.435909 195.512098 
L 267.435909 195.512098 
" clip-path="url(#p9da3e420db)" style="fill: none; stroke: #4361ee; stroke-width: 1.5; stroke-linecap: square"/>
   </g>
   <g id="line2d_23">
    <path d="M 72.154091 212.016931 
L 73.548961 206.88828 
L 74.943831 204.335804 
L 76.338701 206.60814 
L 77.733571 205.10335 
L 79.128442 208.612597 
L 80.523312 199.359031 
L 81.918182 194.760429 
L 83.313052 199.643085 
L 84.707922 208.458 
L 86.102792 212.538879 
L 87.497662 206.628162 
L 88.892532 189.768106 
L 90.287403 188.451143 
L 91.682273 196.040625 
L 93.077143 205.349195 
L 94.472013 209.612369 
L 95.866883 210.818682 
L 97.261753 217.432698 
L 98.656623 231.362699 
L 100.051494 235.759607 
L 101.446364 219.1057 
L 102.841234 183.494804 
L 104.236104 161.492633 
L 105.630974 150.107084 
L 107.025844 150.666079 
L 108.420714 156.939322 
L 109.815584 162.273606 
L 111.210455 158.072791 
L 112.605325 151.616859 
L 114.000195 150.232221 
L 115.395065 147.40624 
L 116.789935 136.985062 
L 118.184805 114.666181 
L 119.579675 96.304474 
L 120.974545 85.202839 
L 122.369416 79.348125 
L 123.764286 75.947623 
L 125.159156 71.066138 
L 126.554026 65.574672 
L 127.948896 62.486782 
L 129.343766 62.956029 
L 130.738636 68.206366 
L 132.133506 77.846747 
L 133.528377 90.9696 
L 134.923247 105.744711 
L 136.318117 117.532989 
L 137.712987 123.611836 
L 139.107857 126.540298 
L 140.502727 128.69058 
L 141.897597 131.233427 
L 143.292468 136.175841 
L 144.687338 143.075554 
L 146.082208 148.906698 
L 148.871948 165.936573 
L 150.266818 169.282173 
L 151.661688 170.053963 
L 154.451429 174.651009 
L 155.846299 175.913343 
L 157.241169 175.957015 
L 158.636039 177.238186 
L 160.030909 180.934424 
L 161.425779 182.648122 
L 162.820649 180.483661 
L 164.215519 177.362688 
L 165.61039 174.774531 
L 167.00526 171.459709 
L 168.40013 167.726126 
L 169.795 164.995927 
L 171.18987 165.888014 
L 172.58474 169.365052 
L 173.97961 175.638686 
L 176.769351 190.167992 
L 178.164221 195.873537 
L 179.559091 198.456288 
L 180.953961 199.278825 
L 183.743701 199.206261 
L 187.928312 202.77573 
L 189.323182 202.528264 
L 190.718052 200.186974 
L 192.112922 195.404106 
L 193.507792 189.494589 
L 194.902662 182.62944 
L 196.297532 179.896587 
L 197.692403 181.995076 
L 199.087273 185.689715 
L 200.482143 186.832228 
L 201.877013 185.501694 
L 203.271883 183.999559 
L 204.666753 185.371023 
L 206.061623 187.599791 
L 208.851364 188.651499 
L 211.641104 193.774155 
L 214.430844 197.46679 
L 215.825714 200.491074 
L 217.220584 201.353421 
L 218.615455 200.146144 
L 221.405195 195.433635 
L 222.800065 193.570857 
L 224.194935 193.771504 
L 225.589805 196.208566 
L 226.984675 197.037874 
L 228.379545 194.649329 
L 229.774416 190.746376 
L 231.169286 189.338428 
L 232.564156 187.691823 
L 233.959026 185.135054 
L 235.353896 184.396052 
L 236.748766 187.56182 
L 238.143636 191.863702 
L 239.538506 195.147484 
L 240.933377 199.654402 
L 242.328247 204.909652 
L 243.723117 207.437522 
L 245.117987 207.245604 
L 246.512857 204.74662 
L 247.907727 199.385811 
L 250.697468 182.491049 
L 252.092338 176.929453 
L 253.487208 175.825766 
L 254.882078 178.228447 
L 256.276948 183.666506 
L 257.671818 190.539446 
L 259.066688 195.37147 
L 260.461558 195.363276 
L 261.856429 192.865657 
L 263.251299 191.931248 
L 266.041039 192.089659 
L 267.435909 193.445919 
L 267.435909 193.445919 
" clip-path="url(#p9da3e420db)" style="fill: none; stroke: #4361ee; stroke-width: 1.5; stroke-linecap: square"/>
   </g>
   <g id="line2d_24">
    <path d="M 72.154091 212.242675 
L 73.548961 207.423882 
L 74.943831 205.16278 
L 76.338701 207.45736 
L 77.733571 204.377833 
L 79.128442 207.72515 
L 80.523312 200.037773 
L 81.918182 196.786527 
L 83.313052 201.462647 
L 84.707922 209.524831 
L 86.102792 212.079021 
L 87.497662 204.847603 
L 88.892532 187.919482 
L 90.287403 187.679824 
L 91.682273 196.630926 
L 93.077143 206.684914 
L 94.472013 210.759991 
L 95.866883 211.132599 
L 97.261753 216.844669 
L 98.656623 230.648501 
L 100.051494 235.884434 
L 101.446364 219.631428 
L 102.841234 183.129276 
L 104.236104 160.406933 
L 105.630974 149.352483 
L 107.025844 150.55213 
L 109.815584 163.368477 
L 111.210455 159.270791 
L 112.605325 151.975591 
L 114.000195 149.531293 
L 115.395065 145.910535 
L 116.789935 134.3648 
L 118.184805 110.442476 
L 119.579675 91.147038 
L 120.974545 79.406128 
L 122.369416 73.314649 
L 123.764286 70.28069 
L 125.159156 66.056585 
L 126.554026 61.417126 
L 127.948896 59.116266 
L 129.343766 60.127856 
L 130.738636 65.615593 
L 132.133506 75.306248 
L 133.528377 88.453329 
L 134.923247 103.374528 
L 136.318117 115.410685 
L 137.712987 121.897131 
L 139.107857 125.175938 
L 141.897597 129.667294 
L 143.292468 134.380692 
L 144.687338 141.294247 
L 146.082208 147.366923 
L 148.871948 164.719589 
L 150.266818 168.003392 
L 151.661688 168.817378 
L 154.451429 173.941997 
L 155.846299 175.443048 
L 157.241169 175.744121 
L 158.636039 177.308801 
L 160.030909 181.109213 
L 161.425779 182.720628 
L 162.820649 180.433727 
L 164.215519 177.313832 
L 165.61039 174.635702 
L 168.40013 167.555216 
L 169.795 165.064619 
L 171.18987 166.200322 
L 172.58474 169.845131 
L 173.97961 176.224796 
L 176.769351 190.455933 
L 178.164221 195.86241 
L 179.559091 198.25758 
L 180.953961 199.010908 
L 183.743701 198.927801 
L 185.138571 200.160975 
L 186.533442 201.179755 
L 187.928312 202.339843 
L 189.323182 202.15961 
L 190.718052 200.007263 
L 192.112922 195.539203 
L 193.507792 189.954046 
L 194.902662 183.36314 
L 196.297532 180.703149 
L 197.692403 182.80795 
L 199.087273 186.52501 
L 200.482143 187.782198 
L 201.877013 186.520432 
L 203.271883 185.061801 
L 204.666753 186.422216 
L 206.061623 188.658994 
L 208.851364 189.930487 
L 211.641104 195.21609 
L 214.430844 199.277466 
L 215.825714 202.365856 
L 217.220584 203.244503 
L 218.615455 201.978188 
L 221.405195 196.847014 
L 222.800065 195.034404 
L 224.194935 195.556791 
L 225.589805 198.35491 
L 226.984675 199.518879 
L 228.379545 197.319206 
L 229.774416 193.286492 
L 232.564156 189.508151 
L 233.959026 186.892517 
L 235.353896 186.336888 
L 236.748766 189.729116 
L 238.143636 194.254399 
L 239.538506 197.721459 
L 240.933377 202.28819 
L 242.328247 207.416415 
L 243.723117 209.746044 
L 245.117987 209.279198 
L 246.512857 206.492226 
L 247.907727 200.925585 
L 250.697468 184.023565 
L 252.092338 178.600232 
L 253.487208 177.626594 
L 254.882078 180.091758 
L 256.276948 185.538333 
L 257.671818 192.389048 
L 259.066688 197.081401 
L 260.461558 196.945586 
L 261.856429 194.388791 
L 263.251299 193.484004 
L 266.041039 193.8393 
L 267.435909 195.338759 
L 267.435909 195.338759 
" clip-path="url(#p9da3e420db)" style="fill: none; stroke: #4cc9f0; stroke-width: 1.5; stroke-linecap: square"/>
   </g>
   <g id="line2d_25">
    <path d="M 72.154091 213.817453 
L 73.548961 208.81993 
L 74.943831 205.071495 
L 76.338701 206.264441 
L 77.733571 203.710283 
L 79.128442 208.504271 
L 80.523312 200.54791 
L 81.918182 196.695344 
L 83.313052 199.640972 
L 84.707922 206.962407 
L 86.102792 211.796866 
L 87.497662 206.084086 
L 88.892532 189.522567 
L 90.287403 188.378552 
L 91.682273 196.864269 
L 93.077143 206.854884 
L 94.472013 210.643838 
L 95.866883 210.609667 
L 97.261753 215.981603 
L 98.656623 229.388984 
L 100.051494 233.658135 
L 101.446364 215.436003 
L 102.841234 176.623194 
L 104.236104 152.116145 
L 105.630974 139.011181 
L 107.025844 137.770889 
L 108.420714 141.930976 
L 109.815584 146.461848 
L 111.210455 142.249044 
L 112.605325 136.06993 
L 114.000195 135.325664 
L 115.395065 133.681471 
L 116.789935 124.244219 
L 118.184805 102.244056 
L 119.579675 83.322383 
L 120.974545 71.20923 
L 122.369416 64.935116 
L 123.764286 61.846367 
L 125.159156 57.356972 
L 126.554026 52.136418 
L 127.948896 49.185042 
L 129.343766 49.771724 
L 130.738636 55.155699 
L 132.133506 64.991612 
L 133.528377 78.240704 
L 134.923247 92.875515 
L 136.318117 104.51982 
L 137.712987 110.766062 
L 139.107857 114.108194 
L 140.502727 116.587358 
L 141.897597 119.509913 
L 143.292468 124.776081 
L 144.687338 132.074023 
L 146.082208 138.465517 
L 148.871948 156.048254 
L 150.266818 159.367568 
L 151.661688 160.307579 
L 154.451429 165.675427 
L 155.846299 167.147486 
L 157.241169 167.4146 
L 158.636039 168.909849 
L 160.030909 172.655837 
L 161.425779 174.267472 
L 162.820649 172.030209 
L 164.215519 169.045394 
L 165.61039 166.510269 
L 167.00526 163.09006 
L 168.40013 159.294251 
L 169.795 156.747299 
L 171.18987 157.832244 
L 172.58474 161.589333 
L 173.97961 168.191906 
L 176.769351 182.975621 
L 178.164221 188.512243 
L 179.559091 190.894344 
L 180.953961 191.616116 
L 183.743701 191.403728 
L 185.138571 192.576222 
L 186.533442 193.571819 
L 187.928312 194.830717 
L 189.323182 194.797456 
L 190.718052 192.603671 
L 192.112922 188.064007 
L 193.507792 182.421455 
L 194.902662 175.818219 
L 196.297532 173.209767 
L 197.692403 175.484484 
L 199.087273 179.304939 
L 200.482143 180.566742 
L 203.271883 177.798252 
L 204.666753 179.276396 
L 206.061623 181.626537 
L 208.851364 183.05852 
L 213.035974 191.390868 
L 214.430844 193.570656 
L 215.825714 196.69293 
L 217.220584 197.415676 
L 218.615455 195.86193 
L 221.405195 190.218195 
L 222.800065 188.300109 
L 224.194935 188.808564 
L 225.589805 191.648096 
L 226.984675 192.961632 
L 228.379545 190.96462 
L 229.774416 187.085776 
L 232.564156 183.751454 
L 233.959026 181.180992 
L 235.353896 180.422617 
L 236.748766 183.501463 
L 238.143636 187.779314 
L 239.538506 191.216355 
L 240.933377 195.971722 
L 242.328247 201.388286 
L 243.723117 203.97663 
L 245.117987 203.603715 
L 246.512857 200.797901 
L 247.907727 195.207825 
L 250.697468 178.421965 
L 252.092338 173.151339 
L 253.487208 172.45092 
L 254.882078 175.182331 
L 256.276948 180.735336 
L 257.671818 187.549376 
L 259.066688 192.225879 
L 260.461558 192.011983 
L 261.856429 189.41709 
L 263.251299 188.483759 
L 264.646169 188.654858 
L 266.041039 188.713913 
L 267.435909 190.109121 
L 267.435909 190.109121 
" clip-path="url(#p9da3e420db)" style="fill: none; stroke: #4cc9f0; stroke-width: 1.5; stroke-linecap: square"/>
   </g>
   <g id="line2d_26">
    <path d="M 72.154091 211.699944 
L 73.548961 207.283845 
L 74.943831 205.371001 
L 76.338701 207.572382 
L 77.733571 204.579832 
L 79.128442 207.893857 
L 80.523312 200.191695 
L 81.918182 195.929641 
L 83.313052 200.922871 
L 84.707922 209.24228 
L 86.102792 212.004504 
L 87.497662 205.353134 
L 88.892532 188.282155 
L 90.287403 187.93256 
L 91.682273 196.336116 
L 93.077143 206.367337 
L 94.472013 210.607708 
L 95.866883 211.260363 
L 97.261753 217.32744 
L 98.656623 231.542323 
L 100.051494 236.937256 
L 101.446364 222.205805 
L 102.841234 187.88437 
L 104.236104 166.781134 
L 105.630974 156.613604 
L 107.025844 158.37628 
L 108.420714 165.17975 
L 109.815584 170.944025 
L 111.210455 166.161008 
L 112.605325 158.135855 
L 114.000195 155.01625 
L 115.395065 151.429459 
L 116.789935 140.27206 
L 118.184805 116.102371 
L 119.579675 96.030564 
L 120.974545 83.73974 
L 122.369416 77.588282 
L 123.764286 74.917674 
L 125.159156 71.100592 
L 126.554026 66.790095 
L 127.948896 64.663284 
L 129.343766 65.840985 
L 130.738636 71.551467 
L 132.133506 81.382074 
L 133.528377 94.398608 
L 134.923247 108.914877 
L 136.318117 120.462549 
L 137.712987 126.511553 
L 139.107857 129.544237 
L 140.502727 131.640594 
L 141.897597 133.983811 
L 143.292468 138.780673 
L 144.687338 145.788591 
L 146.082208 151.91423 
L 148.871948 169.171475 
L 150.266818 172.281135 
L 151.661688 172.855332 
L 153.056558 175.05156 
L 154.451429 177.508954 
L 155.846299 178.942686 
L 157.241169 179.288276 
L 158.636039 180.937809 
L 160.030909 184.818501 
L 161.425779 186.520877 
L 162.820649 184.279918 
L 164.215519 181.193713 
L 165.61039 178.569233 
L 167.00526 175.135594 
L 168.40013 171.347313 
L 169.795 168.710156 
L 171.18987 169.716621 
L 172.58474 173.275072 
L 173.97961 179.587474 
L 176.769351 193.905711 
L 178.164221 199.409151 
L 179.559091 201.875655 
L 180.953961 202.647153 
L 183.743701 202.496701 
L 185.138571 203.567516 
L 186.533442 204.43905 
L 187.928312 205.453841 
L 189.323182 205.144012 
L 190.718052 202.945813 
L 192.112922 198.506658 
L 193.507792 192.973792 
L 194.902662 186.398996 
L 196.297532 183.660034 
L 197.692403 185.655566 
L 199.087273 189.325416 
L 200.482143 190.513019 
L 201.877013 189.18139 
L 203.271883 187.651572 
L 204.666753 188.888354 
L 206.061623 190.911191 
L 208.851364 191.819438 
L 213.035974 199.013406 
L 214.430844 201.019186 
L 215.825714 204.157027 
L 217.220584 205.083184 
L 218.615455 203.894147 
L 221.405195 199.005408 
L 222.800065 197.313042 
L 224.194935 197.912883 
L 225.589805 200.694892 
L 226.984675 201.827685 
L 228.379545 199.631985 
L 229.774416 195.70147 
L 232.564156 192.279821 
L 233.959026 189.717537 
L 235.353896 189.087617 
L 236.748766 192.364061 
L 238.143636 196.825048 
L 239.538506 200.275602 
L 240.933377 204.860662 
L 242.328247 210.021398 
L 243.723117 212.33147 
L 245.117987 211.831549 
L 246.512857 209.053753 
L 247.907727 203.499032 
L 250.697468 186.623437 
L 252.092338 181.23796 
L 253.487208 180.252045 
L 254.882078 182.612654 
L 256.276948 187.836468 
L 257.671818 194.468074 
L 259.066688 199.029542 
L 260.461558 198.831082 
L 261.856429 196.26322 
L 263.251299 195.452196 
L 266.041039 196.159395 
L 267.435909 197.761537 
L 267.435909 197.761537 
" clip-path="url(#p9da3e420db)" style="fill: none; stroke: #f48c06; stroke-width: 1.5; stroke-linecap: square"/>
   </g>
   <g id="line2d_27">
    <path d="M 72.154091 211.555723 
L 73.548961 206.201667 
L 74.943831 203.859616 
L 76.338701 207.628491 
L 77.733571 206.142589 
L 79.128442 208.889908 
L 80.523312 199.742934 
L 81.918182 194.425684 
L 83.313052 200.972073 
L 84.707922 209.716186 
L 86.102792 213.246193 
L 87.497662 206.996953 
L 88.892532 189.552177 
L 90.287403 187.861609 
L 91.682273 195.955563 
L 93.077143 205.607594 
L 94.472013 209.903175 
L 95.866883 212.060282 
L 97.261753 219.405484 
L 98.656623 233.891344 
L 100.051494 239.421577 
L 101.446364 224.18581 
L 102.841234 190.318164 
L 104.236104 169.569935 
L 105.630974 158.272819 
L 107.025844 159.634941 
L 108.420714 166.391845 
L 109.815584 171.961805 
L 111.210455 167.212162 
L 112.605325 159.411656 
L 115.395065 154.159456 
L 116.789935 144.455208 
L 118.184805 121.970797 
L 119.579675 102.926667 
L 120.974545 91.2751 
L 122.369416 85.230136 
L 123.764286 82.156015 
L 125.159156 77.696528 
L 126.554026 72.825849 
L 127.948896 70.630398 
L 129.343766 72.217062 
L 130.738636 78.649613 
L 132.133506 89.211584 
L 133.528377 102.847525 
L 134.923247 117.910059 
L 136.318117 129.617951 
L 137.712987 135.032425 
L 139.107857 137.044597 
L 140.502727 138.386857 
L 141.897597 140.443618 
L 143.292468 145.195213 
L 144.687338 152.157492 
L 146.082208 158.223741 
L 148.871948 175.253052 
L 150.266818 178.229083 
L 151.661688 178.661981 
L 153.056558 180.810509 
L 154.451429 183.330614 
L 155.846299 184.889427 
L 157.241169 185.12406 
L 158.636039 186.37596 
L 160.030909 189.919674 
L 161.425779 191.430101 
L 162.820649 189.190636 
L 164.215519 186.248922 
L 165.61039 183.92005 
L 167.00526 180.775234 
L 168.40013 177.003516 
L 169.795 174.041295 
L 171.18987 174.530511 
L 172.58474 177.4762 
L 173.97961 183.278504 
L 176.769351 197.793496 
L 178.164221 203.778185 
L 179.559091 206.612996 
L 180.953961 207.554046 
L 183.743701 207.549965 
L 187.928312 211.015594 
L 189.323182 210.660441 
L 190.718052 208.319864 
L 192.112922 203.692269 
L 193.507792 197.864398 
L 194.902662 190.856845 
L 196.297532 187.735866 
L 197.692403 189.307688 
L 199.087273 192.580877 
L 200.482143 193.4473 
L 203.271883 190.619687 
L 204.666753 192.070488 
L 206.061623 194.15532 
L 208.851364 194.783096 
L 210.246234 197.027847 
L 211.641104 199.50289 
L 214.430844 203.20455 
L 215.825714 206.387625 
L 217.220584 207.335297 
L 218.615455 206.083523 
L 221.405195 201.395627 
L 222.800065 199.772631 
L 224.194935 200.294618 
L 225.589805 202.99777 
L 226.984675 204.07719 
L 228.379545 201.940734 
L 229.774416 198.255406 
L 231.169286 196.96449 
L 232.564156 195.437264 
L 233.959026 192.96518 
L 235.353896 192.147065 
L 236.748766 195.05467 
L 238.143636 199.013631 
L 239.538506 202.104116 
L 240.933377 206.671133 
L 242.328247 212.110165 
L 243.723117 214.865789 
L 245.117987 214.901517 
L 246.512857 212.544093 
L 247.907727 207.185447 
L 250.697468 190.179484 
L 252.092338 184.699657 
L 253.487208 183.515327 
L 254.882078 185.576043 
L 256.276948 190.648163 
L 257.671818 197.467792 
L 259.066688 202.313094 
L 260.461558 202.32998 
L 261.856429 199.865792 
L 263.251299 199.034623 
L 264.646169 199.176148 
L 266.041039 199.18037 
L 267.435909 200.511969 
L 267.435909 200.511969 
" clip-path="url(#p9da3e420db)" style="fill: none; stroke: #ffba08; stroke-width: 1.5; stroke-linecap: square"/>
   </g>
   <g id="line2d_28">
    <path d="M 72.154091 213.27455 
L 73.548961 208.025178 
L 74.943831 205.400803 
L 76.338701 208.492501 
L 77.733571 206.042441 
L 79.128442 208.826408 
L 80.523312 199.778109 
L 81.918182 194.742861 
L 83.313052 200.833699 
L 84.707922 210.176555 
L 86.102792 213.26546 
L 87.497662 206.462429 
L 88.892532 189.726219 
L 90.287403 188.867705 
L 91.682273 196.834887 
L 93.077143 206.665174 
L 94.472013 210.726576 
L 95.866883 211.283207 
L 97.261753 216.98424 
L 98.656623 230.830786 
L 100.051494 236.759251 
L 101.446364 222.765622 
L 102.841234 189.278761 
L 104.236104 168.158681 
L 105.630974 157.574925 
L 107.025844 158.950078 
L 109.815584 171.093809 
L 111.210455 167.008251 
L 112.605325 159.602478 
L 114.000195 157.03805 
L 115.395065 154.008299 
L 116.789935 143.449419 
L 118.184805 119.447278 
L 119.579675 99.071266 
L 120.974545 86.468601 
L 122.369416 79.796014 
L 123.764286 76.421808 
L 126.554026 67.320034 
L 127.948896 65.144721 
L 129.343766 66.473422 
L 130.738636 72.441911 
L 132.133506 82.565541 
L 133.528377 95.954945 
L 134.923247 110.893885 
L 136.318117 122.727259 
L 137.712987 128.827787 
L 139.107857 131.823708 
L 140.502727 133.931103 
L 141.897597 136.40403 
L 143.292468 141.422713 
L 144.687338 148.62164 
L 146.082208 154.874888 
L 148.871948 172.328164 
L 150.266818 175.519058 
L 151.661688 176.191323 
L 153.056558 178.456813 
L 154.451429 180.976115 
L 155.846299 182.451265 
L 157.241169 182.774512 
L 158.636039 184.28605 
L 160.030909 188.026066 
L 161.425779 189.612389 
L 162.820649 187.354488 
L 164.215519 184.336401 
L 165.61039 181.832847 
L 167.00526 178.479713 
L 168.40013 174.65204 
L 169.795 171.818098 
L 171.18987 172.636869 
L 172.58474 175.962249 
L 173.97961 182.004999 
L 176.769351 196.205215 
L 178.164221 201.802639 
L 179.559091 204.392733 
L 180.953961 205.331421 
L 183.743701 205.416848 
L 185.138571 206.474638 
L 186.533442 207.384665 
L 187.928312 208.47646 
L 189.323182 208.126591 
L 190.718052 205.835791 
L 192.112922 201.284288 
L 193.507792 195.669538 
L 194.902662 188.980743 
L 196.297532 186.156574 
L 197.692403 188.040562 
L 199.087273 191.601495 
L 200.482143 192.647167 
L 203.271883 189.666238 
L 204.666753 190.967444 
L 206.061623 193.015454 
L 208.851364 193.78757 
L 210.246234 196.210328 
L 211.641104 198.871367 
L 214.430844 202.804442 
L 215.825714 205.905799 
L 217.220584 206.71706 
L 218.615455 205.40609 
L 221.405195 200.608023 
L 222.800065 199.017979 
L 224.194935 199.606939 
L 225.589805 202.270742 
L 226.984675 203.274849 
L 228.379545 201.106264 
L 229.774416 197.371739 
L 231.169286 195.997062 
L 232.564156 194.441986 
L 233.959026 192.062745 
L 235.353896 191.526058 
L 236.748766 194.752662 
L 238.143636 199.014796 
L 239.538506 202.204263 
L 240.933377 206.629311 
L 242.328247 211.72623 
L 243.723117 214.063297 
L 245.117987 213.680673 
L 246.512857 211.060215 
L 247.907727 205.570987 
L 250.697468 188.553958 
L 252.092338 183.120667 
L 253.487208 182.131913 
L 254.882078 184.527349 
L 256.276948 189.893808 
L 257.671818 196.721576 
L 259.066688 201.400289 
L 260.461558 201.206804 
L 261.856429 198.577652 
L 263.251299 197.719419 
L 266.041039 198.231522 
L 267.435909 199.707424 
L 267.435909 199.707424 
" clip-path="url(#p9da3e420db)" style="fill: none; stroke: #ffba08; stroke-width: 1.5; stroke-linecap: square"/>
   </g>
   <g id="line2d_29">
    <path d="M 72.154091 212.852017 
L 73.548961 207.549336 
L 74.943831 205.095904 
L 76.338701 207.809258 
L 77.733571 205.239492 
L 79.128442 207.606182 
L 80.523312 199.344066 
L 81.918182 195.220924 
L 83.313052 201.519663 
L 84.707922 209.737851 
L 86.102792 212.607456 
L 87.497662 206.070433 
L 88.892532 189.218358 
L 90.287403 188.988761 
L 91.682273 197.336875 
L 93.077143 207.026377 
L 94.472013 210.95385 
L 95.866883 211.617854 
L 97.261753 217.556981 
L 98.656623 231.491753 
L 100.051494 237.469244 
L 101.446364 223.345952 
L 102.841234 190.085016 
L 104.236104 169.263412 
L 105.630974 158.962484 
L 107.025844 160.550919 
L 108.420714 167.226343 
L 109.815584 173.032689 
L 111.210455 168.369125 
L 112.605325 160.105956 
L 115.395065 153.105509 
L 116.789935 142.353651 
L 118.184805 118.344022 
L 119.579675 98.080898 
L 120.974545 85.637488 
L 122.369416 79.146576 
L 123.764286 76.036472 
L 126.554026 67.794321 
L 127.948896 66.007372 
L 129.343766 67.682495 
L 130.738636 73.947075 
L 132.133506 84.195002 
L 133.528377 97.564333 
L 134.923247 112.398008 
L 136.318117 124.17195 
L 137.712987 130.163748 
L 139.107857 133.025239 
L 140.502727 135.070129 
L 141.897597 137.556642 
L 143.292468 142.524314 
L 144.687338 149.604632 
L 146.082208 155.687919 
L 148.871948 172.849136 
L 150.266818 175.986174 
L 151.661688 176.660783 
L 153.056558 178.969438 
L 154.451429 181.531862 
L 155.846299 182.978885 
L 157.241169 183.194636 
L 158.636039 184.614296 
L 160.030909 188.397518 
L 161.425779 190.248066 
L 162.820649 188.332857 
L 164.215519 185.500022 
L 165.61039 183.014931 
L 167.00526 179.539093 
L 168.40013 175.514226 
L 169.795 172.510144 
L 171.18987 173.190972 
L 172.58474 176.44747 
L 173.97961 182.509817 
L 176.769351 196.858047 
L 178.164221 202.575662 
L 179.559091 205.233754 
L 180.953961 206.14324 
L 183.743701 206.190032 
L 185.138571 207.315182 
L 187.928312 209.351862 
L 189.323182 208.880925 
L 190.718052 206.475279 
L 192.112922 201.791564 
L 193.507792 195.994009 
L 194.902662 189.116667 
L 196.297532 186.225308 
L 197.692403 188.129861 
L 199.087273 191.765539 
L 200.482143 192.911541 
L 201.877013 191.594457 
L 203.271883 190.114399 
L 204.666753 191.483589 
L 206.061623 193.55106 
L 208.851364 194.144563 
L 210.246234 196.432203 
L 211.641104 198.995744 
L 214.430844 202.784181 
L 215.825714 205.900673 
L 217.220584 206.761475 
L 218.615455 205.456367 
L 220.010325 202.942607 
L 221.405195 200.670356 
L 222.800065 199.112255 
L 224.194935 199.731958 
L 225.589805 202.468257 
L 226.984675 203.511206 
L 228.379545 201.263718 
L 229.774416 197.423698 
L 232.564156 194.245619 
L 233.959026 191.843922 
L 235.353896 191.31443 
L 236.748766 194.545374 
L 238.143636 198.803423 
L 239.538506 202.005505 
L 240.933377 206.490892 
L 242.328247 211.694903 
L 243.723117 214.135579 
L 245.117987 213.833149 
L 246.512857 211.274489 
L 247.907727 205.791598 
L 250.697468 188.648599 
L 252.092338 183.18021 
L 253.487208 182.164798 
L 254.882078 184.507623 
L 256.276948 189.818916 
L 257.671818 196.618346 
L 259.066688 201.333726 
L 260.461558 201.189815 
L 261.856429 198.588498 
L 263.251299 197.728597 
L 266.041039 198.266051 
L 267.435909 199.78674 
L 267.435909 199.78674 
" clip-path="url(#p9da3e420db)" style="fill: none; stroke: #ffba08; stroke-width: 1.5; stroke-linecap: square"/>
   </g>
   <g id="line2d_30">
    <path d="M 72.154091 213.035264 
L 73.548961 208.17713 
L 74.943831 204.306028 
L 76.338701 204.749883 
L 77.733571 201.824029 
L 79.128442 208.406834 
L 80.523312 202.457908 
L 81.918182 199.095215 
L 83.313052 201.330328 
L 84.707922 207.339506 
L 86.102792 209.974527 
L 87.497662 203.014106 
L 88.892532 185.908371 
L 90.287403 184.990738 
L 91.682273 193.962938 
L 93.077143 204.163593 
L 94.472013 208.333426 
L 95.866883 209.163328 
L 97.261753 215.659818 
L 98.656623 230.05272 
L 100.051494 234.812262 
L 101.446364 215.628912 
L 102.841234 173.777393 
L 104.236104 145.080255 
L 105.630974 129.217709 
L 107.025844 126.186906 
L 108.420714 129.680552 
L 109.815584 134.725286 
L 111.210455 131.619014 
L 112.605325 126.067245 
L 114.000195 125.136111 
L 115.395065 122.994882 
L 116.789935 112.705912 
L 118.184805 89.339758 
L 119.579675 69.420724 
L 120.974545 56.536673 
L 122.369416 49.816911 
L 123.764286 47.12617 
L 125.159156 43.884854 
L 126.554026 40.120941 
L 127.948896 38.15271 
L 129.343766 39.160764 
L 130.738636 44.695654 
L 132.133506 54.706791 
L 133.528377 68.060501 
L 134.923247 82.687816 
L 136.318117 94.456729 
L 137.712987 101.353273 
L 139.107857 105.575737 
L 141.897597 112.000967 
L 143.292468 117.462221 
L 144.687338 124.921414 
L 146.082208 131.518686 
L 148.871948 149.811289 
L 150.266818 153.429712 
L 151.661688 154.664958 
L 154.451429 160.356222 
L 155.846299 161.919497 
L 157.241169 162.282022 
L 158.636039 163.949394 
L 160.030909 167.77063 
L 161.425779 169.346802 
L 162.820649 167.194605 
L 164.215519 164.330897 
L 165.61039 161.832539 
L 168.40013 154.900769 
L 169.795 152.654318 
L 171.18987 154.024473 
L 172.58474 158.008617 
L 173.97961 164.828706 
L 176.769351 179.717598 
L 178.164221 185.104444 
L 179.559091 187.338706 
L 180.953961 187.868375 
L 183.743701 187.215489 
L 185.138571 188.175135 
L 186.533442 188.813089 
L 187.928312 189.858644 
L 189.323182 189.824862 
L 190.718052 187.711934 
L 192.112922 183.31921 
L 193.507792 177.905859 
L 194.902662 171.685813 
L 196.297532 169.339833 
L 197.692403 171.696237 
L 199.087273 175.617292 
L 200.482143 177.185608 
L 201.877013 176.070399 
L 203.271883 174.597297 
L 204.666753 175.983366 
L 206.061623 178.323852 
L 208.851364 179.811842 
L 213.035974 188.579865 
L 214.430844 190.884978 
L 215.825714 194.059432 
L 217.220584 194.775751 
L 218.615455 193.199218 
L 221.405195 187.310758 
L 222.800065 185.330886 
L 224.194935 185.870415 
L 225.589805 188.875165 
L 226.984675 190.399469 
L 228.379545 188.600461 
L 229.774416 184.898623 
L 231.169286 183.426167 
L 232.564156 181.656931 
L 233.959026 178.882211 
L 235.353896 178.07611 
L 236.748766 181.314336 
L 238.143636 185.951955 
L 239.538506 189.77586 
L 240.933377 194.712811 
L 242.328247 200.121962 
L 243.723117 202.683543 
L 245.117987 202.247524 
L 246.512857 199.377882 
L 247.907727 193.787082 
L 250.697468 177.068363 
L 252.092338 171.760705 
L 253.487208 171.063483 
L 254.882078 173.822068 
L 256.276948 179.398469 
L 257.671818 186.166751 
L 259.066688 190.754035 
L 260.461558 190.641256 
L 261.856429 188.232562 
L 263.251299 187.461286 
L 266.041039 188.057094 
L 267.435909 189.572242 
L 267.435909 189.572242 
" clip-path="url(#p9da3e420db)" style="fill: none; stroke-dasharray: 5.55,2.4; stroke-dashoffset: 0; stroke: #000000; stroke-width: 1.5"/>
   </g>
   <g id="patch_3">
    <path d="M 62.39 246.04 
L 62.39 14.76 
" style="fill: none; stroke: #000000; stroke-width: 0.8; stroke-linejoin: miter; stroke-linecap: square"/>
   </g>
   <g id="patch_4">
    <path d="M 62.39 246.04 
L 277.2 246.04 
" style="fill: none; stroke: #000000; stroke-width: 0.8; stroke-linejoin: miter; stroke-linecap: square"/>
   </g>
  </g>
 </g>
 <defs>
  <clipPath id="p9da3e420db">
   <rect x="62.39" y="14.76" width="214.81" height="231.28"/>
  </clipPath>
 </defs>
</svg>
