<?xml version="1.0" encoding="utf-8" standalone="no"?>
<!DOCTYPE svg PUBLIC "-//W3C//DTD SVG 1.1//EN"
  "http://www.w3.org/Graphics/SVG/1.1/DTD/svg11.dtd">
<svg xmlns:xlink="http://www.w3.org/1999/xlink" width="360pt" height="360pt" viewBox="0 0 360 360" xmlns="http://www.w3.org/2000/svg" version="1.1">
 <metadata>
  <rdf:RDF xmlns:dc="http://purl.org/dc/elements/1.1/" xmlns:cc="http://creativecommons.org/ns#" xmlns:rdf="http://www.w3.org/1999/02/22-rdf-syntax-ns#">
   <cc:Work>
    <dc:type rdf:resource="http://purl.org/dc/dcmitype/StillImage"/>
    <dc:date>2025-12-03T11:15:35.928888</dc:date>
    <dc:format>image/svg+xml</dc:format>
    <dc:creator>
     <cc:Agent>
      <dc:title>Matplotlib v3.6.2, https://matplotlib.org/</dc:title>
     </cc:Agent>
    </dc:creator>
   </cc:Work>
  </rdf:RDF>
 </metadata>
 <defs>
  <style type="text/css">*{stroke-linejoin: round; stroke-linecap: butt}</style>
 </defs>
 <g id="figure_1">
  <g id="patch_1">
   <path d="M 0 360 
L 360 360 
L 360 0 
L 0 0 
L 0 360 
z
" style="fill: none"/>
  </g>
  <g id="axes_1">
   <g id="patch_2">
    <path d="M 54.02 318.04 
L 349.2 318.04 
L 349.2 14.76 
L 54.02 14.76 
L 54.02 318.04 
z
" style="fill: none"/>
   </g>
   <g id="PolyCollection_1">
    <defs>
     <path id="m4b9202a53f" d="M 67.437273 -215.062911 
L 67.437273 -166.568065 
L 156.885758 -186.098021 
L 246.334242 -190.844048 
L 335.782727 -220.227855 
L 335.782727 -240.480981 
L 335.782727 -240.480981 
L 246.334242 -223.196128 
L 156.885758 -196.504966 
L 67.437273 -215.062911 
z
" style="stroke: #7209b7; stroke-opacity: 0.2"/>
    </defs>
    <g clip-path="url(#p29882638d3)">
     <use xlink:href="#m4b9202a53f" x="0" y="360" style="fill: #7209b7; fill-opacity: 0.2; stroke: #7209b7; stroke-opacity: 0.2"/>
    </g>
   </g>
   <g id="PolyCollection_2">
    <defs>
     <path id="mcd8ca5cda3" d="M 67.437273 -227.691648 
L 67.437273 -227.691648 
L 134.523636 -263.656657 
L 201.61 -211.367273 
L 268.696364 -207.97092 
L 335.782727 -190.958615 
L 335.782727 -190.958615 
L 335.782727 -190.958615 
L 268.696364 -207.97092 
L 201.61 -211.367273 
L 134.523636 -263.656657 
L 67.437273 -227.691648 
z
" style="stroke: #480ca8; stroke-opacity: 0.2"/>
    </defs>
    <g clip-path="url(#p29882638d3)">
     <use xlink:href="#mcd8ca5cda3" x="0" y="360" style="fill: #480ca8; fill-opacity: 0.2; stroke: #480ca8; stroke-opacity: 0.2"/>
    </g>
   </g>
   <g id="PolyCollection_3">
    <defs>
     <path id="m184947fc5d" d="M 67.437273 -226.377197 
L 67.437273 -226.377197 
L 134.523636 -247.930272 
L 201.61 -238.466016 
L 268.696364 -264.659041 
L 335.782727 -181.329593 
L 335.782727 -181.329593 
L 335.782727 -181.329593 
L 268.696364 -264.659041 
L 201.61 -238.466016 
L 134.523636 -247.930272 
L 67.437273 -226.377197 
z
" style="stroke: #3f37c9; stroke-opacity: 0.2"/>
    </defs>
    <g clip-path="url(#p29882638d3)">
     <use xlink:href="#m184947fc5d" x="0" y="360" style="fill: #3f37c9; fill-opacity: 0.2; stroke: #3f37c9; stroke-opacity: 0.2"/>
    </g>
   </g>
   <g id="PolyCollection_4">
    <defs>
     <path id="md508d68259" d="M 67.437273 -222.386338 
L 67.437273 -217.50335 
L 156.885758 -181.346111 
L 246.334242 -184.083457 
L 335.782727 -203.63649 
L 335.782727 -234.236622 
L 335.782727 -234.236622 
L 246.334242 -208.602147 
L 156.885758 -220.181898 
L 67.437273 -222.386338 
z
" style="stroke: #4361ee; stroke-opacity: 0.2"/>
    </defs>
    <g clip-path="url(#p29882638d3)">
     <use xlink:href="#md508d68259" x="0" y="360" style="fill: #4361ee; fill-opacity: 0.2; stroke: #4361ee; stroke-opacity: 0.2"/>
    </g>
   </g>
   <g id="PolyCollection_5">
    <defs>
     <path id="m07b3bec4e1" d="M 67.437273 -230.122706 
L 67.437273 -204.450336 
L 97.253434 -118.162726 
L 127.069596 -248.849725 
L 156.885758 -174.764706 
L 186.701919 -146.289513 
L 216.518081 -114.444974 
L 246.334242 -195.512498 
L 276.150404 -273.129896 
L 305.966566 -178.953031 
L 335.782727 -228.711888 
L 335.782727 -284.489272 
L 335.782727 -284.489272 
L 305.966566 -214.260603 
L 276.150404 -274.856158 
L 246.334242 -278.793157 
L 216.518081 -153.155163 
L 186.701919 -190.066834 
L 156.885758 -213.542 
L 127.069596 -268.667898 
L 97.253434 -174.82381 
L 67.437273 -230.122706 
z
" style="stroke: #4cc9f0; stroke-opacity: 0.2"/>
    </defs>
    <g clip-path="url(#p29882638d3)">
     <use xlink:href="#m07b3bec4e1" x="0" y="360" style="fill: #4cc9f0; fill-opacity: 0.2; stroke: #4cc9f0; stroke-opacity: 0.2"/>
    </g>
   </g>
   <g id="PolyCollection_6">
    <defs>
     <path id="mb7bb6a4877" d="M 67.437273 -291.431143 
L 67.437273 -291.431143 
L 91.832314 -238.128874 
L 116.227355 -183.878814 
L 140.622397 -284.043457 
L 165.017438 -265.216392 
L 189.412479 -270.790507 
L 213.807521 -256.456858 
L 238.202562 -290.576629 
L 262.597603 -269.19224 
L 286.992645 -286.008724 
L 311.387686 -194.738935 
L 335.782727 -267.438164 
L 335.782727 -267.438164 
L 335.782727 -267.438164 
L 311.387686 -194.738935 
L 286.992645 -286.008724 
L 262.597603 -269.19224 
L 238.202562 -290.576629 
L 213.807521 -256.456858 
L 189.412479 -270.790507 
L 165.017438 -265.216392 
L 140.622397 -284.043457 
L 116.227355 -183.878814 
L 91.832314 -238.128874 
L 67.437273 -291.431143 
z
" style="stroke: #f48c06; stroke-opacity: 0.2"/>
    </defs>
    <g clip-path="url(#p29882638d3)">
     <use xlink:href="#mb7bb6a4877" x="0" y="360" style="fill: #f48c06; fill-opacity: 0.2; stroke: #f48c06; stroke-opacity: 0.2"/>
    </g>
   </g>
   <g id="PolyCollection_7">
    <defs>
     <path id="m74a5774650" d="M 67.437273 -241.665328 
L 67.437273 -228.124905 
L 91.832314 -218.078959 
L 116.227355 -251.734842 
L 140.622397 -224.337868 
L 165.017438 -247.011815 
L 189.412479 -202.650503 
L 213.807521 -279.759108 
L 238.202562 -206.375036 
L 262.597603 -217.39107 
L 286.992645 -249.414932 
L 311.387686 -242.72372 
L 335.782727 -238.047005 
L 335.782727 -260.517874 
L 335.782727 -260.517874 
L 311.387686 -286.122008 
L 286.992645 -261.401622 
L 262.597603 -246.239591 
L 238.202562 -216.273546 
L 213.807521 -297.479705 
L 189.412479 -223.512101 
L 165.017438 -279.41098 
L 140.622397 -229.550149 
L 116.227355 -284.098552 
L 91.832314 -233.916369 
L 67.437273 -241.665328 
z
" style="stroke: #ffba08; stroke-opacity: 0.2"/>
    </defs>
    <g clip-path="url(#p29882638d3)">
     <use xlink:href="#m74a5774650" x="0" y="360" style="fill: #ffba08; fill-opacity: 0.2; stroke: #ffba08; stroke-opacity: 0.2"/>
    </g>
   </g>
   <g id="matplotlib.axis_1">
    <g id="xtick_1">
     <g id="line2d_1">
      <defs>
       <path id="m291bd3819f" d="M 0 0 
L 0 3.5 
" style="stroke: #000000; stroke-width: 0.8"/>
      </defs>
      <g>
       <use xlink:href="#m291bd3819f" x="67.437273" y="318.04" style="stroke: #000000; stroke-width: 0.8"/>
      </g>
     </g>
     <g id="text_1">
      <!-- 0.0 -->
      <g transform="translate(59.48571 332.638438) scale(0.1 -0.1)">
       <defs>
        <path id="DejaVuSans-30" d="M 2034 4250 
Q 1547 4250 1301 3770 
Q 1056 3291 1056 2328 
Q 1056 1369 1301 889 
Q 1547 409 2034 409 
Q 2525 409 2770 889 
Q 3016 1369 3016 2328 
Q 3016 3291 2770 3770 
Q 2525 4250 2034 4250 
z
M 2034 4750 
Q 2819 4750 3233 4129 
Q 3647 3509 3647 2328 
Q 3647 1150 3233 529 
Q 2819 -91 2034 -91 
Q 1250 -91 836 529 
Q 422 1150 422 2328 
Q 422 3509 836 4129 
Q 1250 4750 2034 4750 
z
" transform="scale(0.015625)"/>
        <path id="DejaVuSans-2e" d="M 684 794 
L 1344 794 
L 1344 0 
L 684 0 
L 684 794 
z
" transform="scale(0.015625)"/>
       </defs>
       <use xlink:href="#DejaVuSans-30"/>
       <use xlink:href="#DejaVuSans-2e" x="63.623047"/>
       <use xlink:href="#DejaVuSans-30" x="95.410156"/>
      </g>
     </g>
    </g>
    <g id="xtick_2">
     <g id="line2d_2">
      <g>
       <use xlink:href="#m291bd3819f" x="121.106364" y="318.04" style="stroke: #000000; stroke-width: 0.8"/>
      </g>
     </g>
     <g id="text_2">
      <!-- 0.2 -->
      <g transform="translate(113.154801 332.638438) scale(0.1 -0.1)">
       <defs>
        <path id="DejaVuSans-32" d="M 1228 531 
L 3431 531 
L 3431 0 
L 469 0 
L 469 531 
Q 828 903 1448 1529 
Q 2069 2156 2228 2338 
Q 2531 2678 2651 2914 
Q 2772 3150 2772 3378 
Q 2772 3750 2511 3984 
Q 2250 4219 1831 4219 
Q 1534 4219 1204 4116 
Q 875 4013 500 3803 
L 500 4441 
Q 881 4594 1212 4672 
Q 1544 4750 1819 4750 
Q 2544 4750 2975 4387 
Q 3406 4025 3406 3419 
Q 3406 3131 3298 2873 
Q 3191 2616 2906 2266 
Q 2828 2175 2409 1742 
Q 1991 1309 1228 531 
z
" transform="scale(0.015625)"/>
       </defs>
       <use xlink:href="#DejaVuSans-30"/>
       <use xlink:href="#DejaVuSans-2e" x="63.623047"/>
       <use xlink:href="#DejaVuSans-32" x="95.410156"/>
      </g>
     </g>
    </g>
    <g id="xtick_3">
     <g id="line2d_3">
      <g>
       <use xlink:href="#m291bd3819f" x="174.775455" y="318.04" style="stroke: #000000; stroke-width: 0.8"/>
      </g>
     </g>
     <g id="text_3">
      <!-- 0.4 -->
      <g transform="translate(166.823892 332.638438) scale(0.1 -0.1)">
       <defs>
        <path id="DejaVuSans-34" d="M 2419 4116 
L 825 1625 
L 2419 1625 
L 2419 4116 
z
M 2253 4666 
L 3047 4666 
L 3047 1625 
L 3713 1625 
L 3713 1100 
L 3047 1100 
L 3047 0 
L 2419 0 
L 2419 1100 
L 313 1100 
L 313 1709 
L 2253 4666 
z
" transform="scale(0.015625)"/>
       </defs>
       <use xlink:href="#DejaVuSans-30"/>
       <use xlink:href="#DejaVuSans-2e" x="63.623047"/>
       <use xlink:href="#DejaVuSans-34" x="95.410156"/>
      </g>
     </g>
    </g>
    <g id="xtick_4">
     <g id="line2d_4">
      <g>
       <use xlink:href="#m291bd3819f" x="228.444545" y="318.04" style="stroke: #000000; stroke-width: 0.8"/>
      </g>
     </g>
     <g id="text_4">
      <!-- 0.6 -->
      <g transform="translate(220.492983 332.638438) scale(0.1 -0.1)">
       <defs>
        <path id="DejaVuSans-36" d="M 2113 2584 
Q 1688 2584 1439 2293 
Q 1191 2003 1191 1497 
Q 1191 994 1439 701 
Q 1688 409 2113 409 
Q 2538 409 2786 701 
Q 3034 994 3034 1497 
Q 3034 2003 2786 2293 
Q 2538 2584 2113 2584 
z
M 3366 4563 
L 3366 3988 
Q 3128 4100 2886 4159 
Q 2644 4219 2406 4219 
Q 1781 4219 1451 3797 
Q 1122 3375 1075 2522 
Q 1259 2794 1537 2939 
Q 1816 3084 2150 3084 
Q 2853 3084 3261 2657 
Q 3669 2231 3669 1497 
Q 3669 778 3244 343 
Q 2819 -91 2113 -91 
Q 1303 -91 875 529 
Q 447 1150 447 2328 
Q 447 3434 972 4092 
Q 1497 4750 2381 4750 
Q 2619 4750 2861 4703 
Q 3103 4656 3366 4563 
z
" transform="scale(0.015625)"/>
       </defs>
       <use xlink:href="#DejaVuSans-30"/>
       <use xlink:href="#DejaVuSans-2e" x="63.623047"/>
       <use xlink:href="#DejaVuSans-36" x="95.410156"/>
      </g>
     </g>
    </g>
    <g id="xtick_5">
     <g id="line2d_5">
      <g>
       <use xlink:href="#m291bd3819f" x="282.113636" y="318.04" style="stroke: #000000; stroke-width: 0.8"/>
      </g>
     </g>
     <g id="text_5">
      <!-- 0.8 -->
      <g transform="translate(274.162074 332.638438) scale(0.1 -0.1)">
       <defs>
        <path id="DejaVuSans-38" d="M 2034 2216 
Q 1584 2216 1326 1975 
Q 1069 1734 1069 1313 
Q 1069 891 1326 650 
Q 1584 409 2034 409 
Q 2484 409 2743 651 
Q 3003 894 3003 1313 
Q 3003 1734 2745 1975 
Q 2488 2216 2034 2216 
z
M 1403 2484 
Q 997 2584 770 2862 
Q 544 3141 544 3541 
Q 544 4100 942 4425 
Q 1341 4750 2034 4750 
Q 2731 4750 3128 4425 
Q 3525 4100 3525 3541 
Q 3525 3141 3298 2862 
Q 3072 2584 2669 2484 
Q 3125 2378 3379 2068 
Q 3634 1759 3634 1313 
Q 3634 634 3220 271 
Q 2806 -91 2034 -91 
Q 1263 -91 848 271 
Q 434 634 434 1313 
Q 434 1759 690 2068 
Q 947 2378 1403 2484 
z
M 1172 3481 
Q 1172 3119 1398 2916 
Q 1625 2713 2034 2713 
Q 2441 2713 2670 2916 
Q 2900 3119 2900 3481 
Q 2900 3844 2670 4047 
Q 2441 4250 2034 4250 
Q 1625 4250 1398 4047 
Q 1172 3844 1172 3481 
z
" transform="scale(0.015625)"/>
       </defs>
       <use xlink:href="#DejaVuSans-30"/>
       <use xlink:href="#DejaVuSans-2e" x="63.623047"/>
       <use xlink:href="#DejaVuSans-38" x="95.410156"/>
      </g>
     </g>
    </g>
    <g id="xtick_6">
     <g id="line2d_6">
      <g>
       <use xlink:href="#m291bd3819f" x="335.782727" y="318.04" style="stroke: #000000; stroke-width: 0.8"/>
      </g>
     </g>
     <g id="text_6">
      <!-- 1.0 -->
      <g transform="translate(327.831165 332.638438) scale(0.1 -0.1)">
       <defs>
        <path id="DejaVuSans-31" d="M 794 531 
L 1825 531 
L 1825 4091 
L 703 3866 
L 703 4441 
L 1819 4666 
L 2450 4666 
L 2450 531 
L 3481 531 
L 3481 0 
L 794 0 
L 794 531 
z
" transform="scale(0.015625)"/>
       </defs>
       <use xlink:href="#DejaVuSans-31"/>
       <use xlink:href="#DejaVuSans-2e" x="63.623047"/>
       <use xlink:href="#DejaVuSans-30" x="95.410156"/>
      </g>
     </g>
    </g>
    <g id="text_7">
     <!-- Normalized model depth -->
     <g transform="translate(139.952969 346.316563) scale(0.1 -0.1)">
      <defs>
       <path id="DejaVuSans-4e" d="M 628 4666 
L 1478 4666 
L 3547 763 
L 3547 4666 
L 4159 4666 
L 4159 0 
L 3309 0 
L 1241 3903 
L 1241 0 
L 628 0 
L 628 4666 
z
" transform="scale(0.015625)"/>
       <path id="DejaVuSans-6f" d="M 1959 3097 
Q 1497 3097 1228 2736 
Q 959 2375 959 1747 
Q 959 1119 1226 758 
Q 1494 397 1959 397 
Q 2419 397 2687 759 
Q 2956 1122 2956 1747 
Q 2956 2369 2687 2733 
Q 2419 3097 1959 3097 
z
M 1959 3584 
Q 2709 3584 3137 3096 
Q 3566 2609 3566 1747 
Q 3566 888 3137 398 
Q 2709 -91 1959 -91 
Q 1206 -91 779 398 
Q 353 888 353 1747 
Q 353 2609 779 3096 
Q 1206 3584 1959 3584 
z
" transform="scale(0.015625)"/>
       <path id="DejaVuSans-72" d="M 2631 2963 
Q 2534 3019 2420 3045 
Q 2306 3072 2169 3072 
Q 1681 3072 1420 2755 
Q 1159 2438 1159 1844 
L 1159 0 
L 581 0 
L 581 3500 
L 1159 3500 
L 1159 2956 
Q 1341 3275 1631 3429 
Q 1922 3584 2338 3584 
Q 2397 3584 2469 3576 
Q 2541 3569 2628 3553 
L 2631 2963 
z
" transform="scale(0.015625)"/>
       <path id="DejaVuSans-6d" d="M 3328 2828 
Q 3544 3216 3844 3400 
Q 4144 3584 4550 3584 
Q 5097 3584 5394 3201 
Q 5691 2819 5691 2113 
L 5691 0 
L 5113 0 
L 5113 2094 
Q 5113 2597 4934 2840 
Q 4756 3084 4391 3084 
Q 3944 3084 3684 2787 
Q 3425 2491 3425 1978 
L 3425 0 
L 2847 0 
L 2847 2094 
Q 2847 2600 2669 2842 
Q 2491 3084 2119 3084 
Q 1678 3084 1418 2786 
Q 1159 2488 1159 1978 
L 1159 0 
L 581 0 
L 581 3500 
L 1159 3500 
L 1159 2956 
Q 1356 3278 1631 3431 
Q 1906 3584 2284 3584 
Q 2666 3584 2933 3390 
Q 3200 3197 3328 2828 
z
" transform="scale(0.015625)"/>
       <path id="DejaVuSans-61" d="M 2194 1759 
Q 1497 1759 1228 1600 
Q 959 1441 959 1056 
Q 959 750 1161 570 
Q 1363 391 1709 391 
Q 2188 391 2477 730 
Q 2766 1069 2766 1631 
L 2766 1759 
L 2194 1759 
z
M 3341 1997 
L 3341 0 
L 2766 0 
L 2766 531 
Q 2569 213 2275 61 
Q 1981 -91 1556 -91 
Q 1019 -91 701 211 
Q 384 513 384 1019 
Q 384 1609 779 1909 
Q 1175 2209 1959 2209 
L 2766 2209 
L 2766 2266 
Q 2766 2663 2505 2880 
Q 2244 3097 1772 3097 
Q 1472 3097 1187 3025 
Q 903 2953 641 2809 
L 641 3341 
Q 956 3463 1253 3523 
Q 1550 3584 1831 3584 
Q 2591 3584 2966 3190 
Q 3341 2797 3341 1997 
z
" transform="scale(0.015625)"/>
       <path id="DejaVuSans-6c" d="M 603 4863 
L 1178 4863 
L 1178 0 
L 603 0 
L 603 4863 
z
" transform="scale(0.015625)"/>
       <path id="DejaVuSans-69" d="M 603 3500 
L 1178 3500 
L 1178 0 
L 603 0 
L 603 3500 
z
M 603 4863 
L 1178 4863 
L 1178 4134 
L 603 4134 
L 603 4863 
z
" transform="scale(0.015625)"/>
       <path id="DejaVuSans-7a" d="M 353 3500 
L 3084 3500 
L 3084 2975 
L 922 459 
L 3084 459 
L 3084 0 
L 275 0 
L 275 525 
L 2438 3041 
L 353 3041 
L 353 3500 
z
" transform="scale(0.015625)"/>
       <path id="DejaVuSans-65" d="M 3597 1894 
L 3597 1613 
L 953 1613 
Q 991 1019 1311 708 
Q 1631 397 2203 397 
Q 2534 397 2845 478 
Q 3156 559 3463 722 
L 3463 178 
Q 3153 47 2828 -22 
Q 2503 -91 2169 -91 
Q 1331 -91 842 396 
Q 353 884 353 1716 
Q 353 2575 817 3079 
Q 1281 3584 2069 3584 
Q 2775 3584 3186 3129 
Q 3597 2675 3597 1894 
z
M 3022 2063 
Q 3016 2534 2758 2815 
Q 2500 3097 2075 3097 
Q 1594 3097 1305 2825 
Q 1016 2553 972 2059 
L 3022 2063 
z
" transform="scale(0.015625)"/>
       <path id="DejaVuSans-64" d="M 2906 2969 
L 2906 4863 
L 3481 4863 
L 3481 0 
L 2906 0 
L 2906 525 
Q 2725 213 2448 61 
Q 2172 -91 1784 -91 
Q 1150 -91 751 415 
Q 353 922 353 1747 
Q 353 2572 751 3078 
Q 1150 3584 1784 3584 
Q 2172 3584 2448 3432 
Q 2725 3281 2906 2969 
z
M 947 1747 
Q 947 1113 1208 752 
Q 1469 391 1925 391 
Q 2381 391 2643 752 
Q 2906 1113 2906 1747 
Q 2906 2381 2643 2742 
Q 2381 3103 1925 3103 
Q 1469 3103 1208 2742 
Q 947 2381 947 1747 
z
" transform="scale(0.015625)"/>
       <path id="DejaVuSans-20" transform="scale(0.015625)"/>
       <path id="DejaVuSans-70" d="M 1159 525 
L 1159 -1331 
L 581 -1331 
L 581 3500 
L 1159 3500 
L 1159 2969 
Q 1341 3281 1617 3432 
Q 1894 3584 2278 3584 
Q 2916 3584 3314 3078 
Q 3713 2572 3713 1747 
Q 3713 922 3314 415 
Q 2916 -91 2278 -91 
Q 1894 -91 1617 61 
Q 1341 213 1159 525 
z
M 3116 1747 
Q 3116 2381 2855 2742 
Q 2594 3103 2138 3103 
Q 1681 3103 1420 2742 
Q 1159 2381 1159 1747 
Q 1159 1113 1420 752 
Q 1681 391 2138 391 
Q 2594 391 2855 752 
Q 3116 1113 3116 1747 
z
" transform="scale(0.015625)"/>
       <path id="DejaVuSans-74" d="M 1172 4494 
L 1172 3500 
L 2356 3500 
L 2356 3053 
L 1172 3053 
L 1172 1153 
Q 1172 725 1289 603 
Q 1406 481 1766 481 
L 2356 481 
L 2356 0 
L 1766 0 
Q 1100 0 847 248 
Q 594 497 594 1153 
L 594 3053 
L 172 3053 
L 172 3500 
L 594 3500 
L 594 4494 
L 1172 4494 
z
" transform="scale(0.015625)"/>
       <path id="DejaVuSans-68" d="M 3513 2113 
L 3513 0 
L 2938 0 
L 2938 2094 
Q 2938 2591 2744 2837 
Q 2550 3084 2163 3084 
Q 1697 3084 1428 2787 
Q 1159 2491 1159 1978 
L 1159 0 
L 581 0 
L 581 4863 
L 1159 4863 
L 1159 2956 
Q 1366 3272 1645 3428 
Q 1925 3584 2291 3584 
Q 2894 3584 3203 3211 
Q 3513 2838 3513 2113 
z
" transform="scale(0.015625)"/>
      </defs>
      <use xlink:href="#DejaVuSans-4e"/>
      <use xlink:href="#DejaVuSans-6f" x="74.804688"/>
      <use xlink:href="#DejaVuSans-72" x="135.986328"/>
      <use xlink:href="#DejaVuSans-6d" x="175.349609"/>
      <use xlink:href="#DejaVuSans-61" x="272.761719"/>
      <use xlink:href="#DejaVuSans-6c" x="334.041016"/>
      <use xlink:href="#DejaVuSans-69" x="361.824219"/>
      <use xlink:href="#DejaVuSans-7a" x="389.607422"/>
      <use xlink:href="#DejaVuSans-65" x="442.097656"/>
      <use xlink:href="#DejaVuSans-64" x="503.621094"/>
      <use xlink:href="#DejaVuSans-20" x="567.097656"/>
      <use xlink:href="#DejaVuSans-6d" x="598.884766"/>
      <use xlink:href="#DejaVuSans-6f" x="696.296875"/>
      <use xlink:href="#DejaVuSans-64" x="757.478516"/>
      <use xlink:href="#DejaVuSans-65" x="820.955078"/>
      <use xlink:href="#DejaVuSans-6c" x="882.478516"/>
      <use xlink:href="#DejaVuSans-20" x="910.261719"/>
      <use xlink:href="#DejaVuSans-64" x="942.048828"/>
      <use xlink:href="#DejaVuSans-65" x="1005.525391"/>
      <use xlink:href="#DejaVuSans-70" x="1067.048828"/>
      <use xlink:href="#DejaVuSans-74" x="1130.525391"/>
      <use xlink:href="#DejaVuSans-68" x="1169.734375"/>
     </g>
    </g>
   </g>
   <g id="matplotlib.axis_2">
    <g id="ytick_1">
     <g id="line2d_7">
      <defs>
       <path id="m1bdca46951" d="M 0 0 
L -3.5 0 
" style="stroke: #000000; stroke-width: 0.8"/>
      </defs>
      <g>
       <use xlink:href="#m1bdca46951" x="54.02" y="318.04" style="stroke: #000000; stroke-width: 0.8"/>
      </g>
     </g>
     <g id="text_8">
      <!-- 0.00 -->
      <g transform="translate(24.754375 321.839219) scale(0.1 -0.1)">
       <use xlink:href="#DejaVuSans-30"/>
       <use xlink:href="#DejaVuSans-2e" x="63.623047"/>
       <use xlink:href="#DejaVuSans-30" x="95.410156"/>
       <use xlink:href="#DejaVuSans-30" x="159.033203"/>
      </g>
     </g>
    </g>
    <g id="ytick_2">
     <g id="line2d_8">
      <g>
       <use xlink:href="#m1bdca46951" x="54.02" y="257.384" style="stroke: #000000; stroke-width: 0.8"/>
      </g>
     </g>
     <g id="text_9">
      <!-- 0.02 -->
      <g transform="translate(24.754375 261.183219) scale(0.1 -0.1)">
       <use xlink:href="#DejaVuSans-30"/>
       <use xlink:href="#DejaVuSans-2e" x="63.623047"/>
       <use xlink:href="#DejaVuSans-30" x="95.410156"/>
       <use xlink:href="#DejaVuSans-32" x="159.033203"/>
      </g>
     </g>
    </g>
    <g id="ytick_3">
     <g id="line2d_9">
      <g>
       <use xlink:href="#m1bdca46951" x="54.02" y="196.728" style="stroke: #000000; stroke-width: 0.8"/>
      </g>
     </g>
     <g id="text_10">
      <!-- 0.04 -->
      <g transform="translate(24.754375 200.527219) scale(0.1 -0.1)">
       <use xlink:href="#DejaVuSans-30"/>
       <use xlink:href="#DejaVuSans-2e" x="63.623047"/>
       <use xlink:href="#DejaVuSans-30" x="95.410156"/>
       <use xlink:href="#DejaVuSans-34" x="159.033203"/>
      </g>
     </g>
    </g>
    <g id="ytick_4">
     <g id="line2d_10">
      <g>
       <use xlink:href="#m1bdca46951" x="54.02" y="136.072" style="stroke: #000000; stroke-width: 0.8"/>
      </g>
     </g>
     <g id="text_11">
      <!-- 0.06 -->
      <g transform="translate(24.754375 139.871219) scale(0.1 -0.1)">
       <use xlink:href="#DejaVuSans-30"/>
       <use xlink:href="#DejaVuSans-2e" x="63.623047"/>
       <use xlink:href="#DejaVuSans-30" x="95.410156"/>
       <use xlink:href="#DejaVuSans-36" x="159.033203"/>
      </g>
     </g>
    </g>
    <g id="ytick_5">
     <g id="line2d_11">
      <g>
       <use xlink:href="#m1bdca46951" x="54.02" y="75.416" style="stroke: #000000; stroke-width: 0.8"/>
      </g>
     </g>
     <g id="text_12">
      <!-- 0.08 -->
      <g transform="translate(24.754375 79.215219) scale(0.1 -0.1)">
       <use xlink:href="#DejaVuSans-30"/>
       <use xlink:href="#DejaVuSans-2e" x="63.623047"/>
       <use xlink:href="#DejaVuSans-30" x="95.410156"/>
       <use xlink:href="#DejaVuSans-38" x="159.033203"/>
      </g>
     </g>
    </g>
    <g id="ytick_6">
     <g id="line2d_12">
      <g>
       <use xlink:href="#m1bdca46951" x="54.02" y="14.76" style="stroke: #000000; stroke-width: 0.8"/>
      </g>
     </g>
     <g id="text_13">
      <!-- 0.10 -->
      <g transform="translate(24.754375 18.559219) scale(0.1 -0.1)">
       <use xlink:href="#DejaVuSans-30"/>
       <use xlink:href="#DejaVuSans-2e" x="63.623047"/>
       <use xlink:href="#DejaVuSans-31" x="95.410156"/>
       <use xlink:href="#DejaVuSans-30" x="159.033203"/>
      </g>
     </g>
    </g>
    <g id="text_14">
     <!-- Spearman Correlation -->
     <g transform="translate(18.674688 221.117969) rotate(-90) scale(0.1 -0.1)">
      <defs>
       <path id="DejaVuSans-53" d="M 3425 4513 
L 3425 3897 
Q 3066 4069 2747 4153 
Q 2428 4238 2131 4238 
Q 1616 4238 1336 4038 
Q 1056 3838 1056 3469 
Q 1056 3159 1242 3001 
Q 1428 2844 1947 2747 
L 2328 2669 
Q 3034 2534 3370 2195 
Q 3706 1856 3706 1288 
Q 3706 609 3251 259 
Q 2797 -91 1919 -91 
Q 1588 -91 1214 -16 
Q 841 59 441 206 
L 441 856 
Q 825 641 1194 531 
Q 1563 422 1919 422 
Q 2459 422 2753 634 
Q 3047 847 3047 1241 
Q 3047 1584 2836 1778 
Q 2625 1972 2144 2069 
L 1759 2144 
Q 1053 2284 737 2584 
Q 422 2884 422 3419 
Q 422 4038 858 4394 
Q 1294 4750 2059 4750 
Q 2388 4750 2728 4690 
Q 3069 4631 3425 4513 
z
" transform="scale(0.015625)"/>
       <path id="DejaVuSans-6e" d="M 3513 2113 
L 3513 0 
L 2938 0 
L 2938 2094 
Q 2938 2591 2744 2837 
Q 2550 3084 2163 3084 
Q 1697 3084 1428 2787 
Q 1159 2491 1159 1978 
L 1159 0 
L 581 0 
L 581 3500 
L 1159 3500 
L 1159 2956 
Q 1366 3272 1645 3428 
Q 1925 3584 2291 3584 
Q 2894 3584 3203 3211 
Q 3513 2838 3513 2113 
z
" transform="scale(0.015625)"/>
       <path id="DejaVuSans-43" d="M 4122 4306 
L 4122 3641 
Q 3803 3938 3442 4084 
Q 3081 4231 2675 4231 
Q 1875 4231 1450 3742 
Q 1025 3253 1025 2328 
Q 1025 1406 1450 917 
Q 1875 428 2675 428 
Q 3081 428 3442 575 
Q 3803 722 4122 1019 
L 4122 359 
Q 3791 134 3420 21 
Q 3050 -91 2638 -91 
Q 1578 -91 968 557 
Q 359 1206 359 2328 
Q 359 3453 968 4101 
Q 1578 4750 2638 4750 
Q 3056 4750 3426 4639 
Q 3797 4528 4122 4306 
z
" transform="scale(0.015625)"/>
      </defs>
      <use xlink:href="#DejaVuSans-53"/>
      <use xlink:href="#DejaVuSans-70" x="63.476562"/>
      <use xlink:href="#DejaVuSans-65" x="126.953125"/>
      <use xlink:href="#DejaVuSans-61" x="188.476562"/>
      <use xlink:href="#DejaVuSans-72" x="249.755859"/>
      <use xlink:href="#DejaVuSans-6d" x="289.119141"/>
      <use xlink:href="#DejaVuSans-61" x="386.53125"/>
      <use xlink:href="#DejaVuSans-6e" x="447.810547"/>
      <use xlink:href="#DejaVuSans-20" x="511.189453"/>
      <use xlink:href="#DejaVuSans-43" x="542.976562"/>
      <use xlink:href="#DejaVuSans-6f" x="612.800781"/>
      <use xlink:href="#DejaVuSans-72" x="673.982422"/>
      <use xlink:href="#DejaVuSans-72" x="713.345703"/>
      <use xlink:href="#DejaVuSans-65" x="752.208984"/>
      <use xlink:href="#DejaVuSans-6c" x="813.732422"/>
      <use xlink:href="#DejaVuSans-61" x="841.515625"/>
      <use xlink:href="#DejaVuSans-74" x="902.794922"/>
      <use xlink:href="#DejaVuSans-69" x="942.003906"/>
      <use xlink:href="#DejaVuSans-6f" x="969.787109"/>
      <use xlink:href="#DejaVuSans-6e" x="1030.96875"/>
     </g>
    </g>
   </g>
   <g id="line2d_13">
    <path d="M 67.437273 169.184512 
L 156.885758 168.698507 
L 246.334242 152.979912 
L 335.782727 129.645582 
" clip-path="url(#p29882638d3)" style="fill: none; stroke: #7209b7; stroke-width: 1.5; stroke-linecap: square"/>
    <defs>
     <path id="med618d22c2" d="M 0 4 
C 1.060812 4 2.078319 3.578535 2.828427 2.828427 
C 3.578535 2.078319 4 1.060812 4 0 
C 4 -1.060812 3.578535 -2.078319 2.828427 -2.828427 
C 2.078319 -3.578535 1.060812 -4 0 -4 
C -1.060812 -4 -2.078319 -3.578535 -2.828427 -2.828427 
C -3.578535 -2.078319 -4 -1.060812 -4 0 
C -4 1.060812 -3.578535 2.078319 -2.828427 2.828427 
C -2.078319 3.578535 -1.060812 4 0 4 
z
" style="stroke: #ffffff"/>
    </defs>
    <g clip-path="url(#p29882638d3)">
     <use xlink:href="#med618d22c2" x="67.437273" y="169.184512" style="fill: #7209b7; stroke: #ffffff"/>
     <use xlink:href="#med618d22c2" x="156.885758" y="168.698507" style="fill: #7209b7; stroke: #ffffff"/>
     <use xlink:href="#med618d22c2" x="246.334242" y="152.979912" style="fill: #7209b7; stroke: #ffffff"/>
     <use xlink:href="#med618d22c2" x="335.782727" y="129.645582" style="fill: #7209b7; stroke: #ffffff"/>
    </g>
   </g>
   <g id="line2d_14">
    <path d="M 67.437273 169.184512 
L 156.885758 168.698507 
L 246.334242 152.979912 
L 335.782727 129.645582 
" clip-path="url(#p29882638d3)" style="fill: none; stroke: #7209b7; stroke-width: 1.5; stroke-linecap: square"/>
   </g>
   <g id="line2d_15">
    <path d="M 67.437273 132.308352 
L 134.523636 96.343343 
L 201.61 148.632727 
L 268.696364 152.02908 
L 335.782727 169.041385 
" clip-path="url(#p29882638d3)" style="fill: none; stroke: #480ca8; stroke-width: 1.5; stroke-linecap: square"/>
    <defs>
     <path id="m8528541f3b" d="M 0 4 
C 1.060812 4 2.078319 3.578535 2.828427 2.828427 
C 3.578535 2.078319 4 1.060812 4 0 
C 4 -1.060812 3.578535 -2.078319 2.828427 -2.828427 
C 2.078319 -3.578535 1.060812 -4 0 -4 
C -1.060812 -4 -2.078319 -3.578535 -2.828427 -2.828427 
C -3.578535 -2.078319 -4 -1.060812 -4 0 
C -4 1.060812 -3.578535 2.078319 -2.828427 2.828427 
C -2.078319 3.578535 -1.060812 4 0 4 
z
" style="stroke: #ffffff"/>
    </defs>
    <g clip-path="url(#p29882638d3)">
     <use xlink:href="#m8528541f3b" x="67.437273" y="132.308352" style="fill: #480ca8; stroke: #ffffff"/>
     <use xlink:href="#m8528541f3b" x="134.523636" y="96.343343" style="fill: #480ca8; stroke: #ffffff"/>
     <use xlink:href="#m8528541f3b" x="201.61" y="148.632727" style="fill: #480ca8; stroke: #ffffff"/>
     <use xlink:href="#m8528541f3b" x="268.696364" y="152.02908" style="fill: #480ca8; stroke: #ffffff"/>
     <use xlink:href="#m8528541f3b" x="335.782727" y="169.041385" style="fill: #480ca8; stroke: #ffffff"/>
    </g>
   </g>
   <g id="line2d_16">
    <path d="M 67.437273 132.308352 
L 134.523636 96.343343 
L 201.61 148.632727 
L 268.696364 152.02908 
L 335.782727 169.041385 
" clip-path="url(#p29882638d3)" style="fill: none; stroke: #480ca8; stroke-width: 1.5; stroke-linecap: square"/>
   </g>
   <g id="line2d_17">
    <path d="M 67.437273 133.622803 
L 134.523636 112.069728 
L 201.61 121.533984 
L 268.696364 95.340959 
L 335.782727 178.670407 
" clip-path="url(#p29882638d3)" style="fill: none; stroke: #3f37c9; stroke-width: 1.5; stroke-linecap: square"/>
    <defs>
     <path id="m144ab0021b" d="M 0 4 
C 1.060812 4 2.078319 3.578535 2.828427 2.828427 
C 3.578535 2.078319 4 1.060812 4 0 
C 4 -1.060812 3.578535 -2.078319 2.828427 -2.828427 
C 2.078319 -3.578535 1.060812 -4 0 -4 
C -1.060812 -4 -2.078319 -3.578535 -2.828427 -2.828427 
C -3.578535 -2.078319 -4 -1.060812 -4 0 
C -4 1.060812 -3.578535 2.078319 -2.828427 2.828427 
C -2.078319 3.578535 -1.060812 4 0 4 
z
" style="stroke: #ffffff"/>
    </defs>
    <g clip-path="url(#p29882638d3)">
     <use xlink:href="#m144ab0021b" x="67.437273" y="133.622803" style="fill: #3f37c9; stroke: #ffffff"/>
     <use xlink:href="#m144ab0021b" x="134.523636" y="112.069728" style="fill: #3f37c9; stroke: #ffffff"/>
     <use xlink:href="#m144ab0021b" x="201.61" y="121.533984" style="fill: #3f37c9; stroke: #ffffff"/>
     <use xlink:href="#m144ab0021b" x="268.696364" y="95.340959" style="fill: #3f37c9; stroke: #ffffff"/>
     <use xlink:href="#m144ab0021b" x="335.782727" y="178.670407" style="fill: #3f37c9; stroke: #ffffff"/>
    </g>
   </g>
   <g id="line2d_18">
    <path d="M 67.437273 133.622803 
L 134.523636 112.069728 
L 201.61 121.533984 
L 268.696364 95.340959 
L 335.782727 178.670407 
" clip-path="url(#p29882638d3)" style="fill: none; stroke: #3f37c9; stroke-width: 1.5; stroke-linecap: square"/>
   </g>
   <g id="line2d_19">
    <path d="M 67.437273 140.055156 
L 156.885758 159.235995 
L 246.334242 163.657198 
L 335.782727 141.063444 
" clip-path="url(#p29882638d3)" style="fill: none; stroke: #4361ee; stroke-width: 1.5; stroke-linecap: square"/>
    <defs>
     <path id="mc46f114533" d="M 0 4 
C 1.060812 4 2.078319 3.578535 2.828427 2.828427 
C 3.578535 2.078319 4 1.060812 4 0 
C 4 -1.060812 3.578535 -2.078319 2.828427 -2.828427 
C 2.078319 -3.578535 1.060812 -4 0 -4 
C -1.060812 -4 -2.078319 -3.578535 -2.828427 -2.828427 
C -3.578535 -2.078319 -4 -1.060812 -4 0 
C -4 1.060812 -3.578535 2.078319 -2.828427 2.828427 
C -2.078319 3.578535 -1.060812 4 0 4 
z
" style="stroke: #ffffff"/>
    </defs>
    <g clip-path="url(#p29882638d3)">
     <use xlink:href="#mc46f114533" x="67.437273" y="140.055156" style="fill: #4361ee; stroke: #ffffff"/>
     <use xlink:href="#mc46f114533" x="156.885758" y="159.235995" style="fill: #4361ee; stroke: #ffffff"/>
     <use xlink:href="#mc46f114533" x="246.334242" y="163.657198" style="fill: #4361ee; stroke: #ffffff"/>
     <use xlink:href="#mc46f114533" x="335.782727" y="141.063444" style="fill: #4361ee; stroke: #ffffff"/>
    </g>
   </g>
   <g id="line2d_20">
    <path d="M 67.437273 140.055156 
L 156.885758 159.235995 
L 246.334242 163.657198 
L 335.782727 141.063444 
" clip-path="url(#p29882638d3)" style="fill: none; stroke: #4361ee; stroke-width: 1.5; stroke-linecap: square"/>
   </g>
   <g id="line2d_21">
    <path d="M 67.437273 142.713479 
L 97.253434 213.506732 
L 127.069596 101.241189 
L 156.885758 165.846647 
L 186.701919 191.821826 
L 216.518081 226.199931 
L 246.334242 122.847172 
L 276.150404 86.006973 
L 305.966566 163.393183 
L 335.782727 103.39942 
" clip-path="url(#p29882638d3)" style="fill: none; stroke: #4cc9f0; stroke-width: 1.5; stroke-linecap: square"/>
    <defs>
     <path id="m3141b71a3b" d="M 0 4 
C 1.060812 4 2.078319 3.578535 2.828427 2.828427 
C 3.578535 2.078319 4 1.060812 4 0 
C 4 -1.060812 3.578535 -2.078319 2.828427 -2.828427 
C 2.078319 -3.578535 1.060812 -4 0 -4 
C -1.060812 -4 -2.078319 -3.578535 -2.828427 -2.828427 
C -3.578535 -2.078319 -4 -1.060812 -4 0 
C -4 1.060812 -3.578535 2.078319 -2.828427 2.828427 
C -2.078319 3.578535 -1.060812 4 0 4 
z
" style="stroke: #ffffff"/>
    </defs>
    <g clip-path="url(#p29882638d3)">
     <use xlink:href="#m3141b71a3b" x="67.437273" y="142.713479" style="fill: #4cc9f0; stroke: #ffffff"/>
     <use xlink:href="#m3141b71a3b" x="97.253434" y="213.506732" style="fill: #4cc9f0; stroke: #ffffff"/>
     <use xlink:href="#m3141b71a3b" x="127.069596" y="101.241189" style="fill: #4cc9f0; stroke: #ffffff"/>
     <use xlink:href="#m3141b71a3b" x="156.885758" y="165.846647" style="fill: #4cc9f0; stroke: #ffffff"/>
     <use xlink:href="#m3141b71a3b" x="186.701919" y="191.821826" style="fill: #4cc9f0; stroke: #ffffff"/>
     <use xlink:href="#m3141b71a3b" x="216.518081" y="226.199931" style="fill: #4cc9f0; stroke: #ffffff"/>
     <use xlink:href="#m3141b71a3b" x="246.334242" y="122.847172" style="fill: #4cc9f0; stroke: #ffffff"/>
     <use xlink:href="#m3141b71a3b" x="276.150404" y="86.006973" style="fill: #4cc9f0; stroke: #ffffff"/>
     <use xlink:href="#m3141b71a3b" x="305.966566" y="163.393183" style="fill: #4cc9f0; stroke: #ffffff"/>
     <use xlink:href="#m3141b71a3b" x="335.782727" y="103.39942" style="fill: #4cc9f0; stroke: #ffffff"/>
    </g>
   </g>
   <g id="line2d_22">
    <path d="M 67.437273 142.713479 
L 97.253434 213.506732 
L 127.069596 101.241189 
L 156.885758 165.846647 
L 186.701919 191.821826 
L 216.518081 226.199931 
L 246.334242 122.847172 
L 276.150404 86.006973 
L 305.966566 163.393183 
L 335.782727 103.39942 
" clip-path="url(#p29882638d3)" style="fill: none; stroke: #4cc9f0; stroke-width: 1.5; stroke-linecap: square"/>
   </g>
   <g id="line2d_23">
    <path d="M 67.437273 68.568857 
L 91.832314 121.871126 
L 116.227355 176.121186 
L 140.622397 75.956543 
L 165.017438 94.783608 
L 189.412479 89.209493 
L 213.807521 103.543142 
L 238.202562 69.423371 
L 262.597603 90.80776 
L 286.992645 73.991276 
L 311.387686 165.261065 
L 335.782727 92.561836 
" clip-path="url(#p29882638d3)" style="fill: none; stroke: #f48c06; stroke-width: 1.5; stroke-linecap: square"/>
    <defs>
     <path id="m5377512b0c" d="M 0 4 
C 1.060812 4 2.078319 3.578535 2.828427 2.828427 
C 3.578535 2.078319 4 1.060812 4 0 
C 4 -1.060812 3.578535 -2.078319 2.828427 -2.828427 
C 2.078319 -3.578535 1.060812 -4 0 -4 
C -1.060812 -4 -2.078319 -3.578535 -2.828427 -2.828427 
C -3.578535 -2.078319 -4 -1.060812 -4 0 
C -4 1.060812 -3.578535 2.078319 -2.828427 2.828427 
C -2.078319 3.578535 -1.060812 4 0 4 
z
" style="stroke: #ffffff"/>
    </defs>
    <g clip-path="url(#p29882638d3)">
     <use xlink:href="#m5377512b0c" x="67.437273" y="68.568857" style="fill: #f48c06; stroke: #ffffff"/>
     <use xlink:href="#m5377512b0c" x="91.832314" y="121.871126" style="fill: #f48c06; stroke: #ffffff"/>
     <use xlink:href="#m5377512b0c" x="116.227355" y="176.121186" style="fill: #f48c06; stroke: #ffffff"/>
     <use xlink:href="#m5377512b0c" x="140.622397" y="75.956543" style="fill: #f48c06; stroke: #ffffff"/>
     <use xlink:href="#m5377512b0c" x="165.017438" y="94.783608" style="fill: #f48c06; stroke: #ffffff"/>
     <use xlink:href="#m5377512b0c" x="189.412479" y="89.209493" style="fill: #f48c06; stroke: #ffffff"/>
     <use xlink:href="#m5377512b0c" x="213.807521" y="103.543142" style="fill: #f48c06; stroke: #ffffff"/>
     <use xlink:href="#m5377512b0c" x="238.202562" y="69.423371" style="fill: #f48c06; stroke: #ffffff"/>
     <use xlink:href="#m5377512b0c" x="262.597603" y="90.80776" style="fill: #f48c06; stroke: #ffffff"/>
     <use xlink:href="#m5377512b0c" x="286.992645" y="73.991276" style="fill: #f48c06; stroke: #ffffff"/>
     <use xlink:href="#m5377512b0c" x="311.387686" y="165.261065" style="fill: #f48c06; stroke: #ffffff"/>
     <use xlink:href="#m5377512b0c" x="335.782727" y="92.561836" style="fill: #f48c06; stroke: #ffffff"/>
    </g>
   </g>
   <g id="line2d_24">
    <path d="M 67.437273 68.568857 
L 91.832314 121.871126 
L 116.227355 176.121186 
L 140.622397 75.956543 
L 165.017438 94.783608 
L 189.412479 89.209493 
L 213.807521 103.543142 
L 238.202562 69.423371 
L 262.597603 90.80776 
L 286.992645 73.991276 
L 311.387686 165.261065 
L 335.782727 92.561836 
" clip-path="url(#p29882638d3)" style="fill: none; stroke: #f48c06; stroke-width: 1.5; stroke-linecap: square"/>
   </g>
   <g id="line2d_25">
    <path d="M 67.437273 125.104883 
L 91.832314 134.002336 
L 116.227355 92.083303 
L 140.622397 133.055992 
L 165.017438 96.788602 
L 189.412479 146.918698 
L 213.807521 71.380594 
L 238.202562 148.675709 
L 262.597603 128.18467 
L 286.992645 104.591723 
L 311.387686 95.577136 
L 335.782727 110.71756 
" clip-path="url(#p29882638d3)" style="fill: none; stroke: #ffba08; stroke-width: 1.5; stroke-linecap: square"/>
    <defs>
     <path id="mbf377842ff" d="M 0 4 
C 1.060812 4 2.078319 3.578535 2.828427 2.828427 
C 3.578535 2.078319 4 1.060812 4 0 
C 4 -1.060812 3.578535 -2.078319 2.828427 -2.828427 
C 2.078319 -3.578535 1.060812 -4 0 -4 
C -1.060812 -4 -2.078319 -3.578535 -2.828427 -2.828427 
C -3.578535 -2.078319 -4 -1.060812 -4 0 
C -4 1.060812 -3.578535 2.078319 -2.828427 2.828427 
C -2.078319 3.578535 -1.060812 4 0 4 
z
" style="stroke: #ffffff"/>
    </defs>
    <g clip-path="url(#p29882638d3)">
     <use xlink:href="#mbf377842ff" x="67.437273" y="125.104883" style="fill: #ffba08; stroke: #ffffff"/>
     <use xlink:href="#mbf377842ff" x="91.832314" y="134.002336" style="fill: #ffba08; stroke: #ffffff"/>
     <use xlink:href="#mbf377842ff" x="116.227355" y="92.083303" style="fill: #ffba08; stroke: #ffffff"/>
     <use xlink:href="#mbf377842ff" x="140.622397" y="133.055992" style="fill: #ffba08; stroke: #ffffff"/>
     <use xlink:href="#mbf377842ff" x="165.017438" y="96.788602" style="fill: #ffba08; stroke: #ffffff"/>
     <use xlink:href="#mbf377842ff" x="189.412479" y="146.918698" style="fill: #ffba08; stroke: #ffffff"/>
     <use xlink:href="#mbf377842ff" x="213.807521" y="71.380594" style="fill: #ffba08; stroke: #ffffff"/>
     <use xlink:href="#mbf377842ff" x="238.202562" y="148.675709" style="fill: #ffba08; stroke: #ffffff"/>
     <use xlink:href="#mbf377842ff" x="262.597603" y="128.18467" style="fill: #ffba08; stroke: #ffffff"/>
     <use xlink:href="#mbf377842ff" x="286.992645" y="104.591723" style="fill: #ffba08; stroke: #ffffff"/>
     <use xlink:href="#mbf377842ff" x="311.387686" y="95.577136" style="fill: #ffba08; stroke: #ffffff"/>
     <use xlink:href="#mbf377842ff" x="335.782727" y="110.71756" style="fill: #ffba08; stroke: #ffffff"/>
    </g>
   </g>
   <g id="line2d_26">
    <path d="M 67.437273 125.104883 
L 91.832314 134.002336 
L 116.227355 92.083303 
L 140.622397 133.055992 
L 165.017438 96.788602 
L 189.412479 146.918698 
L 213.807521 71.380594 
L 238.202562 148.675709 
L 262.597603 128.18467 
L 286.992645 104.591723 
L 311.387686 95.577136 
L 335.782727 110.71756 
" clip-path="url(#p29882638d3)" style="fill: none; stroke: #ffba08; stroke-width: 1.5; stroke-linecap: square"/>
   </g>
   <g id="line2d_27">
    <path d="M 54.02 159.078337 
L 349.2 159.078337 
" clip-path="url(#p29882638d3)" style="fill: none; stroke-dasharray: 7.4,3.2; stroke-dashoffset: 0; stroke: #ff0000; stroke-width: 2"/>
   </g>
   <g id="patch_3">
    <path d="M 54.02 318.04 
L 54.02 14.76 
" style="fill: none; stroke: #000000; stroke-width: 0.8; stroke-linejoin: miter; stroke-linecap: square"/>
   </g>
   <g id="patch_4">
    <path d="M 54.02 318.04 
L 349.2 318.04 
" style="fill: none; stroke: #000000; stroke-width: 0.8; stroke-linejoin: miter; stroke-linecap: square"/>
   </g>
  </g>
 </g>
 <defs>
  <clipPath id="p29882638d3">
   <rect x="54.02" y="14.76" width="295.18" height="303.28"/>
  </clipPath>
 </defs>
</svg>
